<svg xmlns="http://www.w3.org/2000/svg" viewBox="0 0 122 668" style="enable-background:new 0 0 122 668" xml:space="preserve"><g style="enable-background:new"><path style="fill:#124e79" d="M20.78 231.44v-8.89H55.6v-39.46H20.78v-8.99h76.33v8.89H63.6v39.46h33.51v8.89H20.78v.1zM19.48 273c0-8.09 2.5-14.49 7.6-19.28s11.8-7.19 20.31-7.19c9.2 0 16.31 2.5 21.41 7.49 5.1 5 7.7 11.79 7.7 20.28 0 8.09-2.5 14.49-7.5 18.98-5 4.6-11.9 6.79-20.81 6.79-8.7 0-15.71-2.5-20.91-7.39-5.2-4.8-7.8-11.39-7.8-19.68zm49.72.7c0-5.59-1.9-9.99-5.7-13.29-3.8-3.3-9.1-4.9-15.81-4.9-6.5 0-11.5 1.6-15.31 4.9-3.7 3.3-5.6 7.69-5.6 13.29 0 5.59 1.8 9.99 5.5 12.99s8.9 4.6 15.61 4.6c6.8 0 12.1-1.5 15.81-4.6 3.7-3.1 5.5-7.4 5.5-12.99zm-48.42 85.51v-8.69H51.9c11.6 0 17.41-4.2 17.41-12.69 0-4.4-1.6-7.99-4.9-10.79-3.3-2.9-7.4-4.3-12.41-4.3H20.78v-8.69H75.3v8.69h-9v.2c6.9 4.1 10.3 10.09 10.3 17.88 0 5.99-1.9 10.49-5.8 13.69-3.9 3.2-9.4 4.7-16.71 4.7H20.78zm-1.3 39.26c0-8.09 2.5-14.49 7.6-19.28 5.1-4.8 11.8-7.19 20.31-7.19 9.2 0 16.31 2.5 21.41 7.49 5.1 4.99 7.7 11.79 7.7 20.28 0 8.09-2.5 14.49-7.5 18.98-5 4.6-11.9 6.79-20.81 6.79-8.7 0-15.71-2.5-20.91-7.39-5.2-4.89-7.8-11.49-7.8-19.68zm49.72.6c0-5.59-1.9-9.99-5.7-13.29-3.8-3.3-9.1-4.9-15.81-4.9-6.5 0-11.5 1.6-15.31 4.9-3.7 3.3-5.6 7.69-5.6 13.29 0 5.59 1.8 9.99 5.5 12.99s8.9 4.6 15.61 4.6c6.8 0 12.1-1.5 15.81-4.6 3.7-3 5.5-7.4 5.5-12.99zm-2.7 68.83c1.2-1.5 1.8-3.7 1.8-6.59 0-3.7-1.8-6.79-5.3-9.29-3.5-2.5-8.3-3.8-14.41-3.8H20.78v-8.69H75.3v8.69H64.1v.2c3.8 1.2 6.8 3.1 9 5.69 2.1 2.6 3.2 5.39 3.2 8.59 0 2.3-.2 4-.7 5.19l-9.1.01zm-45.72 95.11v-10.59l21.41-12.79c2-1.2 3.7-2.3 5.1-3.4 1.4-1.1 2.5-2.2 3.4-3.4.9-1.2 1.5-2.4 1.9-3.7s.6-2.8.6-4.5v-7.29H20.78v-8.89h76.33v22.78c0 3.3-.4 6.39-1.3 9.19-.8 2.8-2.1 5.29-3.8 7.29-1.7 2.1-3.8 3.7-6.4 4.9-2.5 1.2-5.5 1.8-8.9 1.8-2.7 0-5.1-.4-7.3-1.2-2.2-.8-4.2-1.9-5.9-3.4-1.7-1.5-3.2-3.2-4.4-5.29-1.2-2.1-2.2-4.4-2.8-6.99h-.2c-.6 1.3-1.2 2.4-1.9 3.3-.7.9-1.6 1.8-2.6 2.7-1 .9-2.1 1.7-3.4 2.5-1.3.8-2.7 1.8-4.4 2.8l-23.03 14.18zm68.23-45.76H61.4v12.09c0 2.2.3 4.3 1 6.19.7 1.9 1.6 3.5 2.9 4.9s2.8 2.5 4.6 3.2c1.8.7 3.9 1.2 6.1 1.2 4.1 0 7.3-1.3 9.6-4 2.3-2.6 3.4-6.49 3.4-11.49v-12.09zm-69.53 74.63c0-8.09 2.5-14.49 7.6-19.28 5.1-4.8 11.8-7.19 20.31-7.19 9.2 0 16.31 2.5 21.41 7.49 5.1 4.99 7.7 11.79 7.7 20.28 0 8.09-2.5 14.49-7.5 18.98-5 4.6-11.9 6.79-20.81 6.79-8.7 0-15.71-2.5-20.91-7.39s-7.8-11.39-7.8-19.68zm49.72.6c0-5.59-1.9-9.99-5.7-13.29-3.8-3.3-9.1-4.9-15.81-4.9-6.5 0-11.5 1.6-15.31 4.9-3.7 3.3-5.6 7.69-5.6 13.29s1.8 9.99 5.5 12.99 8.9 4.6 15.61 4.6c6.8 0 12.1-1.5 15.81-4.6 3.7-3 5.5-7.3 5.5-12.99zm-48.42 49.15v-8.69h80.73v8.69H20.78zm0 26.37v-8.69h80.73V668H20.78z"/></g><path style="fill:#b69460" d="m-18.98-2649.29-1.8-3.4c-.8-1.6-1.2-3.4-.9-5.19l.5-3.7c.4-2.8-.6-5.69-2.7-7.59l-2.8-2.6c-1.3-1.2-2.2-2.8-2.6-4.6l-.8-3.7c-.6-2.8-2.6-5.19-5.2-6.29l-3.6-1.6c-1.7-.7-3.1-1.9-4.1-3.4l-2-3.2c-1.6-2.5-4.3-4-7.2-4.2l-3.9-.3c-1.8-.1-3.5-.8-5-1.8l-3.1-2.3c-2.4-1.8-5.5-2.3-8.4-1.5l-3.7 1.1c-1.7.5-3.6.5-5.4 0l-3.7-1.1c-2.9-.8-6-.3-8.4 1.5l-3.1 2.3c-1.5 1.1-3.2 1.7-5 1.8l-3.9.3c-2.9.2-5.6 1.7-7.2 4.2l-2 3.2c-1 1.5-2.4 2.7-4.1 3.4l-3.6 1.6c-2.7 1.1-4.6 3.5-5.2 6.29l-.8 3.7c-.4 1.8-1.3 3.4-2.6 4.6l-2.8 2.6c-2.1 1.9-3.1 4.8-2.7 7.59l.5 3.7c.3 1.8-.1 3.6-.9 5.19l-1.8 3.4c-1.3 2.5-1.3 5.49 0 7.99l1.8 3.4c.8 1.6 1.2 3.4.9 5.19l-.5 3.7c-.4 2.8.6 5.69 2.7 7.59l2.8 2.6c1.3 1.2 2.2 2.8 2.6 4.6l.8 3.7c.6 2.8 2.6 5.19 5.2 6.29l3.6 1.5c1.7.7 3.1 1.9 4.1 3.4l2 3.2c1.6 2.5 4.3 4 7.2 4.2l3.9.3c1.8.1 3.5.8 5 1.8l3.1 2.3c2.4 1.8 5.5 2.3 8.4 1.5l3.7-1.1c1.7-.5 3.6-.5 5.4 0l3.7 1.1c2.9.8 6 .3 8.4-1.5l3.1-2.3c1.5-1.1 3.2-1.7 5-1.8l3.9-.3c2.9-.2 5.6-1.7 7.2-4.2l2-3.2c1-1.5 2.4-2.7 4.1-3.4l3.6-1.6c2.7-1.1 4.6-3.5 5.2-6.29l.8-3.7c.4-1.8 1.3-3.4 2.6-4.6l2.8-2.6c2.1-1.9 3.1-4.8 2.7-7.59l-.5-3.7c-.3-1.8.1-3.6.9-5.19l1.8-3.4c1.31-2.39 1.31-5.39 0-7.89zM-79-2591.24c-30.31 0-54.92-24.18-54.92-54.15s24.61-54.15 54.92-54.15 54.92 24.18 54.92 54.15-24.61 54.15-54.92 54.15z" transform="translate(140 2705)"/><path style="fill:#b69460" d="M-100.1-2626.13c-22.01 0-39.82-17.58-39.82-39.26s17.91-39.26 39.82-39.26 39.82 17.58 39.82 39.26c0 21.58-17.91 39.26-39.82 39.26zm0-77.32c-21.21 0-38.52 17.08-38.52 37.96 0 20.88 17.31 38.06 38.52 38.06s38.52-17.08 38.52-38.06c0-20.98-17.31-37.96-38.52-37.96z" transform="translate(161.154 2725.158)"/><path style="fill:#003b63" d="M-137.6-2704.78h-.8v1.6c0 .5-.3 1-.8 1.2-.3.1-.6.2-.9.2v1.3c.4 0 .8-.1 1.1-.2v6.99h.8v-7.49c.4-.4.5-.9.5-1.5l.1-2.1zm.8.6h4.5v1.3h-4.5zm0 8.89h4.5v1.3h-4.5z" transform="translate(202.227 2757.453)"/><path style="fill:#003b63" d="M-128.7-2683.09h.8v1.3h-.8zm0-2.4h.8v1.3h-.8zm5.2 2.4h.8v1.3h-.8zm-1.3-2.4h.8v1.3h-.8zm-2.5 2.4h.8v1.3h-.8z" transform="translate(181.695 2741.779)"/><path style="fill:#003b63" d="M-107.39-2701.67c-.3 0-.6 0-.9.1-3.1.4-6.2-.2-8.9-1.6-.3-.2-.6-.3-.9-.5-.1-.1-.3-.2-.4-.3-.1-.1-.3-.2-.4-.3-1-.7-2.4-.7-3.4 0l-.4.3c-.1.1-.3.2-.4.3-.3.2-.6.4-.9.5-2.7 1.4-5.8 2-8.9 1.6-.3 0-.6-.1-.9-.1-3.3 0-6 2.7-6.1 5.99v12.99c.1 10.89 7.8 20.28 18.51 22.38.3 0 .5.1.8.1h.7c10.7-2.1 18.41-11.39 18.61-22.28v-13.09c-.12-3.39-2.82-6.09-6.12-6.09zm-14.71 12.59v1.8h-1.4v.7h1.4v8.69h-.6v-2.6h-.8v2.7h-.6v-2.7h-.8v2.6h-.6v-8.69h1.4v-.7h-1.4v-1.2h1.4v-.6h.6v.6h.8v-.6h.6zm-2.7-7.1.6-1.1.5 1.1 1.2.2-.9.8.2 1.2-1.1-.6-1.1.6.2-1.2-.9-.8 1.3-.2zm-5.5 3.4.6-1.1.5 1.1 1.2.2-.9.8.2 1.2-1.1-.6-1.1.6.2-1.2-.9-.8 1.3-.2zm-3.41 5.69.6-1.1.5 1.1 1.2.2-.9.8.2 1.2-1.1-.6-1.1.6.2-1.2-.9-.8 1.3-.2zm.81 8.3-1.1.6.2-1.2-.9-.8 1.2-.2.5-1.1.5 1.1 1.2.2-.9.8.2 1.2-.9-.6zm4.5 5.99-1.1-.6-1.1.6.2-1.2-.9-.8 1.2-.2.5-1.1.5 1.1 1.2.2-.9.8.4 1.2zm2.4-14.59h-1.4v.7h1.4v6.09h-1.4v.7h1.4v1.2h-1.4v.8h-.6v-.8h-1.4v-1.2h1.4v-.7h-1.4v-6.09h1.4v-.7h-1.4v-1.2h1.4v-.6h.6v.6h1.4v1.2zm3.3 17.89-1.1-.6-1.1.6.2-1.2-.9-.8 1.2-.2.5-1.1.5 1.1 1.2.2-.9.8.4 1.2zm20.01-13.19c-.1 10.19-7.3 18.88-17.21 20.78h-.7v-41.46c.6 0 1.1.2 1.6.6.1.1.2.2.4.2s.3.2.4.3c.3.2.6.3.9.5 2.7 1.3 5.7 1.8 8.6 1.4.3 0 .7-.1 1 0 2.8 0 5.2 2.3 5.2 5.09v.2c-.19 0-.19 12.29-.19 12.39z" transform="translate(181.695 2741.779)"/><path style="fill:#003b63" d="M-124.8-2683.09h.8v1.3h-.8zm1.3-2.4h.8v1.3h-.8zm-3.8 0h.8v1.3h-.8z" transform="translate(181.695 2741.779)"/><path style="fill:#003b63" d="m-136.6-2703.58-1.2-.2-.5-1-.5 1-1.2.2.8.8-.2 1.2 1-.5 1 .5-.2-1.2 1-.8zm5 4 .8-.8-1.2-.2-.5-1-.5 1-1.2.2.8.8-.2 1.1 1-.5 1 .5v-1.1zm3.31 5.39.8-.8-1.2-.2-.5-1-.5 1-1.2.2.8.8-.2 1.1 1-.5 1 .5v-1.1zm1 5.8-1.2-.2-.5-1-.5 1-1.2.2.8.8-.2 1.1 1-.5 1 .5-.2-1.1 1-.8zm-3.11 5.69-1.2-.2-.5-1-.5 1-1.2.2.8.8-.2 1.1 1-.5 1 .5-.2-1.1 1-.8zm-6.5 4.3.8-.8-1.2-.2-.5-1-.5 1-1.1.2.8.8-.2 1.1 1-.5 1 .5-.1-1.1z" transform="translate(202.419 2749.341)"/><path style="fill:#b69460" d="M-101.4-2700.96v-1.7c-.8-.1-1.6-.1-2.6-.2h-.1v-1.9h-1.9v1.9h-.1c-1 0-1.8.1-2.6.2v1.7c.8-.1 1.6-.1 2.6-.2h.1v5.39h1.9v-5.39h.1c1 0 1.9.1 2.6.2z" transform="translate(166.008 2730.556)"/><path style="fill-rule:evenodd;clip-rule:evenodd;fill:#b69460" d="M-122.61-2700.96h.2c2.1-.6 4.1-1.8 5.5-3.4v-.1c0-.1 0-.2-.2-.3-2.4 0-5.2 1.5-6 3-.1.3 0 .6.2.8.2-.1.3 0 .3 0zm-10.7 10.19h.2c.1 0 .1-.1.2-.1 1.5-2.1 2.3-4.6 2.3-7.09 0-.1-.1-.2-.2-.2 0 0-.1 0-.1.1-.3.3-.7.7-.9 1-1.3 1.4-2 3.2-2.1 5.19 0 .3 0 .6.1.8 0 .1.2.3.5.3zm-4.5 15.88c.1.1.2.1.3.1h.2c.1 0 .2-.1.3-.2.1-.1.1-.2.1-.3.3-2.3-.9-6.79-2.2-7.99 0 0-.1-.1-.2-.1s-.1 0-.1.1l-.1.1c-.7 2.3-.5 4.8.5 6.99.3.5.7.9 1.2 1.3zm11.7-18.98c0-.2-.1-.3-.2-.3-2.5.1-4.8 1.5-5.9 3.7v.4c.1.3.3.5.6.5h.1c2.2-.9 4.1-2.3 5.4-4.3zm-2.7-3.6h.2c.1 0 .1 0 .2-.1 1.9-1.5 3.4-3.5 4.1-5.69 0-.1 0-.2-.1-.3h-.1c-.4.2-.8.4-1.1.6-1.6.9-2.8 2.3-3.4 4.1-.1.3-.1.5-.1.8-.1.29.1.49.3.59zm7.3-1.9c0-.2 0-.3-.1-.3-2.4-.1-4.6 1-5.9 3v.4c0 .3.3.5.5.5h.1c2.1-.6 4-1.9 5.4-3.6zm-13 17.19h.2c1.8-.8 3.8-3.6 4.5-5.49v-.2c0-.1-.1-.2-.2-.2-2 0-4.8 2.9-5.1 5.19v.1c0 .1 0 .2.1.3.1.2.3.3.5.3zm-2.5-1.2c.1.2.3.3.5.3h.2c.1-.1.2-.1.3-.2v-.1c1-2.5 1.1-5.19.4-7.79 0-.1-.1-.2-.2-.2s-.1 0-.1.1c-.2.4-.4.8-.6 1.1-.9 1.7-1.2 3.7-.9 5.59 0 .5.2.8.4 1.2zm1.2 8.39c0 .1.1.2.2.3.1.1.3.1.4.1h.2c.1 0 .1-.1.2-.1 1.6-1.3 2.9-4.7 3.1-6.49 0-.1 0-.1-.1-.2 0 0-.1-.1-.2-.1-2.3.7-4.3 4.19-3.8 6.49zm-1.6 7.99c.2.2.4.4.7.5.1 0 .2.1.3.1h.2c.1 0 .2-.1.3-.2l.1-.1c0-.1 0-.1.1-.2v-.2c-.6-2.8-1.9-5.39-3.9-7.39 0 0-.1-.1-.2-.1h-.2c-.1 0-.1.1-.2.1v.1c-.1 1.9.3 3.9 1.2 5.59.6.6 1.1 1.2 1.6 1.8zm16.2 19.38c.1 0 .2-.1.3-.2l.1-.1c.2-.3.1-.7-.1-.9l-.1-.1c-2.6-1.5-5.5-2.2-8.5-2.1-.1 0-.2.1-.2.1v.4c1.3 1.2 2.8 2.1 4.4 2.7 1.1.4 2.2.6 3.3.4.2-.1.5-.1.8-.2zm-11.8-11.29h.2c.1 0 .2-.1.3-.2l.1-.1s0-.1.1-.2v-.5c-1.4-2.5-3.5-4.6-6-5.89h-.3c-.1 0-.1.1-.2.1v.2c.6 2.4 2 4.5 4 5.89.5.4 1.2.6 1.8.7zm-1.4-7.99.1.1h.1c.1.1.2.1.3.1.2 0 .4-.1.5-.2 1.2-1.6 1.6-5.19 1.3-7.29v-.1l-.1-.1s-.1-.1-.2-.1h-.2c-2.1 1.8-2.9 4.7-2.1 7.39.2.1.2.2.3.2zm6.2 13.99h.1c.1 0 .2-.1.3-.2l.1-.1c0-.1 0-.1.1-.2v-.2c0-.1 0-.2-.1-.3 0 0 0-.1-.1-.1-1.7-1.8-5.5-3.9-7.6-4-.1 0-.1.1-.2.1v.2c1.1 2.1 4.3 4.7 6.7 4.7.2.1.4.1.7.1zm-3.1-6.8s0 .1.1.1l.1.1h.1c.1 0 .2.1.2.1h.3c.1 0 .2-.1.3-.2l.1-.1c.2-.4.3-.8.4-1.2.2-1.6.2-3.2-.2-4.8-.1-.4-.2-.7-.3-1.1v-.1l-.1-.1h-.2c-.1 0-.1.1-.2.1l-.1.1c-1.2 1.6-1.7 3.6-1.3 5.49.3.62.5 1.12.8 1.61zm5.1 6.1c.1 0 .1 0 0 0 .1.1.2.1.3.1h.4c.1 0 .2-.1.3-.2l.1-.1v-.1c.4-1.9-.6-5.19-1.9-7.09h-.2c-.1 0-.1.1-.2.1-1.3 2.29-.8 5.29 1.2 7.29zm6.1 4.39c.1.1.2.1.4.1h.3c.1 0 .2-.1.3-.2 0 0 .1-.1.1-.2.1-.1.1-.3.1-.4-.2-2.6-1.8-4.6-3.4-6.59-.1-.1-.1-.1-.2-.1h-.1c-.1 0-.2.1-.2.1v.1c-.8 2.3.7 6 2.7 7.19zm6.71 3.5c-.1 0-.1-.1-.2-.1-2.9-.8-5.9-.7-8.7.2-.1 0-.1.1-.1.1v.4l.1.1h.1c1.5.8 3.3 1.3 5 1.4 1.1.1 2.3 0 3.3-.5.2-.1.5-.2.7-.4 0 0 .1 0 .1-.1 0 0 .1-.1.1-.2.1-.1.1-.3.1-.4 0-.2-.1-.4-.2-.5-.3.1-.3 0-.3 0z" transform="translate(166.008 2734.458)"/><path style="fill-rule:evenodd;clip-rule:evenodd;fill:#b69460" d="M-97.5-2646.12c2.5-.2 5.2-4.1 4.8-6.89v-.1c0-.1-.1-.1-.2-.1h-.3c-2.1 1.8-4 3.7-4.6 6.49-1.6.4-4.4 1.2-7.2 2.2-2.8-1-5.6-1.8-7.2-2.2-.5-2.8-2.5-4.7-4.6-6.49h-.3c-.1 0-.2.1-.2.1v.1c-.4 2.7 2.3 6.69 4.8 6.89 2.1.5 4.2 1.2 6.2 2.1-2.1.7-4.1 1.8-5.9 3.2l.9 1c1.9-1.5 4-2.8 6.3-3.7 2.3.9 4.4 2.2 6.3 3.7l.9-1c-1.8-1.4-3.7-2.5-5.9-3.2 2-.9 4.1-1.6 6.2-2.1zm4.4-58.24c1.5 1.7 3.4 2.8 5.5 3.4h.2c.3-.1.5-.4.5-.7v-.1c-.8-1.5-3.6-3-6-3-.1 0-.2.1-.2.3v.1zm16.21 13.49h.2c.3 0 .5-.2.6-.4.1-.3.1-.5.1-.8 0-1.9-.8-3.7-2.1-5.19-.3-.3-.6-.7-.9-1l-.1-.1c-.1 0-.3.1-.3.2 0 2.5.8 4.99 2.3 7.09.1.2.2.2.2.2zm3.8 15.58c0 .1.1.2.1.3.1.1.2.2.3.2h.2c.1 0 .2 0 .3-.1.5-.4.9-.9 1.1-1.4 1-2.2 1.1-4.7.5-6.99v-.1l-.1-.1c-.1 0-.1 0-.2.1-1.3 1.3-2.5 5.79-2.2 8.09zm-5.2-14.39c.3 0 .5-.2.6-.5v-.3c-1.1-2.2-3.4-3.7-5.9-3.7-.1 0-.2.1-.2.2v.1c1.3 2 3.2 3.4 5.3 4.2h.2zm-3.3-7.79c.1 0 .1.1.2.1.3 0 .6-.2.6-.6 0-.3-.1-.5-.2-.8-.6-1.7-1.8-3.2-3.4-4.1-.3-.2-.7-.4-1.1-.6h-.1c-.1 0-.2.2-.2.3.8 2.21 2.3 4.2 4.2 5.7zm-1.3 1.6c.3 0 .5-.2.5-.5v-.4c-1.3-2-3.5-3.2-5.9-3-.1 0-.2.1-.2.2v.1c1.4 1.7 3.3 3 5.4 3.5.1.1.2.1.2.1zm2.8 8.09v.1c.7 1.9 2.7 4.7 4.5 5.49h.2c.2 0 .4-.1.6-.3 0 0 0-.1.1-.1v-.3c-.3-2.2-3.1-5.09-5.1-5.19-.2.1-.3.2-.3.3zm6.1 4.4c.1.1.2.2.3.2h.2c.2 0 .4-.1.5-.3.2-.4.4-.7.5-1.1.4-1.9.1-3.9-.9-5.59-.2-.4-.4-.7-.6-1.1l-.1-.1c-.1 0-.2.1-.2.2-.8 2.49-.7 5.19.3 7.79 0-.1 0 0 0 0zm-.9 8.79h.2c.1 0 .3-.1.4-.1.1-.1.2-.2.2-.3.4-2.3-1.6-5.79-3.8-6.49-.1 0-.1 0-.2.1 0 0-.1.1-.1.2.2 1.8 1.4 5.19 3.1 6.49.1 0 .1.1.2.1zm4.7-.1c-.1 0-.2 0-.2.1-2 2.1-3.3 4.6-3.9 7.39v.2c0 .1 0 .1.1.2l.1.1c.1.1.2.2.3.2h.2c.1 0 .2 0 .3-.1.3-.1.5-.3.7-.5.6-.5 1-1.1 1.4-1.8.9-1.7 1.3-3.7 1.2-5.59v-.1s-.1 0-.2-.1zm-9.9 23.78c0-.1-.1-.1-.2-.1-3-.1-5.9.6-8.5 2.1l-.1.1c-.2.3-.3.6-.1.9.1.2.2.3.4.3.3.1.5.2.8.2 1.1.2 2.3 0 3.3-.4 1.7-.6 3.2-1.5 4.4-2.7v-.4zm9-14.69s0-.1 0 0c-.1-.1-.1-.2-.2-.2h-.2c-2.5 1.3-4.6 3.4-6 5.89v.5c0 .1 0 .1.1.2l.1.1c.1.1.2.2.3.2h.2c.6-.1 1.3-.3 1.8-.7 1.9-1.39 3.3-3.49 3.9-5.99zm-5.5-1.3c.1.1.2.2.3.2h.2c.1 0 .2 0 .3-.1h.1c.1 0 .1-.1.1-.1l.1-.1c.8-2.7 0-5.59-2.1-7.39h-.2c-.1 0-.1 0-.2.1v.2c-.2 2 .1 5.59 1.4 7.19zm2.4 9.09c-.1 0-.1 0 0 0-.1-.1-.1-.2-.2-.2-2.1.1-6 2.1-7.6 4l-.1.1c0 .1-.1.2-.1.2v.3c0 .1 0 .1.1.2l.1.1c.1.1.2.2.3.2h.9c2.5 0 5.6-2.7 6.7-4.7-.1-.1-.1-.1-.1-.2zm-5.7-1.9c.1.2.2.3.4.4h.3c.1 0 .2 0 .2-.1h.1c.1 0 .1-.1.1-.1l.1-.1c.3-.5.5-1.1.7-1.7.4-1.9 0-4-1.3-5.49v-.1s-.1-.1-.2-.1h-.2l-.1.1v.1c-.1.4-.2.8-.3 1.1-.4 1.6-.5 3.2-.2 4.8.1.4.2.79.4 1.19zm-2.8-1.49h-.2c-1.2 1.9-2.3 5.19-1.9 7.09v.1l.1.1c.1.1.2.2.3.2h.4c.1 0 .2 0 .2-.1 2-2 2.5-4.99 1.3-7.49 0 .1-.1.1-.2.1zm-4.6 4.59h-.2l-.1.1c-1.6 2-3.2 4-3.4 6.59 0 .1 0 .3.1.4 0 .1.1.1.1.2.1.1.2.2.3.2h.3c.1 0 .2 0 .4-.1 2-1.2 3.6-4.8 2.9-7.19v-.1c-.2-.1-.3-.1-.4-.1z" transform="translate(166.008 2734.458)"/><path style="fill-rule:evenodd;clip-rule:evenodd;fill:#b69460" d="M-87.39-2645.42v-.1c0-.1-.1-.1-.2-.1-2.8-.9-5.9-1-8.7-.2-.1 0-.1.1-.2.1-.2.1-.3.4-.3.6 0 .1 0 .3.1.4 0 .1.1.1.1.1l.1.1c.2.1.4.3.7.4 1.1.5 2.2.6 3.3.5 1.8-.1 3.5-.6 5-1.4h.1l.1-.1v-.2l-.1-.1c0 .1 0 .1 0 0z" transform="translate(166.008 2734.458)"/><path style="fill:#003b63" d="M-88-2606.44h-.3v.9h.3v-.9zm0-1.2h-.3v.9h.3v-.9zm3.2 4h.3c.1 0 .1 0 .1-.1v-1h-.4v1.1z" transform="translate(148.168 2712.338)"/><path transform="matrix(.00701 -1 1 .00701 2669.578 37.954)" style="fill:#003b63" d="M-86.39-2606.92h1v.3h-1z"/><path transform="rotate(-89.66 1349.108 -1325.519)" style="fill:#003b63" d="M-89.74-2607.27h.9v.2h-.9z"/><path style="fill:#003b63" d="M-87.2-2605.34c-.2.2-.5.3-.7.3h-.1v-.3h-.2v.9h.2l.5-.6s.3.3.6.5v-3.1c-.1.1-.2.1-.2.1l-.1 2.2zm1.2.4h.3v-1.1h-.3v1.1z" transform="translate(148.168 2712.338)"/><path transform="matrix(.00701 -1 1 .00701 2669.597 40.416)" style="fill:#003b63" d="M-85.19-2605.74h1.1v.4h-1.1z"/><path style="fill:#003b63" d="m-120.81-2687.86.8 2.2 1.4-1.2-2.2-1zm31.41 82.32h.2v-.9h-.2v.9zm46.62-64.43c.3.4.8.6 1.3.4.3-.1.6-.4.7-.7.1-.3 0-.6-.1-.9l-.2-.6-2.1.8.2.5c.1.2.2.3.2.5zm-55.62-25.18c.6-.2 1.2-.6 1.5-1.2.2-.6.2-1.3 0-2-.4-1.5-1.5-2.6-3-2.2-1.3.4-2 1.7-1.6 2.9 0 .1.1.2.1.2.19 1.6 1.49 2.6 3 2.3zm-1.21 86.92.4.1.6-.4.6.9c.2-.3.4-.6.5-.9l-1.2-.3c-.29.2-.59.4-.9.6zm.61-1.9-.2.8.7-.7-.5-.1zm2.1 2.09c0 .5.1.9.2 1.4.4-.6.7-1.3 1-2l-.5-.1c-.2.21-.5.51-.7.7zm39.11-11.38v-.7c-.1 0-.3 0-.4.1 0 0-.1 0-.1.1-.2.3-.3.5-.5.7l.4.4v-.5c0-.1.3-.1.6-.1z" transform="translate(148.168 2712.338)"/><path transform="rotate(-89.71 1352.419 -1325.044)" style="fill:#003b63" d="M-85.12-2606.97h1v.4h-1z"/><path style="fill:#003b63" d="M-87.1-2704.74c-29.21 0-52.82 23.38-52.82 52.15s23.71 52.15 52.82 52.15 52.82-23.38 52.82-52.15-23.71-52.15-52.82-52.15zm50.02 45.56h.1l.3 2.5h-.1c-.1-.5-.4-.5-1-.5l-4.5.5c-.7.1-.8.1-.9.7h-.1l-.3-2.5h.1c.2.6.4.5 1.1.5l4.5-.5c.4-.1.8-.2.8-.7zm-1.8-6.1c.7.3 1.3 1 1.4 1.8.1.5.1 1.1.1 1.6l-1.3.3v-.1c.5-.3.8-.9.6-1.5-.1-.6-.6-1-1.2-.9h-.1c-.6.1-.7.6-.9 1.3l-.1.3c-.1.8-.7 1.5-1.5 1.8-.6.1-1.2 0-1.7-.4s-.8-1-.9-1.6c-.1-.2-.1-.5-.1-.7 0-.4 0-.7.1-1.1l1.3-.3v.1c-.2.1-.4.3-.5.6-.1.3-.2.7-.1 1.1.1.7.7 1.1 1.4 1.1h.1c.6-.1.8-.7 1-1.3l.1-.4c.2-.8.5-1.5 1.4-1.7.2-.1.5-.1.9 0zm-2.4-8.49h.1l1 2.6c.2.5.4 1 .3 1.5-.1.6-.5 1.1-1 1.3-.4.2-.9.2-1.3 0-.2-.1-.4-.2-.6-.4l-1.7 2c-.5.6-.6.7-.6 1.1h-.1l-.3-.7c-.3-.6-.1-1.3.4-1.7l1.5-1.8c-.1-.1-.1-.3-.2-.4 0-.1-.1-.3-.1-.4l-1.8.7c-.7.3-.7.4-.7.9h-.1l-.9-2.3h.1c.3.5.6.4 1 .2l4.4-1.7c.5-.2.7-.3.6-.9zm-3.6-6.29.1-.1 2.2 3.7-1.1.6-.1-.1c.4-.4.3-.6.1-.9l-.8-1.4-1.8 1 .6 1.1c.3.5.5.6.9.4l.1.1-1.6.9-.1-.1c.4-.4.3-.6 0-1.1l-.6-1-1.3.8c-.7.4-.7.6-.3 1.2l.6 1c.3.5.4.6.9.4l.1.1-1.1.7-2.5-4.2.1-.1c.4.4.6.3 1.1 0l4-2.3c.5-.1.7-.3.5-.7zm-5.71-7.1.1-.1 1.6 1.9-.1.1c-.1-.1-.1-.1-.2-.1-.1-.1-.3 0-.4.1-.1.1-.3.3-.4.5l-1.9 3.6 4-1.2c.2 0 .4-.1.6-.2s.2-.4.1-.6l.1-.1 1.2 1.4-.1.1c-.3-.3-.5-.2-1.5 0l-5.7 1.6-.4-.5 2.7-5.19c.41-.81.51-.91.3-1.31zm-3.3-2.99 1.9 1.6-.1.1c-.4-.3-.6-.2-1 .3l-3.1 3.3c-.5.5-.5.6-.2 1.1l-.1.1-1.8-1.7.1-.1c.6.3.7.1 1.1-.3l3.1-3.3c.3-.4.5-.7.1-1.1zm-7.6-5.7 1.6 1.1.7 5.99 2-3c.3-.4.4-.7 0-1l.1-.1 1.6 1.1-.1.1c-.4-.2-.6-.1-.9.4l-3.3 4.7-.5-.3-.8-7.09-2.5 3.6c-.4.5-.3.7 0 1l-.1.1-1.6-1.1.1-.1c.1.1.3.1.4.1.2 0 .3-.2.5-.4l2.7-3.9c.1-.1.2-.3.2-.4 0-.2-.1-.4-.2-.6l.1-.2zm-9.6 0 1.2-2.8c.2-.5.3-.7-.2-1l.1-.1 2.3 1-.1.1c-.5-.1-.6 0-.9.6l-1.2 2.7c-.1.3-.2.5-.3.8-.2.8.3 1.6 1.1 1.9.5.2 1.1.3 1.5 0 .4-.3.7-.7.9-1.2l1.2-2.8c.2-.5.3-.7-.2-1l.1-.1 1.7.7-.1.1c-.6-.1-.7.1-.9.5l-1.2 2.8c-.2.8-.8 1.4-1.5 1.7-1.4.3-2.9-.3-3.7-1.6-.3-.7-.2-1.6.2-2.3zm-11.91-3.29c.1-.6.3-1.2.7-1.6.3-.4.8-.7 1.2-.9.8-.4 1.8-.5 2.7-.3.7.1 1.4.3 2.1.6l-.2 1.3h-.1c-.1-.4-.3-1-1.7-1.2-1.4-.4-2.8.5-3.2 1.9 0 .1-.1.2-.1.4-.2 1.6.8 3 2.4 3.3.5.1 1 0 1.5-.2.2-.1.4-.3.5-.6h.1l-.2 1.3c-.8.1-1.6.2-2.4 0-.5-.1-1-.2-1.4-.4-1.4-.71-2.2-2.21-1.9-3.6zm-4.3 2.99c.6-.2.6-.4.6-1l.1-4.5c0-.5 0-.8-.6-.9v-.1l2.5.1v.1c-.5.1-.6.3-.6.9l-.1 4.4c0 .7 0 .8.6 1v.1l-2.5-.1zm-4.4-6.29v.1c-.5.1-.6.4-.5 1l.4 4c0 .2 0 .4.1.6.2.2.4.2.8.2l1.4-.1c.6 0 .8-.2.8-.7h.1l.1 1.3-5.1.5v-.1c.2 0 .3-.1.4-.3.1-.2.1-.3.1-.9l-.4-4.2c0-.5-.1-.8-.7-.9v-.1l2.5-.4zm-8.31 1.3c1.8-.6 3.7.4 4.3 2.2 0 .1.1.2.1.3.1.4.2.8.1 1.3 0 .5-.2.9-.4 1.3-.5.9-1.4 1.5-2.4 1.7-1.8.6-3.7-.3-4.3-2 0-.1-.1-.2-.1-.3-.5-1.9.6-3.8 2.5-4.3 0-.2.1-.2.2-.2zm-10.1 3.89.1.1c-.5.3-.4.6-.1 1.1l.7 1.5 2.9-1.4-.8-1.6c-.2-.5-.3-.7-.9-.6l-.1-.1 2.2-1.1.1.1c-.4.3-.4.5-.1 1.1l1.9 3.9c.3.7.4.8 1 .7l.1.1-2.2 1.1-.1-.1c.5-.3.4-.6.1-1.1l-.9-1.8-2.9 1.4.9 1.8c.2.5.4.8.9.6l.1.1-2.2 1.1-.1-.1c.5-.3.4-.6.1-1.1l-2-4.1c-.2-.4-.4-.7-.9-.6l-.1-.1 2.3-.9zm-4 2.2.7 1-.1.1c-.4-.4-.6-.3-1 0l-1 .7 2.7 3.8c.5.7.6.7 1.1.6l.1.1-2.1 1.4-.1-.1c.4-.5.2-.7-.2-1.2l-2.7-3.8-1.1.7c-.2.1-.3.3-.4.5 0 .1 0 .3.1.4l-.1.1-.7-1 4.8-3.3zm-7.4 5.6 5.5 2.4c.7.3.9.4 1.3.2l.1.1-1.8 1.7-.1-.1c.1-.2.2-.4 0-.6-.1-.1-.3-.2-.5-.3l-1.1-.5-1.8 1.6.4 1.1c.1.2.1.3.3.5.2.2.5.1.6 0l.1.1-1.4 1.3-.1-.1c.3-.3.2-.6 0-1.1l-2.1-5.89.6-.41zm-5.71 5.89c.4-.6 1-1.1 1.6-1.5l1.1.8-.1.1c-.4-.1-1.1-.2-1.9.9-1 1-.9 2.7.1 3.6l.3.3c1.2 1 2.9.8 3.9-.3 0-.1.1-.1.1-.2.3-.4.5-.9.6-1.4 0-.3-.1-.5-.2-.7l.1-.1 1.1.8c-.2.8-.6 1.5-1.1 2.1-.3.4-.6.7-1 1-1.2.9-2.9.9-4 0-.5-.4-.9-.8-1.1-1.4-.2-.5-.3-1-.3-1.5-.1-.9.2-1.8.8-2.5zm-7.5 13.69 5.8-1.9-3.4-1.3c-.5-.2-.7-.2-1 .2l-.1-.1.7-1.7.1.1c-.1.5.1.6.5.8l5.3 2.1-.2.5-6.8 2.3 4.1 1.6c.6.2.8.1 1-.2h.1l-.7 1.7h-.1c.1-.1.1-.3 0-.4-.1-.2-.2-.3-.5-.4l-4.4-1.8c-.1-.1-.3-.1-.5-.1s-.4.2-.5.4l-.1-.1.7-1.7zm-1.5 4.59 1.3.3v.1c-.6 0-.6.2-.7.6l-.3 1.6 2 .4.3-1.2c.1-.6 0-.8-.4-.9v-.1l1.8.4v.1c-.6 0-.6.2-.8.8l-.2 1.1 1.5.3c.8.2.9.1 1.1-.7l.2-1.1c.1-.5.1-.7-.4-1v-.1l1.3.3-1.1 4.8h-.1c0-.6-.3-.6-.8-.8l-4.5-1c-.4-.1-.7-.1-.9.4h-.1l.8-4.3zm-1.3 6.5h.1c0 .2.1.4.2.5.2.1.4.2.6.1l5 .5c.4 0 .7.1 1.1.2.7.4 1.2 1.1 1.4 1.9l-.1.1c-.5-.7-.8-.7-2.4-.9l-5-.5c-.6-.1-.8-.1-1 .5h-.1l.2-2.4zm-.2 10.98-.1-2.5h.1c.1.5.3.6.9.5l3-.1c.3 0 .6 0 .9-.1.8-.2 1.3-.9 1.2-1.7 0-.5-.2-1.1-.6-1.4-.4-.3-.9-.4-1.4-.3l-3.1.1c-.6 0-.8 0-.9.6h-.1l-.1-1.9h.1c.1.5.4.6.9.5l3.1-.1c.8-.1 1.6.1 2.2.7.5.6.7 1.3.7 2 .1.7-.1 1.4-.5 2-.5.6-1.3 1-2.2.9l-3.1.1c-.6 0-.8.1-.9.6l-.1.1zm1.9 5.8c-.2 0-.3.1-.4.2-.1.1-.2.3-.2.5h-.1l-.8-4.4 1.3-.2v.1c-.5.2-.5.4-.4.9l.3 1.6 2.1-.4-.2-1.2c-.1-.7-.3-.8-.7-.8v-.1l1.8-.3v.1c-.1 0-.2.1-.3.2-.2.2-.1.4-.1.6l.3 1.4 2-.4c.7-.1.8-.2.9-.8h.1l.5 2.4h-.1c-.2-.5-.4-.5-1.1-.4l-4.9 1zm8.6 13.39-1.4-.4-1.2.9v-1.5l-1.3-.8 1.4-.5.4-1.4.9 1.2 1.5-.1-.8 1.2.5 1.4zm13.01 10.68-1.8-1.6-1.4 1.4 1.1 1 1-.2s.2.8.2 1.4c-.1 0-.2 0-.3-.1l-2.2-2c-.5 1-.5 2.4.6 4.2l-.1.1c-.4-.3-1-.2-1.4.2-.5-1.4-.3-3 .6-4.3-1.3 1-2.8 1.3-5.3.1v-.1c1.6.6 3.4.2 4.6-.9l-1.9-1.7.1-.2 1.9 1.7c.5-.4.9-.9 1.4-1.5l-1.6-1.4.1-.2 1.6 1.5.9.8.7.6 1-.2s.2.8.2 1.3c.2.2.1.1 0 .1zm8.9 6.5-2.2-1.2-.9 1.7.7.4.9-.4s.4.7.5 1.2c-.1.1-.2.1-.3 0l-2-1-1.1 2 1.1.6.9-.4s.4.8.6 1.3c-.1.1-.2.1-.3 0l-6.2-3.3v-.2l2.6 1.4 1.1-2.1-1.8-1v-.2l1.9 1 .9-1.7-2.1-1.1v-.2l4.2 2.2.9-.4s.4.8.6 1.3c.1.2 0 .2 0 .1zm-3-3.9c2.7 1.4 1 3 .2 1.9.1-.6 0-1.3-.2-1.9zm14.01 7-.3-.1c-.3 1-.9 2-1.7 2.8.3.6.8 1.1 1.3 1.5v.1c-.5 0-.9.2-1.1.7-.4-.5-.7-1.1-.8-1.7-.9.5-1.9.8-3 .8v-.1c1.1-.2 2.1-.8 2.9-1.7 0-.6 0-1.2.1-1.8-.3.3-.7.6-1.2.8l-.1-.1c.1-.1.2-.3.3-.4h-.2c-.3.1-.6.2-.9.2l.3.1c0 .1-.1.1-.3.1l-.1.2c.5.1.9.1 1.4.2v.1c-.4.1-.9.1-1.5.2l-.3 1c-.2.7-.4 1-1.5.8.1-.2.1-.5 0-.7-.1-.2-.3-.4-.6-.5v-.1s.8.2.9.3c.1 0 .1 0 .2-.1l.2-.6c-.3 0-.6.1-1 .1-.1.1-.2.1-.3.1l-.2-1.2c.3.1.9.1 1.6.2l.2-.7.5.2.4-.4-.7-.2c-.6.3-1.3.5-2 .7v-.1c.5-.2 1-.4 1.4-.7l-.7-.2v-.2l.9.2c.3-.2.5-.4.8-.6l-1.8-.4v-.2l1.1.3.2-1-.8-.2v-.2l.8.2.2-1 1.3.4c0 .1-.1.2-.3.1l-.2.7.4-.4s.1.2.3.4c.2-.2.3-.4.5-.7l1 .8c-.1.1-.2.1-.3 0-.4.5-.9.9-1.4 1.2l.2.1.5-.4.4.6c.3-.7.6-1.3.9-2l1.3.7c0 .1-.2.1-.3.1-.2.4-.4.7-.7 1.1l.6.1.7-.6s.5.6.7 1c0 .1-.1.1-.2.1zm9.8.79.4-.5.9.7c-.1.1-.2.1-.3.1v3.5c0 .7-.1 1-1 1.1v-.7c0-.1-.1-.3-.3-.3v.6c0 .1-.4.3-.8.3h-.2v-2.1h-.3v1.8c0 .1-.4.3-.8.3h-.1v-1.6h-1.3v1.4c0 .1-.3.3-.8.2h-.1v-1.6h-1.2l-.1-.2h1.3v-.9h-.2v.2c0 .1-.4.3-.8.3h-.1v-3.3l.9.4h.1v-.7h-1.2l-.1-.2h1.3v-1.1l1.2.1c0 .1-.1.2-.3.2v.8l.5-.6s.6.4.9.7c0 .1-.1.1-.2.1h-1.2v.7h.1l.4-.4.8.6v-.3l.9.4h.3v-.6h-1.3l-.1-.2h1.4v-1.4l1.2.1c0 .1-.1.2-.3.2v1h.3l.4-.5c0-.3-.1-.5-.3-.7h.1c1.4 0 1.2.8.8 1 .2.1.3.3.4.4 0 .1-.1.1-.2.1h-1.4v.6h.4zm7.4 4.1h-.2l-1-3.8c-.2.3-.5.6-.7.9h-.1c.5-1.4.7-2.8.6-4.3l1.6.1c0 .1-.1.2-.3.2-.1.6-.2 1.2-.4 1.7h.4c0 .1 0 .1-.2.2l1.1 4.3c-.2.5-.5.7-.8.7zm2.71-6.39.4-.9s.8.4 1.3.6c0 .1-.1.1-.2.2l-4 1-.1-.2 2.6-.7zm2.9 4.19-4.7 1.2-.1-.2 3.3-.8.4-.9s.8.4 1.3.6c0 .1 0 .1-.2.1zm10.8-4.19c-1.7-.2-3.3-1.2-4.2-2.7.7 1.7.8 3.4-1.2 5.69l-.1-.1c1-1.6 1.1-3.7.2-5.39l-2.3 1.3-.2-.2 2.4-1.3c-.3-.7-.7-1.3-1.1-2l1.4-.6c0 .1 0 .2-.1.3.3.6.6 1.2.9 1.7l1.3-.7.2-1s.9.1 1.4.2c0 .1 0 .2-.1.2l-2.6 1.4c1.1 1.3 2.9 1.8 4.6 1.5v.1c-.7.5-.8 1.1-.5 1.6zm3.3-6.2c-.3.6-1.2.3-1-.5.1-.3 0-.6-.3-.8l.1-.1c.2.1.4.1.6.2l-1.8-1.8.7-.4c0-.2 0-.5.1-.7l.8-.1c.1-.1.3-.2.4-.3 0-.2-.1-.4-.1-.5l.9-.3c0 .1 0 .1-.1.2v.3c.5 0 .6.4.2.6h-.3c-.1.3-.2.5-.3.8 0 .1 0 .1-.1.2l-.5.5.4.4-.1-.5h.7c0 .1 0 .2-.1.2l-.5.5.4.4 2.2-2-.4-.4-.4.3-.2-.1.4-.4-.4-.4-.4.3-.2-.1.4-.4-.4-.5-.4.4-.2-.1.4-.4v-.6l1.2-.1c0 .1 0 .2-.1.3l1.2 1.4v-.4h1.3c0 .1 0 .1-.2.3-.1.3-.4.9-.5 1.2h-.1c-.1-.2-.2-.4-.4-.6l-3.4 3.2c.5 0 .6.4.5.8zm1.1-3.79c.5 0 .6.5.2.7-.1 0-.2-.1-.3-.1-.1.3-.2.6-.4.9h-.1c.1-.3.1-.6.1-.9-.2 0-.4 0-.6.1v-.1c.2-.2.3-.3.5-.4 0-.2-.1-.4-.1-.5l.9-.3c0 .1 0 .1-.1.2s-.1.3-.1.4zm4.1.5-1.9 1.8.5.5c.5.5.7.9-.1 1.8-.2-.2-.4-.3-.7-.4-.3 0-.6.1-.8.2l-.1-.1s.7-.6.8-.7c.1-.1.1-.1 0-.2l-.4-.4-2.1 1.9-.2-.1 2.1-2-.4-.5.6-.5v-.7l-1.9 1.7-.2-.1 2-1.9v-.8h1.3c0 .1 0 .2-.2.3-.2.3-.4.7-.6 1.1.1.1 0 .2-.1.3l.2.2 1-.9-.1-.9s.8-.1 1.3-.1c.2.4.1.5 0 .5zm-35.01 7.69c-23.01 0-41.62-18.38-41.62-41.06s18.61-41.06 41.62-41.06 41.62 18.38 41.62 41.06-18.61 41.06-41.62 41.06zm42.62-18.08v1.5l-1.2-.9-1.4.4.5-1.4-.9-1.2h1.5l.9-1.2.4 1.4 1.4.5-1.2.9zm7.5-15.29h-.1c0-.1 0-.4-.3-.5-.2 0-.3 0-.5.1l-2.3.9 1.8 1.6c.1.1.3.2.4.2.3.1.4-.2.5-.4h.1l-.3 1.9h-.1c0-.3-.1-.4-.4-.7l-2.8-2.4-1.9-.3c-.5-.1-.7-.1-.9.4h-.1l.4-2.4h.1c0 .5.3.6.7.7l1.9.3 3.4-1.4c.5-.2.6-.3.7-.6h.1l-.4 2.6zm-.7-4.29v-.1c.5-.1.6-.3.6-.8v-1.2h-4.7c-.8 0-.9 0-1.1.6h-.2v-2.5h.1c.1.6.4.6 1.1.6h4.7v-1.3c0-.2 0-.4-.2-.6-.1-.1-.2-.2-.4-.2v-.1h1.3l-.1 5.69-1.1-.09z" transform="translate(148.168 2712.338)"/></svg>