<svg xmlns="http://www.w3.org/2000/svg" width="90" height="102" viewBox="0 0 90 102" style="enable-background:new 0 0 90 102" xml:space="preserve"><path d="M0 0v102h90V0H0zm87 50.81v.16c-.16 23.7-17.47 43.42-40.4 47.93-.53.06-1.05.1-1.6.1-.57 0-1.13-.05-1.67-.12C20.33 94.32 3 74.47 3 50.66c0-.51.01-1.02.03-1.52V22.65c0-7.12 5.91-12.89 13.19-12.89.64 0 1.25.04 1.87.13 1.4.18 2.83.28 4.28.28 5.46 0 10.61-1.33 15.12-3.68.68-.35 1.35-.74 2.01-1.14.32-.19.64-.4.95-.6.28-.19.83-.57.83-.57C42.32 3.43 43.62 3 45.01 3s2.69.43 3.74 1.17c0 0 .55.38.83.57.31.2.63.41.95.6.66.4 1.33.78 2.01 1.14 4.51 2.35 9.66 3.68 15.13 3.68 1.45 0 2.86-.1 4.25-.27.61-.09 1.25-.14 1.89-.14C81.09 9.76 87 15.53 87 22.65v28.16z" style="fill:#fff"/></svg>