<svg xmlns="http://www.w3.org/2000/svg" viewBox="0 0 40 118" style="enable-background:new 0 0 40 118" xml:space="preserve"><path style="fill:#fff" d="M5.21 1.34c.18.09.34.19.46.3.13.11.23.21.31.3.18.2.32.42.42.63.1.22.17.43.22.63.05.2.07.37.08.53.01.16.01.28.01.37 0 .25-.03.52-.08.8s-.16.52-.32.72c-.1.13-.21.22-.31.29l-.29.16v.21l1.23.04.01-.04c.08-.26.14-.5.18-.7.05-.22.09-.41.11-.58.02-.17.04-.32.05-.46.01-.14.01-.28.01-.41 0-.13 0-.3-.02-.53-.01-.22-.05-.48-.12-.75-.07-.28-.18-.57-.32-.88-.15-.3-.36-.6-.63-.87a3.06 3.06 0 0 0-.73-.6c-.25-.14-.5-.25-.74-.33C4.51.1 4.28.05 4.08.03 3.88.01 3.72 0 3.6 0c-.37 0-.72.05-1.06.15A3.272 3.272 0 0 0 .85 1.26c-.22.27-.4.58-.54.92-.07.18-.12.35-.16.52-.04.17-.06.33-.08.47-.02.15-.03.28-.04.39 0 .11-.01.2-.01.26 0 .27.02.57.06.91.04.33.1.63.17.9l.09.32c.03.11.07.21.11.32l.01.04 1.18-.04v-.21l-.02-.02c-.05-.02-.11-.04-.19-.07-.07-.03-.15-.09-.25-.17-.03-.04-.08-.09-.13-.15C.99 5.58.94 5.5.89 5.4c-.06-.13-.11-.27-.14-.41-.04-.15-.06-.28-.08-.41-.02-.13-.03-.24-.04-.34v-.2c0-.12.01-.26.02-.42.01-.17.05-.36.11-.57.06-.2.16-.42.28-.63.13-.22.31-.43.54-.64a2.795 2.795 0 0 1 .78-.5c.18-.08.38-.14.61-.2.23-.05.49-.08.78-.08.31 0 .58.03.83.1.24.06.45.14.63.24zM.57 13.4c.05-.09.15-.19.31-.28.03-.02.07-.04.12-.07.05-.03.11-.05.17-.08l.16-.07c.05-.02.1-.04.13-.06l5.69-2.41.04-.02v-.17L1.27 7.61C1.13 7.55 1 7.5.9 7.44c-.1-.05-.18-.11-.24-.16-.05-.06-.1-.12-.13-.18a.639.639 0 0 1-.06-.22l-.01-.05H.23v1.78h.23l.01-.05c.01-.07.03-.14.06-.2.02-.06.07-.1.13-.13.04-.02.07-.04.1-.04.03-.01.05-.01.07-.01.06 0 .14.02.23.05.1.04.22.09.36.14l1.3.56v2.35l-1.26.52c-.08.03-.16.07-.24.1-.07.03-.15.07-.23.09-.09.02-.13.03-.16.03H.76c-.03 0-.05-.02-.09-.04-.08-.04-.13-.09-.15-.15a.844.844 0 0 1-.06-.24l-.01-.05-.23-.02v2.17h.2l.02-.03c.03-.07.08-.16.13-.26zm2.73-2.36V9.21l2.11.94-2.11.89zm2.65 1.82v.23l.23.04c.07.01.14.05.2.13.05.06.09.14.11.23.02.09.04.23.04.41v1.31H1.21c-.18 0-.32-.02-.41-.06a.507.507 0 0 1-.3-.34.874.874 0 0 1-.03-.14l-.01-.04-.23-.03v2.19h.23l.01-.05c.03-.12.06-.21.09-.27.03-.06.07-.11.12-.15.05-.05.1-.08.16-.1.05-.02.12-.03.18-.04.07-.01.16-.01.25-.01H6.5v1.42c0 .21-.03.37-.09.49-.05.11-.19.18-.4.21l-.05.01v.22H7.1v-5.67H5.95zM.53 25.59a.498.498 0 0 1 .32-.27c.07-.01.14-.02.23-.03.07-.01.13-.01.2-.01h4.94c.14 0 .24.02.31.04.06.02.12.05.16.1.05.05.08.09.11.14.03.05.04.09.05.13.01.05.02.09.03.11l.01.04h.21v-2.08h-.23v.06c0 .01 0 .04-.01.08-.01.06-.02.1-.04.15a.55.55 0 0 1-.09.14.56.56 0 0 1-.15.1.9.9 0 0 1-.25.03H4.17v-3.61h1.76c.16 0 .31.01.42.01.11.01.19.03.26.06.05.02.09.05.13.09.04.05.06.09.08.13.02.05.03.09.04.12.01.05.02.08.03.1l.01.04h.2v-2.09h-.21l-.01.04c-.01.02-.01.06-.03.11-.01.04-.02.09-.04.13a.38.38 0 0 1-.09.13c-.04.04-.09.07-.16.1-.08.03-.17.05-.25.05H1.47c-.15 0-.29 0-.41-.01-.11 0-.2-.01-.25-.03a.367.367 0 0 1-.17-.1.406.406 0 0 1-.1-.14c-.02-.05-.04-.1-.06-.14-.01-.06-.02-.08-.02-.09v-.06H.23v2.09h.24v-.06a.375.375 0 0 1 .06-.2c.03-.05.06-.09.09-.14.03-.04.08-.08.14-.11.07-.03.16-.04.26-.05.11-.01.26-.01.44-.01h2.11v3.61h-2.5c-.12 0-.2-.01-.25-.02a.3.3 0 0 1-.1-.04c-.03-.02-.05-.03-.06-.04-.06-.04-.1-.1-.13-.16a.902.902 0 0 1-.06-.22l-.01-.05-.23-.02v2.1h.23l.01-.05c.01-.06.04-.13.06-.2zm4.73 8.43c.21-.1.4-.2.56-.31.16-.11.28-.21.38-.3.09-.09.21-.21.34-.36.13-.15.25-.33.37-.55.11-.22.21-.47.29-.75.08-.28.12-.6.12-.94 0-.4-.05-.77-.15-1.09-.1-.32-.22-.6-.36-.84-.14-.24-.29-.44-.45-.61-.16-.16-.3-.29-.41-.39-.09-.07-.2-.15-.34-.24s-.31-.18-.5-.26a4.137 4.137 0 0 0-1.49-.29c-.37 0-.71.04-1.01.13-.29.08-.56.19-.79.32-.23.12-.42.26-.58.4-.16.14-.28.27-.38.38-.29.35-.5.73-.63 1.13-.13.4-.19.83-.19 1.27 0 .56.09 1.07.26 1.52.18.45.48.87.91 1.25.23.2.47.37.71.49s.46.21.68.27c.21.06.41.09.59.11.17.01.32.02.43.02.34 0 .65-.03.92-.1.26-.08.51-.16.72-.26zM.61 30.81c0-.33.05-.62.14-.87.1-.25.21-.47.35-.65.13-.18.27-.33.42-.44.15-.12.27-.21.37-.27a3.175 3.175 0 0 1 1.06-.43c.16-.03.3-.05.43-.06.13-.01.24-.02.33-.02a3.46 3.46 0 0 1 1.58.35 2.709 2.709 0 0 1 .84.67c.12.15.22.31.3.48.07.16.13.32.17.46.04.14.06.28.07.39.01.12.01.21.01.28 0 .27-.03.51-.09.71a2.526 2.526 0 0 1-.51.95c-.1.11-.19.2-.27.26-.11.08-.23.17-.4.27-.15.1-.34.18-.56.26-.21.08-.46.14-.73.17-.27.04-.58.04-.9.02-.08-.01-.19-.02-.35-.04-.15-.02-.33-.07-.53-.13a2.764 2.764 0 0 1-1.26-.9c-.15-.21-.27-.43-.35-.68-.08-.24-.12-.51-.12-.78zm.76 9.47c-.1-.03-.19-.06-.25-.09s-.1-.05-.13-.09a.391.391 0 0 1-.1-.16c-.02-.07-.04-.13-.05-.2-.01-.07-.01-.14-.02-.21 0-.07-.01-.14-.01-.2v-1.31l.02-.38c0-.08.02-.15.06-.22.06-.11.15-.18.26-.2.13-.02.32-.04.55-.05h4.08c.17.01.32.01.45.02s.23.02.28.03a.486.486 0 0 1 .29.24c.03.05.04.09.05.14.01.04.02.08.02.11l.01.04h.22v-2.19h-.21l-.01.04c-.01.02-.01.06-.03.12-.01.04-.03.09-.05.14-.03.05-.06.1-.11.15-.04.05-.11.09-.18.11-.06.02-.16.04-.28.04-.13.01-.28.01-.45.01h-4c-.17 0-.34 0-.5-.01-.16 0-.26-.01-.31-.01a.657.657 0 0 1-.25-.09c-.06-.05-.11-.09-.15-.14a.401.401 0 0 1-.08-.16.502.502 0 0 1-.03-.14l-.01-.05H.23v4.93h1.18v-.22h-.04zm-.82 3.01c.03-.07.08-.13.14-.19.06-.05.12-.08.18-.09.09-.01.14-.01.17-.01.07-.01.14-.02.22-.02h4.63c.16 0 .29 0 .41.01.1 0 .19.01.25.03.07.02.13.05.17.09.04.04.07.08.1.13.02.05.04.1.05.13v.02c.01.04.01.07.02.09l.01.04h.2v-2.11h-.21l-.01.04c-.01.03-.02.07-.02.12-.01.04-.03.09-.05.15-.02.05-.06.1-.1.15a.56.56 0 0 1-.19.11.86.86 0 0 1-.24.04H1.51c-.22-.01-.39-.01-.51-.02-.11 0-.21-.03-.28-.09a.599.599 0 0 1-.17-.19c-.03-.08-.06-.16-.08-.25l-.01-.05H.23v2.14h.22l.01-.04c.03-.07.06-.15.09-.23zm4.66 2.84c.18.09.34.2.46.3.13.11.23.21.31.3.17.2.31.42.41.63.1.22.17.43.21.62.05.2.07.38.08.54.01.16.01.28.01.37 0 .25-.03.52-.08.8s-.16.52-.32.72a.89.89 0 0 1-.29.29l-.29.16v.21l1.23.04.01-.05c.08-.26.14-.5.18-.71.04-.21.08-.39.11-.56.02-.17.04-.32.05-.46.01-.14.01-.28.01-.41 0-.13-.01-.3-.02-.53-.01-.23-.05-.48-.12-.76a4.27 4.27 0 0 0-.33-.87c-.15-.31-.36-.6-.62-.88-.24-.25-.49-.45-.74-.6a3.556 3.556 0 0 0-1.4-.47c-.2-.02-.36-.03-.49-.03-.37 0-.72.05-1.06.15-.34.1-.65.24-.93.43s-.54.42-.76.69c-.22.27-.4.58-.54.92-.07.17-.13.35-.16.52-.04.17-.06.33-.08.47-.02.14-.03.28-.03.39 0 .11-.01.2-.01.26 0 .27.02.57.06.91.04.34.1.64.17.9l.09.32c.03.11.07.21.11.32l.01.04 1.18-.04v-.21l-.04-.02c-.05-.02-.11-.04-.19-.08-.07-.03-.15-.09-.25-.17-.04-.04-.08-.09-.14-.15a.825.825 0 0 1-.15-.25c-.06-.13-.11-.27-.14-.41-.04-.15-.06-.28-.08-.41a2.35 2.35 0 0 1-.03-.34v-.2c0-.12.01-.26.02-.43.01-.17.05-.36.11-.57.06-.2.16-.42.28-.63.13-.22.31-.43.53-.64.09-.08.2-.16.33-.26.13-.09.28-.17.46-.25.18-.08.38-.14.61-.19.23-.05.49-.08.77-.08.31 0 .58.03.83.1.27.08.48.16.66.26zm1.61 17.08v.06c0 .01-.01.02-.01.05l-.03.12c-.01.04-.03.08-.05.13-.02.04-.05.08-.08.1-.09.08-.21.11-.35.11H2.83c-.16 0-.31 0-.43-.01s-.23-.02-.33-.04c-.1-.01-.18-.04-.26-.06-.08-.02-.16-.05-.24-.08-.1-.04-.19-.09-.25-.13-.07-.05-.12-.08-.15-.1-.06-.06-.13-.12-.19-.21-.07-.09-.13-.19-.18-.31-.06-.12-.1-.27-.14-.43-.04-.16-.06-.34-.06-.55 0-.3.06-.6.16-.88.11-.28.29-.52.54-.72a1.739 1.739 0 0 1 .76-.32c.13-.03.27-.04.41-.05.14-.01.28-.01.44-.01h3.02c.13.01.25.01.35.01.09 0 .17.02.24.05.07.03.12.08.17.14.05.07.09.18.13.32l.01.04.22.02v-2.11h-.22l-.01.05c-.05.18-.1.29-.15.35-.06.08-.14.13-.24.14-.13.01-.29.01-.5.01H2.85c-.32-.01-.58 0-.77.03-.18.03-.35.07-.51.12-.18.06-.37.16-.55.29-.19.13-.36.3-.51.51-.15.21-.27.47-.37.78-.09.31-.14.67-.14 1.1 0 .43.05.8.16 1.11.1.3.24.56.4.76.16.2.35.36.55.47.2.11.39.19.58.24.12.03.25.06.38.07.13.02.25.03.36.03h3.53c.17 0 .3 0 .39.01a.4.4 0 0 1 .23.08c.08.05.13.11.16.18.03.07.06.16.08.26l.01.05h.21v-1.76l-.22-.02zm.01 8.13-.01.05c-.05.22-.12.36-.2.42-.09.06-.2.1-.31.11-.07.01-.13.02-.2.01h-4.1l5.01-4.41.02-.02v-1.46h-.22v.06c-.01.1-.03.18-.06.26-.02.07-.08.13-.16.17a.37.37 0 0 1-.21.06H1.22c-.09 0-.2 0-.33-.01a.497.497 0 0 1-.28-.1.378.378 0 0 1-.15-.21c-.02-.09-.04-.16-.04-.19l-.02-.04-.23-.02v1.78H.4l.01-.05c.03-.14.08-.25.14-.33.06-.08.16-.13.3-.16.05-.01.1-.01.15-.01h4.89L.07 72.37v.17h5.91l.41.02c.11.01.21.06.3.17.03.04.06.08.08.12.02.05.04.12.06.21l.01.05.22.02v-1.78h-.23zM.49 76.12c.03-.07.08-.13.14-.19.06-.05.12-.08.19-.09.09-.01.13-.01.16-.01.07-.01.14-.02.22-.02h4.63c.16 0 .29 0 .4.01.1 0 .19.01.25.03.07.02.13.05.17.09.04.04.07.08.09.13.02.05.04.1.05.13l.01.02c.01.04.01.07.02.09l.01.04h.21v-2.11h-.21l-.01.04c-.01.03-.01.07-.02.12-.01.04-.02.09-.05.15-.02.05-.06.1-.1.15-.04.05-.11.08-.18.11a.86.86 0 0 1-.24.04c-.09 0-.22.01-.39.01H1.45c-.22-.01-.39-.01-.51-.02-.11 0-.21-.03-.28-.09a.51.51 0 0 1-.17-.19c-.03-.08-.06-.16-.08-.25l-.01-.05H.17v2.14h.22l.01-.04c.03-.09.06-.17.09-.24zm6.34 5.87-.01.05-.06.21a.25.25 0 0 1-.11.14.16.16 0 0 1-.08.03h-.08c-.06 0-.12-.01-.18-.02-.06-.02-.13-.03-.18-.06-.06-.02-.11-.04-.15-.06a.27.27 0 0 0-.08-.03l-4.05-1.76 4.05-1.67.19-.08.18-.06c.09-.02.16-.03.22-.03.09 0 .15.03.2.08.05.06.09.17.12.34l.01.05h.22v-2.15h-.21l-.01.04c-.02.08-.04.14-.06.19-.02.05-.06.1-.11.16a.76.76 0 0 1-.23.18c-.09.04-.15.07-.19.08-.09.04-.19.09-.28.13-.09.04-.19.08-.3.12L.12 80.2l-.04.01v.18l5.65 2.47c.11.05.24.11.4.17.15.06.28.13.38.2.1.06.17.13.21.19.04.07.07.16.1.28l.01.05h.22v-1.76h-.22zm-5.51 6.93c-.08-.03-.16-.05-.23-.08a.408.408 0 0 1-.18-.12.365.365 0 0 1-.11-.2c-.01-.11-.02-.15-.02-.18-.01-.07-.02-.13-.02-.19v-1.08c.01-.23.01-.44.02-.62.01-.17.04-.28.09-.35a.17.17 0 0 1 .06-.06c.03-.02.05-.03.07-.04.1-.05.21-.07.33-.08.13 0 .25-.01.35-.01h1.87v1.41c0 .14-.01.28-.03.42-.02.12-.09.22-.21.29-.03.01-.07.02-.11.04-.03.01-.09.03-.16.05l-.05.01v.23h1.74v-.22l-.04-.01a.268.268 0 0 0-.11-.02c-.04-.01-.09-.03-.14-.05-.05-.02-.1-.06-.15-.1a.294.294 0 0 1-.1-.16.672.672 0 0 1-.04-.24v-1.64h2.32v1.75c0 .12-.01.24-.04.34-.02.09-.09.16-.2.23-.04.02-.09.04-.13.05-.05.02-.1.03-.15.04l-.05.01-.02.22 1.16.02v-4.21h-.22v.06c0 .02 0 .05-.01.09-.01.05-.02.09-.04.14a.42.42 0 0 1-.09.14c-.04.04-.09.07-.17.1-.07.03-.15.04-.23.04h-4.8c-.09-.01-.19-.01-.28-.01H.92a.917.917 0 0 1-.25-.06.444.444 0 0 1-.18-.18.37.37 0 0 1-.05-.11c-.01-.05-.03-.1-.04-.15v-.04l-.22-.02v4.78h1.19v-.22l-.05-.01zm-.87 7.1c.02-.05.06-.11.1-.15.04-.06.1-.11.16-.14.07-.04.12-.07.14-.08.16-.11.33-.21.51-.3l2.4-1.31c.01.03.04.07.06.12.04.08.1.17.17.28.07.1.16.2.26.3.1.1.22.19.36.26.22.11.47.17.74.17.26 0 .47-.04.65-.12.17-.08.29-.14.37-.2.17-.13.3-.27.39-.44.09-.16.15-.33.2-.51.04-.18.07-.36.07-.55.01-.18.01-.36.01-.54v-2.44h-.23v.06c0 .01 0 .04-.01.07-.01.04-.02.09-.04.14a.473.473 0 0 1-.21.25c-.06.03-.14.04-.23.05-.1.01-.22.01-.38.01h-4.6c-.15-.01-.28-.01-.39-.01a.68.68 0 0 1-.23-.04.377.377 0 0 1-.24-.23c-.02-.05-.04-.09-.05-.13-.01-.05-.01-.08-.01-.08v-.06H.17v2.16H.4l.01-.05c.04-.14.07-.23.1-.29.02-.06.06-.11.11-.15.06-.06.12-.09.17-.1.06-.01.14-.02.22-.03.05-.01.11-.01.17-.01.06 0 .13 0 .19-.01h2.07c0 .06 0 .13-.01.19-.01.19-.01.42.01.65l.03.35-2.27 1.23c-.13.07-.27.15-.41.23-.15.09-.28.2-.38.32a1.088 1.088 0 0 0-.22.49c-.02.08-.02.15-.02.21v.59h.22l.01-.03c.01-.03.03-.07.05-.13zm5.99-4.09v.68c.01.18 0 .37-.02.55-.02.18-.08.35-.18.5-.11.17-.25.3-.42.37-.18.08-.37.12-.56.12-.15 0-.28-.02-.39-.04a.908.908 0 0 1-.23-.09.896.896 0 0 1-.31-.26c-.08-.1-.14-.22-.18-.35-.04-.13-.07-.27-.09-.41-.02-.14-.02-.28-.02-.42v-.65h2.4zm-2.66 8.41.21-.32.38-.64c.1-.16.21-.33.34-.51.11-.16.27-.29.45-.36.08-.03.16-.05.23-.05.07-.01.12-.01.15-.01.17 0 .33.03.46.09s.25.15.34.25c.09.11.16.23.21.38.05.15.07.3.07.47 0 .23-.03.42-.1.57-.07.15-.15.28-.25.37-.1.09-.2.17-.3.22-.11.05-.21.1-.29.14l-.04.02v.2h1.22l.01-.04c.02-.07.06-.15.09-.25.04-.1.07-.21.11-.34.03-.12.06-.27.09-.42.03-.16.04-.33.04-.53 0-.06 0-.16-.01-.27a3.1 3.1 0 0 0-.06-.39c-.04-.14-.09-.29-.18-.45-.08-.16-.2-.3-.34-.44-.09-.09-.24-.19-.43-.3-.2-.11-.46-.16-.78-.16-.1 0-.22.01-.34.03a1.577 1.577 0 0 0-.8.39c-.14.12-.28.27-.42.47-.04.07-.09.13-.12.19l-.02.03-.09.15-.36.61c-.11.19-.23.36-.36.52-.12.15-.29.27-.49.36-.04.02-.11.04-.19.06-.08.03-.19.04-.31.04-.18 0-.32-.02-.43-.07-.12-.05-.21-.09-.26-.11-.22-.14-.38-.32-.48-.54-.1-.22-.15-.46-.15-.72 0-.16.02-.3.05-.43.03-.12.08-.23.13-.33.05-.09.11-.17.17-.23.06-.06.12-.11.17-.15.05-.03.11-.06.17-.1.06-.03.16-.08.28-.13l.03-.01.02-.21H.39l-.02.04c-.07.13-.15.33-.24.57-.09.25-.13.58-.13.97a3.673 3.673 0 0 0 .07.73c.04.16.1.33.18.5.08.18.2.34.36.51.13.14.28.26.42.34.14.08.28.14.41.19.14.04.26.07.37.08.11.01.2.01.27.01.54 0 1.01-.2 1.38-.6.12-.11.23-.24.32-.39zm-3.29 4.37c.03-.07.08-.13.14-.19.06-.05.12-.08.19-.09.09-.01.13-.01.16-.02.07-.01.14-.02.22-.02h4.63c.16 0 .29 0 .4.01.1 0 .19.01.25.03.07.02.13.05.17.09.04.04.07.08.09.13.02.05.04.1.05.13l.01.02c.01.04.01.07.02.09l.01.04h.21v-2.11h-.21l-.01.04c-.01.03-.01.07-.02.12-.01.04-.02.09-.05.15-.02.05-.06.1-.1.15-.04.05-.11.08-.18.11a.86.86 0 0 1-.24.04H1.45c-.22-.01-.39-.01-.51-.01-.11 0-.21-.03-.28-.09a.599.599 0 0 1-.17-.19c-.03-.08-.06-.16-.08-.25l-.01-.05H.17v2.14h.22l.01-.04c.03-.08.06-.16.09-.23zm5.4.91v.22l.23.05c.07.01.14.05.2.12.05.06.09.14.11.23.02.09.04.23.04.41v1.31H1.15c-.18 0-.32-.02-.41-.06a.491.491 0 0 1-.21-.16.343.343 0 0 1-.09-.18c-.02-.07-.03-.12-.04-.14l-.01-.04-.22-.02v2.18H.4l.01-.05c.03-.12.06-.21.09-.27.03-.05.07-.11.12-.15.05-.04.1-.08.16-.1.05-.02.12-.03.19-.04.07-.01.15-.01.25-.01h5.23v1.43c0 .2-.03.37-.08.49-.05.11-.19.18-.4.21l-.05.01v.22h1.14v-5.67H5.89zm1.15 10.58h-.22l-.01.05c-.01.08-.03.15-.04.21-.01.05-.05.09-.12.13-.05.03-.07.04-.09.04-.03 0-.06.01-.08.01-.08 0-.17-.02-.26-.07-.1-.05-.18-.1-.26-.15l-2.14-1.3 2.14-1.36c.07-.05.15-.1.26-.15.1-.05.19-.07.27-.07.07 0 .12.02.16.04.04.03.07.07.09.11.03.04.04.08.05.12.01.04.01.06.01.07v.06h.23v-2.15h-.2l-.01.05c-.02.07-.04.13-.06.18a.36.36 0 0 1-.08.12c-.03.03-.06.07-.11.1-.05.04-.1.07-.16.12-.05.03-.09.06-.13.08-.04.02-.08.06-.12.09l-2.97 1.9H1.21c-.18 0-.32-.01-.4-.02a.419.419 0 0 1-.22-.11.472.472 0 0 1-.12-.18c-.02-.07-.04-.15-.05-.24l-.01-.05-.23-.02v2.14H.4l.01-.05c.01-.03.01-.09.03-.17.01-.07.04-.13.1-.19.08-.09.18-.14.3-.15.13-.02.26-.02.38-.02h1.93l3.08 1.9.28.18a.7.7 0 0 1 .21.21c.03.05.06.1.07.15.01.06.02.11.03.13l.02.04h.21v-1.78zM39.44.01v.06c0 .08-.01.21-.04.41-.02.19-.09.39-.19.61-.1.22-.25.43-.42.64-.18.2-.44.36-.77.46-.22.1-.51.15-.86.15H15.29c-.49 0-.88-.06-1.17-.19-.51-.16-.86-.42-1.05-.8-.19-.38-.36-.82-.49-1.29l-.01-.04h-.58V8.6h.58l.01-.04c.13-.47.29-.92.47-1.33.18-.41.52-.7 1.04-.91.2-.1.4-.17.6-.21.19-.04.41-.06.66-.06h10.62v5.96c-.03.59-.06 1.21-.11 1.83-.06.59-.33 1.06-.81 1.4-.13.12-.3.22-.51.28-.24.07-.54.14-.88.22l-.05.01v.58h6.84v-.59h-.06c-.02 0-.1 0-.34-.06-.2-.04-.4-.1-.6-.17-.23-.09-.45-.21-.66-.37-.22-.17-.37-.37-.48-.63-.12-.28-.2-.62-.21-1-.01-.39-.02-.89-.02-1.49V6.03H38.1v7.1c-.03.54-.09 1.09-.18 1.64-.08.53-.39.97-.9 1.3-.21.13-.41.23-.62.31-.22.08-.43.14-.63.19l-.05.01v.58l4.21.04H40V.01h-.56zm.06 40.69h-.06v.06c0 .01-.01.08-.06.24-.04.14-.09.31-.14.49-.05.18-.13.37-.23.56-.1.18-.23.34-.38.47-.41.33-.94.5-1.57.52-.61.01-1.16.02-1.64.02H22.8c-.69 0-1.29-.02-1.79-.06-.49-.03-.96-.09-1.38-.16-.39-.06-.76-.15-1.1-.25-.33-.11-.67-.22-1-.35-.44-.19-.79-.38-1.08-.57-.27-.18-.5-.33-.64-.45a6.72 6.72 0 0 1-.82-.9c-.29-.37-.55-.82-.78-1.33-.24-.52-.44-1.12-.61-1.8-.17-.68-.26-1.45-.26-2.31 0-1.27.23-2.52.69-3.71.46-1.2 1.23-2.22 2.29-3.04.52-.39 1.06-.7 1.59-.92.52-.22 1.08-.38 1.65-.49.57-.11 1.14-.17 1.71-.2.58-.02 1.19-.04 1.81-.04h12.48c.52.02 1.02.04 1.46.06.4.01.77.08 1.08.21.3.13.57.35.78.65.22.31.41.78.56 1.4l.01.04.55.06v-8.31h-.54l-.01.04c-.21.75-.43 1.25-.66 1.52-.28.38-.66.59-1.14.64-.5.05-1.17.08-2.05.08H22.88c-1.33-.03-2.36.01-3.13.12s-1.48.27-2.11.47c-.74.26-1.49.66-2.25 1.17-.75.51-1.44 1.21-2.04 2.06-.6.84-1.11 1.91-1.49 3.16-.38 1.25-.57 2.76-.57 4.48 0 1.76.21 3.27.63 4.5.42 1.23.97 2.26 1.63 3.07.66.81 1.41 1.44 2.21 1.88.81.45 1.61.79 2.36 1 .54.14 1.04.23 1.53.29.54.07 1.02.1 1.45.12.42.01.82.02 1.17.02h13.45c.71 0 1.25.01 1.63.04.37.02.72.14 1.02.34.36.22.6.51.73.84.14.35.26.72.35 1.1l.01.04H40V40.7h-.5zM16.49 83.05c-.32-.1-.64-.2-.96-.31-.29-.1-.57-.28-.83-.54a1.61 1.61 0 0 1-.5-.95c-.07-.44-.08-.65-.08-.75-.05-.28-.08-.56-.08-.82V75.2c.03-1 .06-1.84.1-2.56.04-.72.17-1.24.4-1.54.11-.13.21-.22.3-.28.09-.05.18-.11.27-.17.43-.2.92-.31 1.44-.33.59-.02 1.06-.04 1.46-.06h7.92v6c0 .61-.05 1.21-.14 1.79-.09.56-.43 1.02-1.01 1.35-.13.05-.28.11-.44.18-.16.07-.4.14-.7.21l-.05.01v.58h6.8v-.58l-.04-.01c-.07-.02-.2-.05-.42-.1a2.809 2.809 0 0 1-1.28-.65c-.22-.19-.38-.44-.48-.74a2.85 2.85 0 0 1-.19-1.06v-6.97h9.99v7.42c0 .5-.05.99-.15 1.44-.11.43-.41.78-.92 1.06-.19.1-.38.19-.58.25-.25.08-.45.13-.63.18l-.04.01-.05.58 4.33.08h.06V64.27h-.56v.06c0 .08-.01.22-.04.42-.02.2-.09.41-.19.63-.1.22-.25.43-.42.64-.18.2-.44.36-.77.46-.3.12-.64.19-1 .19H17.18c-.37-.03-.75-.03-1.13-.02-.38.01-.77.01-1.16-.02-.41-.02-.79-.12-1.12-.29-.34-.17-.6-.44-.8-.82-.1-.15-.18-.32-.23-.52-.06-.19-.11-.39-.16-.61l-.01-.04-.58-.05v19.33h4.54v-.58h-.04zM40 111.02h-.54l-.01.05c-.21.96-.52 1.58-.92 1.85-.41.28-.87.45-1.36.5-.29.05-.57.07-.87.06-.27-.01-.48-.02-.58-.02H18.89l21.09-18.55.02-.01v-5.75h-.55l-.01.05c-.05.39-.13.76-.25 1.11-.11.34-.36.61-.75.82-.28.18-.61.28-.97.29-.35.01-.82.02-1.56.02H16.08c-.36 0-.8-.02-1.35-.06-.54-.04-.94-.18-1.26-.44-.38-.28-.62-.61-.71-.99-.08-.33-.15-.62-.18-.79l-.01-.04-.58-.05v6.97h.58l.01-.05c.13-.6.33-1.09.6-1.45.26-.37.72-.62 1.36-.74l.63-.06c.21-.01.51-.02.9-.02H35.9l-24.33 21.42-.02.02v.44h24.23c.5.02.99.05 1.46.07l.22.01c.52.03.97.28 1.36.77.13.15.24.33.35.56.11.23.2.54.27.91l.01.05.55.03v-6.98z"/><path style="fill:#fff" d="m39.45 51.76-.01.05c-.07.43-.21.86-.39 1.27-.18.39-.5.67-.99.85-.52.16-1.41.23-2.71.23H12.01c-1.11 0-2.2-.07-3.25-.2-1.05-.13-2.03-.56-2.91-1.29-.35-.27-.68-.59-1.02-.97-.29-.34-.49-.58-.55-.66L4.25 51l-.57.33.02.05c.31.67.58 1.21.79 1.59.2.36.41.7.64 1.01.56.87 1.16 1.55 1.81 2.04.67.5 1.29.86 1.89 1.11.61.25 1.21.41 1.77.48.55.06 1.04.11 1.45.14h23.3c1.1 0 1.9.04 2.44.14.53.08.95.41 1.26.97.1.17.18.33.23.49.05.13.1.38.15.76l.01.05H40v-8.38h-.55z"/></svg>