<svg xmlns="http://www.w3.org/2000/svg" viewBox="0 0 278 160" style="enable-background:new 0 0 278 160" xml:space="preserve"><path style="fill:#bea679" d="M266.01 6.33c-.59 0-1.16.05-1.72.12-1.24.17-2.57.25-3.87.25-4.95 0-9.65-1.24-13.76-3.44-.58-.35-1.21-.69-1.82-1.07-.27-.17-.58-.37-.87-.57-.24-.17-.5-.32-.73-.53a5.91 5.91 0 0 0-3.42-1.1c-1.27 0-2.42.42-3.41 1.1-.23.21-.49.36-.76.53-.27.2-.55.4-.86.57-.57.37-1.2.72-1.79 1.07-4.11 2.2-8.81 3.44-13.79 3.44-1.3 0-2.61-.08-3.89-.25-.55-.08-1.12-.12-1.69-.12-6.63 0-11.97 5.39-11.97 12.04v24.78c-.04.48-.04.94-.04 1.42 0 22.28 15.73 40.84 36.67 45.09.48.07.98.11 1.52.11.49 0 .97-.04 1.46-.09 20.84-4.23 36.58-22.66 36.71-44.82V18.37c.02-6.64-5.34-12.04-11.97-12.04zM64.41 76.55c-.59 0-1.15.05-1.75.13-1.23.16-2.53.25-3.89.25-4.93 0-9.62-1.24-13.69-3.41-.65-.37-1.25-.72-1.85-1.09-.27-.18-.56-.37-.87-.57-.25-.16-.49-.35-.76-.52-.95-.7-2.13-1.11-3.38-1.11s-2.45.41-3.42 1.11c-.23.17-.49.36-.78.52-.25.19-.54.39-.81.57-.6.36-1.23.71-1.84 1.09-4.07 2.17-8.78 3.41-13.79 3.41-1.29 0-2.6-.09-3.87-.25-.54-.08-1.11-.13-1.68-.13C5.39 76.55.04 81.94.04 88.61v24.76c-.04.47-.04.95-.04 1.42 0 22.27 15.76 40.84 36.65 45.11.53.06 1.01.1 1.55.1.47 0 .96-.04 1.45-.1 20.85-4.24 36.58-22.65 36.75-44.82V88.61c0-6.67-5.38-12.06-11.99-12.06zm134.42 0c-.61 0-1.19.05-1.72.13-1.28.16-2.57.25-3.87.25-5 0-9.65-1.24-13.76-3.41-.6-.37-1.23-.72-1.82-1.09-.27-.18-.57-.37-.86-.57-.27-.16-.53-.35-.78-.52a5.68 5.68 0 0 0-3.35-1.11c-1.28 0-2.47.41-3.42 1.11-.24.17-.51.36-.76.52-.29.19-.61.39-.86.57-.59.36-1.2.71-1.83 1.09a29.296 29.296 0 0 1-13.76 3.41c-1.3 0-2.59-.09-3.9-.25-.54-.08-1.09-.13-1.66-.13-6.67 0-12.01 5.39-12.01 12.06v24.76c-.01.48-.01.96-.01 1.43 0 22.27 15.71 40.84 36.63 45.11.53.06 1.02.1 1.54.1.46 0 .98-.04 1.44-.1 20.88-4.24 36.62-22.65 36.74-44.82V88.61c-.01-6.67-5.39-12.06-11.98-12.06zM117.65 5.44a31.17 31.17 0 0 1-5.3-2.19c-.23-.12-.4-.25-.64-.36L67.5 47.34c.12 2.52.49 5 1.02 7.44l49.13-49.34zm21.77 3.69L76.6 72.22c1.24 1.61 2.51 3.18 3.92 4.59l62.39-62.7c-.73-1.95-1.95-3.63-3.49-4.98zm-5.83-2.66c-.64-.11-1.25-.15-1.88-.15-.58 0-1.13.03-1.67.1-1.31.17-2.57.26-3.91.26-.4 0-.81-.03-1.18-.03L70.52 61.29c.76 2.02 1.67 3.94 2.72 5.8l60.35-60.62zM67.37 38.91 106.02.06a1.57 1.57 0 0 0-.49-.06c-1.29 0-2.43.41-3.4 1.1-.28.16-.49.36-.75.52-.32.18-.58.38-.9.55-.55.39-1.14.74-1.8 1.08a28.569 28.569 0 0 1-6.91 2.61l-24.4 24.52v8.53zm76.31-8.53v-8.5L85.05 80.8c1.54 1.24 3.27 2.42 5.04 3.45l53.59-53.87zm-.07 17.18c.01-.99.08-1.99.08-3.01 0-.87-.01-1.73-.06-2.59l.06-.01v-3.04L95.78 87.07c2.02.87 4.16 1.53 6.38 2.08l41.45-41.59zM82.57 6.59c-.54-.05-1.02-.1-1.56-.17-.57-.07-1.08-.1-1.65-.1-6.48 0-11.75 5.13-11.99 11.57v3.98l15.2-15.28zm59.09 51.39-30.4 30.56c14.51-4.43 25.97-15.97 30.4-30.56z"/></svg>