<?xml version="1.0" encoding="utf-8"?>
<!-- Generator: Adobe Illustrator 25.0.1, SVG Export Plug-In . SVG Version: 6.00 Build 0)  -->
<svg version="1.1" id="圖層_1" xmlns="http://www.w3.org/2000/svg" xmlns:xlink="http://www.w3.org/1999/xlink" x="0px" y="0px"
	 viewBox="0 0 116 106" style="enable-background:new 0 0 116 106;" xml:space="preserve">
<g>
	<g>
		<path style="fill:#346C93;" d="M28.42,18.22c-0.44-0.14-0.88-0.31-1.27-0.53c-0.06-0.03-0.11-0.06-0.16-0.09l-10.7,10.7
			c0.04,0.61,0.13,1.21,0.26,1.79L28.42,18.22z"/>
		<path style="fill:#346C93;" d="M33.68,19.11L18.5,34.29c0.29,0.39,0.6,0.76,0.94,1.1l15.09-15.09
			C34.35,19.84,34.06,19.43,33.68,19.11z"/>
		<path style="fill:#346C93;" d="M32.27,18.47c-0.15-0.02-0.3-0.04-0.46-0.04c-0.14,0-0.27,0.01-0.4,0.03
			c-0.31,0.04-0.63,0.06-0.95,0.06c-0.1,0-0.19,0-0.29-0.01L17.02,31.66c0.19,0.48,0.41,0.95,0.66,1.39L32.27,18.47z"/>
		<path style="fill:#346C93;" d="M16.25,26.28l9.36-9.36c-0.04-0.01-0.09-0.01-0.13-0.01c-0.31,0-0.59,0.1-0.82,0.26l0,0
			c-0.06,0.05-0.12,0.09-0.18,0.13c-0.07,0.04-0.14,0.09-0.21,0.14c-0.14,0.09-0.29,0.18-0.44,0.25c-0.52,0.28-1.08,0.49-1.67,0.63
			l-5.91,5.9V26.28z"/>
		<path style="fill:#346C93;" d="M34.72,24.22v-2.05L20.53,36.36c0.39,0.3,0.79,0.58,1.22,0.83L34.72,24.22z"/>
		<path style="fill:#346C93;" d="M34.68,28.36c0.01-0.24,0.03-0.48,0.03-0.72c0-0.21,0-0.42-0.02-0.62l0.02,0v-0.73l-11.6,11.59
			c0.5,0.2,1.02,0.37,1.55,0.5L34.68,28.36z"/>
		<path style="fill:#346C93;" d="M19.94,18.49c-0.12-0.01-0.25-0.02-0.37-0.04c-0.13-0.02-0.27-0.03-0.4-0.03
			c-1.57,0-2.84,1.24-2.9,2.79l-0.01,0v0.96L19.94,18.49z"/>
		<path style="fill:#346C93;" d="M34.23,30.87l-7.35,7.36C30.39,37.15,33.15,34.38,34.23,30.87z"/>
	</g>
	<g>
		<path style="fill:#346C93;" d="M60.93,18.22c-0.44-0.14-0.87-0.31-1.27-0.53c-0.05-0.03-0.11-0.06-0.16-0.09L48.8,28.3
			c0.04,0.61,0.12,1.21,0.26,1.79L60.93,18.22z"/>
		<path style="fill:#346C93;" d="M66.19,19.11L51.01,34.29c0.29,0.39,0.6,0.76,0.95,1.1l15.09-15.09
			C66.87,19.84,66.57,19.43,66.19,19.11z"/>
		<path style="fill:#346C93;" d="M64.79,18.47c-0.15-0.02-0.3-0.04-0.46-0.04c-0.14,0-0.27,0.01-0.4,0.03
			c-0.31,0.04-0.63,0.06-0.95,0.06c-0.1,0-0.19,0-0.29-0.01L49.53,31.66c0.19,0.48,0.41,0.95,0.66,1.39L64.79,18.47z"/>
		<path style="fill:#346C93;" d="M48.77,26.28l9.36-9.36c-0.04-0.01-0.08-0.01-0.13-0.01c-0.31,0-0.59,0.1-0.82,0.26l0,0
			c-0.06,0.05-0.12,0.09-0.18,0.13c-0.07,0.04-0.14,0.09-0.21,0.14c-0.15,0.09-0.29,0.18-0.44,0.25c-0.52,0.28-1.08,0.49-1.67,0.63
			l-5.9,5.9V26.28z"/>
		<path style="fill:#346C93;" d="M67.23,24.22v-2.05L53.04,36.36c0.39,0.3,0.79,0.58,1.22,0.83L67.23,24.22z"/>
		<path style="fill:#346C93;" d="M67.2,28.36c0.01-0.24,0.03-0.48,0.03-0.72c0-0.21,0-0.42-0.02-0.62l0.02,0v-0.73L55.64,37.87
			c0.5,0.2,1.01,0.37,1.55,0.5L67.2,28.36z"/>
		<path style="fill:#346C93;" d="M52.45,18.49c-0.12-0.01-0.25-0.02-0.38-0.04c-0.13-0.02-0.27-0.03-0.4-0.03
			c-1.56,0-2.84,1.24-2.9,2.79l-0.01,0v0.96L52.45,18.49z"/>
		<path style="fill:#346C93;" d="M66.74,30.87l-7.35,7.36C62.9,37.15,65.67,34.38,66.74,30.87z"/>
	</g>
	<g>
		<path style="fill:#346C93;" d="M77.19,1.31C76.75,1.17,76.31,1,75.91,0.78c-0.06-0.03-0.11-0.06-0.16-0.09l-10.7,10.7
			c0.04,0.61,0.12,1.21,0.26,1.79L77.19,1.31z"/>
		<path style="fill:#346C93;" d="M82.45,2.2L67.26,17.39c0.29,0.39,0.61,0.76,0.94,1.11L83.3,3.4C83.12,2.93,82.83,2.52,82.45,2.2z"
			/>
		<path style="fill:#346C93;" d="M81.04,1.56c-0.15-0.02-0.3-0.04-0.45-0.04c-0.14,0-0.27,0.01-0.4,0.03
			c-0.31,0.04-0.63,0.06-0.95,0.06c-0.1,0-0.19,0-0.29-0.01L65.79,14.76c0.19,0.48,0.41,0.95,0.66,1.39L81.04,1.56z"/>
		<path style="fill:#346C93;" d="M65.03,9.37l9.36-9.36C74.34,0,74.3,0,74.26,0c-0.3,0-0.59,0.1-0.82,0.26l0,0
			c-0.06,0.05-0.12,0.09-0.18,0.13c-0.07,0.04-0.14,0.09-0.21,0.14C72.9,0.62,72.75,0.7,72.6,0.78c-0.52,0.28-1.08,0.49-1.67,0.63
			l-5.9,5.9V9.37z"/>
		<path style="fill:#346C93;" d="M83.49,7.32V5.27L69.3,19.45c0.38,0.31,0.79,0.58,1.22,0.83L83.49,7.32z"/>
		<path style="fill:#346C93;" d="M83.46,11.45c0.02-0.24,0.03-0.48,0.03-0.72c0-0.21,0-0.42-0.01-0.62l0.01,0V9.37l-11.59,11.6
			c0.5,0.2,1.02,0.37,1.55,0.5L83.46,11.45z"/>
		<path style="fill:#346C93;" d="M68.71,1.59c-0.13-0.01-0.25-0.02-0.38-0.04c-0.13-0.02-0.27-0.03-0.4-0.03
			c-1.56,0-2.84,1.24-2.9,2.79l0,0v0.96L68.71,1.59z"/>
		<path style="fill:#346C93;" d="M83,13.96l-7.35,7.36C79.16,20.24,81.92,17.47,83,13.96z"/>
	</g>
	<g>
		<path style="fill:#346C93;" d="M93.44,18.22c-0.44-0.14-0.87-0.31-1.28-0.53c-0.06-0.03-0.11-0.06-0.16-0.09l-10.7,10.7
			c0.04,0.61,0.13,1.21,0.26,1.79L93.44,18.22z"/>
		<path style="fill:#346C93;" d="M98.71,19.11L83.52,34.29c0.29,0.39,0.6,0.76,0.94,1.1l15.09-15.09
			C99.38,19.84,99.08,19.43,98.71,19.11z"/>
		<path style="fill:#346C93;" d="M97.3,18.47c-0.15-0.02-0.3-0.04-0.46-0.04c-0.14,0-0.27,0.01-0.4,0.03
			c-0.31,0.04-0.63,0.06-0.95,0.06c-0.09,0-0.19,0-0.29-0.01L82.05,31.66c0.19,0.48,0.41,0.95,0.66,1.39L97.3,18.47z"/>
		<path style="fill:#346C93;" d="M81.28,26.28l9.36-9.36c-0.04-0.01-0.09-0.01-0.13-0.01c-0.31,0-0.59,0.1-0.82,0.26l0,0
			c-0.06,0.05-0.12,0.09-0.18,0.13c-0.07,0.04-0.14,0.09-0.21,0.14c-0.14,0.09-0.29,0.18-0.44,0.25c-0.52,0.28-1.08,0.49-1.68,0.63
			l-5.9,5.9V26.28z"/>
		<path style="fill:#346C93;" d="M99.74,24.22v-2.05L85.56,36.36c0.39,0.3,0.79,0.58,1.22,0.83L99.74,24.22z"/>
		<path style="fill:#346C93;" d="M99.71,28.36c0.01-0.24,0.03-0.48,0.03-0.72c0-0.21,0-0.42-0.02-0.62l0.02,0v-0.73L88.15,37.87
			c0.5,0.2,1.02,0.37,1.55,0.5L99.71,28.36z"/>
		<path style="fill:#346C93;" d="M84.96,18.49c-0.13-0.01-0.25-0.02-0.38-0.04c-0.13-0.02-0.26-0.03-0.4-0.03
			c-1.56,0-2.84,1.24-2.9,2.79l0,0v0.96L84.96,18.49z"/>
		<path style="fill:#346C93;" d="M99.25,30.87l-7.35,7.36C95.41,37.15,98.18,34.38,99.25,30.87z"/>
	</g>
	<g>
		<path style="fill:#346C93;" d="M12.16,35.12c-0.44-0.14-0.88-0.31-1.27-0.53c-0.06-0.03-0.11-0.06-0.16-0.09l-10.7,10.7
			c0.04,0.61,0.13,1.21,0.26,1.79L12.16,35.12z"/>
		<path style="fill:#346C93;" d="M17.42,36.01L2.24,51.2c0.29,0.39,0.61,0.76,0.94,1.1l15.09-15.09
			C18.1,36.75,17.8,36.34,17.42,36.01z"/>
		<path style="fill:#346C93;" d="M16.01,35.37c-0.15-0.02-0.3-0.04-0.45-0.04c-0.14,0-0.27,0.01-0.4,0.03
			c-0.31,0.04-0.63,0.06-0.95,0.06c-0.09,0-0.19-0.01-0.29-0.01L0.77,48.57c0.19,0.48,0.41,0.95,0.66,1.39L16.01,35.37z"/>
		<path style="fill:#346C93;" d="M0,43.18l9.36-9.36c-0.04-0.01-0.08-0.01-0.12-0.01c-0.31,0-0.59,0.1-0.82,0.26l0,0
			c-0.06,0.05-0.12,0.09-0.18,0.13c-0.07,0.05-0.14,0.09-0.21,0.14c-0.15,0.09-0.29,0.18-0.44,0.25c-0.52,0.28-1.08,0.49-1.67,0.63
			L0,41.13V43.18z"/>
		<path style="fill:#346C93;" d="M18.46,41.13v-2.05L4.28,53.27c0.38,0.31,0.79,0.58,1.22,0.83L18.46,41.13z"/>
		<path style="fill:#346C93;" d="M18.43,45.27c0.02-0.24,0.03-0.48,0.03-0.73c0-0.21,0-0.42-0.01-0.62l0.01,0v-0.73L6.87,54.78
			c0.5,0.2,1.02,0.37,1.55,0.5L18.43,45.27z"/>
		<path style="fill:#346C93;" d="M3.68,35.4c-0.12-0.01-0.25-0.02-0.37-0.04c-0.13-0.02-0.27-0.03-0.41-0.03
			c-1.56,0-2.84,1.24-2.89,2.79l0,0v0.96L3.68,35.4z"/>
		<path style="fill:#346C93;" d="M17.97,47.77l-7.35,7.36C14.13,54.06,16.9,51.29,17.97,47.77z"/>
	</g>
	<g>
		<path style="fill:#346C93;" d="M28.42,52.03c-0.44-0.13-0.88-0.31-1.27-0.53c-0.06-0.03-0.11-0.06-0.16-0.09l-10.7,10.7
			c0.04,0.61,0.13,1.21,0.26,1.79L28.42,52.03z"/>
		<path style="fill:#346C93;" d="M33.68,52.92L18.5,68.11c0.29,0.39,0.6,0.76,0.94,1.1l15.09-15.09
			C34.35,53.65,34.06,53.24,33.68,52.92z"/>
		<path style="fill:#346C93;" d="M32.27,52.28c-0.15-0.02-0.3-0.04-0.46-0.04c-0.14,0-0.27,0.01-0.4,0.03
			c-0.31,0.04-0.63,0.06-0.95,0.06c-0.1,0-0.19,0-0.29-0.01L17.02,65.48c0.19,0.48,0.41,0.95,0.66,1.39L32.27,52.28z"/>
		<path style="fill:#346C93;" d="M16.25,60.09l9.36-9.36c-0.04,0-0.09-0.01-0.13-0.01c-0.31,0-0.59,0.1-0.82,0.26l0,0
			c-0.06,0.05-0.12,0.09-0.18,0.13c-0.07,0.04-0.14,0.09-0.21,0.14c-0.14,0.09-0.29,0.17-0.44,0.25c-0.52,0.28-1.08,0.49-1.67,0.63
			l-5.91,5.9V60.09z"/>
		<path style="fill:#346C93;" d="M34.72,58.04v-2.05L20.53,70.17c0.39,0.3,0.79,0.58,1.22,0.83L34.72,58.04z"/>
		<path style="fill:#346C93;" d="M34.68,62.17c0.01-0.24,0.03-0.48,0.03-0.73c0-0.21,0-0.41-0.02-0.62l0.02,0v-0.73l-11.6,11.59
			c0.5,0.2,1.02,0.37,1.55,0.5L34.68,62.17z"/>
		<path style="fill:#346C93;" d="M19.94,52.31c-0.12-0.01-0.25-0.02-0.37-0.04c-0.13-0.02-0.27-0.03-0.4-0.03
			c-1.57,0-2.84,1.24-2.9,2.79l-0.01,0v0.96L19.94,52.31z"/>
		<path style="fill:#346C93;" d="M34.23,64.68l-7.35,7.36C30.39,70.97,33.15,68.2,34.23,64.68z"/>
	</g>
	<g>
		<path style="fill:#346C93;" d="M44.68,35.12c-0.44-0.14-0.88-0.31-1.28-0.53c-0.06-0.03-0.1-0.06-0.16-0.09l-10.7,10.7
			c0.04,0.61,0.12,1.21,0.26,1.79L44.68,35.12z"/>
		<path style="fill:#346C93;" d="M49.94,36.01L34.75,51.2c0.29,0.39,0.6,0.76,0.94,1.1l15.09-15.09
			C50.61,36.75,50.31,36.34,49.94,36.01z"/>
		<path style="fill:#346C93;" d="M48.53,35.37c-0.15-0.02-0.3-0.04-0.46-0.04c-0.14,0-0.27,0.01-0.4,0.03
			c-0.31,0.04-0.62,0.06-0.95,0.06c-0.09,0-0.19-0.01-0.29-0.01L33.28,48.57c0.19,0.48,0.41,0.95,0.66,1.39L48.53,35.37z"/>
		<path style="fill:#346C93;" d="M32.52,43.18l9.36-9.36c-0.04-0.01-0.09-0.01-0.13-0.01c-0.31,0-0.59,0.1-0.82,0.26l0,0
			c-0.06,0.05-0.12,0.09-0.18,0.13c-0.07,0.05-0.14,0.09-0.21,0.14c-0.14,0.09-0.29,0.18-0.44,0.25c-0.52,0.28-1.08,0.49-1.67,0.63
			l-5.9,5.9V43.18z"/>
		<path style="fill:#346C93;" d="M50.97,41.13v-2.05L36.79,53.27c0.39,0.31,0.8,0.58,1.22,0.83L50.97,41.13z"/>
		<path style="fill:#346C93;" d="M50.94,45.27c0.01-0.24,0.03-0.48,0.03-0.73c0-0.21-0.01-0.42-0.02-0.62l0.02,0v-0.73l-11.59,11.6
			c0.5,0.2,1.02,0.37,1.55,0.5L50.94,45.27z"/>
		<path style="fill:#346C93;" d="M36.19,35.4c-0.12-0.01-0.25-0.02-0.37-0.04c-0.13-0.02-0.27-0.03-0.4-0.03
			c-1.56,0-2.84,1.24-2.9,2.79l0,0v0.96L36.19,35.4z"/>
		<path style="fill:#346C93;" d="M50.49,47.77l-7.36,7.36C46.65,54.06,49.41,51.29,50.49,47.77z"/>
	</g>
	<g>
		<path style="fill:#346C93;" d="M77.19,35.12c-0.44-0.14-0.87-0.31-1.27-0.53c-0.06-0.03-0.11-0.06-0.16-0.09l-10.7,10.7
			c0.04,0.61,0.12,1.21,0.26,1.79L77.19,35.12z"/>
		<path style="fill:#346C93;" d="M82.45,36.01L67.26,51.2c0.29,0.39,0.61,0.76,0.94,1.1L83.3,37.22
			C83.12,36.75,82.83,36.34,82.45,36.01z"/>
		<path style="fill:#346C93;" d="M81.04,35.37c-0.15-0.02-0.3-0.04-0.45-0.04c-0.14,0-0.27,0.01-0.4,0.03
			c-0.31,0.04-0.63,0.06-0.95,0.06c-0.1,0-0.19-0.01-0.29-0.01L65.79,48.57c0.19,0.48,0.41,0.95,0.66,1.39L81.04,35.37z"/>
		<path style="fill:#346C93;" d="M65.03,43.18l9.36-9.36c-0.05-0.01-0.08-0.01-0.13-0.01c-0.3,0-0.59,0.1-0.82,0.26l0,0
			c-0.06,0.05-0.12,0.09-0.18,0.13c-0.07,0.05-0.14,0.09-0.21,0.14c-0.14,0.09-0.29,0.18-0.44,0.25c-0.52,0.28-1.08,0.49-1.67,0.63
			l-5.9,5.9V43.18z"/>
		<path style="fill:#346C93;" d="M83.49,41.13v-2.05L69.3,53.27c0.38,0.31,0.79,0.58,1.22,0.83L83.49,41.13z"/>
		<path style="fill:#346C93;" d="M83.46,45.27c0.02-0.24,0.03-0.48,0.03-0.73c0-0.21,0-0.42-0.01-0.62l0.01,0v-0.73l-11.59,11.6
			c0.5,0.2,1.02,0.37,1.55,0.5L83.46,45.27z"/>
		<path style="fill:#346C93;" d="M68.71,35.4c-0.13-0.01-0.25-0.02-0.38-0.04c-0.13-0.02-0.27-0.03-0.4-0.03
			c-1.56,0-2.84,1.24-2.9,2.79l0,0v0.96L68.71,35.4z"/>
		<path style="fill:#346C93;" d="M83,47.77l-7.35,7.36C79.16,54.06,81.92,51.29,83,47.77z"/>
	</g>
	<g>
		<path style="fill:#346C93;" d="M93.44,52.03c-0.44-0.13-0.87-0.31-1.28-0.53c-0.06-0.03-0.11-0.06-0.16-0.09l-10.7,10.7
			c0.04,0.61,0.13,1.21,0.26,1.79L93.44,52.03z"/>
		<path style="fill:#346C93;" d="M98.71,52.92L83.52,68.11c0.29,0.39,0.6,0.76,0.94,1.1l15.09-15.09
			C99.38,53.65,99.08,53.24,98.71,52.92z"/>
		<path style="fill:#346C93;" d="M97.3,52.28c-0.15-0.02-0.3-0.04-0.46-0.04c-0.14,0-0.27,0.01-0.4,0.03
			c-0.31,0.04-0.63,0.06-0.95,0.06c-0.09,0-0.19,0-0.29-0.01L82.05,65.48c0.19,0.48,0.41,0.95,0.66,1.39L97.3,52.28z"/>
		<path style="fill:#346C93;" d="M81.28,60.09l9.36-9.36c-0.04,0-0.09-0.01-0.13-0.01c-0.31,0-0.59,0.1-0.82,0.26l0,0
			c-0.06,0.05-0.12,0.09-0.18,0.13c-0.07,0.04-0.14,0.09-0.21,0.14c-0.14,0.09-0.29,0.17-0.44,0.25c-0.52,0.28-1.08,0.49-1.68,0.63
			l-5.9,5.9V60.09z"/>
		<path style="fill:#346C93;" d="M99.74,58.04v-2.05L85.56,70.17c0.39,0.3,0.79,0.58,1.22,0.83L99.74,58.04z"/>
		<path style="fill:#346C93;" d="M99.71,62.17c0.01-0.24,0.03-0.48,0.03-0.73c0-0.21,0-0.41-0.02-0.62l0.02,0v-0.73L88.15,71.69
			c0.5,0.2,1.02,0.37,1.55,0.5L99.71,62.17z"/>
		<path style="fill:#346C93;" d="M84.96,52.31c-0.13-0.01-0.25-0.02-0.38-0.04c-0.13-0.02-0.26-0.03-0.4-0.03
			c-1.56,0-2.84,1.24-2.9,2.79l0,0v0.96L84.96,52.31z"/>
		<path style="fill:#346C93;" d="M99.25,64.68l-7.35,7.36C95.41,70.97,98.18,68.2,99.25,64.68z"/>
	</g>
	<g>
		<path style="fill:#346C93;" d="M77.19,68.93c-0.44-0.13-0.87-0.31-1.27-0.53c-0.06-0.03-0.11-0.06-0.16-0.09l-10.7,10.7
			c0.04,0.61,0.12,1.21,0.26,1.79L77.19,68.93z"/>
		<path style="fill:#346C93;" d="M82.45,69.83L67.26,85.01c0.29,0.39,0.61,0.76,0.94,1.11L83.3,71.03
			C83.12,70.56,82.83,70.15,82.45,69.83z"/>
		<path style="fill:#346C93;" d="M81.04,69.18c-0.15-0.02-0.3-0.04-0.45-0.04c-0.14,0-0.27,0.01-0.4,0.03
			c-0.31,0.04-0.63,0.06-0.95,0.06c-0.1,0-0.19,0-0.29-0.01L65.79,82.38c0.19,0.48,0.41,0.95,0.66,1.39L81.04,69.18z"/>
		<path style="fill:#346C93;" d="M65.03,77l9.36-9.36c-0.05,0-0.08-0.01-0.13-0.01c-0.3,0-0.59,0.09-0.82,0.26l0,0
			c-0.06,0.05-0.12,0.09-0.18,0.13c-0.07,0.05-0.14,0.09-0.21,0.14c-0.14,0.09-0.29,0.18-0.44,0.26c-0.52,0.28-1.08,0.49-1.67,0.63
			l-5.9,5.9V77z"/>
		<path style="fill:#346C93;" d="M83.49,74.94v-2.05L69.3,87.08c0.38,0.3,0.79,0.58,1.22,0.83L83.49,74.94z"/>
		<path style="fill:#346C93;" d="M83.46,79.07c0.02-0.24,0.03-0.48,0.03-0.72c0-0.21,0-0.41-0.01-0.62l0.01,0V77L71.89,88.59
			c0.5,0.2,1.02,0.37,1.55,0.5L83.46,79.07z"/>
		<path style="fill:#346C93;" d="M68.71,69.21c-0.13-0.01-0.25-0.02-0.38-0.04c-0.13-0.02-0.27-0.03-0.4-0.03
			c-1.56,0-2.84,1.24-2.9,2.79h0v0.96L68.71,69.21z"/>
		<path style="fill:#346C93;" d="M83,81.59l-7.35,7.35C79.16,87.87,81.92,85.1,83,81.59z"/>
	</g>
	<g>
		<path style="fill:#346C93;" d="M93.44,85.84c-0.44-0.13-0.87-0.31-1.28-0.53c-0.06-0.03-0.11-0.06-0.16-0.09l-10.7,10.7
			c0.04,0.61,0.13,1.21,0.26,1.79L93.44,85.84z"/>
		<path style="fill:#346C93;" d="M98.71,86.73l-15.19,15.19c0.29,0.39,0.6,0.76,0.94,1.11l15.09-15.09
			C99.38,87.46,99.08,87.05,98.71,86.73z"/>
		<path style="fill:#346C93;" d="M97.3,86.09c-0.15-0.03-0.3-0.04-0.46-0.04c-0.14,0-0.27,0.01-0.4,0.03
			c-0.31,0.04-0.63,0.06-0.95,0.06c-0.09,0-0.19,0-0.29-0.01L82.05,99.29c0.19,0.48,0.41,0.95,0.66,1.39L97.3,86.09z"/>
		<path style="fill:#346C93;" d="M81.28,93.9l9.36-9.36c-0.04,0-0.09-0.01-0.13-0.01c-0.31,0-0.59,0.09-0.82,0.26l0,0
			c-0.06,0.05-0.12,0.09-0.18,0.13c-0.07,0.05-0.14,0.09-0.21,0.14c-0.14,0.09-0.29,0.18-0.44,0.25c-0.52,0.28-1.08,0.49-1.68,0.63
			l-5.9,5.9V93.9z"/>
		<path style="fill:#346C93;" d="M99.74,91.85V89.8l-14.18,14.18c0.39,0.31,0.79,0.58,1.22,0.83L99.74,91.85z"/>
		<path style="fill:#346C93;" d="M99.71,95.98c0.01-0.24,0.03-0.48,0.03-0.72c0-0.21,0-0.42-0.02-0.62l0.02,0V93.9L88.15,105.5
			c0.5,0.2,1.02,0.37,1.55,0.5L99.71,95.98z"/>
		<path style="fill:#346C93;" d="M84.96,86.12c-0.13-0.01-0.25-0.02-0.38-0.04c-0.13-0.02-0.26-0.03-0.4-0.03
			c-1.56,0-2.84,1.24-2.9,2.79l0,0v0.96L84.96,86.12z"/>
		<path style="fill:#346C93;" d="M99.25,98.49l-7.35,7.35C95.41,104.78,98.18,102.01,99.25,98.49z"/>
	</g>
	<g>
		<path style="fill:#346C93;" d="M109.7,68.93c-0.44-0.13-0.87-0.31-1.28-0.53c-0.06-0.03-0.11-0.06-0.16-0.09l-10.7,10.7
			c0.03,0.61,0.12,1.21,0.26,1.79L109.7,68.93z"/>
		<path style="fill:#346C93;" d="M114.96,69.83L99.78,85.01c0.29,0.39,0.6,0.76,0.94,1.11l15.09-15.09
			C115.63,70.56,115.34,70.15,114.96,69.83z"/>
		<path style="fill:#346C93;" d="M113.56,69.18c-0.15-0.02-0.3-0.04-0.46-0.04c-0.14,0-0.27,0.01-0.4,0.03
			c-0.31,0.04-0.63,0.06-0.95,0.06c-0.09,0-0.19,0-0.29-0.01L98.3,82.38c0.19,0.48,0.41,0.95,0.66,1.39L113.56,69.18z"/>
		<path style="fill:#346C93;" d="M97.54,77l9.36-9.36c-0.04,0-0.08-0.01-0.12-0.01c-0.31,0-0.59,0.09-0.82,0.26l0,0
			c-0.06,0.05-0.12,0.09-0.19,0.13c-0.06,0.05-0.14,0.09-0.2,0.14c-0.15,0.09-0.29,0.18-0.44,0.26c-0.52,0.28-1.08,0.49-1.67,0.63
			l-5.9,5.9V77z"/>
		<path style="fill:#346C93;" d="M116,74.94v-2.05l-14.18,14.18c0.39,0.3,0.79,0.58,1.22,0.83L116,74.94z"/>
		<path style="fill:#346C93;" d="M115.97,79.07c0.02-0.24,0.03-0.48,0.03-0.72c0-0.21-0.01-0.41-0.02-0.62l0.02,0V77l-11.59,11.59
			c0.5,0.2,1.02,0.37,1.55,0.5L115.97,79.07z"/>
		<path style="fill:#346C93;" d="M101.22,69.21c-0.13-0.01-0.25-0.02-0.38-0.04c-0.13-0.02-0.27-0.03-0.41-0.03
			c-1.56,0-2.84,1.24-2.9,2.79h0v0.96L101.22,69.21z"/>
		<path style="fill:#346C93;" d="M115.51,81.59l-7.36,7.35C111.67,87.87,114.44,85.1,115.51,81.59z"/>
	</g>
</g>
</svg>
