<?xml version="1.0" encoding="utf-8"?>
<!-- Generator: Adobe Illustrator 25.0.1, SVG Export Plug-In . SVG Version: 6.00 Build 0)  -->
<svg version="1.1" id="圖層_1" xmlns="http://www.w3.org/2000/svg" xmlns:xlink="http://www.w3.org/1999/xlink" x="0px" y="0px"
	 width="72px" height="72px" viewBox="0 0 72 72" style="enable-background:new 0 0 72 72;" xml:space="preserve">
<style type="text/css">
	.st0{fill:#00517E;}
	.st1{fill-rule:evenodd;clip-rule:evenodd;fill:#00517E;}
</style>
<g>
	<g>
		<path class="st0" d="M39.68,4.02V2.25c-0.8-0.09-1.69-0.13-2.68-0.16h-0.06V0.1h-1.96v1.99h-0.06c-1.01,0.03-1.88,0.09-2.7,0.16
			v1.76c0.8-0.09,1.69-0.15,2.7-0.16H35v5.66h1.96V3.85h0.07C38.01,3.88,38.88,3.94,39.68,4.02z"/>
		<g>
			<path class="st1" d="M17.87,8.1c0.06,0.01,0.13,0.01,0.19,0.01c1.78-0.28,4.56-2.12,5.69-3.57c0.01-0.03,0.04-0.06,0.04-0.09
				c0.03-0.13-0.04-0.25-0.18-0.28c-2.44,0-5.33,1.53-6.16,3.08c-0.01,0.04-0.03,0.07-0.04,0.12C17.34,7.7,17.55,8.03,17.87,8.1z"/>
			<path class="st1" d="M6.85,18.74c0.07,0,0.15-0.01,0.21-0.03c0,0,0.01,0,0.01-0.01c0.07-0.03,0.13-0.07,0.19-0.12
				c1.66-2.19,2.19-4.79,2.36-7.39c0-0.13-0.1-0.24-0.24-0.24c-0.01,0-0.03,0-0.04,0c-0.06,0.01-0.1,0.03-0.13,0.07
				c-0.31,0.34-0.68,0.71-0.93,1.04c-1.27,1.57-2.13,3.3-2.13,5.38c0,0.3,0.03,0.58,0.1,0.86C6.33,18.55,6.57,18.74,6.85,18.74z"/>
			<path class="st1" d="M2.23,35.35c0.1,0.06,0.22,0.12,0.36,0.12c0.07,0,0.15-0.01,0.22-0.04h0.01c0.12-0.04,0.21-0.12,0.28-0.21
				c0.06-0.09,0.1-0.19,0.12-0.3c0.28-2.36-0.93-7.05-2.25-8.37c-0.04-0.04-0.1-0.06-0.16-0.06c-0.01,0-0.03,0-0.04,0
				c-0.06,0.01-0.1,0.03-0.13,0.07c-0.01,0.03-0.03,0.04-0.04,0.07c-0.59,2.47-0.59,4.89,0.49,7.24
				C1.34,34.46,1.74,34.95,2.23,35.35z"/>
			<path class="st1" d="M14.25,15.54c0.01-0.03,0.01-0.06,0.01-0.07v-0.01c0-0.13-0.09-0.22-0.21-0.25
				c-2.58-0.04-5.39,2.01-6.09,3.88c-0.01,0.06-0.03,0.12-0.03,0.18c0,0.06,0,0.12,0.01,0.16c0.07,0.28,0.33,0.49,0.64,0.49
				c0.04,0,0.09-0.01,0.13-0.03C10.59,19.41,13.34,17.29,14.25,15.54z"/>
			<path class="st1" d="M11.52,11.76c0.07,0.03,0.13,0.03,0.21,0.03h0.01c0.07,0,0.15-0.03,0.21-0.06c2.13-1.5,3.36-3.67,4.27-5.98
				c0.03-0.12-0.03-0.24-0.15-0.28c-0.01,0-0.03-0.01-0.04-0.01c-0.04,0-0.1,0-0.13,0.03c-0.39,0.21-0.81,0.44-1.16,0.65
				c-1.6,1.04-2.89,2.36-3.48,4.22c-0.07,0.27-0.13,0.53-0.15,0.81C11.1,11.45,11.27,11.69,11.52,11.76z"/>
			<path class="st1" d="M18.99,9.79C19,9.78,19,9.75,19.02,9.72V9.7c0.01-0.12-0.06-0.22-0.18-0.25c-2.43-0.27-5.26,1.44-6.07,3.14
				c-0.01,0.06-0.04,0.1-0.04,0.16s0,0.1,0.01,0.16c0.04,0.27,0.27,0.49,0.55,0.5c0.04,0,0.09,0,0.13-0.01
				C15.19,13.13,17.98,11.36,18.99,9.79z"/>
			<path class="st1" d="M5.64,27.75c0.07,0,0.13-0.01,0.19-0.04c1.87-0.86,3.87-3.7,4.62-5.72c0-0.01,0.01-0.04,0.01-0.06v-0.01
				c0-0.01,0-0.04,0-0.06c-0.03-0.1-0.12-0.16-0.22-0.18c-2.09,0.06-4.92,3.05-5.27,5.38c0,0.01,0,0.04,0,0.06
				c0,0.06,0.01,0.1,0.03,0.16c0.01,0.04,0.04,0.09,0.06,0.15C5.16,27.63,5.39,27.75,5.64,27.75z"/>
			<path class="st1" d="M3.03,26.46c0.13,0.18,0.33,0.28,0.56,0.27c0.07,0,0.15-0.01,0.22-0.04c0.01,0,0.01,0,0.01-0.01
				c0.12-0.04,0.21-0.13,0.28-0.22c0.01-0.01,0.01-0.03,0.03-0.06c0.93-1.96,1.17-5.87,0.43-8.09c-0.03-0.1-0.13-0.19-0.25-0.18
				c-0.01,0-0.03,0-0.04,0c-0.06,0.01-0.1,0.04-0.15,0.09c-0.01,0.01-0.01,0.03-0.03,0.03c-0.24,0.41-0.46,0.79-0.65,1.19
				c-0.89,1.85-1.35,3.79-0.89,5.85C2.66,25.69,2.82,26.09,3.03,26.46z"/>
			<path class="st1" d="M4.23,35.21c0.04,0.12,0.1,0.22,0.21,0.31c0.12,0.09,0.25,0.15,0.41,0.15c0.07,0,0.15-0.01,0.22-0.04
				c0.01,0,0.01,0,0.01,0c0.06-0.03,0.12-0.06,0.18-0.1c1.66-1.36,2.98-4.93,3.14-6.81c0-0.06-0.03-0.12-0.07-0.18
				c-0.04-0.04-0.1-0.07-0.18-0.07l0,0C5.83,29.16,3.79,32.79,4.23,35.21z"/>
			<path class="st1" d="M2.68,43.53c0.21,0.22,0.46,0.4,0.73,0.53c0.09,0.04,0.19,0.07,0.31,0.07c0.09,0,0.16-0.01,0.25-0.04
				c0.12-0.04,0.22-0.1,0.3-0.21c0.04-0.04,0.07-0.09,0.1-0.13c0.03-0.06,0.04-0.1,0.07-0.16c0.01-0.06,0.03-0.12,0.03-0.19
				c-0.25-2.52-2.4-6.24-3.97-7.75c-0.04-0.04-0.1-0.07-0.16-0.07c-0.01,0-0.04,0-0.06,0c-0.01,0-0.03,0-0.04,0.01
				c-0.09,0.01-0.15,0.07-0.19,0.15c-0.01,0.01-0.01,0.04-0.03,0.06c-0.07,2.1,0.33,4.04,1.26,5.87
				C1.59,42.34,2.14,42.96,2.68,43.53z"/>
			<path class="st1" d="M19.25,63.75c0.1-0.04,0.19-0.1,0.27-0.19c0.04-0.04,0.07-0.1,0.1-0.15c0.07-0.12,0.1-0.27,0.1-0.4
				c0-0.22-0.09-0.43-0.24-0.56c-0.03-0.03-0.06-0.06-0.1-0.09c-2.24-1.54-6.43-2.44-8.77-2.21c-0.09,0.03-0.16,0.07-0.21,0.15
				c-0.01,0.03-0.04,0.07-0.04,0.1c-0.01,0.03-0.01,0.07-0.01,0.12c0,0.03,0.01,0.06,0.01,0.1c0,0.01,0.01,0.04,0.03,0.06
				c0.01,0.01,0.03,0.03,0.04,0.04c1.32,1.27,2.84,2.22,4.56,2.84c1.11,0.4,2.25,0.62,3.44,0.43
				C18.72,63.91,18.99,63.84,19.25,63.75z"/>
			<path class="st1" d="M7.15,51.94c0.07,0,0.15-0.01,0.22-0.04c0.12-0.04,0.22-0.1,0.3-0.21c0.04-0.04,0.07-0.09,0.1-0.13
				c0.03-0.06,0.04-0.1,0.07-0.16c0.01-0.06,0.03-0.13,0.03-0.19c0-0.03,0-0.04,0-0.07c0-0.06-0.03-0.12-0.04-0.16
				c-1.38-2.77-3.63-4.58-6.21-6.15c-0.03-0.01-0.06-0.03-0.09-0.03c-0.01,0-0.04,0-0.06,0c-0.01,0-0.03,0-0.04,0.01
				c-0.09,0.01-0.16,0.07-0.19,0.15c-0.01,0.01-0.01,0.04-0.03,0.07c0,0.01,0,0.03,0,0.03c0,0.01,0,0.01,0,0.03
				c0,0.01,0,0.01,0,0.01c0.7,2.5,1.96,4.64,4.13,6.16C5.86,51.63,6.47,51.85,7.15,51.94z"/>
			<path class="st1" d="M5.7,43.67c0.04,0.04,0.09,0.09,0.15,0.13c0.03,0.01,0.04,0.03,0.07,0.04c0.1,0.06,0.22,0.09,0.36,0.09
				c0.09,0,0.18-0.01,0.25-0.04c0.12-0.04,0.22-0.1,0.3-0.21c0,0,0,0,0.01-0.01c1.27-1.7,1.67-5.42,1.38-7.63
				c0-0.04-0.01-0.09-0.04-0.13c-0.01-0.03-0.03-0.04-0.06-0.06c-0.04-0.04-0.1-0.07-0.18-0.07c-0.01,0-0.04,0-0.06,0
				c-0.01,0-0.03,0-0.04,0.01c-0.03,0.01-0.06,0.03-0.07,0.04c-2.4,2.01-2.99,5.75-2.13,7.7C5.64,43.6,5.67,43.64,5.7,43.67z"/>
			<path class="st1" d="M12.1,58.22c0.04-0.01,0.07-0.01,0.12-0.03c0.12-0.04,0.22-0.12,0.3-0.21c0.04-0.04,0.07-0.09,0.1-0.13
				c0.03-0.06,0.04-0.1,0.06-0.16c0.01-0.06,0.03-0.13,0.03-0.19c0-0.03,0-0.04,0-0.07c0-0.09-0.03-0.16-0.06-0.24
				c-0.01-0.04-0.06-0.09-0.07-0.12c-1.73-1.91-5.69-4.01-7.87-4.13c-0.01,0-0.01,0-0.03,0c-0.01,0-0.03,0-0.04,0
				c-0.09,0.03-0.15,0.07-0.19,0.15c-0.01,0.03-0.01,0.04-0.03,0.07c0,0.01,0,0.03,0,0.04s0,0.01,0,0.03c0,0.01,0,0.01,0,0.03
				c0,0.03,0.01,0.04,0.01,0.07c0,0.01,0.01,0.03,0.01,0.04c1.17,2.16,4.37,4.87,6.9,4.92C11.58,58.27,11.83,58.25,12.1,58.22z"/>
			<path class="st1" d="M8.94,51.2c0.01,0.04,0.04,0.07,0.07,0.1c0.04,0.06,0.09,0.1,0.15,0.13c0.03,0.01,0.04,0.03,0.07,0.04
				c0.07,0.04,0.15,0.06,0.24,0.07c0.04,0,0.07,0.01,0.12,0.01c0.09,0,0.18-0.01,0.25-0.04c0.12-0.04,0.22-0.12,0.3-0.21
				c0.04-0.04,0.07-0.09,0.1-0.13c0-0.01,0.01-0.03,0.01-0.04c0.16-0.4,0.3-0.81,0.37-1.23c0.31-1.66,0.1-3.32-0.24-4.96
				c-0.07-0.39-0.18-0.77-0.3-1.19l0,0c0-0.03-0.01-0.06-0.03-0.07c-0.01-0.03-0.03-0.04-0.06-0.07c-0.01-0.01-0.03-0.03-0.04-0.03
				c-0.04-0.03-0.07-0.04-0.12-0.04c-0.01,0-0.04,0-0.06,0s-0.03,0-0.04,0.01c-0.06,0.01-0.12,0.06-0.16,0.1
				c-0.01,0.03-0.03,0.04-0.04,0.06c-1.24,1.73-1.73,3.67-1.29,5.75C8.36,50.06,8.63,50.64,8.94,51.2z"/>
			<path class="st1" d="M14.2,57.51c0.01,0.01,0.03,0.01,0.04,0.03c0.07,0.04,0.15,0.07,0.24,0.07c0.03,0,0.07,0.01,0.12,0.01
				c0.03,0,0.06,0,0.07,0c0.06-0.01,0.12-0.01,0.18-0.04c0.12-0.04,0.22-0.12,0.3-0.21c0.04-0.04,0.07-0.09,0.1-0.13
				c0.01-0.04,0.04-0.09,0.04-0.13c0.43-2.03-0.67-5.44-1.94-7.44c-0.01-0.01-0.03-0.03-0.04-0.04c-0.01-0.01-0.03-0.03-0.04-0.03
				c-0.04-0.03-0.07-0.03-0.12-0.04h-0.01c-0.01,0-0.03,0-0.04,0s-0.03,0-0.04,0.01c-0.07,0.01-0.13,0.07-0.18,0.13
				C11.62,51.93,12.07,55.63,14.2,57.51z"/>
			<path class="st1" d="M20.47,62.04c0.12,0.06,0.24,0.09,0.37,0.09c0.01,0,0.04,0,0.06,0c0.07,0,0.15-0.03,0.22-0.04
				c0.13-0.04,0.25-0.12,0.34-0.22c0.04-0.04,0.07-0.1,0.12-0.16c0.06-0.12,0.1-0.27,0.1-0.4c-0.25-2.71-1.84-4.77-3.54-6.86
				c-0.03-0.03-0.06-0.06-0.1-0.09c-0.04-0.01-0.07-0.03-0.12-0.04c-0.01,0-0.01,0-0.03,0c-0.01,0-0.01,0-0.03,0
				c-0.01,0-0.04,0-0.06,0.01c-0.09,0.01-0.16,0.07-0.21,0.15c-0.01,0.03-0.03,0.06-0.04,0.09C16.78,57.01,18.38,60.8,20.47,62.04z"
				/>
			<path class="st1" d="M27.27,65.73c-0.06-0.04-0.13-0.07-0.19-0.1c-2.55-0.87-6.78-0.62-8.99,0.22c-0.06,0.03-0.12,0.06-0.16,0.12
				c-0.01,0.03-0.04,0.07-0.04,0.1c0,0.01,0,0.03-0.01,0.04c0,0.03,0,0.04,0,0.07c0,0.03,0.01,0.07,0.01,0.09
				c0.01,0.01,0.01,0.04,0.03,0.06c0.01,0.03,0.03,0.04,0.04,0.06c0.01,0.01,0.04,0.03,0.06,0.04c1.61,0.87,3.33,1.38,5.16,1.51
				c1.19,0.09,2.34,0,3.42-0.52c0.25-0.12,0.49-0.25,0.71-0.41c0.03-0.03,0.06-0.04,0.09-0.07c0.04-0.04,0.07-0.1,0.1-0.15
				c0.06-0.12,0.1-0.25,0.1-0.4c0-0.22-0.09-0.43-0.24-0.58C27.36,65.81,27.31,65.76,27.27,65.73z"/>
			<path class="st1" d="M43.71,65.33c2.53-0.22,5.32-4.31,4.92-7.16v-0.01c-0.01-0.04-0.03-0.07-0.04-0.12
				c-0.04-0.07-0.12-0.12-0.21-0.15c-0.01,0-0.04,0-0.06-0.01c-0.01,0-0.03,0-0.03,0c-0.01,0-0.03,0-0.04,0
				c-0.04,0-0.09,0.01-0.12,0.04c-0.03,0.01-0.04,0.03-0.06,0.04c-2.13,1.91-4.15,3.82-4.68,6.76c-1.61,0.41-4.52,1.21-7.39,2.25
				c-2.87-1.04-5.78-1.84-7.39-2.25c-0.53-2.93-2.55-4.84-4.68-6.76c-0.01-0.01-0.04-0.03-0.06-0.04c-0.04-0.01-0.07-0.03-0.12-0.04
				c-0.01,0-0.03,0-0.03,0c-0.01,0-0.01,0-0.03,0c-0.01,0-0.04,0-0.06,0.01c-0.09,0.01-0.16,0.07-0.21,0.15
				c-0.01,0.03-0.04,0.07-0.04,0.12v0.01c-0.4,2.84,2.39,6.93,4.92,7.16c1.75,0.37,4.09,1.17,6.41,2.15
				c-2.52,0.98-4.83,2.13-6.06,3.35l0.92,1.07c1.13-1.11,3.67-2.56,6.46-3.84c2.79,1.27,5.33,2.73,6.46,3.84l0.9-1.07
				c-1.23-1.21-3.54-2.37-6.06-3.35C39.61,66.49,41.95,65.69,43.71,65.33z"/>
			<path class="st1" d="M48.21,4.56c1.13,1.44,3.9,3.27,5.67,3.57c0.06,0,0.13,0,0.19-0.01c0.33-0.07,0.53-0.41,0.46-0.74
				c-0.01-0.04-0.03-0.07-0.04-0.12c-0.81-1.56-3.72-3.08-6.15-3.08c-0.13,0.03-0.21,0.16-0.18,0.28C48.17,4.5,48.2,4.53,48.21,4.56
				z"/>
			<path class="st1" d="M64.87,18.7c0,0,0.01,0,0.01,0.01c0.06,0.03,0.13,0.03,0.21,0.03c0.28,0,0.52-0.19,0.61-0.44
				c0.07-0.28,0.1-0.58,0.1-0.86c0-2.07-0.86-3.81-2.13-5.38c-0.27-0.33-0.62-0.7-0.93-1.04c-0.03-0.03-0.07-0.06-0.13-0.07
				c-0.01,0-0.03,0-0.04,0c-0.13,0-0.24,0.1-0.24,0.24c0.16,2.61,0.7,5.2,2.36,7.39C64.73,18.62,64.79,18.67,64.87,18.7z"/>
			<path class="st1" d="M68.73,34.9c0.01,0.12,0.06,0.21,0.12,0.3c0.07,0.09,0.16,0.16,0.28,0.21c0.01,0,0.01,0,0.01,0
				c0.07,0.03,0.13,0.04,0.22,0.04c0.13,0,0.25-0.04,0.36-0.12c0.5-0.4,0.89-0.9,1.16-1.48c1.08-2.36,1.08-4.77,0.49-7.24
				c-0.01-0.03-0.03-0.06-0.04-0.07c-0.04-0.03-0.09-0.06-0.13-0.07c-0.01,0-0.03,0-0.04,0c-0.07,0-0.12,0.03-0.16,0.06
				C69.67,27.85,68.45,32.55,68.73,34.9z"/>
			<path class="st1" d="M63.37,19.93c0.31,0,0.56-0.21,0.64-0.49c0.01-0.06,0.01-0.1,0.01-0.16c0-0.06-0.01-0.12-0.03-0.18
				c-0.7-1.88-3.51-3.94-6.09-3.88c-0.12,0.03-0.21,0.12-0.21,0.25c0,0,0,0,0,0.01c0,0.03,0.01,0.06,0.01,0.07
				c0.92,1.75,3.66,3.87,5.51,4.36C63.27,19.93,63.32,19.93,63.37,19.93z"/>
			<path class="st1" d="M60.01,11.73c0.06,0.03,0.13,0.06,0.21,0.06c0.01,0,0.01,0,0.01,0c0.06,0,0.13,0,0.21-0.03
				c0.25-0.09,0.41-0.33,0.41-0.58c-0.01-0.28-0.07-0.55-0.16-0.81c-0.59-1.87-1.88-3.19-3.48-4.22c-0.33-0.22-0.76-0.46-1.14-0.65
				c-0.04-0.03-0.09-0.03-0.15-0.03c-0.01,0-0.03,0-0.04,0.01c-0.12,0.03-0.18,0.16-0.15,0.28C56.64,8.06,57.87,10.25,60.01,11.73z"
				/>
			<path class="st1" d="M58.69,13.44c0.28-0.03,0.5-0.25,0.55-0.5c0.01-0.06,0.01-0.1,0.01-0.16s-0.01-0.12-0.04-0.16
				c-0.81-1.7-3.64-3.41-6.07-3.14c-0.1,0.03-0.18,0.13-0.18,0.25c0,0,0,0,0,0.01c0,0.03,0.01,0.04,0.03,0.07
				c1.01,1.57,3.79,3.33,5.57,3.64C58.6,13.44,58.64,13.45,58.69,13.44z"/>
			<path class="st1" d="M61.52,21.85c0,0.01-0.01,0.04-0.01,0.06c0,0.01,0,0.01,0,0.01c0,0.03,0,0.04,0.01,0.06
				c0.74,2,2.76,4.84,4.61,5.72c0.06,0.03,0.13,0.04,0.19,0.04c0.25,0.01,0.46-0.12,0.58-0.31c0.03-0.04,0.04-0.09,0.06-0.15
				c0.01-0.06,0.03-0.1,0.03-0.16c0-0.03,0-0.04,0-0.06c-0.36-2.33-3.17-5.33-5.27-5.38C61.62,21.69,61.55,21.75,61.52,21.85z"/>
			<path class="st1" d="M67.84,26.44c0.07,0.1,0.16,0.18,0.28,0.22c0.01,0,0.01,0,0.01,0.01c0.07,0.03,0.15,0.04,0.22,0.04
				c0.24,0.01,0.43-0.1,0.56-0.27c0.22-0.36,0.37-0.76,0.46-1.19c0.44-2.06,0-4-0.89-5.85c-0.19-0.39-0.41-0.76-0.65-1.19
				c0-0.01-0.01-0.03-0.01-0.03c-0.04-0.04-0.09-0.07-0.15-0.09c-0.01,0-0.03,0-0.04,0c-0.12,0-0.22,0.07-0.25,0.18
				c-0.74,2.21-0.5,6.12,0.43,8.09C67.83,26.4,67.84,26.43,67.84,26.44z"/>
			<path class="st1" d="M66.9,35.63c0.07,0.03,0.13,0.04,0.22,0.04c0.16,0,0.3-0.06,0.41-0.15c0.1-0.07,0.16-0.18,0.21-0.31
				c0.44-2.41-1.6-6.06-3.93-6.76l0,0c-0.07,0-0.13,0.03-0.18,0.07c-0.04,0.04-0.07,0.1-0.07,0.18c0.16,1.9,1.48,5.45,3.14,6.81
				c0.04,0.04,0.1,0.07,0.16,0.1C66.88,35.63,66.9,35.63,66.9,35.63z"/>
			<path class="st1" d="M71.71,35.56c-0.01,0-0.04,0-0.06,0c-0.06,0-0.12,0.03-0.16,0.07c-1.59,1.51-3.73,5.23-3.97,7.75
				c0,0.07,0,0.13,0.03,0.19c0.01,0.06,0.04,0.12,0.06,0.16c0.03,0.06,0.06,0.1,0.1,0.13c0.07,0.09,0.18,0.16,0.3,0.21
				c0.07,0.03,0.16,0.04,0.25,0.04c0.12,0,0.21-0.03,0.31-0.07c0.27-0.13,0.52-0.31,0.73-0.53c0.55-0.56,1.08-1.19,1.44-1.87
				c0.93-1.82,1.33-3.76,1.26-5.87c-0.01-0.03-0.01-0.04-0.03-0.06c-0.04-0.07-0.1-0.13-0.19-0.15
				C71.74,35.57,71.72,35.57,71.71,35.56z"/>
			<path class="st1" d="M61.55,60.27c-0.04-0.07-0.12-0.12-0.21-0.15c-2.34-0.22-6.55,0.67-8.77,2.21c-0.04,0.03-0.07,0.06-0.1,0.09
				c-0.13,0.15-0.22,0.34-0.24,0.56c0,0.15,0.04,0.28,0.1,0.4c0.03,0.06,0.06,0.1,0.1,0.15c0.07,0.09,0.16,0.15,0.27,0.19
				c0.25,0.09,0.52,0.16,0.8,0.21c1.19,0.21,2.33-0.01,3.44-0.43c1.73-0.62,3.24-1.56,4.56-2.84c0.01-0.01,0.03-0.03,0.04-0.04
				c0.01-0.01,0.01-0.03,0.03-0.06c0.01-0.03,0.01-0.06,0.01-0.1s0-0.07-0.01-0.12C61.59,60.34,61.58,60.3,61.55,60.27z"/>
			<path class="st1" d="M70.78,44.99c-0.01-0.03-0.01-0.04-0.03-0.07c-0.04-0.07-0.1-0.13-0.19-0.15c-0.01,0-0.03-0.01-0.04-0.01
				c-0.01,0-0.04,0-0.06,0c-0.03,0-0.06,0.01-0.09,0.03c-2.56,1.57-4.81,3.36-6.21,6.15c-0.01,0.06-0.04,0.1-0.04,0.16
				c0,0.03,0,0.04,0,0.07c0,0.06,0,0.13,0.03,0.19c0.01,0.06,0.04,0.12,0.07,0.16c0.03,0.04,0.06,0.1,0.1,0.13
				c0.07,0.09,0.18,0.16,0.3,0.21c0.07,0.03,0.13,0.03,0.21,0.04c0.68-0.07,1.3-0.3,1.85-0.68c2.18-1.53,3.44-3.66,4.13-6.16v-0.01
				c0-0.01,0-0.01,0-0.03C70.78,45.02,70.78,45.01,70.78,44.99z"/>
			<path class="st1" d="M65.15,43.7c0.09,0.09,0.18,0.16,0.3,0.21c0.07,0.03,0.16,0.04,0.25,0.04c0.13,0,0.25-0.03,0.36-0.09
				c0.03-0.01,0.04-0.03,0.07-0.04c0.06-0.04,0.1-0.09,0.15-0.13c0.03-0.04,0.06-0.09,0.09-0.13c0.86-1.96,0.25-5.69-2.13-7.7
				c-0.03-0.01-0.04-0.03-0.07-0.04c-0.01,0-0.03-0.01-0.04-0.01s-0.04,0-0.06,0c-0.06,0.01-0.12,0.03-0.16,0.07
				c-0.01,0.01-0.04,0.04-0.06,0.06c-0.01,0.04-0.03,0.07-0.04,0.13C63.46,38.27,63.86,41.98,65.15,43.7
				C65.13,43.69,65.15,43.7,65.15,43.7z"/>
			<path class="st1" d="M67.58,53.14c-0.01-0.03-0.01-0.04-0.03-0.07c-0.04-0.07-0.1-0.13-0.19-0.15c-0.01,0-0.03,0-0.04,0
				c0,0-0.01,0-0.03,0c-2.18,0.12-6.13,2.22-7.87,4.13c-0.03,0.04-0.06,0.07-0.07,0.12c-0.03,0.07-0.06,0.16-0.07,0.24
				c0,0.03,0,0.04,0,0.07c0,0.07,0.01,0.13,0.03,0.19c0.01,0.06,0.04,0.1,0.06,0.16c0.03,0.06,0.06,0.1,0.1,0.13
				c0.07,0.09,0.18,0.16,0.3,0.21c0.04,0.01,0.07,0.01,0.12,0.03c0.27,0.03,0.52,0.04,0.77,0.04c2.52-0.04,5.73-2.76,6.9-4.92
				c0-0.01,0.01-0.03,0.01-0.04c0-0.01,0.01-0.04,0.01-0.07c0-0.01,0-0.01,0-0.03c0-0.01,0-0.01,0-0.03
				C67.58,53.15,67.58,53.15,67.58,53.14z"/>
			<path class="st1" d="M61.71,51.14c0,0.01,0.01,0.03,0.01,0.04c0.03,0.04,0.06,0.09,0.1,0.13c0.07,0.09,0.18,0.16,0.3,0.21
				c0.07,0.03,0.16,0.04,0.25,0.04c0.04,0,0.07,0,0.12-0.01c0.09-0.01,0.16-0.04,0.24-0.07c0.03-0.01,0.06-0.03,0.07-0.04
				c0.06-0.03,0.1-0.09,0.15-0.13c0.03-0.03,0.06-0.07,0.07-0.1c0.3-0.56,0.58-1.14,0.71-1.73c0.44-2.09-0.06-4.01-1.29-5.75
				c-0.01-0.01-0.03-0.04-0.04-0.06c-0.04-0.04-0.09-0.09-0.16-0.1c-0.01,0-0.03-0.01-0.04-0.01c-0.01,0-0.04,0-0.06,0
				c-0.04,0-0.09,0.01-0.12,0.04c-0.01,0.01-0.03,0.01-0.04,0.03c-0.01,0.01-0.04,0.04-0.06,0.07c-0.01,0.03-0.03,0.06-0.03,0.07
				c-0.12,0.43-0.21,0.81-0.3,1.19c-0.34,1.64-0.55,3.3-0.24,4.96C61.41,50.33,61.55,50.74,61.71,51.14z"/>
			<path class="st1" d="M58.93,49.56c-0.01,0-0.03-0.01-0.06-0.01c-0.01,0-0.03,0-0.04,0h-0.01c-0.04,0.01-0.09,0.01-0.12,0.04
				c-0.01,0.01-0.03,0.03-0.04,0.03c-0.01,0.01-0.03,0.03-0.04,0.04c-1.27,2-2.37,5.41-1.94,7.44c0.01,0.04,0.03,0.09,0.04,0.13
				c0.03,0.04,0.06,0.1,0.1,0.13c0.07,0.09,0.18,0.16,0.3,0.21c0.06,0.01,0.1,0.03,0.16,0.04c0.03,0,0.04,0,0.07,0
				c0.04,0,0.07,0,0.12-0.01c0.09-0.01,0.16-0.04,0.24-0.07c0.01-0.01,0.03-0.01,0.04-0.03c2.13-1.87,2.58-5.58,1.33-7.82
				C59.06,49.61,59,49.57,58.93,49.56z"/>
			<path class="st1" d="M54.2,54.34c-0.01,0-0.04-0.01-0.06-0.01c-0.01,0-0.03,0-0.03,0c-0.01,0-0.01,0-0.03,0
				c-0.04,0-0.09,0.01-0.12,0.04c-0.04,0.03-0.07,0.06-0.1,0.09c-1.69,2.07-3.29,4.15-3.54,6.86c0,0.15,0.04,0.28,0.1,0.4
				c0.03,0.06,0.07,0.1,0.12,0.16c0.09,0.1,0.21,0.18,0.33,0.22c0.07,0.03,0.15,0.04,0.22,0.04c0.01,0,0.04,0,0.06,0
				c0.13,0,0.25-0.03,0.37-0.09c2.09-1.24,3.67-5.04,2.95-7.48c-0.01-0.03-0.01-0.06-0.04-0.09C54.35,54.41,54.29,54.35,54.2,54.34z
				"/>
			<path class="st1" d="M54.08,66.09c-0.01-0.04-0.03-0.07-0.04-0.1c-0.04-0.06-0.09-0.09-0.15-0.12c-2.21-0.84-6.44-1.1-8.99-0.22
				c-0.07,0.03-0.13,0.06-0.19,0.1c-0.04,0.03-0.07,0.06-0.12,0.1c-0.15,0.15-0.24,0.36-0.24,0.58c0,0.15,0.04,0.28,0.1,0.4
				c0.03,0.06,0.07,0.1,0.12,0.15c0.03,0.03,0.06,0.06,0.09,0.07c0.22,0.15,0.46,0.3,0.7,0.41c1.08,0.52,2.25,0.61,3.44,0.52
				c1.82-0.13,3.54-0.62,5.16-1.51c0.01-0.01,0.04-0.03,0.06-0.04c0.01-0.01,0.04-0.04,0.04-0.06c0.01-0.01,0.01-0.04,0.03-0.06
				c0.01-0.03,0.01-0.06,0.01-0.09c0-0.03,0-0.04,0-0.07C54.1,66.12,54.1,66.1,54.08,66.09z"/>
		</g>
	</g>
	<g>
		<g>
			<path class="st0" d="M39.7,28.12h-0.79v1.67c0,0.61-0.27,1.01-0.79,1.24c-0.44,0.19-0.9,0.21-0.9,0.21v0.39v0.4l0,0v0.56
				c0.44,0,0.84-0.06,1.17-0.19v7.3h0.79v-7.82c0,0,0-0.01,0.01-0.01c0.55-0.61,0.52-1.36,0.5-1.53V28.12z"/>
			<rect x="40.5" y="28.77" class="st0" width="4.65" height="1.35"/>
			<rect x="40.5" y="37.99" class="st0" width="4.65" height="1.35"/>
		</g>
		<g>
			<rect x="27.71" y="34.44" class="st0" width="0.81" height="1.33"/>
			<rect x="27.71" y="31.88" class="st0" width="0.81" height="1.33"/>
			<rect x="33.09" y="34.44" class="st0" width="0.8" height="1.33"/>
			<rect x="31.68" y="31.88" class="st0" width="0.8" height="1.33"/>
			<rect x="29.13" y="34.44" class="st0" width="0.8" height="1.33"/>
			<path class="st0" d="M49.56,15.07c-0.3,0-0.61,0.01-0.89,0.06c-0.65,0.09-1.32,0.13-2.01,0.13c-2.58,0-5.01-0.65-7.14-1.78
				c-0.33-0.18-0.64-0.36-0.95-0.55c-0.15-0.09-0.3-0.19-0.44-0.3c-0.13-0.09-0.4-0.28-0.4-0.28c-0.5-0.36-1.11-0.56-1.76-0.56
				S34.69,12,34.2,12.36c0,0-0.27,0.19-0.39,0.28c-0.15,0.09-0.3,0.19-0.44,0.3c-0.31,0.19-0.62,0.39-0.95,0.55
				c-2.13,1.14-4.56,1.78-7.14,1.78c-0.68,0-1.36-0.04-2.01-0.13c-0.3-0.04-0.58-0.06-0.89-0.06c-3.44,0-6.24,2.79-6.24,6.24v12.81
				c-0.01,0.24-0.01,0.49-0.01,0.74c0,11.53,8.18,21.13,19.05,23.33c0.25,0.03,0.52,0.06,0.79,0.06c0.25,0,0.5-0.01,0.76-0.04
				c10.84-2.18,19.01-11.72,19.1-23.18v-0.07V21.33C55.8,17.85,53,15.07,49.56,15.07z M34.48,28.12v1.84h-1.39v0.7h1.39v9.1h-0.59
				v-2.74h-0.8v2.77h-0.61v-2.77h-0.8v2.74h-0.59v-9.1h1.39v-0.7h-1.39v-1.23h1.39v-0.59h0.61v0.59h0.8v-0.59h0.59V28.12z
				 M31.76,20.74L31.76,20.74l0.56-1.13l0.55,1.11v0.01l1.24,0.18l-0.89,0.86v0.01l0.21,1.23l-1.11-0.58l-1.11,0.58l0.21-1.21v-0.01
				l-0.89-0.87L31.76,20.74z M26.02,24.33L26.02,24.33l0.56-1.13l0.55,1.11v0.01l1.24,0.18l-0.89,0.86l-0.01,0.01l0.21,1.23
				l-1.11-0.59l-1.11,0.59l0.21-1.23v-0.01l-0.9-0.87L26.02,24.33z M22.62,30.25L22.62,30.25l0.56-1.13l0.55,1.11v0.01l1.24,0.18
				l-0.89,0.86l-0.01,0.01l0.21,1.23l-1.1-0.58h-0.01l-1.11,0.58l0.21-1.21V31.3l-0.9-0.87L22.62,30.25z M23.36,38.83L23.36,38.83
				l-1.13,0.58l0.21-1.21v-0.01l-0.89-0.87l1.23-0.18h0.01L23.36,36l0.55,1.11v0.01l1.24,0.18l-0.89,0.86l-0.01,0.01l0.21,1.23
				L23.36,38.83z M28.02,45.17l-1.1-0.58h-0.01l-1.11,0.58l0.21-1.21v-0.01l-0.9-0.87l1.23-0.18h0.01l0.56-1.13l0.55,1.11v0.01
				l1.24,0.18l-0.89,0.87H27.8L28.02,45.17z M30.53,29.94h-1.41v0.7h1.41v6.36h-1.41v0.71h1.41v1.23h-1.41v0.83h-0.59v-0.83H27.1
				V37.7h1.42v-0.71H27.1v-6.36h1.42v-0.7H27.1v-1.23h1.42v-0.59h0.59v0.59h1.41V29.94z M33.84,48.58l-1.11-0.59l-1.11,0.59
				l0.21-1.23v-0.01l-0.9-0.87l1.23-0.18h0.01l0.55-1.13l0.55,1.11v0.01l1.24,0.18l-0.89,0.86l-0.01,0.01L33.84,48.58z M54.41,34.86
				c0,10.73-7.61,19.64-17.73,21.69c-0.24,0.03-0.47,0.04-0.71,0.04V13.42c0.61,0,1.2,0.27,1.66,0.59l0,0
				c0.12,0.09,0.24,0.18,0.37,0.25c0.13,0.09,0.28,0.18,0.41,0.27c0.28,0.18,0.58,0.36,0.87,0.52c1.99,1.05,4.5,1.6,6.9,1.6
				c0.64,0,1.3-0.09,1.93-0.16c0.27-0.04,0.79-0.06,1.05-0.06c3.13,0,5.2,2.4,5.32,5.5l0,0C54.5,21.94,54.41,34.76,54.41,34.86z"/>
			<rect x="31.68" y="34.44" class="st0" width="0.8" height="1.33"/>
			<rect x="33.09" y="31.88" class="st0" width="0.8" height="1.33"/>
			<rect x="29.13" y="31.88" class="st0" width="0.8" height="1.33"/>
		</g>
		<g>
			<polygon class="st0" points="40.9,20.93 39.7,20.77 39.68,20.74 39.16,19.67 38.61,20.77 37.41,20.93 38.29,21.79 38.08,22.98 
				39.16,22.42 40.23,22.98 40.02,21.79 			"/>
			<polygon class="st0" points="46.02,25.14 46.88,24.3 45.68,24.13 45.15,23.04 44.6,24.13 43.4,24.3 44.27,25.16 44.27,25.19 
				44.07,26.34 45.15,25.78 46.21,26.34 46.01,25.16 			"/>
			<polygon class="st0" points="49.44,30.76 50.29,29.93 49.1,29.76 49.09,29.73 48.56,28.67 48.02,29.76 46.82,29.93 47.7,30.79 
				47.49,31.97 48.56,31.41 49.64,31.97 49.43,30.79 			"/>
			<polygon class="st0" points="50.47,36.76 49.27,36.58 49.25,36.56 48.72,35.5 48.18,36.58 46.98,36.76 47.86,37.6 47.65,38.8 
				48.72,38.24 49.8,38.8 49.59,37.6 			"/>
			<polygon class="st0" points="47.24,42.74 46.04,42.58 46.02,42.55 45.49,41.48 44.96,42.58 43.76,42.74 44.63,43.58 44.42,44.78 
				45.49,44.22 46.57,44.78 46.36,43.58 			"/>
			<polygon class="st0" points="40.61,47.16 41.46,46.33 40.26,46.15 39.73,45.05 39.19,46.15 39.16,46.15 37.99,46.33 38.87,47.17 
				38.85,47.2 38.66,48.37 39.73,47.79 40.81,48.37 40.6,47.17 			"/>
		</g>
	</g>
</g>
</svg>
