<?xml version="1.0" encoding="utf-8"?>
<!-- Generator: Adobe Illustrator 25.0.1, SVG Export Plug-In . SVG Version: 6.00 Build 0)  -->
<svg version="1.1" id="圖層_1" xmlns="http://www.w3.org/2000/svg" xmlns:xlink="http://www.w3.org/1999/xlink" x="0px" y="0px"
	 viewBox="0 0 60 70" style="enable-background:new 0 0 60 70;" xml:space="preserve">
<path style="fill:#004C75;" d="M50.58,4.93c-0.46,0-0.91,0.03-1.35,0.1c-0.99,0.13-2,0.2-3.04,0.2c-3.9,0-7.58-0.97-10.8-2.69
	C34.9,2.28,34.42,2,33.95,1.71c-0.23-0.14-0.46-0.29-0.68-0.44c-0.2-0.14-0.59-0.42-0.59-0.42C31.93,0.31,31,0,30.01,0
	c-0.99,0-1.92,0.31-2.67,0.85c0,0-0.39,0.28-0.59,0.42c-0.23,0.15-0.45,0.3-0.68,0.44C25.6,2,25.12,2.28,24.64,2.54
	c-3.22,1.71-6.9,2.69-10.8,2.69c-1.04,0-2.06-0.07-3.05-0.2C10.34,4.96,9.9,4.93,9.44,4.93c-5.21,0-9.42,4.2-9.42,9.4v19.32
	C0.01,34.01,0,34.38,0,34.75c0,17.37,12.37,31.84,28.81,35.17C29.2,69.97,29.6,70,30,70c0.39,0,0.77-0.03,1.14-0.08
	C47.52,66.63,59.88,52.25,60,34.97l0-0.12V14.32C60,9.13,55.78,4.93,50.58,4.93z M55.97,34.88l0,0.1
	c-0.1,14.96-10.8,27.41-24.98,30.26c-0.32,0.04-0.65,0.07-0.99,0.07c-0.35,0-0.7-0.03-1.03-0.07C14.74,62.35,4.03,49.82,4.03,34.78
	c0-0.32,0.01-0.64,0.02-0.96V17.1c0-4.49,1.97-8.61,8.16-8.13c0.39,0.03,0.78,0.03,1.16,0.08c0.86,0.12,1.75,0.18,2.64,0.18
	c3.38,0,6.56-0.84,9.35-2.32c0.42-0.23,0.84-0.47,1.24-0.72c0.2-0.12,0.39-0.26,0.59-0.38c0.17-0.12,0.51-0.36,0.51-0.36
	c0.65-0.47,1.45-0.74,2.31-0.74c0.86,0,1.66,0.27,2.31,0.74c0,0,0.34,0.24,0.51,0.36c0.19,0.13,0.39,0.26,0.59,0.38
	c0.4,0.25,0.82,0.49,1.24,0.72c2.79,1.48,5.97,2.32,9.35,2.32c0.9,0,1.77-0.06,2.63-0.17c0.38-0.06,0.77-0.07,1.17-0.09
	c6.07-0.3,8.16,3.64,8.16,8.13V34.88z"/>
</svg>
