<?xml version="1.0" encoding="utf-8"?>
<!-- Generator: Adobe Illustrator 25.0.1, SVG Export Plug-In . SVG Version: 6.00 Build 0)  -->
<svg version="1.1" id="圖層_1" xmlns="http://www.w3.org/2000/svg" xmlns:xlink="http://www.w3.org/1999/xlink" x="0px" y="0px"
	 viewBox="0 0 122 668" style="enable-background:new 0 0 122 668;" xml:space="preserve">
<g>
	<g style="enable-background:new    ;">
		<path style="fill:#124E79;" d="M20.78,231.44v-8.89H55.6v-39.46H20.78v-8.99h76.33v8.89H63.6v39.46h33.51v8.89H20.78V231.44z"/>
		<path style="fill:#124E79;" d="M19.48,273c0-8.09,2.5-14.49,7.6-19.28s11.8-7.19,20.31-7.19c9.2,0,16.31,2.5,21.41,7.49
			c5.1,5,7.7,11.79,7.7,20.28c0,8.09-2.5,14.49-7.5,18.98c-5,4.6-11.9,6.79-20.81,6.79c-8.7,0-15.71-2.5-20.91-7.39
			C22.08,287.88,19.48,281.29,19.48,273z M69.2,273.7c0-5.59-1.9-9.99-5.7-13.29c-3.8-3.3-9.1-4.9-15.81-4.9
			c-6.5,0-11.5,1.6-15.31,4.9c-3.7,3.3-5.6,7.69-5.6,13.29c0,5.59,1.8,9.99,5.5,12.99c3.7,3,8.9,4.6,15.61,4.6
			c6.8,0,12.1-1.5,15.81-4.6C67.4,283.59,69.2,279.29,69.2,273.7z"/>
		<path style="fill:#124E79;" d="M20.78,359.21v-8.69H51.9c11.6,0,17.41-4.2,17.41-12.69c0-4.4-1.6-7.99-4.9-10.79
			c-3.3-2.9-7.4-4.3-12.41-4.3H20.78v-8.69h54.52v8.69h-9v0.2c6.9,4.1,10.3,10.09,10.3,17.88c0,5.99-1.9,10.49-5.8,13.69
			c-3.9,3.2-9.4,4.7-16.71,4.7L20.78,359.21L20.78,359.21z"/>
		<path style="fill:#124E79;" d="M19.48,398.47c0-8.09,2.5-14.49,7.6-19.28c5.1-4.8,11.8-7.19,20.31-7.19
			c9.2,0,16.31,2.5,21.41,7.49c5.1,4.99,7.7,11.79,7.7,20.28c0,8.09-2.5,14.49-7.5,18.98c-5,4.6-11.9,6.79-20.81,6.79
			c-8.7,0-15.71-2.5-20.91-7.39C22.08,413.26,19.48,406.66,19.48,398.47z M69.2,399.07c0-5.59-1.9-9.99-5.7-13.29
			c-3.8-3.3-9.1-4.9-15.81-4.9c-6.5,0-11.5,1.6-15.31,4.9c-3.7,3.3-5.6,7.69-5.6,13.29c0,5.59,1.8,9.99,5.5,12.99
			c3.7,3,8.9,4.6,15.61,4.6c6.8,0,12.1-1.5,15.81-4.6C67.4,409.06,69.2,404.66,69.2,399.07z"/>
		<path style="fill:#124E79;" d="M66.5,467.9c1.2-1.5,1.8-3.7,1.8-6.59c0-3.7-1.8-6.79-5.3-9.29c-3.5-2.5-8.3-3.8-14.41-3.8H20.78
			v-8.69h54.52v8.69H64.1v0.2c3.8,1.2,6.8,3.1,9,5.69c2.1,2.6,3.2,5.39,3.2,8.59c0,2.3-0.2,4-0.7,5.19L66.5,467.9L66.5,467.9z"/>
		<path style="fill:#124E79;" d="M20.78,563.01v-10.59l21.41-12.79c2-1.2,3.7-2.3,5.1-3.4c1.4-1.1,2.5-2.2,3.4-3.4
			c0.9-1.2,1.5-2.4,1.9-3.7s0.6-2.8,0.6-4.5v-7.29H20.78v-8.89h76.33v22.78c0,3.3-0.4,6.39-1.3,9.19c-0.8,2.8-2.1,5.29-3.8,7.29
			c-1.7,2.1-3.8,3.7-6.4,4.9c-2.5,1.2-5.5,1.8-8.9,1.8c-2.7,0-5.1-0.4-7.3-1.2c-2.2-0.8-4.2-1.9-5.9-3.4c-1.7-1.5-3.2-3.2-4.4-5.29
			c-1.2-2.1-2.2-4.4-2.8-6.99h-0.2c-0.6,1.3-1.2,2.4-1.9,3.3c-0.7,0.9-1.6,1.8-2.6,2.7c-1,0.9-2.1,1.7-3.4,2.5
			c-1.3,0.8-2.7,1.8-4.4,2.8L20.78,563.01z M89.01,517.25H61.4v12.09c0,2.2,0.3,4.3,1,6.19c0.7,1.9,1.6,3.5,2.9,4.9s2.8,2.5,4.6,3.2
			c1.8,0.7,3.9,1.2,6.1,1.2c4.1,0,7.3-1.3,9.6-4c2.3-2.6,3.4-6.49,3.4-11.49V517.25z"/>
		<path style="fill:#124E79;" d="M19.48,591.88c0-8.09,2.5-14.49,7.6-19.28c5.1-4.8,11.8-7.19,20.31-7.19
			c9.2,0,16.31,2.5,21.41,7.49c5.1,4.99,7.7,11.79,7.7,20.28c0,8.09-2.5,14.49-7.5,18.98c-5,4.6-11.9,6.79-20.81,6.79
			c-8.7,0-15.71-2.5-20.91-7.39S19.48,600.17,19.48,591.88z M69.2,592.48c0-5.59-1.9-9.99-5.7-13.29c-3.8-3.3-9.1-4.9-15.81-4.9
			c-6.5,0-11.5,1.6-15.31,4.9c-3.7,3.3-5.6,7.69-5.6,13.29s1.8,9.99,5.5,12.99c3.7,3,8.9,4.6,15.61,4.6c6.8,0,12.1-1.5,15.81-4.6
			C67.4,602.47,69.2,598.17,69.2,592.48z"/>
		<path style="fill:#124E79;" d="M20.78,641.63v-8.69h80.73v8.69H20.78z"/>
		<path style="fill:#124E79;" d="M20.78,668v-8.69h80.73V668H20.78z"/>
	</g>
	<g id="向量圖智慧型物件" transform="translate(140 2705)">
		<g id="Group_84">
			<path id="Path_347" style="fill:#B69460;" d="M-18.98-2649.29l-1.8-3.4c-0.8-1.6-1.2-3.4-0.9-5.19l0.5-3.7
				c0.4-2.8-0.6-5.69-2.7-7.59l-2.8-2.6c-1.3-1.2-2.2-2.8-2.6-4.6l-0.8-3.7c-0.6-2.8-2.6-5.19-5.2-6.29l-3.6-1.6
				c-1.7-0.7-3.1-1.9-4.1-3.4l-2-3.2c-1.6-2.5-4.3-4-7.2-4.2l-3.9-0.3c-1.8-0.1-3.5-0.8-5-1.8l-3.1-2.3c-2.4-1.8-5.5-2.3-8.4-1.5
				l-3.7,1.1c-1.7,0.5-3.6,0.5-5.4,0l-3.7-1.1c-2.9-0.8-6-0.3-8.4,1.5l-3.1,2.3c-1.5,1.1-3.2,1.7-5,1.8l-3.9,0.3
				c-2.9,0.2-5.6,1.7-7.2,4.2l-2,3.2c-1,1.5-2.4,2.7-4.1,3.4l-3.6,1.6c-2.7,1.1-4.6,3.5-5.2,6.29l-0.8,3.7c-0.4,1.8-1.3,3.4-2.6,4.6
				l-2.8,2.6c-2.1,1.9-3.1,4.8-2.7,7.59l0.5,3.7c0.3,1.8-0.1,3.6-0.9,5.19l-1.8,3.4c-1.3,2.5-1.3,5.49,0,7.99l1.8,3.4
				c0.8,1.6,1.2,3.4,0.9,5.19l-0.5,3.7c-0.4,2.8,0.6,5.69,2.7,7.59l2.8,2.6c1.3,1.2,2.2,2.8,2.6,4.6l0.8,3.7
				c0.6,2.8,2.6,5.19,5.2,6.29l3.6,1.5c1.7,0.7,3.1,1.9,4.1,3.4l2,3.2c1.6,2.5,4.3,4,7.2,4.2l3.9,0.3c1.8,0.1,3.5,0.8,5,1.8l3.1,2.3
				c2.4,1.8,5.5,2.3,8.4,1.5l3.7-1.1c1.7-0.5,3.6-0.5,5.4,0l3.7,1.1c2.9,0.8,6,0.3,8.4-1.5l3.1-2.3c1.5-1.1,3.2-1.7,5-1.8l3.9-0.3
				c2.9-0.2,5.6-1.7,7.2-4.2l2-3.2c1-1.5,2.4-2.7,4.1-3.4l3.6-1.6c2.7-1.1,4.6-3.5,5.2-6.29l0.8-3.7c0.4-1.8,1.3-3.4,2.6-4.6
				l2.8-2.6c2.1-1.9,3.1-4.8,2.7-7.59l-0.5-3.7c-0.3-1.8,0.1-3.6,0.9-5.19l1.8-3.4C-17.67-2643.79-17.67-2646.79-18.98-2649.29z
				 M-79-2591.24c-30.31,0-54.92-24.18-54.92-54.15s24.61-54.15,54.92-54.15s54.92,24.18,54.92,54.15S-48.69-2591.24-79-2591.24z"/>
			<g id="Group_83" transform="translate(8.168 7.338)">
				<g id="Group_75" transform="translate(12.986 12.82)">
					<path id="Path_348" style="fill:#B69460;" d="M-100.1-2626.13c-22.01,0-39.82-17.58-39.82-39.26s17.91-39.26,39.82-39.26
						s39.82,17.58,39.82,39.26C-60.28-2643.81-78.19-2626.13-100.1-2626.13z M-100.1-2703.45c-21.21,0-38.52,17.08-38.52,37.96
						c0,20.88,17.31,38.06,38.52,38.06s38.52-17.08,38.52-38.06C-61.58-2686.47-78.89-2703.45-100.1-2703.45L-100.1-2703.45z"/>
				</g>
				<g id="Group_81" transform="translate(17.84 18.218)">
					<g id="Group_79" transform="translate(15.687 11.223)">
						<g id="Group_76" transform="translate(20.532 15.674)">
							<path id="Path_349" style="fill:#003B63;" d="M-137.6-2704.78h-0.8v1.6c0,0.5-0.3,1-0.8,1.2c-0.3,0.1-0.6,0.2-0.9,0.2v0.4
								v0.4l0,0v0.5c0.4,0,0.8-0.1,1.1-0.2v6.99h0.8v-7.49l0,0c0.4-0.4,0.5-0.9,0.5-1.5L-137.6-2704.78z"/>
							<rect id="Rectangle_21" x="-136.8" y="-2704.18" style="fill:#003B63;" width="4.5" height="1.3"/>
							<rect id="Rectangle_22" x="-136.8" y="-2695.29" style="fill:#003B63;" width="4.5" height="1.3"/>
						</g>
						<g id="Group_77">
							<rect id="Rectangle_23" x="-128.7" y="-2683.09" style="fill:#003B63;" width="0.8" height="1.3"/>
							<rect id="Rectangle_24" x="-128.7" y="-2685.49" style="fill:#003B63;" width="0.8" height="1.3"/>
							<rect id="Rectangle_25" x="-123.5" y="-2683.09" style="fill:#003B63;" width="0.8" height="1.3"/>
							<rect id="Rectangle_26" x="-124.8" y="-2685.49" style="fill:#003B63;" width="0.8" height="1.3"/>
							<rect id="Rectangle_27" x="-127.3" y="-2683.09" style="fill:#003B63;" width="0.8" height="1.3"/>
							<path id="Path_350" style="fill:#003B63;" d="M-107.39-2701.67c-0.3,0-0.6,0-0.9,0.1c-3.1,0.4-6.2-0.2-8.9-1.6
								c-0.3-0.2-0.6-0.3-0.9-0.5c-0.1-0.1-0.3-0.2-0.4-0.3c-0.1-0.1-0.3-0.2-0.4-0.3l0,0c-1-0.7-2.4-0.7-3.4,0l0,0l-0.4,0.3
								c-0.1,0.1-0.3,0.2-0.4,0.3c-0.3,0.2-0.6,0.4-0.9,0.5c-2.7,1.4-5.8,2-8.9,1.6c-0.3,0-0.6-0.1-0.9-0.1c-3.3,0-6,2.7-6.1,5.99
								v12.29c0,0.2,0,0.5,0,0.7c0.1,10.89,7.8,20.28,18.51,22.38c0.3,0,0.5,0.1,0.8,0.1c0.2,0,0.5,0,0.7,0
								c10.7-2.1,18.41-11.39,18.61-22.28v-13.09C-101.39-2698.97-104.09-2701.67-107.39-2701.67L-107.39-2701.67z M-122.1-2689.08
								v1.8h-1.4v0.7h1.4v8.69h-0.6v-2.6h-0.8v2.7h-0.6v-2.7h-0.8v2.6h-0.6v-8.69h1.4v-0.7h-1.4v-1.2h1.4v-0.6h0.6v0.6h0.8v-0.6
								H-122.1z M-124.8-2696.18L-124.8-2696.18l0.6-1.1l0.5,1.1l0,0l1.2,0.2l-0.9,0.8l0,0l0.2,1.2l-1.1-0.6l-1.1,0.6l0.2-1.2l0,0
								l-0.9-0.8L-124.8-2696.18z M-130.3-2692.78L-130.3-2692.78l0.6-1.1l0.5,1.1l0,0l1.2,0.2l-0.9,0.8l0,0l0.2,1.2l-1.1-0.6
								l-1.1,0.6l0.2-1.2l0,0l-0.9-0.8L-130.3-2692.78z M-133.71-2687.09L-133.71-2687.09l0.6-1.1l0.5,1.1l0,0l1.2,0.2l-0.9,0.8l0,0
								l0.2,1.2l-1.1-0.6l0,0l-1.1,0.6l0.2-1.2l0,0l-0.9-0.8L-133.71-2687.09z M-132.9-2678.79L-132.9-2678.79l-1.1,0.6l0.2-1.2l0,0
								l-0.9-0.8l1.2-0.2l0,0l0.5-1.1l0.5,1.1l0,0l1.2,0.2l-0.9,0.8l0,0l0.2,1.2L-132.9-2678.79z M-128.4-2672.8l-1.1-0.6l0,0
								l-1.1,0.6l0.2-1.2l0,0l-0.9-0.8l1.2-0.2l0,0l0.5-1.1l0.5,1.1l0,0l1.2,0.2l-0.9,0.8l0,0L-128.4-2672.8z M-126-2687.39h-1.4
								v0.7h1.4v6.09h-1.4v0.7h1.4v1.2h-1.4v0.8h-0.6v-0.8h-1.4v-1.2h1.4v-0.7h-1.4v-6.09h1.4v-0.7h-1.4v-1.2h1.4v-0.6h0.6v0.6h1.4
								V-2687.39z M-122.7-2669.5l-1.1-0.6l-1.1,0.6l0.2-1.2l0,0l-0.9-0.8l1.2-0.2l0,0l0.5-1.1l0.5,1.1l0,0l1.2,0.2l-0.9,0.8l0,0
								L-122.7-2669.5z M-102.69-2682.69c-0.1,10.19-7.3,18.88-17.21,20.78c-0.2,0-0.5,0-0.7,0v-41.46c0.6,0,1.1,0.2,1.6,0.6l0,0
								c0.1,0.1,0.2,0.2,0.4,0.2c0.2,0,0.3,0.2,0.4,0.3c0.3,0.2,0.6,0.3,0.9,0.5c2.7,1.3,5.7,1.8,8.6,1.4c0.3,0,0.7-0.1,1,0
								c2.8,0,5.2,2.3,5.2,5.09c0,0.1,0,0.1,0,0.2l0,0C-102.69-2695.08-102.69-2682.79-102.69-2682.69L-102.69-2682.69z"/>
							<rect id="Rectangle_28" x="-124.8" y="-2683.09" style="fill:#003B63;" width="0.8" height="1.3"/>
							<rect id="Rectangle_29" x="-123.5" y="-2685.49" style="fill:#003B63;" width="0.8" height="1.3"/>
							<rect id="Rectangle_30" x="-127.3" y="-2685.49" style="fill:#003B63;" width="0.8" height="1.3"/>
						</g>
						<g id="Group_78" transform="translate(20.724 7.562)">
							<path id="Path_351" style="fill:#003B63;" d="M-136.6-2703.58l-1.2-0.2l0,0l-0.5-1l-0.5,1l-1.2,0.2l0.8,0.8l-0.2,1.2l1-0.5
								l1,0.5l-0.2-1.2L-136.6-2703.58z"/>
							<path id="Path_352" style="fill:#003B63;" d="M-131.6-2699.58l0.8-0.8l-1.2-0.2l-0.5-1l-0.5,1l-1.2,0.2l0.8,0.8l0,0l-0.2,1.1
								l1-0.5l1,0.5L-131.6-2699.58L-131.6-2699.58z"/>
							<path id="Path_353" style="fill:#003B63;" d="M-128.29-2694.19l0.8-0.8l-1.2-0.2l0,0l-0.5-1l-0.5,1l-1.2,0.2l0.8,0.8
								l-0.2,1.1l1-0.5l1,0.5L-128.29-2694.19L-128.29-2694.19z"/>
							<path id="Path_354" style="fill:#003B63;" d="M-127.29-2688.39l-1.2-0.2l0,0l-0.5-1l-0.5,1l-1.2,0.2l0.8,0.8l-0.2,1.1l1-0.5
								l1,0.5l-0.2-1.1L-127.29-2688.39z"/>
							<path id="Path_355" style="fill:#003B63;" d="M-130.4-2682.7l-1.2-0.2l0,0l-0.5-1l-0.5,1l-1.2,0.2l0.8,0.8l-0.2,1.1l1-0.5
								l1,0.5l-0.2-1.1L-130.4-2682.7z"/>
							<path id="Path_356" style="fill:#003B63;" d="M-136.9-2678.4l0.8-0.8l-1.2-0.2l-0.5-1l-0.5,1l0,0l-1.1,0.2l0.8,0.8l0,0
								l-0.2,1.1l1-0.5l1,0.5L-136.9-2678.4L-136.9-2678.4z"/>
						</g>
					</g>
					<path id="Path_357" style="fill:#B69460;" d="M-101.4-2700.96v-1.7c-0.8-0.1-1.6-0.1-2.6-0.2h-0.1v-1.9h-1.9v1.9h-0.1
						c-1,0-1.8,0.1-2.6,0.2v1.7c0.8-0.1,1.6-0.1,2.6-0.2h0.1v5.39h1.9v-5.39h0.1C-103-2701.16-102.1-2701.06-101.4-2700.96z"/>
					<g id="Group_80" transform="translate(0 3.902)">
						<path id="Path_358" style="fill-rule:evenodd;clip-rule:evenodd;fill:#B69460;" d="M-122.61-2700.96c0.1,0,0.1,0,0.2,0
							c2.1-0.6,4.1-1.8,5.5-3.4v-0.1c0-0.1,0-0.2-0.2-0.3c-2.4,0-5.2,1.5-6,3c-0.1,0.3,0,0.6,0.2,0.8
							C-122.71-2701.06-122.61-2700.96-122.61-2700.96L-122.61-2700.96z"/>
						<path id="Path_359" style="fill-rule:evenodd;clip-rule:evenodd;fill:#B69460;" d="M-133.31-2690.77c0.1,0,0.1,0,0.2,0l0,0
							c0.1,0,0.1-0.1,0.2-0.1c1.5-2.1,2.3-4.6,2.3-7.09c0-0.1-0.1-0.2-0.2-0.2l0,0c0,0-0.1,0-0.1,0.1c-0.3,0.3-0.7,0.7-0.9,1
							c-1.3,1.4-2,3.2-2.1,5.19c0,0.3,0,0.6,0.1,0.8C-133.81-2690.97-133.61-2690.77-133.31-2690.77z"/>
						<path id="Path_360" style="fill-rule:evenodd;clip-rule:evenodd;fill:#B69460;" d="M-137.81-2674.89c0.1,0.1,0.2,0.1,0.3,0.1
							c0.1,0,0.1,0,0.2,0l0,0c0.1,0,0.2-0.1,0.3-0.2c0.1-0.1,0.1-0.2,0.1-0.3c0.3-2.3-0.9-6.79-2.2-7.99c0,0-0.1-0.1-0.2-0.1l0,0
							c-0.1,0-0.1,0-0.1,0.1c0,0,0,0-0.1,0.1c-0.7,2.3-0.5,4.8,0.5,6.99C-138.71-2675.69-138.31-2675.29-137.81-2674.89z"/>
						<path id="Path_361" style="fill-rule:evenodd;clip-rule:evenodd;fill:#B69460;" d="M-126.11-2693.87L-126.11-2693.87
							L-126.11-2693.87c0-0.2-0.1-0.3-0.2-0.3c-2.5,0.1-4.8,1.5-5.9,3.7c0,0.1,0,0.1,0,0.2c0,0.1,0,0.1,0,0.2
							c0.1,0.3,0.3,0.5,0.6,0.5h0.1C-129.31-2690.47-127.41-2691.87-126.11-2693.87z"/>
						<path id="Path_362" style="fill-rule:evenodd;clip-rule:evenodd;fill:#B69460;" d="M-128.81-2697.47c0.1,0,0.1,0,0.2,0l0,0
							c0.1,0,0.1,0,0.2-0.1c1.9-1.5,3.4-3.5,4.1-5.69c0-0.1,0-0.2-0.1-0.3l0,0h-0.1c-0.4,0.2-0.8,0.4-1.1,0.6
							c-1.6,0.9-2.8,2.3-3.4,4.1c-0.1,0.3-0.1,0.5-0.1,0.8C-129.21-2697.77-129.01-2697.57-128.81-2697.47z"/>
						<path id="Path_363" style="fill-rule:evenodd;clip-rule:evenodd;fill:#B69460;" d="M-121.51-2699.37L-121.51-2699.37
							L-121.51-2699.37c0-0.2,0-0.3-0.1-0.3c-2.4-0.1-4.6,1-5.9,3c0,0.1,0,0.1,0,0.2s0,0.1,0,0.2c0,0.3,0.3,0.5,0.5,0.5h0.1
							C-124.81-2696.37-122.91-2697.67-121.51-2699.37z"/>
						<path id="Path_364" style="fill-rule:evenodd;clip-rule:evenodd;fill:#B69460;" d="M-134.51-2682.18c0.1,0,0.1,0,0.2,0
							c1.8-0.8,3.8-3.6,4.5-5.49c0,0,0,0,0-0.1l0,0c0,0,0,0,0-0.1c0-0.1-0.1-0.2-0.2-0.2c-2,0-4.8,2.9-5.1,5.19c0,0,0,0,0,0.1
							c0,0.1,0,0.2,0.1,0.3C-134.91-2682.28-134.71-2682.18-134.51-2682.18z"/>
						<path id="Path_365" style="fill-rule:evenodd;clip-rule:evenodd;fill:#B69460;" d="M-137.01-2683.38c0.1,0.2,0.3,0.3,0.5,0.3
							c0.1,0,0.1,0,0.2,0l0,0c0.1-0.1,0.2-0.1,0.3-0.2c0,0,0,0,0-0.1c1-2.5,1.1-5.19,0.4-7.79c0-0.1-0.1-0.2-0.2-0.2l0,0
							c-0.1,0-0.1,0-0.1,0.1l0,0c-0.2,0.4-0.4,0.8-0.6,1.1c-0.9,1.7-1.2,3.7-0.9,5.59
							C-137.41-2684.08-137.21-2683.78-137.01-2683.38z"/>
						<path id="Path_366" style="fill-rule:evenodd;clip-rule:evenodd;fill:#B69460;" d="M-135.81-2674.99c0,0.1,0.1,0.2,0.2,0.3
							c0.1,0.1,0.3,0.1,0.4,0.1c0.1,0,0.1,0,0.2,0l0,0c0.1,0,0.1-0.1,0.2-0.1c1.6-1.3,2.9-4.7,3.1-6.49c0-0.1,0-0.1-0.1-0.2
							c0,0-0.1-0.1-0.2-0.1l0,0C-134.31-2680.78-136.31-2677.29-135.81-2674.99z"/>
						<path id="Path_367" style="fill-rule:evenodd;clip-rule:evenodd;fill:#B69460;" d="M-137.41-2667c0.2,0.2,0.4,0.4,0.7,0.5
							c0.1,0,0.2,0.1,0.3,0.1s0.2,0,0.2,0c0.1,0,0.2-0.1,0.3-0.2l0.1-0.1c0-0.1,0-0.1,0.1-0.2c0-0.1,0-0.1,0-0.2
							c-0.6-2.8-1.9-5.39-3.9-7.39c0,0-0.1-0.1-0.2-0.1h-0.1c0,0,0,0-0.1,0s-0.1,0.1-0.2,0.1c0,0,0,0,0,0.1
							c-0.1,1.9,0.3,3.9,1.2,5.59C-138.41-2668.2-137.91-2667.6-137.41-2667z"/>
						<path id="Path_368" style="fill-rule:evenodd;clip-rule:evenodd;fill:#B69460;" d="M-121.21-2647.62c0.1,0,0.2-0.1,0.3-0.2
							l0.1-0.1c0.2-0.3,0.1-0.7-0.1-0.9l-0.1-0.1c-2.6-1.5-5.5-2.2-8.5-2.1c-0.1,0-0.2,0.1-0.2,0.1v0.1v0.1v0.1c0,0,0,0,0,0.1l0,0
							c1.3,1.2,2.8,2.1,4.4,2.7c1.1,0.4,2.2,0.6,3.3,0.4C-121.81-2647.52-121.51-2647.52-121.21-2647.62z"/>
						<path id="Path_369" style="fill-rule:evenodd;clip-rule:evenodd;fill:#B69460;" d="M-133.01-2658.91c0.1,0,0.1,0,0.2,0
							c0.1,0,0.2-0.1,0.3-0.2l0.1-0.1c0,0,0-0.1,0.1-0.2c0-0.1,0-0.1,0-0.2c0,0,0,0,0-0.1c0-0.1,0-0.1,0-0.2
							c-1.4-2.5-3.5-4.6-6-5.89h-0.1h-0.1c0,0,0,0-0.1,0c-0.1,0-0.1,0.1-0.2,0.1c0,0,0,0,0,0.1l0,0v0.1c0.6,2.4,2,4.5,4,5.89
							C-134.31-2659.21-133.61-2659.01-133.01-2658.91z"/>
						<path id="Path_370" style="fill-rule:evenodd;clip-rule:evenodd;fill:#B69460;" d="M-134.41-2666.9l0.1,0.1c0,0,0,0,0.1,0
							c0.1,0.1,0.2,0.1,0.3,0.1c0.2,0,0.4-0.1,0.5-0.2l0,0c1.2-1.6,1.6-5.19,1.3-7.29v-0.1c0,0,0,0-0.1-0.1c0,0-0.1-0.1-0.2-0.1
							h-0.1l0,0h-0.1c-2.1,1.8-2.9,4.7-2.1,7.39C-134.51-2667-134.51-2666.9-134.41-2666.9z"/>
						<path id="Path_371" style="fill-rule:evenodd;clip-rule:evenodd;fill:#B69460;" d="M-128.21-2652.91h0.1
							c0.1,0,0.2-0.1,0.3-0.2l0.1-0.1c0-0.1,0-0.1,0.1-0.2c0-0.1,0-0.1,0-0.2c0-0.1,0-0.2-0.1-0.3c0,0,0-0.1-0.1-0.1
							c-1.7-1.8-5.5-3.9-7.6-4l0,0l0,0c-0.1,0-0.1,0.1-0.2,0.1c0,0,0,0,0,0.1l0,0l0,0l0,0c0,0,0,0,0,0.1l0,0
							c1.1,2.1,4.3,4.7,6.7,4.7C-128.71-2652.91-128.51-2652.91-128.21-2652.91z"/>
						<path id="Path_372" style="fill-rule:evenodd;clip-rule:evenodd;fill:#B69460;" d="M-131.31-2659.71c0,0,0,0.1,0.1,0.1
							l0.1,0.1c0,0,0,0,0.1,0s0.2,0.1,0.2,0.1h0.1c0.1,0,0.2,0,0.2,0c0.1,0,0.2-0.1,0.3-0.2l0.1-0.1l0,0c0.2-0.4,0.3-0.8,0.4-1.2
							c0.2-1.6,0.2-3.2-0.2-4.8c-0.1-0.4-0.2-0.7-0.3-1.1l0,0v-0.1c0,0,0,0-0.1-0.1l0,0h-0.1c0,0,0,0-0.1,0l0,0
							c-0.1,0-0.1,0.1-0.2,0.1c0,0,0,0-0.1,0.1c-1.2,1.6-1.7,3.6-1.3,5.49C-131.81-2660.7-131.61-2660.2-131.31-2659.71z"/>
						<path id="Path_373" style="fill-rule:evenodd;clip-rule:evenodd;fill:#B69460;" d="M-126.21-2653.61
							C-126.11-2653.61-126.11-2653.61-126.21-2653.61c0.1,0.1,0.2,0.1,0.3,0.1h0.1h0.1c0.1,0,0.1,0,0.2,0c0.1,0,0.2-0.1,0.3-0.2
							l0.1-0.1v-0.1c0.4-1.9-0.6-5.19-1.9-7.09l0,0l0,0h-0.1h-0.1l0,0c-0.1,0-0.1,0.1-0.2,0.1
							C-128.71-2658.61-128.21-2655.61-126.21-2653.61z"/>
						<path id="Path_374" style="fill-rule:evenodd;clip-rule:evenodd;fill:#B69460;" d="M-120.11-2649.22c0.1,0.1,0.2,0.1,0.4,0.1
							h0.1c0.1,0,0.1,0,0.2,0c0.1,0,0.2-0.1,0.3-0.2c0,0,0.1-0.1,0.1-0.2c0.1-0.1,0.1-0.3,0.1-0.4c-0.2-2.6-1.8-4.6-3.4-6.59
							c-0.1-0.1-0.1-0.1-0.2-0.1l0,0l0,0c0,0,0,0-0.1,0c-0.1,0-0.2,0.1-0.2,0.1v0.1C-123.61-2654.11-122.11-2650.41-120.11-2649.22z
							"/>
						<path id="Path_375" style="fill-rule:evenodd;clip-rule:evenodd;fill:#B69460;" d="M-113.4-2645.72c-0.1,0-0.1-0.1-0.2-0.1
							c-2.9-0.8-5.9-0.7-8.7,0.2c-0.1,0-0.1,0.1-0.1,0.1v0.1l0,0c0,0,0,0,0,0.1v0.1c0,0,0,0,0,0.1c0,0,0,0,0.1,0.1c0,0,0,0,0.1,0
							c1.5,0.8,3.3,1.3,5,1.4c1.1,0.1,2.3,0,3.3-0.5c0.2-0.1,0.5-0.2,0.7-0.4c0,0,0.1,0,0.1-0.1c0,0,0.1-0.1,0.1-0.2
							c0.1-0.1,0.1-0.3,0.1-0.4c0-0.2-0.1-0.4-0.2-0.5C-113.4-2645.62-113.4-2645.72-113.4-2645.72z"/>
						<path id="Path_376" style="fill-rule:evenodd;clip-rule:evenodd;fill:#B69460;" d="M-97.5-2646.12c2.5-0.2,5.2-4.1,4.8-6.89
							l0,0v-0.1c0-0.1-0.1-0.1-0.2-0.1c0,0,0,0-0.1,0l0,0l0,0h-0.1c0,0,0,0-0.1,0c-2.1,1.8-4,3.7-4.6,6.49c-1.6,0.4-4.4,1.2-7.2,2.2
							c-2.8-1-5.6-1.8-7.2-2.2c-0.5-2.8-2.5-4.7-4.6-6.49c0,0,0,0-0.1,0h-0.1l0,0l0,0c0,0,0,0-0.1,0s-0.2,0.1-0.2,0.1v0.1l0,0
							c-0.4,2.7,2.3,6.69,4.8,6.89c2.1,0.5,4.2,1.2,6.2,2.1c-2.1,0.7-4.1,1.8-5.9,3.2l0.9,1c1.9-1.5,4-2.8,6.3-3.7
							c2.3,0.9,4.4,2.2,6.3,3.7l0.9-1c-1.8-1.4-3.7-2.5-5.9-3.2C-101.7-2644.92-99.6-2645.62-97.5-2646.12z"/>
						<path id="Path_377" style="fill-rule:evenodd;clip-rule:evenodd;fill:#B69460;" d="M-93.1-2704.36c1.5,1.7,3.4,2.8,5.5,3.4
							c0.1,0,0.1,0,0.2,0c0.3-0.1,0.5-0.4,0.5-0.7v-0.1c-0.8-1.5-3.6-3-6-3c-0.1,0-0.2,0.1-0.2,0.3
							C-93.1-2704.46-93.1-2704.46-93.1-2704.36L-93.1-2704.36z"/>
						<path id="Path_378" style="fill-rule:evenodd;clip-rule:evenodd;fill:#B69460;" d="M-76.89-2690.87L-76.89-2690.87
							c0.1,0,0.2,0,0.2,0c0.3,0,0.5-0.2,0.6-0.4c0.1-0.3,0.1-0.5,0.1-0.8c0-1.9-0.8-3.7-2.1-5.19c-0.3-0.3-0.6-0.7-0.9-1l-0.1-0.1
							c-0.1,0-0.3,0.1-0.3,0.2l0,0c0,2.5,0.8,4.99,2.3,7.09C-76.99-2690.87-76.89-2690.87-76.89-2690.87z"/>
						<path id="Path_379" style="fill-rule:evenodd;clip-rule:evenodd;fill:#B69460;" d="M-73.09-2675.29c0,0.1,0.1,0.2,0.1,0.3
							c0.1,0.1,0.2,0.2,0.3,0.2l0,0c0.1,0,0.1,0,0.2,0c0.1,0,0.2,0,0.3-0.1c0.5-0.4,0.9-0.9,1.1-1.4c1-2.2,1.1-4.7,0.5-6.99v-0.1
							l-0.1-0.1l0,0c-0.1,0-0.1,0-0.2,0.1C-72.19-2682.08-73.39-2677.59-73.09-2675.29z"/>
						<path id="Path_380" style="fill-rule:evenodd;clip-rule:evenodd;fill:#B69460;" d="M-78.29-2689.68c0.3,0,0.5-0.2,0.6-0.5
							c0-0.1,0-0.2,0-0.3c-1.1-2.2-3.4-3.7-5.9-3.7c-0.1,0-0.2,0.1-0.2,0.2l0,0c0,0,0,0,0,0.1c1.3,2,3.2,3.4,5.3,4.2
							C-78.39-2689.68-78.39-2689.68-78.29-2689.68z"/>
						<path id="Path_381" style="fill-rule:evenodd;clip-rule:evenodd;fill:#B69460;" d="M-81.59-2697.47c0.1,0,0.1,0.1,0.2,0.1l0,0
							c0.3,0,0.6-0.2,0.6-0.6l0,0c0-0.3-0.1-0.5-0.2-0.8c-0.6-1.7-1.8-3.2-3.4-4.1c-0.3-0.2-0.7-0.4-1.1-0.6h-0.1l0,0
							c-0.1,0-0.2,0.2-0.2,0.3C-84.99-2700.96-83.49-2698.97-81.59-2697.47z"/>
						<path id="Path_382" style="fill-rule:evenodd;clip-rule:evenodd;fill:#B69460;" d="M-82.89-2695.87c0.3,0,0.5-0.2,0.5-0.5
							c0-0.1,0-0.1,0-0.2c0-0.1,0-0.1,0-0.2c-1.3-2-3.5-3.2-5.9-3c-0.1,0-0.2,0.1-0.2,0.2l0,0c0,0,0,0,0,0.1c1.4,1.7,3.3,3,5.4,3.5
							C-82.99-2695.87-82.89-2695.87-82.89-2695.87z"/>
						<path id="Path_383" style="fill-rule:evenodd;clip-rule:evenodd;fill:#B69460;" d="M-80.09-2687.78L-80.09-2687.78
							L-80.09-2687.78c0,0.1,0,0.1,0,0.1c0.7,1.9,2.7,4.7,4.5,5.49c0.1,0,0.1,0,0.2,0c0.2,0,0.4-0.1,0.6-0.3c0,0,0-0.1,0.1-0.1
							c0-0.1,0-0.1,0-0.2c0,0,0,0,0-0.1c-0.3-2.2-3.1-5.09-5.1-5.19C-79.99-2687.98-80.09-2687.88-80.09-2687.78z"/>
						<path id="Path_384" style="fill-rule:evenodd;clip-rule:evenodd;fill:#B69460;" d="M-73.99-2683.38c0.1,0.1,0.2,0.2,0.3,0.2
							l0,0c0.1,0,0.1,0,0.2,0c0.2,0,0.4-0.1,0.5-0.3c0.2-0.4,0.4-0.7,0.5-1.1c0.4-1.9,0.1-3.9-0.9-5.59c-0.2-0.4-0.4-0.7-0.6-1.1
							l0,0l-0.1-0.1l0,0c-0.1,0-0.2,0.1-0.2,0.2C-75.09-2688.68-74.99-2685.98-73.99-2683.38
							C-73.99-2683.48-73.99-2683.38-73.99-2683.38z"/>
						<path id="Path_385" style="fill-rule:evenodd;clip-rule:evenodd;fill:#B69460;" d="M-74.89-2674.59c0.1,0,0.1,0,0.2,0
							s0.3-0.1,0.4-0.1c0.1-0.1,0.2-0.2,0.2-0.3c0.4-2.3-1.6-5.79-3.8-6.49l0,0c-0.1,0-0.1,0-0.2,0.1c0,0-0.1,0.1-0.1,0.2
							c0.2,1.8,1.4,5.19,3.1,6.49C-74.99-2674.69-74.99-2674.59-74.89-2674.59L-74.89-2674.59z"/>
						<path id="Path_386" style="fill-rule:evenodd;clip-rule:evenodd;fill:#B69460;" d="M-70.19-2674.69L-70.19-2674.69
							c-0.1,0-0.2,0-0.2,0.1c-2,2.1-3.3,4.6-3.9,7.39c0,0.1,0,0.1,0,0.2s0,0.1,0.1,0.2l0.1,0.1c0.1,0.1,0.2,0.2,0.3,0.2s0.2,0,0.2,0
							c0.1,0,0.2,0,0.3-0.1c0.3-0.1,0.5-0.3,0.7-0.5c0.6-0.5,1-1.1,1.4-1.8c0.9-1.7,1.3-3.7,1.2-5.59c0,0,0,0,0-0.1
							C-69.99-2674.59-70.09-2674.59-70.19-2674.69L-70.19-2674.69z"/>
						<path id="Path_387" style="fill-rule:evenodd;clip-rule:evenodd;fill:#B69460;" d="M-80.09-2650.91c0-0.1-0.1-0.1-0.2-0.1
							c-3-0.1-5.9,0.6-8.5,2.1l-0.1,0.1c-0.2,0.3-0.3,0.6-0.1,0.9c0.1,0.2,0.2,0.3,0.4,0.3c0.3,0.1,0.5,0.2,0.8,0.2
							c1.1,0.2,2.3,0,3.3-0.4c1.7-0.6,3.2-1.5,4.4-2.7l0,0c0,0,0,0,0-0.1v-0.1v-0.1C-80.09-2650.91-80.09-2650.91-80.09-2650.91z"/>
						<path id="Path_388" style="fill-rule:evenodd;clip-rule:evenodd;fill:#B69460;" d="M-71.09-2665.6
							C-71.09-2665.6-71.09-2665.7-71.09-2665.6c-0.1-0.1-0.1-0.2-0.2-0.2l0,0h-0.1h-0.1c-2.5,1.3-4.6,3.4-6,5.89c0,0.1,0,0.1,0,0.2
							c0,0,0,0,0,0.1c0,0.1,0,0.1,0,0.2c0,0.1,0,0.1,0.1,0.2l0.1,0.1c0.1,0.1,0.2,0.2,0.3,0.2s0.1,0,0.2,0c0.6-0.1,1.3-0.3,1.8-0.7
							C-73.09-2661-71.69-2663.1-71.09-2665.6L-71.09-2665.6L-71.09-2665.6L-71.09-2665.6z"/>
						<path id="Path_389" style="fill-rule:evenodd;clip-rule:evenodd;fill:#B69460;" d="M-76.59-2666.9c0.1,0.1,0.2,0.2,0.3,0.2
							c0.1,0,0.2,0,0.2,0c0.1,0,0.2,0,0.3-0.1c0,0,0,0,0.1,0c0.1,0,0.1-0.1,0.1-0.1l0.1-0.1c0.8-2.7,0-5.59-2.1-7.39h-0.1l0,0h-0.1
							c-0.1,0-0.1,0-0.2,0.1c0,0,0,0,0,0.1v0.1C-78.19-2672.09-77.89-2668.5-76.59-2666.9L-76.59-2666.9z"/>
						<path id="Path_390" style="fill-rule:evenodd;clip-rule:evenodd;fill:#B69460;" d="M-74.19-2657.81
							C-74.29-2657.81-74.29-2657.81-74.19-2657.81c-0.1-0.1-0.1-0.2-0.2-0.2l0,0l0,0c-2.1,0.1-6,2.1-7.6,4l-0.1,0.1
							c0,0.1-0.1,0.2-0.1,0.2s0,0,0,0.1c0,0.1,0,0.1,0,0.2s0,0.1,0.1,0.2l0.1,0.1c0.1,0.1,0.2,0.2,0.3,0.2h0.1c0.2,0,0.5,0,0.8,0
							c2.5,0,5.6-2.7,6.7-4.7l0,0C-74.19-2657.71-74.19-2657.71-74.19-2657.81L-74.19-2657.81L-74.19-2657.81z"/>
						<path id="Path_391" style="fill-rule:evenodd;clip-rule:evenodd;fill:#B69460;" d="M-79.89-2659.71L-79.89-2659.71
							c0.1,0.2,0.2,0.3,0.4,0.4c0.1,0,0.2,0,0.2,0h0.1c0.1,0,0.2,0,0.2-0.1h0.1c0.1,0,0.1-0.1,0.1-0.1l0.1-0.1
							c0.3-0.5,0.5-1.1,0.7-1.7c0.4-1.9,0-4-1.3-5.49c0,0,0,0,0-0.1c0,0-0.1-0.1-0.2-0.1l0,0c0,0,0,0-0.1,0h-0.1l0,0
							c0,0,0,0-0.1,0.1v0.1c-0.1,0.4-0.2,0.8-0.3,1.1c-0.4,1.6-0.5,3.2-0.2,4.8C-80.19-2660.5-80.09-2660.11-79.89-2659.71z"/>
						<path id="Path_392" style="fill-rule:evenodd;clip-rule:evenodd;fill:#B69460;" d="M-82.69-2661.2L-82.69-2661.2h-0.1h-0.1
							l0,0l0,0c-1.2,1.9-2.3,5.19-1.9,7.09v0.1l0.1,0.1c0.1,0.1,0.2,0.2,0.3,0.2c0.1,0,0.1,0,0.2,0h0.1h0.1c0.1,0,0.2,0,0.2-0.1l0,0
							c2-2,2.5-4.99,1.3-7.49C-82.49-2661.2-82.59-2661.2-82.69-2661.2z"/>
						<path id="Path_393" style="fill-rule:evenodd;clip-rule:evenodd;fill:#B69460;" d="M-87.29-2656.61L-87.29-2656.61
							L-87.29-2656.61h-0.1h-0.1l-0.1,0.1c-1.6,2-3.2,4-3.4,6.59c0,0.1,0,0.3,0.1,0.4c0,0.1,0.1,0.1,0.1,0.2
							c0.1,0.1,0.2,0.2,0.3,0.2c0.1,0,0.1,0,0.2,0h0.1c0.1,0,0.2,0,0.4-0.1c2-1.2,3.6-4.8,2.9-7.19v-0.1
							C-87.09-2656.61-87.19-2656.61-87.29-2656.61z"/>
						<path id="Path_394" style="fill-rule:evenodd;clip-rule:evenodd;fill:#B69460;" d="M-87.39-2645.42v-0.1
							c0-0.1-0.1-0.1-0.2-0.1c-2.8-0.9-5.9-1-8.7-0.2c-0.1,0-0.1,0.1-0.2,0.1c-0.2,0.1-0.3,0.4-0.3,0.6c0,0.1,0,0.3,0.1,0.4
							c0,0.1,0.1,0.1,0.1,0.1l0.1,0.1c0.2,0.1,0.4,0.3,0.7,0.4c1.1,0.5,2.2,0.6,3.3,0.5c1.8-0.1,3.5-0.6,5-1.4c0,0,0,0,0.1,0
							c0,0,0,0,0.1-0.1c0,0,0,0,0-0.1v-0.1C-87.29-2645.32-87.29-2645.32-87.39-2645.42C-87.39-2645.32-87.39-2645.32-87.39-2645.42
							z"/>
					</g>
				</g>
				<g id="Group_82">
					<path id="Path_395" style="fill:#003B63;" d="M-88-2606.44h-0.3v0.9h0.3V-2606.44z"/>
					<path id="Path_396" style="fill:#003B63;" d="M-88-2607.64h-0.3v0.9h0.3V-2607.64z"/>
					<path id="Path_397" style="fill:#003B63;" d="M-84.8-2603.64c0,0,0.2,0,0.3,0s0.1,0,0.1-0.1v-1h-0.4V-2603.64z"/>
					
						<rect id="Rectangle_31" x="-86.39" y="-2606.92" transform="matrix(7.009545e-03 -1 1 7.009545e-03 2521.4102 -2674.3843)" style="fill:#003B63;" width="1" height="0.3"/>
					
						<rect id="Rectangle_32" x="-89.74" y="-2607.27" transform="matrix(6.008259e-03 -1 1 6.008259e-03 2518.364 -2680.7964)" style="fill:#003B63;" width="0.9" height="0.2"/>
					<path id="Path_398" style="fill:#003B63;" d="M-87.2-2605.34c-0.2,0.2-0.5,0.3-0.7,0.3H-88v-0.3h-0.2v0.9h0.2l0.5-0.6
						c0,0,0.3,0.3,0.6,0.5v-3.1c-0.1,0.1-0.2,0.1-0.2,0.1L-87.2-2605.34z"/>
					<path id="Path_399" style="fill:#003B63;" d="M-86-2604.94h0.3v-1.1H-86V-2604.94z"/>
					
						<rect id="Rectangle_33" x="-85.19" y="-2605.74" transform="matrix(7.009545e-03 -1 1 7.009545e-03 2521.429 -2671.9221)" style="fill:#003B63;" width="1.1" height="0.4"/>
					<path id="Path_400" style="fill:#003B63;" d="M-120.81-2687.86l0.8,2.2l1.4-1.2L-120.81-2687.86z"/>
					<path id="Path_401" style="fill:#003B63;" d="M-89.4-2605.54h0.2v-0.9h-0.2V-2605.54z"/>
					<path id="Path_402" style="fill:#003B63;" d="M-42.78-2669.97c0.3,0.4,0.8,0.6,1.3,0.4c0.3-0.1,0.6-0.4,0.7-0.7
						c0.1-0.3,0-0.6-0.1-0.9l-0.2-0.6l-2.1,0.8l0.2,0.5C-42.88-2670.27-42.78-2670.17-42.78-2669.97z"/>
					<path id="Path_403" style="fill:#003B63;" d="M-98.4-2695.15c0.6-0.2,1.2-0.6,1.5-1.2c0.2-0.6,0.2-1.3,0-2
						c-0.4-1.5-1.5-2.6-3-2.2c-1.3,0.4-2,1.7-1.6,2.9c0,0.1,0.1,0.2,0.1,0.2C-101.21-2695.85-99.91-2694.85-98.4-2695.15
						L-98.4-2695.15z"/>
					<path id="Path_404" style="fill:#003B63;" d="M-99.61-2608.23l0.4,0.1l0.6-0.4l0.6,0.9c0.2-0.3,0.4-0.6,0.5-0.9l-1.2-0.3
						C-99-2608.63-99.3-2608.43-99.61-2608.23z"/>
					<path id="Path_405" style="fill:#003B63;" d="M-99-2610.13l-0.2,0.8c0.2-0.2,0.5-0.5,0.7-0.7L-99-2610.13z"/>
					<path id="Path_406" style="fill:#003B63;" d="M-96.9-2608.04c0,0.5,0.1,0.9,0.2,1.4c0.4-0.6,0.7-1.3,1-2l-0.5-0.1
						C-96.4-2608.53-96.7-2608.23-96.9-2608.04z"/>
					<path id="Path_407" style="fill:#003B63;" d="M-57.79-2619.42c0-0.2,0-0.5,0-0.7c-0.1,0-0.3,0-0.4,0.1c0,0-0.1,0-0.1,0.1
						c-0.2,0.3-0.3,0.5-0.5,0.7l0.4,0.4l0,0v-0.5C-58.39-2619.42-58.09-2619.42-57.79-2619.42z"/>
					
						<rect id="Rectangle_34" x="-85.12" y="-2606.97" transform="matrix(5.006937e-03 -1 1 5.006937e-03 2522.533 -2678.3374)" style="fill:#003B63;" width="1" height="0.4"/>
					<path id="Path_408" style="fill:#003B63;" d="M-87.1-2704.74c-29.21,0-52.82,23.38-52.82,52.15s23.71,52.15,52.82,52.15
						s52.82-23.38,52.82-52.15S-57.99-2704.74-87.1-2704.74z M-37.08-2659.18h0.1l0.3,2.5h-0.1c-0.1-0.5-0.4-0.5-1-0.5l-4.5,0.5
						c-0.7,0.1-0.8,0.1-0.9,0.7h-0.1l-0.3-2.5h0.1c0.2,0.6,0.4,0.5,1.1,0.5l4.5-0.5C-37.48-2658.58-37.08-2658.68-37.08-2659.18z
						 M-38.88-2665.28c0.7,0.3,1.3,1,1.4,1.8c0.1,0.5,0.1,1.1,0.1,1.6l-1.3,0.3v-0.1c0.5-0.3,0.8-0.9,0.6-1.5
						c-0.1-0.6-0.6-1-1.2-0.9h-0.1c-0.6,0.1-0.7,0.6-0.9,1.3l-0.1,0.3c-0.1,0.8-0.7,1.5-1.5,1.8c-0.6,0.1-1.2,0-1.7-0.4
						c-0.5-0.4-0.8-1-0.9-1.6c-0.1-0.2-0.1-0.5-0.1-0.7c0-0.4,0-0.7,0.1-1.1l1.3-0.3v0.1c-0.2,0.1-0.4,0.3-0.5,0.6
						c-0.1,0.3-0.2,0.7-0.1,1.1c0.1,0.7,0.7,1.1,1.4,1.1h0.1c0.6-0.1,0.8-0.7,1-1.3l0.1-0.4c0.2-0.8,0.5-1.5,1.4-1.7
						C-39.58-2665.38-39.28-2665.38-38.88-2665.28z M-41.28-2673.77h0.1l1,2.6c0.2,0.5,0.4,1,0.3,1.5c-0.1,0.6-0.5,1.1-1,1.3
						c-0.4,0.2-0.9,0.2-1.3,0c-0.2-0.1-0.4-0.2-0.6-0.4l-1.7,2c-0.5,0.6-0.6,0.7-0.6,1.1h-0.1l-0.3-0.7c-0.3-0.6-0.1-1.3,0.4-1.7
						l1.5-1.8c-0.1-0.1-0.1-0.3-0.2-0.4c0-0.1-0.1-0.3-0.1-0.4l-1.8,0.7c-0.7,0.3-0.7,0.4-0.7,0.9h-0.1l-0.9-2.3h0.1
						c0.3,0.5,0.6,0.4,1,0.2l4.4-1.7C-41.38-2673.07-41.18-2673.17-41.28-2673.77L-41.28-2673.77z M-44.88-2680.06l0.1-0.1l2.2,3.7
						l-1.1,0.6l-0.1-0.1c0.4-0.4,0.3-0.6,0.1-0.9l-0.8-1.4l-1.8,1l0.6,1.1c0.3,0.5,0.5,0.6,0.9,0.4l0.1,0.1l-1.6,0.9l-0.1-0.1
						c0.4-0.4,0.3-0.6,0-1.1l-0.6-1l-1.3,0.8c-0.7,0.4-0.7,0.6-0.3,1.2l0.6,1c0.3,0.5,0.4,0.6,0.9,0.4l0.1,0.1l-1.1,0.7l-2.5-4.2
						l0.1-0.1c0.4,0.4,0.6,0.3,1.1,0l4-2.3C-44.88-2679.46-44.68-2679.66-44.88-2680.06L-44.88-2680.06z M-50.59-2687.16l0.1-0.1
						l1.6,1.9l-0.1,0.1c-0.1-0.1-0.1-0.1-0.2-0.1c-0.1-0.1-0.3,0-0.4,0.1c-0.1,0.1-0.3,0.3-0.4,0.5l-1.9,3.6l4-1.2
						c0.2,0,0.4-0.1,0.6-0.2s0.2-0.4,0.1-0.6l0.1-0.1l1.2,1.4l-0.1,0.1c-0.3-0.3-0.5-0.2-1.5,0l-5.7,1.6l-0.4-0.5l2.7-5.19
						C-50.48-2686.66-50.38-2686.76-50.59-2687.16L-50.59-2687.16z M-53.89-2690.15L-53.89-2690.15l1.9,1.6l-0.1,0.1
						c-0.4-0.3-0.6-0.2-1,0.3l-3.1,3.3c-0.5,0.5-0.5,0.6-0.2,1.1l-0.1,0.1l-1.8-1.7l0.1-0.1c0.6,0.3,0.7,0.1,1.1-0.3l3.1-3.3
						C-53.69-2689.45-53.49-2689.75-53.89-2690.15L-53.89-2690.15z M-61.49-2695.85l1.6,1.1l0.7,5.99l2-3c0.3-0.4,0.4-0.7,0-1
						l0.1-0.1l1.6,1.1l-0.1,0.1c-0.4-0.2-0.6-0.1-0.9,0.4l-3.3,4.7l-0.5-0.3l-0.8-7.09l-2.5,3.6c-0.4,0.5-0.3,0.7,0,1l-0.1,0.1
						l-1.6-1.1l0.1-0.1c0.1,0.1,0.3,0.1,0.4,0.1c0.2,0,0.3-0.2,0.5-0.4l2.7-3.9c0.1-0.1,0.2-0.3,0.2-0.4c0-0.2-0.1-0.4-0.2-0.6
						L-61.49-2695.85z M-71.09-2695.85l1.2-2.8c0.2-0.5,0.3-0.7-0.2-1l0.1-0.1l2.3,1l-0.1,0.1c-0.5-0.1-0.6,0-0.9,0.6l-1.2,2.7
						c-0.1,0.3-0.2,0.5-0.3,0.8c-0.2,0.8,0.3,1.6,1.1,1.9c0.5,0.2,1.1,0.3,1.5,0c0.4-0.3,0.7-0.7,0.9-1.2l1.2-2.8
						c0.2-0.5,0.3-0.7-0.2-1l0.1-0.1l1.7,0.7l-0.1,0.1c-0.6-0.1-0.7,0.1-0.9,0.5l-1.2,2.8c-0.2,0.8-0.8,1.4-1.5,1.7
						c-1.4,0.3-2.9-0.3-3.7-1.6C-71.59-2694.25-71.49-2695.15-71.09-2695.85L-71.09-2695.85z M-83-2699.14c0.1-0.6,0.3-1.2,0.7-1.6
						c0.3-0.4,0.8-0.7,1.2-0.9c0.8-0.4,1.8-0.5,2.7-0.3c0.7,0.1,1.4,0.3,2.1,0.6l-0.2,1.3h-0.1c-0.1-0.4-0.3-1-1.7-1.2
						c-1.4-0.4-2.8,0.5-3.2,1.9c0,0.1-0.1,0.2-0.1,0.4c-0.2,1.6,0.8,3,2.4,3.3c0.5,0.1,1,0,1.5-0.2c0.2-0.1,0.4-0.3,0.5-0.6h0.1
						l-0.2,1.3c-0.8,0.1-1.6,0.2-2.4,0c-0.5-0.1-1-0.2-1.4-0.4C-82.5-2696.25-83.3-2697.75-83-2699.14z M-87.3-2696.15
						c0.6-0.2,0.6-0.4,0.6-1l0.1-4.5c0-0.5,0-0.8-0.6-0.9v-0.1l2.5,0.1v0.1c-0.5,0.1-0.6,0.3-0.6,0.9l-0.1,4.4c0,0.7,0,0.8,0.6,1
						v0.1L-87.3-2696.15L-87.3-2696.15z M-91.7-2702.44v0.1c-0.5,0.1-0.6,0.4-0.5,1l0.4,4c0,0.2,0,0.4,0.1,0.6
						c0.2,0.2,0.4,0.2,0.8,0.2l1.4-0.1c0.6,0,0.8-0.2,0.8-0.7h0.1l0.1,1.3l-5.1,0.5v-0.1c0.2,0,0.3-0.1,0.4-0.3
						c0.1-0.2,0.1-0.3,0.1-0.9l-0.4-4.2c0-0.5-0.1-0.8-0.7-0.9v-0.1L-91.7-2702.44z M-100.01-2701.14c1.8-0.6,3.7,0.4,4.3,2.2
						c0,0.1,0.1,0.2,0.1,0.3c0.1,0.4,0.2,0.8,0.1,1.3c0,0.5-0.2,0.9-0.4,1.3c-0.5,0.9-1.4,1.5-2.4,1.7c-1.8,0.6-3.7-0.3-4.3-2
						c0-0.1-0.1-0.2-0.1-0.3c-0.5-1.9,0.6-3.8,2.5-4.3C-100.21-2701.14-100.11-2701.14-100.01-2701.14L-100.01-2701.14z
						 M-110.11-2697.25l0.1,0.1c-0.5,0.3-0.4,0.6-0.1,1.1l0.7,1.5l2.9-1.4l-0.8-1.6c-0.2-0.5-0.3-0.7-0.9-0.6l-0.1-0.1l2.2-1.1
						l0.1,0.1c-0.4,0.3-0.4,0.5-0.1,1.1l1.9,3.9c0.3,0.7,0.4,0.8,1,0.7l0.1,0.1l-2.2,1.1l-0.1-0.1c0.5-0.3,0.4-0.6,0.1-1.1l-0.9-1.8
						l-2.9,1.4l0.9,1.8c0.2,0.5,0.4,0.8,0.9,0.6l0.1,0.1l-2.2,1.1l-0.1-0.1c0.5-0.3,0.4-0.6,0.1-1.1l-2-4.1
						c-0.2-0.4-0.4-0.7-0.9-0.6l-0.1-0.1L-110.11-2697.25z M-114.11-2695.05l0.7,1l-0.1,0.1c-0.4-0.4-0.6-0.3-1,0l-1,0.7l2.7,3.8
						c0.5,0.7,0.6,0.7,1.1,0.6l0.1,0.1l-2.1,1.4l-0.1-0.1c0.4-0.5,0.2-0.7-0.2-1.2l-2.7-3.8l-1.1,0.7c-0.2,0.1-0.3,0.3-0.4,0.5
						c0,0.1,0,0.3,0.1,0.4l-0.1,0.1l-0.7-1L-114.11-2695.05z M-121.51-2689.45l5.5,2.4c0.7,0.3,0.9,0.4,1.3,0.2l0.1,0.1l-1.8,1.7
						l-0.1-0.1c0.1-0.2,0.2-0.4,0-0.6c-0.1-0.1-0.3-0.2-0.5-0.3l-1.1-0.5l-1.8,1.6l0.4,1.1c0.1,0.2,0.1,0.3,0.3,0.5
						c0.2,0.2,0.5,0.1,0.6,0l0.1,0.1l-1.4,1.3l-0.1-0.1c0.3-0.3,0.2-0.6,0-1.1l-2.1-5.89L-121.51-2689.45z M-127.22-2683.56
						c0.4-0.6,1-1.1,1.6-1.5l1.1,0.8l-0.1,0.1c-0.4-0.1-1.1-0.2-1.9,0.9c-1,1-0.9,2.7,0.1,3.6c0.1,0.1,0.2,0.2,0.3,0.3
						c1.2,1,2.9,0.8,3.9-0.3c0-0.1,0.1-0.1,0.1-0.2c0.3-0.4,0.5-0.9,0.6-1.4c0-0.3-0.1-0.5-0.2-0.7l0.1-0.1l1.1,0.8
						c-0.2,0.8-0.6,1.5-1.1,2.1c-0.3,0.4-0.6,0.7-1,1c-1.2,0.9-2.9,0.9-4,0c-0.5-0.4-0.9-0.8-1.1-1.4c-0.2-0.5-0.3-1-0.3-1.5
						C-128.12-2681.96-127.82-2682.86-127.22-2683.56L-127.22-2683.56z M-134.72-2669.87l5.8-1.9l-3.4-1.3c-0.5-0.2-0.7-0.2-1,0.2
						l-0.1-0.1l0.7-1.7l0.1,0.1c-0.1,0.5,0.1,0.6,0.5,0.8l5.3,2.1l-0.2,0.5l-6.8,2.3l4.1,1.6c0.6,0.2,0.8,0.1,1-0.2h0.1l-0.7,1.7
						h-0.1c0.1-0.1,0.1-0.3,0-0.4c-0.1-0.2-0.2-0.3-0.5-0.4l-4.4-1.8c-0.1-0.1-0.3-0.1-0.5-0.1c-0.2,0-0.4,0.2-0.5,0.4l-0.1-0.1
						L-134.72-2669.87z M-136.22-2665.28l1.3,0.3v0.1c-0.6,0-0.6,0.2-0.7,0.6l-0.3,1.6l2,0.4l0.3-1.2c0.1-0.6,0-0.8-0.4-0.9v-0.1
						l1.8,0.4v0.1c-0.6,0-0.6,0.2-0.8,0.8l-0.2,1.1l1.5,0.3c0.8,0.2,0.9,0.1,1.1-0.7l0.2-1.1c0.1-0.5,0.1-0.7-0.4-1v-0.1l1.3,0.3
						l-1.1,4.8h-0.1c0-0.6-0.3-0.6-0.8-0.8l-4.5-1c-0.4-0.1-0.7-0.1-0.9,0.4h-0.1L-136.22-2665.28z M-137.52-2658.78h0.1
						c0,0.2,0.1,0.4,0.2,0.5c0.2,0.1,0.4,0.2,0.6,0.1l5,0.5c0.4,0,0.7,0.1,1.1,0.2c0.7,0.4,1.2,1.1,1.4,1.9l-0.1,0.1
						c-0.5-0.7-0.8-0.7-2.4-0.9l-5-0.5c-0.6-0.1-0.8-0.1-1,0.5h-0.1L-137.52-2658.78z M-137.72-2647.8l-0.1-2.5h0.1
						c0.1,0.5,0.3,0.6,0.9,0.5l3-0.1c0.3,0,0.6,0,0.9-0.1c0.8-0.2,1.3-0.9,1.2-1.7c0-0.5-0.2-1.1-0.6-1.4c-0.4-0.3-0.9-0.4-1.4-0.3
						l-3.1,0.1c-0.6,0-0.8,0-0.9,0.6h-0.1l-0.1-1.9h0.1c0.1,0.5,0.4,0.6,0.9,0.5l3.1-0.1c0.8-0.1,1.6,0.1,2.2,0.7
						c0.5,0.6,0.7,1.3,0.7,2c0.1,0.7-0.1,1.4-0.5,2c-0.5,0.6-1.3,1-2.2,0.9l-3.1,0.1c-0.6,0-0.8,0.1-0.9,0.6L-137.72-2647.8z
						 M-135.82-2642c-0.2,0-0.3,0.1-0.4,0.2c-0.1,0.1-0.2,0.3-0.2,0.5h-0.1l-0.8-4.4l1.3-0.2v0.1c-0.5,0.2-0.5,0.4-0.4,0.9l0.3,1.6
						l2.1-0.4l-0.2-1.2c-0.1-0.7-0.3-0.8-0.7-0.8v-0.1l1.8-0.3v0.1c-0.1,0-0.2,0.1-0.3,0.2c-0.2,0.2-0.1,0.4-0.1,0.6l0.3,1.4l2-0.4
						c0.7-0.1,0.8-0.2,0.9-0.8h0.1l0.5,2.4h-0.1c-0.2-0.5-0.4-0.5-1.1-0.4L-135.82-2642z M-127.22-2628.61l-1.4-0.4l-1.2,0.9v-1.5
						l-1.3-0.8l1.4-0.5l0.4-1.4l0.9,1.2l1.5-0.1l-0.8,1.2l0,0L-127.22-2628.61z M-114.21-2617.93l-1.8-1.6c-0.5,0.5-1,1-1.4,1.4
						l1.1,1l1-0.2c0,0,0.2,0.8,0.2,1.4c-0.1,0-0.2,0-0.3-0.1l-2.2-2c-0.5,1-0.5,2.4,0.6,4.2l-0.1,0.1c-0.4-0.3-1-0.2-1.4,0.2
						c-0.5-1.4-0.3-3,0.6-4.3c-1.3,1-2.8,1.3-5.3,0.1v-0.1c1.6,0.6,3.4,0.2,4.6-0.9l-1.9-1.7l0.1-0.2l1.9,1.7
						c0.5-0.4,0.9-0.9,1.4-1.5l-1.6-1.4l0.1-0.2l1.6,1.5l0,0l0.9,0.8l0,0l0.7,0.6l1-0.2c0,0,0.2,0.8,0.2,1.3
						C-114.01-2617.83-114.11-2617.93-114.21-2617.93L-114.21-2617.93z M-105.31-2611.43l-2.2-1.2l-0.9,1.7l0.7,0.4l0.9-0.4
						c0,0,0.4,0.7,0.5,1.2c-0.1,0.1-0.2,0.1-0.3,0l-2-1l-1.1,2l1.1,0.6l0.9-0.4c0,0,0.4,0.8,0.6,1.3c-0.1,0.1-0.2,0.1-0.3,0
						l-6.2-3.3v-0.2l2.6,1.4l1.1-2.1l-1.8-1v-0.2l1.9,1l0.9-1.7l-2.1-1.1v-0.2l4.2,2.2l0.9-0.4c0,0,0.4,0.8,0.6,1.3
						C-105.21-2611.33-105.31-2611.33-105.31-2611.43L-105.31-2611.43z M-108.31-2615.33L-108.31-2615.33c2.7,1.4,1,3,0.2,1.9
						C-108.01-2614.03-108.11-2614.73-108.31-2615.33L-108.31-2615.33z M-94.3-2608.33l-0.3-0.1c-0.3,1-0.9,2-1.7,2.8
						c0.3,0.6,0.8,1.1,1.3,1.5v0.1c-0.5,0-0.9,0.2-1.1,0.7c-0.4-0.5-0.7-1.1-0.8-1.7c-0.9,0.5-1.9,0.8-3,0.8v-0.1
						c1.1-0.2,2.1-0.8,2.9-1.7c0-0.6,0-1.2,0.1-1.8c-0.3,0.3-0.7,0.6-1.2,0.8l-0.1-0.1c0.1-0.1,0.2-0.3,0.3-0.4c-0.1,0-0.2,0-0.2,0
						c-0.3,0.1-0.6,0.2-0.9,0.2l0.3,0.1c0,0.1-0.1,0.1-0.3,0.1l-0.1,0.2c0.5,0.1,0.9,0.1,1.4,0.2v0.1c-0.4,0.1-0.9,0.1-1.5,0.2
						l-0.3,1c-0.2,0.7-0.4,1-1.5,0.8c0.1-0.2,0.1-0.5,0-0.7c-0.1-0.2-0.3-0.4-0.6-0.5v-0.1c0,0,0.8,0.2,0.9,0.3c0.1,0,0.1,0,0.2-0.1
						l0.2-0.6c-0.3,0-0.6,0.1-1,0.1c-0.1,0.1-0.2,0.1-0.3,0.1l-0.2-1.2c0.3,0.1,0.9,0.1,1.6,0.2l0.2-0.7l0.5,0.2
						c0.1-0.1,0.3-0.3,0.4-0.4l-0.7-0.2c-0.6,0.3-1.3,0.5-2,0.7v-0.1c0.5-0.2,1-0.4,1.4-0.7l-0.7-0.2v-0.2l0.9,0.2
						c0.3-0.2,0.5-0.4,0.8-0.6l-1.8-0.4v-0.2l1.1,0.3l0.2-1l-0.8-0.2v-0.2l0.8,0.2l0.2-1l1.3,0.4c0,0.1-0.1,0.2-0.3,0.1l-0.2,0.7
						l0.4-0.4c0,0,0.1,0.2,0.3,0.4c0.2-0.2,0.3-0.4,0.5-0.7l1,0.8c-0.1,0.1-0.2,0.1-0.3,0c-0.4,0.5-0.9,0.9-1.4,1.2l0.2,0.1l0.5-0.4
						c0,0,0.2,0.3,0.4,0.6c0.3-0.7,0.6-1.3,0.9-2l1.3,0.7c0,0.1-0.2,0.1-0.3,0.1c-0.2,0.4-0.4,0.7-0.7,1.1l0.6,0.1l0.7-0.6
						c0,0,0.5,0.6,0.7,1C-94.1-2608.33-94.2-2608.33-94.3-2608.33L-94.3-2608.33z M-84.5-2607.54l0.4-0.5l0.9,0.7
						c-0.1,0.1-0.2,0.1-0.3,0.1v3.5c0,0.7-0.1,1-1,1.1c0-0.2,0-0.5,0-0.7c0-0.1-0.1-0.3-0.3-0.3v0.6c0,0.1-0.4,0.3-0.8,0.3h-0.2
						v-2.1h-0.3v1.8c0,0.1-0.4,0.3-0.8,0.3H-87v-1.6h-1.3v1.4c0,0.1-0.3,0.3-0.8,0.2h-0.1v-1.6h-1.2l-0.1-0.2h1.3v-0.9h-0.2v0.2
						c0,0.1-0.4,0.3-0.8,0.3h-0.1v-3.3l0.9,0.4h0.1v-0.7h-1.2l-0.1-0.2h1.3v-1.1l1.2,0.1c0,0.1-0.1,0.2-0.3,0.2v0.8l0,0l0.5-0.6
						c0,0,0.6,0.4,0.9,0.7c0,0.1-0.1,0.1-0.2,0.1h-1.2v0.7h0.1l0.4-0.4l0.8,0.6v-0.3l0.9,0.4h0.3v-0.6h-1.3l-0.1-0.2h1.4v-1.4
						l1.2,0.1c0,0.1-0.1,0.2-0.3,0.2v1h0.3l0.4-0.5c0-0.3-0.1-0.5-0.3-0.7h0.1c1.4,0,1.2,0.8,0.8,1c0.2,0.1,0.3,0.3,0.4,0.4
						c0,0.1-0.1,0.1-0.2,0.1h-1.4v0.6L-84.5-2607.54z M-77.1-2603.44h-0.2l-1-3.8c-0.2,0.3-0.5,0.6-0.7,0.9h-0.1
						c0.5-1.4,0.7-2.8,0.6-4.3l1.6,0.1c0,0.1-0.1,0.2-0.3,0.2c-0.1,0.6-0.2,1.2-0.4,1.7h0.4c0,0.1,0,0.1-0.2,0.2l1.1,4.3
						C-76.5-2603.64-76.8-2603.44-77.1-2603.44L-77.1-2603.44z M-74.39-2609.83l0.4-0.9c0,0,0.8,0.4,1.3,0.6c0,0.1-0.1,0.1-0.2,0.2
						l-4,1l-0.1-0.2L-74.39-2609.83z M-71.49-2605.64l-4.7,1.2l-0.1-0.2l3.3-0.8l0.4-0.9c0,0,0.8,0.4,1.3,0.6
						C-71.29-2605.64-71.29-2605.64-71.49-2605.64L-71.49-2605.64z M-60.69-2609.83c-1.7-0.2-3.3-1.2-4.2-2.7
						c0.7,1.7,0.8,3.4-1.2,5.69l-0.1-0.1c1-1.6,1.1-3.7,0.2-5.39l-2.3,1.3l-0.2-0.2l2.4-1.3c-0.3-0.7-0.7-1.3-1.1-2l1.4-0.6
						c0,0.1,0,0.2-0.1,0.3c0.3,0.6,0.6,1.2,0.9,1.7l1.3-0.7l0.2-1c0,0,0.9,0.1,1.4,0.2c0,0.1,0,0.2-0.1,0.2l-2.6,1.4
						c1.1,1.3,2.9,1.8,4.6,1.5v0.1C-60.89-2610.93-60.99-2610.33-60.69-2609.83z M-57.39-2616.03c-0.3,0.6-1.2,0.3-1-0.5
						c0.1-0.3,0-0.6-0.3-0.8l0.1-0.1c0.2,0.1,0.4,0.1,0.6,0.2l0,0l-1.8-1.8l0.7-0.4c0-0.2,0-0.5,0.1-0.7l0.8-0.1
						c0.1-0.1,0.3-0.2,0.4-0.3c0-0.2-0.1-0.4-0.1-0.5l0.9-0.3c0,0.1,0,0.1-0.1,0.2c0,0.1,0,0.2,0,0.3c0.5,0,0.6,0.4,0.2,0.6
						c-0.1,0-0.2,0-0.3,0c-0.1,0.3-0.2,0.5-0.3,0.8c0,0.1,0,0.1-0.1,0.2l-0.5,0.5l0.4,0.4l0,0l-0.1-0.5c0,0,0.4,0,0.7,0
						c0,0.1,0,0.2-0.1,0.2l-0.5,0.5l0.4,0.4l2.2-2l-0.4-0.4l-0.4,0.3l-0.2-0.1l0.4-0.4l-0.4-0.4l-0.4,0.3l-0.2-0.1l0.4-0.4l-0.4-0.5
						l-0.4,0.4l-0.2-0.1l0.4-0.4v-0.6l1.2-0.1c0,0.1,0,0.2-0.1,0.3l1.2,1.4v-0.4h1.3c0,0.1,0,0.1-0.2,0.3c-0.1,0.3-0.4,0.9-0.5,1.2
						h-0.1c-0.1-0.2-0.2-0.4-0.4-0.6l-3.4,3.2C-57.39-2616.83-57.29-2616.43-57.39-2616.03L-57.39-2616.03z M-56.29-2619.82
						c0.5,0,0.6,0.5,0.2,0.7c-0.1,0-0.2-0.1-0.3-0.1c-0.1,0.3-0.2,0.6-0.4,0.9h-0.1c0.1-0.3,0.1-0.6,0.1-0.9c-0.2,0-0.4,0-0.6,0.1
						v-0.1c0.2-0.2,0.3-0.3,0.5-0.4c0-0.2-0.1-0.4-0.1-0.5l0.9-0.3c0,0.1,0,0.1-0.1,0.2C-56.29-2620.12-56.29-2619.92-56.29-2619.82
						L-56.29-2619.82z M-52.19-2619.32l-1.9,1.8l0.5,0.5c0.5,0.5,0.7,0.9-0.1,1.8c-0.2-0.2-0.4-0.3-0.7-0.4c-0.3,0-0.6,0.1-0.8,0.2
						l-0.1-0.1c0,0,0.7-0.6,0.8-0.7c0.1-0.1,0.1-0.1,0-0.2l-0.4-0.4l-2.1,1.9l-0.2-0.1l2.1-2l-0.4-0.5l0.6-0.5c0-0.2,0-0.5,0-0.7
						l-1.9,1.7l-0.2-0.1l2-1.9v-0.8h1.3c0,0.1,0,0.2-0.2,0.3c-0.2,0.3-0.4,0.7-0.6,1.1c0.1,0.1,0,0.2-0.1,0.3l0.2,0.2l1-0.9
						l-0.1-0.9c0,0,0.8-0.1,1.3-0.1C-51.99-2619.42-52.09-2619.32-52.19-2619.32L-52.19-2619.32z M-87.2-2611.63
						c-23.01,0-41.62-18.38-41.62-41.06s18.61-41.06,41.62-41.06s41.62,18.38,41.62,41.06S-64.19-2611.63-87.2-2611.63
						L-87.2-2611.63z M-44.58-2629.71L-44.58-2629.71v1.5l-1.2-0.9l-1.4,0.4l0.5-1.4l-0.9-1.2h1.5l0.9-1.2l0.4,1.4l1.4,0.5
						L-44.58-2629.71z M-37.08-2645h-0.1c0-0.1,0-0.4-0.3-0.5c-0.2,0-0.3,0-0.5,0.1l-2.3,0.9l1.8,1.6c0.1,0.1,0.3,0.2,0.4,0.2
						c0.3,0.1,0.4-0.2,0.5-0.4h0.1l-0.3,1.9h-0.1c0-0.3-0.1-0.4-0.4-0.7l-2.8-2.4l-1.9-0.3c-0.5-0.1-0.7-0.1-0.9,0.4h-0.1l0.4-2.4
						h0.1c0,0.5,0.3,0.6,0.7,0.7l1.9,0.3l3.4-1.4c0.5-0.2,0.6-0.3,0.7-0.6h0.1L-37.08-2645z M-37.78-2649.29v-0.1
						c0.5-0.1,0.6-0.3,0.6-0.8v-1.2h-4.7c-0.8,0-0.9,0-1.1,0.6h-0.2v-2.5h0.1c0.1,0.6,0.4,0.6,1.1,0.6h4.7v-1.3c0-0.2,0-0.4-0.2-0.6
						c-0.1-0.1-0.2-0.2-0.4-0.2v-0.1h1.3l-0.1,5.69L-37.78-2649.29z"/>
				</g>
			</g>
		</g>
	</g>
</g>
</svg>
