<?xml version="1.0" encoding="utf-8"?>
<!-- Generator: Adobe Illustrator 25.0.1, SVG Export Plug-In . SVG Version: 6.00 Build 0)  -->
<svg version="1.1" id="圖層_1" xmlns="http://www.w3.org/2000/svg" xmlns:xlink="http://www.w3.org/1999/xlink" x="0px" y="0px"
	 viewBox="0 0 40 118" style="enable-background:new 0 0 40 118;" xml:space="preserve">
<g>
	<path style="fill:#FFFFFF;" d="M5.21,1.34c0.18,0.09,0.34,0.19,0.46,0.3c0.13,0.11,0.23,0.21,0.31,0.3C6.16,2.14,6.3,2.36,6.4,2.57
		C6.5,2.79,6.57,3,6.62,3.2c0.05,0.2,0.07,0.37,0.08,0.53C6.71,3.89,6.71,4.01,6.71,4.1c0,0.25-0.03,0.52-0.08,0.8
		C6.58,5.18,6.47,5.42,6.31,5.62C6.21,5.75,6.1,5.84,6,5.91L5.71,6.07v0.21l1.23,0.04l0.01-0.04c0.08-0.26,0.14-0.5,0.18-0.7
		C7.18,5.36,7.22,5.17,7.24,5c0.02-0.17,0.04-0.32,0.05-0.46C7.3,4.4,7.3,4.26,7.3,4.13C7.3,4,7.3,3.83,7.28,3.6
		C7.27,3.38,7.23,3.12,7.16,2.85C7.09,2.57,6.98,2.28,6.84,1.97C6.69,1.67,6.48,1.37,6.21,1.1C5.98,0.85,5.73,0.64,5.48,0.5
		c-0.25-0.14-0.5-0.25-0.74-0.33C4.51,0.1,4.28,0.05,4.08,0.03C3.88,0.01,3.72,0,3.6,0C3.23,0,2.88,0.05,2.54,0.15
		C2.2,0.24,1.89,0.39,1.61,0.57C1.32,0.76,1.07,0.99,0.85,1.26c-0.22,0.27-0.4,0.58-0.54,0.92C0.24,2.36,0.19,2.53,0.15,2.7
		C0.11,2.87,0.09,3.03,0.07,3.17C0.05,3.32,0.04,3.45,0.03,3.56c0,0.11-0.01,0.2-0.01,0.26c0,0.27,0.02,0.57,0.06,0.91
		c0.04,0.33,0.1,0.63,0.17,0.9c0.03,0.11,0.06,0.21,0.09,0.32c0.03,0.11,0.07,0.21,0.11,0.32l0.01,0.04l1.18-0.04V6.06L1.62,6.04
		C1.57,6.02,1.51,6,1.43,5.97C1.36,5.94,1.28,5.88,1.18,5.8C1.15,5.76,1.1,5.71,1.05,5.65C0.99,5.58,0.94,5.5,0.89,5.4
		C0.83,5.27,0.78,5.13,0.75,4.99C0.71,4.84,0.69,4.71,0.67,4.58C0.65,4.45,0.64,4.34,0.63,4.24c0-0.09,0-0.17,0-0.2
		c0-0.12,0.01-0.26,0.02-0.42C0.66,3.45,0.7,3.26,0.76,3.05c0.06-0.2,0.16-0.42,0.28-0.63C1.17,2.2,1.35,1.99,1.58,1.78
		C1.66,1.7,1.77,1.62,1.9,1.53c0.13-0.09,0.28-0.17,0.46-0.25c0.18-0.08,0.38-0.14,0.61-0.2C3.2,1.03,3.46,1,3.75,1
		c0.31,0,0.58,0.03,0.83,0.1C4.82,1.16,5.03,1.24,5.21,1.34z"/>
	<path style="fill:#FFFFFF;" d="M0.57,13.4c0.05-0.09,0.15-0.19,0.31-0.28C0.91,13.1,0.95,13.08,1,13.05
		c0.05-0.03,0.11-0.05,0.17-0.08l0.16-0.07c0.05-0.02,0.1-0.04,0.13-0.06l5.69-2.41l0.04-0.02v-0.17L1.27,7.61
		C1.13,7.55,1,7.5,0.9,7.44c-0.1-0.05-0.18-0.11-0.24-0.16C0.61,7.22,0.56,7.16,0.53,7.1C0.5,7.04,0.48,6.97,0.47,6.88L0.46,6.83
		H0.23v1.78h0.23l0.01-0.05c0.01-0.07,0.03-0.14,0.06-0.2C0.55,8.3,0.6,8.26,0.66,8.23c0.04-0.02,0.07-0.04,0.1-0.04
		c0.03-0.01,0.05-0.01,0.07-0.01c0.06,0,0.14,0.02,0.23,0.05c0.1,0.04,0.22,0.09,0.36,0.14l1.3,0.56v2.35L1.46,11.8
		c-0.08,0.03-0.16,0.07-0.24,0.1c-0.07,0.03-0.15,0.07-0.23,0.09c-0.09,0.02-0.13,0.03-0.16,0.03c-0.01,0-0.03,0-0.07,0
		c-0.03,0-0.05-0.02-0.09-0.04c-0.08-0.04-0.13-0.09-0.15-0.15c-0.03-0.07-0.05-0.15-0.06-0.24l-0.01-0.05l-0.23-0.02v2.17h0.2
		l0.02-0.03C0.47,13.59,0.52,13.5,0.57,13.4z M3.3,11.04V9.21l2.11,0.94L3.3,11.04z"/>
	<path style="fill:#FFFFFF;" d="M5.95,12.86v0.23l0.23,0.04c0.07,0.01,0.14,0.05,0.2,0.13c0.05,0.06,0.09,0.14,0.11,0.23
		c0.02,0.09,0.04,0.23,0.04,0.41v1.31H1.21c-0.18,0-0.32-0.02-0.41-0.06c-0.09-0.04-0.16-0.09-0.21-0.16
		c-0.05-0.06-0.07-0.12-0.09-0.18c-0.02-0.08-0.03-0.12-0.03-0.14l-0.01-0.04L0.23,14.6v2.19h0.23l0.01-0.05
		c0.03-0.12,0.06-0.21,0.09-0.27c0.03-0.06,0.07-0.11,0.12-0.15c0.05-0.05,0.1-0.08,0.16-0.1c0.05-0.02,0.12-0.03,0.18-0.04
		c0.07-0.01,0.16-0.01,0.25-0.01H6.5v1.42c0,0.21-0.03,0.37-0.09,0.49c-0.05,0.11-0.19,0.18-0.4,0.21l-0.05,0.01v0.22H7.1v-5.67
		H5.95z"/>
	<path style="fill:#FFFFFF;" d="M0.53,25.59c0.03-0.06,0.07-0.12,0.13-0.17c0.06-0.05,0.12-0.08,0.19-0.1
		c0.07-0.01,0.14-0.02,0.23-0.03c0.07-0.01,0.13-0.01,0.2-0.01h4.6c0.08,0,0.2,0,0.34,0c0.14,0,0.24,0.02,0.31,0.04
		c0.06,0.02,0.12,0.05,0.16,0.1c0.05,0.05,0.08,0.09,0.11,0.14c0.03,0.05,0.04,0.09,0.05,0.13c0.01,0.05,0.02,0.09,0.03,0.11
		l0.01,0.04H7.1v-2.08l-0.23,0l0,0.06c0,0.01,0,0.04-0.01,0.08C6.85,23.96,6.84,24,6.82,24.05c-0.02,0.05-0.05,0.09-0.09,0.14
		c-0.04,0.04-0.09,0.07-0.15,0.1c-0.07,0.02-0.15,0.03-0.25,0.03H4.17v-3.61h1.76c0.16,0,0.31,0.01,0.42,0.01
		c0.11,0.01,0.19,0.03,0.26,0.06c0.05,0.02,0.09,0.05,0.13,0.09c0.04,0.05,0.06,0.09,0.08,0.13c0.02,0.05,0.03,0.09,0.04,0.12
		c0.01,0.05,0.02,0.08,0.03,0.1l0.01,0.04H7.1v-2.09H6.89l-0.01,0.04c-0.01,0.02-0.01,0.06-0.03,0.11
		c-0.01,0.04-0.02,0.09-0.04,0.13c-0.02,0.05-0.05,0.09-0.09,0.13c-0.04,0.04-0.09,0.07-0.16,0.1c-0.08,0.03-0.17,0.05-0.25,0.05
		c-0.09,0-0.22,0-0.4,0H1.47c-0.15,0-0.29,0-0.41-0.01c-0.11,0-0.2-0.01-0.25-0.03c-0.07-0.02-0.12-0.05-0.17-0.1
		c-0.05-0.05-0.08-0.09-0.1-0.14c-0.02-0.05-0.04-0.1-0.06-0.14c-0.01-0.06-0.02-0.08-0.02-0.09v-0.06H0.23v2.09h0.24v-0.06
		c0-0.01,0-0.03,0.01-0.08c0.01-0.04,0.03-0.08,0.05-0.12c0.03-0.05,0.06-0.09,0.09-0.14c0.03-0.04,0.08-0.08,0.14-0.11
		c0.07-0.03,0.16-0.04,0.26-0.05c0.11-0.01,0.26-0.01,0.44-0.01h2.11v3.61H1.49c-0.16,0-0.3,0-0.42,0c-0.12,0-0.2-0.01-0.25-0.02
		c-0.04-0.01-0.07-0.02-0.1-0.04c-0.03-0.02-0.05-0.03-0.06-0.04c-0.06-0.04-0.1-0.1-0.13-0.16c-0.03-0.07-0.05-0.15-0.06-0.22
		l-0.01-0.05l-0.23-0.02v2.1h0.23l0.01-0.05C0.48,25.73,0.51,25.66,0.53,25.59z"/>
	<path style="fill:#FFFFFF;" d="M5.26,34.02c0.21-0.1,0.4-0.2,0.56-0.31c0.16-0.11,0.28-0.21,0.38-0.3
		c0.09-0.09,0.21-0.21,0.34-0.36c0.13-0.15,0.25-0.33,0.37-0.55c0.11-0.22,0.21-0.47,0.29-0.75c0.08-0.28,0.12-0.6,0.12-0.94
		c0-0.4-0.05-0.77-0.15-1.09c-0.1-0.32-0.22-0.6-0.36-0.84c-0.14-0.24-0.29-0.44-0.45-0.61c-0.16-0.16-0.3-0.29-0.41-0.39
		c-0.09-0.07-0.2-0.15-0.34-0.24c-0.14-0.09-0.31-0.18-0.5-0.26c-0.19-0.08-0.41-0.15-0.66-0.2c-0.25-0.05-0.52-0.09-0.83-0.09
		c-0.37,0-0.71,0.04-1.01,0.13c-0.29,0.08-0.56,0.19-0.79,0.32c-0.23,0.12-0.42,0.26-0.58,0.4c-0.16,0.14-0.28,0.27-0.38,0.38
		c-0.29,0.35-0.5,0.73-0.63,1.13c-0.13,0.4-0.19,0.83-0.19,1.27c0,0.56,0.09,1.07,0.26,1.52c0.18,0.45,0.48,0.87,0.91,1.25
		c0.23,0.2,0.47,0.37,0.71,0.49c0.24,0.12,0.46,0.21,0.68,0.27c0.21,0.06,0.41,0.09,0.59,0.11c0.17,0.01,0.32,0.02,0.43,0.02
		c0.34,0,0.65-0.03,0.92-0.1C4.8,34.2,5.05,34.12,5.26,34.02z M0.61,30.81c0-0.33,0.05-0.62,0.14-0.87c0.1-0.25,0.21-0.47,0.35-0.65
		c0.13-0.18,0.27-0.33,0.42-0.44c0.15-0.12,0.27-0.21,0.37-0.27c0.19-0.12,0.37-0.21,0.55-0.28c0.18-0.07,0.35-0.12,0.51-0.15
		c0.16-0.03,0.3-0.05,0.43-0.06c0.13-0.01,0.24-0.02,0.33-0.02c0.33,0,0.63,0.03,0.89,0.1c0.26,0.06,0.49,0.15,0.69,0.25
		c0.19,0.1,0.36,0.21,0.5,0.33c0.14,0.12,0.25,0.23,0.34,0.34c0.12,0.15,0.22,0.31,0.3,0.48c0.07,0.16,0.13,0.32,0.17,0.46
		c0.04,0.14,0.06,0.28,0.07,0.39c0.01,0.12,0.01,0.21,0.01,0.28c0,0.27-0.03,0.51-0.09,0.71c-0.06,0.21-0.14,0.39-0.23,0.55
		c-0.09,0.16-0.18,0.29-0.28,0.4c-0.1,0.11-0.19,0.2-0.27,0.26c-0.11,0.08-0.23,0.17-0.4,0.27c-0.15,0.1-0.34,0.18-0.56,0.26
		c-0.21,0.08-0.46,0.14-0.73,0.17c-0.27,0.04-0.58,0.04-0.9,0.02c-0.08-0.01-0.19-0.02-0.35-0.04c-0.15-0.02-0.33-0.07-0.53-0.13
		c-0.26-0.09-0.5-0.22-0.71-0.37c-0.21-0.15-0.39-0.33-0.55-0.53c-0.15-0.21-0.27-0.43-0.35-0.68C0.65,31.35,0.61,31.08,0.61,30.81z
		"/>
	<path style="fill:#FFFFFF;" d="M1.37,40.28c-0.1-0.03-0.19-0.06-0.25-0.09c-0.06-0.03-0.1-0.05-0.13-0.09
		c-0.05-0.05-0.08-0.1-0.1-0.16c-0.02-0.07-0.04-0.13-0.05-0.2c-0.01-0.07-0.01-0.14-0.02-0.21c0-0.07-0.01-0.14-0.01-0.2v-1.31
		l0.02-0.38c0-0.08,0.02-0.15,0.06-0.22c0.06-0.11,0.15-0.18,0.26-0.2c0.13-0.02,0.32-0.04,0.55-0.05h4.08
		c0.17,0.01,0.32,0.01,0.45,0.02c0.13,0.01,0.23,0.02,0.28,0.03c0.07,0.02,0.13,0.06,0.18,0.1c0.05,0.04,0.08,0.09,0.11,0.14
		c0.03,0.05,0.04,0.09,0.05,0.14c0.01,0.04,0.02,0.08,0.02,0.11l0.01,0.04H7.1v-2.19H6.89L6.88,35.6c-0.01,0.02-0.01,0.06-0.03,0.12
		c-0.01,0.04-0.03,0.09-0.05,0.14c-0.03,0.05-0.06,0.1-0.11,0.15c-0.04,0.05-0.11,0.09-0.18,0.11c-0.06,0.02-0.16,0.04-0.28,0.04
		c-0.13,0.01-0.28,0.01-0.45,0.01H1.78c-0.17,0-0.34,0-0.5-0.01c-0.16,0-0.26-0.01-0.31-0.01c-0.11-0.02-0.19-0.05-0.25-0.09
		c-0.06-0.05-0.11-0.09-0.15-0.14c-0.04-0.05-0.07-0.11-0.08-0.16c-0.02-0.06-0.03-0.11-0.03-0.14l-0.01-0.05H0.23v4.93h1.18v-0.22
		L1.37,40.28z"/>
	<path style="fill:#FFFFFF;" d="M0.55,43.29c0.03-0.07,0.08-0.13,0.14-0.19c0.06-0.05,0.12-0.08,0.18-0.09C0.96,43,1.01,43,1.04,43
		c0.07-0.01,0.14-0.02,0.22-0.02h4.63c0.16,0,0.29,0,0.41,0.01c0.1,0,0.19,0.01,0.25,0.03c0.07,0.02,0.13,0.05,0.17,0.09
		c0.04,0.04,0.07,0.08,0.1,0.13c0.02,0.05,0.04,0.1,0.05,0.13l0,0.02c0.01,0.04,0.01,0.07,0.02,0.09l0.01,0.04H7.1v-2.11H6.89
		l-0.01,0.04c-0.01,0.03-0.02,0.07-0.02,0.12c-0.01,0.04-0.03,0.09-0.05,0.15c-0.02,0.05-0.06,0.1-0.1,0.15
		c-0.04,0.04-0.11,0.08-0.19,0.11c-0.07,0.02-0.15,0.04-0.24,0.04c-0.1,0-0.22,0-0.39,0H1.51c-0.22-0.01-0.39-0.01-0.51-0.02
		c-0.11,0-0.21-0.03-0.28-0.09c-0.08-0.06-0.13-0.12-0.17-0.19c-0.03-0.08-0.06-0.16-0.08-0.25l-0.01-0.05H0.23v2.14h0.22l0.01-0.04
		C0.49,43.45,0.52,43.37,0.55,43.29z"/>
	<path style="fill:#FFFFFF;" d="M5.21,46.13c0.18,0.09,0.34,0.2,0.46,0.3c0.13,0.11,0.23,0.21,0.31,0.3
		c0.17,0.2,0.31,0.42,0.41,0.63c0.1,0.22,0.17,0.43,0.21,0.62c0.05,0.2,0.07,0.38,0.08,0.54c0.01,0.16,0.01,0.28,0.01,0.37
		c0,0.25-0.03,0.52-0.08,0.8c-0.05,0.28-0.16,0.52-0.32,0.72C6.21,50.54,6.1,50.64,6,50.7l-0.29,0.16v0.21l1.23,0.04l0.01-0.05
		c0.08-0.26,0.14-0.5,0.18-0.71c0.04-0.21,0.08-0.39,0.11-0.56c0.02-0.17,0.04-0.32,0.05-0.46c0.01-0.14,0.01-0.28,0.01-0.41
		c0-0.13-0.01-0.3-0.02-0.53c-0.01-0.23-0.05-0.48-0.12-0.76c-0.07-0.28-0.18-0.57-0.33-0.87c-0.15-0.31-0.36-0.6-0.62-0.88
		c-0.24-0.25-0.49-0.45-0.74-0.6c-0.25-0.15-0.5-0.26-0.74-0.33c-0.23-0.07-0.46-0.12-0.66-0.14c-0.2-0.02-0.36-0.03-0.49-0.03
		c-0.37,0-0.72,0.05-1.06,0.15c-0.34,0.1-0.65,0.24-0.93,0.43c-0.28,0.19-0.54,0.42-0.76,0.69c-0.22,0.27-0.4,0.58-0.54,0.92
		c-0.07,0.17-0.13,0.35-0.16,0.52c-0.04,0.17-0.06,0.33-0.08,0.47c-0.02,0.14-0.03,0.28-0.03,0.39c0,0.11-0.01,0.2-0.01,0.26
		c0,0.27,0.02,0.57,0.06,0.91c0.04,0.34,0.1,0.64,0.17,0.9c0.03,0.11,0.06,0.21,0.09,0.32c0.03,0.11,0.07,0.21,0.11,0.32l0.01,0.04
		l1.18-0.04v-0.21l-0.04-0.02c-0.05-0.02-0.11-0.04-0.19-0.08c-0.07-0.03-0.15-0.09-0.25-0.17c-0.04-0.04-0.08-0.09-0.14-0.15
		c-0.05-0.06-0.11-0.14-0.15-0.25c-0.06-0.13-0.11-0.27-0.14-0.41c-0.04-0.15-0.06-0.28-0.08-0.41c-0.02-0.14-0.03-0.24-0.03-0.34
		c0-0.1,0-0.17,0-0.2c0-0.12,0.01-0.26,0.02-0.43c0.01-0.17,0.05-0.36,0.11-0.57c0.06-0.2,0.16-0.42,0.28-0.63
		c0.13-0.22,0.31-0.43,0.53-0.64c0.09-0.08,0.2-0.16,0.33-0.26c0.13-0.09,0.28-0.17,0.46-0.25c0.18-0.08,0.38-0.14,0.61-0.19
		c0.23-0.05,0.49-0.08,0.77-0.08c0.31,0,0.58,0.03,0.83,0.1C4.82,45.95,5.03,46.03,5.21,46.13z"/>
	<path style="fill:#FFFFFF;" d="M6.82,63.21v0.06c0,0.01-0.01,0.02-0.01,0.05l-0.03,0.12c-0.01,0.04-0.03,0.08-0.05,0.13
		c-0.02,0.04-0.05,0.08-0.08,0.1c-0.09,0.08-0.21,0.11-0.35,0.11c-0.15,0-0.29,0-0.4,0H2.83c-0.16,0-0.31,0-0.43-0.01
		c-0.12-0.01-0.23-0.02-0.33-0.04c-0.1-0.01-0.18-0.04-0.26-0.06c-0.08-0.02-0.16-0.05-0.24-0.08c-0.1-0.04-0.19-0.09-0.25-0.13
		c-0.07-0.05-0.12-0.08-0.15-0.1c-0.06-0.06-0.13-0.12-0.19-0.21c-0.07-0.09-0.13-0.19-0.18-0.31c-0.06-0.12-0.1-0.27-0.14-0.43
		c-0.04-0.16-0.06-0.34-0.06-0.55c0-0.3,0.06-0.6,0.16-0.88c0.11-0.28,0.29-0.52,0.54-0.72c0.12-0.09,0.25-0.16,0.37-0.21
		c0.13-0.05,0.26-0.09,0.39-0.11c0.13-0.03,0.27-0.04,0.41-0.05c0.14-0.01,0.28-0.01,0.44-0.01h3.02c0.13,0.01,0.25,0.01,0.35,0.01
		c0.09,0,0.17,0.02,0.24,0.05c0.07,0.03,0.12,0.08,0.17,0.14c0.05,0.07,0.09,0.18,0.13,0.32l0.01,0.04l0.22,0.02v-2.11H6.83
		L6.82,58.4c-0.05,0.18-0.1,0.29-0.15,0.35c-0.06,0.08-0.14,0.13-0.24,0.14C6.3,58.9,6.14,58.9,5.93,58.9H2.85
		c-0.32-0.01-0.58,0-0.77,0.03C1.9,58.96,1.73,59,1.57,59.05c-0.18,0.06-0.37,0.16-0.55,0.29c-0.19,0.13-0.36,0.3-0.51,0.51
		c-0.15,0.21-0.27,0.47-0.37,0.78C0.05,60.94,0,61.3,0,61.73c0,0.43,0.05,0.8,0.16,1.11c0.1,0.3,0.24,0.56,0.4,0.76
		c0.16,0.2,0.35,0.36,0.55,0.47c0.2,0.11,0.39,0.19,0.58,0.24c0.12,0.03,0.25,0.06,0.38,0.07c0.13,0.02,0.25,0.03,0.36,0.03
		c0.11,0,0.2,0,0.28,0h3.25c0.17,0,0.3,0,0.39,0.01c0.08,0,0.16,0.03,0.23,0.08c0.08,0.05,0.13,0.11,0.16,0.18
		c0.03,0.07,0.06,0.16,0.08,0.26l0.01,0.05h0.21v-1.76L6.82,63.21z"/>
	<path style="fill:#FFFFFF;" d="M6.83,71.34l-0.01,0.05c-0.05,0.22-0.12,0.36-0.2,0.42c-0.09,0.06-0.2,0.1-0.31,0.11
		c-0.07,0.01-0.13,0.02-0.2,0.01c-0.07,0-0.12,0-0.14,0H2.01l5.01-4.41l0.02-0.02v-1.46H6.82L6.82,66.1
		c-0.01,0.1-0.03,0.18-0.06,0.26c-0.02,0.07-0.08,0.13-0.16,0.17c-0.06,0.04-0.13,0.06-0.21,0.06c-0.09,0-0.22,0-0.37,0h-4.8
		c-0.09,0-0.2,0-0.33-0.01c-0.11-0.01-0.21-0.04-0.28-0.1c-0.08-0.06-0.13-0.13-0.15-0.21c-0.02-0.09-0.04-0.16-0.04-0.19L0.4,66.04
		l-0.23-0.02v1.78H0.4l0.01-0.05c0.03-0.14,0.08-0.25,0.14-0.33c0.06-0.08,0.16-0.13,0.3-0.16c0.05-0.01,0.1-0.01,0.15-0.01
		c0.05,0,0.12,0,0.22,0h4.67l-5.82,5.12v0.17l5.91,0l0.41,0.02c0.11,0.01,0.21,0.06,0.3,0.17c0.03,0.04,0.06,0.08,0.08,0.12
		c0.02,0.05,0.04,0.12,0.06,0.21l0.01,0.05l0.22,0.02v-1.78H6.83z"/>
	<path style="fill:#FFFFFF;" d="M0.49,76.12c0.03-0.07,0.08-0.13,0.14-0.19c0.06-0.05,0.12-0.08,0.19-0.09
		c0.09-0.01,0.13-0.01,0.16-0.01c0.07-0.01,0.14-0.02,0.22-0.02h4.63c0.16,0,0.29,0,0.4,0.01c0.1,0,0.19,0.01,0.25,0.03
		c0.07,0.02,0.13,0.05,0.17,0.09c0.04,0.04,0.07,0.08,0.09,0.13c0.02,0.05,0.04,0.1,0.05,0.13l0.01,0.02
		c0.01,0.04,0.01,0.07,0.02,0.09l0.01,0.04h0.21v-2.11H6.83l-0.01,0.04c-0.01,0.03-0.01,0.07-0.02,0.12
		c-0.01,0.04-0.02,0.09-0.05,0.15c-0.02,0.05-0.06,0.1-0.1,0.15c-0.04,0.05-0.11,0.08-0.18,0.11c-0.07,0.02-0.15,0.04-0.24,0.04
		c-0.09,0-0.22,0.01-0.39,0.01H1.45c-0.22-0.01-0.39-0.01-0.51-0.02c-0.11,0-0.21-0.03-0.28-0.09c-0.08-0.05-0.13-0.12-0.17-0.19
		c-0.03-0.08-0.06-0.16-0.08-0.25L0.4,74.26H0.17v2.14h0.22l0.01-0.04C0.43,76.27,0.46,76.19,0.49,76.12z"/>
	<path style="fill:#FFFFFF;" d="M6.83,81.99l-0.01,0.05c-0.02,0.07-0.04,0.14-0.06,0.21c-0.02,0.06-0.05,0.1-0.11,0.14
		c-0.03,0.02-0.06,0.03-0.08,0.03c-0.03,0-0.06,0-0.08,0c-0.06,0-0.12-0.01-0.18-0.02c-0.06-0.02-0.13-0.03-0.18-0.06
		c-0.06-0.02-0.11-0.04-0.15-0.06c-0.04-0.02-0.07-0.03-0.08-0.03l-4.05-1.76l4.05-1.67l0.19-0.08c0.06-0.02,0.12-0.04,0.18-0.06
		c0.09-0.02,0.16-0.03,0.22-0.03c0.09,0,0.15,0.03,0.2,0.08c0.05,0.06,0.09,0.17,0.12,0.34l0.01,0.05h0.22v-2.15H6.83l-0.01,0.04
		c-0.02,0.08-0.04,0.14-0.06,0.19c-0.02,0.05-0.06,0.1-0.11,0.16c-0.07,0.08-0.15,0.14-0.23,0.18c-0.09,0.04-0.15,0.07-0.19,0.08
		c-0.09,0.04-0.19,0.09-0.28,0.13c-0.09,0.04-0.19,0.08-0.3,0.12L0.12,80.2l-0.04,0.01v0.18l5.65,2.47c0.11,0.05,0.24,0.11,0.4,0.17
		c0.15,0.06,0.28,0.13,0.38,0.2c0.1,0.06,0.17,0.13,0.21,0.19c0.04,0.07,0.07,0.16,0.1,0.28l0.01,0.05h0.22v-1.76H6.83z"/>
	<path style="fill:#FFFFFF;" d="M1.32,88.92c-0.08-0.03-0.16-0.05-0.23-0.08c-0.06-0.02-0.13-0.06-0.18-0.12
		c-0.06-0.06-0.1-0.13-0.11-0.2c-0.01-0.11-0.02-0.15-0.02-0.18c-0.01-0.07-0.02-0.13-0.02-0.19v-1.08
		c0.01-0.23,0.01-0.44,0.02-0.62c0.01-0.17,0.04-0.28,0.09-0.35c0.02-0.03,0.04-0.05,0.06-0.06C0.96,86.02,0.98,86.01,1,86
		c0.1-0.05,0.21-0.07,0.33-0.08c0.13,0,0.25-0.01,0.35-0.01h1.87v1.41c0,0.14-0.01,0.28-0.03,0.42c-0.02,0.12-0.09,0.22-0.21,0.29
		c-0.03,0.01-0.07,0.02-0.11,0.04c-0.03,0.01-0.09,0.03-0.16,0.05l-0.05,0.01v0.23h1.74v-0.22l-0.04-0.01
		c-0.02-0.01-0.06-0.02-0.11-0.02c-0.04-0.01-0.09-0.03-0.14-0.05c-0.05-0.02-0.1-0.06-0.15-0.1c-0.05-0.04-0.08-0.09-0.1-0.16
		c-0.03-0.08-0.04-0.16-0.04-0.24v-1.64h2.32v1.75c0,0.12-0.01,0.24-0.04,0.34c-0.02,0.09-0.09,0.16-0.2,0.23
		c-0.04,0.02-0.09,0.04-0.13,0.05c-0.05,0.02-0.1,0.03-0.15,0.04L5.9,88.34l-0.02,0.22l1.16,0.02v-4.21H6.82v0.06
		c0,0.02,0,0.05-0.01,0.09c-0.01,0.05-0.02,0.09-0.04,0.14c-0.02,0.05-0.05,0.1-0.09,0.14c-0.04,0.04-0.09,0.07-0.17,0.1
		c-0.07,0.03-0.15,0.04-0.23,0.04H1.48c-0.09-0.01-0.19-0.01-0.28-0.01c-0.09,0-0.19,0-0.28,0c-0.09-0.01-0.18-0.03-0.25-0.06
		c-0.07-0.04-0.13-0.09-0.18-0.18c-0.02-0.03-0.04-0.07-0.05-0.11c-0.01-0.05-0.03-0.1-0.04-0.15L0.4,84.39l-0.22-0.02v4.78h1.19
		v-0.22L1.32,88.92z"/>
	<path style="fill:#FFFFFF;" d="M0.45,96.02c0.02-0.05,0.06-0.11,0.1-0.15c0.04-0.06,0.1-0.11,0.16-0.14
		c0.07-0.04,0.12-0.07,0.14-0.08c0.16-0.11,0.33-0.21,0.51-0.3l2.4-1.31c0.01,0.03,0.04,0.07,0.06,0.12
		c0.04,0.08,0.1,0.17,0.17,0.28c0.07,0.1,0.16,0.2,0.26,0.3c0.1,0.1,0.22,0.19,0.36,0.26c0.22,0.11,0.47,0.17,0.74,0.17
		c0.26,0,0.47-0.04,0.65-0.12c0.17-0.08,0.29-0.14,0.37-0.2c0.17-0.13,0.3-0.27,0.39-0.44c0.09-0.16,0.15-0.33,0.2-0.51
		c0.04-0.18,0.07-0.36,0.07-0.55c0.01-0.18,0.01-0.36,0.01-0.54v-2.44l-0.23,0l0,0.06c0,0.01,0,0.04-0.01,0.07
		c-0.01,0.04-0.02,0.09-0.04,0.14c-0.02,0.05-0.04,0.09-0.08,0.14c-0.03,0.04-0.08,0.08-0.13,0.11c-0.06,0.03-0.14,0.04-0.23,0.05
		c-0.1,0.01-0.22,0.01-0.38,0.01H1.34c-0.15-0.01-0.28-0.01-0.39-0.01c-0.1,0-0.17-0.02-0.23-0.04c-0.06-0.02-0.11-0.05-0.15-0.09
		c-0.04-0.04-0.07-0.09-0.09-0.14c-0.02-0.05-0.04-0.09-0.05-0.13c-0.01-0.05-0.01-0.08-0.01-0.08v-0.06H0.17v2.16H0.4l0.01-0.05
		c0.04-0.14,0.07-0.23,0.1-0.29c0.02-0.06,0.06-0.11,0.11-0.15c0.06-0.06,0.12-0.09,0.17-0.1c0.06-0.01,0.14-0.02,0.22-0.03
		c0.05-0.01,0.11-0.01,0.17-0.01c0.06,0,0.13,0,0.19-0.01h2.07c0,0.06,0,0.13-0.01,0.19c-0.01,0.19-0.01,0.42,0.01,0.65
		c0.01,0.12,0.02,0.24,0.03,0.35l-2.27,1.23c-0.13,0.07-0.27,0.15-0.41,0.23c-0.15,0.09-0.28,0.2-0.38,0.32
		c-0.07,0.08-0.12,0.17-0.15,0.25c-0.03,0.08-0.06,0.16-0.07,0.24c-0.02,0.08-0.02,0.15-0.02,0.21v0.59h0.22l0.01-0.03
		C0.41,96.12,0.43,96.08,0.45,96.02z M6.44,91.93v0.68c0.01,0.18,0,0.37-0.02,0.55c-0.02,0.18-0.08,0.35-0.18,0.5
		c-0.11,0.17-0.25,0.3-0.42,0.37c-0.18,0.08-0.37,0.12-0.56,0.12c-0.15,0-0.28-0.02-0.39-0.04c-0.11-0.03-0.18-0.06-0.23-0.09
		c-0.13-0.07-0.24-0.16-0.31-0.26c-0.08-0.1-0.14-0.22-0.18-0.35c-0.04-0.13-0.07-0.27-0.09-0.41c-0.02-0.14-0.02-0.28-0.02-0.42
		v-0.65L6.44,91.93z"/>
	<path style="fill:#FFFFFF;" d="M3.78,100.34l0.21-0.32l0.38-0.64c0.1-0.16,0.21-0.33,0.34-0.51c0.11-0.16,0.27-0.29,0.45-0.36
		c0.08-0.03,0.16-0.05,0.23-0.05c0.07-0.01,0.12-0.01,0.15-0.01c0.17,0,0.33,0.03,0.46,0.09c0.13,0.06,0.25,0.15,0.34,0.25
		c0.09,0.11,0.16,0.23,0.21,0.38c0.05,0.15,0.07,0.3,0.07,0.47c0,0.23-0.03,0.42-0.1,0.57c-0.07,0.15-0.15,0.28-0.25,0.37
		c-0.1,0.09-0.2,0.17-0.3,0.22c-0.11,0.05-0.21,0.1-0.29,0.14l-0.04,0.02v0.2h1.22l0.01-0.04c0.02-0.07,0.06-0.15,0.09-0.25
		c0.04-0.1,0.07-0.21,0.11-0.34c0.03-0.12,0.06-0.27,0.09-0.42c0.03-0.16,0.04-0.33,0.04-0.53c0-0.06,0-0.16-0.01-0.27
		c-0.01-0.12-0.03-0.25-0.06-0.39c-0.04-0.14-0.09-0.29-0.18-0.45c-0.08-0.16-0.2-0.3-0.34-0.44c-0.09-0.09-0.24-0.19-0.43-0.3
		c-0.2-0.11-0.46-0.16-0.78-0.16c-0.1,0-0.22,0.01-0.34,0.03c-0.13,0.02-0.25,0.06-0.39,0.12c-0.13,0.06-0.27,0.15-0.41,0.27
		c-0.14,0.12-0.28,0.27-0.42,0.47c-0.04,0.07-0.09,0.13-0.12,0.19l-0.02,0.03c-0.03,0.05-0.06,0.1-0.09,0.15l-0.36,0.61
		c-0.11,0.19-0.23,0.36-0.36,0.52c-0.12,0.15-0.29,0.27-0.49,0.36c-0.04,0.02-0.11,0.04-0.19,0.06c-0.08,0.03-0.19,0.04-0.31,0.04
		c-0.18,0-0.32-0.02-0.43-0.07c-0.12-0.05-0.21-0.09-0.26-0.11c-0.22-0.14-0.38-0.32-0.48-0.54c-0.1-0.22-0.15-0.46-0.15-0.72
		c0-0.16,0.02-0.3,0.05-0.43c0.03-0.12,0.08-0.23,0.13-0.33c0.05-0.09,0.11-0.17,0.17-0.23c0.06-0.06,0.12-0.11,0.17-0.15
		c0.05-0.03,0.11-0.06,0.17-0.1c0.06-0.03,0.16-0.08,0.28-0.13l0.03-0.01l0.02-0.21H0.39l-0.02,0.04C0.3,97.56,0.22,97.76,0.13,98
		C0.04,98.25,0,98.58,0,98.97c0,0.07,0,0.17,0.01,0.3c0.01,0.13,0.03,0.27,0.06,0.43c0.04,0.16,0.1,0.33,0.18,0.5
		c0.08,0.18,0.2,0.34,0.36,0.51c0.13,0.14,0.28,0.26,0.42,0.34c0.14,0.08,0.28,0.14,0.41,0.19c0.14,0.04,0.26,0.07,0.37,0.08
		c0.11,0.01,0.2,0.01,0.27,0.01c0.54,0,1.01-0.2,1.38-0.6C3.58,100.62,3.69,100.49,3.78,100.34z"/>
	<path style="fill:#FFFFFF;" d="M0.49,104.71c0.03-0.07,0.08-0.13,0.14-0.19c0.06-0.05,0.12-0.08,0.19-0.09
		c0.09-0.01,0.13-0.01,0.16-0.02c0.07-0.01,0.14-0.02,0.22-0.02h4.63c0.16,0,0.29,0,0.4,0.01c0.1,0,0.19,0.01,0.25,0.03
		c0.07,0.02,0.13,0.05,0.17,0.09c0.04,0.04,0.07,0.08,0.09,0.13c0.02,0.05,0.04,0.1,0.05,0.13l0.01,0.02
		c0.01,0.04,0.01,0.07,0.02,0.09l0.01,0.04h0.21v-2.11H6.83l-0.01,0.04c-0.01,0.03-0.01,0.07-0.02,0.12
		c-0.01,0.04-0.02,0.09-0.05,0.15c-0.02,0.05-0.06,0.1-0.1,0.15c-0.04,0.05-0.11,0.08-0.18,0.11c-0.07,0.02-0.15,0.04-0.24,0.04
		c-0.09,0-0.22,0-0.39,0H1.45c-0.22-0.01-0.39-0.01-0.51-0.01c-0.11,0-0.21-0.03-0.28-0.09c-0.08-0.06-0.13-0.12-0.17-0.19
		c-0.03-0.08-0.06-0.16-0.08-0.25l-0.01-0.05H0.17v2.14h0.22l0.01-0.04C0.43,104.86,0.46,104.78,0.49,104.71z"/>
	<path style="fill:#FFFFFF;" d="M5.89,105.62v0.22l0.23,0.05c0.07,0.01,0.14,0.05,0.2,0.12c0.05,0.06,0.09,0.14,0.11,0.23
		c0.02,0.09,0.04,0.23,0.04,0.41v1.31H1.15c-0.18,0-0.32-0.02-0.41-0.06c-0.09-0.04-0.16-0.09-0.21-0.16
		c-0.05-0.06-0.08-0.11-0.09-0.18c-0.02-0.07-0.03-0.12-0.04-0.14l-0.01-0.04l-0.22-0.02v2.18H0.4l0.01-0.05
		c0.03-0.12,0.06-0.21,0.09-0.27c0.03-0.05,0.07-0.11,0.12-0.15c0.05-0.04,0.1-0.08,0.16-0.1c0.05-0.02,0.12-0.03,0.19-0.04
		c0.07-0.01,0.15-0.01,0.25-0.01h5.23v1.43c0,0.2-0.03,0.37-0.08,0.49c-0.05,0.11-0.19,0.18-0.4,0.21l-0.05,0.01v0.22h1.14v-5.67
		H5.89z"/>
	<path style="fill:#FFFFFF;" d="M7.04,116.2H6.82l-0.01,0.05c-0.01,0.08-0.03,0.15-0.04,0.21c-0.01,0.05-0.05,0.09-0.12,0.13
		c-0.05,0.03-0.07,0.04-0.09,0.04c-0.03,0-0.06,0.01-0.08,0.01c-0.08,0-0.17-0.02-0.26-0.07c-0.1-0.05-0.18-0.1-0.26-0.15l-2.14-1.3
		l2.14-1.36c0.07-0.05,0.15-0.1,0.26-0.15c0.1-0.05,0.19-0.07,0.27-0.07c0.07,0,0.12,0.02,0.16,0.04c0.04,0.03,0.07,0.07,0.09,0.11
		c0.03,0.04,0.04,0.08,0.05,0.12c0.01,0.04,0.01,0.06,0.01,0.07v0.06h0.23v-2.15H6.83l-0.01,0.05c-0.02,0.07-0.04,0.13-0.06,0.18
		c-0.02,0.05-0.05,0.09-0.08,0.12c-0.03,0.03-0.06,0.07-0.11,0.1c-0.05,0.04-0.1,0.07-0.16,0.12c-0.05,0.03-0.09,0.06-0.13,0.08
		c-0.04,0.02-0.08,0.06-0.12,0.09l-2.97,1.9H1.21c-0.18,0-0.32-0.01-0.4-0.02c-0.08-0.01-0.15-0.05-0.22-0.11
		c-0.06-0.06-0.1-0.12-0.12-0.18c-0.02-0.07-0.04-0.15-0.05-0.24l-0.01-0.05l-0.23-0.02v2.14H0.4l0.01-0.05
		c0.01-0.03,0.01-0.09,0.03-0.17c0.01-0.07,0.04-0.13,0.1-0.19c0.08-0.09,0.18-0.14,0.3-0.15c0.13-0.02,0.26-0.02,0.38-0.02h1.93
		l3.08,1.9l0.28,0.18c0.09,0.06,0.16,0.13,0.21,0.21c0.03,0.05,0.06,0.1,0.07,0.15c0.01,0.06,0.02,0.11,0.03,0.13l0.02,0.04h0.21
		V116.2z"/>
	<path style="fill:#FFFFFF;" d="M39.44,0.01v0.06c0,0.08-0.01,0.21-0.04,0.41c-0.02,0.19-0.09,0.39-0.19,0.61
		c-0.1,0.22-0.25,0.43-0.42,0.64c-0.18,0.2-0.44,0.36-0.77,0.46c-0.22,0.1-0.51,0.15-0.86,0.15H15.29c-0.49,0-0.88-0.06-1.17-0.19
		c-0.51-0.16-0.86-0.42-1.05-0.8c-0.19-0.38-0.36-0.82-0.49-1.29l-0.01-0.04h-0.58v8.58h0.58l0.01-0.04
		c0.13-0.47,0.29-0.92,0.47-1.33c0.18-0.41,0.52-0.7,1.04-0.91c0.2-0.1,0.4-0.17,0.6-0.21c0.19-0.04,0.41-0.06,0.66-0.06h10.62
		l0,5.96c-0.03,0.59-0.06,1.21-0.11,1.83c-0.06,0.59-0.33,1.06-0.81,1.4c-0.13,0.12-0.3,0.22-0.51,0.28
		c-0.24,0.07-0.54,0.14-0.88,0.22l-0.05,0.01v0.58h6.84v-0.59h-0.06c-0.02,0-0.1,0-0.34-0.06c-0.2-0.04-0.4-0.1-0.6-0.17
		c-0.23-0.09-0.45-0.21-0.66-0.37c-0.22-0.17-0.37-0.37-0.48-0.63c-0.12-0.28-0.2-0.62-0.21-1c-0.01-0.39-0.02-0.89-0.02-1.49V6.03
		H38.1v7.1c-0.03,0.54-0.09,1.09-0.18,1.64c-0.08,0.53-0.39,0.97-0.9,1.3c-0.21,0.13-0.41,0.23-0.62,0.31
		c-0.22,0.08-0.43,0.14-0.63,0.19l-0.05,0.01v0.58l4.21,0.04H40V0.01H39.44z"/>
	<path style="fill:#FFFFFF;" d="M39.5,40.7l-0.06,0l0,0.06c0,0.01-0.01,0.08-0.06,0.24c-0.04,0.14-0.09,0.31-0.14,0.49
		c-0.05,0.18-0.13,0.37-0.23,0.56c-0.1,0.18-0.23,0.34-0.38,0.47c-0.41,0.33-0.94,0.5-1.57,0.52c-0.61,0.01-1.16,0.02-1.64,0.02
		H22.8c-0.69,0-1.29-0.02-1.79-0.06c-0.49-0.03-0.96-0.09-1.38-0.16c-0.39-0.06-0.76-0.15-1.1-0.25c-0.33-0.11-0.67-0.22-1-0.35
		c-0.44-0.19-0.79-0.38-1.08-0.57c-0.27-0.18-0.5-0.33-0.64-0.45c-0.27-0.24-0.54-0.54-0.82-0.9c-0.29-0.37-0.55-0.82-0.78-1.33
		c-0.24-0.52-0.44-1.12-0.61-1.8c-0.17-0.68-0.26-1.45-0.26-2.31c0-1.27,0.23-2.52,0.69-3.71c0.46-1.2,1.23-2.22,2.29-3.04
		c0.52-0.39,1.06-0.7,1.59-0.92c0.52-0.22,1.08-0.38,1.65-0.49c0.57-0.11,1.14-0.17,1.71-0.2c0.58-0.02,1.19-0.04,1.81-0.04h12.48
		c0.52,0.02,1.02,0.04,1.46,0.06c0.4,0.01,0.77,0.08,1.08,0.21c0.3,0.13,0.57,0.35,0.78,0.65c0.22,0.31,0.41,0.78,0.56,1.4
		l0.01,0.04L40,28.9v-8.31h-0.54l-0.01,0.04c-0.21,0.75-0.43,1.25-0.66,1.52c-0.28,0.38-0.66,0.59-1.14,0.64
		c-0.5,0.05-1.17,0.08-2.05,0.08H22.88c-1.33-0.03-2.36,0.01-3.13,0.12c-0.77,0.11-1.48,0.27-2.11,0.47
		c-0.74,0.26-1.49,0.66-2.25,1.17c-0.75,0.51-1.44,1.21-2.04,2.06c-0.6,0.84-1.11,1.91-1.49,3.16c-0.38,1.25-0.57,2.76-0.57,4.48
		c0,1.76,0.21,3.27,0.63,4.5c0.42,1.23,0.97,2.26,1.63,3.07c0.66,0.81,1.41,1.44,2.21,1.88c0.81,0.45,1.61,0.79,2.36,1
		c0.54,0.14,1.04,0.23,1.53,0.29c0.54,0.07,1.02,0.1,1.45,0.12c0.42,0.01,0.82,0.02,1.17,0.02h13.45c0.71,0,1.25,0.01,1.63,0.04
		c0.37,0.02,0.72,0.14,1.02,0.34c0.36,0.22,0.6,0.51,0.73,0.84c0.14,0.35,0.26,0.72,0.35,1.1l0.01,0.04H40V40.7H39.5z"/>
	<path style="fill:#FFFFFF;" d="M16.49,83.05c-0.32-0.1-0.64-0.2-0.96-0.31c-0.29-0.1-0.57-0.28-0.83-0.54
		c-0.28-0.27-0.45-0.59-0.5-0.95c-0.07-0.44-0.08-0.65-0.08-0.75c-0.05-0.28-0.08-0.56-0.08-0.82V75.2c0.03-1,0.06-1.84,0.1-2.56
		c0.04-0.72,0.17-1.24,0.4-1.54c0.11-0.13,0.21-0.22,0.3-0.28c0.09-0.05,0.18-0.11,0.27-0.17c0.43-0.2,0.92-0.31,1.44-0.33
		c0.59-0.02,1.06-0.04,1.46-0.06h7.92v6c0,0.61-0.05,1.21-0.14,1.79c-0.09,0.56-0.43,1.02-1.01,1.35c-0.13,0.05-0.28,0.11-0.44,0.18
		c-0.16,0.07-0.4,0.14-0.7,0.21l-0.05,0.01v0.58h6.8V79.8l-0.04-0.01c-0.07-0.02-0.2-0.05-0.42-0.1c-0.2-0.04-0.41-0.11-0.62-0.21
		c-0.22-0.1-0.44-0.25-0.66-0.44c-0.22-0.19-0.38-0.44-0.48-0.74c-0.13-0.33-0.19-0.68-0.19-1.06v-6.97h9.99v7.42
		c0,0.5-0.05,0.99-0.15,1.44c-0.11,0.43-0.41,0.78-0.92,1.06c-0.19,0.1-0.38,0.19-0.58,0.25c-0.25,0.08-0.45,0.13-0.63,0.18
		l-0.04,0.01l-0.05,0.58l4.33,0.08l0.06,0V64.27h-0.56v0.06c0,0.08-0.01,0.22-0.04,0.42c-0.02,0.2-0.09,0.41-0.19,0.63
		c-0.1,0.22-0.25,0.43-0.42,0.64c-0.18,0.2-0.44,0.36-0.77,0.46c-0.3,0.12-0.64,0.19-1,0.19l-19.83,0
		c-0.37-0.03-0.75-0.03-1.13-0.02c-0.38,0.01-0.77,0.01-1.16-0.02c-0.41-0.02-0.79-0.12-1.12-0.29c-0.34-0.17-0.6-0.44-0.8-0.82
		c-0.1-0.15-0.18-0.32-0.23-0.52c-0.06-0.19-0.11-0.39-0.16-0.61l-0.01-0.04l-0.58-0.05v19.33h4.54v-0.58L16.49,83.05z"/>
	<path style="fill:#FFFFFF;" d="M40,111.02h-0.54l-0.01,0.05c-0.21,0.96-0.52,1.58-0.92,1.85c-0.41,0.28-0.87,0.45-1.36,0.5
		c-0.29,0.05-0.57,0.07-0.87,0.06c-0.27-0.01-0.48-0.02-0.58-0.02H18.89l21.09-18.55L40,94.9v-5.75h-0.55l-0.01,0.05
		c-0.05,0.39-0.13,0.76-0.25,1.11c-0.11,0.34-0.36,0.61-0.75,0.82c-0.28,0.18-0.61,0.28-0.97,0.29c-0.35,0.01-0.82,0.02-1.56,0.02
		H16.08c-0.36,0-0.8-0.02-1.35-0.06c-0.54-0.04-0.94-0.18-1.26-0.44c-0.38-0.28-0.62-0.61-0.71-0.99c-0.08-0.33-0.15-0.62-0.18-0.79
		l-0.01-0.04l-0.58-0.05v6.97h0.58l0.01-0.05c0.13-0.6,0.33-1.09,0.6-1.45c0.26-0.37,0.72-0.62,1.36-0.74
		c0.2-0.02,0.41-0.04,0.63-0.06c0.21-0.01,0.51-0.02,0.9-0.02h19.83l-24.33,21.42l-0.02,0.02v0.44h24.23
		c0.5,0.02,0.99,0.05,1.46,0.07l0.22,0.01c0.52,0.03,0.97,0.28,1.36,0.77c0.13,0.15,0.24,0.33,0.35,0.56
		c0.11,0.23,0.2,0.54,0.27,0.91l0.01,0.05L40,118V111.02z"/>
	<path style="fill:#FFFFFF;" d="M39.45,51.76l-0.01,0.05c-0.07,0.43-0.21,0.86-0.39,1.27c-0.18,0.39-0.5,0.67-0.99,0.85
		c-0.52,0.16-1.41,0.23-2.71,0.23H12.01c-1.11,0-2.2-0.07-3.25-0.2c-1.05-0.13-2.03-0.56-2.91-1.29c-0.35-0.27-0.68-0.59-1.02-0.97
		c-0.29-0.34-0.49-0.58-0.55-0.66L4.25,51l-0.57,0.33l0.02,0.05c0.31,0.67,0.58,1.21,0.79,1.59c0.2,0.36,0.41,0.7,0.64,1.01
		c0.56,0.87,1.16,1.55,1.81,2.04c0.67,0.5,1.29,0.86,1.89,1.11c0.61,0.25,1.21,0.41,1.77,0.48c0.55,0.06,1.04,0.11,1.45,0.14h23.3
		c1.1,0,1.9,0.04,2.44,0.14c0.53,0.08,0.95,0.41,1.26,0.97c0.1,0.17,0.18,0.33,0.23,0.49c0.05,0.13,0.1,0.38,0.15,0.76l0.01,0.05H40
		v-8.38H39.45z"/>
</g>
</svg>
