<?xml version="1.0" encoding="utf-8"?>
<!-- Generator: Adobe Illustrator 25.0.1, SVG Export Plug-In . SVG Version: 6.00 Build 0)  -->
<svg version="1.1" id="圖層_1" xmlns="http://www.w3.org/2000/svg" xmlns:xlink="http://www.w3.org/1999/xlink" x="0px" y="0px"
	 viewBox="0 0 90 102" style="enable-background:new 0 0 90 102;" xml:space="preserve">
<path style="fill:#FFFFFF;" d="M0,0v102h90V0H0z M87,50.81l0,0.16c-0.16,23.7-17.47,43.42-40.4,47.93C46.07,98.96,45.55,99,45,99
	c-0.57,0-1.13-0.05-1.67-0.12C20.33,94.32,3,74.47,3,50.66c0-0.51,0.01-1.02,0.03-1.52V22.65c0-7.12,5.91-12.89,13.19-12.89
	c0.64,0,1.25,0.04,1.87,0.13c1.4,0.18,2.83,0.28,4.28,0.28c5.46,0,10.61-1.33,15.12-3.68c0.68-0.35,1.35-0.74,2.01-1.14
	c0.32-0.19,0.64-0.4,0.95-0.6c0.28-0.19,0.83-0.57,0.83-0.57C42.32,3.43,43.62,3,45.01,3c1.39,0,2.69,0.43,3.74,1.17
	c0,0,0.55,0.38,0.83,0.57c0.31,0.2,0.63,0.41,0.95,0.6c0.66,0.4,1.33,0.78,2.01,1.14c4.51,2.35,9.66,3.68,15.13,3.68
	c1.45,0,2.86-0.1,4.25-0.27c0.61-0.09,1.25-0.14,1.89-0.14C81.09,9.76,87,15.53,87,22.65V50.81z"/>
</svg>
