<?xml version="1.0" encoding="utf-8"?>
<!-- Generator: Adobe Illustrator 25.0.1, SVG Export Plug-In . SVG Version: 6.00 Build 0)  -->
<svg version="1.1" id="圖層_1" xmlns="http://www.w3.org/2000/svg" xmlns:xlink="http://www.w3.org/1999/xlink" x="0px" y="0px"
	 viewBox="0 0 278 160" style="enable-background:new 0 0 278 160;" xml:space="preserve">
<g>
	<g>
		<path style="fill:#BEA679;" d="M266.01,6.33c-0.59,0-1.16,0.05-1.72,0.12c-1.24,0.17-2.57,0.25-3.87,0.25
			c-4.95,0-9.65-1.24-13.76-3.44c-0.58-0.35-1.21-0.69-1.82-1.07c-0.27-0.17-0.58-0.37-0.87-0.57c-0.24-0.17-0.5-0.32-0.73-0.53l0,0
			c-0.95-0.68-2.15-1.1-3.42-1.1c-1.27,0-2.42,0.42-3.41,1.1l0,0c-0.23,0.21-0.49,0.36-0.76,0.53c-0.27,0.2-0.55,0.4-0.86,0.57
			c-0.57,0.37-1.2,0.72-1.79,1.07c-4.11,2.2-8.81,3.44-13.79,3.44c-1.3,0-2.61-0.08-3.89-0.25c-0.55-0.08-1.12-0.12-1.69-0.12
			c-6.63,0-11.97,5.39-11.97,12.04v24.78c-0.04,0.48-0.04,0.94-0.04,1.42c0,22.28,15.73,40.84,36.67,45.09
			c0.48,0.07,0.98,0.11,1.52,0.11c0.49,0,0.97-0.04,1.46-0.09c20.84-4.23,36.58-22.66,36.71-44.82v-0.15V18.37
			C278,11.73,272.64,6.33,266.01,6.33z"/>
	</g>
	<g>
		<path style="fill:#BEA679;" d="M64.41,76.55c-0.59,0-1.15,0.05-1.75,0.13c-1.23,0.16-2.53,0.25-3.89,0.25
			c-4.93,0-9.62-1.24-13.69-3.41c-0.65-0.37-1.25-0.72-1.85-1.09c-0.27-0.18-0.56-0.37-0.87-0.57c-0.25-0.16-0.49-0.35-0.76-0.52
			l0,0c-0.95-0.7-2.13-1.11-3.38-1.11c-1.25,0-2.45,0.41-3.42,1.11l0,0c-0.23,0.17-0.49,0.36-0.78,0.52
			c-0.25,0.19-0.54,0.39-0.81,0.57c-0.6,0.36-1.23,0.71-1.84,1.09c-4.07,2.17-8.78,3.41-13.79,3.41c-1.29,0-2.6-0.09-3.87-0.25
			c-0.54-0.08-1.11-0.13-1.68-0.13c-6.64,0-11.99,5.39-11.99,12.06v24.76C0,113.84,0,114.32,0,114.79
			c0,22.27,15.76,40.84,36.65,45.11c0.53,0.06,1.01,0.1,1.55,0.1c0.47,0,0.96-0.04,1.45-0.1c20.85-4.24,36.58-22.65,36.75-44.82
			v-0.14V88.61C76.4,81.94,71.02,76.55,64.41,76.55z"/>
	</g>
	<g>
		<path style="fill:#BEA679;" d="M198.83,76.55c-0.61,0-1.19,0.05-1.72,0.13c-1.28,0.16-2.57,0.25-3.87,0.25
			c-5,0-9.65-1.24-13.76-3.41c-0.6-0.37-1.23-0.72-1.82-1.09c-0.27-0.18-0.57-0.37-0.86-0.57c-0.27-0.16-0.53-0.35-0.78-0.52l0,0
			c-0.96-0.7-2.12-1.11-3.35-1.11c-1.28,0-2.47,0.41-3.42,1.11l0,0c-0.24,0.17-0.51,0.36-0.76,0.52c-0.29,0.19-0.61,0.39-0.86,0.57
			c-0.59,0.36-1.2,0.71-1.83,1.09c-4.09,2.17-8.78,3.41-13.76,3.41c-1.3,0-2.59-0.09-3.9-0.25c-0.54-0.08-1.09-0.13-1.66-0.13
			c-6.67,0-12.01,5.39-12.01,12.06v24.76c-0.01,0.48-0.01,0.96-0.01,1.43c0,22.27,15.71,40.84,36.63,45.11
			c0.53,0.06,1.02,0.1,1.54,0.1c0.46,0,0.98-0.04,1.44-0.1c20.88-4.24,36.62-22.65,36.74-44.82v-0.14V88.61
			C210.8,81.94,205.42,76.55,198.83,76.55z"/>
	</g>
	<g>
		<path style="fill:#BEA679;" d="M117.65,5.44c-1.83-0.56-3.57-1.29-5.3-2.19c-0.23-0.12-0.4-0.25-0.64-0.36L67.5,47.34
			c0.12,2.52,0.49,5,1.02,7.44L117.65,5.44z"/>
		<path style="fill:#BEA679;" d="M139.42,9.13L76.6,72.22c1.24,1.61,2.51,3.18,3.92,4.59l62.39-62.7
			C142.18,12.16,140.96,10.48,139.42,9.13z"/>
		<path style="fill:#BEA679;" d="M133.59,6.47c-0.64-0.11-1.25-0.15-1.88-0.15c-0.58,0-1.13,0.03-1.67,0.1
			c-1.31,0.17-2.57,0.26-3.91,0.26c-0.4,0-0.81-0.03-1.18-0.03L70.52,61.29c0.76,2.02,1.67,3.94,2.72,5.8L133.59,6.47z"/>
		<path style="fill:#BEA679;" d="M67.37,38.91l38.65-38.85C105.88,0.01,105.69,0,105.53,0c-1.29,0-2.43,0.41-3.4,1.1l0,0
			c-0.28,0.16-0.49,0.36-0.75,0.52c-0.32,0.18-0.58,0.38-0.9,0.55c-0.55,0.39-1.14,0.74-1.8,1.08c-2.14,1.15-4.47,2.03-6.91,2.61
			l-24.4,24.52V38.91z"/>
		<path style="fill:#BEA679;" d="M143.68,30.38v-8.5L85.05,80.8c1.54,1.24,3.27,2.42,5.04,3.45L143.68,30.38z"/>
		<path style="fill:#BEA679;" d="M143.61,47.56c0.01-0.99,0.08-1.99,0.08-3.01c0-0.87-0.01-1.73-0.06-2.59l0.06-0.01v-3.04
			L95.78,87.07c2.02,0.87,4.16,1.53,6.38,2.08L143.61,47.56z"/>
		<path style="fill:#BEA679;" d="M82.57,6.59c-0.54-0.05-1.02-0.1-1.56-0.17c-0.57-0.07-1.08-0.1-1.65-0.1
			c-6.48,0-11.75,5.13-11.99,11.57l0,0v3.98L82.57,6.59z"/>
		<path style="fill:#BEA679;" d="M141.66,57.98l-30.4,30.56C125.77,84.11,137.23,72.57,141.66,57.98z"/>
	</g>
</g>
</svg>
