<?xml version="1.0" encoding="utf-8"?>
<!-- Generator: Adobe Illustrator 25.0.1, SVG Export Plug-In . SVG Version: 6.00 Build 0)  -->
<svg version="1.1" id="圖層_1" xmlns="http://www.w3.org/2000/svg" xmlns:xlink="http://www.w3.org/1999/xlink" x="0px" y="0px"
	 viewBox="0 0 72 72" style="enable-background:new 0 0 72 72;" xml:space="preserve">
<path id="橢圓_1" d="M36,72C16.12,72,0,55.88,0,36C0,16.12,16.12,0,36,0s36,16.12,36,36c0,9.55-3.79,18.7-10.54,25.45
	C54.72,68.23,45.55,72.03,36,72z M31.36,38.16v16.08c2.11,0.37,4.27,0.37,6.38,0V38.16h4.76l0.9-6.66h-5.66v-4.32
	c-0.24-1.73,0.96-3.33,2.69-3.57c0.21-0.03,0.42-0.04,0.64-0.03h2.58v-5.65c-1.51-0.27-3.04-0.42-4.57-0.45
	c-4.83,0-7.71,3.35-7.71,8.95v5.07h-5.19v6.66L31.36,38.16z"/>
</svg>
