<?xml version="1.0" encoding="utf-8"?>
<!-- Generator: Adobe Illustrator 25.0.1, SVG Export Plug-In . SVG Version: 6.00 Build 0)  -->
<svg version="1.1" id="圖層_1" xmlns="http://www.w3.org/2000/svg" xmlns:xlink="http://www.w3.org/1999/xlink" x="0px" y="0px"
	 viewBox="0 0 72 72" style="enable-background:new 0 0 72 72;" xml:space="preserve">
<path id="形狀_3" d="M0,36C0,16.12,16.12,0,36,0s36,16.12,36,36S55.88,72,36,72S0,55.88,0,36z M14.9,27.52v16.85
	c0.01,7,5.68,12.67,12.68,12.68h16.85c7-0.01,12.67-5.68,12.68-12.68V27.52c-0.01-7-5.68-12.67-12.68-12.68H27.57
	C20.57,14.85,14.9,20.52,14.9,27.52L14.9,27.52z M27.57,53.08c-4.81,0-8.7-3.9-8.71-8.71V27.52c0-4.81,3.9-8.7,8.71-8.71h16.85
	c4.81,0,8.7,3.9,8.71,8.71v16.85c-0.01,4.81-3.9,8.7-8.71,8.71H27.57z M25.77,35.95c0,5.74,4.65,10.4,10.39,10.4
	c5.74,0,10.4-4.65,10.4-10.39c0-5.74-4.65-10.4-10.39-10.4c0,0,0,0,0,0C30.43,25.57,25.79,30.21,25.77,35.95L25.77,35.95z
	 M44.69,24.86c0,1.37,1.11,2.47,2.48,2.47c1.37,0,2.47-1.11,2.47-2.48c0-1.37-1.11-2.47-2.48-2.47
	C45.8,22.38,44.7,23.49,44.69,24.86L44.69,24.86z M29.52,35.94c0-3.68,2.98-6.66,6.66-6.66c3.68,0,6.66,2.98,6.66,6.66
	c0,3.68-2.98,6.66-6.66,6.66c0,0,0,0,0,0C32.51,42.6,29.53,39.61,29.52,35.94L29.52,35.94z"/>
</svg>
