<?xml version="1.0" encoding="utf-8"?>
<!-- Generator: Adobe Illustrator 25.0.1, SVG Export Plug-In . SVG Version: 6.00 Build 0)  -->
<svg version="1.1" id="圖層_1" xmlns="http://www.w3.org/2000/svg" xmlns:xlink="http://www.w3.org/1999/xlink" x="0px" y="0px"
	 viewBox="0 0 388 90" style="enable-background:new 0 0 388 90;" xml:space="preserve">
<g>
	<g>
		<g>
			<path d="M271.39,30.59c0.18-0.36,0.39-0.67,0.61-0.93c0.22-0.25,0.42-0.47,0.61-0.63c0.42-0.35,0.85-0.63,1.28-0.83
				c0.44-0.2,0.86-0.35,1.25-0.43c0.41-0.09,0.76-0.14,1.08-0.16c0.33-0.02,0.57-0.03,0.75-0.03c0.5,0,1.04,0.05,1.62,0.16
				c0.56,0.1,1.05,0.32,1.45,0.64c0.25,0.2,0.44,0.42,0.56,0.64l0.32,0.58h0.42l0.08-2.47l-0.09-0.02c-0.52-0.15-1-0.27-1.42-0.36
				c-0.42-0.09-0.8-0.16-1.13-0.22c-0.33-0.05-0.65-0.08-0.93-0.1c-0.28-0.01-0.56-0.02-0.83-0.02c-0.27,0-0.62,0.01-1.06,0.04
				c-0.45,0.03-0.96,0.11-1.52,0.24c-0.55,0.14-1.14,0.35-1.76,0.65c-0.62,0.3-1.21,0.72-1.76,1.25c-0.51,0.48-0.91,0.98-1.2,1.48
				c-0.29,0.51-0.51,1-0.66,1.47c-0.15,0.47-0.24,0.92-0.28,1.32c-0.04,0.41-0.06,0.72-0.06,0.97c0,0.74,0.1,1.45,0.29,2.12
				c0.2,0.67,0.48,1.31,0.86,1.87c0.38,0.57,0.84,1.08,1.38,1.52c0.55,0.44,1.17,0.8,1.85,1.07c0.35,0.14,0.7,0.25,1.05,0.32
				c0.34,0.07,0.66,0.12,0.95,0.16c0.29,0.04,0.55,0.06,0.78,0.07c0.22,0,0.4,0.01,0.53,0.01c0.54,0,1.16-0.04,1.83-0.13
				c0.67-0.08,1.28-0.2,1.81-0.34c0.22-0.06,0.43-0.13,0.64-0.19c0.21-0.07,0.43-0.14,0.65-0.22l0.08-0.03l-0.08-2.37h-0.43
				l-0.02,0.08c-0.04,0.1-0.09,0.23-0.15,0.38c-0.06,0.14-0.17,0.31-0.34,0.5c-0.07,0.07-0.18,0.17-0.31,0.28
				c-0.13,0.11-0.29,0.21-0.5,0.31c-0.26,0.12-0.53,0.22-0.82,0.29c-0.29,0.07-0.57,0.12-0.82,0.16c-0.26,0.04-0.49,0.06-0.68,0.07
				c-0.2,0.01-0.33,0.01-0.41,0.01c-0.22,0-0.51-0.01-0.85-0.04c-0.35-0.02-0.73-0.1-1.14-0.22c-0.41-0.13-0.84-0.32-1.28-0.57
				c-0.43-0.25-0.87-0.61-1.28-1.06c-0.16-0.17-0.33-0.39-0.52-0.66c-0.18-0.26-0.35-0.58-0.51-0.93c-0.16-0.36-0.29-0.77-0.4-1.22
				c-0.11-0.46-0.16-0.98-0.16-1.55c0-0.62,0.07-1.17,0.2-1.66C271.04,31.38,271.2,30.94,271.39,30.59z"/>
			<path d="M285.46,40.13l-0.1-0.02c-0.15-0.02-0.28-0.06-0.4-0.12c-0.12-0.05-0.2-0.14-0.26-0.26c-0.05-0.08-0.07-0.14-0.08-0.2
				c-0.01-0.06-0.01-0.11-0.01-0.14c0-0.12,0.03-0.28,0.11-0.46c0.08-0.2,0.17-0.44,0.28-0.72l1.12-2.61h4.73l1.04,2.51
				c0.06,0.17,0.14,0.33,0.2,0.48c0.07,0.15,0.14,0.31,0.2,0.46c0.04,0.18,0.05,0.27,0.05,0.32c0,0.02,0,0.07-0.01,0.13
				c0,0.05-0.02,0.11-0.07,0.18c-0.07,0.15-0.18,0.25-0.31,0.31c-0.15,0.06-0.31,0.1-0.48,0.13l-0.09,0.01l-0.04,0.45h4.37v-0.39
				l-0.07-0.03c-0.14-0.07-0.31-0.15-0.52-0.26c-0.19-0.1-0.38-0.31-0.57-0.62c-0.04-0.06-0.09-0.14-0.13-0.25
				c-0.05-0.11-0.1-0.21-0.15-0.33l-0.14-0.33c-0.05-0.11-0.09-0.19-0.13-0.27l-4.85-11.41l-0.03-0.07h-0.33l-5.31,11.86
				c-0.12,0.28-0.24,0.53-0.35,0.74c-0.1,0.2-0.22,0.36-0.33,0.47c-0.11,0.12-0.23,0.21-0.35,0.27c-0.12,0.06-0.27,0.11-0.45,0.13
				l-0.11,0.02v0.45h3.58V40.13z M286.65,34.44l1.9-4.24l1.8,4.24H286.65z"/>
			<path d="M293.44,29.11h0.45l0.02-0.1c0.01-0.06,0.03-0.18,0.07-0.36c0.02-0.14,0.11-0.28,0.26-0.4c0.13-0.1,0.28-0.17,0.45-0.21
				c0.19-0.04,0.47-0.07,0.83-0.08h2.64v10.66c0,0.36-0.04,0.64-0.12,0.82c-0.08,0.18-0.19,0.32-0.33,0.42
				c-0.11,0.09-0.23,0.15-0.35,0.18c-0.15,0.03-0.24,0.06-0.28,0.07L297,40.14l-0.04,0.44h4.39v-0.44l-0.09-0.02
				c-0.24-0.06-0.42-0.12-0.53-0.19c-0.12-0.07-0.22-0.14-0.31-0.23c-0.09-0.11-0.16-0.21-0.2-0.32c-0.04-0.11-0.06-0.23-0.08-0.37
				c-0.01-0.14-0.02-0.31-0.02-0.5V28H303c0.41,0,0.74,0.06,0.98,0.17c0.22,0.11,0.36,0.37,0.43,0.8l0.01,0.1h0.43v-2.27h-11.42
				V29.11z"/>
			<path d="M309.81,40.11h-0.12c-0.01,0-0.05,0-0.15-0.03c-0.07-0.02-0.16-0.05-0.25-0.09c-0.1-0.05-0.19-0.11-0.28-0.19
				c-0.09-0.07-0.16-0.17-0.22-0.29c-0.06-0.14-0.09-0.31-0.1-0.53c-0.01-0.22-0.01-0.52-0.01-0.89v-4.24h7.28v4.2
				c0,0.32,0,0.6-0.01,0.84c-0.01,0.23-0.02,0.4-0.04,0.5c-0.02,0.07-0.05,0.14-0.08,0.2c-0.03,0.07-0.06,0.1-0.07,0.12
				c-0.09,0.12-0.2,0.21-0.33,0.27c-0.14,0.06-0.29,0.1-0.45,0.13l-0.1,0.02l-0.04,0.45h4.22v-0.45l-0.09-0.02
				c-0.17-0.04-0.32-0.08-0.45-0.14c-0.12-0.05-0.23-0.14-0.35-0.27c-0.1-0.13-0.17-0.25-0.2-0.37c-0.03-0.14-0.05-0.29-0.06-0.47
				c-0.01-0.14-0.02-0.27-0.02-0.4v-9.23c0-0.16,0-0.39,0.01-0.68c0.01-0.28,0.03-0.48,0.08-0.62c0.05-0.14,0.11-0.24,0.2-0.33
				c0.1-0.09,0.19-0.16,0.28-0.21c0.09-0.05,0.18-0.09,0.26-0.1c0.1-0.02,0.17-0.04,0.22-0.05l0.08-0.03v-0.42h-4.17v0.45l0.12,0
				c0.02,0,0.07,0.01,0.16,0.03c0.09,0.02,0.19,0.04,0.28,0.09c0.1,0.04,0.2,0.1,0.28,0.18c0.09,0.08,0.15,0.17,0.2,0.3
				c0.05,0.13,0.07,0.3,0.07,0.51v4.34h-7.28v-3.54c0-0.32,0.01-0.61,0.03-0.84c0.02-0.22,0.06-0.39,0.11-0.51
				c0.04-0.11,0.11-0.19,0.19-0.25c0.1-0.07,0.19-0.12,0.27-0.16c0.09-0.04,0.17-0.06,0.25-0.08c0.09-0.02,0.15-0.04,0.2-0.05
				l0.08-0.03v-0.41h-4.19v0.42l0.08,0.03c0.04,0.01,0.11,0.03,0.22,0.05c0.09,0.02,0.18,0.04,0.27,0.09
				c0.09,0.04,0.18,0.1,0.27,0.18c0.08,0.08,0.16,0.19,0.21,0.32c0.06,0.16,0.1,0.33,0.1,0.5c0.01,0.17,0.01,0.43-0.01,0.8v8.91
				c0,0.31,0,0.58-0.01,0.82c-0.01,0.23-0.02,0.4-0.06,0.5c-0.05,0.13-0.12,0.25-0.2,0.34c-0.09,0.09-0.19,0.16-0.28,0.21
				c-0.11,0.05-0.2,0.08-0.29,0.11c-0.11,0.03-0.16,0.03-0.17,0.03h-0.12v0.47h4.19V40.11z"/>
			<path d="M333.82,38.64c0.42-0.47,0.75-0.94,0.98-1.41c0.24-0.48,0.42-0.93,0.54-1.36c0.12-0.43,0.19-0.82,0.22-1.18
				c0.02-0.35,0.04-0.64,0.04-0.87c0-0.67-0.07-1.29-0.21-1.85c-0.14-0.56-0.3-1.05-0.49-1.48c-0.2-0.42-0.41-0.8-0.63-1.11
				c-0.21-0.31-0.42-0.57-0.61-0.76c-0.18-0.2-0.43-0.42-0.73-0.68c-0.31-0.26-0.68-0.51-1.11-0.73c-0.44-0.23-0.94-0.42-1.5-0.57
				c-0.56-0.16-1.21-0.23-1.9-0.23c-0.81,0-1.55,0.1-2.19,0.3c-0.64,0.2-1.2,0.44-1.68,0.72c-0.48,0.28-0.89,0.58-1.22,0.9
				c-0.33,0.32-0.59,0.59-0.79,0.83c-0.14,0.18-0.31,0.41-0.49,0.69c-0.18,0.28-0.36,0.62-0.52,1c-0.16,0.38-0.3,0.83-0.41,1.32
				c-0.11,0.49-0.17,1.05-0.17,1.65c0,0.75,0.08,1.43,0.25,2.03c0.17,0.59,0.38,1.12,0.64,1.59c0.25,0.46,0.52,0.85,0.81,1.17
				c0.29,0.31,0.54,0.56,0.76,0.76c0.7,0.58,1.47,1.01,2.27,1.26c0.81,0.25,1.67,0.38,2.56,0.38c1.13,0,2.16-0.18,3.06-0.53
				C332.23,40.11,333.07,39.5,333.82,38.64z M328.42,39.83c-0.66,0-1.25-0.1-1.75-0.29c-0.51-0.19-0.94-0.43-1.31-0.69
				c-0.36-0.27-0.66-0.55-0.89-0.84c-0.23-0.3-0.41-0.55-0.54-0.75c-0.24-0.37-0.43-0.75-0.57-1.11c-0.14-0.36-0.24-0.71-0.3-1.03
				c-0.06-0.31-0.11-0.61-0.12-0.87c-0.02-0.27-0.03-0.48-0.03-0.65c0-0.66,0.07-1.26,0.2-1.78c0.13-0.52,0.3-0.99,0.5-1.38
				c0.2-0.39,0.42-0.73,0.66-1c0.24-0.28,0.47-0.51,0.69-0.68c0.31-0.25,0.63-0.45,0.96-0.6c0.33-0.15,0.65-0.26,0.94-0.34
				c0.29-0.08,0.56-0.12,0.8-0.14c0.24-0.02,0.43-0.03,0.56-0.03c0.54,0,1.02,0.06,1.43,0.19c0.42,0.12,0.8,0.28,1.11,0.45
				c0.32,0.17,0.59,0.36,0.8,0.56c0.22,0.2,0.4,0.38,0.54,0.54c0.16,0.22,0.34,0.49,0.54,0.8c0.2,0.31,0.37,0.69,0.53,1.12
				c0.15,0.43,0.27,0.93,0.35,1.47c0.08,0.54,0.09,1.15,0.04,1.8c-0.01,0.15-0.04,0.39-0.09,0.7c-0.04,0.31-0.14,0.67-0.27,1.07
				c-0.18,0.52-0.44,1-0.74,1.42c-0.31,0.43-0.67,0.8-1.08,1.1c-0.41,0.3-0.87,0.54-1.36,0.7
				C329.52,39.74,328.98,39.83,328.42,39.83z"/>
			<path d="M337.74,27.3c0.1,0.02,0.19,0.05,0.3,0.1c0.1,0.05,0.21,0.12,0.31,0.22c0.1,0.09,0.17,0.21,0.23,0.36
				c0.05,0.13,0.08,0.32,0.09,0.57c0.01,0.26,0.02,0.56,0.02,0.9v8.01c0,0.35,0,0.68-0.01,0.99c-0.01,0.32-0.02,0.53-0.03,0.62
				c-0.04,0.21-0.1,0.38-0.18,0.5c-0.09,0.12-0.18,0.22-0.29,0.3c-0.1,0.07-0.21,0.13-0.32,0.16c-0.11,0.04-0.21,0.06-0.28,0.07
				l-0.1,0.02v0.45h9.92v-2.37h-0.44l-0.02,0.08c-0.06,0.21-0.12,0.38-0.18,0.5c-0.05,0.11-0.11,0.21-0.18,0.27
				c-0.09,0.09-0.2,0.16-0.32,0.2c-0.13,0.05-0.27,0.08-0.41,0.1c-0.14,0.02-0.29,0.03-0.43,0.04c-0.14,0.01-0.28,0.01-0.41,0.01
				l-2.64,0l-0.76-0.03c-0.15-0.01-0.31-0.05-0.45-0.13c-0.22-0.13-0.36-0.3-0.4-0.53c-0.05-0.26-0.08-0.63-0.09-1.11v-8.18
				c0.01-0.33,0.02-0.63,0.04-0.9c0.01-0.26,0.03-0.45,0.05-0.56c0.04-0.15,0.11-0.26,0.2-0.35c0.1-0.1,0.19-0.17,0.28-0.22
				c0.1-0.05,0.19-0.09,0.27-0.1c0.1-0.02,0.18-0.04,0.22-0.05l0.09-0.02v-0.42h-4.4v0.41l0.08,0.03
				C337.55,27.26,337.63,27.28,337.74,27.3z"/>
			<path d="M348.95,27.3c0.1,0.02,0.2,0.05,0.3,0.1c0.11,0.05,0.2,0.12,0.31,0.21c0.09,0.09,0.17,0.21,0.22,0.37
				c0.05,0.14,0.08,0.31,0.08,0.49c0.01,0.19,0.01,0.45,0.01,0.78v8.78c-0.01,0.44-0.02,0.78-0.03,1.03
				c-0.01,0.23-0.06,0.42-0.18,0.58c-0.11,0.16-0.24,0.27-0.39,0.33c-0.16,0.07-0.33,0.12-0.51,0.15l-0.1,0.02v0.45h4.3v-0.44
				l-0.08-0.03c-0.15-0.05-0.32-0.1-0.48-0.17c-0.14-0.06-0.27-0.15-0.38-0.29c-0.1-0.12-0.16-0.25-0.18-0.37
				c-0.02-0.14-0.02-0.24-0.03-0.32c-0.02-0.14-0.03-0.29-0.03-0.44v-9.28c0-0.32,0-0.59,0.01-0.81c0.01-0.21,0.02-0.38,0.06-0.49
				c0.04-0.15,0.11-0.27,0.18-0.35c0.08-0.09,0.17-0.15,0.26-0.19c0.1-0.05,0.19-0.08,0.27-0.1c0.09-0.02,0.17-0.04,0.22-0.05
				l0.09-0.02v-0.42h-4.24v0.42l0.09,0.02C348.77,27.26,348.85,27.28,348.95,27.3z"/>
			<path d="M366.19,40.52c0.22-0.06,0.43-0.13,0.64-0.19c0.22-0.07,0.43-0.14,0.65-0.22l0.08-0.03l-0.08-2.37h-0.43l-0.03,0.08
				c-0.04,0.1-0.09,0.23-0.15,0.38c-0.06,0.14-0.18,0.31-0.34,0.5c-0.07,0.07-0.18,0.17-0.31,0.28c-0.13,0.11-0.29,0.21-0.5,0.31
				c-0.26,0.12-0.54,0.22-0.82,0.29c-0.29,0.07-0.57,0.12-0.82,0.16c-0.26,0.04-0.48,0.06-0.68,0.07c-0.2,0.01-0.34,0.01-0.41,0.01
				c-0.22,0-0.51-0.01-0.86-0.04c-0.34-0.02-0.73-0.1-1.14-0.22c-0.42-0.13-0.85-0.32-1.28-0.57c-0.43-0.25-0.86-0.61-1.28-1.06
				c-0.16-0.17-0.33-0.39-0.52-0.66c-0.18-0.26-0.35-0.58-0.5-0.93c-0.16-0.36-0.29-0.77-0.4-1.22c-0.11-0.46-0.16-0.98-0.16-1.55
				c0-0.62,0.07-1.17,0.2-1.66c0.13-0.49,0.29-0.92,0.48-1.28c0.19-0.36,0.39-0.67,0.61-0.93c0.21-0.25,0.42-0.47,0.61-0.63
				c0.41-0.35,0.85-0.63,1.28-0.83c0.45-0.2,0.86-0.35,1.26-0.43c0.41-0.09,0.75-0.14,1.07-0.16c0.33-0.02,0.58-0.03,0.75-0.03
				c0.5,0,1.05,0.05,1.62,0.16c0.56,0.1,1.05,0.32,1.45,0.64c0.26,0.2,0.45,0.42,0.57,0.64l0.32,0.58h0.41l0.08-2.47l-0.09-0.02
				c-0.52-0.15-0.99-0.27-1.42-0.36c-0.42-0.09-0.8-0.16-1.13-0.22c-0.34-0.05-0.65-0.08-0.93-0.1c-0.28-0.01-0.56-0.02-0.83-0.02
				c-0.26,0-0.62,0.01-1.06,0.04c-0.45,0.03-0.96,0.11-1.51,0.24c-0.56,0.14-1.15,0.35-1.76,0.65c-0.62,0.3-1.21,0.72-1.76,1.25
				c-0.5,0.48-0.91,0.98-1.2,1.48c-0.29,0.51-0.52,1-0.66,1.47c-0.15,0.47-0.25,0.92-0.28,1.32c-0.04,0.41-0.06,0.72-0.06,0.97
				c0,0.74,0.1,1.45,0.29,2.12c0.2,0.67,0.48,1.31,0.86,1.87c0.37,0.57,0.84,1.08,1.39,1.52c0.54,0.44,1.16,0.8,1.85,1.07
				c0.35,0.14,0.69,0.25,1.04,0.32c0.34,0.07,0.66,0.12,0.95,0.16c0.28,0.04,0.55,0.06,0.78,0.07c0.23,0,0.4,0.01,0.54,0.01
				c0.54,0,1.16-0.04,1.82-0.13C365.05,40.77,365.66,40.66,366.19,40.52z"/>
		</g>
		<g>
			<path d="M277.77,50.32h0.12c0.01,0,0.05,0.01,0.1,0.02l0.24,0.07c0.08,0.03,0.16,0.06,0.25,0.11c0.08,0.04,0.15,0.1,0.2,0.16
				c0.15,0.18,0.22,0.42,0.23,0.7c0.01,0.31,0.01,0.58,0.01,0.79v6.13c0,0.32-0.01,0.62-0.03,0.87c-0.02,0.24-0.04,0.47-0.07,0.66
				c-0.03,0.19-0.07,0.37-0.12,0.52c-0.05,0.16-0.11,0.32-0.17,0.47c-0.09,0.2-0.18,0.37-0.26,0.51c-0.1,0.14-0.16,0.24-0.21,0.3
				c-0.11,0.12-0.25,0.25-0.43,0.39c-0.17,0.13-0.38,0.25-0.63,0.37c-0.25,0.11-0.54,0.21-0.86,0.29c-0.32,0.08-0.69,0.12-1.1,0.12
				c-0.61,0-1.21-0.11-1.78-0.33c-0.57-0.22-1.05-0.58-1.45-1.08c-0.19-0.24-0.33-0.5-0.43-0.75c-0.11-0.25-0.19-0.52-0.23-0.78
				c-0.05-0.26-0.08-0.54-0.1-0.82c-0.01-0.27-0.02-0.57-0.02-0.88v-6.05c0.01-0.27,0.02-0.51,0.03-0.71
				c0.01-0.19,0.04-0.35,0.1-0.5c0.06-0.13,0.15-0.24,0.29-0.34c0.14-0.1,0.36-0.19,0.65-0.26l0.08-0.02l0.03-0.43h-4.24v0.42
				l0.09,0.02c0.44,0.12,0.63,0.23,0.71,0.31c0.17,0.12,0.26,0.28,0.28,0.49c0.02,0.24,0.04,0.57,0.04,0.99v6.17
				c-0.02,0.64,0.01,1.16,0.06,1.53c0.05,0.38,0.13,0.73,0.23,1.04c0.13,0.37,0.32,0.74,0.58,1.11c0.26,0.37,0.6,0.71,1.03,1.02
				c0.43,0.3,0.95,0.55,1.57,0.74c0.62,0.18,1.36,0.28,2.21,0.28c0.86,0,1.61-0.11,2.22-0.32c0.61-0.21,1.12-0.48,1.52-0.8
				c0.4-0.33,0.71-0.7,0.94-1.1c0.22-0.39,0.39-0.78,0.49-1.17c0.06-0.25,0.11-0.5,0.14-0.75c0.03-0.26,0.05-0.49,0.06-0.71
				c0.01-0.22,0.01-0.41,0.01-0.57v-6.53c0-0.34,0-0.61,0.02-0.79c0.01-0.17,0.06-0.32,0.15-0.45c0.1-0.16,0.22-0.26,0.37-0.32
				c0.16-0.06,0.33-0.12,0.52-0.17l0.09-0.02v-0.42h-3.54L277.77,50.32z"/>
			<path d="M294.13,50.3l0.1,0.02c0.44,0.09,0.73,0.23,0.85,0.41c0.13,0.19,0.21,0.39,0.23,0.62c0.02,0.13,0.03,0.27,0.03,0.41
				c-0.01,0.15-0.01,0.24-0.01,0.28v7.93l-8.88-10.06l-0.03-0.04h-2.93v0.44l0.1,0.01c0.18,0.02,0.36,0.06,0.53,0.12
				c0.14,0.05,0.25,0.15,0.35,0.33c0.08,0.12,0.12,0.26,0.12,0.43c0.01,0.18,0.01,0.43,0.01,0.75v9.63c0,0.17-0.01,0.38-0.03,0.65
				c-0.02,0.24-0.08,0.42-0.2,0.56c-0.12,0.17-0.26,0.27-0.43,0.31c-0.19,0.04-0.32,0.07-0.38,0.08l-0.09,0.02l-0.04,0.45h3.59V63.2
				l-0.1-0.02c-0.28-0.06-0.5-0.15-0.68-0.28c-0.16-0.11-0.26-0.32-0.32-0.6c-0.01-0.1-0.02-0.2-0.03-0.3c0-0.1,0-0.24,0-0.43v-9.39
				l10.31,11.67h0.35V52.01c0.01-0.28,0.02-0.55,0.04-0.82c0.01-0.23,0.12-0.42,0.34-0.6c0.07-0.06,0.15-0.11,0.25-0.16
				c0.1-0.05,0.24-0.09,0.42-0.12l0.09-0.02l0.04-0.43h-3.59V50.3z"/>
			<path d="M303.74,63.02c-0.15-0.06-0.27-0.15-0.39-0.29c-0.1-0.12-0.16-0.25-0.17-0.37c-0.02-0.14-0.03-0.24-0.03-0.32
				c-0.02-0.15-0.03-0.29-0.03-0.44v-9.28c0-0.32,0-0.59,0.01-0.81c0.01-0.21,0.03-0.38,0.06-0.49c0.04-0.15,0.11-0.26,0.18-0.34
				c0.08-0.09,0.17-0.15,0.26-0.19c0.1-0.05,0.19-0.08,0.27-0.1c0.09-0.02,0.16-0.04,0.22-0.05l0.09-0.02v-0.43h-4.25v0.42
				l0.09,0.02c0.06,0.01,0.13,0.03,0.24,0.05c0.09,0.02,0.2,0.05,0.3,0.1c0.1,0.05,0.21,0.12,0.3,0.21
				c0.09,0.09,0.17,0.22,0.23,0.38c0.05,0.14,0.07,0.3,0.08,0.48c0,0.19,0.01,0.45,0.01,0.78v8.78c-0.01,0.43-0.02,0.77-0.03,1.03
				c-0.01,0.23-0.06,0.41-0.18,0.58c-0.11,0.16-0.25,0.27-0.39,0.33c-0.16,0.07-0.33,0.12-0.51,0.16L300,63.2v0.45h4.3v-0.44
				l-0.09-0.02C304.06,63.14,303.9,63.08,303.74,63.02z"/>
			<path d="M315.57,50.3l0.09,0.02c0.14,0.04,0.28,0.08,0.42,0.12c0.12,0.04,0.21,0.11,0.28,0.23c0.04,0.06,0.06,0.12,0.06,0.16
				c0.01,0.07,0.01,0.12,0.01,0.15c0,0.12-0.01,0.24-0.04,0.37c-0.03,0.13-0.07,0.25-0.11,0.37c-0.04,0.12-0.08,0.22-0.12,0.3
				c-0.04,0.09-0.06,0.13-0.06,0.16l-3.54,8.13l-3.36-8.14l-0.16-0.38c-0.05-0.12-0.09-0.24-0.11-0.37
				c-0.05-0.18-0.07-0.33-0.07-0.45c0-0.17,0.05-0.3,0.16-0.4c0.12-0.11,0.35-0.19,0.68-0.25l0.1-0.02v-0.43h-4.32v0.43l0.09,0.02
				c0.16,0.04,0.29,0.08,0.38,0.12c0.09,0.04,0.2,0.11,0.32,0.22c0.16,0.14,0.29,0.3,0.36,0.46c0.08,0.18,0.13,0.31,0.16,0.38
				c0.09,0.19,0.18,0.38,0.26,0.57c0.08,0.19,0.17,0.39,0.24,0.6l4.68,11.08l0.03,0.08h0.35l4.98-11.33
				c0.1-0.22,0.22-0.48,0.35-0.79c0.12-0.29,0.25-0.55,0.39-0.76c0.13-0.2,0.27-0.34,0.39-0.42c0.14-0.08,0.33-0.15,0.57-0.19
				l0.1-0.02v-0.43h-3.54V50.3z"/>
			<path d="M329.52,61.35c-0.05,0.16-0.1,0.32-0.15,0.47c-0.05,0.13-0.12,0.25-0.24,0.36c-0.12,0.13-0.26,0.19-0.41,0.22
				c-0.22,0.03-0.31,0.04-0.37,0.04c-0.13,0.02-0.26,0.04-0.38,0.04h-2.18c-0.47-0.01-0.89-0.03-1.24-0.05
				c-0.33-0.01-0.57-0.08-0.7-0.17c-0.05-0.04-0.1-0.08-0.12-0.12c-0.03-0.05-0.06-0.1-0.08-0.12c-0.09-0.2-0.14-0.43-0.15-0.66
				c-0.01-0.26-0.02-0.5-0.03-0.71v-3.75h2.83c0.29,0,0.58,0.02,0.86,0.07c0.25,0.04,0.44,0.18,0.59,0.43
				c0.02,0.07,0.05,0.14,0.09,0.22c0.03,0.07,0.06,0.18,0.1,0.33l0.02,0.09h0.44v-3.48h-0.43l-0.03,0.08
				c-0.02,0.04-0.03,0.11-0.05,0.22c-0.01,0.09-0.05,0.18-0.1,0.28c-0.05,0.1-0.11,0.2-0.2,0.3c-0.08,0.09-0.19,0.16-0.33,0.21
				c-0.15,0.06-0.31,0.08-0.48,0.08h-3.3v-4.67h3.52c0.25,0,0.48,0.02,0.68,0.07c0.18,0.04,0.34,0.17,0.46,0.4
				c0.05,0.08,0.08,0.17,0.11,0.27c0.03,0.1,0.06,0.2,0.08,0.3l0.02,0.08l0.44,0.04l0.04-2.32h-8.46v0.45h0.12
				c0.03,0,0.1,0,0.19,0.02c0.09,0.01,0.18,0.04,0.28,0.08c0.09,0.05,0.2,0.12,0.29,0.2c0.08,0.07,0.15,0.18,0.2,0.34
				c0.05,0.14,0.08,0.29,0.08,0.45l0,9.62c-0.01,0.19-0.02,0.37-0.01,0.56c0,0.18,0,0.37-0.01,0.55c-0.02,0.19-0.06,0.36-0.13,0.51
				c-0.08,0.14-0.19,0.26-0.37,0.36c-0.07,0.05-0.14,0.08-0.22,0.1c-0.09,0.03-0.19,0.05-0.29,0.08l-0.09,0.02l-0.04,0.45h9.61
				v-2.39h-0.44L329.52,61.35z"/>
			<path d="M343.8,63.09c-0.11-0.04-0.22-0.11-0.32-0.2c-0.12-0.09-0.21-0.2-0.29-0.33c-0.08-0.14-0.14-0.23-0.17-0.27
				c-0.22-0.31-0.42-0.66-0.61-1.02l-2.63-4.82c0.07-0.03,0.15-0.07,0.25-0.13c0.16-0.08,0.35-0.2,0.55-0.34
				c0.2-0.15,0.41-0.32,0.6-0.52c0.21-0.2,0.39-0.45,0.53-0.73c0.23-0.44,0.34-0.93,0.34-1.47c0-0.51-0.08-0.95-0.24-1.29
				c-0.16-0.34-0.29-0.59-0.4-0.75c-0.25-0.33-0.54-0.59-0.87-0.77c-0.32-0.17-0.66-0.31-1.03-0.4c-0.36-0.09-0.73-0.13-1.11-0.15
				c-0.37-0.01-0.73-0.02-1.08-0.02h-4.91l0,0.45h0.12c0.02,0,0.07,0.01,0.15,0.02c0.08,0.02,0.18,0.04,0.28,0.08
				c0.09,0.03,0.19,0.09,0.28,0.16c0.09,0.07,0.16,0.17,0.21,0.28c0.06,0.12,0.09,0.28,0.11,0.47c0.01,0.2,0.02,0.46,0.02,0.77v9.22
				c-0.01,0.31-0.02,0.57-0.03,0.79c0,0.2-0.03,0.36-0.08,0.46c-0.04,0.12-0.11,0.22-0.19,0.3c-0.08,0.08-0.18,0.14-0.28,0.19
				c-0.1,0.05-0.19,0.08-0.27,0.09c-0.1,0.03-0.15,0.03-0.16,0.03h-0.12v0.47h4.34v-0.44l-0.09-0.02c-0.27-0.08-0.47-0.14-0.6-0.2
				c-0.11-0.05-0.21-0.13-0.3-0.23c-0.11-0.12-0.18-0.24-0.2-0.34c-0.02-0.13-0.04-0.28-0.05-0.45c-0.01-0.11-0.02-0.22-0.02-0.34
				c0-0.12-0.01-0.26-0.02-0.38v-4.16c0.13,0,0.26,0.01,0.38,0.01c0.38,0.02,0.83,0.02,1.31-0.02c0.24-0.02,0.48-0.04,0.71-0.06
				l2.47,4.56c0.14,0.26,0.3,0.53,0.47,0.82c0.18,0.3,0.4,0.55,0.65,0.75c0.16,0.14,0.33,0.24,0.5,0.31
				c0.16,0.07,0.33,0.12,0.48,0.15c0.15,0.04,0.3,0.06,0.42,0.06h1.17v-0.43l-0.07-0.03C344.02,63.18,343.93,63.15,343.8,63.09z
				 M335.58,51.07h1.36c0.37-0.01,0.74,0,1.11,0.04c0.36,0.04,0.7,0.16,1.01,0.36c0.35,0.22,0.6,0.5,0.76,0.86
				c0.16,0.36,0.24,0.74,0.24,1.13c0,0.31-0.03,0.57-0.09,0.78c-0.07,0.27-0.14,0.39-0.18,0.46c-0.14,0.27-0.32,0.48-0.53,0.63
				c-0.21,0.16-0.45,0.28-0.71,0.37c-0.26,0.09-0.54,0.15-0.83,0.18c-0.28,0.03-0.57,0.05-0.85,0.05h-1.32L335.58,51.07z"/>
			<path d="M352.51,56.41l-0.83-0.54l-1.11-0.63c-0.32-0.2-0.67-0.43-1.02-0.68c-0.33-0.23-0.58-0.54-0.73-0.91
				c-0.06-0.17-0.1-0.33-0.11-0.46c-0.01-0.14-0.02-0.24-0.02-0.31c0-0.35,0.06-0.66,0.19-0.94c0.13-0.27,0.3-0.5,0.51-0.68
				c0.21-0.18,0.46-0.32,0.75-0.42c0.29-0.1,0.61-0.15,0.94-0.15c0.45,0,0.84,0.07,1.14,0.2c0.31,0.13,0.55,0.3,0.74,0.49
				c0.19,0.2,0.34,0.4,0.44,0.61c0.11,0.22,0.2,0.42,0.28,0.58l0.03,0.07h0.4v-2.45l-0.08-0.03c-0.14-0.05-0.31-0.11-0.5-0.19
				c-0.21-0.08-0.43-0.15-0.69-0.21c-0.25-0.07-0.54-0.12-0.85-0.17c-0.32-0.05-0.68-0.08-1.06-0.08c-0.13,0-0.31,0-0.54,0.02
				c-0.23,0.01-0.5,0.05-0.79,0.13c-0.29,0.07-0.59,0.19-0.9,0.36c-0.31,0.16-0.61,0.39-0.88,0.68c-0.19,0.19-0.38,0.47-0.6,0.86
				c-0.21,0.39-0.32,0.92-0.32,1.56c0,0.21,0.02,0.44,0.06,0.69c0.04,0.25,0.12,0.52,0.24,0.78c0.12,0.26,0.3,0.54,0.54,0.83
				c0.23,0.28,0.55,0.56,0.94,0.83c0.12,0.09,0.26,0.17,0.38,0.25c0.12,0.07,0.24,0.14,0.37,0.22l1.23,0.73
				c0.38,0.22,0.73,0.46,1.05,0.72c0.31,0.25,0.55,0.58,0.72,0.99c0.03,0.09,0.08,0.22,0.13,0.39c0.04,0.17,0.07,0.38,0.07,0.62
				c0,0.35-0.05,0.65-0.14,0.87c-0.09,0.22-0.17,0.41-0.23,0.52c-0.28,0.44-0.65,0.76-1.09,0.96c-0.45,0.2-0.94,0.3-1.46,0.3
				c-0.32,0-0.61-0.04-0.86-0.1c-0.25-0.07-0.48-0.15-0.66-0.26c-0.19-0.1-0.34-0.22-0.47-0.33c-0.13-0.12-0.23-0.24-0.3-0.34
				c-0.06-0.1-0.13-0.22-0.19-0.35c-0.07-0.13-0.16-0.31-0.26-0.56l-0.03-0.07l-0.42-0.03v2.43l0.07,0.03
				c0.31,0.14,0.71,0.3,1.2,0.47c0.5,0.18,1.16,0.27,1.96,0.27c0.14,0,0.34-0.01,0.6-0.02c0.25-0.01,0.55-0.06,0.88-0.13
				c0.32-0.07,0.65-0.19,1-0.36c0.35-0.17,0.69-0.41,1.02-0.72c0.28-0.27,0.51-0.56,0.68-0.84c0.16-0.28,0.29-0.56,0.37-0.83
				c0.09-0.27,0.14-0.52,0.16-0.74c0.02-0.23,0.03-0.41,0.03-0.55c0-1.09-0.41-2.02-1.21-2.77
				C353.07,56.82,352.81,56.61,352.51,56.41z"/>
			<path d="M361.3,63.02c-0.14-0.06-0.27-0.15-0.38-0.29c-0.1-0.12-0.16-0.25-0.18-0.37c-0.02-0.14-0.02-0.24-0.03-0.32
				c-0.03-0.15-0.03-0.29-0.03-0.44v-9.28c0-0.32,0-0.59,0.01-0.81c0.01-0.21,0.03-0.38,0.06-0.49c0.04-0.15,0.11-0.26,0.18-0.34
				c0.08-0.09,0.17-0.15,0.26-0.19c0.1-0.05,0.19-0.08,0.27-0.1c0.09-0.02,0.16-0.04,0.21-0.05l0.09-0.02v-0.43h-4.25v0.42
				l0.09,0.02c0.05,0.01,0.13,0.03,0.24,0.05c0.09,0.02,0.19,0.05,0.3,0.1c0.1,0.05,0.2,0.12,0.3,0.21c0.1,0.09,0.17,0.22,0.23,0.38
				c0.05,0.14,0.07,0.3,0.08,0.48c0.01,0.19,0.01,0.45,0.01,0.78v8.78c-0.01,0.43-0.02,0.77-0.03,1.03
				c-0.01,0.23-0.06,0.41-0.18,0.58c-0.11,0.16-0.24,0.27-0.39,0.33c-0.15,0.07-0.33,0.12-0.51,0.16l-0.1,0.02v0.45h4.3v-0.44
				l-0.08-0.02C361.63,63.14,361.46,63.08,361.3,63.02z"/>
			<path d="M363.14,52.18h0.45l0.02-0.1c0.01-0.06,0.03-0.18,0.06-0.35c0.03-0.15,0.11-0.28,0.26-0.4c0.13-0.11,0.28-0.18,0.46-0.22
				c0.19-0.04,0.47-0.07,0.83-0.08h2.64v10.66c0,0.36-0.04,0.64-0.12,0.82c-0.08,0.18-0.19,0.32-0.33,0.43
				c-0.11,0.09-0.23,0.15-0.35,0.18c-0.15,0.04-0.24,0.06-0.28,0.07l-0.07,0.02l-0.04,0.44h4.39v-0.44l-0.09-0.02
				c-0.24-0.06-0.42-0.12-0.54-0.19c-0.11-0.07-0.21-0.15-0.3-0.24c-0.09-0.1-0.16-0.21-0.2-0.32c-0.04-0.11-0.07-0.23-0.08-0.37
				c-0.01-0.14-0.01-0.31-0.01-0.5v-10.5h2.87c0.42,0,0.75,0.06,0.99,0.17c0.22,0.1,0.36,0.37,0.43,0.8l0.02,0.1h0.43v-2.27h-11.42
				V52.18z"/>
			<path d="M384.44,49.87v0.44l0.1,0.01c0.16,0.02,0.31,0.05,0.43,0.08c0.09,0.02,0.18,0.1,0.26,0.25c0.05,0.07,0.08,0.13,0.08,0.18
				c0,0.07,0.01,0.12,0.01,0.15c0,0.17-0.05,0.35-0.15,0.52c-0.11,0.19-0.21,0.36-0.3,0.51l-2.62,4.28l-2.74-4.29
				c-0.1-0.14-0.21-0.31-0.31-0.52c-0.1-0.19-0.15-0.38-0.15-0.55c0-0.14,0.03-0.24,0.09-0.32c0.07-0.08,0.14-0.15,0.22-0.19
				c0.09-0.04,0.17-0.08,0.25-0.09c0.11-0.02,0.14-0.02,0.15-0.02h0.12v-0.45h-4.33v0.43l0.09,0.02c0.14,0.04,0.27,0.08,0.36,0.12
				c0.09,0.05,0.18,0.1,0.24,0.16c0.07,0.06,0.14,0.13,0.2,0.22c0.07,0.1,0.16,0.2,0.24,0.31c0.06,0.09,0.12,0.17,0.17,0.25
				c0.06,0.09,0.11,0.17,0.17,0.24l3.83,5.95v3.99c0,0.36-0.01,0.64-0.03,0.81c-0.02,0.16-0.1,0.31-0.22,0.46
				c-0.11,0.12-0.23,0.2-0.36,0.24c-0.14,0.05-0.31,0.08-0.49,0.1l-0.1,0.01l-0.03,0.46h4.29V63.2l-0.1-0.02
				c-0.06-0.01-0.18-0.03-0.34-0.06c-0.14-0.02-0.27-0.09-0.39-0.2c-0.18-0.16-0.28-0.36-0.32-0.61c-0.03-0.27-0.05-0.53-0.05-0.76
				v-3.88l3.83-6.18l0.37-0.56c0.11-0.18,0.25-0.32,0.42-0.41c0.1-0.07,0.2-0.12,0.3-0.14c0.12-0.03,0.2-0.05,0.24-0.06l0.08-0.03
				v-0.42H384.44z"/>
		</g>
		<g>
			<path d="M99.12,26.75h0.08c0.11,0,0.29,0.02,0.55,0.05c0.25,0.03,0.53,0.12,0.83,0.26c0.3,0.14,0.59,0.33,0.87,0.57
				c0.27,0.24,0.48,0.59,0.62,1.04c0.14,0.3,0.21,0.7,0.21,1.17v29.61c0,0.66-0.09,1.2-0.27,1.59c-0.21,0.69-0.57,1.17-1.08,1.42
				c-0.52,0.26-1.11,0.48-1.75,0.66l-0.06,0.02v0.78h11.67v-0.78l-0.06-0.02c-0.64-0.18-1.25-0.39-1.81-0.64
				c-0.55-0.24-0.95-0.7-1.24-1.41c-0.14-0.27-0.24-0.55-0.28-0.81c-0.06-0.26-0.08-0.56-0.08-0.89V44.99l8.1,0
				c0.81,0.03,1.65,0.09,2.49,0.16c0.81,0.07,1.45,0.44,1.9,1.1c0.17,0.17,0.29,0.4,0.38,0.69c0.1,0.33,0.2,0.73,0.29,1.2l0.01,0.06
				h0.79v-9.26h-0.81v0.08c0,0.03-0.01,0.14-0.08,0.46c-0.06,0.27-0.14,0.54-0.24,0.82c-0.12,0.32-0.28,0.61-0.5,0.89
				c-0.22,0.29-0.5,0.5-0.85,0.65c-0.38,0.17-0.85,0.27-1.36,0.29c-0.53,0.02-1.21,0.02-2.03,0.02h-8.1V28.56h9.65
				c0.73,0.03,1.49,0.12,2.23,0.24c0.72,0.12,1.31,0.52,1.76,1.22c0.17,0.28,0.32,0.56,0.42,0.84c0.11,0.3,0.2,0.58,0.26,0.85
				l0.02,0.06h0.79l0.05-5.7v-0.08H99.12V26.75z"/>
			<path d="M154.45,26.66v0.08h0.08c0.01,0,0.11,0.02,0.33,0.08c0.2,0.05,0.42,0.12,0.67,0.19c0.25,0.07,0.5,0.17,0.75,0.31
				c0.26,0.13,0.47,0.31,0.65,0.51c0.45,0.56,0.68,1.27,0.7,2.12c0.01,0.83,0.02,1.57,0.02,2.22V49.3c0,0.93-0.02,1.75-0.08,2.43
				c-0.05,0.67-0.12,1.3-0.22,1.87c-0.08,0.54-0.2,1.03-0.34,1.49c-0.14,0.45-0.31,0.9-0.48,1.35c-0.26,0.6-0.51,1.08-0.77,1.46
				c-0.24,0.37-0.45,0.69-0.61,0.88c-0.32,0.36-0.74,0.73-1.22,1.12c-0.5,0.39-1.11,0.75-1.81,1.06c-0.7,0.33-1.53,0.6-2.44,0.83
				c-0.92,0.23-1.98,0.34-3.14,0.34c-1.73,0-3.43-0.31-5.05-0.93c-1.63-0.62-3.02-1.67-4.14-3.1c-0.53-0.71-0.95-1.43-1.25-2.15
				c-0.3-0.71-0.52-1.46-0.66-2.23c-0.14-0.77-0.23-1.55-0.27-2.32c-0.03-0.78-0.05-1.61-0.05-2.46V32.02
				c0.03-0.71,0.06-1.38,0.08-1.98c0.02-0.54,0.12-1.04,0.29-1.47c0.18-0.41,0.47-0.77,0.88-1.06c0.42-0.3,1.06-0.56,1.9-0.77
				l0.06-0.01l0.07-0.74h-11.3v0.73l0.06,0.01c1.01,0.28,1.71,0.58,2.06,0.9c0.51,0.37,0.81,0.89,0.88,1.54
				c0.07,0.68,0.1,1.59,0.1,2.78v17.23c-0.03,1.81,0.02,3.19,0.16,4.24c0.14,1.04,0.36,2,0.64,2.85c0.36,1,0.89,2.02,1.59,3.04
				c0.69,1.01,1.64,1.94,2.8,2.77c1.14,0.82,2.59,1.5,4.3,2.02c1.7,0.52,3.75,0.78,6.1,0.78c2.38,0,4.45-0.29,6.12-0.86
				c1.68-0.57,3.08-1.31,4.18-2.21c1.09-0.9,1.96-1.91,2.56-2.99c0.61-1.1,1.07-2.18,1.35-3.2c0.19-0.74,0.32-1.41,0.4-2.07
				c0.09-0.74,0.14-1.38,0.16-1.96c0.01-0.57,0.03-1.12,0.03-1.58V31.8c0-0.96,0.02-1.7,0.05-2.21c0.03-0.51,0.19-0.97,0.47-1.38
				c0.31-0.48,0.69-0.81,1.14-0.98c0.48-0.19,0.98-0.35,1.49-0.48l0.06-0.01v-0.73h-9.37V26.66z"/>
			<path d="M212.03,57.84c-0.13,0.43-0.27,0.87-0.43,1.31c-0.14,0.4-0.38,0.77-0.73,1.12c-0.37,0.38-0.81,0.6-1.29,0.67
				c-0.6,0.09-0.88,0.11-1.02,0.11c-0.39,0.07-0.76,0.1-1.11,0.1h-6.1c-1.36-0.04-2.49-0.08-3.47-0.13
				c-0.97-0.05-1.68-0.23-2.1-0.55c-0.17-0.14-0.3-0.28-0.38-0.4c-0.07-0.12-0.15-0.24-0.23-0.37c-0.28-0.58-0.43-1.24-0.45-1.95
				c-0.02-0.8-0.05-1.43-0.09-1.98V45.05h8.16c0.84,0,1.65,0.06,2.42,0.19c0.77,0.12,1.39,0.58,1.83,1.36
				c0.07,0.18,0.15,0.38,0.24,0.59c0.09,0.22,0.19,0.54,0.29,0.95l0.02,0.06h0.79V39h-0.78l-0.02,0.06
				c-0.03,0.1-0.07,0.27-0.14,0.57c-0.06,0.27-0.16,0.55-0.29,0.84c-0.14,0.29-0.34,0.59-0.6,0.89c-0.26,0.29-0.6,0.51-1.01,0.64
				c-0.45,0.18-0.93,0.26-1.44,0.26h-9.47V28.72h10.09c0.69,0,1.35,0.07,1.96,0.21c0.59,0.14,1.06,0.55,1.44,1.25
				c0.14,0.25,0.26,0.51,0.34,0.78c0.11,0.34,0.18,0.61,0.24,0.85l0.02,0.06l0.78,0.07l0.11-5.87v-0.08h-23.12v0.75h0.08
				c0.1,0,0.3,0.02,0.58,0.05c0.27,0.03,0.56,0.12,0.85,0.26c0.3,0.14,0.59,0.33,0.87,0.57c0.27,0.24,0.48,0.59,0.62,1.04
				c0.17,0.41,0.26,0.87,0.26,1.36v26.86c-0.03,0.5-0.04,1.01-0.02,1.53c0.02,0.52,0.01,1.04-0.03,1.57
				c-0.03,0.55-0.16,1.06-0.39,1.52c-0.23,0.45-0.6,0.81-1.13,1.09c-0.2,0.14-0.43,0.24-0.7,0.31c-0.26,0.08-0.53,0.15-0.83,0.22
				l-0.06,0.02l-0.06,0.79h26.28v-6.16h-0.78L212.03,57.84z"/>
			<path d="M250.07,25.99v0.74l0.07,0.01c1.3,0.28,2.15,0.7,2.52,1.25c0.38,0.56,0.61,1.18,0.69,1.84c0.07,0.39,0.1,0.77,0.08,1.18
				c-0.02,0.36-0.03,0.65-0.03,0.78v22.79l-25.22-28.57l-0.02-0.03h-7.82v0.74l0.07,0.01c0.53,0.07,1.04,0.18,1.51,0.34
				c0.47,0.15,0.83,0.48,1.11,1.01c0.24,0.38,0.37,0.82,0.39,1.32c0.02,0.47,0.03,1.1,0.03,2.11V58.4c0,0.48-0.03,1.09-0.08,1.84
				c-0.06,0.73-0.25,1.28-0.61,1.7c-0.37,0.52-0.83,0.84-1.34,0.96c-0.44,0.11-0.84,0.2-1.07,0.24l-0.06,0.01l-0.07,0.79h9.48v-0.79
				l-0.06-0.01c-0.81-0.18-1.48-0.45-1.98-0.82c-0.5-0.36-0.83-0.97-1.01-1.84c-0.03-0.27-0.06-0.55-0.08-0.85
				c-0.01-0.28-0.03-0.69-0.03-1.22V31.53l29.12,32.96l0.02,0.03h0.6V31.7c0.03-0.68,0.06-1.34,0.09-1.98l0.01-0.3
				c0.03-0.7,0.38-1.32,1.05-1.84c0.2-0.17,0.45-0.33,0.75-0.47c0.31-0.14,0.73-0.26,1.24-0.36l0.06-0.01l0.06-0.74H250.07z"/>
			<path d="M169.5,26.73l0.06,0.01c0.59,0.1,1.17,0.28,1.72,0.52c0.53,0.24,0.92,0.68,1.16,1.34c0.22,0.71,0.32,1.91,0.32,3.67
				v31.63c0,1.5-0.09,2.98-0.27,4.4c-0.18,1.42-0.76,2.75-1.75,3.95c-0.36,0.46-0.79,0.92-1.32,1.38c-0.46,0.39-0.79,0.67-0.9,0.74
				l-0.07,0.04l0.45,0.78l0.07-0.03c0.92-0.42,1.65-0.78,2.17-1.07c0.5-0.27,0.95-0.55,1.37-0.86c1.18-0.75,2.12-1.58,2.78-2.45
				c0.68-0.91,1.17-1.74,1.51-2.56c0.34-0.82,0.56-1.63,0.65-2.4c0.09-0.75,0.15-1.41,0.19-1.97V32.28c0-1.49,0.06-2.57,0.19-3.31
				c0.12-0.72,0.56-1.29,1.32-1.71c0.23-0.13,0.45-0.24,0.66-0.32c0.18-0.07,0.52-0.14,1.02-0.21l0.07-0.01v-0.74h-11.4V26.73z"/>
		</g>
	</g>
	<g>
		<g>
			<path d="M45.4,8.44V6.43c-0.92-0.1-1.92-0.16-3.06-0.19l-0.08,0V3.96h-2.24v2.27l-0.07,0c-1.15,0.03-2.16,0.1-3.08,0.19v2.01
				c0.92-0.1,1.93-0.16,3.08-0.19l0.08,0v6.48h2.24V8.24l0.08,0C43.49,8.27,44.49,8.34,45.4,8.44z"/>
			<g>
				<path style="fill-rule:evenodd;clip-rule:evenodd;" d="M20.46,13.11c0.07,0.02,0.15,0.02,0.22,0.01
					c2.04-0.32,5.22-2.43,6.5-4.07c0.02-0.03,0.04-0.07,0.05-0.11c0.03-0.15-0.05-0.29-0.2-0.33c-2.79,0-6.1,1.74-7.04,3.52
					c-0.02,0.04-0.04,0.08-0.05,0.13C19.85,12.64,20.09,13.02,20.46,13.11z"/>
				<path style="fill-rule:evenodd;clip-rule:evenodd;" d="M7.87,25.26c0.09,0,0.17-0.01,0.24-0.04c0.01,0,0.01,0,0.02-0.01
					c0.08-0.03,0.15-0.09,0.22-0.14c1.9-2.5,2.5-5.48,2.69-8.45c-0.01-0.15-0.13-0.26-0.27-0.26c-0.02,0-0.03,0-0.05,0
					c-0.06,0.01-0.11,0.04-0.16,0.08c-0.36,0.38-0.77,0.82-1.08,1.18c-1.46,1.79-2.44,3.77-2.44,6.14c0,0.33,0.03,0.66,0.12,0.99
					C7.27,25.05,7.54,25.26,7.87,25.26z"/>
				<path style="fill-rule:evenodd;clip-rule:evenodd;" d="M2.58,44.26c0.12,0.07,0.25,0.13,0.4,0.13c0.09,0,0.17-0.01,0.25-0.04
					c0.01,0,0.01,0,0.02-0.01c0.13-0.05,0.24-0.14,0.32-0.24c0.08-0.1,0.12-0.22,0.14-0.34c0.32-2.69-1.06-8.07-2.57-9.57
					C1.1,34.13,1.03,34.1,0.95,34.1c-0.01,0-0.03,0-0.05,0c-0.06,0.01-0.12,0.04-0.16,0.08c-0.02,0.03-0.04,0.06-0.06,0.09
					c-0.67,2.82-0.67,5.59,0.56,8.28C1.56,43.23,2.01,43.8,2.58,44.26z"/>
				<path style="fill-rule:evenodd;clip-rule:evenodd;" d="M16.31,21.61c0.01-0.03,0.02-0.06,0.02-0.09c0,0,0-0.01,0-0.01
					c0-0.15-0.1-0.26-0.23-0.29c-2.94-0.05-6.17,2.3-6.96,4.45c-0.02,0.06-0.03,0.13-0.03,0.21c0,0.06,0.01,0.13,0.02,0.19
					c0.09,0.32,0.38,0.56,0.72,0.56c0.06,0,0.11-0.01,0.16-0.03C12.12,26.03,15.27,23.6,16.31,21.61z"/>
				<path style="fill-rule:evenodd;clip-rule:evenodd;" d="M13.2,17.29c0.08,0.03,0.16,0.04,0.23,0.03c0.01,0,0.01,0,0.02,0
					c0.09,0,0.16-0.03,0.24-0.07c2.44-1.7,3.85-4.21,4.88-6.84c0.03-0.14-0.04-0.27-0.17-0.32c-0.01-0.01-0.03-0.01-0.05-0.01
					c-0.06-0.01-0.11,0-0.16,0.03c-0.44,0.24-0.94,0.5-1.31,0.75c-1.83,1.19-3.3,2.7-3.98,4.83c-0.09,0.3-0.16,0.61-0.18,0.93
					C12.72,16.93,12.9,17.2,13.2,17.29z"/>
				<path style="fill-rule:evenodd;clip-rule:evenodd;" d="M21.73,15.04c0.01-0.02,0.02-0.05,0.03-0.08c0-0.01,0-0.01,0-0.01
					c0.01-0.14-0.07-0.25-0.2-0.29c-2.77-0.3-6.02,1.64-6.95,3.59c-0.02,0.06-0.04,0.12-0.05,0.19c-0.01,0.06,0,0.12,0.01,0.18
					c0.05,0.3,0.3,0.55,0.63,0.58c0.05,0,0.11,0,0.16-0.01C17.4,18.84,20.57,16.83,21.73,15.04z"/>
				<path style="fill-rule:evenodd;clip-rule:evenodd;" d="M6.47,35.56c0.08,0,0.16-0.02,0.23-0.05c2.13-0.99,4.42-4.24,5.28-6.53
					c0-0.02,0.01-0.04,0.01-0.07c0,0,0-0.01,0-0.02c0-0.02-0.01-0.05-0.01-0.07c-0.03-0.11-0.14-0.18-0.25-0.2
					c-2.39,0.06-5.62,3.49-6.02,6.15c0,0.02-0.01,0.05-0.01,0.08c0,0.06,0.02,0.12,0.03,0.19c0.02,0.06,0.04,0.11,0.07,0.16
					C5.94,35.42,6.19,35.57,6.47,35.56z"/>
				<path style="fill-rule:evenodd;clip-rule:evenodd;" d="M3.5,34.08c0.15,0.2,0.38,0.33,0.64,0.31c0.09,0,0.17-0.02,0.25-0.05
					c0.01,0,0.02,0,0.02-0.01c0.13-0.06,0.24-0.15,0.32-0.26c0.02-0.02,0.02-0.04,0.03-0.06c1.06-2.24,1.34-6.72,0.49-9.24
					c-0.04-0.12-0.15-0.21-0.29-0.21c-0.02,0-0.03,0-0.05,0.01c-0.06,0.01-0.12,0.05-0.16,0.09c-0.01,0.01-0.02,0.03-0.03,0.04
					c-0.28,0.48-0.53,0.9-0.75,1.35c-1.02,2.12-1.54,4.33-1.02,6.69C3.07,33.22,3.25,33.67,3.5,34.08z"/>
				<path style="fill-rule:evenodd;clip-rule:evenodd;" d="M4.86,44.09c0.04,0.14,0.12,0.26,0.23,0.35
					c0.13,0.11,0.29,0.17,0.47,0.17c0.09,0,0.17-0.02,0.25-0.05c0.01,0,0.02,0,0.02-0.01c0.07-0.03,0.14-0.07,0.2-0.12
					c1.9-1.56,3.41-5.64,3.6-7.8c0-0.08-0.03-0.14-0.08-0.2c-0.05-0.05-0.12-0.08-0.2-0.08c0,0,0,0,0,0
					C6.69,37.17,4.36,41.33,4.86,44.09z"/>
				<path style="fill-rule:evenodd;clip-rule:evenodd;" d="M3.09,53.6c0.24,0.25,0.52,0.45,0.83,0.61c0.11,0.05,0.23,0.08,0.35,0.08
					c0.1,0,0.19-0.02,0.28-0.05c0.13-0.05,0.25-0.13,0.34-0.23c0.04-0.05,0.08-0.1,0.11-0.16c0.03-0.06,0.06-0.12,0.08-0.19
					c0.02-0.07,0.03-0.14,0.03-0.22c-0.28-2.88-2.74-7.13-4.55-8.86c-0.05-0.04-0.11-0.08-0.18-0.08c-0.02,0-0.04,0-0.07,0
					c-0.02,0-0.04,0.01-0.06,0.01c-0.1,0.02-0.17,0.09-0.22,0.17c-0.01,0.02-0.02,0.05-0.03,0.08c-0.09,2.4,0.37,4.62,1.44,6.7
					C1.85,52.25,2.47,52.95,3.09,53.6z"/>
				<path style="fill-rule:evenodd;clip-rule:evenodd;" d="M22.03,76.72c0.12-0.05,0.22-0.12,0.31-0.22
					c0.05-0.05,0.09-0.11,0.13-0.18c0.08-0.14,0.12-0.3,0.12-0.46c0-0.26-0.1-0.49-0.27-0.65c-0.04-0.04-0.08-0.07-0.12-0.1
					c-2.55-1.77-7.35-2.79-10.03-2.53c-0.1,0.03-0.18,0.09-0.24,0.17c-0.02,0.04-0.04,0.08-0.05,0.12
					c-0.01,0.04-0.01,0.08-0.01,0.13c0,0.04,0.01,0.08,0.02,0.11c0.01,0.02,0.02,0.04,0.03,0.06c0.01,0.02,0.03,0.04,0.04,0.05
					c1.51,1.46,3.25,2.53,5.22,3.25c1.27,0.46,2.58,0.72,3.93,0.49C21.43,76.9,21.73,76.82,22.03,76.72z"/>
				<path style="fill-rule:evenodd;clip-rule:evenodd;" d="M8.21,63.21c0.08,0,0.17-0.02,0.25-0.04c0.13-0.05,0.25-0.13,0.34-0.23
					c0.04-0.05,0.08-0.1,0.11-0.16c0.03-0.06,0.06-0.12,0.08-0.19c0.02-0.07,0.03-0.15,0.03-0.22c0-0.03,0-0.06,0-0.08
					C9,62.21,8.98,62.15,8.95,62.09c-1.57-3.17-4.15-5.23-7.09-7.02c-0.03-0.02-0.06-0.03-0.1-0.04c-0.02,0-0.04,0-0.07,0
					c-0.02,0-0.04,0.01-0.06,0.01c-0.1,0.02-0.18,0.09-0.22,0.17c-0.01,0.02-0.02,0.05-0.03,0.08c0,0.01-0.01,0.03-0.01,0.04
					c0,0.01,0,0.02,0,0.04c0,0.01,0,0.02,0,0.02c0.79,2.86,2.24,5.3,4.72,7.04C6.72,62.87,7.42,63.12,8.21,63.21z"/>
				<path style="fill-rule:evenodd;clip-rule:evenodd;" d="M6.54,53.77c0.05,0.06,0.11,0.11,0.17,0.16
					c0.03,0.02,0.06,0.04,0.09,0.05c0.12,0.06,0.26,0.1,0.41,0.1c0.1,0,0.2-0.02,0.28-0.05c0.13-0.05,0.25-0.13,0.34-0.23
					c0,0,0.01-0.01,0.01-0.01c1.45-1.96,1.92-6.2,1.57-8.72c0-0.06-0.02-0.1-0.05-0.15c-0.02-0.03-0.04-0.05-0.06-0.07
					c-0.05-0.05-0.12-0.08-0.2-0.09c-0.02,0-0.04,0-0.06,0c-0.02,0-0.04,0.01-0.06,0.01c-0.03,0.01-0.07,0.03-0.09,0.05
					c-2.74,2.31-3.42,6.57-2.44,8.81C6.47,53.68,6.5,53.73,6.54,53.77z"/>
				<path style="fill-rule:evenodd;clip-rule:evenodd;" d="M13.85,70.4c0.05-0.01,0.09-0.02,0.14-0.03
					c0.13-0.05,0.25-0.13,0.34-0.23c0.05-0.05,0.08-0.1,0.11-0.16c0.03-0.06,0.06-0.12,0.08-0.19c0.02-0.07,0.03-0.15,0.03-0.23
					c0-0.03,0-0.06-0.01-0.08c-0.01-0.1-0.04-0.19-0.08-0.28c-0.02-0.05-0.06-0.1-0.09-0.14c-1.98-2.19-6.5-4.59-8.99-4.73
					c-0.01,0-0.02,0-0.03,0c-0.02,0-0.03,0.01-0.05,0.01c-0.1,0.03-0.18,0.09-0.22,0.17c-0.02,0.03-0.02,0.05-0.03,0.08
					c0,0.01,0,0.03-0.01,0.04c0,0.01,0,0.02,0,0.04c0,0.01,0,0.02,0,0.03c0.01,0.03,0.01,0.05,0.01,0.08
					c0.01,0.02,0.02,0.04,0.02,0.05c1.34,2.47,5,5.57,7.89,5.62C13.25,70.46,13.55,70.43,13.85,70.4z"/>
				<path style="fill-rule:evenodd;clip-rule:evenodd;" d="M10.24,62.37c0.02,0.04,0.05,0.08,0.08,0.12
					c0.05,0.06,0.1,0.11,0.16,0.15c0.03,0.02,0.06,0.04,0.09,0.05c0.08,0.05,0.18,0.08,0.27,0.09c0.04,0.01,0.09,0.01,0.13,0.01
					c0.1,0,0.2-0.02,0.28-0.05c0.13-0.05,0.25-0.13,0.34-0.23c0.05-0.05,0.08-0.1,0.12-0.16c0.01-0.02,0.01-0.04,0.02-0.05
					c0.18-0.46,0.34-0.93,0.43-1.41c0.35-1.9,0.12-3.8-0.27-5.68c-0.09-0.44-0.21-0.87-0.33-1.36h0c-0.01-0.03-0.02-0.07-0.04-0.09
					c-0.02-0.03-0.03-0.06-0.06-0.08c-0.02-0.02-0.04-0.03-0.06-0.04c-0.04-0.03-0.09-0.04-0.14-0.05c-0.02,0-0.04,0-0.07,0
					c-0.02,0-0.04,0-0.05,0.01c-0.07,0.02-0.14,0.06-0.18,0.12c-0.02,0.03-0.04,0.05-0.06,0.07C9.5,55.79,8.93,58,9.44,60.38
					C9.58,61.07,9.9,61.73,10.24,62.37z"/>
				<path style="fill-rule:evenodd;clip-rule:evenodd;" d="M16.26,69.58c0.02,0.01,0.04,0.02,0.05,0.04
					c0.08,0.04,0.18,0.08,0.28,0.09c0.04,0.01,0.08,0.01,0.13,0.01c0.03,0,0.06,0,0.09,0c0.07-0.01,0.13-0.02,0.2-0.05
					c0.13-0.05,0.25-0.13,0.34-0.23c0.05-0.05,0.08-0.1,0.11-0.16c0.02-0.05,0.04-0.1,0.06-0.14c0.48-2.33-0.76-6.22-2.22-8.51
					c-0.01-0.02-0.03-0.04-0.05-0.05c-0.01-0.01-0.03-0.03-0.05-0.04c-0.04-0.03-0.09-0.04-0.14-0.05c0,0-0.01,0-0.02,0
					c-0.01,0-0.03,0-0.05,0c-0.02,0-0.04,0.01-0.06,0.01c-0.08,0.02-0.15,0.08-0.2,0.15C13.32,63.2,13.82,67.44,16.26,69.58z"/>
				<path style="fill-rule:evenodd;clip-rule:evenodd;" d="M23.42,74.78c0.13,0.07,0.27,0.1,0.42,0.1c0.02,0,0.04,0,0.07,0
					c0.09-0.01,0.17-0.03,0.25-0.05c0.15-0.05,0.28-0.14,0.38-0.26c0.05-0.06,0.09-0.12,0.13-0.18c0.07-0.14,0.12-0.3,0.12-0.46
					c-0.29-3.09-2.11-5.46-4.04-7.84c-0.03-0.04-0.07-0.07-0.12-0.1c-0.04-0.02-0.09-0.04-0.14-0.04c-0.01,0-0.02,0-0.04,0
					c-0.01,0-0.02,0-0.04,0c-0.02,0-0.05,0-0.06,0.01c-0.1,0.02-0.18,0.08-0.24,0.17c-0.02,0.03-0.03,0.07-0.05,0.11
					C19.22,69.02,21.03,73.36,23.42,74.78z"/>
				<path style="fill-rule:evenodd;clip-rule:evenodd;" d="M31.2,79c-0.07-0.05-0.15-0.09-0.22-0.11c-2.91-1-7.76-0.71-10.28,0.25
					c-0.07,0.03-0.14,0.07-0.18,0.14c-0.02,0.04-0.04,0.08-0.05,0.13c0,0.01,0,0.03-0.01,0.05c0,0.03,0,0.05,0,0.08
					c0,0.04,0.01,0.08,0.02,0.11c0.01,0.02,0.02,0.05,0.03,0.07c0.01,0.03,0.04,0.05,0.06,0.07c0.02,0.02,0.04,0.04,0.07,0.05
					c1.84,1.01,3.81,1.57,5.9,1.72c1.35,0.1,2.68,0,3.92-0.59c0.28-0.13,0.55-0.29,0.81-0.47c0.03-0.03,0.07-0.06,0.1-0.09
					c0.05-0.05,0.09-0.12,0.13-0.18c0.07-0.14,0.12-0.3,0.12-0.46c0-0.25-0.1-0.48-0.26-0.65C31.3,79.07,31.25,79.03,31.2,79z"/>
				<path style="fill-rule:evenodd;clip-rule:evenodd;" d="M49.99,78.53c2.9-0.25,6.09-4.93,5.62-8.18c0-0.01,0-0.01,0-0.02
					c-0.01-0.04-0.03-0.09-0.06-0.13c-0.06-0.08-0.14-0.14-0.24-0.16c-0.02-0.01-0.04-0.01-0.06-0.01c-0.01,0-0.03,0-0.04,0
					c-0.01,0-0.03,0-0.04,0c-0.05,0.01-0.1,0.02-0.14,0.04c-0.03,0.01-0.05,0.03-0.07,0.05c-2.44,2.18-4.75,4.37-5.35,7.73
					c-1.85,0.47-5.16,1.39-8.44,2.58c-3.28-1.18-6.6-2.1-8.44-2.58c-0.61-3.36-2.92-5.54-5.35-7.73c-0.02-0.02-0.05-0.04-0.07-0.05
					c-0.05-0.02-0.09-0.04-0.14-0.04c-0.01,0-0.03,0-0.04,0c-0.01,0-0.02,0-0.04,0c-0.02,0-0.04,0-0.06,0.01
					c-0.1,0.02-0.18,0.08-0.24,0.16c-0.02,0.04-0.04,0.08-0.06,0.13c0,0.01,0,0.01,0,0.02c-0.46,3.25,2.73,7.93,5.62,8.18
					c2,0.42,4.68,1.33,7.33,2.46c-2.87,1.12-5.53,2.44-6.93,3.83l1.04,1.22c1.29-1.28,4.2-2.94,7.38-4.39
					c3.18,1.45,6.1,3.11,7.39,4.39l1.04-1.22c-1.4-1.39-4.05-2.71-6.93-3.83C45.31,79.86,47.99,78.94,49.99,78.53z"/>
				<path style="fill-rule:evenodd;clip-rule:evenodd;" d="M55.15,9.05c1.28,1.64,4.46,3.75,6.5,4.07c0.07,0.01,0.15,0,0.22-0.01
					c0.38-0.09,0.62-0.47,0.53-0.85c-0.01-0.05-0.03-0.09-0.05-0.13c-0.94-1.78-4.25-3.51-7.04-3.52c-0.15,0.03-0.24,0.18-0.21,0.33
					C55.11,8.98,55.13,9.02,55.15,9.05z"/>
				<path style="fill-rule:evenodd;clip-rule:evenodd;" d="M74.19,25.21c0.01,0,0.02,0.01,0.02,0.01c0.07,0.03,0.16,0.04,0.24,0.04
					c0.33,0,0.6-0.22,0.69-0.51c0.09-0.33,0.12-0.65,0.12-0.99c0-2.37-0.98-4.35-2.44-6.14c-0.3-0.37-0.71-0.8-1.08-1.18
					c-0.04-0.04-0.09-0.07-0.16-0.08c-0.01,0-0.03,0-0.05,0c-0.15,0-0.27,0.12-0.27,0.26c0.19,2.97,0.79,5.95,2.69,8.45
					C74.04,25.12,74.11,25.18,74.19,25.21z"/>
				<path style="fill-rule:evenodd;clip-rule:evenodd;" d="M78.62,43.74c0.02,0.13,0.07,0.24,0.14,0.34
					c0.08,0.11,0.19,0.19,0.32,0.24c0.01,0,0.01,0.01,0.02,0.01c0.08,0.03,0.16,0.04,0.25,0.04c0.15,0,0.28-0.05,0.4-0.13
					c0.57-0.46,1.01-1.03,1.32-1.7c1.23-2.69,1.23-5.46,0.56-8.28c-0.02-0.03-0.03-0.06-0.06-0.09c-0.04-0.04-0.1-0.07-0.16-0.08
					c-0.01,0-0.03,0-0.05,0c-0.08,0-0.14,0.03-0.19,0.07C79.68,35.68,78.29,41.06,78.62,43.74z"/>
				<path style="fill-rule:evenodd;clip-rule:evenodd;" d="M72.47,26.62c0.35,0,0.64-0.23,0.72-0.56c0.02-0.06,0.02-0.12,0.02-0.19
					c0-0.07-0.01-0.14-0.03-0.21c-0.79-2.15-4.02-4.5-6.96-4.45c-0.13,0.03-0.23,0.14-0.23,0.29c0,0,0,0.01,0,0.01
					c0,0.03,0.01,0.06,0.02,0.09c1.05,1.99,4.19,4.42,6.3,4.98C72.36,26.61,72.42,26.62,72.47,26.62z"/>
				<path style="fill-rule:evenodd;clip-rule:evenodd;" d="M68.64,17.26c0.08,0.03,0.16,0.06,0.24,0.07c0.01,0,0.02,0,0.02,0
					c0.07,0,0.16-0.01,0.23-0.03c0.29-0.09,0.47-0.37,0.47-0.66c-0.01-0.32-0.08-0.63-0.18-0.93c-0.68-2.13-2.15-3.64-3.98-4.83
					c-0.38-0.25-0.87-0.52-1.31-0.75c-0.05-0.03-0.11-0.04-0.16-0.03c-0.01,0-0.03,0-0.04,0.01c-0.13,0.04-0.21,0.18-0.17,0.32
					C64.79,13.05,66.2,15.56,68.64,17.26z"/>
				<path style="fill-rule:evenodd;clip-rule:evenodd;" d="M67.12,19.21c0.32-0.03,0.57-0.28,0.63-0.58
					c0.01-0.06,0.01-0.12,0.01-0.18c-0.01-0.07-0.02-0.13-0.05-0.19c-0.92-1.95-4.17-3.89-6.95-3.59c-0.12,0.04-0.21,0.15-0.2,0.29
					c0,0,0,0.01,0,0.01c0.01,0.03,0.02,0.06,0.03,0.08c1.15,1.79,4.33,3.81,6.36,4.16C67.02,19.2,67.07,19.21,67.12,19.21z"/>
				<path style="fill-rule:evenodd;clip-rule:evenodd;" d="M70.35,28.82c-0.01,0.02-0.01,0.05-0.01,0.07c0,0.01,0,0.02,0,0.02
					c0,0.03,0.01,0.05,0.01,0.07c0.85,2.29,3.15,5.55,5.27,6.53c0.07,0.03,0.15,0.05,0.23,0.05c0.28,0.01,0.53-0.14,0.67-0.36
					c0.03-0.05,0.05-0.11,0.07-0.16c0.02-0.06,0.03-0.12,0.03-0.19c0-0.03,0-0.05-0.01-0.08c-0.41-2.66-3.63-6.09-6.02-6.15
					C70.48,28.63,70.39,28.7,70.35,28.82z"/>
				<path style="fill-rule:evenodd;clip-rule:evenodd;" d="M77.59,34.07c0.08,0.11,0.19,0.21,0.32,0.26c0.01,0,0.01,0.01,0.02,0.01
					c0.08,0.03,0.16,0.05,0.25,0.05c0.26,0.02,0.49-0.11,0.64-0.31c0.25-0.41,0.42-0.87,0.53-1.36c0.52-2.35,0-4.57-1.02-6.69
					c-0.22-0.44-0.47-0.87-0.75-1.35c-0.01-0.01-0.01-0.03-0.02-0.04c-0.04-0.05-0.1-0.08-0.16-0.09c-0.01-0.01-0.03-0.01-0.05-0.01
					c-0.14-0.01-0.25,0.08-0.29,0.21c-0.85,2.53-0.57,7,0.49,9.24C77.57,34.03,77.58,34.05,77.59,34.07z"/>
				<path style="fill-rule:evenodd;clip-rule:evenodd;" d="M76.51,44.57c0.08,0.03,0.16,0.05,0.25,0.05c0.18,0,0.35-0.07,0.47-0.17
					c0.11-0.09,0.19-0.21,0.23-0.35c0.5-2.77-1.83-6.93-4.48-7.72c0,0,0,0,0,0c-0.08,0-0.15,0.03-0.2,0.08
					c-0.05,0.05-0.08,0.12-0.08,0.2c0.19,2.16,1.69,6.24,3.6,7.8c0.06,0.05,0.12,0.09,0.19,0.12C76.49,44.57,76.5,44.57,76.51,44.57
					z"/>
				<path style="fill-rule:evenodd;clip-rule:evenodd;" d="M82.01,44.5c-0.02,0-0.04,0-0.07,0c-0.07,0.01-0.13,0.04-0.18,0.08
					c-1.8,1.72-4.27,5.98-4.55,8.86c0,0.08,0.01,0.15,0.03,0.22c0.02,0.07,0.04,0.13,0.07,0.19c0.03,0.06,0.07,0.11,0.12,0.16
					c0.09,0.1,0.21,0.18,0.34,0.23c0.09,0.03,0.19,0.05,0.28,0.05c0.13,0,0.24-0.03,0.35-0.08c0.31-0.16,0.59-0.36,0.83-0.61
					c0.62-0.65,1.24-1.35,1.64-2.14c1.07-2.08,1.53-4.3,1.44-6.7c-0.01-0.03-0.02-0.05-0.03-0.08c-0.04-0.08-0.12-0.15-0.22-0.17
					C82.04,44.5,82.03,44.5,82.01,44.5z"/>
				<path style="fill-rule:evenodd;clip-rule:evenodd;" d="M70.4,72.74c-0.06-0.08-0.14-0.14-0.24-0.17
					c-2.68-0.26-7.48,0.76-10.03,2.53c-0.04,0.03-0.08,0.07-0.12,0.1c-0.16,0.17-0.26,0.4-0.26,0.65c0,0.17,0.04,0.33,0.12,0.46
					c0.03,0.06,0.08,0.12,0.13,0.18c0.08,0.1,0.19,0.17,0.31,0.22c0.29,0.11,0.6,0.18,0.92,0.24c1.35,0.23,2.66-0.02,3.93-0.49
					c1.97-0.71,3.72-1.78,5.22-3.25c0.02-0.02,0.03-0.03,0.04-0.05c0.01-0.02,0.02-0.04,0.03-0.06c0.01-0.04,0.02-0.07,0.02-0.11
					c0-0.04,0-0.09-0.01-0.13C70.44,72.82,70.42,72.78,70.4,72.74z"/>
				<path style="fill-rule:evenodd;clip-rule:evenodd;" d="M80.95,55.28c-0.01-0.03-0.02-0.06-0.03-0.08
					c-0.05-0.08-0.12-0.15-0.22-0.17c-0.02,0-0.04-0.01-0.05-0.01c-0.02,0-0.05,0-0.07,0c-0.04,0-0.07,0.02-0.11,0.04
					c-2.93,1.79-5.51,3.85-7.09,7.02c-0.02,0.06-0.05,0.12-0.05,0.19c0,0.03,0,0.06,0,0.08c0,0.08,0.01,0.15,0.03,0.22
					c0.02,0.07,0.04,0.13,0.08,0.19c0.03,0.06,0.07,0.11,0.11,0.16c0.09,0.1,0.21,0.18,0.34,0.23c0.08,0.03,0.16,0.04,0.24,0.04
					c0.78-0.09,1.48-0.35,2.11-0.78c2.48-1.74,3.93-4.18,4.72-7.04c0-0.01,0-0.01,0-0.02c0-0.01,0-0.02,0-0.04
					C80.95,55.31,80.95,55.3,80.95,55.28z"/>
				<path style="fill-rule:evenodd;clip-rule:evenodd;" d="M74.5,53.8c0.09,0.11,0.21,0.19,0.34,0.23c0.09,0.03,0.19,0.05,0.28,0.05
					c0.15,0,0.29-0.03,0.41-0.1c0.03-0.02,0.06-0.04,0.09-0.05c0.06-0.05,0.12-0.1,0.17-0.16c0.04-0.05,0.06-0.1,0.1-0.15
					c0.97-2.24,0.29-6.5-2.45-8.81c-0.03-0.02-0.05-0.04-0.09-0.05c-0.02-0.01-0.04-0.01-0.05-0.01c-0.02,0-0.05,0-0.07,0
					c-0.07,0.01-0.14,0.04-0.19,0.09c-0.02,0.02-0.04,0.05-0.06,0.07c-0.02,0.04-0.04,0.09-0.05,0.15
					c-0.34,2.52,0.12,6.76,1.57,8.72C74.49,53.79,74.5,53.8,74.5,53.8z"/>
				<path style="fill-rule:evenodd;clip-rule:evenodd;" d="M77.29,64.59c-0.01-0.03-0.02-0.05-0.03-0.08
					c-0.05-0.08-0.12-0.15-0.22-0.17c-0.01,0-0.03,0-0.05-0.01c-0.01,0-0.02,0-0.03,0c-2.49,0.14-7.01,2.54-8.99,4.73
					c-0.03,0.05-0.07,0.09-0.09,0.14c-0.04,0.08-0.07,0.18-0.08,0.28c0,0.03,0,0.05,0,0.08c0,0.08,0.01,0.16,0.03,0.23
					c0.02,0.06,0.04,0.13,0.07,0.19c0.03,0.06,0.07,0.11,0.11,0.16c0.09,0.1,0.21,0.18,0.34,0.23c0.04,0.02,0.09,0.02,0.14,0.03
					c0.3,0.03,0.59,0.06,0.89,0.05c2.89-0.06,6.56-3.16,7.89-5.62c0.01-0.02,0.02-0.04,0.02-0.05c0.01-0.02,0.01-0.05,0.01-0.08
					c0-0.01,0-0.02,0-0.03c0-0.01,0-0.02,0-0.04C77.29,64.62,77.29,64.6,77.29,64.59z"/>
				<path style="fill-rule:evenodd;clip-rule:evenodd;" d="M70.58,62.31c0.01,0.01,0.01,0.03,0.02,0.05
					c0.03,0.05,0.07,0.11,0.12,0.16c0.09,0.1,0.21,0.18,0.34,0.23c0.09,0.03,0.19,0.05,0.28,0.05c0.04,0,0.09,0,0.13-0.01
					c0.1-0.01,0.19-0.04,0.27-0.09c0.03-0.01,0.06-0.03,0.09-0.05c0.06-0.04,0.12-0.1,0.16-0.15c0.03-0.04,0.06-0.08,0.08-0.12
					c0.34-0.64,0.66-1.3,0.81-1.99c0.51-2.38-0.06-4.59-1.48-6.58c-0.02-0.02-0.04-0.05-0.06-0.07c-0.05-0.06-0.11-0.1-0.18-0.12
					c-0.01,0-0.04-0.01-0.05-0.01c-0.02,0-0.05,0-0.07,0c-0.05,0.01-0.1,0.02-0.14,0.05c-0.02,0.01-0.04,0.02-0.05,0.04
					c-0.02,0.02-0.04,0.05-0.06,0.08c-0.02,0.03-0.03,0.06-0.04,0.09c-0.13,0.49-0.24,0.93-0.33,1.36C70.04,57.1,69.8,59,70.15,60.9
					C70.24,61.38,70.4,61.85,70.58,62.31z"/>
				<path style="fill-rule:evenodd;clip-rule:evenodd;" d="M67.4,60.49c-0.02,0-0.04-0.01-0.06-0.01c-0.02,0-0.03,0-0.05,0
					c-0.01,0-0.01,0-0.02,0c-0.05,0.01-0.1,0.02-0.14,0.05c-0.02,0.01-0.04,0.03-0.05,0.04c-0.02,0.02-0.03,0.03-0.05,0.05
					c-1.46,2.29-2.7,6.18-2.22,8.51c0.01,0.05,0.03,0.1,0.06,0.14c0.03,0.06,0.07,0.11,0.11,0.16c0.09,0.1,0.21,0.18,0.34,0.23
					c0.06,0.02,0.12,0.04,0.19,0.05c0.03,0,0.06,0,0.09,0c0.05,0,0.09,0,0.13-0.01c0.1-0.01,0.19-0.04,0.28-0.09
					c0.02-0.01,0.04-0.02,0.05-0.04c2.44-2.14,2.94-6.38,1.53-8.95C67.55,60.57,67.48,60.51,67.4,60.49z"/>
				<path style="fill-rule:evenodd;clip-rule:evenodd;" d="M61.99,65.96c-0.02-0.01-0.04-0.01-0.06-0.01c-0.02,0-0.03,0-0.04,0
					c-0.01,0-0.02,0-0.04,0c-0.05,0.01-0.1,0.02-0.14,0.04c-0.05,0.03-0.09,0.06-0.12,0.1c-1.93,2.38-3.75,4.74-4.04,7.84
					c0,0.16,0.04,0.32,0.12,0.46c0.03,0.06,0.08,0.12,0.13,0.18c0.1,0.11,0.23,0.2,0.38,0.26c0.08,0.03,0.17,0.05,0.25,0.05
					c0.02,0,0.05,0,0.07,0c0.15,0,0.29-0.04,0.42-0.1c2.39-1.42,4.2-5.76,3.36-8.55c-0.01-0.04-0.02-0.07-0.05-0.11
					C62.17,66.04,62.08,65.99,61.99,65.96z"/>
				<path style="fill-rule:evenodd;clip-rule:evenodd;" d="M61.86,79.4c-0.01-0.05-0.03-0.09-0.06-0.13
					c-0.04-0.06-0.1-0.11-0.18-0.14c-2.52-0.96-7.37-1.25-10.28-0.25c-0.08,0.03-0.16,0.06-0.22,0.11
					c-0.05,0.03-0.09,0.07-0.13,0.11c-0.17,0.17-0.27,0.4-0.27,0.65c0,0.17,0.04,0.33,0.12,0.46c0.04,0.06,0.08,0.12,0.13,0.18
					c0.03,0.03,0.07,0.06,0.1,0.09c0.25,0.17,0.52,0.33,0.8,0.47c1.24,0.59,2.57,0.69,3.92,0.59c2.08-0.15,4.05-0.72,5.89-1.72
					c0.02-0.01,0.05-0.03,0.07-0.05c0.02-0.02,0.04-0.05,0.06-0.07c0.01-0.02,0.02-0.04,0.03-0.07c0.01-0.03,0.02-0.07,0.02-0.11
					c0-0.03,0-0.05,0-0.08C61.86,79.42,61.86,79.41,61.86,79.4z"/>
			</g>
		</g>
		<g>
			<g>
				<path d="M45.41,35.99h-0.89v1.92c0,0.69-0.3,1.16-0.9,1.43c-0.51,0.23-1.03,0.23-1.04,0.23v0.44l0,0.45c0,0,0,0,0,0v0.64
					c0.51,0,0.96-0.07,1.34-0.22v8.34h0.89v-8.94c0-0.01,0.01-0.01,0.01-0.01c0.62-0.69,0.6-1.56,0.58-1.74V35.99z"/>
				<rect x="46.32" y="36.73" width="5.33" height="1.54"/>
				<rect x="46.32" y="47.27" width="5.33" height="1.54"/>
			</g>
			<g>
				<rect x="31.71" y="43.22" width="0.93" height="1.52"/>
				<rect x="31.71" y="40.29" width="0.93" height="1.52"/>
				<rect x="37.85" y="43.22" width="0.92" height="1.52"/>
				<rect x="36.25" y="40.29" width="0.91" height="1.52"/>
				<rect x="33.33" y="43.22" width="0.91" height="1.52"/>
				<path d="M56.69,21.07c-0.35,0-0.69,0.02-1.02,0.07c-0.75,0.1-1.52,0.15-2.3,0.15c-2.95,0-5.73-0.74-8.17-2.03
					c-0.37-0.2-0.73-0.41-1.08-0.63c-0.17-0.11-0.34-0.22-0.51-0.33c-0.15-0.11-0.45-0.32-0.45-0.32c-0.57-0.41-1.27-0.65-2.02-0.65
					c-0.75,0-1.45,0.24-2.02,0.65c0,0-0.3,0.21-0.45,0.32c-0.17,0.11-0.34,0.23-0.52,0.33c-0.35,0.22-0.71,0.43-1.08,0.63
					c-2.44,1.3-5.22,2.03-8.17,2.03c-0.79,0-1.55-0.05-2.31-0.15c-0.33-0.05-0.67-0.07-1.01-0.07c-3.93,0-7.13,3.19-7.13,7.13v14.65
					c-0.01,0.28-0.02,0.56-0.02,0.84c0,13.17,9.36,24.15,21.79,26.67c0.29,0.04,0.6,0.07,0.9,0.07c0.29,0,0.58-0.02,0.86-0.06
					c12.39-2.5,21.74-13.4,21.82-26.51l0-0.09V28.19C63.82,24.26,60.63,21.07,56.69,21.07z M39.45,35.98v2.09h-1.6v0.8h1.6v10.4
					h-0.68v-3.13h-0.92v3.17h-0.69v-3.17h-0.91v3.13h-0.68l0-10.4h1.59v-0.8h-1.59v-1.41h1.59v-0.68h0.69v0.68h0.92v-0.68H39.45z
					 M36.33,27.55h0.01l0.64-1.29l0.63,1.27l0,0.01l1.42,0.2l-1.02,0.99L38,28.76l0.24,1.41l-1.27-0.67l-1.26,0.67l0.23-1.4v-0.01
					l-1.02-1L36.33,27.55z M29.78,31.66l0.01,0l0.64-1.28l0.63,1.27l0.01,0.01l1.42,0.21l-1.01,0.99l-0.01,0.01l0.24,1.41
					l-1.27-0.67l-1.27,0.67l0.24-1.4v-0.01l-1.03-1L29.78,31.66z M25.88,38.43l0.01,0l0.64-1.28l0.63,1.27l0.01,0.01l1.42,0.21
					l-1.02,0.99l-0.01,0.01l0.24,1.41l-1.26-0.66l-0.01-0.01l-1.27,0.66l0.24-1.4l0-0.01l-1.03-1L25.88,38.43z M26.73,48.23
					l-0.01-0.01l-1.27,0.67l0.24-1.39l0-0.01l-1.02-1l1.4-0.2l0.01,0l0.64-1.29l0.63,1.27l0.01,0.01l1.42,0.21l-1.02,0.99
					l-0.01,0.01l0.24,1.41L26.73,48.23z M32.07,55.48l-1.26-0.66l-0.01-0.01l-1.27,0.66l0.24-1.4l0-0.02l-1.03-1l1.41-0.2h0.01
					l0.64-1.29l0.63,1.27l0.01,0.01l1.42,0.2l-1.01,0.99l-0.01,0.01L32.07,55.48z M34.93,38.08h-1.6v0.8h1.6v7.27h-1.6v0.81h1.6
					v1.41h-1.6v0.95h-0.68v-0.95h-1.62v-1.41h1.62v-0.81h-1.62v-7.27h1.62v-0.8h-1.62v-1.41h1.62v-0.68h0.68v0.68h1.6V38.08z
					 M38.72,59.38l-1.27-0.67l-1.27,0.67l0.24-1.4l0-0.01l-1.03-1l1.4-0.2l0.01,0l0.63-1.29l0.63,1.27l0.01,0.01l1.42,0.2
					l-1.01,0.99l-0.01,0.01L38.72,59.38z M62.22,43.69c0,12.26-8.71,22.46-20.28,24.8c-0.27,0.04-0.54,0.06-0.81,0.06l-0.01-49.36
					c0.7,0,1.37,0.3,1.9,0.68l0,0c0.14,0.1,0.27,0.2,0.42,0.29c0.16,0.11,0.32,0.21,0.48,0.31c0.33,0.21,0.66,0.4,1.01,0.59
					c2.27,1.2,5.15,1.83,7.9,1.83c0.73,0,1.5-0.1,2.21-0.19c0.3-0.04,0.89-0.06,1.21-0.06c3.57,0,5.95,2.74,6.09,6.28h0.01
					C62.33,28.92,62.22,43.57,62.22,43.69z"/>
				<rect x="36.25" y="43.22" width="0.91" height="1.52"/>
				<rect x="37.85" y="40.29" width="0.92" height="1.52"/>
				<rect x="33.33" y="40.29" width="0.91" height="1.52"/>
			</g>
			<g>
				<polygon points="46.78,27.78 45.4,27.58 45.39,27.55 44.79,26.34 44.18,27.58 42.81,27.78 43.8,28.75 43.56,30.11 44.79,29.46 
					46.02,30.11 45.78,28.75 				"/>
				<polygon points="52.65,32.57 53.62,31.62 52.25,31.43 51.64,30.18 51.02,31.43 49.65,31.62 50.64,32.6 50.64,32.62 50.41,33.96 
					51.64,33.31 52.86,33.96 52.63,32.6 				"/>
				<polygon points="56.56,39 57.53,38.06 56.16,37.86 56.14,37.83 55.54,36.62 54.93,37.86 53.56,38.06 54.55,39.03 54.32,40.39 
					55.54,39.75 56.77,40.39 56.54,39.03 				"/>
				<polygon points="57.72,45.86 56.35,45.66 56.33,45.64 55.73,44.42 55.12,45.66 53.75,45.86 54.74,46.83 54.5,48.2 55.73,47.55 
					56.96,48.2 56.72,46.83 				"/>
				<polygon points="54.02,52.71 52.65,52.51 52.64,52.48 52.04,51.26 51.42,52.51 50.06,52.71 51.05,53.67 50.81,55.04 
					52.04,54.39 53.27,55.04 53.03,53.67 				"/>
				<polygon points="46.47,57.74 47.43,56.79 46.06,56.6 45.45,55.35 44.84,56.6 44.81,56.6 43.47,56.79 44.46,57.76 44.45,57.8 
					44.22,59.13 45.45,58.48 46.68,59.13 46.44,57.76 				"/>
			</g>
		</g>
	</g>
</g>
</svg>
