<?xml version="1.0" encoding="utf-8"?>
<!-- Generator: Adobe Illustrator 25.0.1, SVG Export Plug-In . SVG Version: 6.00 Build 0)  -->
<svg version="1.1" id="圖層_1" xmlns="http://www.w3.org/2000/svg" xmlns:xlink="http://www.w3.org/1999/xlink" x="0px" y="0px"
	 viewBox="0 0 284 60" style="enable-background:new 0 0 284 60;" xml:space="preserve">
<g>
	<g>
		<g>
			<path d="M198.63,19.48c0.14-0.27,0.29-0.49,0.44-0.68c0.16-0.19,0.31-0.34,0.45-0.46c0.3-0.25,0.62-0.46,0.93-0.6
				c0.32-0.15,0.63-0.25,0.92-0.32c0.3-0.07,0.56-0.1,0.79-0.12c0.24-0.01,0.42-0.02,0.55-0.02c0.37,0,0.76,0.04,1.18,0.12
				c0.41,0.08,0.77,0.23,1.06,0.47c0.19,0.15,0.32,0.31,0.41,0.47l0.24,0.42h0.3l0.06-1.81l-0.06-0.02
				c-0.38-0.11-0.73-0.2-1.04-0.27c-0.31-0.07-0.58-0.12-0.83-0.16c-0.25-0.04-0.48-0.06-0.68-0.07c-0.21-0.01-0.41-0.01-0.61-0.01
				c-0.19,0-0.45,0.01-0.78,0.03c-0.33,0.02-0.7,0.08-1.11,0.18c-0.4,0.1-0.84,0.26-1.29,0.48c-0.45,0.22-0.88,0.52-1.29,0.91
				c-0.37,0.35-0.66,0.72-0.88,1.09c-0.21,0.37-0.37,0.73-0.48,1.08c-0.11,0.34-0.18,0.67-0.21,0.96c-0.03,0.3-0.04,0.53-0.04,0.71
				c0,0.54,0.07,1.07,0.21,1.55c0.15,0.49,0.35,0.95,0.63,1.37c0.27,0.42,0.61,0.79,1.01,1.11c0.4,0.33,0.86,0.59,1.36,0.79
				c0.25,0.1,0.51,0.18,0.77,0.24c0.24,0.05,0.48,0.09,0.69,0.12c0.21,0.03,0.4,0.04,0.57,0.05c0.16,0,0.29,0.01,0.39,0.01
				c0.4,0,0.85-0.03,1.34-0.09c0.49-0.06,0.94-0.14,1.32-0.25c0.16-0.05,0.31-0.09,0.47-0.14c0.16-0.05,0.31-0.1,0.47-0.16
				l0.06-0.02l-0.06-1.73h-0.31l-0.02,0.05c-0.03,0.08-0.07,0.17-0.11,0.28c-0.04,0.1-0.13,0.23-0.25,0.37
				c-0.05,0.05-0.13,0.12-0.22,0.21c-0.09,0.08-0.22,0.15-0.37,0.22c-0.19,0.09-0.39,0.16-0.6,0.21c-0.21,0.05-0.42,0.09-0.6,0.12
				c-0.19,0.03-0.35,0.04-0.5,0.05c-0.14,0.01-0.24,0.01-0.3,0.01c-0.16,0-0.37-0.01-0.63-0.03c-0.25-0.02-0.54-0.07-0.84-0.16
				c-0.3-0.09-0.62-0.23-0.94-0.42c-0.32-0.18-0.63-0.45-0.93-0.78c-0.12-0.13-0.25-0.29-0.38-0.48c-0.13-0.19-0.26-0.42-0.37-0.68
				c-0.11-0.26-0.21-0.56-0.29-0.89c-0.08-0.33-0.12-0.72-0.12-1.14c0-0.45,0.05-0.86,0.14-1.21
				C198.38,20.06,198.5,19.74,198.63,19.48z"/>
			<path d="M208.93,26.47l-0.07-0.02c-0.11-0.02-0.21-0.05-0.29-0.09c-0.08-0.04-0.14-0.1-0.19-0.19c-0.03-0.06-0.05-0.1-0.06-0.14
				c-0.01-0.05-0.01-0.08-0.01-0.11c0-0.09,0.03-0.21,0.08-0.34c0.06-0.14,0.13-0.32,0.21-0.52l0.82-1.91h3.46l0.76,1.84
				c0.05,0.12,0.1,0.24,0.15,0.35c0.05,0.11,0.1,0.22,0.14,0.33c0.03,0.13,0.04,0.2,0.04,0.23c0,0.02,0,0.05-0.01,0.1
				c0,0.03-0.02,0.08-0.05,0.13c-0.06,0.11-0.13,0.19-0.23,0.22c-0.11,0.05-0.23,0.08-0.35,0.09l-0.07,0.01l-0.03,0.33h3.2v-0.28
				l-0.05-0.02c-0.1-0.05-0.23-0.11-0.38-0.19c-0.14-0.07-0.28-0.22-0.42-0.45c-0.03-0.05-0.06-0.1-0.1-0.18
				c-0.03-0.08-0.07-0.16-0.11-0.24l-0.11-0.24c-0.04-0.08-0.06-0.14-0.09-0.2l-3.55-8.35l-0.02-0.05h-0.24l-3.88,8.68
				c-0.09,0.21-0.18,0.39-0.25,0.54c-0.08,0.14-0.16,0.26-0.24,0.35c-0.08,0.09-0.17,0.15-0.26,0.2c-0.09,0.05-0.2,0.08-0.33,0.1
				l-0.08,0.01v0.33h2.62V26.47z M209.81,22.3l1.4-3.11l1.32,3.11H209.81z"/>
			<path d="M214.78,18.41h0.33l0.01-0.07c0.01-0.05,0.02-0.13,0.05-0.26c0.02-0.1,0.08-0.2,0.19-0.29c0.09-0.07,0.21-0.13,0.34-0.16
				c0.14-0.03,0.34-0.05,0.61-0.06h1.93v7.8c0,0.27-0.03,0.47-0.09,0.6c-0.06,0.13-0.14,0.23-0.24,0.31
				c-0.08,0.07-0.17,0.11-0.26,0.13c-0.11,0.03-0.18,0.04-0.2,0.05l-0.05,0.02l-0.03,0.32h3.21v-0.33l-0.07-0.01
				c-0.18-0.05-0.31-0.09-0.39-0.14c-0.08-0.05-0.16-0.11-0.22-0.17c-0.07-0.08-0.12-0.16-0.15-0.23c-0.03-0.08-0.05-0.17-0.06-0.27
				c-0.01-0.1-0.01-0.23-0.01-0.36v-7.69h2.1c0.3,0,0.54,0.04,0.72,0.12c0.16,0.08,0.26,0.27,0.32,0.59l0.01,0.07h0.32v-1.66h-8.36
				V18.41z"/>
			<path d="M226.76,26.45h-0.09c-0.01,0-0.04,0-0.11-0.02c-0.06-0.01-0.12-0.03-0.18-0.07c-0.07-0.04-0.14-0.08-0.21-0.14
				c-0.07-0.05-0.12-0.12-0.16-0.21c-0.04-0.1-0.07-0.23-0.07-0.38c-0.01-0.16-0.01-0.38-0.01-0.65v-3.1h5.33v3.07
				c0,0.23,0,0.44-0.01,0.61c0,0.17-0.02,0.3-0.03,0.37c-0.02,0.05-0.04,0.1-0.06,0.14c-0.03,0.05-0.04,0.07-0.06,0.09
				c-0.06,0.09-0.15,0.16-0.24,0.19c-0.1,0.05-0.22,0.08-0.33,0.09l-0.07,0.01l-0.03,0.33h3.09v-0.33l-0.07-0.01
				c-0.13-0.03-0.24-0.06-0.33-0.1c-0.08-0.04-0.17-0.1-0.25-0.2c-0.08-0.09-0.12-0.18-0.14-0.27c-0.02-0.1-0.03-0.21-0.05-0.34
				c-0.01-0.1-0.01-0.2-0.01-0.29V18.5c0-0.12,0-0.29,0.01-0.5c0.01-0.2,0.02-0.35,0.06-0.46c0.03-0.1,0.08-0.18,0.15-0.24
				c0.07-0.07,0.14-0.12,0.21-0.16c0.07-0.04,0.13-0.06,0.19-0.07c0.08-0.02,0.13-0.03,0.16-0.04l0.06-0.02v-0.3h-3.05v0.33l0.09,0
				c0.02,0,0.05,0.01,0.12,0.02c0.07,0.01,0.14,0.03,0.21,0.07c0.07,0.03,0.14,0.07,0.21,0.13c0.07,0.06,0.11,0.13,0.14,0.22
				c0.03,0.1,0.05,0.22,0.05,0.37v3.17h-5.33v-2.59c0-0.24,0.01-0.44,0.02-0.62c0.02-0.16,0.04-0.29,0.09-0.38
				c0.03-0.08,0.08-0.14,0.14-0.18c0.07-0.05,0.13-0.09,0.2-0.12c0.07-0.03,0.13-0.05,0.18-0.06c0.06-0.02,0.11-0.03,0.14-0.04
				l0.06-0.02v-0.3h-3.07v0.3l0.06,0.02c0.03,0.01,0.08,0.02,0.16,0.04c0.07,0.01,0.13,0.03,0.2,0.07c0.07,0.03,0.13,0.07,0.19,0.13
				c0.06,0.06,0.11,0.14,0.15,0.23c0.04,0.12,0.07,0.24,0.07,0.36c0,0.13,0,0.32,0,0.59v6.52c0,0.22,0,0.42-0.01,0.6
				c-0.01,0.17-0.02,0.29-0.05,0.37c-0.03,0.1-0.08,0.18-0.15,0.25c-0.07,0.07-0.14,0.12-0.21,0.15c-0.08,0.03-0.14,0.06-0.21,0.08
				c-0.08,0.02-0.12,0.02-0.13,0.02h-0.09v0.34h3.07V26.45z"/>
			<path d="M244.34,25.38c0.3-0.34,0.55-0.69,0.72-1.04c0.18-0.35,0.31-0.68,0.39-0.99c0.08-0.31,0.14-0.6,0.16-0.86
				c0.02-0.26,0.03-0.47,0.03-0.64c0-0.49-0.05-0.95-0.15-1.35c-0.1-0.41-0.22-0.77-0.36-1.08c-0.14-0.31-0.3-0.58-0.46-0.81
				c-0.16-0.23-0.31-0.41-0.44-0.56c-0.13-0.14-0.31-0.31-0.53-0.5c-0.22-0.19-0.5-0.37-0.82-0.54c-0.32-0.17-0.69-0.31-1.1-0.42
				c-0.41-0.12-0.88-0.17-1.39-0.17c-0.6,0-1.14,0.07-1.61,0.22c-0.47,0.15-0.88,0.33-1.23,0.53c-0.35,0.2-0.65,0.42-0.89,0.66
				c-0.24,0.23-0.43,0.43-0.58,0.6c-0.1,0.13-0.22,0.3-0.35,0.5c-0.14,0.21-0.26,0.45-0.38,0.73c-0.12,0.28-0.22,0.61-0.3,0.96
				c-0.08,0.36-0.12,0.77-0.12,1.21c0,0.55,0.06,1.05,0.19,1.48c0.12,0.43,0.28,0.82,0.46,1.16c0.19,0.33,0.38,0.62,0.59,0.85
				c0.22,0.23,0.4,0.41,0.56,0.55c0.51,0.43,1.07,0.74,1.66,0.92c0.59,0.18,1.22,0.28,1.87,0.28c0.82,0,1.58-0.13,2.24-0.39
				C243.17,26.45,243.79,26,244.34,25.38z M240.39,26.24c-0.49,0-0.92-0.07-1.28-0.21c-0.37-0.14-0.69-0.31-0.96-0.51
				c-0.26-0.2-0.48-0.4-0.65-0.62c-0.17-0.22-0.3-0.4-0.4-0.55c-0.17-0.27-0.31-0.55-0.41-0.81c-0.1-0.27-0.17-0.52-0.22-0.75
				c-0.05-0.23-0.08-0.44-0.09-0.64c-0.01-0.2-0.02-0.35-0.02-0.48c0-0.49,0.05-0.92,0.15-1.3c0.09-0.38,0.22-0.72,0.36-1.01
				c0.15-0.28,0.31-0.53,0.49-0.73c0.18-0.2,0.35-0.37,0.5-0.5c0.23-0.18,0.46-0.33,0.7-0.44c0.24-0.11,0.47-0.19,0.69-0.25
				c0.22-0.06,0.41-0.09,0.58-0.11c0.18-0.01,0.32-0.02,0.41-0.02c0.39,0,0.75,0.05,1.05,0.14c0.31,0.09,0.58,0.2,0.81,0.33
				c0.23,0.13,0.43,0.27,0.58,0.41c0.16,0.15,0.29,0.28,0.39,0.39c0.12,0.16,0.25,0.36,0.39,0.58c0.14,0.23,0.27,0.5,0.39,0.82
				c0.11,0.32,0.2,0.68,0.26,1.08c0.06,0.4,0.06,0.84,0.02,1.32c-0.01,0.11-0.03,0.28-0.06,0.51c-0.03,0.23-0.1,0.49-0.2,0.78
				c-0.14,0.38-0.32,0.74-0.54,1.04c-0.22,0.31-0.49,0.58-0.79,0.8c-0.3,0.22-0.63,0.4-1,0.52
				C241.19,26.18,240.8,26.24,240.39,26.24z"/>
			<path d="M247.2,17.08c0.07,0.01,0.14,0.04,0.22,0.07c0.07,0.04,0.15,0.09,0.22,0.16c0.07,0.07,0.13,0.16,0.17,0.26
				c0.04,0.09,0.06,0.23,0.07,0.42c0.01,0.19,0.01,0.41,0.01,0.66v5.87c0,0.25,0,0.5-0.01,0.73c-0.01,0.23-0.02,0.38-0.02,0.45
				c-0.03,0.16-0.07,0.28-0.13,0.36c-0.07,0.09-0.13,0.16-0.21,0.22c-0.07,0.05-0.15,0.1-0.23,0.12c-0.08,0.03-0.15,0.05-0.2,0.05
				l-0.08,0.01v0.33h7.27v-1.73h-0.32l-0.02,0.06c-0.05,0.15-0.09,0.28-0.13,0.37c-0.04,0.08-0.08,0.15-0.13,0.2
				c-0.07,0.06-0.14,0.12-0.23,0.15c-0.1,0.04-0.2,0.06-0.3,0.07c-0.11,0.01-0.21,0.02-0.32,0.03c-0.1,0-0.2,0.01-0.3,0.01h-1.93
				l-0.56-0.02c-0.11,0-0.23-0.03-0.33-0.09c-0.16-0.09-0.26-0.22-0.29-0.39c-0.04-0.19-0.06-0.47-0.07-0.81v-5.99
				c0.01-0.24,0.02-0.46,0.03-0.66c0.01-0.19,0.02-0.33,0.04-0.41c0.03-0.11,0.08-0.2,0.15-0.26c0.07-0.07,0.14-0.12,0.21-0.16
				c0.07-0.04,0.14-0.06,0.2-0.07c0.07-0.01,0.13-0.03,0.16-0.04l0.07-0.01v-0.31h-3.22v0.3l0.06,0.02
				C247.07,17.05,247.12,17.06,247.2,17.08z"/>
			<path d="M255.41,17.08c0.07,0.01,0.14,0.04,0.22,0.07c0.08,0.03,0.15,0.09,0.22,0.15c0.07,0.06,0.12,0.15,0.16,0.27
				c0.03,0.1,0.05,0.22,0.06,0.36c0,0.14,0.01,0.33,0.01,0.57v6.42c-0.01,0.32-0.02,0.57-0.02,0.75c0,0.17-0.05,0.3-0.13,0.42
				c-0.08,0.12-0.18,0.2-0.29,0.24c-0.12,0.05-0.24,0.09-0.38,0.11l-0.07,0.02v0.33h3.15v-0.32l-0.06-0.02
				c-0.11-0.03-0.23-0.07-0.35-0.12c-0.1-0.04-0.2-0.11-0.28-0.21c-0.07-0.09-0.12-0.18-0.13-0.27c-0.01-0.1-0.02-0.18-0.02-0.24
				c-0.02-0.1-0.03-0.21-0.03-0.32V18.5c0-0.23,0-0.43,0.01-0.6c0.01-0.16,0.02-0.28,0.05-0.36c0.03-0.11,0.08-0.19,0.14-0.25
				c0.06-0.06,0.12-0.11,0.19-0.14c0.07-0.04,0.14-0.06,0.2-0.07c0.07-0.01,0.12-0.03,0.16-0.04l0.07-0.01v-0.31h-3.11v0.31
				l0.07,0.01C255.28,17.05,255.34,17.06,255.41,17.08z"/>
			<path d="M268.03,26.75c0.16-0.05,0.32-0.09,0.47-0.14c0.16-0.05,0.31-0.1,0.47-0.16l0.06-0.02l-0.06-1.73h-0.31l-0.02,0.05
				c-0.03,0.08-0.07,0.17-0.11,0.28c-0.04,0.1-0.13,0.23-0.25,0.37c-0.05,0.05-0.13,0.12-0.23,0.21c-0.09,0.08-0.22,0.15-0.37,0.22
				c-0.19,0.09-0.39,0.16-0.6,0.21c-0.21,0.05-0.42,0.09-0.6,0.12c-0.19,0.03-0.36,0.04-0.5,0.05c-0.15,0.01-0.25,0.01-0.3,0.01
				c-0.16,0-0.37-0.01-0.63-0.03c-0.25-0.02-0.53-0.07-0.83-0.16c-0.3-0.09-0.62-0.23-0.94-0.42c-0.32-0.18-0.63-0.45-0.93-0.78
				c-0.12-0.13-0.24-0.29-0.38-0.48c-0.13-0.19-0.25-0.42-0.37-0.68c-0.12-0.26-0.21-0.56-0.29-0.89c-0.08-0.33-0.12-0.72-0.12-1.14
				c0-0.45,0.05-0.86,0.14-1.21c0.1-0.36,0.22-0.67,0.35-0.93c0.14-0.27,0.29-0.49,0.44-0.68c0.16-0.19,0.31-0.34,0.45-0.46
				c0.3-0.25,0.62-0.46,0.94-0.6c0.32-0.15,0.63-0.25,0.92-0.32c0.3-0.07,0.55-0.1,0.79-0.12c0.24-0.01,0.42-0.02,0.55-0.02
				c0.37,0,0.76,0.04,1.18,0.12c0.41,0.08,0.77,0.23,1.06,0.47c0.19,0.15,0.32,0.31,0.41,0.47l0.24,0.42h0.3l0.06-1.81l-0.06-0.02
				c-0.38-0.11-0.73-0.2-1.04-0.27c-0.31-0.07-0.58-0.12-0.83-0.16c-0.25-0.04-0.48-0.06-0.68-0.07c-0.21-0.01-0.41-0.01-0.61-0.01
				c-0.19,0-0.45,0.01-0.78,0.03c-0.33,0.02-0.71,0.08-1.11,0.18c-0.41,0.1-0.84,0.26-1.29,0.48c-0.45,0.22-0.88,0.52-1.29,0.91
				c-0.37,0.35-0.66,0.72-0.88,1.09c-0.21,0.37-0.38,0.73-0.48,1.08c-0.11,0.34-0.18,0.67-0.21,0.96c-0.03,0.3-0.04,0.53-0.04,0.71
				c0,0.54,0.07,1.07,0.21,1.55c0.14,0.49,0.35,0.95,0.63,1.37c0.27,0.42,0.61,0.79,1.01,1.11c0.4,0.33,0.85,0.59,1.36,0.79
				c0.25,0.1,0.51,0.18,0.77,0.24c0.25,0.05,0.48,0.09,0.69,0.12c0.21,0.03,0.4,0.04,0.57,0.05c0.16,0,0.29,0.01,0.39,0.01
				c0.4,0,0.85-0.03,1.33-0.09C267.2,26.94,267.65,26.86,268.03,26.75z"/>
		</g>
		<g>
			<path d="M203.31,33.93h0.09c0.01,0,0.04,0.01,0.07,0.02l0.18,0.05c0.06,0.02,0.12,0.05,0.19,0.08c0.06,0.03,0.11,0.07,0.15,0.12
				c0.11,0.13,0.16,0.31,0.17,0.52c0.01,0.23,0.01,0.42,0.01,0.58v4.49c0,0.24-0.01,0.45-0.02,0.63c-0.01,0.18-0.04,0.34-0.06,0.48
				c-0.02,0.14-0.05,0.27-0.09,0.38c-0.04,0.12-0.08,0.23-0.13,0.35c-0.06,0.15-0.13,0.27-0.19,0.37c-0.07,0.1-0.12,0.18-0.15,0.22
				c-0.08,0.09-0.19,0.19-0.31,0.29c-0.12,0.1-0.28,0.19-0.46,0.27c-0.18,0.08-0.39,0.15-0.63,0.21c-0.23,0.06-0.51,0.09-0.81,0.09
				c-0.45,0-0.88-0.08-1.3-0.24c-0.42-0.16-0.77-0.43-1.06-0.79c-0.14-0.18-0.24-0.36-0.32-0.55c-0.08-0.18-0.14-0.38-0.17-0.57
				c-0.04-0.19-0.06-0.4-0.07-0.6c-0.01-0.2-0.01-0.42-0.01-0.64v-4.43c0.01-0.2,0.02-0.37,0.02-0.52c0-0.14,0.03-0.26,0.07-0.36
				c0.04-0.1,0.11-0.18,0.21-0.25c0.1-0.07,0.26-0.14,0.47-0.19l0.06-0.02l0.03-0.31h-3.1v0.31l0.07,0.02
				c0.32,0.09,0.46,0.17,0.52,0.23c0.12,0.09,0.19,0.2,0.2,0.36c0.02,0.17,0.03,0.42,0.03,0.72v4.51c-0.01,0.47,0,0.85,0.04,1.12
				c0.04,0.28,0.1,0.53,0.17,0.76c0.1,0.27,0.24,0.54,0.42,0.81c0.19,0.27,0.44,0.52,0.75,0.74c0.31,0.22,0.7,0.4,1.15,0.54
				c0.45,0.13,1,0.2,1.62,0.2c0.63,0,1.18-0.08,1.63-0.23c0.45-0.15,0.82-0.35,1.12-0.59c0.29-0.24,0.52-0.51,0.69-0.81
				c0.16-0.29,0.28-0.57,0.36-0.85c0.05-0.18,0.08-0.36,0.11-0.55c0.02-0.19,0.04-0.36,0.04-0.52c0-0.16,0.01-0.3,0.01-0.42v-4.78
				c0-0.25,0-0.44,0.01-0.58c0.01-0.12,0.05-0.23,0.11-0.33c0.07-0.12,0.17-0.19,0.27-0.23c0.12-0.05,0.25-0.08,0.38-0.12l0.07-0.02
				V33.6h-2.59L203.31,33.93z"/>
			<path d="M215.28,33.91l0.07,0.01c0.33,0.07,0.53,0.17,0.62,0.3c0.09,0.14,0.15,0.29,0.17,0.46c0.02,0.1,0.02,0.2,0.02,0.3
				c-0.01,0.11-0.01,0.18-0.01,0.21v5.8l-6.5-7.36l-0.03-0.03h-2.15v0.32l0.08,0.01c0.13,0.02,0.26,0.05,0.38,0.09
				c0.1,0.03,0.19,0.11,0.25,0.24c0.06,0.09,0.09,0.19,0.09,0.32c0,0.13,0.01,0.32,0.01,0.55v7.05c0,0.12-0.01,0.28-0.02,0.48
				c-0.01,0.17-0.06,0.31-0.14,0.41c-0.09,0.13-0.19,0.2-0.31,0.23c-0.14,0.03-0.23,0.05-0.28,0.06l-0.06,0.02l-0.03,0.33h2.63
				v-0.33L210,43.34c-0.2-0.04-0.37-0.11-0.5-0.2c-0.12-0.08-0.2-0.23-0.24-0.44c-0.01-0.07-0.02-0.15-0.02-0.22
				c-0.01-0.07-0.01-0.18-0.01-0.31v-6.87l7.55,8.54h0.25v-8.67c0.01-0.21,0.02-0.4,0.03-0.6c0.01-0.17,0.09-0.31,0.25-0.44
				c0.05-0.04,0.11-0.08,0.18-0.12c0.07-0.03,0.18-0.07,0.31-0.09l0.07-0.01l0.03-0.32h-2.63V33.91z"/>
			<path d="M222.32,43.22c-0.1-0.04-0.2-0.11-0.28-0.21c-0.07-0.09-0.12-0.18-0.13-0.27c-0.01-0.1-0.02-0.18-0.02-0.23
				c-0.02-0.11-0.03-0.21-0.03-0.32v-6.79c0-0.23,0-0.43,0-0.6c0.01-0.16,0.02-0.28,0.05-0.36c0.03-0.11,0.08-0.19,0.13-0.25
				c0.06-0.06,0.12-0.11,0.19-0.14c0.07-0.03,0.14-0.06,0.2-0.07c0.07-0.02,0.12-0.03,0.16-0.04l0.07-0.02V33.6h-3.11v0.31
				l0.07,0.02c0.04,0.01,0.1,0.02,0.17,0.04c0.07,0.01,0.14,0.04,0.22,0.07c0.08,0.03,0.15,0.09,0.22,0.15
				c0.07,0.07,0.13,0.16,0.17,0.28c0.03,0.1,0.05,0.22,0.06,0.35c0,0.14,0.01,0.33,0.01,0.57v6.42c-0.01,0.32-0.01,0.57-0.02,0.75
				c0,0.17-0.05,0.3-0.13,0.42c-0.08,0.12-0.18,0.2-0.29,0.24c-0.12,0.05-0.24,0.09-0.37,0.11l-0.07,0.02v0.33h3.15v-0.32
				l-0.06-0.02C222.55,43.3,222.44,43.26,222.32,43.22z"/>
			<path d="M230.98,33.91l0.06,0.02c0.1,0.03,0.2,0.06,0.3,0.09c0.09,0.03,0.15,0.08,0.21,0.17c0.03,0.04,0.04,0.08,0.05,0.12
				c0,0.05,0.01,0.09,0.01,0.11c0,0.09-0.01,0.18-0.04,0.27c-0.02,0.09-0.05,0.19-0.08,0.27c-0.03,0.08-0.06,0.16-0.09,0.22
				c-0.03,0.06-0.04,0.1-0.05,0.12l-2.59,5.95l-2.46-5.95L226.19,35c-0.04-0.09-0.06-0.18-0.08-0.27c-0.04-0.13-0.05-0.24-0.05-0.33
				c0-0.12,0.04-0.22,0.12-0.29c0.08-0.08,0.25-0.14,0.5-0.18l0.07-0.01V33.6h-3.16v0.31l0.06,0.02c0.12,0.03,0.21,0.06,0.28,0.09
				c0.07,0.03,0.14,0.08,0.23,0.16c0.12,0.1,0.21,0.22,0.27,0.34c0.06,0.13,0.1,0.23,0.12,0.28c0.07,0.14,0.13,0.28,0.19,0.42
				c0.06,0.14,0.12,0.28,0.17,0.44l3.42,8.11l0.02,0.06h0.26l3.64-8.29c0.08-0.16,0.16-0.35,0.25-0.58c0.09-0.22,0.19-0.4,0.29-0.56
				c0.1-0.15,0.19-0.25,0.29-0.31c0.1-0.06,0.24-0.11,0.42-0.14l0.07-0.01V33.6h-2.59V33.91z"/>
			<path d="M241.19,41.99c-0.04,0.12-0.08,0.23-0.11,0.34c-0.03,0.09-0.09,0.19-0.17,0.27c-0.09,0.09-0.19,0.14-0.3,0.16
				c-0.17,0.02-0.23,0.03-0.27,0.03c-0.1,0.02-0.19,0.03-0.28,0.03h-1.6c-0.35-0.01-0.65-0.02-0.91-0.04
				c-0.24-0.01-0.42-0.06-0.51-0.13c-0.04-0.03-0.07-0.06-0.09-0.09c-0.02-0.03-0.04-0.07-0.06-0.09c-0.07-0.15-0.11-0.31-0.11-0.48
				c0-0.19-0.01-0.36-0.02-0.52v-2.75h2.07c0.21,0,0.42,0.02,0.63,0.05c0.19,0.03,0.33,0.14,0.43,0.31c0.02,0.05,0.04,0.1,0.07,0.16
				c0.02,0.05,0.05,0.13,0.07,0.24l0.02,0.07h0.32v-2.54h-0.31l-0.02,0.06c-0.01,0.03-0.02,0.08-0.04,0.16
				c-0.01,0.06-0.04,0.13-0.07,0.2c-0.04,0.07-0.08,0.15-0.15,0.22c-0.06,0.07-0.14,0.12-0.24,0.15c-0.11,0.04-0.23,0.06-0.36,0.06
				h-2.42v-3.42h2.58c0.18,0,0.35,0.02,0.5,0.05c0.13,0.03,0.24,0.13,0.34,0.3c0.04,0.06,0.06,0.12,0.08,0.19
				c0.02,0.07,0.04,0.14,0.06,0.22l0.02,0.06l0.32,0.03l0.03-1.7h-6.2v0.33h0.09c0.03,0,0.07,0,0.14,0.01
				c0.07,0.01,0.13,0.03,0.2,0.06c0.07,0.04,0.15,0.09,0.21,0.14c0.06,0.05,0.11,0.13,0.15,0.25c0.04,0.1,0.06,0.21,0.06,0.33
				l0,7.04c-0.01,0.14-0.02,0.27-0.01,0.41c0,0.13,0,0.27,0,0.41c-0.01,0.14-0.04,0.26-0.1,0.37c-0.05,0.1-0.14,0.19-0.27,0.26
				c-0.05,0.03-0.1,0.06-0.16,0.07c-0.07,0.02-0.14,0.04-0.21,0.06l-0.06,0.02l-0.03,0.33h7.03v-1.75h-0.32L241.19,41.99z"/>
			<path d="M251.65,43.27c-0.08-0.03-0.16-0.08-0.23-0.15c-0.08-0.06-0.16-0.15-0.21-0.24c-0.06-0.1-0.1-0.17-0.12-0.2
				c-0.16-0.23-0.31-0.48-0.45-0.75l-1.92-3.53c0.05-0.02,0.11-0.05,0.18-0.09c0.12-0.06,0.25-0.15,0.4-0.25
				c0.15-0.11,0.3-0.23,0.44-0.38c0.15-0.15,0.28-0.33,0.39-0.53c0.16-0.32,0.25-0.68,0.25-1.08c0-0.38-0.06-0.7-0.18-0.95
				c-0.11-0.25-0.21-0.43-0.29-0.55c-0.19-0.25-0.4-0.43-0.64-0.56c-0.23-0.13-0.48-0.23-0.75-0.29c-0.26-0.06-0.54-0.1-0.81-0.11
				c-0.27-0.01-0.53-0.01-0.79-0.01h-3.6l0,0.33h0.09c0.02,0,0.05,0.01,0.11,0.02c0.06,0.02,0.13,0.03,0.2,0.06
				c0.07,0.02,0.14,0.07,0.21,0.12c0.06,0.05,0.12,0.12,0.15,0.2c0.04,0.09,0.07,0.21,0.08,0.34c0.01,0.15,0.01,0.34,0.01,0.57v6.74
				c-0.01,0.23-0.02,0.42-0.02,0.58c0,0.15-0.02,0.26-0.06,0.34c-0.03,0.09-0.08,0.16-0.14,0.22c-0.06,0.06-0.13,0.1-0.2,0.14
				c-0.07,0.03-0.14,0.06-0.2,0.07c-0.08,0.02-0.11,0.02-0.12,0.02h-0.09v0.35h3.18v-0.32l-0.06-0.02c-0.2-0.06-0.35-0.1-0.44-0.14
				c-0.08-0.04-0.15-0.09-0.22-0.17c-0.08-0.09-0.14-0.17-0.15-0.25c-0.02-0.09-0.03-0.2-0.04-0.33c-0.01-0.08-0.01-0.16-0.01-0.25
				c0-0.09,0-0.19-0.02-0.28v-3.04c0.1,0,0.19,0,0.28,0c0.28,0.01,0.61,0.01,0.96-0.01c0.18-0.01,0.35-0.03,0.52-0.05l1.81,3.34
				c0.1,0.19,0.22,0.39,0.34,0.6c0.14,0.22,0.3,0.4,0.48,0.55c0.12,0.1,0.24,0.17,0.37,0.23c0.12,0.05,0.24,0.09,0.35,0.11
				c0.11,0.03,0.22,0.04,0.31,0.04h0.86v-0.31l-0.05-0.03C251.8,43.34,251.74,43.31,251.65,43.27z M245.62,34.47h1
				c0.27-0.01,0.54,0,0.81,0.03c0.26,0.03,0.51,0.12,0.74,0.27c0.26,0.16,0.44,0.37,0.55,0.63c0.12,0.26,0.18,0.54,0.18,0.83
				c0,0.23-0.02,0.42-0.07,0.57c-0.06,0.19-0.1,0.29-0.14,0.34c-0.1,0.2-0.24,0.35-0.39,0.46c-0.16,0.12-0.33,0.21-0.52,0.27
				c-0.19,0.07-0.4,0.11-0.61,0.13c-0.21,0.02-0.42,0.04-0.62,0.04h-0.96L245.62,34.47z"/>
			<path d="M258.02,38.38l-0.61-0.4l-0.81-0.46c-0.24-0.15-0.49-0.31-0.74-0.5c-0.24-0.17-0.43-0.4-0.54-0.67
				c-0.04-0.12-0.07-0.24-0.08-0.34c-0.01-0.1-0.01-0.18-0.01-0.22c0-0.26,0.05-0.48,0.14-0.68c0.09-0.2,0.22-0.37,0.37-0.5
				c0.15-0.13,0.34-0.23,0.55-0.3c0.22-0.07,0.45-0.11,0.69-0.11c0.33,0,0.61,0.05,0.83,0.15c0.22,0.1,0.4,0.22,0.54,0.36
				c0.14,0.14,0.25,0.29,0.32,0.45c0.08,0.17,0.15,0.31,0.2,0.43l0.02,0.05h0.3v-1.79l-0.06-0.02c-0.1-0.04-0.23-0.08-0.37-0.14
				c-0.15-0.06-0.32-0.11-0.5-0.16c-0.18-0.05-0.39-0.09-0.62-0.13c-0.23-0.04-0.5-0.06-0.78-0.06c-0.09,0-0.23,0-0.4,0.02
				c-0.17,0.01-0.37,0.04-0.58,0.09c-0.21,0.05-0.43,0.14-0.66,0.26c-0.23,0.12-0.44,0.29-0.64,0.5c-0.14,0.14-0.28,0.35-0.44,0.63
				c-0.15,0.29-0.24,0.67-0.24,1.15c0,0.15,0.02,0.32,0.04,0.51c0.03,0.18,0.09,0.38,0.17,0.57c0.09,0.19,0.22,0.4,0.4,0.6
				c0.17,0.2,0.4,0.41,0.69,0.61c0.09,0.07,0.19,0.13,0.28,0.18c0.09,0.05,0.18,0.1,0.27,0.16l0.9,0.53
				c0.28,0.16,0.53,0.34,0.77,0.53c0.23,0.18,0.4,0.42,0.53,0.72c0.03,0.06,0.06,0.16,0.1,0.28c0.03,0.13,0.05,0.28,0.05,0.45
				c0,0.26-0.03,0.47-0.1,0.64c-0.07,0.16-0.12,0.3-0.17,0.38c-0.2,0.32-0.48,0.56-0.8,0.71c-0.33,0.15-0.69,0.22-1.07,0.22
				c-0.23,0-0.45-0.03-0.63-0.07c-0.18-0.05-0.35-0.11-0.49-0.19c-0.14-0.07-0.25-0.16-0.35-0.25c-0.09-0.09-0.17-0.17-0.22-0.25
				c-0.04-0.07-0.09-0.16-0.14-0.25c-0.05-0.1-0.11-0.23-0.19-0.41l-0.02-0.05l-0.3-0.03v1.78l0.05,0.02
				c0.23,0.1,0.52,0.22,0.88,0.35c0.37,0.13,0.85,0.2,1.43,0.2c0.1,0,0.25,0,0.44-0.01c0.19-0.01,0.41-0.04,0.64-0.09
				c0.23-0.05,0.48-0.14,0.73-0.26c0.25-0.12,0.5-0.3,0.75-0.53c0.21-0.2,0.38-0.41,0.5-0.61c0.12-0.21,0.21-0.41,0.28-0.61
				c0.06-0.2,0.1-0.38,0.12-0.54c0.01-0.17,0.02-0.3,0.02-0.4c0-0.8-0.3-1.48-0.88-2.03C258.43,38.68,258.24,38.53,258.02,38.38z"/>
			<path d="M264.45,43.22c-0.1-0.04-0.2-0.11-0.28-0.21c-0.07-0.09-0.12-0.18-0.13-0.27c-0.02-0.1-0.02-0.18-0.02-0.23
				C264,42.39,264,42.28,264,42.17v-6.79c0-0.23,0-0.43,0-0.6c0.01-0.16,0.02-0.28,0.05-0.36c0.03-0.11,0.08-0.19,0.13-0.25
				c0.06-0.06,0.12-0.11,0.19-0.14c0.07-0.03,0.14-0.06,0.2-0.07c0.07-0.02,0.12-0.03,0.16-0.04l0.06-0.02V33.6h-3.11v0.31
				l0.07,0.02c0.04,0.01,0.09,0.02,0.17,0.04c0.07,0.01,0.14,0.04,0.22,0.07c0.07,0.03,0.15,0.09,0.22,0.15
				c0.07,0.07,0.13,0.16,0.17,0.28c0.04,0.1,0.05,0.22,0.06,0.35c0,0.14,0.01,0.33,0.01,0.57v6.42c-0.01,0.32-0.02,0.57-0.02,0.75
				c0,0.17-0.05,0.3-0.13,0.42c-0.08,0.12-0.18,0.2-0.29,0.24c-0.11,0.05-0.24,0.09-0.37,0.11l-0.07,0.02v0.33h3.15v-0.32
				l-0.06-0.02C264.69,43.3,264.57,43.26,264.45,43.22z"/>
			<path d="M265.8,35.29h0.33l0.02-0.07c0.01-0.05,0.02-0.13,0.05-0.26c0.02-0.11,0.08-0.2,0.19-0.29c0.09-0.08,0.2-0.13,0.34-0.16
				c0.14-0.03,0.35-0.05,0.61-0.06h1.93v7.8c0,0.27-0.03,0.47-0.09,0.6c-0.06,0.13-0.14,0.24-0.24,0.31
				c-0.08,0.07-0.17,0.11-0.26,0.13c-0.11,0.03-0.18,0.04-0.21,0.05l-0.05,0.02l-0.03,0.32h3.22v-0.33l-0.07-0.02
				c-0.18-0.05-0.31-0.09-0.39-0.14c-0.08-0.05-0.16-0.11-0.22-0.18c-0.07-0.07-0.12-0.15-0.15-0.23c-0.03-0.08-0.05-0.17-0.06-0.27
				c-0.01-0.11-0.01-0.23-0.01-0.36v-7.69h2.1c0.3,0,0.55,0.04,0.72,0.12c0.16,0.08,0.27,0.27,0.31,0.59l0.01,0.07h0.31V33.6h-8.36
				V35.29z"/>
			<path d="M281.4,33.6v0.32l0.07,0.01c0.12,0.02,0.22,0.04,0.31,0.06c0.07,0.02,0.13,0.07,0.19,0.18c0.04,0.05,0.06,0.1,0.06,0.13
				c0,0.05,0.01,0.09,0.01,0.11c0,0.13-0.04,0.25-0.11,0.38c-0.08,0.14-0.15,0.27-0.22,0.38l-1.92,3.14l-2.01-3.14
				c-0.07-0.1-0.15-0.23-0.22-0.38c-0.07-0.14-0.11-0.28-0.11-0.4c0-0.1,0.02-0.18,0.07-0.23c0.05-0.06,0.11-0.11,0.16-0.14
				c0.06-0.03,0.12-0.06,0.18-0.07c0.08-0.02,0.1-0.02,0.11-0.02h0.09V33.6h-3.17v0.31l0.07,0.02c0.1,0.03,0.19,0.06,0.26,0.09
				c0.07,0.03,0.13,0.07,0.18,0.12c0.05,0.04,0.1,0.09,0.15,0.16c0.05,0.07,0.11,0.15,0.18,0.23c0.05,0.06,0.08,0.13,0.12,0.19
				c0.04,0.07,0.08,0.13,0.13,0.18l2.81,4.36v2.92c0,0.27-0.01,0.46-0.03,0.59c-0.02,0.12-0.07,0.23-0.16,0.33
				c-0.08,0.09-0.17,0.15-0.26,0.18c-0.1,0.03-0.22,0.06-0.36,0.07l-0.07,0.01l-0.03,0.34h3.14v-0.33l-0.07-0.02
				c-0.05-0.01-0.13-0.02-0.25-0.04c-0.1-0.02-0.19-0.06-0.28-0.15c-0.14-0.12-0.21-0.26-0.23-0.44c-0.02-0.2-0.03-0.39-0.03-0.56
				v-2.84l2.81-4.52l0.27-0.41c0.08-0.13,0.19-0.23,0.31-0.3c0.08-0.05,0.15-0.09,0.22-0.1c0.09-0.02,0.15-0.04,0.18-0.05L284,33.9
				v-0.3H281.4z"/>
		</g>
		<g>
			<path d="M72.52,16.67h0.06c0.08,0,0.21,0.01,0.4,0.04c0.19,0.02,0.39,0.09,0.61,0.19c0.22,0.1,0.43,0.25,0.64,0.42
				c0.2,0.18,0.35,0.43,0.45,0.76c0.1,0.22,0.15,0.51,0.15,0.86v21.67c0,0.48-0.06,0.88-0.19,1.16c-0.15,0.5-0.42,0.85-0.8,1.04
				c-0.38,0.19-0.81,0.35-1.28,0.48l-0.04,0.01v0.57h8.54v-0.57l-0.04-0.01c-0.47-0.13-0.92-0.29-1.33-0.47
				c-0.4-0.18-0.7-0.51-0.91-1.03c-0.1-0.2-0.17-0.4-0.21-0.59c-0.04-0.19-0.06-0.41-0.06-0.65V30.03l5.93,0
				c0.59,0.02,1.21,0.07,1.82,0.12c0.59,0.05,1.06,0.32,1.39,0.81c0.12,0.12,0.22,0.29,0.28,0.51c0.07,0.24,0.14,0.54,0.21,0.88
				l0.01,0.05h0.58V25.6h-0.59v0.06c0,0.02,0,0.1-0.06,0.34c-0.04,0.19-0.1,0.4-0.17,0.6c-0.08,0.23-0.21,0.45-0.37,0.65
				c-0.16,0.21-0.37,0.37-0.62,0.47c-0.28,0.12-0.62,0.2-1,0.21c-0.39,0.01-0.89,0.02-1.49,0.02h-5.93V18h7.07
				c0.54,0.02,1.08,0.09,1.64,0.18c0.53,0.08,0.96,0.38,1.29,0.89c0.13,0.2,0.23,0.41,0.31,0.62c0.08,0.22,0.14,0.42,0.2,0.62
				l0.01,0.05h0.58l0.04-4.17v-0.06H72.52V16.67z"/>
			<path d="M113.03,16.61l0,0.06h0.06c0.01,0,0.08,0.01,0.24,0.06c0.14,0.04,0.31,0.09,0.49,0.14c0.18,0.05,0.37,0.13,0.55,0.23
				c0.19,0.1,0.34,0.23,0.47,0.38c0.33,0.41,0.5,0.93,0.51,1.55c0.01,0.61,0.02,1.15,0.02,1.62v12.53c0,0.68-0.02,1.28-0.06,1.78
				c-0.04,0.49-0.09,0.95-0.16,1.37c-0.06,0.39-0.15,0.76-0.25,1.09c-0.1,0.33-0.22,0.66-0.35,0.99c-0.19,0.44-0.38,0.79-0.56,1.07
				c-0.17,0.27-0.33,0.5-0.44,0.64c-0.24,0.26-0.54,0.54-0.9,0.81c-0.37,0.28-0.81,0.55-1.32,0.77c-0.52,0.24-1.12,0.44-1.79,0.61
				c-0.68,0.17-1.45,0.25-2.3,0.25c-1.27,0-2.51-0.23-3.7-0.68c-1.19-0.46-2.21-1.22-3.03-2.27c-0.39-0.52-0.7-1.05-0.92-1.58
				c-0.22-0.52-0.38-1.07-0.49-1.63c-0.1-0.56-0.17-1.13-0.2-1.69c-0.02-0.57-0.04-1.18-0.04-1.8V20.53
				c0.02-0.52,0.04-1.01,0.06-1.45c0.01-0.4,0.08-0.76,0.21-1.07c0.13-0.3,0.35-0.56,0.65-0.77c0.31-0.22,0.78-0.41,1.39-0.56
				l0.04-0.01l0.05-0.54h-8.28v0.54l0.04,0.01c0.74,0.21,1.25,0.42,1.51,0.65c0.37,0.28,0.59,0.66,0.64,1.13
				c0.05,0.5,0.08,1.16,0.08,2.03V33.1c-0.03,1.33,0.01,2.34,0.12,3.1c0.11,0.76,0.26,1.46,0.47,2.09c0.26,0.73,0.66,1.48,1.17,2.23
				c0.5,0.74,1.2,1.42,2.05,2.03c0.84,0.6,1.9,1.1,3.15,1.48c1.25,0.38,2.75,0.57,4.47,0.57c1.75,0,3.25-0.21,4.48-0.63
				c1.23-0.41,2.25-0.96,3.06-1.62c0.8-0.66,1.43-1.39,1.87-2.19c0.45-0.8,0.78-1.59,0.99-2.34c0.14-0.54,0.23-1.03,0.29-1.51
				c0.07-0.54,0.11-1.01,0.12-1.44c0.01-0.42,0.02-0.82,0.02-1.16V20.37c0-0.7,0.01-1.24,0.04-1.62c0.02-0.37,0.14-0.71,0.34-1.01
				c0.22-0.35,0.5-0.59,0.83-0.72c0.35-0.13,0.72-0.25,1.09-0.35l0.04-0.01v-0.54h-6.86V16.61z"/>
			<path d="M155.18,39.42c-0.09,0.32-0.2,0.64-0.31,0.96c-0.1,0.29-0.28,0.56-0.54,0.82c-0.27,0.28-0.59,0.44-0.94,0.5
				c-0.44,0.06-0.64,0.08-0.75,0.08c-0.28,0.05-0.56,0.07-0.81,0.07h-4.46c-1-0.03-1.83-0.06-2.54-0.1
				c-0.71-0.03-1.23-0.17-1.54-0.4c-0.13-0.1-0.22-0.2-0.28-0.3c-0.05-0.09-0.11-0.18-0.17-0.27c-0.2-0.43-0.31-0.91-0.32-1.42
				c-0.02-0.59-0.04-1.04-0.06-1.44v-7.85h5.98c0.61,0,1.21,0.05,1.77,0.14c0.56,0.08,1.01,0.42,1.34,1
				c0.05,0.13,0.11,0.28,0.18,0.43c0.07,0.16,0.14,0.39,0.21,0.7l0.01,0.05h0.58v-6.74h-0.57l-0.01,0.04
				c-0.02,0.07-0.05,0.2-0.1,0.42c-0.05,0.2-0.12,0.4-0.21,0.61c-0.1,0.21-0.25,0.43-0.44,0.65c-0.19,0.22-0.44,0.37-0.74,0.47
				c-0.33,0.13-0.68,0.19-1.06,0.19h-6.94v-9.9h7.39c0.5,0,0.99,0.05,1.44,0.15c0.43,0.1,0.78,0.4,1.06,0.91
				c0.1,0.19,0.19,0.38,0.25,0.57c0.08,0.25,0.13,0.45,0.18,0.63l0.01,0.04l0.57,0.05l0.08-4.29v-0.06h-16.93v0.55h0.06
				c0.08,0,0.22,0.01,0.43,0.04c0.2,0.02,0.41,0.09,0.63,0.19c0.22,0.11,0.43,0.25,0.63,0.42c0.2,0.18,0.35,0.43,0.46,0.76
				c0.12,0.3,0.19,0.64,0.19,0.99v19.66c-0.02,0.37-0.03,0.74-0.02,1.12c0.01,0.38,0.01,0.76-0.02,1.15
				c-0.02,0.4-0.12,0.78-0.28,1.11c-0.17,0.33-0.44,0.59-0.83,0.8c-0.15,0.1-0.32,0.18-0.51,0.22c-0.2,0.06-0.39,0.11-0.6,0.16
				l-0.04,0.01l-0.05,0.58h19.24v-4.5h-0.57L155.18,39.42z"/>
			<path d="M183.03,16.12v0.54l0.05,0.01c0.95,0.21,1.57,0.51,1.84,0.91c0.28,0.41,0.45,0.86,0.5,1.35
				c0.05,0.28,0.07,0.57,0.06,0.87c-0.01,0.26-0.02,0.48-0.02,0.57v16.68l-18.47-20.91l-0.02-0.02h-5.73v0.54l0.05,0.01
				c0.39,0.05,0.76,0.13,1.1,0.25c0.34,0.11,0.6,0.35,0.81,0.74c0.18,0.28,0.27,0.6,0.29,0.97c0.02,0.35,0.02,0.81,0.02,1.54v19.66
				c0,0.35-0.02,0.8-0.06,1.34c-0.04,0.53-0.19,0.94-0.44,1.24c-0.28,0.38-0.6,0.61-0.98,0.7c-0.33,0.08-0.62,0.14-0.78,0.18
				l-0.04,0.01l-0.05,0.58h6.94v-0.58l-0.05-0.01c-0.6-0.13-1.08-0.33-1.45-0.6c-0.36-0.26-0.61-0.71-0.74-1.35
				c-0.02-0.2-0.04-0.41-0.06-0.62c-0.01-0.21-0.02-0.51-0.02-0.9V20.17l21.32,24.12l0.02,0.02h0.44V20.3
				c0.02-0.5,0.05-0.98,0.07-1.45l0.01-0.21c0.02-0.51,0.28-0.96,0.76-1.34c0.15-0.13,0.33-0.24,0.55-0.35
				c0.23-0.1,0.53-0.19,0.91-0.27l0.05-0.01l0.05-0.54H183.03z"/>
			<path d="M124.04,16.66l0.05,0.01c0.43,0.07,0.86,0.2,1.26,0.38c0.39,0.18,0.67,0.5,0.85,0.98c0.16,0.52,0.23,1.4,0.23,2.69v23.14
				c0,1.1-0.07,2.18-0.2,3.22c-0.13,1.04-0.56,2.01-1.28,2.89c-0.27,0.34-0.58,0.67-0.97,1.01c-0.34,0.28-0.58,0.49-0.66,0.54
				l-0.05,0.03l0.33,0.57l0.05-0.02c0.67-0.31,1.21-0.57,1.59-0.79c0.36-0.2,0.69-0.4,1-0.63c0.87-0.55,1.55-1.16,2.03-1.79
				c0.5-0.66,0.86-1.27,1.1-1.88c0.25-0.6,0.41-1.19,0.48-1.76c0.06-0.55,0.11-1.03,0.14-1.44v-23.1c0-1.09,0.05-1.88,0.14-2.42
				c0.08-0.53,0.41-0.95,0.96-1.25c0.17-0.1,0.33-0.17,0.48-0.23c0.13-0.05,0.38-0.1,0.75-0.15l0.05-0.01v-0.54h-8.34V16.66z"/>
		</g>
	</g>
	<g>
		<g>
			<path d="M24.33,23.47h-0.44v0.5H22.7v0.97h1.18v0.64H22.7v5.26h1.18v0.65H22.7v0.97h1.18v0.7h0.44v-0.7h1.17V31.5h-1.17v-0.65
				h1.17v-5.26h-1.17v-0.64h1.17v-0.97h-1.17V23.47z M23.89,28.71v1.17h-0.74v-1.17H23.89z M23.89,26.56v1.17h-0.74v-1.17H23.89z
				 M25.06,28.71v1.17h-0.73v-1.17H25.06z M24.33,27.73v-1.17h0.73v1.17H24.33z"/>
			<path d="M27.64,25.59v-0.64h1.17l0-1.47h-0.44v0.5h-0.73v-0.5h-0.44v0.5h-1.16v0.97h1.16v0.64h-1.16v0.47h0v7.07h0.44v-2.29h0.72
				v2.32h0.44v-2.32h0.73v2.29h0.44l0-7.54H27.64z M27.19,28.71v1.17h-0.72v-1.17H27.19z M27.19,26.56v1.17h-0.72v-1.17H27.19z
				 M28.37,28.71v1.17h-0.73v-1.17H28.37z M28.37,26.56v1.17h-0.73v-1.17H28.37z"/>
		</g>
		<g>
			<polygon points="28.47,17.45 27.48,17.31 27.02,16.4 26.58,17.31 25.57,17.45 26.3,18.16 26.3,18.18 26.13,19.16 27.02,18.68 
				27.92,19.16 27.75,18.16 			"/>
			<polygon points="23.69,20.45 22.68,20.3 22.68,20.29 22.24,19.4 21.79,20.3 20.79,20.45 21.51,21.16 21.51,21.18 21.34,22.16 
				22.24,21.68 23.13,22.16 22.96,21.16 			"/>
			<polygon points="20.13,26.09 20.84,25.4 19.84,25.26 19.38,24.35 18.94,25.26 17.94,25.4 18.66,26.11 18.49,27.1 19.38,26.64 
				19.41,26.65 20.28,27.11 20.11,26.11 			"/>
			<polygon points="20.98,31.14 19.97,30.99 19.52,30.08 19.08,30.99 18.08,31.14 18.8,31.84 18.79,31.86 18.63,32.84 19.52,32.37 
				19.55,32.38 20.42,32.84 20.25,31.84 			"/>
			<polygon points="23.26,36.63 23.96,35.94 22.96,35.8 22.95,35.78 22.51,34.89 22.06,35.8 22.04,35.8 21.06,35.94 21.79,36.65 
				21.62,37.65 22.51,37.18 23.41,37.65 23.24,36.65 			"/>
			<polygon points="28.82,38.79 27.82,38.65 27.37,37.74 26.92,38.65 26.9,38.65 25.92,38.79 26.65,39.5 26.64,39.52 26.48,40.5 
				27.37,40.02 28.27,40.5 28.1,39.5 			"/>
		</g>
		<path d="M41.44,12.55c-0.25,0-0.5,0.02-0.75,0.06c-0.55,0.07-1.11,0.11-1.68,0.11c-2.16,0-4.19-0.54-5.97-1.49
			c-0.27-0.14-0.54-0.3-0.79-0.46c-0.13-0.08-0.25-0.16-0.38-0.25c-0.11-0.08-0.33-0.23-0.33-0.23c-0.42-0.3-0.93-0.47-1.48-0.47
			c-0.55,0-1.06,0.17-1.48,0.47c0,0-0.22,0.15-0.33,0.23c-0.13,0.08-0.25,0.17-0.38,0.25c-0.26,0.16-0.52,0.31-0.79,0.46
			c-1.78,0.95-3.82,1.49-5.97,1.49c-0.57,0-1.14-0.04-1.69-0.11c-0.24-0.04-0.49-0.05-0.74-0.05c-2.88,0-5.21,2.33-5.21,5.21v10.7
			c0,0.2-0.01,0.41-0.01,0.61c0,9.63,6.84,17.65,15.93,19.49c0.22,0.03,0.44,0.05,0.66,0.05c0.21,0,0.42-0.01,0.63-0.04
			c9.06-1.82,15.89-9.79,15.95-19.37l0-0.06V17.75C46.65,14.88,44.32,12.55,41.44,12.55z M30.06,47.51c-0.2,0-0.4-0.02-0.6-0.04
			c-8.58-1.73-15.04-9.3-15.04-18.39c0-0.09-0.09-10.95-0.09-10.95h0.01c0.1-2.63,1.87-4.66,4.51-4.66c0.23,0,0.67,0.01,0.9,0.04
			c0.53,0.07,1.09,0.14,1.64,0.14c2.04,0,4.17-0.46,5.85-1.35c0.25-0.14,0.51-0.28,0.75-0.44c0.12-0.07,0.24-0.15,0.36-0.23
			c0.1-0.07,0.2-0.14,0.31-0.22h0c0.39-0.28,0.89-0.5,1.41-0.5L30.06,47.51z M40.6,23.68l0.51,1.04l1.15,0.17l-0.83,0.81l0.2,1.14
			l-1.03-0.54l-1.03,0.54l0.2-1.15l-0.83-0.81l1.15-0.17L40.6,23.68z M37.23,20.02l0.52-1.04l0.51,1.04l1.15,0.17L38.58,21l0.2,1.14
			l-1.03-0.54l-1.03,0.54l0.2-1.14l-0.83-0.81L37.23,20.02z M33.77,25.2V23.9h4.06v1.29H33.77z M37.84,31.61v1.29h-4.06v-1.29H37.84
			z M32.22,17.21l0.52-1.04l0.52,1.04l1.15,0.17l-0.84,0.81l0.2,1.15l-1.03-0.54l-1.03,0.54l0.2-1.15l-0.83-0.81L32.22,17.21z
			 M31.04,27.27v-1.29l0.08,0c0.01,0,0.37,0,0.72-0.16c0.41-0.18,0.61-0.5,0.61-0.96v-1.49h0.82v1.95c0.01,0.18,0.01,0.8-0.43,1.31
			v6.59h-0.82v-6.06c-0.26,0.08-0.56,0.13-0.9,0.13H31.04z M34.25,40.54L33.22,40l-1.03,0.54l0.19-1.15l-0.83-0.81l1.15-0.17
			l0.52-1.05l0.51,1.05l1.15,0.17l-0.83,0.81L34.25,40.54z M39.07,37.56l-1.03-0.54l-1.03,0.54l0.2-1.15l-0.83-0.81l1.15-0.17
			l0.52-1.05l0.51,1.05l1.15,0.17l-0.83,0.81L39.07,37.56z M41.77,32.55l-1.03-0.54l-1.03,0.54l0.2-1.15l-0.83-0.81l1.15-0.17
			l0.51-1.04l0.52,1.04l1.15,0.17l-0.84,0.81L41.77,32.55z"/>
		<g>
			<path style="fill-rule:evenodd;clip-rule:evenodd;" d="M14.96,6.71c0.05,0.01,0.11,0.01,0.16,0.01c1.49-0.24,3.81-1.78,4.75-2.98
				c0.02-0.02,0.04-0.05,0.04-0.08c0.03-0.11-0.04-0.21-0.15-0.24c-2.04,0-4.46,1.27-5.14,2.57c-0.01,0.03-0.03,0.06-0.04,0.09
				C14.51,6.37,14.68,6.64,14.96,6.71z"/>
			<path style="fill-rule:evenodd;clip-rule:evenodd;" d="M5.75,15.59c0.06,0,0.12-0.01,0.18-0.03c0,0,0.01-0.01,0.02-0.01
				c0.06-0.02,0.11-0.06,0.16-0.11c1.39-1.83,1.83-4,1.97-6.17c-0.01-0.11-0.09-0.19-0.2-0.19c-0.01,0-0.02,0-0.03,0
				C7.8,9.09,7.76,9.11,7.73,9.14c-0.27,0.28-0.57,0.6-0.78,0.87c-1.07,1.31-1.78,2.76-1.78,4.49c0,0.24,0.02,0.48,0.09,0.72
				C5.31,15.43,5.51,15.59,5.75,15.59z"/>
			<path style="fill-rule:evenodd;clip-rule:evenodd;" d="M1.88,29.47c0.09,0.06,0.18,0.09,0.29,0.09c0.06,0,0.12-0.01,0.18-0.03
				c0.01,0,0.01,0,0.02-0.01c0.09-0.04,0.17-0.1,0.23-0.18c0.06-0.07,0.09-0.16,0.1-0.25c0.24-1.96-0.78-5.9-1.87-6.99
				c-0.04-0.03-0.09-0.06-0.14-0.06c-0.01,0-0.02,0-0.03,0c-0.04,0.01-0.08,0.03-0.12,0.06c-0.02,0.02-0.03,0.04-0.04,0.07
				c-0.49,2.06-0.49,4.08,0.41,6.05C1.14,28.72,1.47,29.13,1.88,29.47z"/>
			<path style="fill-rule:evenodd;clip-rule:evenodd;" d="M11.92,12.92c0.01-0.02,0.01-0.04,0.02-0.06c0-0.01,0-0.01,0-0.01
				c0-0.11-0.07-0.19-0.17-0.21c-2.15-0.04-4.51,1.68-5.09,3.25c-0.01,0.05-0.02,0.1-0.02,0.15c0,0.05,0.01,0.09,0.02,0.14
				c0.06,0.23,0.27,0.4,0.53,0.4c0.04,0,0.08-0.01,0.12-0.02C8.86,16.15,11.16,14.38,11.92,12.92z"/>
			<path style="fill-rule:evenodd;clip-rule:evenodd;" d="M9.65,9.77C9.7,9.79,9.76,9.8,9.81,9.79c0.01,0,0.01,0,0.02,0
				c0.06-0.01,0.12-0.02,0.17-0.05c1.78-1.25,2.81-3.08,3.57-5c0.02-0.1-0.03-0.2-0.13-0.23c-0.01,0-0.02-0.01-0.03-0.01
				c-0.04-0.01-0.08,0-0.12,0.02c-0.32,0.18-0.68,0.37-0.96,0.55c-1.34,0.87-2.41,1.97-2.91,3.53C9.36,8.83,9.31,9.05,9.3,9.28
				C9.3,9.5,9.43,9.7,9.65,9.77z"/>
			<path style="fill-rule:evenodd;clip-rule:evenodd;" d="M15.88,8.12c0.01-0.02,0.02-0.04,0.02-0.06c0,0,0-0.01,0-0.01
				c0.01-0.1-0.05-0.18-0.14-0.21c-2.03-0.22-4.4,1.2-5.08,2.62c-0.02,0.05-0.03,0.09-0.04,0.14c0,0.05,0,0.09,0.01,0.13
				c0.04,0.22,0.22,0.4,0.46,0.42c0.04,0,0.08,0,0.11,0C12.72,10.9,15.04,9.43,15.88,8.12z"/>
			<path style="fill-rule:evenodd;clip-rule:evenodd;" d="M4.73,23.11c0.06,0,0.12-0.02,0.17-0.03c1.55-0.72,3.23-3.1,3.85-4.77
				c0.01-0.02,0.01-0.03,0.01-0.05c0-0.01,0-0.01,0-0.01c0-0.02,0-0.04-0.01-0.05c-0.02-0.08-0.09-0.14-0.18-0.14
				c-1.75,0.04-4.11,2.55-4.4,4.49c0,0.02,0,0.04,0,0.06c0,0.05,0.01,0.09,0.03,0.14c0.01,0.04,0.03,0.08,0.05,0.12
				C4.34,23.01,4.52,23.12,4.73,23.11z"/>
			<path style="fill-rule:evenodd;clip-rule:evenodd;" d="M2.56,22.04c0.11,0.14,0.28,0.24,0.47,0.23c0.07,0,0.13-0.02,0.19-0.04
				c0.01,0,0.01,0,0.02-0.01c0.1-0.04,0.18-0.11,0.23-0.19c0.01-0.01,0.02-0.03,0.03-0.05c0.77-1.64,0.98-4.91,0.36-6.75
				c-0.03-0.09-0.11-0.16-0.21-0.15c-0.01,0-0.03,0-0.03,0c-0.05,0.01-0.09,0.03-0.12,0.07c-0.01,0.01-0.01,0.02-0.02,0.03
				c-0.2,0.35-0.39,0.66-0.55,0.99c-0.74,1.55-1.12,3.16-0.74,4.89C2.25,21.4,2.37,21.73,2.56,22.04z"/>
			<path style="fill-rule:evenodd;clip-rule:evenodd;" d="M3.55,29.35c0.03,0.1,0.09,0.19,0.17,0.25c0.09,0.08,0.21,0.13,0.34,0.13
				c0.06,0,0.13-0.01,0.18-0.03c0.01,0,0.01,0,0.02-0.01c0.05-0.02,0.1-0.05,0.14-0.08c1.4-1.14,2.49-4.12,2.63-5.7
				c0-0.06-0.02-0.11-0.06-0.14c-0.04-0.04-0.09-0.06-0.15-0.06c0,0,0,0,0,0C4.89,24.29,3.18,27.33,3.55,29.35z"/>
			<path style="fill-rule:evenodd;clip-rule:evenodd;" d="M2.26,36.3c0.18,0.18,0.38,0.33,0.61,0.45c0.08,0.03,0.17,0.06,0.26,0.06
				c0.07,0,0.14-0.02,0.21-0.04c0.1-0.03,0.18-0.1,0.25-0.17c0.03-0.03,0.06-0.07,0.09-0.12c0.02-0.04,0.04-0.09,0.05-0.14
				c0.01-0.05,0.02-0.1,0.02-0.16c-0.2-2.11-2.01-5.21-3.33-6.47c-0.04-0.03-0.08-0.05-0.13-0.06c-0.02,0-0.03,0-0.05,0
				c-0.01,0-0.03,0-0.04,0.01c-0.07,0.02-0.13,0.07-0.16,0.13c-0.01,0.02-0.02,0.04-0.02,0.06c-0.07,1.75,0.27,3.38,1.05,4.9
				C1.35,35.31,1.81,35.82,2.26,36.3z"/>
			<path style="fill-rule:evenodd;clip-rule:evenodd;" d="M16.1,53.19c0.08-0.04,0.16-0.09,0.22-0.16c0.04-0.04,0.07-0.08,0.09-0.13
				c0.06-0.1,0.09-0.22,0.09-0.34c0-0.19-0.08-0.35-0.19-0.48c-0.03-0.03-0.06-0.05-0.09-0.08c-1.87-1.29-5.38-2.04-7.33-1.85
				c-0.07,0.02-0.14,0.06-0.18,0.12c-0.02,0.03-0.03,0.06-0.04,0.09c-0.01,0.03-0.01,0.06-0.01,0.09c0,0.03,0.01,0.06,0.02,0.08
				c0.01,0.02,0.01,0.03,0.02,0.05c0.01,0.01,0.02,0.03,0.03,0.04c1.1,1.07,2.38,1.85,3.82,2.37c0.93,0.34,1.88,0.52,2.87,0.35
				C15.66,53.32,15.89,53.27,16.1,53.19z"/>
			<path style="fill-rule:evenodd;clip-rule:evenodd;" d="M6,43.32c0.06,0,0.12-0.01,0.18-0.03c0.1-0.03,0.18-0.09,0.25-0.17
				c0.03-0.04,0.06-0.08,0.08-0.12c0.02-0.04,0.04-0.09,0.06-0.14c0.01-0.05,0.02-0.11,0.02-0.17c0-0.02,0-0.04,0-0.06
				c-0.01-0.05-0.02-0.1-0.04-0.14c-1.15-2.32-3.04-3.83-5.18-5.14c-0.03-0.01-0.05-0.02-0.08-0.03c-0.02,0-0.03,0-0.05,0
				c-0.02,0-0.03,0-0.04,0.01c-0.07,0.02-0.13,0.06-0.16,0.13c-0.01,0.02-0.02,0.04-0.02,0.06c0,0.01,0,0.02,0,0.03
				c0,0.01,0,0.02,0,0.03c0,0,0,0.01,0,0.02c0.58,2.09,1.64,3.87,3.45,5.14C4.91,43.07,5.42,43.25,6,43.32z"/>
			<path style="fill-rule:evenodd;clip-rule:evenodd;" d="M4.78,36.43c0.04,0.04,0.08,0.08,0.12,0.11c0.02,0.01,0.04,0.03,0.07,0.04
				c0.09,0.05,0.19,0.07,0.3,0.07c0.07,0,0.14-0.02,0.21-0.04c0.1-0.03,0.18-0.09,0.25-0.17c0,0,0.01-0.01,0.01-0.01
				c1.06-1.43,1.4-4.53,1.15-6.37c0-0.04-0.01-0.08-0.04-0.1c-0.01-0.02-0.03-0.04-0.05-0.06c-0.04-0.03-0.09-0.06-0.14-0.06
				c-0.02,0-0.03,0-0.05,0c-0.01,0-0.03,0-0.04,0.01c-0.03,0.01-0.05,0.02-0.07,0.04c-2,1.68-2.5,4.8-1.79,6.44
				C4.73,36.35,4.75,36.39,4.78,36.43z"/>
			<path style="fill-rule:evenodd;clip-rule:evenodd;" d="M10.12,48.57c0.03,0,0.07-0.01,0.1-0.02c0.09-0.03,0.18-0.1,0.25-0.17
				c0.03-0.03,0.06-0.07,0.08-0.11c0.02-0.05,0.04-0.09,0.06-0.14c0.01-0.05,0.02-0.11,0.02-0.17c0-0.02,0-0.04,0-0.06
				c-0.01-0.07-0.03-0.14-0.06-0.2c-0.02-0.04-0.04-0.07-0.07-0.1c-1.45-1.6-4.75-3.36-6.57-3.46c-0.01,0-0.02,0-0.03,0
				c-0.01,0-0.03,0-0.04,0.01c-0.07,0.02-0.13,0.07-0.16,0.13c-0.01,0.02-0.02,0.04-0.02,0.06c0,0.01-0.01,0.02-0.01,0.03
				c0,0.01,0,0.02,0,0.03c0,0.01,0,0.02,0,0.02c0,0.02,0.01,0.04,0.01,0.05c0,0.02,0.01,0.03,0.02,0.04
				c0.98,1.8,3.66,4.07,5.77,4.11C9.69,48.62,9.9,48.6,10.12,48.57z"/>
			<path style="fill-rule:evenodd;clip-rule:evenodd;" d="M7.49,42.71c0.02,0.03,0.04,0.06,0.06,0.09c0.04,0.04,0.08,0.08,0.12,0.11
				c0.02,0.01,0.04,0.03,0.07,0.04c0.06,0.03,0.13,0.06,0.2,0.06c0.03,0.01,0.06,0.01,0.09,0.01c0.07,0,0.14-0.01,0.21-0.04
				c0.1-0.03,0.18-0.09,0.25-0.17c0.03-0.03,0.06-0.07,0.08-0.12c0.01-0.01,0.01-0.03,0.01-0.04c0.13-0.34,0.25-0.68,0.31-1.03
				c0.26-1.39,0.09-2.78-0.2-4.15c-0.07-0.32-0.15-0.64-0.24-0.99c0-0.02-0.01-0.05-0.03-0.07c-0.01-0.02-0.03-0.04-0.05-0.05
				c-0.01-0.01-0.03-0.02-0.04-0.03c-0.03-0.02-0.06-0.03-0.1-0.04c-0.02,0-0.03,0-0.05,0c-0.01,0-0.03,0-0.04,0.01
				c-0.05,0.02-0.1,0.05-0.13,0.08c-0.01,0.02-0.03,0.04-0.05,0.06c-1.03,1.45-1.45,3.06-1.08,4.8C7.01,41.76,7.24,42.24,7.49,42.71
				z"/>
			<path style="fill-rule:evenodd;clip-rule:evenodd;" d="M11.89,47.98c0.01,0.01,0.02,0.02,0.04,0.02c0.06,0.03,0.13,0.06,0.2,0.07
				c0.03,0,0.06,0.01,0.09,0.01c0.02,0,0.04,0,0.07,0c0.05-0.01,0.09-0.02,0.14-0.03c0.09-0.03,0.18-0.1,0.25-0.17
				c0.03-0.03,0.06-0.07,0.08-0.11c0.02-0.03,0.03-0.07,0.04-0.11c0.35-1.7-0.56-4.55-1.63-6.22c-0.01-0.01-0.02-0.03-0.04-0.04
				c-0.01-0.01-0.02-0.02-0.04-0.03c-0.03-0.02-0.07-0.03-0.1-0.03c0,0-0.01,0-0.01,0c-0.01,0-0.02,0-0.03,0
				c-0.02,0-0.03,0.01-0.04,0.01c-0.06,0.02-0.11,0.05-0.15,0.11C9.73,43.31,10.1,46.41,11.89,47.98z"/>
			<path style="fill-rule:evenodd;clip-rule:evenodd;" d="M17.12,51.77c0.09,0.05,0.2,0.08,0.31,0.08c0.02,0,0.03,0,0.05,0
				c0.07,0,0.13-0.02,0.18-0.04c0.11-0.04,0.21-0.1,0.28-0.19c0.04-0.04,0.07-0.08,0.1-0.13c0.05-0.1,0.08-0.22,0.08-0.34
				c-0.21-2.26-1.54-3.99-2.95-5.73c-0.02-0.03-0.05-0.06-0.09-0.07c-0.03-0.02-0.07-0.03-0.1-0.03c-0.01,0-0.02,0-0.03,0
				c-0.01,0-0.02,0-0.03,0c-0.02,0-0.03,0-0.05,0.01c-0.07,0.02-0.13,0.06-0.17,0.12c-0.02,0.02-0.03,0.05-0.03,0.08
				C14.04,47.57,15.37,50.73,17.12,51.77z"/>
			<path style="fill-rule:evenodd;clip-rule:evenodd;" d="M22.81,54.85c-0.05-0.03-0.11-0.06-0.16-0.09
				c-2.13-0.73-5.68-0.51-7.52,0.19c-0.05,0.02-0.1,0.06-0.13,0.1c-0.02,0.03-0.04,0.06-0.04,0.09c0,0.01,0,0.02-0.01,0.03
				c0,0.02,0,0.04,0,0.06c0,0.03,0.01,0.06,0.02,0.08c0.01,0.02,0.01,0.03,0.02,0.05c0.01,0.02,0.03,0.04,0.04,0.06
				c0.02,0.01,0.03,0.02,0.05,0.03c1.34,0.73,2.79,1.15,4.31,1.26c0.99,0.07,1.96,0,2.87-0.43c0.21-0.1,0.41-0.22,0.59-0.34
				c0.03-0.02,0.05-0.04,0.07-0.06c0.04-0.04,0.07-0.08,0.1-0.13c0.05-0.1,0.08-0.22,0.08-0.34c0-0.19-0.07-0.35-0.19-0.48
				C22.88,54.91,22.85,54.88,22.81,54.85z"/>
			<path style="fill-rule:evenodd;clip-rule:evenodd;" d="M36.54,54.51c2.12-0.19,4.45-3.61,4.11-5.98c0,0,0-0.01,0-0.01
				c-0.01-0.03-0.02-0.06-0.04-0.09c-0.04-0.06-0.1-0.1-0.17-0.12c-0.02,0-0.03-0.01-0.05-0.01c-0.01,0-0.02,0-0.03,0
				c-0.01,0-0.02,0-0.03,0c-0.04,0-0.07,0.02-0.1,0.03c-0.02,0.01-0.04,0.02-0.05,0.04c-1.78,1.6-3.47,3.19-3.92,5.64
				c-1.35,0.35-3.77,1.02-6.17,1.89c-2.4-0.87-4.82-1.54-6.17-1.89c-0.45-2.45-2.13-4.05-3.92-5.64c-0.01-0.01-0.03-0.03-0.05-0.04
				c-0.03-0.02-0.07-0.03-0.1-0.03c-0.01,0-0.02,0-0.03,0c-0.01,0-0.02,0-0.03,0c-0.02,0-0.03,0-0.05,0.01
				c-0.07,0.02-0.13,0.06-0.17,0.12c-0.02,0.03-0.03,0.06-0.04,0.09c0,0,0,0.01,0,0.01c-0.34,2.37,1.99,5.79,4.11,5.98
				c1.46,0.3,3.43,0.97,5.36,1.79c-2.1,0.82-4.04,1.78-5.06,2.8L24.69,60c0.94-0.94,3.07-2.14,5.4-3.21
				c2.33,1.06,4.46,2.27,5.4,3.21l0.76-0.89c-1.02-1.02-2.96-1.98-5.06-2.8C33.12,55.48,35.08,54.81,36.54,54.51z"/>
			<path style="fill-rule:evenodd;clip-rule:evenodd;" d="M40.31,3.74c0.94,1.2,3.26,2.74,4.75,2.98c0.05,0,0.1,0,0.16-0.01
				c0.28-0.07,0.45-0.34,0.38-0.62C45.6,6.06,45.58,6.03,45.56,6c-0.69-1.3-3.11-2.57-5.14-2.57c-0.11,0.03-0.17,0.13-0.15,0.24
				C40.28,3.7,40.3,3.72,40.31,3.74z"/>
			<path style="fill-rule:evenodd;clip-rule:evenodd;" d="M54.23,15.55c0,0,0.01,0.01,0.02,0.01c0.06,0.02,0.11,0.03,0.18,0.03
				c0.24,0,0.44-0.16,0.51-0.38c0.06-0.24,0.09-0.48,0.09-0.72c0-1.73-0.72-3.18-1.78-4.49c-0.22-0.27-0.52-0.59-0.78-0.87
				c-0.03-0.03-0.07-0.05-0.11-0.06c-0.01,0-0.02,0-0.04,0c-0.11,0-0.2,0.09-0.2,0.19c0.14,2.17,0.58,4.35,1.97,6.17
				C54.12,15.49,54.17,15.53,54.23,15.55z"/>
			<path style="fill-rule:evenodd;clip-rule:evenodd;" d="M57.46,29.1c0.01,0.09,0.05,0.18,0.1,0.25c0.06,0.08,0.14,0.14,0.23,0.18
				c0,0,0.01,0,0.02,0.01c0.06,0.02,0.12,0.03,0.18,0.03c0.11,0,0.21-0.03,0.29-0.09c0.42-0.33,0.74-0.75,0.97-1.24
				c0.9-1.97,0.9-3.99,0.41-6.05c-0.01-0.02-0.02-0.05-0.04-0.07c-0.03-0.03-0.07-0.05-0.12-0.06c-0.01,0-0.02,0-0.03,0
				c-0.06,0-0.11,0.02-0.14,0.06C58.24,23.2,57.23,27.13,57.46,29.1z"/>
			<path style="fill-rule:evenodd;clip-rule:evenodd;" d="M52.98,16.58c0.25,0,0.47-0.17,0.53-0.4c0.01-0.05,0.02-0.09,0.02-0.14
				c0-0.05-0.01-0.1-0.03-0.15c-0.57-1.57-2.94-3.28-5.09-3.25c-0.1,0.02-0.17,0.1-0.17,0.21c0,0,0,0.01,0,0.01
				c0,0.02,0.01,0.04,0.02,0.06c0.76,1.46,3.06,3.23,4.6,3.64C52.9,16.57,52.94,16.58,52.98,16.58z"/>
			<path style="fill-rule:evenodd;clip-rule:evenodd;" d="M50.17,9.74c0.06,0.02,0.12,0.04,0.18,0.05c0.01,0,0.01,0,0.02,0
				c0.05,0,0.11-0.01,0.17-0.02c0.22-0.07,0.35-0.27,0.35-0.48c-0.01-0.23-0.06-0.46-0.13-0.68c-0.5-1.56-1.57-2.66-2.91-3.53
				C47.56,4.9,47.2,4.7,46.88,4.53c-0.04-0.02-0.08-0.03-0.12-0.02c-0.01,0-0.02,0-0.03,0.01c-0.1,0.03-0.15,0.13-0.12,0.23
				C47.36,6.67,48.39,8.5,50.17,9.74z"/>
			<path style="fill-rule:evenodd;clip-rule:evenodd;" d="M49.06,11.16c0.24-0.02,0.42-0.2,0.46-0.42c0.01-0.04,0.01-0.09,0-0.13
				c0-0.05-0.02-0.1-0.04-0.14c-0.68-1.43-3.05-2.84-5.08-2.62c-0.09,0.03-0.15,0.11-0.14,0.21c0,0,0,0.01,0,0.01
				c0,0.02,0.01,0.04,0.02,0.06c0.84,1.31,3.16,2.78,4.65,3.04C48.99,11.16,49.02,11.17,49.06,11.16z"/>
			<path style="fill-rule:evenodd;clip-rule:evenodd;" d="M51.42,18.19c0,0.02-0.01,0.03-0.01,0.05c0,0,0,0.01,0,0.01
				c0,0.02,0.01,0.03,0.01,0.05c0.62,1.67,2.3,4.05,3.85,4.77c0.05,0.02,0.11,0.03,0.17,0.03c0.2,0.01,0.39-0.1,0.49-0.27
				c0.02-0.03,0.04-0.08,0.05-0.12c0.01-0.04,0.02-0.09,0.02-0.14c0-0.02,0-0.04,0-0.06c-0.3-1.95-2.65-4.45-4.4-4.49
				C51.52,18.05,51.45,18.1,51.42,18.19z"/>
			<path style="fill-rule:evenodd;clip-rule:evenodd;" d="M56.72,22.02c0.06,0.08,0.14,0.15,0.23,0.19c0,0,0.01,0,0.02,0.01
				c0.06,0.02,0.12,0.04,0.19,0.04c0.19,0.01,0.36-0.08,0.47-0.23c0.18-0.3,0.31-0.64,0.39-0.99c0.38-1.72,0-3.34-0.74-4.89
				c-0.16-0.32-0.34-0.64-0.55-0.99c-0.01-0.01-0.01-0.02-0.02-0.03c-0.03-0.03-0.07-0.06-0.12-0.07c-0.01,0-0.02,0-0.03,0
				c-0.1,0-0.19,0.06-0.21,0.15c-0.62,1.85-0.42,5.12,0.36,6.75C56.7,21.99,56.71,22.01,56.72,22.02z"/>
			<path style="fill-rule:evenodd;clip-rule:evenodd;" d="M55.93,29.7c0.06,0.02,0.12,0.03,0.18,0.03c0.13,0,0.25-0.05,0.35-0.13
				c0.08-0.06,0.14-0.15,0.17-0.25c0.37-2.02-1.33-5.06-3.27-5.64c0,0,0,0,0,0c-0.06,0-0.11,0.02-0.15,0.06
				c-0.04,0.04-0.06,0.09-0.06,0.14c0.14,1.58,1.23,4.56,2.63,5.7c0.04,0.03,0.09,0.06,0.14,0.08C55.92,29.7,55.92,29.7,55.93,29.7z
				"/>
			<path style="fill-rule:evenodd;clip-rule:evenodd;" d="M59.94,29.64c-0.01,0-0.03,0-0.05,0c-0.05,0.01-0.09,0.03-0.13,0.06
				c-1.32,1.26-3.12,4.37-3.32,6.47c0,0.06,0.01,0.11,0.02,0.16c0.01,0.05,0.03,0.09,0.05,0.14c0.02,0.04,0.05,0.08,0.08,0.12
				c0.07,0.08,0.15,0.14,0.25,0.17c0.07,0.02,0.14,0.04,0.21,0.04c0.09,0,0.18-0.02,0.26-0.06c0.22-0.12,0.43-0.27,0.6-0.45
				c0.45-0.47,0.91-0.99,1.2-1.56c0.78-1.52,1.12-3.15,1.05-4.9c0-0.02-0.01-0.04-0.02-0.06c-0.03-0.06-0.09-0.11-0.16-0.13
				C59.97,29.65,59.96,29.64,59.94,29.64z"/>
			<path style="fill-rule:evenodd;clip-rule:evenodd;" d="M51.46,50.28c-0.04-0.06-0.1-0.1-0.18-0.12
				c-1.96-0.19-5.47,0.56-7.33,1.85c-0.03,0.02-0.06,0.05-0.08,0.08c-0.12,0.12-0.19,0.29-0.2,0.48c0,0.12,0.03,0.24,0.09,0.34
				c0.03,0.05,0.06,0.09,0.09,0.13c0.06,0.07,0.14,0.12,0.22,0.16c0.22,0.08,0.44,0.13,0.67,0.17c0.99,0.17,1.95-0.02,2.87-0.35
				c1.44-0.52,2.72-1.3,3.82-2.37c0.01-0.01,0.02-0.03,0.03-0.04c0.01-0.02,0.02-0.03,0.02-0.05c0.01-0.02,0.02-0.05,0.02-0.08
				c0-0.03,0-0.06-0.01-0.09C51.49,50.34,51.48,50.31,51.46,50.28z"/>
			<path style="fill-rule:evenodd;clip-rule:evenodd;" d="M59.17,37.53c0-0.02-0.01-0.04-0.02-0.06c-0.03-0.06-0.09-0.11-0.16-0.13
				c-0.01,0-0.03,0-0.04-0.01c-0.01,0-0.03,0-0.05,0c-0.03,0-0.05,0.01-0.08,0.03c-2.15,1.31-4.03,2.82-5.18,5.14
				c-0.02,0.04-0.04,0.09-0.04,0.14c0,0.02,0,0.04,0,0.06c0,0.06,0.01,0.11,0.02,0.17c0.01,0.05,0.03,0.09,0.06,0.14
				c0.02,0.04,0.05,0.08,0.08,0.12c0.07,0.07,0.15,0.13,0.25,0.17c0.06,0.02,0.12,0.03,0.18,0.03c0.57-0.06,1.08-0.25,1.54-0.57
				c1.82-1.27,2.87-3.05,3.45-5.14c0-0.01,0-0.01,0-0.02c0-0.01,0-0.02,0-0.03C59.17,37.55,59.17,37.54,59.17,37.53z"/>
			<path style="fill-rule:evenodd;clip-rule:evenodd;" d="M54.46,36.44c0.07,0.08,0.15,0.13,0.25,0.17
				c0.07,0.02,0.13,0.04,0.21,0.04c0.11,0,0.21-0.03,0.3-0.07c0.02-0.01,0.04-0.03,0.07-0.04c0.04-0.03,0.08-0.07,0.12-0.11
				c0.03-0.03,0.05-0.07,0.07-0.11c0.71-1.64,0.21-4.75-1.78-6.44c-0.02-0.01-0.04-0.03-0.07-0.04c-0.01,0-0.03-0.01-0.04-0.01
				c-0.02,0-0.03,0-0.05,0c-0.05,0.01-0.1,0.03-0.14,0.06c-0.02,0.02-0.03,0.03-0.04,0.06c-0.02,0.03-0.03,0.07-0.03,0.1
				C53.05,31.9,53.39,35,54.46,36.44C54.45,36.44,54.46,36.44,54.46,36.44z"/>
			<path style="fill-rule:evenodd;clip-rule:evenodd;" d="M56.49,44.33c0-0.02-0.01-0.04-0.02-0.06c-0.03-0.06-0.09-0.11-0.16-0.13
				c-0.01,0-0.03,0-0.04-0.01c-0.01,0-0.02,0-0.03,0c-1.82,0.1-5.12,1.86-6.57,3.46c-0.03,0.03-0.05,0.07-0.07,0.1
				c-0.03,0.07-0.05,0.13-0.06,0.2c0,0.02,0,0.04,0,0.06c0,0.06,0.01,0.11,0.02,0.17c0.01,0.05,0.03,0.09,0.06,0.14
				c0.02,0.04,0.05,0.08,0.08,0.11c0.07,0.08,0.15,0.14,0.25,0.17c0.03,0.01,0.06,0.02,0.1,0.02c0.22,0.02,0.44,0.04,0.65,0.04
				c2.11-0.04,4.8-2.31,5.77-4.11c0.01-0.01,0.01-0.03,0.02-0.04s0.01-0.03,0.01-0.05c0-0.01,0-0.02,0-0.02c0-0.01,0-0.02,0-0.03
				C56.5,44.35,56.5,44.34,56.49,44.33z"/>
			<path style="fill-rule:evenodd;clip-rule:evenodd;" d="M51.59,42.66c0,0.01,0.01,0.02,0.02,0.04c0.02,0.04,0.05,0.08,0.08,0.12
				c0.07,0.07,0.15,0.13,0.25,0.17c0.07,0.02,0.14,0.04,0.21,0.04c0.03,0,0.06,0,0.09-0.01c0.07-0.01,0.14-0.03,0.2-0.06
				c0.02-0.01,0.04-0.03,0.06-0.04c0.05-0.03,0.09-0.07,0.12-0.11c0.02-0.03,0.04-0.06,0.06-0.09c0.25-0.47,0.48-0.95,0.59-1.45
				c0.37-1.74-0.04-3.36-1.08-4.8c-0.01-0.02-0.03-0.04-0.04-0.06c-0.03-0.04-0.08-0.07-0.13-0.08c-0.01,0-0.03-0.01-0.04-0.01
				c-0.02,0-0.03,0-0.05,0c-0.04,0-0.07,0.02-0.1,0.04c-0.02,0.01-0.03,0.02-0.04,0.03c-0.02,0.02-0.03,0.03-0.04,0.05
				c-0.01,0.02-0.02,0.04-0.03,0.07l0,0c-0.09,0.36-0.17,0.68-0.24,0.99c-0.28,1.37-0.45,2.76-0.2,4.15
				C51.34,41.98,51.46,42.33,51.59,42.66z"/>
			<path style="fill-rule:evenodd;clip-rule:evenodd;" d="M49.26,41.33c-0.01,0-0.03-0.01-0.04-0.01c-0.01,0-0.03,0-0.04,0
				c0,0-0.01,0-0.01,0c-0.04,0-0.07,0.02-0.1,0.03c-0.02,0.01-0.03,0.02-0.04,0.03c-0.01,0.01-0.02,0.03-0.03,0.04
				c-1.06,1.67-1.98,4.52-1.62,6.22c0.01,0.04,0.03,0.07,0.04,0.11c0.02,0.04,0.05,0.08,0.08,0.11c0.07,0.08,0.15,0.14,0.25,0.17
				c0.05,0.01,0.09,0.03,0.14,0.03c0.02,0,0.04,0,0.06,0c0.03,0,0.06,0,0.09-0.01c0.07-0.01,0.14-0.03,0.2-0.07
				c0.01-0.01,0.03-0.02,0.04-0.02c1.78-1.56,2.15-4.66,1.11-6.54C49.37,41.39,49.33,41.35,49.26,41.33z"/>
			<path style="fill-rule:evenodd;clip-rule:evenodd;" d="M45.31,45.33c-0.01,0-0.03-0.01-0.05-0.01c-0.01,0-0.02,0-0.03,0
				c-0.01,0-0.02,0-0.03,0c-0.03,0.01-0.07,0.02-0.1,0.03c-0.04,0.02-0.07,0.04-0.09,0.07c-1.41,1.74-2.75,3.47-2.95,5.73
				c0,0.12,0.03,0.24,0.09,0.34c0.02,0.05,0.06,0.09,0.09,0.13c0.08,0.08,0.17,0.15,0.28,0.19c0.06,0.02,0.12,0.03,0.18,0.04
				c0.02,0,0.03,0,0.05,0c0.11,0,0.21-0.03,0.31-0.08c1.75-1.04,3.08-4.21,2.46-6.25c-0.01-0.03-0.02-0.05-0.03-0.08
				C45.45,45.39,45.38,45.35,45.31,45.33z"/>
			<path style="fill-rule:evenodd;clip-rule:evenodd;" d="M45.22,55.15c-0.01-0.03-0.02-0.07-0.04-0.09
				c-0.03-0.05-0.08-0.08-0.13-0.1c-1.84-0.7-5.39-0.91-7.52-0.19c-0.06,0.02-0.12,0.05-0.17,0.09c-0.03,0.02-0.07,0.05-0.09,0.08
				c-0.12,0.12-0.2,0.29-0.2,0.48c0,0.12,0.03,0.24,0.08,0.34c0.03,0.05,0.06,0.09,0.1,0.13c0.02,0.02,0.05,0.04,0.07,0.06
				c0.18,0.13,0.38,0.24,0.59,0.34c0.91,0.43,1.88,0.5,2.86,0.43c1.53-0.11,2.96-0.53,4.31-1.26c0.02-0.01,0.03-0.02,0.05-0.03
				c0.02-0.02,0.03-0.04,0.04-0.06c0.01-0.01,0.02-0.03,0.02-0.05c0.01-0.03,0.02-0.05,0.02-0.08c0-0.02,0-0.04,0-0.06
				C45.22,55.17,45.22,55.15,45.22,55.15z"/>
		</g>
		<path d="M33.07,3.15V1.74c-0.65-0.07-1.36-0.11-2.17-0.13l-0.05,0V0h-1.58v1.6l-0.05,0c-0.81,0.02-1.52,0.07-2.18,0.13v1.41
			c0.65-0.07,1.36-0.11,2.17-0.14l0.06,0v4.57h1.58V3.01l0.06,0C31.72,3.04,32.43,3.09,33.07,3.15z"/>
	</g>
</g>
</svg>
