<?xml version="1.0" encoding="utf-8"?>
<!-- Generator: Adobe Illustrator 25.0.1, SVG Export Plug-In . SVG Version: 6.00 Build 0)  -->
<svg version="1.1" id="圖層_1" xmlns="http://www.w3.org/2000/svg" xmlns:xlink="http://www.w3.org/1999/xlink" x="0px" y="0px"
	 viewBox="0 0 320 260" style="enable-background:new 0 0 320 260;" xml:space="preserve">
<g>
	<g>
		<g>
			<path d="M17.75,210.89c1.32,5.25,5.52,10.38,15.06,13.42l-0.03,0.41c-2.05,0.38-3.26,1.49-3.57,3.77
				c-7.95-3.98-10.79-10.86-11.9-16.68c-1.25,7.37-5.03,12.87-17.03,16.68l-0.29-0.51c9.47-4.57,12.25-10.14,13.08-17.09H1.2
				l-0.28-1h12.25c0.24-2.8,0.24-5.78,0.24-9.06H3.22l-0.28-1.01h20.64l2.39-3.01c0,0,2.7,2.04,4.37,3.46
				c-0.1,0.38-0.52,0.56-1.01,0.56h-11.3c-0.07,3.28-0.14,6.29-0.42,9.06h8.02l2.43-3.05c0,0,2.74,2.04,4.37,3.5
				c-0.1,0.38-0.49,0.55-1.01,0.55H17.75z"/>
			<path d="M75.94,222.72c0,0,2.78,2.11,4.51,3.56c-0.1,0.38-0.49,0.56-1.01,0.56H48.22l-0.28-0.97h13.91v-10.45H52l-0.28-1.01
				h10.13v-8.85h-11.3l-0.28-0.97H72.2l2.43-3.04c0,0,2.71,2.03,4.37,3.46c-0.1,0.38-0.49,0.56-1.01,0.56H66.33v8.85h4.72l2.36-2.94
				c0,0,2.64,1.97,4.23,3.39c-0.07,0.38-0.49,0.56-0.94,0.56H66.33v10.45h7.15L75.94,222.72z M58.42,196.23
				c12.14,0.69,9.75,9.41,5.27,7.09c-0.97-2.49-3.44-5.22-5.52-6.81L58.42,196.23z"/>
			<path d="M126.06,204.8c-0.59,5.32-1.91,10.03-4.55,13.97c1.94,2.42,4.44,4.4,7.53,5.84l-0.1,0.35c-1.91,0.38-3.05,1.46-3.54,3.28
				c-2.57-1.79-4.47-4.15-5.9-6.95c-2.81,3.04-6.73,5.46-12.14,7.13l-0.24-0.35c5.2-2.7,8.67-6.12,10.93-10.1
				c-0.9-2.59-1.56-5.46-2.01-8.55c-1.18,1.97-2.57,3.71-4.16,5.15l-0.45-0.27c1.01-2,1.95-4.47,2.74-7.16
				c-0.1,0.03-0.21,0.03-0.35,0.03h-5.62c-1.08,1.25-2.22,2.45-3.47,3.6h2.53l1.84-1.9l3.4,2.94c-0.28,0.28-0.66,0.35-1.35,0.42
				c-1.11,0.66-2.46,1.49-3.82,2.14l1.11,0.11c-0.1,0.52-0.42,0.76-1.14,0.86v1.42c2.08-0.28,4.34-0.59,6.56-0.9l0.07,0.49
				c-1.77,0.69-3.96,1.49-6.63,2.39v5.15c0,2.73-0.59,4.19-5.03,4.61c-0.1-1.22-0.28-2.11-0.8-2.66c-0.56-0.59-1.28-1.01-2.95-1.29
				v-0.48c0,0,3.57,0.2,4.27,0.2c0.52,0,0.69-0.14,0.69-0.56V220c-1.46,0.48-3.05,0.97-4.75,1.49c-0.17,0.42-0.56,0.73-0.94,0.83
				l-1.7-4.19c1.56-0.14,4.2-0.42,7.39-0.83v-3.25l2.05,0.17c0.55-0.76,1.11-1.67,1.56-2.42h-3.5c-2.32,1.97-4.93,3.77-7.88,5.19
				l-0.35-0.38c1.98-1.39,3.85-3.04,5.55-4.81h-3.33l-0.31-1h4.55c1.04-1.15,2.01-2.35,2.91-3.6h-8.74l-0.28-1.01h5.76v-4.46h-4.09
				l-0.28-0.97h4.37v-4.68l5.14,0.42c-0.07,0.52-0.35,0.83-1.28,0.97v3.29h0.1l1.63-2.21c0,0,0.97,0.8,1.91,1.67
				c0.66-1.28,1.18-2.52,1.63-3.7l4.55,2.18c-0.21,0.38-0.56,0.59-1.42,0.45c-1.21,2.28-2.77,4.71-4.68,7.05h1.08l1.63-2.14
				c0,0,1.53,1.22,2.67,2.28c0.87-3.21,1.56-6.71,1.87-10.17l5.58,1.32c-0.1,0.45-0.52,0.77-1.35,0.8
				c-0.49,1.97-1.08,3.81-1.73,5.53h4.03l2.15-2.76c0,0,2.43,1.93,3.85,3.22c-0.1,0.38-0.45,0.56-0.94,0.56h-1.83V204.8z
				 M105.3,206.19h0.14c1.01-1.49,1.91-2.97,2.74-4.46h-2.88V206.19z M118.39,204.8c-0.52,1.25-1.11,2.42-1.7,3.53
				c0.62,2.63,1.46,4.99,2.6,7.09c1.35-3.25,2.05-6.81,2.32-10.62H118.39z"/>
			<path d="M168.71,203.18v3.08h2.36l1.67-1.87l3.54,2.73c-0.21,0.24-0.66,0.52-1.28,0.63v16.33c0,2.62-0.45,4.01-3.89,4.33
				c-0.04-1.11-0.07-2.07-0.31-2.59c-0.24-0.59-0.62-0.97-1.46-1.14v-0.49c0,0,1.22,0.07,1.63,0.07c0.38,0,0.45-0.17,0.45-0.55
				v-4.85h-2.71v7.96c0,0.45-1.49,1.28-2.81,1.28h-0.69v-9.23h-2.43v8.38c0,0.38-1.35,1.18-2.84,1.18h-0.56v-7.23h-0.14h-6.04v6.33
				c0,0.2-1.14,1.01-2.98,1.01h-0.66v-7.34h-5.69l-0.28-0.97h5.97v-4.15h-1.49v0.83c0,0.32-1.42,1.08-2.81,1.08h-0.52v-14.36
				l3.5,1.42h1.32v-3.15h-5.66l-0.28-0.97h5.93v-4.85l4.79,0.41c-0.03,0.45-0.31,0.77-1.14,0.9v3.53h0.83l1.98-2.59
				c0,0,2.25,1.76,3.64,3.01c-0.1,0.38-0.45,0.56-0.94,0.56h-5.52v3.15h1.32l1.49-1.56l3.16,2.35c-0.17,0.24-0.59,0.48-1.14,0.59
				v9.82c-0.03,0.28-1.59,1.04-2.67,1.04h-0.55v-1.22h-1.6v4.15h1.35l1.98-2.55c0,0,1.53,1.21,2.84,2.31v-15.26l3.58,1.56h2.25
				v-3.08h-6.32l-0.28-0.97h6.59v-5.91l4.89,0.49c-0.1,0.52-0.38,0.93-1.39,1.07v4.36h2.25l1.32-1.76
				c-0.14-1.22-1.01-2.63-1.84-3.42l0.31-0.21c5.34,0.25,5.17,3.22,3.57,3.95c0.73,0.59,1.56,1.28,2.19,1.86
				c-0.1,0.38-0.45,0.56-0.94,0.56h-6.84V203.18z M148.06,206.02v4.12h1.66v-4.12H148.06z M148.06,215.04h1.66v-3.94h-1.66V215.04z
				 M153.02,206.02v4.12h1.77v-4.12H153.02z M154.8,215.04v-3.94h-1.77v3.94H154.8z M162.77,207.22v4.67h2.43v-4.67H162.77z
				 M165.2,217.84v-4.98h-2.43v4.98H165.2z M168.71,207.22v4.67h2.71v-4.67H168.71z M171.41,217.84v-4.98h-2.71v4.98H171.41z"/>
			<path d="M204.45,197.81c-0.14,0.45-0.59,0.77-1.39,0.73c-1.08,2.66-2.29,5.09-3.68,7.23l1.59,0.59c-0.1,0.31-0.41,0.52-1.07,0.66
				v20.27c-0.07,0.32-1.74,1.18-3.33,1.18h-0.8v-18.03c-1.35,1.46-2.81,2.77-4.34,3.88l-0.38-0.28c3.02-4.29,6.04-11.21,7.56-18.06
				L204.45,197.81z M219.87,220.71c0,0,2.71,2.18,4.34,3.7c-0.1,0.38-0.49,0.56-1.04,0.56h-21.72l-0.31-1.11h16.34L219.87,220.71z
				 M202.82,203.22h13.22l2.32-3.11c0,0,2.64,2.18,4.27,3.7c-0.1,0.35-0.48,0.52-1.04,0.52h-18.46L202.82,203.22z"/>
			<path d="M257.34,207.46c1.22,6.4,5.24,12.76,14.95,16.68l-0.07,0.38c-2.12,0.38-3.37,1.66-3.75,4.01
				c-8.08-4.91-10.69-13.32-11.62-20.24c-1.04,8.24-4.51,15.3-17.11,20.24l-0.31-0.52c9.64-5.81,12.35-12.66,13.11-20.55h-12.53
				l-0.28-1.01h12.87c0.24-3.25,0.21-6.71,0.21-10.31l5.83,0.55c-0.1,0.52-0.42,0.87-1.25,1.01c-0.07,3.01-0.1,5.95-0.35,8.75h7.81
				l2.57-3.15c0,0,2.81,2.11,4.55,3.6c-0.1,0.38-0.49,0.56-1.01,0.56H257.34z"/>
			<path d="M292.15,210.17c0.31,2-0.28,3.6-1.84,4.29c-2.64,1.11-4.41-2.21-1.49-3.74c0.97-0.48,1.91-1.79,1.87-3.77l0.42-0.04
				c0.38,0.8,0.66,1.56,0.87,2.28h0.49l-0.35-11.66l3.16,0.62c1.07-0.76,2.15-1.63,2.74-2.18l2.78,2.11l0.1-0.1
				c1.04,0.04,1.94,0.17,2.67,0.35c0.52-0.69,0.94-1.42,1.25-2.07l3.19,1.63c-0.14,0.32-0.48,0.38-1.11,0.25
				c-0.31,0.41-0.73,0.8-1.18,1.21c1.73,1.39,0.93,3.22-0.7,2.66c-0.28-0.38-0.69-0.83-1.14-1.25c-1.14,0.76-2.43,1.45-3.64,1.93
				l-0.07-0.11c-0.1,0.28-0.42,0.38-0.8,0.38h-3.54l0.1,2.66h0.8l1.28-1.7c0,0,1.46,1.22,2.36,2.14c-0.1,0.38-0.42,0.55-0.87,0.55
				h-3.57l0.1,2.56h14.92l0.1-2.56h-2.85l-0.28-1h3.19l0.1-2.66h-2.88l-0.31-0.97h3.26l0.14-2.69h-3.44l-0.28-1.01h3.4l1.53-1.79
				l3.64,2.76c-0.28,0.28-0.56,0.42-1.22,0.49l-0.45,9.09l1.77-1.73l3.61,3.46c-0.28,0.28-0.62,0.35-1.32,0.38
				c-1.32,0.8-3.54,1.93-5,2.59l-0.31-0.24c0.28-0.8,0.69-2.11,1.01-3.15h-22.21V210.17z M315.19,216.19c0,0,2.43,2,3.85,3.36
				c-0.1,0.38-0.45,0.55-0.97,0.55h-12.35v3.6c0,2.83-0.63,4.39-5.31,4.81c-0.1-1.28-0.31-2.18-0.87-2.84
				c-0.55-0.62-1.35-1.08-3.19-1.35v-0.49c0,0,3.92,0.25,4.68,0.25c0.52,0,0.7-0.14,0.7-0.59v-3.39h-13.29l-0.28-1.01h13.57v-2.77
				l3.09,0.28c0.87-0.76,1.77-1.63,2.5-2.38h-12.38l-0.31-1.01h13.25l2.19-2.07l3.75,3.28c-0.31,0.28-0.66,0.38-1.42,0.42
				c-1.53,0.59-3.54,1.35-5.52,1.93c-0.07,0.52-0.42,0.76-1.14,0.87v1.46h7.28L315.19,216.19z M297.91,200.4c0,0,1.18,0.9,2.05,1.73
				c0.9-0.69,1.8-1.59,2.6-2.52c-0.56-0.41-1.14-0.8-1.66-1.11c-0.21,0.07-0.52,0.04-0.87-0.07c-0.97,0.32-2.6,0.66-4.3,0.9
				l0.07,2.66h0.87L297.91,200.4z M308.53,203.87c-0.17,0.35-0.55,0.42-1.11,0.28c-0.35,0.49-0.83,0.94-1.35,1.42
				c1.77,1.6,0.83,3.6-0.94,2.87c-0.24-0.45-0.59-0.97-1.04-1.46c-1.32,0.83-2.81,1.52-4.27,1.97l-0.28-0.52
				c1.14-0.73,2.29-1.67,3.26-2.7c-0.7-0.59-1.46-1.14-2.12-1.56l0.35-0.35c1.18,0.1,2.15,0.27,2.95,0.55
				c0.56-0.66,0.97-1.39,1.32-2.04L308.53,203.87z"/>
		</g>
		<g>
			<g>
				<g>
					<path d="M89.32,244.6l0.04,0.05h0.3h0.11l0.01-0.11l0.07-2.36l-0.09-0.03c-0.53-0.16-1-0.28-1.42-0.36
						c-0.43-0.1-0.81-0.16-1.14-0.21c-0.34-0.05-0.65-0.09-0.94-0.1c-0.29-0.01-0.57-0.02-0.84-0.02c-0.26,0-0.62,0.02-1.08,0.04
						c-0.45,0.02-0.96,0.1-1.53,0.24c-0.57,0.14-1.15,0.36-1.78,0.65c-0.62,0.31-1.22,0.73-1.78,1.26c-0.51,0.48-0.91,0.98-1.22,1.5
						c-0.29,0.5-0.51,1-0.66,1.48c-0.15,0.47-0.25,0.91-0.29,1.32c-0.04,0.41-0.06,0.73-0.06,0.98c0,0.74,0.1,1.46,0.29,2.14
						c0.19,0.67,0.49,1.3,0.87,1.87l0,0c0.38,0.58,0.85,1.1,1.39,1.54c0.55,0.45,1.18,0.81,1.88,1.08l0,0
						c0.35,0.16,0.7,0.26,1.05,0.33c0.34,0.08,0.66,0.13,0.95,0.17c0.29,0.03,0.55,0.06,0.78,0.06c0.23,0.01,0.41,0.01,0.54,0.01
						c0.55,0,1.16-0.04,1.84-0.13c0.68-0.07,1.29-0.19,1.82-0.34l0,0l0,0c0.22-0.07,0.43-0.13,0.65-0.19l0,0
						c0.21-0.06,0.43-0.13,0.65-0.22l0.08-0.02l-0.08-2.38h-0.35H89.3l-0.03,0.07c-0.03,0.1-0.09,0.23-0.15,0.38
						c-0.06,0.14-0.16,0.31-0.34,0.51l-0.31,0.29l0,0c-0.12,0.1-0.29,0.21-0.5,0.31l0,0l0,0c-0.27,0.12-0.53,0.22-0.83,0.29
						c-0.29,0.07-0.56,0.12-0.83,0.16c-0.26,0.04-0.49,0.06-0.68,0.07c-0.19,0-0.33,0.01-0.41,0.01c-0.22,0-0.51-0.01-0.86-0.04
						c-0.36-0.02-0.74-0.11-1.15-0.23l0,0c-0.43-0.13-0.85-0.32-1.29-0.57c-0.43-0.26-0.87-0.62-1.29-1.08v-0.01V253
						c-0.15-0.17-0.33-0.39-0.52-0.66c-0.18-0.26-0.35-0.57-0.51-0.93c-0.15-0.36-0.29-0.77-0.4-1.23c-0.1-0.46-0.16-0.98-0.16-1.56
						c0-0.63,0.06-1.18,0.19-1.68c0.14-0.5,0.3-0.93,0.49-1.29c0.19-0.37,0.39-0.68,0.61-0.93c0.22-0.26,0.43-0.48,0.62-0.63l0,0
						c0.42-0.36,0.84-0.63,1.29-0.83c0.44-0.21,0.86-0.35,1.26-0.43c0.4-0.09,0.76-0.14,1.08-0.16c0.33-0.02,0.59-0.03,0.76-0.03
						c0.5,0,1.05,0.05,1.63,0.16c0.57,0.11,1.06,0.32,1.47,0.64l0,0c0.26,0.22,0.44,0.44,0.56,0.65l0,0
						C89.16,244.32,89.26,244.49,89.32,244.6z"/>
					<path d="M94.52,255.35v-0.1l-0.1-0.01c-0.13-0.02-0.27-0.07-0.39-0.13l-0.28-0.28l-0.08-0.2l-0.01-0.13
						c0-0.11,0.03-0.27,0.11-0.46l0,0c0.08-0.19,0.17-0.43,0.29-0.72l0,0l1.13-2.62h4.77l1.05,2.53l0,0
						c0.07,0.17,0.13,0.34,0.21,0.48c0.07,0.16,0.13,0.31,0.19,0.48c0.03,0.14,0.05,0.25,0.05,0.31l0,0v0.12l-0.08,0.2
						c-0.08,0.16-0.18,0.24-0.31,0.31c-0.16,0.06-0.32,0.11-0.48,0.13l-0.1,0.01l-0.03,0.33v0.13h4.4v-0.12v-0.2v-0.07l-0.07-0.04
						c-0.14-0.05-0.32-0.14-0.53-0.26c-0.18-0.09-0.38-0.29-0.58-0.62l-0.13-0.26l-0.15-0.33l0,0l-0.15-0.33l-0.12-0.27L98.2,241.7
						h-0.25h-0.08l-5.34,11.93l0,0c-0.13,0.3-0.25,0.54-0.36,0.75l0,0c-0.11,0.19-0.22,0.35-0.33,0.46l-0.36,0.29
						c-0.12,0.06-0.27,0.11-0.45,0.13l-0.1,0.01v0.34v0.12h3.6L94.52,255.35L94.52,255.35z M95.72,249.53l1.92-4.26l1.82,4.26H95.72
						z"/>
					<path d="M107.79,254.58c-0.08,0.17-0.19,0.32-0.32,0.41l-0.39,0.19l-0.26,0.07l-0.08,0.02l-0.03,0.32l-0.01,0.13h4.43v-0.36
						v-0.09l-0.09-0.02c-0.25-0.06-0.43-0.13-0.53-0.2l-0.31-0.23l-0.2-0.33l-0.08-0.37l0,0c-0.01-0.14-0.01-0.31-0.01-0.51
						c0-0.18,0-0.42,0-0.68v-9.87h2.89c0.43,0,0.76,0.06,1,0.16c0.2,0.11,0.36,0.35,0.43,0.82l0.02,0.1h0.31h0.13v-0.12v-2.03v-0.13
						h-11.51v2.32h0.35h0.1l0.02-0.1c0.02-0.07,0.04-0.19,0.07-0.36c0.02-0.14,0.11-0.28,0.26-0.4c0.12-0.11,0.28-0.18,0.46-0.22
						c0.19-0.05,0.47-0.07,0.84-0.08l0,0h2.66v10.71C107.91,254.12,107.86,254.39,107.79,254.58z"/>
					<path d="M120.23,255.35v-0.1l-0.28-0.04l-0.26-0.11l-0.28-0.18l-0.22-0.3c-0.06-0.14-0.08-0.31-0.09-0.52
						c-0.01-0.23-0.01-0.52-0.01-0.9v-4.25h7.34v4.23c0,0.31-0.01,0.6-0.02,0.84c0,0.23-0.02,0.41-0.04,0.5l-0.08,0.19l-0.08,0.12
						l-0.33,0.28c-0.15,0.06-0.3,0.11-0.45,0.13l-0.1,0.01l-0.02,0.33l-0.01,0.13h4.25v-0.36v-0.09l-0.09-0.02
						c-0.18-0.03-0.32-0.08-0.44-0.14l-0.35-0.27l-0.21-0.39c-0.03-0.13-0.05-0.27-0.06-0.45l0,0l-0.02-0.4v-0.41v-8.87
						c0-0.16,0-0.39,0.01-0.68l0,0c0-0.29,0.04-0.51,0.08-0.63l0,0l0.2-0.32l0.29-0.21l0.28-0.11l0.19-0.05l0.1-0.01v-0.1V242v-0.13
						h-4.21v0.34v0.11l0.27,0.04l0.29,0.09l0.29,0.18l0.2,0.31c0.04,0.12,0.07,0.28,0.07,0.5c0,0.23,0,0.52,0,0.85v3.52h-7.34v-3.54
						c0-0.34,0.01-0.62,0.03-0.86c0.02-0.23,0.07-0.39,0.11-0.51l0.21-0.28l0.26-0.15l0.25-0.08l0.19-0.05l0.09-0.02v-0.3v-0.13
						h-4.22v0.34v0.1l0.29,0.07l0.28,0.09l0.27,0.18l0.21,0.32c0.06,0.17,0.09,0.34,0.1,0.5l0,0v0.21c0,0.16,0,0.36-0.01,0.6l0,0
						v8.96c0,0.32,0,0.59,0,0.83c-0.01,0.25-0.03,0.41-0.06,0.51l0,0l-0.2,0.34l-0.3,0.21l-0.28,0.1l-0.2,0.04l-0.1,0.02v0.33v0.12
						h4.22L120.23,255.35L120.23,255.35z"/>
					<path d="M145.02,253.76L145.02,253.76c0.42-0.46,0.75-0.94,0.99-1.43l0,0c0.24-0.47,0.42-0.93,0.54-1.36l0,0
						c0.12-0.43,0.19-0.82,0.22-1.18c0.02-0.35,0.04-0.63,0.04-0.88c0-0.68-0.07-1.3-0.21-1.85c-0.13-0.57-0.3-1.06-0.5-1.49
						c-0.2-0.43-0.41-0.81-0.63-1.12c-0.23-0.31-0.43-0.56-0.61-0.77c-0.19-0.2-0.43-0.43-0.74-0.68c-0.31-0.27-0.68-0.51-1.12-0.75
						c-0.44-0.22-0.95-0.42-1.51-0.58c-0.58-0.16-1.22-0.23-1.92-0.23c-0.82,0-1.56,0.1-2.21,0.3c-0.66,0.21-1.22,0.45-1.7,0.73
						c-0.49,0.29-0.89,0.58-1.23,0.91c-0.33,0.32-0.6,0.6-0.79,0.84l0,0l0,0c-0.15,0.18-0.31,0.41-0.49,0.69
						c-0.18,0.29-0.36,0.62-0.52,1.01c-0.17,0.39-0.3,0.83-0.42,1.32l0,0c-0.11,0.51-0.16,1.06-0.16,1.66
						c0,0.77,0.09,1.44,0.26,2.04c0.17,0.6,0.38,1.13,0.64,1.6c0.26,0.45,0.52,0.86,0.82,1.16c0.29,0.32,0.54,0.57,0.76,0.77l0,0
						c0.71,0.58,1.47,1.01,2.3,1.27c0.82,0.25,1.68,0.38,2.58,0.38c1.13,0,2.16-0.17,3.09-0.53
						C143.42,255.23,144.26,254.63,145.02,253.76z M144.4,251.46L144.4,251.46c-0.19,0.53-0.45,1.01-0.75,1.43
						c-0.31,0.44-0.67,0.8-1.09,1.11c-0.41,0.31-0.87,0.54-1.37,0.7c-0.51,0.17-1.04,0.25-1.61,0.25c-0.67,0-1.26-0.1-1.77-0.3
						c-0.51-0.2-0.95-0.42-1.31-0.7v-0.01c-0.36-0.27-0.66-0.54-0.89-0.84h-0.01c-0.23-0.29-0.42-0.56-0.54-0.75l0,0
						c-0.24-0.38-0.43-0.75-0.57-1.12l0,0c-0.14-0.37-0.24-0.71-0.3-1.03l0,0c-0.06-0.32-0.1-0.61-0.13-0.87
						c-0.02-0.27-0.02-0.48-0.02-0.66c0-0.68,0.06-1.27,0.19-1.79s0.3-0.99,0.5-1.38v-0.01c0.2-0.39,0.42-0.72,0.67-1
						c0.24-0.28,0.48-0.51,0.69-0.68l0,0c0.32-0.25,0.64-0.45,0.97-0.61c0.34-0.15,0.66-0.26,0.95-0.33
						c0.29-0.08,0.56-0.12,0.79-0.14c0.24-0.02,0.44-0.04,0.57-0.04c0.55,0,1.03,0.07,1.45,0.19c0.43,0.13,0.8,0.28,1.11,0.46
						c0.33,0.18,0.6,0.36,0.81,0.56v0.01c0.22,0.2,0.4,0.38,0.53,0.55c0.17,0.21,0.35,0.48,0.55,0.8c0.19,0.31,0.37,0.68,0.53,1.13
						l0,0c0.15,0.44,0.27,0.93,0.35,1.47c0.05,0.34,0.06,0.68,0.06,1.06c0,0.25-0.01,0.51-0.03,0.77c-0.01,0.15-0.03,0.39-0.08,0.7
						C144.62,250.71,144.53,251.07,144.4,251.46z"/>
					<path d="M149.84,242.47l0.31,0.23c0.09,0.08,0.17,0.2,0.23,0.35c0.04,0.12,0.07,0.32,0.09,0.58l0,0
						c0.01,0.26,0.02,0.57,0.02,0.91v8.06c0,0.35,0,0.68-0.01,1.01c0,0.31-0.01,0.52-0.02,0.61l0,0c-0.03,0.23-0.1,0.39-0.18,0.5
						l-0.29,0.3l-0.34,0.17l-0.29,0.07l-0.09,0.02v0.33v0.12h10v-2.38h-0.35h-0.09l-0.02,0.1c-0.07,0.2-0.13,0.37-0.18,0.49
						l-0.19,0.27l-0.33,0.21l-0.4,0.1l0,0c-0.15,0.01-0.29,0.03-0.43,0.03c-0.14,0.01-0.28,0.02-0.41,0.02h-2.66l0,0
						c-0.34-0.02-0.59-0.03-0.76-0.04c-0.16-0.01-0.3-0.04-0.46-0.12l0,0c-0.23-0.13-0.35-0.3-0.41-0.54l0,0
						c-0.04-0.26-0.09-0.64-0.09-1.13l0,0v-8.23l0,0c0-0.34,0.02-0.63,0.03-0.9l0,0c0.02-0.26,0.03-0.46,0.05-0.57
						c0.05-0.15,0.12-0.27,0.2-0.35l0.29-0.23l0.29-0.11l0.21-0.05l0.1-0.01v-0.1v-0.21v-0.13h-4.43v0.34v0.1l0.29,0.07
						L149.84,242.47z"/>
					<path d="M164.91,255.07L164.91,255.07l-0.39-0.29l-0.18-0.38l-0.02-0.3v-0.01v-0.01c-0.02-0.15-0.03-0.29-0.03-0.44
						s0-0.32,0-0.49v-8.84c0-0.32,0-0.59,0-0.81l0,0c0.01-0.23,0.03-0.38,0.06-0.5l0,0c0.05-0.16,0.12-0.27,0.19-0.35l0.27-0.2
						l0.28-0.09l0.2-0.05l0.1-0.01v-0.1V242v-0.13h-4.28v0.34v0.1l0.32,0.07l0.3,0.09l0.3,0.22c0.09,0.08,0.17,0.2,0.23,0.37
						c0.05,0.14,0.08,0.3,0.09,0.48l0,0c0,0.18,0,0.45,0,0.79v8.82c-0.01,0.45-0.02,0.78-0.02,1.04c0,0.22-0.07,0.42-0.18,0.57l0,0
						c-0.12,0.17-0.25,0.28-0.39,0.34c-0.16,0.07-0.34,0.12-0.52,0.16l-0.1,0.02v0.33v0.12h4.33v-0.36v-0.08l-0.08-0.03
						C165.23,255.19,165.07,255.14,164.91,255.07z"/>
					<path d="M169.13,252.94L169.13,252.94c0.38,0.58,0.85,1.09,1.39,1.53c0.56,0.45,1.18,0.81,1.87,1.08l0,0
						c0.36,0.16,0.71,0.26,1.05,0.33c0.35,0.08,0.66,0.13,0.95,0.17c0.3,0.03,0.56,0.06,0.79,0.06c0.22,0.01,0.4,0.01,0.53,0.01
						c0.55,0,1.17-0.04,1.84-0.13c0.68-0.07,1.29-0.19,1.82-0.34l0,0l0,0c0.22-0.07,0.44-0.13,0.65-0.19l0,0
						c0.21-0.06,0.43-0.13,0.65-0.22l0.08-0.02l-0.08-2.38h-0.35h-0.08l-0.04,0.07c-0.04,0.1-0.09,0.23-0.15,0.38
						c-0.06,0.14-0.17,0.31-0.35,0.51l-0.31,0.29l0,0c-0.12,0.1-0.29,0.21-0.51,0.31l0,0c-0.26,0.12-0.54,0.22-0.82,0.29
						c-0.3,0.07-0.58,0.12-0.84,0.16c-0.26,0.04-0.49,0.06-0.68,0.07c-0.21,0-0.34,0.01-0.42,0.01c-0.22,0-0.5-0.01-0.86-0.04
						c-0.35-0.02-0.73-0.11-1.15-0.23l0,0c-0.42-0.13-0.84-0.32-1.29-0.57c-0.43-0.26-0.87-0.62-1.29-1.08v-0.01V253
						c-0.16-0.17-0.34-0.39-0.53-0.66c-0.17-0.26-0.35-0.57-0.5-0.93c-0.16-0.36-0.29-0.77-0.4-1.23c-0.1-0.46-0.16-0.98-0.16-1.56
						c0-0.63,0.06-1.18,0.2-1.68c0.13-0.5,0.29-0.93,0.48-1.29c0.18-0.37,0.39-0.68,0.61-0.93c0.22-0.26,0.43-0.48,0.61-0.63l0,0
						c0.42-0.36,0.85-0.63,1.29-0.83c0.45-0.21,0.87-0.35,1.26-0.43c0.41-0.09,0.76-0.14,1.09-0.16c0.32-0.02,0.57-0.03,0.75-0.03
						c0.51,0,1.05,0.05,1.63,0.16c0.57,0.11,1.06,0.32,1.47,0.64l0,0c0.26,0.22,0.45,0.44,0.57,0.65l0,0
						c0.13,0.23,0.22,0.4,0.29,0.52l0.03,0.05h0.3h0.12v-0.11l0.08-2.36l-0.09-0.03c-0.53-0.16-1-0.28-1.42-0.36
						c-0.42-0.1-0.8-0.16-1.14-0.21c-0.34-0.05-0.65-0.09-0.94-0.1c-0.28-0.01-0.57-0.02-0.84-0.02c-0.25,0-0.62,0.02-1.06,0.04
						c-0.46,0.02-0.98,0.1-1.54,0.24c-0.55,0.14-1.15,0.36-1.76,0.65c-0.63,0.31-1.22,0.73-1.78,1.26c-0.51,0.48-0.91,0.98-1.21,1.5
						c-0.3,0.5-0.52,1-0.66,1.48c-0.15,0.47-0.25,0.91-0.29,1.32c-0.04,0.41-0.06,0.73-0.06,0.98c0,0.74,0.09,1.46,0.29,2.14
						C168.46,251.73,168.74,252.36,169.13,252.94z"/>
					<path d="M199.51,255.04L199.51,255.04L199.51,255.04L199.51,255.04z"/>
					<path d="M206.34,242.19v0.1l0.22,0.04l0.23,0.06l0.27,0.12l0.22,0.18c0.14,0.17,0.22,0.4,0.23,0.7c0,0.32,0,0.57,0,0.79v6.17
						c0,0.33,0,0.62-0.02,0.86c-0.03,0.25-0.05,0.48-0.08,0.68c-0.02,0.2-0.07,0.36-0.12,0.51c-0.05,0.16-0.1,0.32-0.17,0.49l0,0
						c-0.08,0.2-0.18,0.36-0.28,0.52l0,0c-0.09,0.14-0.16,0.24-0.2,0.29c-0.11,0.12-0.25,0.25-0.42,0.39l0,0
						c-0.18,0.14-0.39,0.26-0.64,0.37c-0.25,0.12-0.54,0.22-0.87,0.29l0,0c-0.33,0.08-0.7,0.13-1.11,0.13
						c-0.62,0-1.21-0.12-1.79-0.34v0.01c-0.58-0.23-1.06-0.59-1.45-1.09c-0.19-0.25-0.34-0.5-0.45-0.75
						c-0.1-0.26-0.18-0.52-0.23-0.8c-0.05-0.27-0.08-0.54-0.1-0.82c-0.01-0.28-0.02-0.58-0.02-0.88v-6.09l0,0
						c0.02-0.27,0.02-0.51,0.03-0.72c0-0.19,0.04-0.36,0.1-0.5l0,0l0.28-0.35c0.14-0.09,0.36-0.18,0.66-0.26l0.08-0.01l0.03-0.3
						v-0.14h-4.27v0.34v0.09l0.09,0.02c0.36,0.1,0.61,0.21,0.7,0.3h0.01h0.01c0.17,0.14,0.25,0.28,0.28,0.5
						c0.02,0.24,0.04,0.57,0.04,0.99v6.21v0.38c0,0.47,0.02,0.85,0.06,1.17c0.05,0.38,0.13,0.73,0.24,1.04l0,0
						c0.13,0.38,0.33,0.75,0.58,1.12c0.26,0.38,0.61,0.72,1.03,1.02l0,0c0.43,0.31,0.96,0.55,1.58,0.75
						c0.63,0.19,1.36,0.28,2.22,0.28c0.88,0,1.62-0.11,2.24-0.32h0.01c0.61-0.2,1.12-0.48,1.53-0.81c0.41-0.34,0.73-0.7,0.95-1.11
						c0.22-0.4,0.39-0.8,0.5-1.18l0,0c0.07-0.25,0.12-0.51,0.15-0.77l0,0c0.03-0.25,0.05-0.5,0.06-0.72l0,0
						c0-0.21,0.01-0.41,0.01-0.57c0-0.16,0-0.28,0-0.35v-6.21c0-0.34,0-0.62,0.02-0.8v-0.01c0.01-0.16,0.06-0.31,0.16-0.44l0,0
						c0.11-0.17,0.23-0.27,0.37-0.32l0,0c0.16-0.07,0.34-0.12,0.53-0.18l0.08-0.02v-0.09v-0.21v-0.13h-3.56v0.38H206.34z"/>
					<path d="M222.84,242.19v0.1l0.1,0.01c0.47,0.1,0.75,0.26,0.86,0.42c0.13,0.18,0.2,0.39,0.23,0.61v0.01l0,0l0.03,0.32v0.09
						c0,0.14-0.01,0.24-0.01,0.28v7.97l-8.99-10.16h-2.96v0.34v0.11l0.11,0.01c0.19,0.02,0.36,0.06,0.52,0.12
						c0.14,0.06,0.26,0.15,0.35,0.33l0,0l0,0c0.07,0.12,0.12,0.27,0.12,0.44l0,0c0,0.18,0.01,0.44,0.01,0.76v9.66
						c0,0.18-0.01,0.4-0.03,0.66c-0.02,0.25-0.09,0.43-0.19,0.56l0,0h-0.01c-0.13,0.18-0.27,0.28-0.43,0.32
						c-0.19,0.05-0.32,0.08-0.38,0.09l-0.09,0.02l-0.03,0.32l-0.01,0.13h3.61v-0.36v-0.09l-0.09-0.02
						c-0.29-0.06-0.51-0.16-0.68-0.28l0,0c-0.16-0.11-0.27-0.31-0.33-0.62l-0.02-0.29l0,0c-0.01-0.11-0.01-0.24-0.01-0.44v-9.42
						l10.4,11.74h0.23h0.12V244l0,0c0-0.27,0.02-0.55,0.03-0.81l0,0c0.02-0.23,0.12-0.42,0.34-0.61l0.26-0.15
						c0.1-0.05,0.25-0.09,0.42-0.13l0.09-0.01v-0.09l0.02-0.2l0.02-0.14h-3.62L222.84,242.19L222.84,242.19z"/>
					<path d="M232.52,255.07L232.52,255.07l-0.38-0.29l-0.18-0.38l-0.03-0.3v-0.01v-0.01c-0.02-0.15-0.04-0.29-0.04-0.44
						s0-0.32,0-0.49v-8.84c0-0.32,0-0.59,0.01-0.81l0,0c0.01-0.23,0.03-0.38,0.06-0.5l0,0c0.05-0.16,0.11-0.27,0.19-0.35l0.27-0.2
						l0.27-0.09l0.21-0.05l0.09-0.01v-0.1V242v-0.13h-4.28v0.34v0.1l0.32,0.07l0.31,0.09l0.31,0.22c0.09,0.08,0.17,0.2,0.23,0.37
						c0.04,0.14,0.07,0.3,0.07,0.48l0,0c0.02,0.18,0.02,0.45,0.02,0.79v8.82c-0.02,0.45-0.02,0.78-0.03,1.04
						c-0.01,0.22-0.06,0.42-0.18,0.57l0,0c-0.11,0.17-0.25,0.28-0.39,0.34c-0.16,0.07-0.33,0.12-0.51,0.16l-0.1,0.02v0.33v0.12h4.34
						v-0.36v-0.08l-0.09-0.03C232.85,255.19,232.68,255.14,232.52,255.07z"/>
					<path d="M244.45,242.19v0.09l0.48,0.14l0.31,0.25l0.07,0.17v0.13l-0.04,0.39l-0.11,0.36l-0.12,0.3l-0.07,0.14l-3.57,8.19
						l-3.39-8.19l0,0l-0.16-0.37l-0.12-0.38c-0.04-0.18-0.07-0.33-0.07-0.45c0-0.17,0.06-0.3,0.17-0.4c0.1-0.1,0.33-0.19,0.68-0.26
						l0.11-0.01v-0.31v-0.13h-4.36v0.34v0.1l0.09,0.01c0.16,0.04,0.29,0.09,0.38,0.11l0.33,0.23c0.17,0.15,0.28,0.31,0.36,0.47
						c0.08,0.19,0.14,0.31,0.16,0.38l0,0c0.1,0.2,0.18,0.38,0.27,0.57c0.08,0.2,0.16,0.4,0.24,0.59v0.01l4.75,11.22h0.27h0.08
						l5.02-11.38l0,0c0.1-0.23,0.22-0.5,0.35-0.8s0.26-0.57,0.39-0.77l0,0c0.14-0.2,0.28-0.34,0.4-0.42
						c0.13-0.09,0.32-0.15,0.57-0.21l0.1-0.01v-0.1v-0.21v-0.13h-3.56v0.34H244.45z"/>
					<path d="M258.54,253.32l-0.03,0.09c-0.05,0.16-0.1,0.31-0.16,0.46l0,0l-0.23,0.37h-0.01c-0.12,0.12-0.26,0.19-0.41,0.21l0,0
						c-0.18,0.03-0.3,0.04-0.35,0.03h-0.01l-0.41,0.04h-0.39h-1.81c-0.48-0.02-0.89-0.03-1.25-0.04c-0.35-0.02-0.58-0.09-0.7-0.18
						l-0.13-0.14l-0.07-0.11c-0.1-0.2-0.15-0.43-0.15-0.66c0-0.27-0.02-0.51-0.03-0.72l0,0v-3.77h2.86c0.29,0,0.57,0.02,0.86,0.07
						c0.25,0.04,0.44,0.18,0.6,0.45l0.09,0.19l0,0c0.03,0.07,0.06,0.18,0.1,0.33l0.01,0.09h0.33h0.13v-0.12v-3.38h-0.36h-0.1
						l-0.07,0.29l-0.1,0.29l-0.21,0.3l-0.33,0.21l0,0l0,0c-0.15,0.06-0.31,0.09-0.49,0.09c-0.18,0-0.46,0-0.81,0h-2.52v-4.7h3.55
						c0.25,0,0.48,0.02,0.69,0.07c0.18,0.04,0.33,0.17,0.46,0.41l0.12,0.27l0.09,0.29l0.02,0.09l0.31,0.02l0.12,0.01l0.05-2.33
						h-8.54v0.34v0.11l0.31,0.04l0.29,0.08l0.3,0.19c0.08,0.09,0.15,0.19,0.19,0.33l0.01,0.01v0.01c0.05,0.14,0.08,0.29,0.08,0.46
						c0,0.18,0,0.44,0,0.77v8.9l0,0l-0.02,0.38l0.01,0.18v0.19l-0.01,0.37c-0.01,0.2-0.06,0.36-0.14,0.52
						c-0.07,0.14-0.19,0.25-0.36,0.34l-0.25,0.12l-0.28,0.07l-0.09,0.02l-0.03,0.32l-0.01,0.13h9.68v-2.39h-0.35h-0.05V253.32z"/>
					<path d="M272.6,254.96l-0.3-0.35l-0.17-0.27l0,0l0,0c-0.22-0.32-0.42-0.66-0.61-1.03l0,0l-2.65-4.85
						c0.07-0.05,0.14-0.08,0.25-0.12l0,0c0.17-0.09,0.35-0.21,0.55-0.36l0,0c0.21-0.14,0.4-0.32,0.6-0.53h0.01
						c0.21-0.21,0.38-0.45,0.53-0.74l0,0c0.23-0.44,0.34-0.94,0.34-1.48c0-0.51-0.08-0.95-0.25-1.31c-0.16-0.33-0.29-0.59-0.39-0.76
						l0,0h-0.01c-0.25-0.33-0.55-0.59-0.88-0.78l0,0c-0.33-0.16-0.66-0.31-1.03-0.39c-0.36-0.09-0.74-0.14-1.11-0.15
						c-0.38-0.02-0.73-0.02-1.1-0.02h-4.95v0.34v0.1l0.26,0.04l0.28,0.08l0.29,0.17l0.22,0.28c0.05,0.13,0.09,0.28,0.1,0.48
						c0.01,0.19,0.02,0.44,0.02,0.76v9.28l0,0c-0.01,0.3-0.02,0.56-0.03,0.78l0,0c0,0.21-0.03,0.36-0.08,0.46l-0.2,0.32l-0.28,0.18
						l-0.27,0.11l-0.18,0.02l-0.1,0.01v0.34v0.12h4.38v-0.36v-0.09l-0.09-0.02c-0.27-0.07-0.48-0.14-0.59-0.2l-0.32-0.23l-0.2-0.37
						c-0.03-0.11-0.04-0.26-0.06-0.43l0,0l-0.02-0.35l-0.02-0.37v-4.19c0.13,0,0.27,0,0.39,0.02c0.16,0.01,0.33,0.01,0.51,0.01
						c0.27,0,0.53-0.01,0.81-0.04c0.24-0.01,0.48-0.04,0.71-0.06l2.5,4.57l0,0c0.15,0.27,0.3,0.54,0.48,0.83
						c0.17,0.3,0.4,0.55,0.65,0.75l0,0l0,0l0,0l0,0c0.15,0.14,0.33,0.24,0.5,0.31l0,0c0.17,0.08,0.33,0.12,0.49,0.15h-0.01
						c0.15,0.04,0.3,0.06,0.42,0.06h0.29h0.77h0.12v-0.36v-0.08l-0.29-0.12L272.6,254.96z M269.04,246.25
						c-0.06,0.22-0.12,0.38-0.18,0.46l0,0v0.01c-0.15,0.27-0.32,0.49-0.53,0.63c-0.22,0.16-0.46,0.3-0.72,0.38l0,0
						c-0.27,0.08-0.55,0.14-0.84,0.18s-0.59,0.04-0.86,0.04h-1.33l0.04-4.88h1.37H266l0,0h0.28c0.27,0,0.56,0.01,0.84,0.04
						c0.36,0.04,0.69,0.16,1.02,0.37l0,0c0.35,0.22,0.6,0.5,0.76,0.87c0.16,0.36,0.25,0.75,0.25,1.13
						C269.13,245.78,269.1,246.04,269.04,246.25z"/>
					<path d="M282.48,249.07L282.48,249.07L282.48,249.07L282.48,249.07c-0.23-0.23-0.5-0.43-0.79-0.64
						c-0.3-0.18-0.58-0.37-0.83-0.54l0,0l-1.13-0.63l0,0c-0.33-0.21-0.67-0.43-1.02-0.68c-0.34-0.24-0.58-0.55-0.74-0.92
						c-0.06-0.17-0.1-0.33-0.1-0.46l0,0c-0.01-0.14-0.02-0.25-0.02-0.31c0-0.36,0.06-0.67,0.19-0.94c0.14-0.29,0.29-0.52,0.51-0.69
						l0,0c0.21-0.18,0.46-0.33,0.76-0.42c0.29-0.1,0.6-0.15,0.95-0.15c0.46,0,0.85,0.07,1.15,0.2l0,0c0.31,0.15,0.55,0.31,0.74,0.51
						l0,0c0.19,0.19,0.34,0.39,0.44,0.61c0.1,0.22,0.21,0.43,0.28,0.59l0.03,0.05h0.29h0.11v-0.11v-2.34l-0.07-0.03
						c-0.15-0.06-0.32-0.11-0.52-0.18l0,0c-0.2-0.09-0.43-0.16-0.68-0.22l0,0c-0.25-0.07-0.54-0.13-0.86-0.18
						c-0.32-0.05-0.67-0.08-1.07-0.08c-0.13,0-0.32,0.01-0.55,0.02c-0.23,0.02-0.51,0.06-0.79,0.13l0,0
						c-0.29,0.08-0.6,0.19-0.9,0.37c-0.32,0.17-0.62,0.39-0.89,0.68l0,0l0,0l0,0l0,0c-0.19,0.2-0.4,0.48-0.59,0.87
						c-0.23,0.41-0.33,0.93-0.33,1.58c0,0.21,0.02,0.44,0.06,0.7c0.04,0.26,0.12,0.52,0.24,0.78c0.12,0.27,0.3,0.54,0.54,0.83
						c0.24,0.3,0.55,0.57,0.95,0.84v0.01l0.38,0.23l0,0l0.38,0.23l1.23,0.73l0,0c0.39,0.23,0.74,0.48,1.06,0.73
						c0.31,0.24,0.56,0.57,0.73,0.99l0,0l0,0c0.03,0.07,0.08,0.21,0.13,0.39c0.05,0.17,0.08,0.37,0.08,0.62
						c0,0.38-0.05,0.66-0.14,0.87v0.02v-0.02c-0.1,0.24-0.18,0.42-0.24,0.54c-0.28,0.45-0.65,0.77-1.1,0.97
						c-0.45,0.21-0.93,0.32-1.46,0.32c-0.33,0-0.62-0.05-0.87-0.11c-0.25-0.07-0.48-0.16-0.67-0.27c-0.19-0.1-0.35-0.21-0.47-0.34
						l-0.31-0.34l-0.19-0.36l0,0c-0.07-0.13-0.16-0.31-0.25-0.56l-0.03-0.07l-0.29-0.02l-0.13-0.02v2.45l0.07,0.04
						c0.32,0.13,0.71,0.29,1.21,0.47l0,0c0.51,0.17,1.17,0.26,1.97,0.26c0.15,0,0.35-0.01,0.61-0.02c0.26-0.02,0.56-0.05,0.88-0.12
						l0,0c0.32-0.08,0.66-0.2,1-0.37c0.36-0.16,0.7-0.41,1.03-0.73c0.28-0.27,0.51-0.56,0.68-0.84c0.17-0.29,0.29-0.56,0.38-0.84
						c0.08-0.26,0.13-0.52,0.16-0.75l0,0c0.02-0.22,0.03-0.4,0.03-0.55C283.69,250.76,283.29,249.82,282.48,249.07L282.48,249.07z"
						/>
					<path d="M290.55,255.07L290.55,255.07l-0.39-0.29l-0.18-0.38l-0.03-0.3v-0.01v-0.01c-0.02-0.15-0.03-0.29-0.03-0.44
						s0-0.32,0-0.49v-8.84c0-0.32,0.01-0.59,0.01-0.81l0,0c0-0.23,0.02-0.38,0.06-0.5l0,0c0.04-0.16,0.11-0.27,0.19-0.35l0.27-0.2
						l0.28-0.09l0.2-0.05l0.1-0.01v-0.1V242v-0.13h-4.28v0.34v0.1l0.32,0.07l0.31,0.09l0.31,0.22c0.09,0.08,0.17,0.2,0.23,0.37
						c0.05,0.14,0.07,0.3,0.08,0.48l0,0c0,0.18,0.01,0.45,0.01,0.79v8.82c-0.02,0.45-0.02,0.78-0.02,1.04
						c-0.01,0.22-0.07,0.42-0.19,0.57l0,0c-0.12,0.17-0.25,0.28-0.39,0.34c-0.17,0.07-0.34,0.12-0.53,0.16l-0.09,0.02v0.33v0.12
						h4.34v-0.36v-0.08l-0.08-0.03C290.87,255.19,290.71,255.14,290.55,255.07z"/>
					<path d="M292.41,244.19h0.35h0.11l0.02-0.1c0.01-0.07,0.03-0.19,0.07-0.36c0.02-0.14,0.1-0.28,0.25-0.4
						c0.13-0.11,0.27-0.18,0.46-0.22c0.18-0.05,0.46-0.07,0.83-0.08l0,0h2.67v10.71c0,0.37-0.05,0.65-0.13,0.83
						c-0.08,0.17-0.19,0.32-0.32,0.41l-0.38,0.19l-0.25,0.07l-0.08,0.02l-0.03,0.32l-0.01,0.13h4.43v-0.36v-0.09l-0.09-0.02
						c-0.24-0.06-0.43-0.13-0.53-0.2l-0.31-0.23l-0.21-0.33l-0.08-0.37l0,0c-0.02-0.14-0.02-0.31-0.02-0.51c0-0.18,0-0.42,0-0.68
						v-9.87h2.9c0.43,0,0.76,0.06,0.99,0.16c0.21,0.11,0.36,0.35,0.43,0.82l0.02,0.1h0.31h0.12v-0.12v-2.03v-0.13h-11.5v2.34H292.41
						z"/>
					<path d="M313.87,241.86v0.34v0.11l0.1,0.01c0.16,0.02,0.31,0.05,0.44,0.09l0,0c0.08,0.02,0.17,0.09,0.25,0.24l0.09,0.22
						l0.01,0.13l0,0c0,0.16-0.04,0.34-0.15,0.52c-0.11,0.2-0.21,0.38-0.29,0.52l0,0l-2.65,4.31l-2.76-4.31v-0.01
						c-0.1-0.13-0.2-0.3-0.31-0.51c-0.11-0.2-0.16-0.38-0.16-0.56c0-0.14,0.03-0.25,0.09-0.32l0.23-0.2l0.25-0.09l0.16-0.03
						l0.11-0.01V242v-0.13h-4.36v0.34v0.09l0.09,0.02c0.15,0.04,0.26,0.09,0.36,0.12l0.25,0.16l0.21,0.23l0.23,0.31l0.18,0.26l0,0
						l0.18,0.25l3.86,5.97v4.01c0,0.37-0.01,0.65-0.03,0.82v0.01v-0.01c-0.02,0.16-0.1,0.31-0.23,0.47l-0.35,0.24
						c-0.14,0.04-0.31,0.08-0.49,0.1l-0.1,0.01l-0.03,0.33l-0.01,0.13h4.33v-0.36v-0.09l-0.1-0.02c-0.06-0.01-0.18-0.03-0.33-0.06
						l0,0l-0.39-0.21l0,0c-0.19-0.16-0.29-0.35-0.32-0.61c-0.03-0.27-0.05-0.52-0.05-0.76v-3.9l3.86-6.22l0,0
						c0.12-0.18,0.24-0.38,0.37-0.58l0,0c0.12-0.17,0.26-0.32,0.43-0.41l0.32-0.15l0.22-0.05l0.09-0.01v-0.1v-0.21v-0.13
						L313.87,241.86L313.87,241.86z"/>
					<path d="M1.04,241.7v0.11l0.31,0.02l0.3,0.11l0.31,0.19c0.08,0.08,0.15,0.18,0.19,0.35h0.01v0.02
						c0.04,0.09,0.07,0.23,0.07,0.39c0,0.19,0,0.42,0,0.71v9.47c0,0.36,0,0.67,0,0.92s-0.04,0.43-0.09,0.56H2.13v0.02
						c-0.08,0.25-0.19,0.4-0.36,0.48c-0.19,0.1-0.41,0.17-0.64,0.24l-0.09,0.02v0.34v0.11H5.6v-0.35v-0.1l-0.09-0.02
						c-0.24-0.06-0.46-0.14-0.66-0.24c-0.18-0.07-0.32-0.23-0.42-0.47l-0.11-0.29l-0.03-0.32c0-0.13,0-0.27,0-0.43
						c0-0.16,0-0.36,0-0.57v-4.31h2.95l0,0c0.31,0.01,0.62,0.03,0.93,0.06c0.28,0.03,0.49,0.15,0.64,0.37l0.14,0.25
						c0.04,0.11,0.07,0.25,0.11,0.43l0.02,0.1h0.35h0.11v-0.13v-3.54H9.19h-0.1l-0.04,0.29l-0.08,0.29l-0.18,0.31l-0.29,0.22
						c-0.13,0.07-0.28,0.09-0.48,0.1c-0.19,0.01-0.44,0.01-0.76,0.01H4.3v-4.91h3.54l0,0c0.28,0,0.55,0.03,0.83,0.08l0,0
						c0.25,0.05,0.44,0.18,0.6,0.43l0.15,0.3l0.1,0.32l0.02,0.08h0.33h0.11l0.03-2.34H1.04V241.7z"/>
					<path d="M21.84,241.7v0.11l0.22,0.04l0.24,0.07l0.27,0.11l0.23,0.18c0.15,0.19,0.23,0.43,0.24,0.73
						c0.01,0.34,0.01,0.62,0.01,0.84v6.43c0,0.34-0.01,0.64-0.03,0.9v0.01c-0.02,0.25-0.04,0.48-0.08,0.7l0,0
						c-0.04,0.19-0.08,0.37-0.13,0.54c-0.05,0.16-0.1,0.33-0.17,0.5l0,0c-0.09,0.21-0.19,0.39-0.29,0.54l0,0
						c-0.09,0.14-0.17,0.25-0.22,0.32c-0.11,0.12-0.26,0.26-0.44,0.41l0,0c-0.17,0.14-0.4,0.27-0.66,0.38l0,0
						c-0.26,0.13-0.56,0.23-0.9,0.31c-0.34,0.08-0.73,0.13-1.16,0.13c-0.65,0-1.26-0.11-1.87-0.36c-0.6-0.22-1.1-0.6-1.51-1.12
						c-0.2-0.27-0.36-0.53-0.47-0.79l0,0c-0.1-0.27-0.2-0.55-0.24-0.82v-0.01c-0.05-0.29-0.08-0.57-0.1-0.86l0,0
						c-0.01-0.3-0.02-0.6-0.02-0.92v-6.33l0,0c0.01-0.28,0.02-0.53,0.03-0.75l0,0c0.01-0.2,0.04-0.38,0.1-0.52s0.16-0.26,0.3-0.36
						c0.14-0.1,0.37-0.2,0.68-0.27l0.09-0.02l0.02-0.31l0.02-0.13h-4.44v0.33v0.09l0.09,0.04c0.38,0.09,0.63,0.21,0.74,0.3l0,0
						l0.01,0.01c0.17,0.13,0.27,0.29,0.28,0.52c0.03,0.25,0.05,0.59,0.05,1.04v6.45v0.4c0,0.48,0.02,0.88,0.06,1.2
						c0.06,0.38,0.14,0.75,0.25,1.09l0,0c0.14,0.39,0.34,0.78,0.61,1.16c0.26,0.4,0.63,0.75,1.08,1.06c0.45,0.33,1,0.58,1.64,0.78
						c0.66,0.19,1.43,0.3,2.32,0.3c0.91,0,1.69-0.11,2.34-0.32l0,0c0.64-0.22,1.17-0.5,1.59-0.85l0,0c0.42-0.34,0.75-0.72,0.99-1.15
						l0,0c0.23-0.4,0.4-0.82,0.51-1.22v-0.01c0.07-0.26,0.12-0.52,0.15-0.78c0.04-0.27,0.05-0.52,0.06-0.75l0,0
						c0.01-0.23,0.02-0.43,0.02-0.6c0-0.17,0-0.3,0-0.37v-6.45c0-0.36,0-0.64,0.01-0.83l0,0c0.02-0.18,0.08-0.34,0.17-0.47l0,0l0,0
						c0.11-0.18,0.23-0.28,0.39-0.34c0.16-0.07,0.35-0.13,0.55-0.17l0.09-0.02v-0.11v-0.22v-0.11h-3.7v0.32H21.84z"/>
					<path d="M43.51,253.28l-0.02,0.08c-0.06,0.17-0.12,0.33-0.17,0.49l0,0l-0.25,0.38c-0.13,0.13-0.27,0.2-0.43,0.22
						c-0.19,0.03-0.31,0.04-0.36,0.04h-0.01h-0.02l-0.4,0.03h-0.4h-1.89c-0.49-0.01-0.93-0.03-1.3-0.05
						c-0.35-0.01-0.6-0.09-0.73-0.19l-0.14-0.14l-0.08-0.12c-0.1-0.21-0.15-0.43-0.16-0.68c-0.01-0.27-0.02-0.52-0.04-0.75l0,0
						v-3.93h2.98c0.31,0,0.6,0.01,0.9,0.07l0,0c0.26,0.04,0.46,0.19,0.62,0.47l0.08,0.21c0.02,0.07,0.06,0.18,0.11,0.35l0.02,0.09
						h0.33h0.12v-0.13v-3.51h-0.35h-0.1l-0.07,0.31l-0.1,0.29l-0.22,0.31l-0.34,0.22l0,0v0.01c-0.15,0.06-0.32,0.09-0.51,0.09
						c-0.2,0-0.48,0-0.84,0H37.1v-4.9h3.7c0.26,0,0.5,0.02,0.72,0.08c0.19,0.05,0.34,0.18,0.48,0.42l0.12,0.29l0.08,0.31l0.03,0.08
						l0.32,0.03l0.12,0.01l0.05-2.41h-8.87v0.33v0.11l0.32,0.02l0.3,0.11l0.31,0.19c0.09,0.08,0.16,0.18,0.2,0.35l0,0v0.01
						c0.06,0.15,0.09,0.31,0.09,0.47c0,0.18,0,0.45,0,0.81V253l0,0l-0.02,0.38v0.2l0,0v0.19l-0.02,0.39l0,0
						c0,0.2-0.05,0.38-0.13,0.53c-0.07,0.16-0.19,0.28-0.38,0.37l-0.26,0.12l-0.3,0.07l-0.08,0.02l0.03,0.37l-0.01,0.12h10.07v-2.47
						h-0.38H43.51z"/>
					<path d="M57.78,241.7v0.11l0.09,0.02c0.48,0.09,0.78,0.25,0.89,0.43l0,0c0.13,0.2,0.21,0.41,0.25,0.64v0.01l0,0l0.03,0.32v0.11
						l0,0c-0.01,0.15-0.01,0.24-0.01,0.3v8.3l-9.36-10.57h-3.08v0.33v0.11l0.11,0.02c0.18,0.02,0.37,0.06,0.55,0.12l0,0
						c0.15,0.05,0.26,0.15,0.36,0.34l0,0v0.01c0.08,0.12,0.13,0.27,0.13,0.45l0,0l0,0c0.01,0.18,0.01,0.45,0.01,0.78v10.07
						c0,0.19-0.01,0.41-0.03,0.68l0,0c-0.02,0.25-0.08,0.45-0.21,0.59l0,0l0,0c-0.14,0.18-0.28,0.3-0.45,0.33h-0.01
						c-0.19,0.05-0.33,0.08-0.39,0.09l-0.08,0.02l-0.03,0.34l-0.01,0.12h3.75v-0.35v-0.1l-0.1-0.02c-0.3-0.06-0.53-0.16-0.71-0.29
						v-0.01l0,0c-0.17-0.11-0.28-0.31-0.34-0.62l-0.04-0.31l0,0c0-0.12,0-0.26,0-0.46v-9.83l10.83,12.21h0.23h0.13v-12.39l0,0
						c0.01-0.3,0.02-0.58,0.03-0.84c0.01-0.24,0.12-0.44,0.36-0.63l0.27-0.16c0.1-0.05,0.25-0.1,0.44-0.13l0.09-0.02v-0.09
						l0.03-0.22l0.01-0.13h-3.75v0.33H57.78z"/>
					<path d="M27.48,241.7v0.11l0.11,0.02c0.21,0.03,0.42,0.09,0.62,0.19c0.17,0.07,0.3,0.21,0.38,0.45
						c0.08,0.24,0.12,0.69,0.12,1.35v11.85c0,0.56-0.03,1.11-0.1,1.64c-0.06,0.52-0.27,1.01-0.64,1.44l0,0v0.01
						c-0.14,0.17-0.31,0.33-0.48,0.5c-0.19,0.16-0.32,0.25-0.34,0.27l-0.1,0.06l0.2,0.35L27.3,260l0.1-0.05
						c0.35-0.16,0.63-0.29,0.82-0.4l0,0c0.2-0.12,0.37-0.22,0.53-0.33l0,0c0.44-0.29,0.8-0.6,1.05-0.94l0,0
						c0.26-0.34,0.45-0.67,0.58-0.99l0,0c0.13-0.32,0.22-0.62,0.25-0.92c0.04-0.29,0.06-0.54,0.07-0.75l0,0v-11.83
						c0-0.55,0.02-0.96,0.07-1.23l0,0c0.04-0.25,0.17-0.43,0.44-0.58l0.25-0.13c0.05-0.02,0.18-0.04,0.36-0.06l0.1-0.02v-0.11v-0.22
						v-0.11h-4.46v0.35H27.48z"/>
				</g>
			</g>
		</g>
	</g>
	<g>
		<g>
			<path d="M142.76,70.13h-1.33v1.49h-3.55v2.91h3.55v1.92h-3.55v15.7h3.55v1.94h-3.55V97h3.55v2.07h1.33V97h3.5v-2.9h-3.5v-1.94
				h3.5V76.44h-3.5v-1.92h3.5V71.6h-3.5V70.13z M141.43,85.75v3.49h-2.22v-3.49H141.43z M141.43,79.35v3.49h-2.22v-3.49H141.43z
				 M144.93,85.75v3.49h-2.18v-3.49H144.93z M142.76,82.83v-3.49h2.18v3.49H142.76z"/>
			<path d="M152.66,76.44v-1.92h3.49v-4.4h-1.32v1.49h-2.18v-1.49h-1.33v1.49h-3.48v2.91h3.48v1.92h-3.48v1.41h-0.01v21.12h1.32
				v-6.83h2.17v6.93h1.33v-6.93h2.18v6.83h1.32V76.44H152.66z M151.33,85.75v3.49h-2.17v-3.49H151.33z M151.33,79.35v3.49h-2.17
				v-3.49H151.33z M154.84,85.75v3.49h-2.18v-3.49H154.84z M154.84,79.35v3.49h-2.18v-3.49H154.84z"/>
		</g>
		<g>
			<polygon points="155.17,52.13 152.17,51.69 150.82,48.98 149.48,51.69 146.48,52.13 148.65,54.23 148.64,54.3 148.15,57.22 
				150.82,55.81 153.51,57.22 153,54.23 			"/>
			<polygon points="140.82,61.08 137.82,60.64 137.79,60.59 136.49,57.94 135.15,60.64 132.14,61.08 134.31,63.2 134.3,63.26 
				133.81,66.18 136.49,64.77 139.17,66.18 138.66,63.2 			"/>
			<polygon points="130.17,77.94 132.3,75.88 129.29,75.44 127.95,72.73 126.6,75.44 123.61,75.88 125.78,77.99 125.26,80.96 
				127.95,79.57 128.01,79.6 130.63,80.97 130.12,77.99 			"/>
			<polygon points="132.71,93 129.71,92.57 128.36,89.86 127.02,92.57 124.02,93 126.18,95.11 126.17,95.18 125.67,98.09 
				128.36,96.69 128.42,96.72 131.05,98.09 130.53,95.11 			"/>
			<polygon points="139.54,109.43 141.66,107.37 138.66,106.93 138.63,106.87 137.32,104.23 135.97,106.93 135.9,106.95 
				132.97,107.37 135.15,109.48 134.62,112.46 137.32,111.06 140,112.46 139.49,109.48 			"/>
			<polygon points="156.21,115.88 153.21,115.44 151.87,112.73 150.53,115.44 150.46,115.45 147.52,115.88 149.69,118 
				149.68,118.05 149.18,120.98 151.87,119.56 154.55,120.98 154.04,118 			"/>
		</g>
		<path d="M193.99,37.48c-0.75,0-1.5,0.05-2.23,0.16c-1.64,0.22-3.32,0.33-5.03,0.33c-6.46,0-12.55-1.61-17.89-4.45
			c-0.81-0.43-1.61-0.9-2.37-1.37c-0.38-0.24-0.76-0.49-1.12-0.74c-0.33-0.23-0.99-0.69-0.99-0.69c-1.24-0.9-2.77-1.42-4.42-1.42
			s-3.18,0.52-4.42,1.42c0,0-0.65,0.46-0.97,0.69c-0.38,0.25-0.75,0.5-1.13,0.74c-0.77,0.48-1.57,0.94-2.37,1.37
			c-5.33,2.83-11.43,4.45-17.89,4.45c-1.72,0-3.41-0.11-5.06-0.33c-0.73-0.11-1.46-0.16-2.21-0.16c-8.62,0-15.61,6.96-15.61,15.55
			v31.98c-0.02,0.61-0.03,1.22-0.03,1.83c0,28.76,20.48,52.71,47.69,58.22c0.64,0.09,1.31,0.14,1.98,0.14
			c0.64,0,1.27-0.04,1.89-0.12c27.12-5.44,47.59-29.25,47.78-57.86v-0.19V53.03C209.59,44.44,202.61,37.48,193.99,37.48z
			 M159.91,141.92c-0.61,0-1.21-0.04-1.8-0.13c-25.68-5.17-45.03-27.79-45.03-54.93c0-0.27-0.26-32.72-0.26-32.72h0.02
			c0.3-7.85,5.58-13.92,13.51-13.92c0.7,0,2.02,0.03,2.69,0.14c1.57,0.21,3.28,0.42,4.9,0.42c6.11,0,12.5-1.38,17.53-4.05
			c0.76-0.42,1.51-0.84,2.23-1.31c0.36-0.22,0.71-0.46,1.06-0.69c0.31-0.21,0.62-0.43,0.92-0.65h0.01c1.17-0.84,2.66-1.5,4.22-1.5
			L159.91,141.92z M191.49,70.74l1.53,3.11l3.45,0.51l-2.5,2.43l0.58,3.42l-3.07-1.62l-3.09,1.62l0.6-3.42l-2.5-2.42l3.45-0.51
			L191.49,70.74z M181.38,59.81l1.55-3.11l1.54,3.11l3.45,0.5l-2.5,2.43l0.59,3.42l-3.08-1.62l-3.09,1.62l0.59-3.42l-2.5-2.43
			L181.38,59.81z M171.03,75.27V71.4h12.18v3.87H171.03z M183.2,94.41v3.87h-12.18v-3.87H183.2z M166.4,51.42l1.55-3.12l1.55,3.12
			l3.45,0.5l-2.5,2.42l0.59,3.43l-3.08-1.63l-3.09,1.63l0.59-3.43l-2.5-2.42L166.4,51.42z M162.85,81.47v-3.85h0.26
			c0.01,0,1.11-0.01,2.16-0.49c1.22-0.56,1.82-1.5,1.82-2.89v-4.44h2.46v5.82c0.03,0.52,0.04,2.38-1.3,3.9V99.2h-2.46V81.09
			c-0.78,0.25-1.68,0.37-2.68,0.37L162.85,81.47L162.85,81.47z M172.47,121.11l-3.08-1.63l-3.08,1.63l0.58-3.43l-2.49-2.43
			l3.44-0.49l1.55-3.12l1.53,3.12l3.45,0.49l-2.49,2.43L172.47,121.11z M186.89,112.18l-3.09-1.62l-3.08,1.62l0.59-3.43l-2.49-2.42
			l3.44-0.51l1.54-3.12l1.54,3.12l3.45,0.5l-2.49,2.42L186.89,112.18z M194.98,97.24l-3.09-1.63l-3.09,1.63l0.59-3.42l-2.5-2.42
			l3.44-0.5l1.55-3.11l1.55,3.11l3.44,0.5l-2.5,2.42L194.98,97.24z"/>
		<g>
			<path style="fill-rule:evenodd;clip-rule:evenodd;" d="M114.69,20.04c0.16,0.04,0.32,0.04,0.47,0.03
				c4.47-0.71,11.42-5.3,14.22-8.89c0.05-0.07,0.1-0.15,0.12-0.24c0.08-0.32-0.12-0.64-0.44-0.72c-6.11,0.01-13.35,3.79-15.41,7.68
				c-0.04,0.09-0.09,0.18-0.12,0.28C113.34,19.01,113.85,19.84,114.69,20.04z"/>
			<path style="fill-rule:evenodd;clip-rule:evenodd;" d="M87.1,46.57c0.19,0,0.36-0.03,0.53-0.09c0.02-0.01,0.04-0.02,0.05-0.02
				c0.18-0.07,0.34-0.19,0.48-0.32c4.15-5.45,5.48-11.96,5.89-18.45c-0.02-0.32-0.28-0.58-0.6-0.58c-0.04,0-0.07,0-0.1,0.01
				c-0.13,0.02-0.25,0.08-0.34,0.18c-0.8,0.84-1.7,1.77-2.35,2.58c-3.2,3.9-5.34,8.24-5.34,13.4c0,0.72,0.07,1.44,0.26,2.15
				C85.79,46.1,86.39,46.57,87.1,46.57z"/>
			<path style="fill-rule:evenodd;clip-rule:evenodd;" d="M75.51,88.02c0.26,0.17,0.55,0.28,0.88,0.28c0.19,0,0.37-0.03,0.55-0.09
				c0.02-0.01,0.04-0.02,0.05-0.02c0.28-0.11,0.52-0.3,0.7-0.54c0.17-0.22,0.27-0.47,0.3-0.76c0.71-5.86-2.32-17.61-5.61-20.88
				c-0.11-0.1-0.26-0.17-0.43-0.17c-0.03,0-0.07,0-0.1,0.01c-0.13,0.02-0.25,0.09-0.35,0.18c-0.05,0.06-0.09,0.12-0.12,0.2
				c-1.47,6.16-1.47,12.19,1.22,18.07C73.29,85.78,74.27,87.03,75.51,88.02z"/>
			<path style="fill-rule:evenodd;clip-rule:evenodd;" d="M105.58,38.6c0.02-0.06,0.05-0.12,0.06-0.19c0-0.01,0-0.03,0-0.03
				c0-0.32-0.22-0.57-0.52-0.62c-6.44-0.11-13.52,5.02-15.23,9.7c-0.04,0.15-0.08,0.3-0.08,0.46c0,0.14,0.02,0.29,0.06,0.42
				c0.18,0.7,0.82,1.21,1.57,1.21c0.12,0,0.24-0.02,0.35-0.05C96.41,48.25,103.3,42.95,105.58,38.6z"/>
			<path style="fill-rule:evenodd;clip-rule:evenodd;" d="M98.76,29.17c0.17,0.05,0.34,0.08,0.51,0.07c0.02,0,0.03,0,0.05,0
				c0.19-0.02,0.36-0.08,0.53-0.15c5.33-3.72,8.42-9.18,10.68-14.93c0.07-0.29-0.09-0.6-0.38-0.69c-0.03-0.01-0.06-0.02-0.09-0.02
				c-0.13-0.02-0.25,0-0.36,0.06c-0.96,0.52-2.04,1.11-2.87,1.65c-4.02,2.59-7.22,5.88-8.71,10.54c-0.21,0.66-0.35,1.33-0.39,2.02
				C97.72,28.37,98.12,28.98,98.76,29.17z"/>
			<path style="fill-rule:evenodd;clip-rule:evenodd;" d="M117.45,24.25c0.03-0.06,0.06-0.11,0.07-0.18c0-0.02,0-0.03,0-0.03
				c0.03-0.31-0.16-0.56-0.43-0.63c-6.07-0.66-13.18,3.57-15.21,7.84c-0.05,0.13-0.09,0.27-0.11,0.42c-0.01,0.14,0,0.27,0.02,0.4
				c0.11,0.67,0.67,1.2,1.38,1.27c0.11,0.01,0.23,0,0.34-0.02C107.97,32.55,114.92,28.16,117.45,24.25z"/>
			<path style="fill-rule:evenodd;clip-rule:evenodd;" d="M84.03,69.04c0.18-0.01,0.35-0.05,0.5-0.11
				c4.65-2.15,9.69-9.26,11.54-14.27c0.02-0.05,0.03-0.1,0.03-0.15c0-0.01,0-0.03,0-0.04c0-0.05-0.01-0.11-0.02-0.16
				c-0.07-0.25-0.29-0.4-0.55-0.43c-5.24,0.13-12.3,7.61-13.18,13.42c0,0.06-0.01,0.11-0.01,0.17c0.01,0.14,0.03,0.28,0.07,0.41
				c0.04,0.13,0.09,0.25,0.15,0.36C82.87,68.74,83.42,69.07,84.03,69.04z"/>
			<path style="fill-rule:evenodd;clip-rule:evenodd;" d="M77.53,65.83c0.32,0.43,0.82,0.7,1.39,0.68c0.2-0.01,0.39-0.05,0.56-0.12
				c0.02,0,0.04-0.01,0.05-0.02c0.28-0.13,0.53-0.33,0.7-0.58c0.03-0.04,0.05-0.09,0.08-0.13c2.32-4.89,2.94-14.66,1.07-20.17
				c-0.09-0.27-0.34-0.46-0.64-0.45c-0.03,0-0.07,0-0.11,0.01c-0.13,0.03-0.26,0.1-0.35,0.2c-0.02,0.03-0.04,0.06-0.05,0.08
				c-0.61,1.05-1.16,1.97-1.64,2.95c-2.23,4.63-3.36,9.45-2.23,14.6C76.6,63.92,76.99,64.91,77.53,65.83z"/>
			<path style="fill-rule:evenodd;clip-rule:evenodd;" d="M80.51,87.67c0.1,0.3,0.27,0.57,0.51,0.76c0.28,0.24,0.64,0.38,1.03,0.38
				c0.19,0,0.38-0.04,0.55-0.09c0.02,0,0.04-0.01,0.05-0.02c0.15-0.06,0.3-0.15,0.42-0.25c4.17-3.41,7.47-12.3,7.87-17.02
				c-0.01-0.17-0.07-0.32-0.18-0.43c-0.11-0.12-0.27-0.18-0.45-0.18H90.3C84.51,72.56,79.41,81.63,80.51,87.67z"/>
			<path style="fill-rule:evenodd;clip-rule:evenodd;" d="M76.64,108.41c0.53,0.55,1.14,0.99,1.81,1.34
				c0.23,0.11,0.5,0.17,0.77,0.17c0.21,0,0.43-0.04,0.62-0.11c0.29-0.1,0.55-0.28,0.75-0.51c0.1-0.11,0.18-0.22,0.25-0.35
				c0.07-0.13,0.12-0.27,0.17-0.41c0.04-0.15,0.06-0.31,0.06-0.48c-0.61-6.29-6-15.56-9.96-19.33c-0.11-0.09-0.24-0.17-0.39-0.18
				c-0.05,0-0.1,0-0.15,0c-0.04,0-0.08,0.01-0.12,0.02c-0.21,0.05-0.38,0.19-0.48,0.37c-0.03,0.05-0.06,0.11-0.07,0.17
				c-0.19,5.23,0.81,10.09,3.15,14.63C73.93,105.47,75.28,107.01,76.64,108.41z"/>
			<path style="fill-rule:evenodd;clip-rule:evenodd;" d="M118.11,158.89c0.25-0.12,0.49-0.27,0.67-0.48
				c0.11-0.12,0.2-0.25,0.28-0.4c0.16-0.29,0.26-0.64,0.26-1.01c0-0.56-0.23-1.06-0.58-1.43c-0.08-0.08-0.17-0.15-0.26-0.23
				c-5.58-3.85-16.1-6.09-21.96-5.51c-0.22,0.05-0.4,0.18-0.52,0.36c-0.05,0.09-0.09,0.18-0.12,0.28c-0.02,0.09-0.03,0.18-0.02,0.28
				c0.01,0.08,0.03,0.17,0.06,0.24c0.02,0.05,0.04,0.1,0.07,0.14c0.02,0.04,0.06,0.08,0.09,0.12c3.29,3.19,7.12,5.53,11.44,7.09
				c2.78,1.01,5.64,1.57,8.6,1.06C116.8,159.28,117.46,159.11,118.11,158.89z"/>
			<path style="fill-rule:evenodd;clip-rule:evenodd;" d="M87.84,129.4c0.19-0.01,0.37-0.04,0.54-0.1c0.29-0.11,0.54-0.28,0.75-0.5
				c0.09-0.11,0.17-0.23,0.25-0.35c0.07-0.13,0.13-0.26,0.17-0.41c0.04-0.16,0.07-0.33,0.06-0.5c0-0.06,0-0.12-0.01-0.18
				c-0.02-0.15-0.07-0.29-0.12-0.42c-3.45-6.93-9.1-11.44-15.53-15.34c-0.07-0.04-0.14-0.07-0.23-0.08c-0.05,0-0.1,0-0.15,0
				c-0.04,0-0.08,0.01-0.13,0.02c-0.21,0.05-0.39,0.19-0.48,0.37c-0.03,0.05-0.05,0.11-0.07,0.17c-0.01,0.03-0.01,0.06-0.02,0.09
				c-0.01,0.02-0.01,0.05-0.01,0.08c0,0.02,0,0.03,0,0.05c1.74,6.24,4.91,11.57,10.34,15.37C84.59,128.65,86.12,129.21,87.84,129.4z
				"/>
			<path style="fill-rule:evenodd;clip-rule:evenodd;" d="M84.19,108.8c0.1,0.13,0.23,0.24,0.36,0.34c0.06,0.04,0.12,0.08,0.19,0.12
				c0.26,0.14,0.57,0.22,0.89,0.22c0.22,0,0.42-0.04,0.62-0.11c0.29-0.1,0.55-0.28,0.75-0.5c0.01-0.01,0.02-0.02,0.02-0.03
				c3.18-4.27,4.19-13.53,3.44-19.02c-0.01-0.12-0.05-0.23-0.1-0.32c-0.04-0.06-0.08-0.12-0.13-0.16c-0.11-0.11-0.26-0.18-0.42-0.2
				c-0.05,0-0.1,0-0.15,0c-0.04,0-0.09,0.01-0.13,0.02c-0.08,0.02-0.14,0.07-0.2,0.1c-5.99,5.04-7.48,14.35-5.35,19.23
				C84.04,108.6,84.11,108.71,84.19,108.8z"/>
			<path style="fill-rule:evenodd;clip-rule:evenodd;" d="M100.19,145.1c0.1-0.02,0.2-0.03,0.3-0.07c0.29-0.11,0.54-0.28,0.75-0.5
				c0.1-0.1,0.18-0.22,0.25-0.35s0.13-0.27,0.17-0.41c0.04-0.16,0.06-0.32,0.06-0.5c0-0.06-0.01-0.13-0.01-0.18
				c-0.02-0.22-0.08-0.42-0.17-0.61c-0.05-0.12-0.13-0.21-0.2-0.31c-4.34-4.78-14.22-10.02-19.67-10.34c-0.03,0-0.05,0-0.08,0
				c-0.04,0-0.08,0.02-0.12,0.02c-0.21,0.06-0.39,0.2-0.48,0.38c-0.03,0.05-0.05,0.11-0.07,0.17c-0.01,0.03-0.01,0.06-0.02,0.09
				c0,0.02,0,0.05,0,0.08c0,0.02,0,0.05,0,0.07c0.01,0.06,0.02,0.11,0.03,0.16c0.01,0.05,0.03,0.09,0.05,0.13
				c2.92,5.38,10.96,12.14,17.28,12.27C98.89,145.23,99.54,145.17,100.19,145.1z"/>
			<path style="fill-rule:evenodd;clip-rule:evenodd;" d="M92.3,127.57c0.05,0.09,0.11,0.18,0.18,0.27
				c0.11,0.13,0.23,0.24,0.37,0.34c0.06,0.04,0.12,0.08,0.19,0.12c0.18,0.1,0.39,0.16,0.61,0.2c0.09,0.01,0.19,0.02,0.28,0.02
				c0.22,0,0.43-0.04,0.62-0.11c0.29-0.1,0.54-0.28,0.75-0.5c0.1-0.1,0.18-0.23,0.25-0.35c0.02-0.04,0.03-0.07,0.05-0.11
				c0.4-1.01,0.74-2.03,0.93-3.07c0.77-4.15,0.26-8.3-0.59-12.39c-0.2-0.96-0.45-1.9-0.73-2.97c-0.02-0.07-0.05-0.14-0.08-0.2
				c-0.04-0.06-0.08-0.12-0.14-0.16c-0.04-0.03-0.08-0.06-0.12-0.09c-0.09-0.05-0.19-0.09-0.3-0.1c-0.05-0.01-0.1-0.01-0.15-0.01
				c-0.04,0.01-0.09,0.02-0.13,0.02c-0.16,0.04-0.3,0.14-0.4,0.25c-0.04,0.06-0.09,0.11-0.13,0.16c-3.1,4.34-4.34,9.15-3.23,14.36
				C90.86,124.73,91.55,126.17,92.3,127.57z"/>
			<path style="fill-rule:evenodd;clip-rule:evenodd;" d="M105.47,143.31c0.04,0.03,0.08,0.05,0.12,0.07c0.18,0.1,0.39,0.17,0.6,0.2
				c0.09,0.02,0.19,0.02,0.28,0.02c0.07,0,0.13,0,0.2-0.01c0.15-0.02,0.29-0.06,0.42-0.1c0.29-0.11,0.55-0.28,0.75-0.51
				c0.1-0.11,0.18-0.22,0.25-0.35c0.06-0.1,0.09-0.21,0.13-0.32c1.06-5.08-1.68-13.58-4.87-18.57c-0.03-0.04-0.06-0.09-0.1-0.12
				c-0.04-0.03-0.07-0.07-0.12-0.09c-0.09-0.06-0.19-0.09-0.3-0.1c-0.01,0-0.02,0-0.03,0c-0.04,0-0.08,0-0.11,0
				c-0.05,0-0.09,0.01-0.13,0.02c-0.19,0.04-0.34,0.16-0.44,0.32C99.03,129.38,100.13,138.64,105.47,143.31z"/>
			<path style="fill-rule:evenodd;clip-rule:evenodd;" d="M121.16,154.66c0.28,0.14,0.59,0.23,0.92,0.22c0.05,0,0.1,0,0.15,0
				c0.19-0.01,0.37-0.06,0.55-0.12c0.32-0.12,0.61-0.32,0.84-0.57c0.11-0.12,0.2-0.25,0.28-0.39c0.17-0.3,0.26-0.64,0.26-1
				c-0.63-6.76-4.61-11.92-8.85-17.11c-0.08-0.09-0.16-0.17-0.26-0.22c-0.1-0.05-0.2-0.08-0.31-0.1c-0.03,0-0.06,0-0.08,0
				c-0.03,0-0.06,0-0.09,0c-0.05,0.01-0.1,0.01-0.15,0.02c-0.22,0.05-0.4,0.18-0.52,0.37c-0.05,0.07-0.08,0.14-0.1,0.23
				C111.95,142.08,115.92,151.55,121.16,154.66z"/>
			<path style="fill-rule:evenodd;clip-rule:evenodd;" d="M138.2,163.86c-0.15-0.11-0.31-0.19-0.49-0.26
				c-6.38-2.18-17-1.54-22.51,0.56c-0.15,0.06-0.29,0.16-0.39,0.3c-0.06,0.08-0.1,0.18-0.12,0.28c-0.01,0.03-0.01,0.07-0.02,0.1
				c0,0.06-0.01,0.12,0,0.18c0.01,0.09,0.02,0.17,0.05,0.25c0.02,0.05,0.04,0.1,0.07,0.14c0.04,0.06,0.08,0.12,0.13,0.17
				c0.04,0.04,0.1,0.07,0.15,0.11c4.03,2.19,8.34,3.42,12.91,3.76c2.96,0.22,5.86,0,8.58-1.29c0.62-0.29,1.21-0.64,1.76-1.02
				c0.07-0.07,0.15-0.12,0.22-0.19c0.11-0.12,0.2-0.25,0.28-0.39c0.16-0.3,0.26-0.65,0.25-1.01c0-0.56-0.23-1.06-0.58-1.43
				C138.4,164.02,138.3,163.93,138.2,163.86z"/>
			<path style="fill-rule:evenodd;clip-rule:evenodd;" d="M179.33,162.83c6.34-0.56,13.32-10.77,12.31-17.87
				c0-0.01-0.01-0.02-0.01-0.04c-0.03-0.1-0.07-0.19-0.12-0.27c-0.12-0.18-0.3-0.31-0.52-0.37c-0.05-0.01-0.09-0.02-0.15-0.02
				c-0.03,0-0.06,0-0.09,0s-0.06,0-0.08,0c-0.11,0.02-0.21,0.05-0.31,0.1c-0.06,0.03-0.11,0.07-0.16,0.11
				c-5.33,4.77-10.39,9.53-11.73,16.86c-4.03,1.05-11.29,3.04-18.48,5.63c-7.19-2.59-14.44-4.59-18.48-5.63
				c-1.34-7.33-6.39-12.09-11.73-16.86c-0.05-0.04-0.1-0.08-0.16-0.11c-0.1-0.05-0.2-0.08-0.31-0.1c-0.03,0-0.06,0-0.08,0
				c-0.03,0-0.06,0-0.09,0c-0.05,0-0.1,0.01-0.15,0.02c-0.21,0.06-0.4,0.18-0.52,0.37c-0.05,0.08-0.09,0.17-0.12,0.27
				c0,0.02,0,0.03-0.01,0.04c-1.01,7.09,5.97,17.31,12.31,17.87c4.39,0.91,10.25,2.91,16.04,5.36c-6.28,2.45-12.1,5.32-15.15,8.37
				l2.27,2.66c2.82-2.79,9.19-6.41,16.17-9.58c6.97,3.18,13.35,6.79,16.17,9.58l2.27-2.66c-3.05-3.04-8.87-5.91-15.15-8.37
				C169.08,165.75,174.94,163.74,179.33,162.83z"/>
			<path style="fill-rule:evenodd;clip-rule:evenodd;" d="M190.62,11.18c2.8,3.59,9.75,8.19,14.22,8.89c0.16,0.01,0.31,0,0.47-0.03
				c0.83-0.2,1.35-1.03,1.15-1.85c-0.02-0.1-0.08-0.19-0.11-0.28c-2.06-3.89-9.3-7.68-15.41-7.68c-0.32,0.08-0.52,0.4-0.44,0.72
				C190.52,11.03,190.57,11.11,190.62,11.18z"/>
			<path style="fill-rule:evenodd;clip-rule:evenodd;" d="M232.32,46.45c0.01,0.01,0.03,0.02,0.05,0.02
				c0.17,0.06,0.34,0.09,0.53,0.09c0.71,0,1.31-0.47,1.51-1.13c0.2-0.72,0.26-1.44,0.26-2.15c0.01-5.16-2.14-9.5-5.33-13.4
				c-0.66-0.81-1.55-1.75-2.35-2.58c-0.09-0.09-0.21-0.16-0.34-0.18c-0.03-0.01-0.07-0.01-0.1-0.01c-0.32,0-0.59,0.25-0.61,0.58
				c0.42,6.49,1.74,12.99,5.9,18.45C231.98,46.27,232.13,46.38,232.32,46.45z"/>
			<path style="fill-rule:evenodd;clip-rule:evenodd;" d="M242,86.91c0.04,0.29,0.15,0.54,0.31,0.76c0.18,0.24,0.42,0.42,0.7,0.54
				c0.02,0,0.03,0.01,0.05,0.02c0.17,0.06,0.35,0.09,0.55,0.09c0.33,0,0.62-0.11,0.88-0.28c1.25-1,2.22-2.24,2.9-3.71
				c2.7-5.87,2.69-11.92,1.22-18.07c-0.04-0.07-0.07-0.14-0.12-0.2c-0.09-0.09-0.21-0.16-0.34-0.18c-0.03-0.01-0.07-0.01-0.1-0.01
				c-0.17,0-0.32,0.07-0.43,0.17C244.32,69.3,241.29,81.04,242,86.91z"/>
			<path style="fill-rule:evenodd;clip-rule:evenodd;" d="M228.55,49.54c0.75,0,1.39-0.51,1.58-1.21c0.04-0.13,0.06-0.27,0.06-0.42
				c0-0.16-0.03-0.31-0.08-0.46c-1.72-4.69-8.79-9.81-15.23-9.7c-0.29,0.06-0.51,0.3-0.51,0.62c0,0,0,0.02,0,0.03
				c0.01,0.07,0.03,0.13,0.06,0.19c2.28,4.36,9.17,9.65,13.78,10.88C228.31,49.51,228.43,49.54,228.55,49.54z"/>
			<path style="fill-rule:evenodd;clip-rule:evenodd;" d="M220.15,29.1c0.17,0.07,0.34,0.14,0.53,0.15c0.02,0,0.03,0,0.05,0
				c0.16,0,0.34-0.02,0.5-0.07c0.65-0.2,1.04-0.81,1.04-1.45c-0.04-0.7-0.18-1.37-0.39-2.02c-1.49-4.66-4.7-7.95-8.71-10.54
				c-0.83-0.54-1.91-1.13-2.87-1.65c-0.11-0.06-0.23-0.08-0.36-0.06c-0.03,0-0.07,0.01-0.09,0.02c-0.3,0.09-0.45,0.4-0.38,0.69
				C211.73,19.92,214.82,25.39,220.15,29.1z"/>
			<path style="fill-rule:evenodd;clip-rule:evenodd;" d="M216.83,33.34c0.71-0.07,1.27-0.6,1.38-1.27c0.02-0.13,0.03-0.27,0.02-0.4
				c-0.01-0.15-0.06-0.29-0.11-0.42c-2.02-4.27-9.13-8.5-15.2-7.84c-0.27,0.08-0.46,0.33-0.43,0.63c0,0,0,0.01,0.01,0.03
				c0.01,0.06,0.04,0.12,0.07,0.18c2.53,3.91,9.48,8.31,13.93,9.08C216.6,33.34,216.72,33.35,216.83,33.34z"/>
			<path style="fill-rule:evenodd;clip-rule:evenodd;" d="M223.91,54.32c-0.01,0.05-0.02,0.1-0.02,0.16c0,0.02,0,0.03,0,0.04
				c0,0.05,0.02,0.11,0.03,0.15c1.86,5.01,6.89,12.1,11.54,14.27c0.16,0.06,0.33,0.1,0.51,0.11c0.62,0.02,1.16-0.3,1.46-0.79
				c0.07-0.11,0.12-0.23,0.16-0.36c0.04-0.13,0.07-0.27,0.07-0.41c0-0.06,0-0.11-0.01-0.17c-0.88-5.81-7.94-13.29-13.18-13.42
				C224.2,53.92,223.98,54.07,223.91,54.32z"/>
			<path style="fill-rule:evenodd;clip-rule:evenodd;" d="M239.77,65.79c0.17,0.25,0.41,0.45,0.69,0.58
				c0.02,0.01,0.03,0.02,0.05,0.02c0.17,0.07,0.36,0.11,0.55,0.12c0.57,0.02,1.08-0.25,1.4-0.68c0.55-0.91,0.93-1.89,1.17-2.96
				c1.13-5.14,0-9.97-2.23-14.6c-0.47-0.97-1.03-1.9-1.64-2.95c-0.02-0.03-0.04-0.06-0.06-0.08c-0.09-0.1-0.21-0.17-0.35-0.2
				c-0.03-0.01-0.07-0.01-0.1-0.01c-0.3-0.01-0.55,0.18-0.64,0.45c-1.86,5.51-1.24,15.29,1.07,20.17
				C239.72,65.7,239.74,65.74,239.77,65.79z"/>
			<path style="fill-rule:evenodd;clip-rule:evenodd;" d="M237.4,88.72c0.17,0.06,0.35,0.09,0.54,0.09c0.39,0,0.75-0.14,1.03-0.38
				c0.24-0.19,0.41-0.46,0.51-0.76c1.1-6.04-4-15.12-9.8-16.86c0,0,0,0-0.01,0c-0.18,0-0.33,0.07-0.45,0.18
				c-0.11,0.11-0.18,0.26-0.18,0.43c0.41,4.72,3.7,13.61,7.87,17.02c0.13,0.1,0.26,0.2,0.42,0.25
				C237.36,88.7,237.38,88.71,237.4,88.72z"/>
			<path style="fill-rule:evenodd;clip-rule:evenodd;" d="M249.43,88.55c-0.05,0-0.1,0-0.15,0c-0.15,0.02-0.28,0.09-0.39,0.18
				c-3.95,3.77-9.34,13.04-9.95,19.33c0,0.17,0.02,0.33,0.06,0.48c0.04,0.15,0.09,0.28,0.17,0.41c0.07,0.13,0.15,0.24,0.25,0.35
				c0.2,0.23,0.46,0.4,0.75,0.51c0.19,0.07,0.41,0.11,0.62,0.11c0.27,0,0.53-0.07,0.77-0.17c0.67-0.35,1.28-0.79,1.81-1.34
				c1.36-1.42,2.71-2.95,3.6-4.67c2.34-4.54,3.34-9.39,3.15-14.63c-0.02-0.06-0.04-0.12-0.07-0.17c-0.1-0.18-0.27-0.32-0.48-0.37
				C249.51,88.56,249.47,88.56,249.43,88.55z"/>
			<path style="fill-rule:evenodd;clip-rule:evenodd;" d="M224.01,150.2c-0.12-0.18-0.3-0.31-0.52-0.36
				c-5.87-0.58-16.38,1.67-21.96,5.51c-0.09,0.07-0.18,0.14-0.26,0.23c-0.35,0.37-0.58,0.87-0.58,1.43c0,0.37,0.1,0.72,0.26,1.01
				c0.08,0.14,0.17,0.27,0.28,0.4c0.18,0.2,0.42,0.36,0.67,0.48c0.65,0.23,1.31,0.4,2,0.52c2.96,0.5,5.82-0.06,8.6-1.06
				c4.32-1.56,8.14-3.9,11.44-7.09c0.03-0.04,0.07-0.08,0.09-0.12c0.03-0.04,0.05-0.09,0.07-0.14c0.03-0.07,0.05-0.16,0.05-0.24
				c0-0.1,0-0.19-0.02-0.28C224.11,150.38,224.07,150.29,224.01,150.2z"/>
			<path style="fill-rule:evenodd;clip-rule:evenodd;" d="M247.1,112.1c-0.02-0.06-0.04-0.12-0.07-0.17
				c-0.1-0.18-0.27-0.32-0.48-0.37c-0.04-0.01-0.08-0.02-0.12-0.02c-0.05,0-0.1,0-0.15,0c-0.08,0.01-0.16,0.04-0.23,0.08
				c-6.43,3.9-12.07,8.41-15.53,15.34c-0.05,0.13-0.1,0.27-0.12,0.42c0,0.06-0.01,0.12-0.01,0.18c0,0.17,0.02,0.34,0.06,0.5
				c0.04,0.14,0.1,0.28,0.17,0.41c0.07,0.13,0.15,0.25,0.25,0.35c0.21,0.23,0.46,0.4,0.75,0.5c0.17,0.06,0.35,0.09,0.53,0.1
				c1.72-0.19,3.25-0.75,4.63-1.71c5.43-3.8,8.6-9.13,10.34-15.37c0-0.02,0-0.04,0-0.05c0-0.03,0-0.06,0-0.08
				C247.12,112.16,247.11,112.12,247.1,112.1z"/>
			<path style="fill-rule:evenodd;clip-rule:evenodd;" d="M233,108.86c0.2,0.22,0.46,0.4,0.75,0.5c0.19,0.07,0.4,0.11,0.62,0.11
				c0.32,0,0.63-0.08,0.89-0.22c0.07-0.04,0.13-0.08,0.19-0.12c0.13-0.1,0.26-0.21,0.36-0.34c0.08-0.1,0.15-0.21,0.2-0.32
				c2.14-4.89,0.65-14.19-5.34-19.23c-0.07-0.04-0.13-0.08-0.2-0.1c-0.04-0.01-0.08-0.02-0.13-0.02c-0.05,0-0.09,0-0.14,0
				c-0.16,0.02-0.31,0.09-0.42,0.2c-0.05,0.04-0.1,0.1-0.13,0.16c-0.06,0.09-0.09,0.2-0.1,0.32c-0.76,5.49,0.26,14.76,3.43,19.02
				C232.98,108.84,232.99,108.85,233,108.86z"/>
			<path style="fill-rule:evenodd;clip-rule:evenodd;" d="M239.09,132.41c-0.02-0.07-0.04-0.12-0.07-0.17
				c-0.1-0.18-0.27-0.33-0.48-0.38c-0.04,0-0.08-0.02-0.12-0.02c-0.03,0-0.05,0-0.08,0c-5.45,0.32-15.34,5.55-19.67,10.34
				c-0.07,0.1-0.15,0.2-0.2,0.31c-0.09,0.18-0.15,0.39-0.17,0.61c0,0.06-0.01,0.12-0.01,0.18c0,0.17,0.02,0.34,0.06,0.5
				c0.04,0.14,0.1,0.28,0.17,0.41s0.15,0.25,0.25,0.35c0.2,0.22,0.46,0.4,0.75,0.5c0.09,0.04,0.2,0.05,0.3,0.07
				c0.65,0.07,1.3,0.13,1.94,0.11c6.32-0.13,14.35-6.89,17.28-12.27c0.02-0.04,0.04-0.08,0.05-0.13c0.01-0.05,0.02-0.1,0.03-0.16
				c0-0.02,0-0.04,0-0.07c0-0.02,0-0.05,0-0.08C239.1,132.46,239.09,132.44,239.09,132.41z"/>
			<path style="fill-rule:evenodd;clip-rule:evenodd;" d="M224.41,127.44c0.02,0.03,0.03,0.07,0.05,0.11
				c0.07,0.12,0.15,0.25,0.25,0.35c0.2,0.22,0.45,0.4,0.74,0.5c0.2,0.07,0.41,0.11,0.62,0.11c0.09,0,0.19,0,0.28-0.02
				c0.22-0.04,0.42-0.1,0.61-0.2c0.07-0.04,0.13-0.08,0.19-0.12c0.14-0.1,0.26-0.21,0.37-0.34c0.06-0.08,0.12-0.17,0.18-0.27
				c0.75-1.4,1.44-2.84,1.76-4.35c1.11-5.2-0.13-10.02-3.23-14.36c-0.04-0.06-0.09-0.11-0.13-0.16c-0.1-0.12-0.24-0.21-0.4-0.25
				c-0.04-0.01-0.08-0.02-0.13-0.02s-0.1,0-0.15,0.01c-0.11,0.01-0.21,0.05-0.3,0.1c-0.04,0.03-0.08,0.06-0.12,0.09
				c-0.05,0.05-0.1,0.1-0.13,0.16c-0.04,0.06-0.07,0.13-0.08,0.2l0,0c-0.27,1.07-0.52,2.01-0.72,2.97
				c-0.85,4.1-1.36,8.24-0.59,12.39C223.67,125.4,224.01,126.43,224.41,127.44z"/>
			<path style="fill-rule:evenodd;clip-rule:evenodd;" d="M217.44,123.46c-0.04-0.01-0.08-0.02-0.13-0.02c-0.04,0-0.08,0-0.11,0
				c-0.01,0-0.02,0-0.03,0c-0.11,0.01-0.21,0.05-0.3,0.1c-0.05,0.02-0.08,0.06-0.12,0.09c-0.04,0.03-0.07,0.08-0.1,0.12
				c-3.19,4.99-5.92,13.49-4.87,18.57c0.04,0.11,0.08,0.22,0.13,0.32c0.07,0.12,0.15,0.24,0.25,0.35c0.2,0.23,0.46,0.4,0.75,0.51
				c0.14,0.04,0.28,0.08,0.43,0.1c0.06,0.01,0.13,0.01,0.2,0.01c0.1,0,0.19-0.01,0.28-0.02c0.22-0.03,0.42-0.1,0.6-0.2
				c0.04-0.02,0.08-0.04,0.12-0.07c5.34-4.67,6.44-13.93,3.34-19.53C217.77,123.63,217.62,123.51,217.44,123.46z"/>
			<path style="fill-rule:evenodd;clip-rule:evenodd;" d="M205.59,135.4c-0.04-0.01-0.1-0.02-0.15-0.02c-0.03,0-0.06,0-0.09,0
				s-0.05,0-0.08,0c-0.11,0.02-0.21,0.05-0.31,0.1c-0.1,0.05-0.19,0.13-0.26,0.22c-4.24,5.18-8.22,10.35-8.85,17.11
				c0,0.36,0.09,0.7,0.26,1c0.07,0.14,0.17,0.27,0.28,0.39c0.23,0.25,0.51,0.45,0.84,0.57c0.17,0.06,0.36,0.1,0.55,0.12
				c0.05,0,0.1,0,0.15,0c0.33,0,0.64-0.09,0.92-0.22c5.23-3.11,9.21-12.57,7.36-18.66c-0.03-0.09-0.06-0.16-0.1-0.23
				C205.99,135.59,205.8,135.45,205.59,135.4z"/>
			<path style="fill-rule:evenodd;clip-rule:evenodd;" d="M205.31,164.73c-0.02-0.1-0.06-0.19-0.12-0.28
				c-0.09-0.14-0.23-0.23-0.39-0.3c-5.51-2.09-16.12-2.73-22.51-0.56c-0.18,0.07-0.34,0.15-0.49,0.26
				c-0.11,0.07-0.21,0.16-0.29,0.25c-0.36,0.37-0.58,0.87-0.58,1.43c0,0.37,0.09,0.71,0.25,1.01c0.08,0.14,0.18,0.27,0.28,0.39
				c0.06,0.07,0.15,0.12,0.22,0.19c0.55,0.38,1.14,0.72,1.76,1.02c2.72,1.29,5.62,1.51,8.58,1.29c4.56-0.34,8.88-1.57,12.9-3.76
				c0.05-0.03,0.1-0.07,0.15-0.11c0.05-0.05,0.09-0.11,0.13-0.17c0.02-0.04,0.04-0.09,0.06-0.14c0.03-0.08,0.05-0.16,0.05-0.25
				c0.01-0.06,0-0.12,0-0.18C205.32,164.79,205.32,164.76,205.31,164.73z"/>
		</g>
		<path d="M168.94,9.42V5.19c-1.95-0.2-4.07-0.34-6.48-0.41h-0.17V0h-4.73v4.8h-0.16c-2.42,0.07-4.55,0.2-6.51,0.41v4.22
			c1.94-0.2,4.07-0.34,6.5-0.41h0.17v13.66h4.73V9.01h0.18C164.89,9.08,167.01,9.22,168.94,9.42z"/>
	</g>
</g>
</svg>
