<?xml version="1.0" encoding="utf-8"?>
<!-- Generator: Adobe Illustrator 25.0.1, SVG Export Plug-In . SVG Version: 6.00 Build 0)  -->
<svg version="1.1" id="圖層_1" xmlns="http://www.w3.org/2000/svg" xmlns:xlink="http://www.w3.org/1999/xlink" x="0px" y="0px"
	 viewBox="0 0 320 264" style="enable-background: new 0 0 320 264;" xml:space="preserve">
<g>
	<g>
		<g>
			<path d="M17.76,213.13c1.32,5.27,5.52,10.41,15.06,13.46L32.79,227c-2.05,0.38-3.26,1.49-3.57,3.78
				c-7.95-3.99-10.79-10.89-11.9-16.73c-1.25,7.39-5.03,12.91-17.03,16.73L0,230.27c9.47-4.58,12.25-10.17,13.08-17.14H1.21l-0.28-1
				h12.25c0.24-2.81,0.24-5.8,0.24-9.09H3.23l-0.28-1.01h20.64l2.39-3.02c0,0,2.7,2.05,4.37,3.47c-0.1,0.38-0.52,0.56-1.01,0.56
				H18.04c-0.07,3.29-0.14,6.31-0.42,9.09h8.02l2.43-3.06c0,0,2.74,2.05,4.37,3.51c-0.1,0.38-0.49,0.55-1.01,0.55H17.76z"/>
			<path d="M75.95,224.99c0,0,2.78,2.12,4.51,3.57c-0.1,0.38-0.49,0.56-1.01,0.56H48.23l-0.28-0.97h13.91v-10.48h-9.85l-0.28-1.01
				h10.13v-8.88H50.56l-0.28-0.97h21.93l2.43-3.05c0,0,2.71,2.04,4.37,3.47c-0.1,0.38-0.49,0.56-1.01,0.56H66.34v8.88h4.72
				l2.36-2.95c0,0,2.64,1.98,4.23,3.4c-0.07,0.38-0.49,0.56-0.94,0.56H66.34v10.48h7.15L75.95,224.99z M58.43,198.42
				c12.14,0.69,9.75,9.44,5.27,7.11c-0.97-2.5-3.44-5.24-5.52-6.83L58.43,198.42z"/>
			<path d="M126.06,207.02c-0.59,5.34-1.91,10.06-4.55,14.01c1.94,2.43,4.44,4.41,7.53,5.86l-0.1,0.35
				c-1.91,0.38-3.05,1.46-3.54,3.29c-2.57-1.8-4.47-4.16-5.9-6.97c-2.81,3.05-6.73,5.48-12.14,7.15l-0.24-0.35
				c5.2-2.71,8.67-6.14,10.93-10.13c-0.9-2.6-1.56-5.48-2.01-8.57c-1.18,1.98-2.57,3.72-4.16,5.17l-0.45-0.27
				c1.01-2.01,1.95-4.48,2.74-7.18c-0.1,0.03-0.21,0.03-0.35,0.03h-5.62c-1.08,1.25-2.22,2.46-3.47,3.61h2.53l1.84-1.91l3.4,2.95
				c-0.28,0.28-0.66,0.35-1.35,0.42c-1.11,0.66-2.46,1.49-3.82,2.15l1.11,0.11c-0.1,0.52-0.42,0.76-1.14,0.86v1.42
				c2.08-0.28,4.34-0.59,6.56-0.9l0.07,0.49c-1.77,0.69-3.96,1.49-6.63,2.4v5.17c0,2.74-0.59,4.2-5.03,4.62
				c-0.1-1.22-0.28-2.12-0.8-2.67c-0.56-0.59-1.28-1.01-2.95-1.29v-0.48c0,0,3.57,0.2,4.27,0.2c0.52,0,0.69-0.14,0.69-0.56v-3.74
				c-1.46,0.48-3.05,0.97-4.75,1.49c-0.17,0.42-0.56,0.73-0.94,0.83l-1.7-4.2c1.56-0.14,4.2-0.42,7.39-0.83v-3.26l2.05,0.17
				c0.55-0.76,1.11-1.67,1.56-2.43h-3.5c-2.32,1.98-4.93,3.78-7.88,5.21l-0.35-0.38c1.98-1.39,3.85-3.05,5.55-4.82h-3.33l-0.31-1
				h4.55c1.04-1.15,2.01-2.36,2.91-3.61h-8.74l-0.28-1.01h5.76v-4.47h-4.09l-0.28-0.97h4.37v-4.69l5.14,0.42
				c-0.07,0.52-0.35,0.83-1.28,0.97v3.3h0.1l1.63-2.22c0,0,0.97,0.8,1.91,1.67c0.66-1.28,1.18-2.53,1.63-3.71l4.55,2.19
				c-0.21,0.38-0.56,0.59-1.42,0.45c-1.21,2.29-2.77,4.72-4.68,7.07h1.08l1.63-2.15c0,0,1.53,1.22,2.67,2.29
				c0.87-3.22,1.56-6.73,1.87-10.2l5.58,1.32c-0.1,0.45-0.52,0.77-1.35,0.8c-0.49,1.98-1.08,3.82-1.73,5.55h4.03l2.15-2.77
				c0,0,2.43,1.94,3.85,3.23c-0.1,0.38-0.45,0.56-0.94,0.56H126.06z M105.31,208.41h0.14c1.01-1.49,1.91-2.98,2.74-4.47h-2.88
				V208.41z M118.39,207.02c-0.52,1.25-1.11,2.43-1.7,3.54c0.62,2.64,1.46,5,2.6,7.11c1.35-3.26,2.05-6.83,2.32-10.65H118.39z"/>
			<path d="M168.71,205.39v3.09h2.36l1.67-1.88l3.54,2.74c-0.21,0.24-0.66,0.52-1.28,0.63v16.38c0,2.63-0.45,4.02-3.89,4.34
				c-0.04-1.11-0.07-2.08-0.31-2.6c-0.24-0.59-0.62-0.97-1.46-1.14v-0.49c0,0,1.22,0.07,1.63,0.07c0.38,0,0.45-0.17,0.45-0.55v-4.86
				h-2.71v7.98c0,0.45-1.49,1.28-2.81,1.28h-0.69v-9.26h-2.43v8.4c0,0.38-1.35,1.18-2.84,1.18h-0.56v-7.25h-0.14h-6.04v6.35
				c0,0.2-1.14,1.01-2.98,1.01h-0.66v-7.36h-5.69l-0.28-0.97h5.97v-4.16h-1.49v0.83c0,0.32-1.42,1.08-2.81,1.08h-0.52v-14.4
				l3.5,1.42h1.32v-3.16h-5.66l-0.28-0.97h5.93v-4.86l4.79,0.41c-0.03,0.45-0.31,0.77-1.14,0.9v3.54h0.83l1.98-2.6
				c0,0,2.25,1.77,3.64,3.02c-0.1,0.38-0.45,0.56-0.94,0.56h-5.52v3.16h1.32l1.49-1.56l3.16,2.36c-0.17,0.24-0.59,0.48-1.14,0.59
				v9.85c-0.03,0.28-1.59,1.04-2.67,1.04h-0.55v-1.22h-1.6v4.16h1.35l1.98-2.56c0,0,1.53,1.21,2.84,2.32v-15.3l3.58,1.56h2.25v-3.09
				h-6.32l-0.28-0.97h6.59v-5.93l4.89,0.49c-0.1,0.52-0.38,0.93-1.39,1.07v4.37h2.25l1.32-1.77c-0.14-1.22-1.01-2.64-1.84-3.43
				l0.31-0.21c5.34,0.25,5.17,3.23,3.57,3.96c0.73,0.59,1.56,1.28,2.19,1.87c-0.1,0.38-0.45,0.56-0.94,0.56H168.71z M148.06,208.24
				v4.13h1.66v-4.13H148.06z M148.06,217.29h1.66v-3.95h-1.66V217.29z M153.02,208.24v4.13h1.77v-4.13H153.02z M154.8,217.29v-3.95
				h-1.77v3.95H154.8z M162.77,209.45v4.68h2.43v-4.68H162.77z M165.2,220.1v-4.99h-2.43v4.99H165.2z M168.71,209.45v4.68h2.71
				v-4.68H168.71z M171.41,220.1v-4.99h-2.71v4.99H171.41z"/>
			<path d="M204.45,200.01c-0.14,0.45-0.59,0.77-1.39,0.73c-1.08,2.67-2.29,5.1-3.68,7.25l1.59,0.59c-0.1,0.31-0.41,0.52-1.07,0.66
				v20.33c-0.07,0.32-1.74,1.18-3.33,1.18h-0.8v-18.08c-1.35,1.46-2.81,2.78-4.34,3.89l-0.38-0.28c3.02-4.3,6.04-11.24,7.56-18.11
				L204.45,200.01z M219.86,222.98c0,0,2.71,2.19,4.34,3.71c-0.1,0.38-0.49,0.56-1.04,0.56h-21.72l-0.31-1.11h16.34L219.86,222.98z
				 M202.82,205.43h13.22l2.32-3.12c0,0,2.64,2.19,4.27,3.71c-0.1,0.35-0.48,0.52-1.04,0.52h-18.46L202.82,205.43z"/>
			<path d="M257.33,209.69c1.22,6.42,5.24,12.8,14.95,16.73l-0.07,0.38c-2.12,0.38-3.37,1.66-3.75,4.02
				c-8.08-4.92-10.69-13.36-11.62-20.3c-1.04,8.26-4.51,15.34-17.11,20.3l-0.31-0.52c9.64-5.83,12.35-12.7,13.11-20.61h-12.53
				l-0.28-1.01h12.87c0.24-3.26,0.21-6.73,0.21-10.34l5.83,0.55c-0.1,0.52-0.42,0.87-1.25,1.01c-0.07,3.02-0.1,5.97-0.35,8.78h7.81
				l2.57-3.16c0,0,2.81,2.12,4.55,3.61c-0.1,0.38-0.49,0.56-1.01,0.56H257.33z"/>
			<path d="M292.14,212.4c0.31,2.01-0.28,3.61-1.84,4.3c-2.64,1.11-4.41-2.22-1.49-3.75c0.97-0.48,1.91-1.8,1.87-3.78l0.42-0.04
				c0.38,0.8,0.66,1.56,0.87,2.29h0.49l-0.35-11.69l3.16,0.62c1.07-0.76,2.15-1.63,2.74-2.19l2.78,2.12l0.1-0.1
				c1.04,0.04,1.94,0.17,2.67,0.35c0.52-0.69,0.94-1.42,1.25-2.08l3.19,1.63c-0.14,0.32-0.48,0.38-1.11,0.25
				c-0.31,0.41-0.73,0.8-1.18,1.21c1.73,1.39,0.93,3.23-0.7,2.67c-0.28-0.38-0.69-0.83-1.14-1.25c-1.14,0.76-2.43,1.45-3.64,1.94
				l-0.07-0.11c-0.1,0.28-0.42,0.38-0.8,0.38h-3.54l0.1,2.67h0.8l1.28-1.7c0,0,1.46,1.22,2.36,2.15c-0.1,0.38-0.42,0.55-0.87,0.55
				h-3.57l0.1,2.57h14.92l0.1-2.57h-2.85l-0.28-1h3.19l0.1-2.67h-2.88l-0.31-0.97h3.26l0.14-2.7h-3.44l-0.28-1.01h3.4l1.53-1.8
				l3.64,2.77c-0.28,0.28-0.56,0.42-1.22,0.49l-0.45,9.12l1.77-1.74l3.61,3.47c-0.28,0.28-0.62,0.35-1.32,0.38
				c-1.32,0.8-3.54,1.94-5,2.6l-0.31-0.24c0.28-0.8,0.69-2.12,1.01-3.16H292.14z M315.18,218.44c0,0,2.43,2.01,3.85,3.37
				c-0.1,0.38-0.45,0.55-0.97,0.55h-12.35v3.61c0,2.84-0.63,4.4-5.31,4.82c-0.1-1.28-0.31-2.19-0.87-2.85
				c-0.55-0.62-1.35-1.08-3.19-1.35v-0.49c0,0,3.92,0.25,4.68,0.25c0.52,0,0.7-0.14,0.7-0.59v-3.4h-13.29l-0.28-1.01h13.57v-2.78
				l3.09,0.28c0.87-0.76,1.77-1.63,2.5-2.39h-12.38l-0.31-1.01h13.25l2.19-2.08l3.75,3.29c-0.31,0.28-0.66,0.38-1.42,0.42
				c-1.53,0.59-3.54,1.35-5.52,1.94c-0.07,0.52-0.42,0.76-1.14,0.87v1.46h7.28L315.18,218.44z M297.9,202.61c0,0,1.18,0.9,2.05,1.74
				c0.9-0.69,1.8-1.59,2.6-2.53c-0.56-0.41-1.14-0.8-1.66-1.11c-0.21,0.07-0.52,0.04-0.87-0.07c-0.97,0.32-2.6,0.66-4.3,0.9
				l0.07,2.67h0.87L297.9,202.61z M308.52,206.09c-0.17,0.35-0.55,0.42-1.11,0.28c-0.35,0.49-0.83,0.94-1.35,1.42
				c1.77,1.6,0.83,3.61-0.94,2.88c-0.24-0.45-0.59-0.97-1.04-1.46c-1.32,0.83-2.81,1.52-4.27,1.98l-0.28-0.52
				c1.14-0.73,2.29-1.67,3.26-2.71c-0.7-0.59-1.46-1.14-2.12-1.56l0.35-0.35c1.18,0.1,2.15,0.27,2.95,0.55
				c0.56-0.66,0.97-1.39,1.32-2.05L308.52,206.09z"/>
		</g>
		<g>
			<g>
				<g>
					<path d="M89.33,246.94l0.04,0.05h0.3h0.11l0.01-0.11l0.07-2.37l-0.09-0.03c-0.53-0.16-1-0.28-1.42-0.36
						c-0.43-0.1-0.81-0.16-1.14-0.21c-0.34-0.05-0.65-0.09-0.94-0.1c-0.29-0.01-0.57-0.02-0.84-0.02c-0.26,0-0.62,0.02-1.08,0.04
						c-0.45,0.02-0.96,0.1-1.53,0.24c-0.57,0.14-1.15,0.36-1.78,0.65c-0.62,0.31-1.22,0.73-1.78,1.26c-0.51,0.48-0.91,0.98-1.22,1.5
						c-0.29,0.5-0.51,1-0.66,1.48c-0.15,0.47-0.25,0.91-0.29,1.32c-0.04,0.41-0.06,0.73-0.06,0.98c0,0.74,0.1,1.46,0.29,2.15
						c0.19,0.67,0.49,1.3,0.87,1.88v0c0.38,0.58,0.85,1.1,1.39,1.54c0.55,0.45,1.18,0.81,1.88,1.08l0,0
						c0.35,0.16,0.7,0.26,1.05,0.33c0.34,0.08,0.66,0.13,0.95,0.17c0.29,0.03,0.55,0.06,0.78,0.06c0.23,0.01,0.41,0.01,0.54,0.01
						c0.55,0,1.16-0.04,1.84-0.13c0.68-0.07,1.29-0.19,1.82-0.34l0,0h0c0.22-0.07,0.43-0.13,0.65-0.19l0,0
						c0.21-0.06,0.43-0.13,0.65-0.22l0.08-0.02l-0.08-2.39h-0.35h-0.08l-0.03,0.07c-0.03,0.1-0.09,0.23-0.15,0.38
						c-0.06,0.14-0.16,0.31-0.34,0.51l-0.31,0.29l0,0c-0.12,0.1-0.29,0.21-0.5,0.31h0h0c-0.27,0.12-0.53,0.22-0.83,0.29
						c-0.29,0.07-0.56,0.12-0.83,0.16c-0.26,0.04-0.49,0.06-0.68,0.07c-0.19,0-0.33,0.01-0.41,0.01c-0.22,0-0.51-0.01-0.86-0.04
						c-0.36-0.02-0.74-0.11-1.15-0.23l0,0c-0.43-0.13-0.85-0.32-1.29-0.57c-0.43-0.26-0.87-0.62-1.29-1.08v-0.01v0.01
						c-0.15-0.17-0.33-0.39-0.52-0.66c-0.18-0.26-0.35-0.57-0.51-0.93c-0.15-0.36-0.29-0.77-0.4-1.23c-0.1-0.46-0.16-0.98-0.16-1.56
						c0-0.63,0.06-1.18,0.19-1.68c0.14-0.5,0.3-0.93,0.49-1.29c0.19-0.37,0.39-0.68,0.61-0.93c0.22-0.26,0.43-0.48,0.62-0.63l0,0
						c0.42-0.36,0.84-0.63,1.29-0.83c0.44-0.21,0.86-0.35,1.26-0.43c0.4-0.09,0.76-0.14,1.08-0.16c0.33-0.02,0.59-0.03,0.76-0.03
						c0.5,0,1.05,0.05,1.63,0.16c0.57,0.11,1.06,0.32,1.47,0.64l0,0c0.26,0.22,0.44,0.44,0.56,0.65l0,0
						C89.17,246.65,89.27,246.82,89.33,246.94z"/>
					<path d="M94.53,257.72v-0.1l-0.1-0.01c-0.13-0.02-0.27-0.07-0.39-0.13l-0.28-0.28l-0.08-0.2l-0.01-0.13
						c0-0.11,0.03-0.27,0.11-0.46l0,0c0.08-0.19,0.17-0.43,0.29-0.72l0,0l1.13-2.63h4.77l1.05,2.54l0,0
						c0.07,0.17,0.13,0.34,0.21,0.48c0.07,0.16,0.13,0.31,0.19,0.48c0.03,0.14,0.05,0.25,0.05,0.31l0,0v0.12l-0.08,0.2
						c-0.08,0.16-0.18,0.24-0.31,0.31c-0.16,0.06-0.32,0.11-0.48,0.13l-0.1,0.01l-0.03,0.33l0,0.13h4.4v-0.12v-0.2v-0.07l-0.07-0.04
						c-0.14-0.05-0.32-0.14-0.53-0.26c-0.18-0.09-0.38-0.29-0.58-0.62l-0.13-0.26l-0.15-0.33l0,0l-0.15-0.33l-0.12-0.27l-4.93-11.57
						h-0.25h-0.08l-5.34,11.96l0,0c-0.13,0.3-0.25,0.54-0.36,0.75l0,0c-0.11,0.19-0.22,0.35-0.33,0.46l-0.36,0.29
						c-0.12,0.06-0.27,0.11-0.45,0.13l-0.1,0.01v0.34v0.12h3.6V257.72z M95.73,251.88l1.92-4.27l1.82,4.27H95.73z"/>
					<path d="M107.79,256.94c-0.08,0.17-0.19,0.32-0.32,0.41l-0.39,0.19l-0.26,0.07l-0.08,0.02l-0.03,0.32l-0.01,0.13h4.43v-0.36
						v-0.09l-0.09-0.02c-0.25-0.06-0.43-0.13-0.53-0.2l-0.31-0.23l-0.2-0.33l-0.08-0.37l0,0c-0.01-0.14-0.01-0.31-0.01-0.51
						c0-0.18,0-0.42,0-0.68v-9.9h2.89c0.43,0,0.76,0.06,1,0.16c0.2,0.11,0.36,0.35,0.43,0.82l0.02,0.1h0.31h0.13v-0.12v-2.04v-0.13
						h-11.51v2.33h0.35h0.1l0.02-0.1c0.02-0.07,0.04-0.19,0.07-0.36c0.02-0.14,0.11-0.28,0.26-0.4c0.12-0.11,0.28-0.18,0.46-0.22
						c0.19-0.05,0.47-0.07,0.84-0.08l0,0h2.66v10.74C107.91,256.48,107.86,256.75,107.79,256.94z"/>
					<path d="M120.23,257.72v-0.1l-0.28-0.04l-0.26-0.11l-0.28-0.18l-0.22-0.3c-0.06-0.14-0.08-0.31-0.09-0.52
						c-0.01-0.23-0.01-0.52-0.01-0.9v-4.26h7.34v4.24c0,0.31-0.01,0.6-0.02,0.84c0,0.23-0.02,0.41-0.04,0.5l-0.08,0.19l-0.08,0.12
						l-0.33,0.28c-0.15,0.06-0.3,0.11-0.45,0.13l-0.1,0.01l-0.02,0.33l-0.01,0.13h4.25v-0.36v-0.09l-0.09-0.02
						c-0.18-0.03-0.32-0.08-0.44-0.14l-0.35-0.27l-0.21-0.39c-0.03-0.13-0.05-0.27-0.06-0.45l0,0l-0.02-0.4v-0.41v-8.9
						c0-0.16,0-0.39,0.01-0.68l0,0c0-0.29,0.04-0.51,0.08-0.63l0,0l0.2-0.32l0.29-0.21l0.28-0.11l0.19-0.05l0.1-0.01v-0.1v-0.21
						v-0.13h-4.21v0.34v0.11l0.27,0.04l0.29,0.09l0.29,0.18l0.2,0.31c0.04,0.12,0.07,0.28,0.07,0.5c0,0.23,0,0.52,0,0.85v3.53h-7.34
						v-3.55c0-0.34,0.01-0.62,0.03-0.86c0.02-0.23,0.07-0.39,0.11-0.51l0.21-0.28l0.26-0.15l0.25-0.08l0.19-0.05l0.09-0.02v-0.3
						v-0.13h-4.22v0.34v0.1l0.29,0.07l0.28,0.09l0.27,0.18l0.21,0.32c0.06,0.17,0.09,0.34,0.1,0.5l0,0v0.21c0,0.16,0,0.36-0.01,0.6
						v0v8.99c0,0.32,0,0.59,0,0.83c-0.01,0.25-0.03,0.41-0.06,0.51l0,0l-0.2,0.34l-0.3,0.21l-0.28,0.1l-0.2,0.04l-0.1,0.02v0.33
						v0.12h4.22V257.72z"/>
					<path d="M145.02,256.12L145.02,256.12c0.42-0.46,0.75-0.94,0.99-1.43l0,0c0.24-0.47,0.42-0.93,0.54-1.36l0,0
						c0.12-0.43,0.19-0.82,0.22-1.18c0.02-0.35,0.04-0.63,0.04-0.88c0-0.68-0.07-1.3-0.21-1.86c-0.13-0.57-0.3-1.06-0.5-1.49
						c-0.2-0.43-0.41-0.81-0.63-1.12c-0.23-0.31-0.43-0.56-0.61-0.77c-0.19-0.2-0.43-0.43-0.74-0.68c-0.31-0.27-0.68-0.51-1.12-0.75
						c-0.44-0.22-0.95-0.42-1.51-0.58c-0.58-0.16-1.22-0.23-1.92-0.23c-0.82,0-1.56,0.1-2.21,0.3c-0.66,0.21-1.22,0.45-1.7,0.73
						c-0.49,0.29-0.89,0.58-1.23,0.91c-0.33,0.32-0.6,0.6-0.79,0.84l0,0l0,0c-0.15,0.18-0.31,0.41-0.49,0.69
						c-0.18,0.29-0.36,0.62-0.52,1.01c-0.17,0.39-0.3,0.83-0.42,1.32l0,0c-0.11,0.51-0.16,1.06-0.16,1.66
						c0,0.77,0.09,1.44,0.26,2.05c0.17,0.6,0.38,1.13,0.64,1.6c0.26,0.45,0.52,0.86,0.82,1.16c0.29,0.32,0.54,0.57,0.76,0.77v0
						c0.71,0.58,1.47,1.01,2.3,1.27c0.82,0.25,1.68,0.38,2.58,0.38c1.13,0,2.16-0.17,3.09-0.53
						C143.42,257.6,144.26,256.99,145.02,256.12z M144.4,253.82L144.4,253.82c-0.19,0.53-0.45,1.01-0.75,1.43
						c-0.31,0.44-0.67,0.8-1.09,1.11c-0.41,0.31-0.87,0.54-1.37,0.7c-0.51,0.17-1.04,0.25-1.61,0.25c-0.67,0-1.26-0.1-1.77-0.3
						c-0.51-0.2-0.95-0.42-1.31-0.7l0-0.01c-0.36-0.27-0.66-0.54-0.89-0.84h-0.01c-0.23-0.29-0.42-0.56-0.54-0.75l0,0
						c-0.24-0.38-0.43-0.75-0.57-1.12l0,0c-0.14-0.37-0.24-0.71-0.3-1.03v0c-0.06-0.32-0.1-0.61-0.13-0.87
						c-0.02-0.27-0.02-0.48-0.02-0.66c0-0.68,0.06-1.27,0.19-1.8c0.13-0.53,0.3-0.99,0.5-1.38l0-0.01c0.2-0.39,0.42-0.72,0.67-1
						c0.24-0.28,0.48-0.51,0.69-0.68l0,0c0.32-0.25,0.64-0.45,0.97-0.61c0.34-0.15,0.66-0.26,0.95-0.33
						c0.29-0.08,0.56-0.12,0.79-0.14c0.24-0.02,0.44-0.04,0.57-0.04c0.55,0,1.03,0.07,1.45,0.19c0.43,0.13,0.8,0.28,1.11,0.46
						c0.33,0.18,0.6,0.36,0.81,0.56v0.01c0.22,0.2,0.4,0.38,0.53,0.55c0.17,0.21,0.35,0.48,0.55,0.8c0.19,0.31,0.37,0.68,0.53,1.13
						l0,0c0.15,0.44,0.27,0.93,0.35,1.47c0.05,0.34,0.06,0.68,0.06,1.06c0,0.25-0.01,0.51-0.03,0.77c-0.01,0.15-0.03,0.39-0.08,0.7
						C144.62,253.06,144.53,253.42,144.4,253.82z"/>
					<path d="M149.84,244.8l0.31,0.23c0.09,0.08,0.17,0.2,0.23,0.35c0.04,0.12,0.07,0.32,0.09,0.58l0,0
						c0.01,0.26,0.02,0.57,0.02,0.91v8.08c0,0.35,0,0.68-0.01,1.01c0,0.31-0.01,0.52-0.02,0.61l0,0c-0.03,0.23-0.1,0.39-0.18,0.5
						l-0.29,0.3l-0.34,0.17l-0.29,0.07l-0.09,0.02v0.33v0.12h10v-2.39h-0.35h-0.09l-0.02,0.1c-0.07,0.2-0.13,0.37-0.18,0.49
						l-0.19,0.27l-0.33,0.21l-0.4,0.1l0,0c-0.15,0.01-0.29,0.03-0.43,0.03c-0.14,0.01-0.28,0.02-0.41,0.02h-2.66l0,0
						c-0.34-0.02-0.59-0.03-0.76-0.04c-0.16-0.01-0.3-0.04-0.46-0.12l0,0c-0.23-0.13-0.35-0.3-0.41-0.54l0,0
						c-0.04-0.26-0.09-0.64-0.09-1.13l0,0v-8.25l0,0c0-0.34,0.02-0.63,0.03-0.9l0,0c0.02-0.26,0.03-0.46,0.05-0.57
						c0.05-0.15,0.12-0.27,0.2-0.35l0.29-0.23l0.29-0.11l0.21-0.05l0.1-0.01v-0.1v-0.21v-0.13h-4.43v0.34v0.1l0.29,0.07
						L149.84,244.8z"/>
					<path d="M164.91,257.44L164.91,257.44l-0.39-0.29l-0.18-0.38l-0.02-0.3v-0.01l0-0.01c-0.02-0.15-0.03-0.29-0.03-0.44
						c0-0.15,0-0.32,0-0.49v-8.87c0-0.32,0-0.59,0-0.81l0,0c0.01-0.23,0.03-0.38,0.06-0.5l0,0c0.05-0.16,0.12-0.27,0.19-0.35
						l0.27-0.2l0.28-0.09l0.2-0.05l0.1-0.01v-0.1v-0.21v-0.13h-4.28v0.34v0.1l0.32,0.07l0.3,0.09l0.3,0.22
						c0.09,0.08,0.17,0.2,0.23,0.37c0.05,0.14,0.08,0.3,0.09,0.48l0,0c0,0.18,0,0.45,0,0.79v8.85c-0.01,0.45-0.02,0.78-0.02,1.04
						c0,0.22-0.07,0.42-0.18,0.57l0,0c-0.12,0.17-0.25,0.28-0.39,0.34c-0.16,0.07-0.34,0.12-0.52,0.16l-0.1,0.02v0.33v0.12h4.33
						v-0.36v-0.08l-0.08-0.03C165.23,257.56,165.07,257.51,164.91,257.44z"/>
					<path d="M169.13,255.3L169.13,255.3c0.38,0.58,0.85,1.09,1.39,1.53c0.56,0.45,1.18,0.81,1.87,1.08l0,0
						c0.36,0.16,0.71,0.26,1.05,0.33c0.35,0.08,0.66,0.13,0.95,0.17c0.3,0.03,0.56,0.06,0.79,0.06c0.22,0.01,0.4,0.01,0.53,0.01
						c0.55,0,1.17-0.04,1.84-0.13c0.68-0.07,1.29-0.19,1.82-0.34l0,0l0,0c0.22-0.07,0.44-0.13,0.65-0.19l0,0
						c0.21-0.06,0.43-0.13,0.65-0.22l0.08-0.02l-0.08-2.39h-0.35h-0.08l-0.04,0.07c-0.04,0.1-0.09,0.23-0.15,0.38
						c-0.06,0.14-0.17,0.31-0.35,0.51l-0.31,0.29l0,0c-0.12,0.1-0.29,0.21-0.51,0.31l0,0c-0.26,0.12-0.54,0.22-0.82,0.29
						c-0.3,0.07-0.58,0.12-0.84,0.16c-0.26,0.04-0.49,0.06-0.68,0.07c-0.21,0-0.34,0.01-0.42,0.01c-0.22,0-0.5-0.01-0.86-0.04
						c-0.35-0.02-0.73-0.11-1.15-0.23h0c-0.42-0.13-0.84-0.32-1.29-0.57c-0.43-0.26-0.87-0.62-1.29-1.08l0-0.01l0,0.01
						c-0.16-0.17-0.34-0.39-0.53-0.66c-0.17-0.26-0.35-0.57-0.5-0.93c-0.16-0.36-0.29-0.77-0.4-1.23c-0.1-0.46-0.16-0.98-0.16-1.56
						c0-0.63,0.06-1.18,0.2-1.68c0.13-0.5,0.29-0.93,0.48-1.29c0.18-0.37,0.39-0.68,0.61-0.93c0.22-0.26,0.43-0.48,0.61-0.63l0,0
						c0.42-0.36,0.85-0.63,1.29-0.83c0.45-0.21,0.87-0.35,1.26-0.43c0.41-0.09,0.76-0.14,1.09-0.16c0.32-0.02,0.57-0.03,0.75-0.03
						c0.51,0,1.05,0.05,1.63,0.16c0.57,0.11,1.06,0.32,1.47,0.64l0,0c0.26,0.22,0.45,0.44,0.57,0.65l0,0
						c0.13,0.23,0.22,0.4,0.29,0.52l0.03,0.05h0.3h0.12v-0.11l0.08-2.37l-0.09-0.03c-0.53-0.16-1-0.28-1.42-0.36
						c-0.42-0.1-0.8-0.16-1.14-0.21c-0.34-0.05-0.65-0.09-0.94-0.1c-0.28-0.01-0.57-0.02-0.84-0.02c-0.25,0-0.62,0.02-1.06,0.04
						c-0.46,0.02-0.98,0.1-1.54,0.24c-0.55,0.14-1.15,0.36-1.76,0.65c-0.63,0.31-1.22,0.73-1.78,1.26c-0.51,0.48-0.91,0.98-1.21,1.5
						c-0.3,0.5-0.52,1-0.66,1.48c-0.15,0.47-0.25,0.91-0.29,1.32c-0.04,0.41-0.06,0.73-0.06,0.98c0,0.74,0.09,1.46,0.29,2.15
						C168.46,254.09,168.74,254.72,169.13,255.3z"/>
					<path d="M199.51,257.41v-0.01c0,0,0,0,0,0L199.51,257.41z"/>
					<path d="M206.34,244.52v0.1l0.22,0.04l0.23,0.06l0.27,0.12l0.22,0.18c0.14,0.17,0.22,0.4,0.23,0.7c0,0.32,0,0.57,0,0.79v6.19
						c0,0.33,0,0.62-0.02,0.86c-0.03,0.25-0.05,0.48-0.08,0.68c-0.02,0.2-0.07,0.36-0.12,0.51c-0.05,0.16-0.1,0.32-0.17,0.49l0,0
						c-0.08,0.2-0.18,0.36-0.28,0.52h0c-0.09,0.14-0.16,0.24-0.2,0.29c-0.11,0.12-0.25,0.25-0.42,0.39l0,0
						c-0.18,0.14-0.39,0.26-0.64,0.37c-0.25,0.12-0.54,0.22-0.87,0.29l0,0c-0.33,0.08-0.7,0.13-1.11,0.13
						c-0.62,0-1.21-0.12-1.79-0.34l0,0.01c-0.58-0.23-1.06-0.59-1.45-1.09c-0.19-0.25-0.34-0.5-0.45-0.75
						c-0.1-0.26-0.18-0.52-0.23-0.8c-0.05-0.27-0.08-0.54-0.1-0.82c-0.01-0.28-0.02-0.58-0.02-0.88v-6.11l0,0
						c0.02-0.27,0.02-0.51,0.03-0.72c0-0.19,0.04-0.36,0.1-0.5l0,0l0.28-0.35c0.14-0.09,0.36-0.18,0.66-0.26l0.08-0.01l0.03-0.3
						l0-0.14h-4.27v0.34v0.09l0.09,0.02c0.36,0.1,0.61,0.21,0.7,0.3l0.01,0l0.01,0c0.17,0.14,0.25,0.28,0.28,0.5
						c0.02,0.24,0.04,0.57,0.04,0.99v6.23l0,0.38c0,0.47,0.02,0.85,0.06,1.17c0.05,0.38,0.13,0.73,0.24,1.04l0,0
						c0.13,0.38,0.33,0.75,0.58,1.12c0.26,0.38,0.61,0.72,1.03,1.02l0,0c0.43,0.31,0.96,0.55,1.58,0.75
						c0.63,0.19,1.36,0.28,2.22,0.28c0.88,0,1.62-0.11,2.24-0.32h0.01c0.61-0.2,1.12-0.48,1.53-0.81c0.41-0.34,0.73-0.7,0.95-1.11
						c0.22-0.4,0.39-0.8,0.5-1.18l0,0c0.07-0.25,0.12-0.51,0.15-0.77l0,0c0.03-0.25,0.05-0.5,0.06-0.72l0,0
						c0-0.21,0.01-0.41,0.01-0.57c0-0.16,0-0.28,0-0.35v-6.23c0-0.34,0-0.62,0.02-0.8v-0.01c0.01-0.16,0.06-0.31,0.16-0.44l0,0
						c0.11-0.17,0.23-0.27,0.37-0.32h0c0.16-0.07,0.34-0.12,0.53-0.18l0.08-0.02v-0.09v-0.21v-0.13h-3.56V244.52z"/>
					<path d="M222.83,244.52v0.1l0.1,0.01c0.47,0.1,0.75,0.26,0.86,0.42c0.13,0.18,0.2,0.39,0.23,0.61v0.01l0,0l0.03,0.32v0.09
						c0,0.14-0.01,0.24-0.01,0.28v7.99l-8.99-10.19h-2.96v0.34v0.11l0.11,0.01c0.19,0.02,0.36,0.06,0.52,0.12
						c0.14,0.06,0.26,0.15,0.35,0.33l0,0h0c0.07,0.12,0.12,0.27,0.12,0.44l0,0c0,0.18,0.01,0.44,0.01,0.76v9.69
						c0,0.18-0.01,0.4-0.03,0.66c-0.02,0.25-0.09,0.43-0.19,0.56l0,0h-0.01c-0.13,0.18-0.27,0.28-0.43,0.32
						c-0.19,0.05-0.32,0.08-0.38,0.09l-0.09,0.02l-0.03,0.32l-0.01,0.13h3.61v-0.36v-0.09l-0.09-0.02
						c-0.29-0.06-0.51-0.16-0.68-0.28l0,0c-0.16-0.11-0.27-0.31-0.33-0.62l-0.02-0.29l0,0c-0.01-0.11-0.01-0.24-0.01-0.44v-9.45
						l10.4,11.77h0.23h0.12v-11.95l0,0c0-0.27,0.02-0.55,0.03-0.81l0,0c0.02-0.23,0.12-0.42,0.34-0.61l0.26-0.15
						c0.1-0.05,0.25-0.09,0.42-0.13l0.09-0.01l0-0.09l0.02-0.2l0.02-0.14h-3.62V244.52z"/>
					<path d="M232.51,257.44L232.51,257.44l-0.38-0.29l-0.18-0.38l-0.03-0.3v-0.01v-0.01c-0.02-0.15-0.04-0.29-0.04-0.44
						c0-0.15,0-0.32,0-0.49v-8.87c0-0.32,0-0.59,0.01-0.81l0,0c0.01-0.23,0.03-0.38,0.06-0.5l0,0c0.05-0.16,0.11-0.27,0.19-0.35
						l0.27-0.2l0.27-0.09l0.21-0.05l0.09-0.01v-0.1v-0.21v-0.13h-4.28v0.34v0.1l0.32,0.07l0.31,0.09l0.31,0.22
						c0.09,0.08,0.17,0.2,0.23,0.37c0.04,0.14,0.07,0.3,0.07,0.48l0,0c0.02,0.18,0.02,0.45,0.02,0.79v8.85
						c-0.02,0.45-0.02,0.78-0.03,1.04c-0.01,0.22-0.06,0.42-0.18,0.57l0,0c-0.11,0.17-0.25,0.28-0.39,0.34
						c-0.16,0.07-0.33,0.12-0.51,0.16l-0.1,0.02v0.33v0.12h4.34v-0.36v-0.08l-0.09-0.03C232.84,257.56,232.67,257.51,232.51,257.44z
						"/>
					<path d="M244.44,244.52v0.09l0.48,0.14l0.31,0.25l0.07,0.17l0,0.13l-0.04,0.39l-0.11,0.36l-0.12,0.3l-0.07,0.14l-3.57,8.21
						l-3.39-8.21l0,0l-0.16-0.37l-0.12-0.38c-0.04-0.18-0.07-0.33-0.07-0.45c0-0.17,0.06-0.3,0.17-0.4c0.1-0.1,0.33-0.19,0.68-0.26
						l0.11-0.01v-0.31v-0.13h-4.36v0.34v0.1l0.09,0.01c0.16,0.04,0.29,0.09,0.38,0.11l0.33,0.23c0.17,0.15,0.28,0.31,0.36,0.47
						c0.08,0.19,0.14,0.31,0.16,0.38l0,0c0.1,0.2,0.18,0.38,0.27,0.57c0.08,0.2,0.16,0.4,0.24,0.59l0,0.01l4.75,11.25h0.27h0.08
						l5.02-11.41l0,0c0.1-0.23,0.22-0.5,0.35-0.8c0.13-0.3,0.26-0.57,0.39-0.77l0,0c0.14-0.2,0.28-0.34,0.4-0.42
						c0.13-0.09,0.32-0.15,0.57-0.21l0.1-0.01v-0.1v-0.21v-0.13h-3.56V244.52z"/>
					<path d="M258.53,255.68l-0.03,0.09c-0.05,0.16-0.1,0.31-0.16,0.46l0,0l-0.23,0.37l-0.01,0c-0.12,0.12-0.26,0.19-0.41,0.21l0,0
						c-0.18,0.03-0.3,0.04-0.35,0.03h-0.01l-0.41,0.04h-0.39h-1.81c-0.48-0.02-0.89-0.03-1.25-0.04c-0.35-0.02-0.58-0.09-0.7-0.18
						l-0.13-0.14l-0.07-0.11c-0.1-0.2-0.15-0.43-0.15-0.66c0-0.27-0.02-0.51-0.03-0.72l0,0v-3.78h2.86c0.29,0,0.57,0.02,0.86,0.07
						c0.25,0.04,0.44,0.18,0.6,0.45l0.09,0.19v0c0.03,0.07,0.06,0.18,0.1,0.33l0.01,0.09h0.33h0.13v-0.12v-3.39h-0.36h-0.1
						l-0.07,0.29l-0.1,0.29l-0.21,0.3l-0.33,0.21h0v0c-0.15,0.06-0.31,0.09-0.49,0.09c-0.18,0-0.46,0-0.81,0h-2.52v-4.71h3.55
						c0.25,0,0.48,0.02,0.69,0.07c0.18,0.04,0.33,0.17,0.46,0.41l0.12,0.27l0.09,0.29l0.02,0.09l0.31,0.02l0.12,0.01l0.05-2.34
						h-8.54v0.34v0.11l0.31,0.04l0.29,0.08l0.3,0.19c0.08,0.09,0.15,0.19,0.19,0.33l0.01,0.01v0.01c0.05,0.14,0.08,0.29,0.08,0.46
						c0,0.18,0,0.44,0,0.77v8.93h0l-0.02,0.38l0.01,0.18v0.19l-0.01,0.37c-0.01,0.2-0.06,0.36-0.14,0.52
						c-0.07,0.14-0.19,0.25-0.36,0.34l-0.25,0.12l-0.28,0.07l-0.09,0.02l-0.03,0.32l-0.01,0.13h9.68v-2.4h-0.35H258.53z"/>
					<path d="M272.59,257.33l-0.3-0.35l-0.17-0.27l0,0l0,0c-0.22-0.32-0.42-0.66-0.61-1.03h0l-2.65-4.86
						c0.07-0.05,0.14-0.08,0.25-0.12h0c0.17-0.09,0.35-0.21,0.55-0.36l0,0c0.21-0.14,0.4-0.32,0.6-0.53h0.01
						c0.21-0.21,0.38-0.45,0.53-0.74h0c0.23-0.44,0.34-0.94,0.34-1.48c0-0.51-0.08-0.95-0.25-1.31c-0.16-0.33-0.29-0.59-0.39-0.76h0
						l-0.01,0c-0.25-0.33-0.55-0.59-0.88-0.78l0,0c-0.33-0.16-0.66-0.31-1.03-0.39c-0.36-0.09-0.74-0.14-1.11-0.15
						c-0.38-0.02-0.73-0.02-1.1-0.02h-4.95v0.34v0.1l0.26,0.04l0.28,0.08l0.29,0.17l0.22,0.28c0.05,0.13,0.09,0.28,0.1,0.48
						c0.01,0.19,0.02,0.44,0.02,0.76v9.31l0,0c-0.01,0.3-0.02,0.56-0.03,0.78l0,0c0,0.21-0.03,0.36-0.08,0.46l-0.2,0.32l-0.28,0.18
						l-0.27,0.11l-0.18,0.02l-0.1,0.01v0.34v0.12h4.38v-0.36v-0.09l-0.09-0.02c-0.27-0.07-0.48-0.14-0.59-0.2l-0.32-0.23l-0.2-0.37
						c-0.03-0.11-0.04-0.26-0.06-0.43l0,0l-0.02-0.35l-0.02-0.37v-4.2c0.13,0,0.27,0,0.39,0.02c0.16,0.01,0.33,0.01,0.51,0.01
						c0.27,0,0.53-0.01,0.81-0.04c0.24-0.01,0.48-0.04,0.71-0.06l2.5,4.58l0,0c0.15,0.27,0.3,0.54,0.48,0.83
						c0.17,0.3,0.4,0.55,0.65,0.75l0,0h0l0,0l0,0c0.15,0.14,0.33,0.24,0.5,0.31l0,0c0.17,0.08,0.33,0.12,0.49,0.15h-0.01
						c0.15,0.04,0.3,0.06,0.42,0.06h0.29h0.77h0.12v-0.36v-0.08l-0.29-0.12L272.59,257.33z M269.03,248.59
						c-0.06,0.22-0.12,0.38-0.18,0.46h0v0.01c-0.15,0.27-0.32,0.49-0.53,0.63c-0.22,0.16-0.46,0.3-0.72,0.38l0,0
						c-0.27,0.08-0.55,0.14-0.84,0.18c-0.29,0.04-0.59,0.04-0.86,0.04h-1.33l0.04-4.89h1.37h0.01l0,0l0.28,0
						c0.27,0,0.56,0.01,0.84,0.04c0.36,0.04,0.69,0.16,1.02,0.37l0,0c0.35,0.22,0.6,0.5,0.76,0.87c0.16,0.36,0.25,0.75,0.25,1.13
						C269.12,248.12,269.09,248.38,269.03,248.59z"/>
					<path d="M282.47,251.42L282.47,251.42L282.47,251.42L282.47,251.42c-0.23-0.23-0.5-0.43-0.79-0.64
						c-0.3-0.18-0.58-0.37-0.83-0.54l0,0l-1.13-0.63l0,0c-0.33-0.21-0.67-0.43-1.02-0.68c-0.34-0.24-0.58-0.55-0.74-0.92
						c-0.06-0.17-0.1-0.33-0.1-0.46l0,0c-0.01-0.14-0.02-0.25-0.02-0.31c0-0.36,0.06-0.67,0.19-0.94c0.14-0.29,0.29-0.52,0.51-0.69
						l0,0c0.21-0.18,0.46-0.33,0.76-0.42c0.29-0.1,0.6-0.15,0.95-0.15c0.46,0,0.85,0.07,1.15,0.2v0c0.31,0.15,0.55,0.31,0.74,0.51
						l0,0c0.19,0.19,0.34,0.39,0.44,0.61c0.1,0.22,0.21,0.43,0.28,0.59l0.03,0.05h0.29h0.11v-0.11v-2.35l-0.07-0.03
						c-0.15-0.06-0.32-0.11-0.52-0.18l0,0c-0.2-0.09-0.43-0.16-0.68-0.22h0c-0.25-0.07-0.54-0.13-0.86-0.18
						c-0.32-0.05-0.67-0.08-1.07-0.08c-0.13,0-0.32,0.01-0.55,0.02c-0.23,0.02-0.51,0.06-0.79,0.13l0,0
						c-0.29,0.08-0.6,0.19-0.9,0.37c-0.32,0.17-0.62,0.39-0.89,0.68l0,0l0,0l0,0l0,0c-0.19,0.2-0.4,0.48-0.59,0.87
						c-0.23,0.41-0.33,0.93-0.33,1.58c0,0.21,0.02,0.44,0.06,0.7c0.04,0.26,0.12,0.52,0.24,0.78c0.12,0.27,0.3,0.54,0.54,0.83
						c0.24,0.3,0.55,0.57,0.95,0.84l0,0.01l0.38,0.23l0,0l0.38,0.23l1.23,0.73l0,0c0.39,0.23,0.74,0.48,1.06,0.73
						c0.31,0.24,0.56,0.57,0.73,0.99v0v0c0.03,0.07,0.08,0.21,0.13,0.39c0.05,0.17,0.08,0.37,0.08,0.62c0,0.38-0.05,0.66-0.14,0.87
						v0.02v-0.02c-0.1,0.24-0.18,0.42-0.24,0.54c-0.28,0.45-0.65,0.77-1.1,0.97c-0.45,0.21-0.93,0.32-1.46,0.32
						c-0.33,0-0.62-0.05-0.87-0.11c-0.25-0.07-0.48-0.16-0.67-0.27c-0.19-0.1-0.35-0.21-0.47-0.34l-0.31-0.34l-0.19-0.36l0,0
						c-0.07-0.13-0.16-0.31-0.25-0.56l-0.03-0.07l-0.29-0.02l-0.13-0.02v2.46l0.07,0.04c0.32,0.13,0.71,0.29,1.21,0.47l0,0
						c0.51,0.17,1.17,0.26,1.97,0.26c0.15,0,0.35-0.01,0.61-0.02c0.26-0.02,0.56-0.05,0.88-0.12l0,0c0.32-0.08,0.66-0.2,1-0.37
						c0.36-0.16,0.7-0.41,1.03-0.73c0.28-0.27,0.51-0.56,0.68-0.84c0.17-0.29,0.29-0.56,0.38-0.84c0.08-0.26,0.13-0.52,0.16-0.75
						l0,0c0.02-0.22,0.03-0.4,0.03-0.55C283.68,253.11,283.28,252.17,282.47,251.42L282.47,251.42z"/>
					<path d="M290.54,257.44L290.54,257.44l-0.39-0.29l-0.18-0.38l-0.03-0.3v-0.01v-0.01c-0.02-0.15-0.03-0.29-0.03-0.44
						c0-0.15,0-0.32,0-0.49v-8.87c0-0.32,0.01-0.59,0.01-0.81l0,0c0-0.23,0.02-0.38,0.06-0.5l0,0c0.04-0.16,0.11-0.27,0.19-0.35
						l0.27-0.2l0.28-0.09l0.2-0.05l0.1-0.01v-0.1v-0.21v-0.13h-4.28v0.34v0.1l0.32,0.07l0.31,0.09l0.31,0.22
						c0.09,0.08,0.17,0.2,0.23,0.37c0.05,0.14,0.07,0.3,0.08,0.48l0,0c0,0.18,0.01,0.45,0.01,0.79v8.85
						c-0.02,0.45-0.02,0.78-0.02,1.04c-0.01,0.22-0.07,0.42-0.19,0.57l0,0c-0.12,0.17-0.25,0.28-0.39,0.34
						c-0.17,0.07-0.34,0.12-0.53,0.16l-0.09,0.02v0.33v0.12h4.34v-0.36v-0.08l-0.08-0.03C290.86,257.56,290.7,257.51,290.54,257.44z
						"/>
					<path d="M292.4,246.52h0.35h0.11l0.02-0.1c0.01-0.07,0.03-0.19,0.07-0.36c0.02-0.14,0.1-0.28,0.25-0.4
						c0.13-0.11,0.27-0.18,0.46-0.22c0.18-0.05,0.46-0.07,0.83-0.08l0,0h2.67v10.74c0,0.37-0.05,0.65-0.13,0.83
						c-0.08,0.17-0.19,0.32-0.32,0.41l-0.38,0.19l-0.25,0.07l-0.08,0.02l-0.03,0.32l-0.01,0.13h4.43v-0.36v-0.09l-0.09-0.02
						c-0.24-0.06-0.43-0.13-0.53-0.2l-0.31-0.23l-0.21-0.33l-0.08-0.37l0,0c-0.02-0.14-0.02-0.31-0.02-0.51c0-0.18,0-0.42,0-0.68
						v-9.9h2.9c0.43,0,0.76,0.06,0.99,0.16c0.21,0.11,0.36,0.35,0.43,0.82l0.02,0.1h0.31h0.12v-0.12v-2.04v-0.13h-11.5V246.52z"/>
					<path d="M313.86,244.19v0.34v0.11l0.1,0.01c0.16,0.02,0.31,0.05,0.44,0.09l0,0c0.08,0.02,0.17,0.09,0.25,0.24l0.09,0.22
						l0.01,0.13l0,0c0,0.16-0.04,0.34-0.15,0.52c-0.11,0.2-0.21,0.38-0.29,0.52l0,0l-2.65,4.32l-2.76-4.32v-0.01
						c-0.1-0.13-0.2-0.3-0.31-0.51c-0.11-0.2-0.16-0.38-0.16-0.56c0-0.14,0.03-0.25,0.09-0.32l0.23-0.2l0.25-0.09l0.16-0.03
						l0.11-0.01v-0.31v-0.13h-4.36v0.34v0.09l0.09,0.02c0.15,0.04,0.26,0.09,0.36,0.12l0.25,0.16l0.21,0.23l0.23,0.31l0.18,0.26l0,0
						l0.18,0.25l3.86,5.99v4.02c0,0.37-0.01,0.65-0.03,0.82v0.01v-0.01c-0.02,0.16-0.1,0.31-0.23,0.47l-0.35,0.24
						c-0.14,0.04-0.31,0.08-0.49,0.1l-0.1,0.01l-0.03,0.33l-0.01,0.13h4.33v-0.36v-0.09l-0.1-0.02c-0.06-0.01-0.18-0.03-0.33-0.06
						l0,0l-0.39-0.21l0,0c-0.19-0.16-0.29-0.35-0.32-0.61c-0.03-0.27-0.05-0.52-0.05-0.76v-3.91l3.86-6.24l0,0
						c0.12-0.18,0.24-0.38,0.37-0.58l0,0c0.12-0.17,0.26-0.32,0.43-0.41l0.32-0.15l0.22-0.05l0.09-0.01v-0.1v-0.21v-0.13H313.86z"/>
					<path d="M1.05,244.03v0.11l0.31,0.02l0.3,0.11l0.31,0.19c0.08,0.08,0.15,0.18,0.19,0.35h0.01v0.02
						c0.04,0.09,0.07,0.23,0.07,0.39c0,0.19,0,0.42,0,0.71v9.5c0,0.36,0,0.67,0,0.92c0,0.25-0.04,0.43-0.09,0.56H2.14v0.02
						c-0.08,0.25-0.19,0.4-0.36,0.48c-0.19,0.1-0.41,0.17-0.64,0.24l-0.09,0.02v0.34v0.11h4.56v-0.35v-0.1l-0.09-0.02
						c-0.24-0.06-0.46-0.14-0.66-0.24c-0.18-0.07-0.32-0.23-0.42-0.47l-0.11-0.29l-0.03-0.32c0-0.13,0-0.27,0-0.43
						c0-0.16,0-0.36,0-0.57v-4.32h2.95l0,0c0.31,0.01,0.62,0.03,0.93,0.06c0.28,0.03,0.49,0.15,0.64,0.37l0.14,0.25
						c0.04,0.11,0.07,0.25,0.11,0.43l0.02,0.1h0.35h0.11v-0.13v-3.55H9.2h-0.1l-0.04,0.29l-0.08,0.29l-0.18,0.31l-0.29,0.22
						c-0.13,0.07-0.28,0.09-0.48,0.1c-0.19,0.01-0.44,0.01-0.76,0.01H4.31v-4.92h3.54l0,0c0.28,0,0.55,0.03,0.83,0.08l0,0
						c0.25,0.05,0.44,0.18,0.6,0.43l0.15,0.3l0.1,0.32l0.02,0.08h0.33h0.11l0.03-2.35H1.05V244.03z"/>
					<path d="M21.85,244.03v0.11l0.22,0.04l0.24,0.07l0.27,0.11l0.23,0.18c0.15,0.19,0.23,0.43,0.24,0.73
						c0.01,0.34,0.01,0.62,0.01,0.84v6.45c0,0.34-0.01,0.64-0.03,0.9v0.01c-0.02,0.25-0.04,0.48-0.08,0.7l0,0
						c-0.04,0.19-0.08,0.37-0.13,0.54c-0.05,0.16-0.1,0.33-0.17,0.5l0,0c-0.09,0.21-0.19,0.39-0.29,0.54l0,0
						c-0.09,0.14-0.17,0.25-0.22,0.32c-0.11,0.12-0.26,0.26-0.44,0.41l0,0c-0.17,0.14-0.4,0.27-0.66,0.38l0,0
						c-0.26,0.13-0.56,0.23-0.9,0.31c-0.34,0.08-0.73,0.13-1.16,0.13c-0.65,0-1.26-0.11-1.87-0.36c-0.6-0.22-1.1-0.6-1.51-1.12
						c-0.2-0.27-0.36-0.53-0.47-0.79l0,0c-0.1-0.27-0.2-0.55-0.24-0.82v-0.01c-0.05-0.29-0.08-0.57-0.1-0.86l0,0
						c-0.01-0.3-0.02-0.6-0.02-0.92v-6.35l0,0c0.01-0.28,0.02-0.53,0.03-0.75l0,0c0.01-0.2,0.04-0.38,0.1-0.52
						c0.06-0.14,0.16-0.26,0.3-0.36c0.14-0.1,0.37-0.2,0.68-0.27l0.09-0.02l0.02-0.31l0.02-0.13h-4.44v0.33v0.09l0.09,0.04
						c0.38,0.09,0.63,0.21,0.74,0.3h0l0.01,0.01c0.17,0.13,0.27,0.29,0.28,0.52c0.03,0.25,0.05,0.59,0.05,1.04v6.47v0.4
						c0,0.48,0.02,0.88,0.06,1.2c0.06,0.38,0.14,0.75,0.25,1.09l0,0c0.14,0.39,0.34,0.78,0.61,1.16c0.26,0.4,0.63,0.75,1.08,1.06
						c0.45,0.33,1,0.58,1.64,0.78c0.66,0.19,1.43,0.3,2.32,0.3c0.91,0,1.69-0.11,2.34-0.32l0,0c0.64-0.22,1.17-0.5,1.59-0.85l0,0
						c0.42-0.34,0.75-0.72,0.99-1.15v0c0.23-0.4,0.4-0.82,0.51-1.22v-0.01c0.07-0.26,0.12-0.52,0.15-0.78
						c0.04-0.27,0.05-0.52,0.06-0.75l0,0c0.01-0.23,0.02-0.43,0.02-0.6c0-0.17,0-0.3,0-0.37v-6.47c0-0.36,0-0.64,0.01-0.83l0,0
						c0.02-0.18,0.08-0.34,0.17-0.47l0,0l0,0c0.11-0.18,0.23-0.28,0.39-0.34c0.16-0.07,0.35-0.13,0.55-0.17l0.09-0.02v-0.11v-0.22
						v-0.11h-3.7V244.03z"/>
					<path d="M43.52,255.64l-0.02,0.08c-0.06,0.17-0.12,0.33-0.17,0.49l0,0l-0.25,0.38c-0.13,0.13-0.27,0.2-0.43,0.22
						c-0.19,0.03-0.31,0.04-0.36,0.04h-0.01l-0.02,0l-0.4,0.03h-0.4h-1.89c-0.49-0.01-0.93-0.03-1.3-0.05
						c-0.35-0.01-0.6-0.09-0.73-0.19l-0.14-0.14l-0.08-0.12c-0.1-0.21-0.15-0.43-0.16-0.68c-0.01-0.27-0.02-0.52-0.04-0.75l0,0
						v-3.94h2.98c0.31,0,0.6,0.01,0.9,0.07l0,0c0.26,0.04,0.46,0.19,0.62,0.47l0.08,0.21c0.02,0.07,0.06,0.18,0.11,0.35l0.02,0.09
						h0.33h0.12v-0.13v-3.52h-0.35h-0.1l-0.07,0.31l-0.1,0.29l-0.22,0.31l-0.34,0.22h0l0,0.01c-0.15,0.06-0.32,0.09-0.51,0.09
						c-0.2,0-0.48,0-0.84,0h-2.64v-4.91h3.7c0.26,0,0.5,0.02,0.72,0.08c0.19,0.05,0.34,0.18,0.48,0.42l0.12,0.29l0.08,0.31
						l0.03,0.08l0.32,0.03l0.12,0.01l0.05-2.42h-8.87v0.33v0.11l0.32,0.02l0.3,0.11l0.31,0.19c0.09,0.08,0.16,0.18,0.2,0.35h0
						l0,0.01c0.06,0.15,0.09,0.31,0.09,0.47c0,0.18,0,0.45,0,0.81v9.29l0,0l-0.02,0.38v0.2v0l0,0.19l-0.02,0.39l0,0
						c0,0.2-0.05,0.38-0.13,0.53c-0.07,0.16-0.19,0.28-0.38,0.37l-0.26,0.12l-0.3,0.07l-0.08,0.02L33.92,258l-0.01,0.12h10.07v-2.48
						H43.6H43.52z"/>
					<path d="M57.79,244.03v0.11l0.09,0.02c0.48,0.09,0.78,0.25,0.89,0.43l0,0c0.13,0.2,0.21,0.41,0.25,0.64v0.01v0l0.03,0.32v0.11
						l0,0c-0.01,0.15-0.01,0.24-0.01,0.3v8.32l-9.36-10.6H46.6v0.33v0.11l0.11,0.02c0.18,0.02,0.37,0.06,0.55,0.12l0,0
						c0.15,0.05,0.26,0.15,0.36,0.34l0,0l0,0.01c0.08,0.12,0.13,0.27,0.13,0.45l0,0l0,0c0.01,0.18,0.01,0.45,0.01,0.78v10.1
						c0,0.19-0.01,0.41-0.03,0.68l0,0c-0.02,0.25-0.08,0.45-0.21,0.59l0,0l0,0c-0.14,0.18-0.28,0.3-0.45,0.33h-0.01
						c-0.19,0.05-0.33,0.08-0.39,0.09l-0.08,0.02L46.56,258l-0.01,0.12h3.75v-0.35v-0.1l-0.1-0.02c-0.3-0.06-0.53-0.16-0.71-0.29
						v-0.01l0,0c-0.17-0.11-0.28-0.31-0.34-0.62l-0.04-0.31l0,0c0-0.12,0-0.26,0-0.46v-9.86l10.83,12.25h0.23h0.13v-12.43l0,0
						c0.01-0.3,0.02-0.58,0.03-0.84c0.01-0.24,0.12-0.44,0.36-0.63l0.27-0.16c0.1-0.05,0.25-0.1,0.44-0.13l0.09-0.02l0-0.09
						l0.03-0.22l0.01-0.13h-3.75V244.03z"/>
					<path d="M27.49,244.03v0.11l0.11,0.02c0.21,0.03,0.42,0.09,0.62,0.19c0.17,0.07,0.3,0.21,0.38,0.45
						c0.08,0.24,0.12,0.69,0.12,1.35v11.88c0,0.56-0.03,1.11-0.1,1.64c-0.06,0.52-0.27,1.01-0.64,1.44l0,0v0.01
						c-0.14,0.17-0.31,0.33-0.48,0.5c-0.19,0.16-0.32,0.25-0.34,0.27l-0.1,0.06l0.2,0.35l0.05,0.08l0.1-0.05
						c0.35-0.16,0.63-0.29,0.82-0.4l0,0c0.2-0.12,0.37-0.22,0.53-0.33l0,0c0.44-0.29,0.8-0.6,1.05-0.94l0,0
						c0.26-0.34,0.45-0.67,0.58-0.99l0,0c0.13-0.32,0.22-0.62,0.25-0.92c0.04-0.29,0.06-0.54,0.07-0.75l0,0v-11.86
						c0-0.55,0.02-0.96,0.07-1.23l0,0c0.04-0.25,0.17-0.43,0.44-0.58l0.25-0.13c0.05-0.02,0.18-0.04,0.36-0.06l0.1-0.02v-0.11v-0.22
						v-0.11h-4.46V244.03z"/>
				</g>
			</g>
		</g>
	</g>
	<g>
		<g>
			<path d="M142.76,71.95h-1.33v1.49h-3.55v2.92h3.55v1.93h-3.55v15.75h3.55v1.95h-3.55v2.91h3.55v2.08h1.33v-2.08h3.5v-2.91h-3.5
				v-1.95h3.5V78.28h-3.5v-1.93h3.5v-2.92h-3.5V71.95z M141.43,87.62v3.5h-2.22v-3.5H141.43z M141.43,81.2v3.5h-2.22v-3.5H141.43z
				 M144.93,87.62v3.5h-2.18v-3.5H144.93z M142.76,84.69v-3.5h2.18v3.5H142.76z"/>
			<path d="M152.66,78.28v-1.93h3.49l0-4.41h-1.32v1.49h-2.18v-1.49h-1.33v1.49h-3.48v2.92h3.48v1.93h-3.48v1.41h-0.01v21.18h1.32
				v-6.85h2.17v6.95h1.33v-6.95h2.18v6.85h1.32l0-22.59H152.66z M151.33,87.62v3.5h-2.17v-3.5H151.33z M151.33,81.2v3.5h-2.17v-3.5
				H151.33z M154.84,87.62v3.5h-2.18v-3.5H154.84z M154.84,81.2v3.5h-2.18v-3.5H154.84z"/>
		</g>
		<g>
			<polygon points="155.17,53.9 152.17,53.46 150.82,50.74 149.48,53.46 146.48,53.9 148.65,56.01 148.64,56.08 148.15,59.01 
				150.82,57.59 153.51,59.01 153,56.01 			"/>
			<polygon points="140.82,62.88 137.82,62.44 137.79,62.39 136.49,59.73 135.15,62.44 132.14,62.88 134.31,65 134.3,65.06 
				133.81,67.99 136.49,66.58 139.17,67.99 138.66,65 			"/>
			<polygon points="130.17,79.79 132.3,77.72 129.29,77.28 127.95,74.56 126.6,77.28 123.61,77.72 125.78,79.84 125.26,82.82 
				127.95,81.42 128.01,81.45 130.63,82.83 130.12,79.84 			"/>
			<polygon points="132.71,94.89 129.71,94.46 128.36,91.74 127.02,94.46 124.02,94.89 126.18,97.01 126.17,97.08 125.67,100 
				128.36,98.59 128.42,98.62 131.05,100 130.53,97.01 			"/>
			<polygon points="139.54,111.37 141.66,109.3 138.66,108.86 138.63,108.8 137.32,106.15 135.97,108.86 135.9,108.88 132.97,109.3 
				135.15,111.42 134.62,114.41 137.32,113 140,114.41 139.49,111.42 			"/>
			<polygon points="156.21,117.84 153.21,117.4 151.87,114.68 150.53,117.4 150.46,117.41 147.52,117.84 149.69,119.96 
				149.68,120.02 149.18,122.95 151.87,121.53 154.55,122.95 154.04,119.96 			"/>
		</g>
		<path d="M193.99,39.21c-0.75,0-1.5,0.05-2.23,0.16c-1.64,0.22-3.32,0.33-5.03,0.33c-6.46,0-12.55-1.61-17.89-4.46
			c-0.81-0.43-1.61-0.9-2.37-1.37c-0.38-0.24-0.76-0.49-1.12-0.74c-0.33-0.23-0.99-0.69-0.99-0.69c-1.24-0.9-2.77-1.42-4.42-1.42
			c-1.65,0-3.18,0.52-4.42,1.42c0,0-0.65,0.46-0.97,0.69c-0.38,0.25-0.75,0.5-1.13,0.74c-0.77,0.48-1.57,0.94-2.37,1.37
			c-5.33,2.84-11.43,4.46-17.89,4.46c-1.72,0-3.41-0.11-5.06-0.33c-0.73-0.11-1.46-0.16-2.21-0.16c-8.62,0-15.61,6.98-15.61,15.6
			v32.07c-0.02,0.61-0.03,1.22-0.03,1.84c0,28.84,20.48,52.86,47.69,58.39c0.64,0.09,1.31,0.14,1.98,0.14
			c0.64,0,1.27-0.04,1.89-0.12c27.12-5.46,47.59-29.34,47.78-58.03l0-0.19V54.8C209.59,46.19,202.61,39.21,193.99,39.21z
			 M159.91,143.95c-0.61,0-1.21-0.04-1.8-0.13c-25.68-5.19-45.03-27.87-45.03-55.09c0-0.27-0.26-32.82-0.26-32.82h0.02
			c0.3-7.87,5.58-13.96,13.51-13.96c0.7,0,2.02,0.03,2.69,0.14c1.57,0.21,3.28,0.42,4.9,0.42c6.11,0,12.5-1.38,17.53-4.06
			c0.76-0.42,1.51-0.84,2.23-1.31c0.36-0.22,0.71-0.46,1.06-0.69c0.31-0.21,0.62-0.43,0.92-0.65h0.01c1.17-0.84,2.66-1.5,4.22-1.5
			L159.91,143.95z M191.49,72.57l1.53,3.12l3.45,0.51l-2.5,2.44l0.58,3.43l-3.07-1.62l-3.09,1.62l0.6-3.43l-2.5-2.43l3.45-0.51
			L191.49,72.57z M181.38,61.6l1.55-3.12l1.54,3.12l3.45,0.5l-2.5,2.44l0.59,3.43l-3.08-1.62l-3.09,1.62l0.59-3.43l-2.5-2.44
			L181.38,61.6z M171.03,77.11v-3.88h12.18v3.88H171.03z M183.2,96.31v3.88h-12.18v-3.88H183.2z M166.4,53.19l1.55-3.13l1.55,3.13
			l3.45,0.5l-2.5,2.43l0.59,3.44l-3.08-1.63l-3.09,1.63l0.59-3.44l-2.5-2.43L166.4,53.19z M162.85,83.33v-3.86l0.26,0
			c0.01,0,1.11-0.01,2.16-0.49c1.22-0.56,1.82-1.5,1.82-2.9v-4.45h2.46v5.84c0.03,0.52,0.04,2.39-1.3,3.91v19.73h-2.46V82.95
			c-0.78,0.25-1.68,0.37-2.68,0.37H162.85z M172.47,123.08l-3.08-1.63l-3.08,1.63l0.58-3.44l-2.49-2.44l3.44-0.49l1.55-3.13
			l1.53,3.13l3.45,0.49l-2.49,2.44L172.47,123.08z M186.89,114.13l-3.09-1.62l-3.08,1.62l0.59-3.44l-2.49-2.43l3.44-0.51l1.54-3.13
			l1.54,3.13l3.45,0.5l-2.49,2.43L186.89,114.13z M194.98,99.14l-3.09-1.63l-3.09,1.63l0.59-3.43l-2.5-2.43l3.44-0.5l1.55-3.12
			l1.55,3.12l3.44,0.5l-2.5,2.43L194.98,99.14z"/>
		<g>
			<path style="fill-rule: evenodd; clip-rule: evenodd;" d="M114.69,21.72c0.16,0.04,0.32,0.04,0.47,0.03
				c4.47-0.71,11.42-5.32,14.22-8.92c0.05-0.07,0.1-0.15,0.12-0.24c0.08-0.32-0.12-0.64-0.44-0.72c-6.11,0.01-13.35,3.8-15.41,7.7
				c-0.04,0.09-0.09,0.18-0.12,0.28C113.34,20.69,113.85,21.52,114.69,21.72z"/>
			<path style="fill-rule: evenodd; clip-rule: evenodd;" d="M87.11,48.33c0.19,0,0.36-0.03,0.53-0.09c0.02-0.01,0.04-0.02,0.05-0.02
				c0.18-0.07,0.34-0.19,0.48-0.32c4.15-5.47,5.48-11.99,5.89-18.5c-0.02-0.32-0.28-0.58-0.6-0.58c-0.04,0-0.07,0-0.1,0.01
				c-0.13,0.02-0.25,0.08-0.34,0.18c-0.8,0.84-1.7,1.78-2.35,2.59c-3.2,3.91-5.34,8.26-5.34,13.44c0,0.72,0.07,1.44,0.26,2.16
				C85.8,47.85,86.4,48.33,87.11,48.33z"/>
			<path style="fill-rule: evenodd; clip-rule: evenodd;" d="M75.52,89.9c0.26,0.17,0.55,0.28,0.88,0.28c0.19,0,0.37-0.03,0.55-0.09
				c0.02-0.01,0.04-0.02,0.05-0.02c0.28-0.11,0.52-0.3,0.7-0.54c0.17-0.22,0.27-0.47,0.3-0.76c0.71-5.88-2.32-17.66-5.61-20.94
				c-0.11-0.1-0.26-0.17-0.43-0.17c-0.03,0-0.07,0-0.1,0.01c-0.13,0.02-0.25,0.09-0.35,0.18c-0.05,0.06-0.09,0.12-0.12,0.2
				c-1.47,6.18-1.47,12.23,1.22,18.12C73.3,87.65,74.28,88.9,75.52,89.9z"/>
			<path style="fill-rule: evenodd; clip-rule: evenodd;" d="M105.59,40.33c0.02-0.06,0.05-0.12,0.06-0.19c0-0.01,0-0.03,0-0.03
				c0-0.32-0.22-0.57-0.52-0.62c-6.44-0.11-13.52,5.03-15.23,9.73c-0.04,0.15-0.08,0.3-0.08,0.46c0,0.14,0.02,0.29,0.06,0.42
				c0.18,0.7,0.82,1.21,1.57,1.21c0.12,0,0.24-0.02,0.35-0.05C96.42,50.01,103.31,44.7,105.59,40.33z"/>
			<path style="fill-rule: evenodd; clip-rule: evenodd;" d="M98.77,30.88c0.17,0.05,0.34,0.08,0.51,0.07c0.02,0,0.03,0,0.05,0
				c0.19-0.02,0.36-0.08,0.53-0.15c5.33-3.73,8.42-9.21,10.68-14.97c0.07-0.29-0.09-0.6-0.38-0.69c-0.03-0.01-0.06-0.02-0.09-0.02
				c-0.13-0.02-0.25,0-0.36,0.06c-0.96,0.52-2.04,1.11-2.87,1.65c-4.02,2.6-7.22,5.9-8.71,10.57c-0.21,0.66-0.35,1.33-0.39,2.03
				C97.73,30.07,98.13,30.68,98.77,30.88z"/>
			<path style="fill-rule: evenodd; clip-rule: evenodd;" d="M117.45,25.94c0.03-0.06,0.06-0.11,0.07-0.18c0-0.02,0-0.03,0-0.03
				c0.03-0.31-0.16-0.56-0.43-0.63c-6.07-0.66-13.18,3.58-15.21,7.86c-0.05,0.13-0.09,0.27-0.11,0.42c-0.01,0.14,0,0.27,0.02,0.4
				c0.11,0.67,0.67,1.2,1.38,1.27c0.11,0.01,0.23,0,0.34-0.02C107.97,34.27,114.92,29.86,117.45,25.94z"/>
			<path style="fill-rule: evenodd; clip-rule: evenodd;" d="M84.04,70.86c0.18-0.01,0.35-0.05,0.5-0.11
				c4.65-2.16,9.69-9.29,11.54-14.31c0.02-0.05,0.03-0.1,0.03-0.15c0-0.01,0-0.03,0-0.04c0-0.05-0.01-0.11-0.02-0.16
				c-0.07-0.25-0.29-0.4-0.55-0.43c-5.24,0.13-12.3,7.63-13.18,13.46c0,0.06-0.01,0.11-0.01,0.17c0.01,0.14,0.03,0.28,0.07,0.41
				c0.04,0.13,0.09,0.25,0.15,0.36C82.88,70.56,83.43,70.89,84.04,70.86z"/>
			<path style="fill-rule: evenodd; clip-rule: evenodd;" d="M77.54,67.64c0.32,0.43,0.82,0.7,1.39,0.68c0.2-0.01,0.39-0.05,0.56-0.12
				c0.02,0,0.04-0.01,0.05-0.02c0.28-0.13,0.53-0.33,0.7-0.58c0.03-0.04,0.05-0.09,0.08-0.13c2.32-4.9,2.94-14.7,1.07-20.23
				c-0.09-0.27-0.34-0.46-0.64-0.45c-0.03,0-0.07,0-0.11,0.01c-0.13,0.03-0.26,0.1-0.35,0.2c-0.02,0.03-0.04,0.06-0.05,0.08
				c-0.61,1.05-1.16,1.98-1.64,2.96c-2.23,4.64-3.36,9.48-2.23,14.64C76.61,65.73,77,66.72,77.54,67.64z"/>
			<path style="fill-rule: evenodd; clip-rule: evenodd;" d="M80.52,89.55c0.1,0.3,0.27,0.57,0.51,0.76c0.28,0.24,0.64,0.38,1.03,0.38
				c0.19,0,0.38-0.04,0.55-0.09c0.02,0,0.04-0.01,0.05-0.02c0.15-0.06,0.3-0.15,0.42-0.25c4.17-3.42,7.47-12.34,7.87-17.07
				c-0.01-0.17-0.07-0.32-0.18-0.43c-0.11-0.12-0.27-0.18-0.45-0.18c0,0-0.01,0-0.01,0C84.52,74.39,79.42,83.49,80.52,89.55z"/>
			<path style="fill-rule: evenodd; clip-rule: evenodd;" d="M76.65,110.35c0.53,0.55,1.14,0.99,1.81,1.34
				c0.23,0.11,0.5,0.17,0.77,0.17c0.21,0,0.43-0.04,0.62-0.11c0.29-0.1,0.55-0.28,0.75-0.51c0.1-0.11,0.18-0.22,0.25-0.35
				c0.07-0.13,0.12-0.27,0.17-0.41c0.04-0.15,0.06-0.31,0.06-0.48c-0.61-6.31-6-15.61-9.96-19.39c-0.11-0.09-0.24-0.17-0.39-0.18
				c-0.05,0-0.1,0-0.15,0c-0.04,0-0.08,0.01-0.12,0.02c-0.21,0.05-0.38,0.19-0.48,0.37c-0.03,0.05-0.06,0.11-0.07,0.17
				c-0.19,5.25,0.81,10.12,3.15,14.67C73.94,107.4,75.29,108.94,76.65,110.35z"/>
			<path style="fill-rule: evenodd; clip-rule: evenodd;" d="M118.11,160.97c0.25-0.12,0.49-0.27,0.67-0.48
				c0.11-0.12,0.2-0.25,0.28-0.4c0.16-0.29,0.26-0.64,0.26-1.01c0-0.56-0.23-1.06-0.58-1.43c-0.08-0.08-0.17-0.15-0.26-0.23
				c-5.58-3.86-16.1-6.11-21.96-5.53c-0.22,0.05-0.4,0.18-0.52,0.36c-0.05,0.09-0.09,0.18-0.12,0.28c-0.02,0.09-0.03,0.18-0.02,0.28
				c0.01,0.08,0.03,0.17,0.06,0.24c0.02,0.05,0.04,0.1,0.07,0.14c0.02,0.04,0.06,0.08,0.09,0.12c3.29,3.2,7.12,5.55,11.44,7.11
				c2.78,1.01,5.64,1.57,8.6,1.06C116.8,161.37,117.46,161.2,118.11,160.97z"/>
			<path style="fill-rule: evenodd; clip-rule: evenodd;" d="M87.85,131.4c0.19-0.01,0.37-0.04,0.54-0.1c0.29-0.11,0.54-0.28,0.75-0.5
				c0.09-0.11,0.17-0.23,0.25-0.35c0.07-0.13,0.13-0.26,0.17-0.41c0.04-0.16,0.07-0.33,0.06-0.5c0-0.06,0-0.12-0.01-0.18
				c-0.02-0.15-0.07-0.29-0.12-0.42c-3.45-6.95-9.1-11.47-15.53-15.38c-0.07-0.04-0.14-0.07-0.23-0.08c-0.05,0-0.1,0-0.15,0
				c-0.04,0-0.08,0.01-0.13,0.02c-0.21,0.05-0.39,0.19-0.48,0.37c-0.03,0.05-0.05,0.11-0.07,0.17c-0.01,0.03-0.01,0.06-0.02,0.09
				c-0.01,0.02-0.01,0.05-0.01,0.08c0,0.02,0,0.03,0,0.05c1.74,6.26,4.91,11.6,10.34,15.41C84.6,130.65,86.13,131.21,87.85,131.4z"
				/>
			<path style="fill-rule: evenodd; clip-rule: evenodd;" d="M84.2,110.74c0.1,0.13,0.23,0.24,0.36,0.34c0.06,0.04,0.12,0.08,0.19,0.12
				c0.26,0.14,0.57,0.22,0.89,0.22c0.22,0,0.42-0.04,0.62-0.11c0.29-0.1,0.55-0.28,0.75-0.5c0.01-0.01,0.02-0.02,0.02-0.03
				c3.18-4.28,4.19-13.57,3.44-19.08c-0.01-0.12-0.05-0.23-0.1-0.32c-0.04-0.06-0.08-0.12-0.13-0.16c-0.11-0.11-0.26-0.18-0.42-0.2
				c-0.05,0-0.1,0-0.15,0c-0.04,0-0.09,0.01-0.13,0.02c-0.08,0.02-0.14,0.07-0.2,0.1c-5.99,5.05-7.48,14.39-5.35,19.29
				C84.05,110.54,84.12,110.65,84.2,110.74z"/>
			<path style="fill-rule: evenodd; clip-rule: evenodd;" d="M100.2,147.14c0.1-0.02,0.2-0.03,0.3-0.07c0.29-0.11,0.54-0.28,0.75-0.5
				c0.1-0.1,0.18-0.22,0.25-0.35c0.07-0.13,0.13-0.27,0.17-0.41c0.04-0.16,0.06-0.32,0.06-0.5c0-0.06-0.01-0.13-0.01-0.18
				c-0.02-0.22-0.08-0.42-0.17-0.61c-0.05-0.12-0.13-0.21-0.2-0.31c-4.34-4.79-14.22-10.05-19.67-10.37c-0.03,0-0.05,0-0.08,0
				c-0.04,0-0.08,0.02-0.12,0.02c-0.21,0.06-0.39,0.2-0.48,0.38c-0.03,0.05-0.05,0.11-0.07,0.17c-0.01,0.03-0.01,0.06-0.02,0.09
				c0,0.02,0,0.05,0,0.08c0,0.02,0,0.05,0,0.07c0.01,0.06,0.02,0.11,0.03,0.16c0.01,0.05,0.03,0.09,0.05,0.13
				c2.92,5.4,10.96,12.18,17.28,12.31C98.9,147.27,99.55,147.21,100.2,147.14z"/>
			<path style="fill-rule: evenodd; clip-rule: evenodd;" d="M92.31,129.56c0.05,0.09,0.11,0.18,0.18,0.27
				c0.11,0.13,0.23,0.24,0.37,0.34c0.06,0.04,0.12,0.08,0.19,0.12c0.18,0.1,0.39,0.16,0.61,0.2c0.09,0.01,0.19,0.02,0.28,0.02
				c0.22,0,0.43-0.04,0.62-0.11c0.29-0.1,0.54-0.28,0.75-0.5c0.1-0.1,0.18-0.23,0.25-0.35c0.02-0.04,0.03-0.07,0.05-0.11
				c0.4-1.01,0.74-2.04,0.93-3.08c0.77-4.16,0.26-8.32-0.59-12.43c-0.2-0.96-0.45-1.91-0.73-2.98c-0.02-0.07-0.05-0.14-0.08-0.2
				c-0.04-0.06-0.08-0.12-0.14-0.16c-0.04-0.03-0.08-0.06-0.12-0.09c-0.09-0.05-0.19-0.09-0.3-0.1c-0.05-0.01-0.1-0.01-0.15-0.01
				c-0.04,0.01-0.09,0.02-0.13,0.02c-0.16,0.04-0.3,0.14-0.4,0.25c-0.04,0.06-0.09,0.11-0.13,0.16c-3.1,4.35-4.34,9.18-3.23,14.4
				C90.87,126.71,91.56,128.16,92.31,129.56z"/>
			<path style="fill-rule: evenodd; clip-rule: evenodd;" d="M105.48,145.35c0.04,0.03,0.08,0.05,0.12,0.07c0.18,0.1,0.39,0.17,0.6,0.2
				c0.09,0.02,0.19,0.02,0.28,0.02c0.07,0,0.13,0,0.2-0.01c0.15-0.02,0.29-0.06,0.42-0.1c0.29-0.11,0.55-0.28,0.75-0.51
				c0.1-0.11,0.18-0.22,0.25-0.35c0.06-0.1,0.09-0.21,0.13-0.32c1.06-5.09-1.68-13.62-4.87-18.62c-0.03-0.04-0.06-0.09-0.1-0.12
				c-0.04-0.03-0.07-0.07-0.12-0.09c-0.09-0.06-0.19-0.09-0.3-0.1c-0.01,0-0.02,0-0.03,0c-0.04,0-0.08,0-0.11,0
				c-0.05,0-0.09,0.01-0.13,0.02c-0.19,0.04-0.34,0.16-0.44,0.32C99.04,131.38,100.14,140.67,105.48,145.35z"/>
			<path style="fill-rule: evenodd; clip-rule: evenodd;" d="M121.16,156.73c0.28,0.14,0.59,0.23,0.92,0.22c0.05,0,0.1,0,0.15,0
				c0.19-0.01,0.37-0.06,0.55-0.12c0.32-0.12,0.61-0.32,0.84-0.57c0.11-0.12,0.2-0.25,0.28-0.39c0.17-0.3,0.26-0.64,0.26-1
				c-0.63-6.78-4.61-11.95-8.85-17.16c-0.08-0.09-0.16-0.17-0.26-0.22c-0.1-0.05-0.2-0.08-0.31-0.1c-0.03,0-0.06,0-0.08,0
				c-0.03,0-0.06,0-0.09,0c-0.05,0.01-0.1,0.01-0.15,0.02c-0.22,0.05-0.4,0.18-0.52,0.37c-0.05,0.07-0.08,0.14-0.1,0.23
				C111.95,144.12,115.92,153.61,121.16,156.73z"/>
			<path style="fill-rule: evenodd; clip-rule: evenodd;" d="M138.2,165.96c-0.15-0.11-0.31-0.19-0.49-0.26
				c-6.38-2.19-17-1.54-22.51,0.56c-0.15,0.06-0.29,0.16-0.39,0.3c-0.06,0.08-0.1,0.18-0.12,0.28c-0.01,0.03-0.01,0.07-0.02,0.1
				c0,0.06-0.01,0.12,0,0.18c0.01,0.09,0.02,0.17,0.05,0.25c0.02,0.05,0.04,0.1,0.07,0.14c0.04,0.06,0.08,0.12,0.13,0.17
				c0.04,0.04,0.1,0.07,0.15,0.11c4.03,2.2,8.34,3.43,12.91,3.77c2.96,0.22,5.86,0,8.58-1.29c0.62-0.29,1.21-0.64,1.76-1.02
				c0.07-0.07,0.15-0.12,0.22-0.19c0.11-0.12,0.2-0.25,0.28-0.39c0.16-0.3,0.26-0.65,0.25-1.01c0-0.56-0.23-1.06-0.58-1.43
				C138.4,166.12,138.3,166.03,138.2,165.96z"/>
			<path style="fill-rule: evenodd; clip-rule: evenodd;" d="M179.33,164.93c6.34-0.56,13.32-10.8,12.31-17.92
				c0-0.01-0.01-0.02-0.01-0.04c-0.03-0.1-0.07-0.19-0.12-0.27c-0.12-0.18-0.3-0.31-0.52-0.37c-0.05-0.01-0.09-0.02-0.15-0.02
				c-0.03,0-0.06,0-0.09,0c-0.03,0-0.06,0-0.08,0c-0.11,0.02-0.21,0.05-0.31,0.1c-0.06,0.03-0.11,0.07-0.16,0.11
				c-5.33,4.78-10.39,9.56-11.73,16.91c-4.03,1.05-11.29,3.05-18.48,5.65c-7.19-2.6-14.44-4.6-18.48-5.65
				c-1.34-7.35-6.39-12.13-11.73-16.91c-0.05-0.04-0.1-0.08-0.16-0.11c-0.1-0.05-0.2-0.08-0.31-0.1c-0.03,0-0.06,0-0.08,0
				c-0.03,0-0.06,0-0.09,0c-0.05,0-0.1,0.01-0.15,0.02c-0.21,0.06-0.4,0.18-0.52,0.37c-0.05,0.08-0.09,0.17-0.12,0.27
				c0,0.02,0,0.03-0.01,0.04c-1.01,7.11,5.97,17.36,12.31,17.92c4.39,0.91,10.25,2.92,16.04,5.38c-6.28,2.46-12.1,5.34-15.15,8.39
				l2.27,2.67c2.82-2.8,9.19-6.43,16.17-9.61c6.97,3.19,13.35,6.81,16.17,9.61l2.27-2.67c-3.05-3.05-8.87-5.93-15.15-8.39
				C169.08,167.85,174.94,165.84,179.33,164.93z"/>
			<path style="fill-rule: evenodd; clip-rule: evenodd;" d="M190.62,12.83c2.8,3.6,9.75,8.21,14.22,8.92c0.16,0.01,0.31,0,0.47-0.03
				c0.83-0.2,1.35-1.03,1.15-1.86c-0.02-0.1-0.08-0.19-0.11-0.28c-2.06-3.9-9.3-7.7-15.41-7.7c-0.32,0.08-0.52,0.4-0.44,0.72
				C190.52,12.68,190.57,12.76,190.62,12.83z"/>
			<path style="fill-rule: evenodd; clip-rule: evenodd;" d="M232.31,48.21c0.01,0.01,0.03,0.02,0.05,0.02
				c0.17,0.06,0.34,0.09,0.53,0.09c0.71,0,1.31-0.47,1.51-1.13c0.2-0.72,0.26-1.44,0.26-2.16c0.01-5.18-2.14-9.53-5.33-13.44
				c-0.66-0.81-1.55-1.76-2.35-2.59c-0.09-0.09-0.21-0.16-0.34-0.18c-0.03-0.01-0.07-0.01-0.1-0.01c-0.32,0-0.59,0.25-0.61,0.58
				c0.42,6.51,1.74,13.03,5.9,18.5C231.97,48.03,232.12,48.14,232.31,48.21z"/>
			<path style="fill-rule: evenodd; clip-rule: evenodd;" d="M241.99,88.78c0.04,0.29,0.15,0.54,0.31,0.76
				c0.18,0.24,0.42,0.42,0.7,0.54c0.02,0,0.03,0.01,0.05,0.02c0.17,0.06,0.35,0.09,0.55,0.09c0.33,0,0.62-0.11,0.88-0.28
				c1.25-1,2.22-2.25,2.9-3.72c2.7-5.89,2.69-11.95,1.22-18.12c-0.04-0.07-0.07-0.14-0.12-0.2c-0.09-0.09-0.21-0.16-0.34-0.18
				c-0.03-0.01-0.07-0.01-0.1-0.01c-0.17,0-0.32,0.07-0.43,0.17C244.31,71.12,241.28,82.9,241.99,88.78z"/>
			<path style="fill-rule: evenodd; clip-rule: evenodd;" d="M228.54,51.3c0.75,0,1.39-0.51,1.58-1.21c0.04-0.13,0.06-0.27,0.06-0.42
				c0-0.16-0.03-0.31-0.08-0.46c-1.72-4.7-8.79-9.84-15.23-9.73c-0.29,0.06-0.51,0.3-0.51,0.62c0,0,0,0.02,0,0.03
				c0.01,0.07,0.03,0.13,0.06,0.19c2.28,4.37,9.17,9.68,13.78,10.91C228.3,51.27,228.42,51.3,228.54,51.3z"/>
			<path style="fill-rule: evenodd; clip-rule: evenodd;" d="M220.14,30.81c0.17,0.07,0.34,0.14,0.53,0.15c0.02,0,0.03,0,0.05,0
				c0.16,0,0.34-0.02,0.5-0.07c0.65-0.2,1.04-0.81,1.04-1.45c-0.04-0.7-0.18-1.37-0.39-2.03c-1.49-4.67-4.7-7.97-8.71-10.57
				c-0.83-0.54-1.91-1.13-2.87-1.65c-0.11-0.06-0.23-0.08-0.36-0.06c-0.03,0-0.07,0.01-0.09,0.02c-0.3,0.09-0.45,0.4-0.38,0.69
				C211.73,21.6,214.81,27.08,220.14,30.81z"/>
			<path style="fill-rule: evenodd; clip-rule: evenodd;" d="M216.82,35.06c0.71-0.07,1.27-0.6,1.38-1.27c0.02-0.13,0.03-0.27,0.02-0.4
				c-0.01-0.15-0.06-0.29-0.11-0.42c-2.02-4.28-9.13-8.52-15.2-7.86c-0.27,0.08-0.46,0.33-0.43,0.63c0,0,0,0.01,0.01,0.03
				c0.01,0.06,0.04,0.12,0.07,0.18c2.53,3.92,9.48,8.33,13.93,9.11C216.59,35.06,216.71,35.07,216.82,35.06z"/>
			<path style="fill-rule: evenodd; clip-rule: evenodd;" d="M223.9,56.1c-0.01,0.05-0.02,0.1-0.02,0.16c0,0.02,0,0.03,0,0.04
				c0,0.05,0.02,0.11,0.03,0.15c1.86,5.02,6.89,12.14,11.54,14.31c0.16,0.06,0.33,0.1,0.51,0.11c0.62,0.02,1.16-0.3,1.46-0.79
				c0.07-0.11,0.12-0.23,0.16-0.36c0.04-0.13,0.07-0.27,0.07-0.41c0-0.06,0-0.11-0.01-0.17c-0.88-5.83-7.94-13.33-13.18-13.46
				C224.19,55.7,223.97,55.85,223.9,56.1z"/>
			<path style="fill-rule: evenodd; clip-rule: evenodd;" d="M239.76,67.6c0.17,0.25,0.41,0.45,0.69,0.58
				c0.02,0.01,0.03,0.02,0.05,0.02c0.17,0.07,0.36,0.11,0.55,0.12c0.57,0.02,1.08-0.25,1.4-0.68c0.55-0.91,0.93-1.9,1.17-2.97
				c1.13-5.16,0-10-2.23-14.64c-0.47-0.97-1.03-1.91-1.64-2.96c-0.02-0.03-0.04-0.06-0.06-0.08c-0.09-0.1-0.21-0.17-0.35-0.2
				c-0.03-0.01-0.07-0.01-0.1-0.01c-0.3-0.01-0.55,0.18-0.64,0.45c-1.86,5.53-1.24,15.33,1.07,20.23
				C239.71,67.51,239.73,67.55,239.76,67.6z"/>
			<path style="fill-rule: evenodd; clip-rule: evenodd;" d="M237.39,90.6c0.17,0.06,0.35,0.09,0.54,0.09c0.39,0,0.75-0.14,1.03-0.38
				c0.24-0.19,0.41-0.46,0.51-0.76c1.1-6.06-4-15.16-9.8-16.91c0,0,0,0-0.01,0c-0.18,0-0.33,0.07-0.45,0.18
				c-0.11,0.11-0.18,0.26-0.18,0.43c0.41,4.73,3.7,13.65,7.87,17.07c0.13,0.1,0.26,0.2,0.42,0.25
				C237.35,90.58,237.37,90.59,237.39,90.6z"/>
			<path style="fill-rule: evenodd; clip-rule: evenodd;" d="M249.42,90.43c-0.05,0-0.1,0-0.15,0c-0.15,0.02-0.28,0.09-0.39,0.18
				c-3.95,3.78-9.34,13.08-9.95,19.39c0,0.17,0.02,0.33,0.06,0.48c0.04,0.15,0.09,0.28,0.17,0.41c0.07,0.13,0.15,0.24,0.25,0.35
				c0.2,0.23,0.46,0.4,0.75,0.51c0.19,0.07,0.41,0.11,0.62,0.11c0.27,0,0.53-0.07,0.77-0.17c0.67-0.35,1.28-0.79,1.81-1.34
				c1.36-1.42,2.71-2.96,3.6-4.68c2.34-4.55,3.34-9.42,3.15-14.67c-0.02-0.06-0.04-0.12-0.07-0.17c-0.1-0.18-0.27-0.32-0.48-0.37
				C249.5,90.44,249.46,90.44,249.42,90.43z"/>
			<path style="fill-rule: evenodd; clip-rule: evenodd;" d="M224,152.26c-0.12-0.18-0.3-0.31-0.52-0.36
				c-5.87-0.58-16.38,1.67-21.96,5.53c-0.09,0.07-0.18,0.14-0.26,0.23c-0.35,0.37-0.58,0.87-0.58,1.43c0,0.37,0.1,0.72,0.26,1.01
				c0.08,0.14,0.17,0.27,0.28,0.4c0.18,0.2,0.42,0.36,0.67,0.48c0.65,0.23,1.31,0.4,2,0.52c2.96,0.5,5.82-0.06,8.6-1.06
				c4.32-1.56,8.14-3.91,11.44-7.11c0.03-0.04,0.07-0.08,0.09-0.12c0.03-0.04,0.05-0.09,0.07-0.14c0.03-0.07,0.05-0.16,0.05-0.24
				c0-0.1,0-0.19-0.02-0.28C224.1,152.44,224.06,152.35,224,152.26z"/>
			<path style="fill-rule: evenodd; clip-rule: evenodd;" d="M247.09,114.05c-0.02-0.06-0.04-0.12-0.07-0.17
				c-0.1-0.18-0.27-0.32-0.48-0.37c-0.04-0.01-0.08-0.02-0.12-0.02c-0.05,0-0.1,0-0.15,0c-0.08,0.01-0.16,0.04-0.23,0.08
				c-6.43,3.91-12.07,8.43-15.53,15.38c-0.05,0.13-0.1,0.27-0.12,0.42c0,0.06-0.01,0.12-0.01,0.18c0,0.17,0.02,0.34,0.06,0.5
				c0.04,0.14,0.1,0.28,0.17,0.41c0.07,0.13,0.15,0.25,0.25,0.35c0.21,0.23,0.46,0.4,0.75,0.5c0.17,0.06,0.35,0.09,0.53,0.1
				c1.72-0.19,3.25-0.75,4.63-1.72c5.43-3.81,8.6-9.16,10.34-15.41c0-0.02,0-0.04,0-0.05c0-0.03,0-0.06,0-0.08
				C247.11,114.11,247.1,114.07,247.09,114.05z"/>
			<path style="fill-rule: evenodd; clip-rule: evenodd;" d="M232.99,110.8c0.2,0.22,0.46,0.4,0.75,0.5c0.19,0.07,0.4,0.11,0.62,0.11
				c0.32,0,0.63-0.08,0.89-0.22c0.07-0.04,0.13-0.08,0.19-0.12c0.13-0.1,0.26-0.21,0.36-0.34c0.08-0.1,0.15-0.21,0.2-0.32
				c2.14-4.9,0.65-14.23-5.34-19.29c-0.07-0.04-0.13-0.08-0.2-0.1c-0.04-0.01-0.08-0.02-0.13-0.02c-0.05,0-0.09,0-0.14,0
				c-0.16,0.02-0.31,0.09-0.42,0.2c-0.05,0.04-0.1,0.1-0.13,0.16c-0.06,0.09-0.09,0.2-0.1,0.32c-0.76,5.51,0.26,14.8,3.43,19.08
				C232.97,110.78,232.98,110.79,232.99,110.8z"/>
			<path style="fill-rule: evenodd; clip-rule: evenodd;" d="M239.08,134.42c-0.02-0.07-0.04-0.12-0.07-0.17
				c-0.1-0.18-0.27-0.33-0.48-0.38c-0.04,0-0.08-0.02-0.12-0.02c-0.03,0-0.05,0-0.08,0c-5.45,0.32-15.34,5.57-19.67,10.37
				c-0.07,0.1-0.15,0.2-0.2,0.31c-0.09,0.18-0.15,0.39-0.17,0.61c0,0.06-0.01,0.12-0.01,0.18c0,0.17,0.02,0.34,0.06,0.5
				c0.04,0.14,0.1,0.28,0.17,0.41c0.07,0.13,0.15,0.25,0.25,0.35c0.2,0.22,0.46,0.4,0.75,0.5c0.09,0.04,0.2,0.05,0.3,0.07
				c0.65,0.07,1.3,0.13,1.94,0.11c6.32-0.13,14.35-6.91,17.28-12.31c0.02-0.04,0.04-0.08,0.05-0.13c0.01-0.05,0.02-0.1,0.03-0.16
				c0-0.02,0-0.04,0-0.07c0-0.02,0-0.05,0-0.08C239.09,134.47,239.08,134.45,239.08,134.42z"/>
			<path style="fill-rule: evenodd; clip-rule: evenodd;" d="M224.4,129.43c0.02,0.03,0.03,0.07,0.05,0.11
				c0.07,0.12,0.15,0.25,0.25,0.35c0.2,0.22,0.45,0.4,0.74,0.5c0.2,0.07,0.41,0.11,0.62,0.11c0.09,0,0.19,0,0.28-0.02
				c0.22-0.04,0.42-0.1,0.61-0.2c0.07-0.04,0.13-0.08,0.19-0.12c0.14-0.1,0.26-0.21,0.37-0.34c0.06-0.08,0.12-0.17,0.18-0.27
				c0.75-1.4,1.44-2.85,1.76-4.36c1.11-5.22-0.13-10.05-3.23-14.4c-0.04-0.06-0.09-0.11-0.13-0.16c-0.1-0.12-0.24-0.21-0.4-0.25
				c-0.04-0.01-0.08-0.02-0.13-0.02c-0.05,0-0.1,0-0.15,0.01c-0.11,0.01-0.21,0.05-0.3,0.1c-0.04,0.03-0.08,0.06-0.12,0.09
				c-0.05,0.05-0.1,0.1-0.13,0.16c-0.04,0.06-0.07,0.13-0.08,0.2h0c-0.27,1.07-0.52,2.02-0.72,2.98c-0.85,4.11-1.36,8.26-0.59,12.43
				C223.66,127.39,224,128.42,224.4,129.43z"/>
			<path style="fill-rule: evenodd; clip-rule: evenodd;" d="M217.43,125.44c-0.04-0.01-0.08-0.02-0.13-0.02c-0.04,0-0.08,0-0.11,0
				c-0.01,0-0.02,0-0.03,0c-0.11,0.01-0.21,0.05-0.3,0.1c-0.05,0.02-0.08,0.06-0.12,0.09c-0.04,0.03-0.07,0.08-0.1,0.12
				c-3.19,5-5.92,13.53-4.87,18.62c0.04,0.11,0.08,0.22,0.13,0.32c0.07,0.12,0.15,0.24,0.25,0.35c0.2,0.23,0.46,0.4,0.75,0.51
				c0.14,0.04,0.28,0.08,0.43,0.1c0.06,0.01,0.13,0.01,0.2,0.01c0.1,0,0.19-0.01,0.28-0.02c0.22-0.03,0.42-0.1,0.6-0.2
				c0.04-0.02,0.08-0.04,0.12-0.07c5.34-4.68,6.44-13.97,3.34-19.59C217.76,125.61,217.61,125.49,217.43,125.44z"/>
			<path style="fill-rule: evenodd; clip-rule: evenodd;" d="M205.59,137.42c-0.04-0.01-0.1-0.02-0.15-0.02c-0.03,0-0.06,0-0.09,0
				c-0.03,0-0.05,0-0.08,0c-0.11,0.02-0.21,0.05-0.31,0.1c-0.1,0.05-0.19,0.13-0.26,0.22c-4.24,5.2-8.22,10.38-8.85,17.16
				c0,0.36,0.09,0.7,0.26,1c0.07,0.14,0.17,0.27,0.28,0.39c0.23,0.25,0.51,0.45,0.84,0.57c0.17,0.06,0.36,0.1,0.55,0.12
				c0.05,0,0.1,0,0.15,0c0.33,0,0.64-0.09,0.92-0.22c5.23-3.12,9.21-12.61,7.36-18.71c-0.03-0.09-0.06-0.16-0.1-0.23
				C205.99,137.61,205.8,137.47,205.59,137.42z"/>
			<path style="fill-rule: evenodd; clip-rule: evenodd;" d="M205.31,166.83c-0.02-0.1-0.06-0.19-0.12-0.28
				c-0.09-0.14-0.23-0.23-0.39-0.3c-5.51-2.1-16.12-2.74-22.51-0.56c-0.18,0.07-0.34,0.15-0.49,0.26c-0.11,0.07-0.21,0.16-0.29,0.25
				c-0.36,0.37-0.58,0.87-0.58,1.43c0,0.37,0.09,0.71,0.25,1.01c0.08,0.14,0.18,0.27,0.28,0.39c0.06,0.07,0.15,0.12,0.22,0.19
				c0.55,0.38,1.14,0.72,1.76,1.02c2.72,1.29,5.62,1.51,8.58,1.29c4.56-0.34,8.88-1.57,12.9-3.77c0.05-0.03,0.1-0.07,0.15-0.11
				c0.05-0.05,0.09-0.11,0.13-0.17c0.02-0.04,0.04-0.09,0.06-0.14c0.03-0.08,0.05-0.16,0.05-0.25c0.01-0.06,0-0.12,0-0.18
				C205.32,166.89,205.32,166.86,205.31,166.83z"/>
		</g>
		<path d="M168.94,11.07V6.83c-1.95-0.2-4.07-0.34-6.48-0.41h-0.17V1.62h-4.73v4.81h-0.16c-2.42,0.07-4.55,0.2-6.51,0.41v4.23
			c1.94-0.2,4.07-0.34,6.5-0.41l0.17,0v13.7h4.73v-13.7l0.18,0C164.89,10.73,167.01,10.87,168.94,11.07z"/>
	</g>
</g>
</svg>
