<?xml version="1.0" encoding="utf-8"?>
<!-- Generator: Adobe Illustrator 25.0.1, SVG Export Plug-In . SVG Version: 6.00 Build 0)  -->
<svg version="1.1" id="圖層_1" xmlns="http://www.w3.org/2000/svg" xmlns:xlink="http://www.w3.org/1999/xlink" x="0px" y="0px"
	 viewBox="0 0 206 260" style="enable-background:new 0 0 206 260;" xml:space="preserve">
<g>
	<g>
		<path d="M2.33,250.98c0.16-0.32,0.34-0.58,0.53-0.8c0.19-0.22,0.37-0.41,0.53-0.55c0.36-0.3,0.72-0.54,1.11-0.71
			c0.37-0.17,0.74-0.3,1.08-0.37c0.34-0.07,0.65-0.13,0.93-0.14c0.28-0.01,0.5-0.02,0.65-0.02c0.43,0,0.9,0.04,1.4,0.14
			c0.48,0.09,0.9,0.27,1.25,0.55c0.23,0.18,0.39,0.36,0.49,0.54l0.28,0.51h0.36l0.07-2.14l-0.08-0.02
			c-0.46-0.13-0.88-0.24-1.23-0.31c-0.36-0.08-0.69-0.14-0.98-0.18c-0.29-0.05-0.56-0.08-0.81-0.09c-0.24-0.01-0.48-0.01-0.72-0.01
			c-0.22,0-0.53,0.01-0.92,0.03c-0.4,0.02-0.83,0.1-1.32,0.21c-0.48,0.12-0.99,0.31-1.53,0.56c-0.53,0.25-1.05,0.62-1.53,1.08
			c-0.44,0.41-0.79,0.84-1.04,1.28c-0.25,0.44-0.44,0.86-0.57,1.27c-0.13,0.41-0.21,0.79-0.25,1.14C0.02,253.28,0,253.56,0,253.78
			c0,0.63,0.09,1.25,0.25,1.83c0.17,0.58,0.42,1.13,0.75,1.61c0.33,0.49,0.73,0.93,1.2,1.32c0.47,0.38,1.01,0.69,1.61,0.92
			c0.3,0.12,0.61,0.22,0.91,0.29c0.29,0.05,0.57,0.1,0.82,0.13c0.25,0.03,0.48,0.05,0.68,0.06c0.19,0.01,0.35,0.01,0.46,0.01
			c0.47,0,1-0.04,1.59-0.11c0.58-0.07,1.11-0.17,1.57-0.29c0.19-0.05,0.37-0.11,0.56-0.17c0.19-0.06,0.37-0.12,0.57-0.19l0.07-0.02
			l-0.07-2.05h-0.38l-0.02,0.07c-0.04,0.09-0.08,0.2-0.13,0.33c-0.05,0.12-0.15,0.26-0.29,0.42c-0.07,0.07-0.16,0.15-0.27,0.25
			c-0.11,0.09-0.25,0.18-0.43,0.27c-0.23,0.11-0.46,0.19-0.71,0.25c-0.26,0.07-0.5,0.11-0.72,0.14c-0.24,0.04-0.43,0.05-0.59,0.06
			c-0.17,0.01-0.28,0.01-0.35,0.01c-0.21,0-0.46-0.01-0.74-0.03c-0.3-0.02-0.63-0.09-0.99-0.19c-0.35-0.11-0.73-0.27-1.11-0.49
			c-0.38-0.22-0.75-0.53-1.1-0.91c-0.14-0.15-0.29-0.34-0.45-0.57c-0.15-0.22-0.3-0.49-0.44-0.81c-0.13-0.3-0.25-0.67-0.34-1.05
			c-0.09-0.4-0.14-0.84-0.14-1.34c0-0.53,0.06-1.01,0.17-1.43C2.03,251.66,2.17,251.29,2.33,250.98z"/>
		<path d="M23.39,259.02c-0.16-0.09-0.33-0.27-0.5-0.54c-0.03-0.05-0.06-0.13-0.11-0.21c-0.04-0.09-0.09-0.19-0.13-0.28l-0.13-0.29
			c-0.04-0.09-0.07-0.16-0.1-0.23l-4.21-9.84l-0.03-0.06h-0.29l-4.6,10.24c-0.11,0.25-0.22,0.46-0.3,0.64
			c-0.1,0.16-0.19,0.3-0.29,0.41c-0.1,0.1-0.2,0.18-0.31,0.23c-0.1,0.06-0.23,0.09-0.39,0.11l-0.09,0.01v0.4h3.11v-0.39l-0.09-0.02
			c-0.12-0.02-0.24-0.05-0.35-0.1c-0.1-0.04-0.17-0.12-0.23-0.22c-0.04-0.07-0.06-0.13-0.07-0.18c-0.01-0.05-0.01-0.09-0.01-0.12
			c0-0.1,0.02-0.24,0.09-0.4c0.07-0.16,0.15-0.37,0.25-0.61l0.97-2.25h4.1l0.91,2.16c0.05,0.15,0.12,0.29,0.18,0.43
			c0.06,0.13,0.12,0.26,0.17,0.39c0.04,0.16,0.04,0.23,0.04,0.27c0,0.01,0,0.05,0,0.11c-0.01,0.04-0.03,0.09-0.06,0.15
			c-0.07,0.13-0.16,0.22-0.27,0.26c-0.13,0.06-0.27,0.09-0.41,0.11l-0.09,0.01l-0.03,0.4h3.79v-0.34l-0.06-0.03
			C23.72,259.18,23.57,259.11,23.39,259.02z M19.27,254.3h-3.2l1.65-3.65L19.27,254.3z"/>
		<path d="M22.44,249.72h0.39l0.08-0.4c0.02-0.12,0.1-0.23,0.22-0.34c0.11-0.09,0.24-0.15,0.4-0.19c0.17-0.04,0.41-0.06,0.72-0.07
			h2.29v9.18c0,0.32-0.04,0.56-0.1,0.71c-0.07,0.16-0.16,0.27-0.29,0.37c-0.1,0.08-0.2,0.13-0.31,0.16
			c-0.13,0.03-0.21,0.05-0.25,0.06l-0.06,0.02l-0.03,0.39h3.82v-0.39l-0.08-0.02c-0.21-0.06-0.37-0.11-0.46-0.16
			c-0.1-0.06-0.18-0.12-0.27-0.21c-0.08-0.09-0.13-0.18-0.17-0.27c-0.03-0.09-0.06-0.2-0.07-0.32c-0.01-0.12-0.01-0.26-0.01-0.43
			v-9.06h2.49c0.36,0,0.65,0.05,0.86,0.15c0.19,0.09,0.31,0.32,0.37,0.69l0.01,0.09h0.38v-1.97h-9.91V249.72z"/>
		<path d="M44.68,259.08c-0.11-0.04-0.21-0.12-0.3-0.23c-0.09-0.11-0.15-0.21-0.17-0.32c-0.02-0.12-0.04-0.24-0.05-0.4
			c-0.02-0.11-0.02-0.23-0.02-0.34v-7.96c0-0.14,0-0.34,0-0.59c0.01-0.24,0.03-0.42,0.07-0.54c0.03-0.11,0.09-0.2,0.17-0.27
			c0.08-0.08,0.16-0.14,0.24-0.18c0.08-0.04,0.16-0.07,0.23-0.09c0.09-0.02,0.15-0.04,0.19-0.05l0.07-0.02v-0.36H41.5l0.01,0.39h0.1
			c0.03,0,0.07,0.01,0.14,0.03c0.07,0.01,0.15,0.04,0.24,0.07c0.09,0.04,0.16,0.09,0.24,0.16c0.07,0.06,0.13,0.15,0.17,0.26
			c0.04,0.11,0.06,0.25,0.06,0.43v3.74h-6.3v-3.05c0-0.28,0.01-0.52,0.02-0.73c0.01-0.19,0.05-0.34,0.1-0.44
			c0.04-0.09,0.1-0.16,0.17-0.21c0.08-0.06,0.16-0.12,0.23-0.14c0.07-0.03,0.14-0.05,0.22-0.07c0.07-0.02,0.13-0.04,0.17-0.05
			l0.07-0.02v-0.36H33.5v0.36l0.06,0.02c0.04,0.01,0.1,0.03,0.2,0.05c0.07,0.01,0.16,0.04,0.24,0.07c0.07,0.04,0.15,0.09,0.23,0.16
			c0.07,0.06,0.13,0.16,0.18,0.27c0.05,0.15,0.08,0.29,0.08,0.44c0.01,0.15,0.01,0.38-0.01,0.69v7.69c0,0.26-0.01,0.5-0.01,0.71
			c0,0.2-0.02,0.34-0.06,0.43c-0.03,0.12-0.09,0.22-0.17,0.29c-0.08,0.08-0.16,0.15-0.25,0.18c-0.09,0.04-0.17,0.07-0.25,0.09
			c-0.11,0.02-0.14,0.03-0.15,0.03h-0.1v0.41h3.64v-0.41h-0.1c-0.02,0-0.05-0.01-0.13-0.02c-0.07-0.01-0.14-0.04-0.22-0.08
			c-0.09-0.04-0.17-0.09-0.25-0.16c-0.07-0.05-0.13-0.14-0.18-0.24c-0.06-0.12-0.09-0.28-0.09-0.45c-0.01-0.19-0.01-0.45-0.01-0.77
			v-3.65h6.3v3.62c0,0.27,0,0.51-0.01,0.72c-0.01,0.2-0.02,0.35-0.04,0.44c-0.02,0.06-0.05,0.12-0.07,0.16
			c-0.02,0.06-0.04,0.09-0.06,0.1c-0.08,0.1-0.17,0.18-0.28,0.23c-0.12,0.05-0.26,0.09-0.4,0.1l-0.08,0.01l-0.04,0.4h3.67v-0.39
			l-0.09-0.01C44.92,259.16,44.79,259.12,44.68,259.08z"/>
		<path d="M59.39,250.9c-0.17-0.37-0.36-0.69-0.54-0.96c-0.2-0.27-0.37-0.48-0.52-0.65c-0.16-0.17-0.36-0.36-0.63-0.59
			c-0.26-0.22-0.59-0.43-0.97-0.63c-0.38-0.2-0.82-0.36-1.3-0.49c-0.49-0.13-1.04-0.2-1.65-0.2c-0.7,0-1.34,0.09-1.9,0.26
			c-0.56,0.17-1.05,0.38-1.46,0.62c-0.41,0.24-0.77,0.5-1.06,0.78c-0.28,0.27-0.51,0.51-0.67,0.71c-0.13,0.15-0.27,0.35-0.42,0.59
			c-0.16,0.25-0.31,0.54-0.45,0.86c-0.14,0.33-0.26,0.71-0.36,1.13c-0.09,0.43-0.15,0.91-0.15,1.43c0,0.64,0.07,1.23,0.22,1.75
			c0.15,0.51,0.33,0.97,0.55,1.37c0.22,0.4,0.46,0.73,0.71,1c0.25,0.27,0.47,0.49,0.66,0.66c0.61,0.5,1.27,0.87,1.97,1.08
			c0.7,0.22,1.45,0.34,2.22,0.34c0.97,0,1.87-0.16,2.65-0.45c0.8-0.31,1.53-0.84,2.18-1.58c0.36-0.39,0.64-0.8,0.85-1.21
			c0.21-0.41,0.37-0.8,0.46-1.17c0.1-0.37,0.17-0.71,0.19-1.01c0.02-0.3,0.04-0.55,0.04-0.75c0-0.58-0.06-1.12-0.18-1.6
			C59.71,251.7,59.56,251.27,59.39,250.9z M53.77,258.94c-0.57,0-1.08-0.08-1.51-0.25c-0.44-0.17-0.82-0.37-1.14-0.6
			c-0.31-0.23-0.57-0.47-0.76-0.73c-0.2-0.25-0.36-0.47-0.47-0.64c-0.2-0.32-0.37-0.64-0.49-0.96c-0.12-0.31-0.21-0.61-0.26-0.88
			c-0.06-0.28-0.1-0.53-0.11-0.75c-0.02-0.22-0.02-0.42-0.02-0.56c0-0.58,0.05-1.09,0.17-1.54c0.11-0.45,0.26-0.84,0.43-1.19
			c0.17-0.33,0.37-0.62,0.58-0.86c0.21-0.23,0.41-0.43,0.59-0.58c0.27-0.22,0.55-0.39,0.84-0.52c0.29-0.13,0.56-0.23,0.81-0.29
			c0.25-0.06,0.48-0.1,0.69-0.12c0.21-0.02,0.38-0.03,0.49-0.03c0.46,0,0.88,0.05,1.24,0.16c0.36,0.11,0.69,0.24,0.96,0.39
			c0.27,0.15,0.5,0.31,0.69,0.48c0.19,0.18,0.35,0.33,0.46,0.47c0.14,0.18,0.29,0.4,0.46,0.68c0.17,0.27,0.32,0.59,0.46,0.96
			c0.14,0.38,0.24,0.8,0.31,1.27c0.06,0.47,0.08,1,0.03,1.56c-0.01,0.13-0.04,0.33-0.08,0.61c-0.03,0.27-0.11,0.58-0.23,0.92
			c-0.16,0.46-0.37,0.87-0.64,1.23c-0.26,0.36-0.57,0.68-0.93,0.94c-0.36,0.26-0.75,0.47-1.18,0.6
			C54.73,258.88,54.27,258.94,53.77,258.94z"/>
		<path d="M70.32,257.63c-0.05,0.18-0.1,0.32-0.15,0.43c-0.05,0.1-0.1,0.17-0.15,0.23c-0.08,0.08-0.17,0.14-0.28,0.18
			c-0.11,0.04-0.23,0.07-0.35,0.08c-0.13,0.01-0.25,0.03-0.38,0.03c-0.13,0-0.24,0.01-0.35,0.01h-2.29l-0.66-0.03
			c-0.13,0-0.26-0.04-0.39-0.11c-0.19-0.11-0.3-0.26-0.34-0.46c-0.04-0.23-0.07-0.55-0.08-0.96v-7.06c0.01-0.28,0.02-0.54,0.03-0.77
			c0.01-0.22,0.03-0.39,0.05-0.48c0.04-0.13,0.1-0.23,0.17-0.31c0.08-0.07,0.17-0.14,0.25-0.19c0.08-0.04,0.16-0.07,0.25-0.09
			c0.08-0.01,0.14-0.04,0.18-0.04l0.08-0.02v-0.37h-3.82v0.36l0.07,0.02c0.04,0.02,0.1,0.03,0.2,0.05c0.07,0.01,0.16,0.05,0.25,0.09
			c0.09,0.05,0.18,0.11,0.26,0.19c0.08,0.08,0.15,0.19,0.2,0.31c0.03,0.11,0.06,0.27,0.07,0.49c0.01,0.23,0.02,0.49,0.02,0.78v6.91
			c0,0.3-0.01,0.59-0.01,0.86c0,0.27-0.01,0.45-0.02,0.53c-0.03,0.18-0.09,0.33-0.16,0.43c-0.08,0.11-0.16,0.19-0.25,0.26
			c-0.09,0.07-0.19,0.11-0.28,0.15c-0.1,0.03-0.18,0.04-0.24,0.05l-0.09,0.02v0.39h8.6v-2.05h-0.38L70.32,257.63z"/>
		<path d="M75.57,259.05c-0.12-0.05-0.23-0.13-0.33-0.25c-0.08-0.11-0.14-0.21-0.15-0.32c-0.02-0.15-0.02-0.22-0.03-0.28
			c-0.02-0.12-0.03-0.25-0.03-0.38v-8c0-0.28,0.01-0.51,0.01-0.7c0-0.18,0.02-0.32,0.05-0.43c0.04-0.12,0.1-0.22,0.16-0.3
			c0.07-0.07,0.14-0.13,0.22-0.17c0.09-0.04,0.17-0.07,0.24-0.08l0.04-0.01c0.06-0.01,0.12-0.03,0.16-0.04l0.07-0.02v-0.37h-3.69
			v0.37l0.08,0.02c0.04,0.01,0.11,0.03,0.21,0.05c0.08,0.01,0.16,0.04,0.26,0.08c0.09,0.04,0.17,0.1,0.26,0.18
			c0.09,0.08,0.15,0.18,0.2,0.32c0.04,0.12,0.06,0.26,0.07,0.41c0,0.17,0.01,0.39,0.01,0.68v7.57c-0.01,0.38-0.02,0.67-0.03,0.89
			c0,0.19-0.06,0.37-0.15,0.5c-0.1,0.14-0.21,0.23-0.34,0.29c-0.14,0.05-0.29,0.1-0.45,0.13l-0.08,0.02v0.39h3.74v-0.39l-0.07-0.02
			C75.85,259.15,75.71,259.11,75.57,259.05z"/>
		<path d="M80.52,250.98c0.17-0.32,0.34-0.58,0.53-0.8c0.19-0.22,0.37-0.41,0.53-0.55c0.35-0.3,0.72-0.54,1.1-0.71
			c0.38-0.17,0.75-0.3,1.09-0.37c0.34-0.07,0.65-0.13,0.93-0.14c0.28-0.01,0.5-0.02,0.65-0.02c0.43,0,0.91,0.04,1.4,0.14
			c0.48,0.09,0.91,0.27,1.26,0.55c0.22,0.18,0.38,0.36,0.49,0.54l0.28,0.51h0.36l0.07-2.14l-0.08-0.02
			c-0.46-0.13-0.88-0.24-1.23-0.31c-0.36-0.08-0.69-0.14-0.98-0.18c-0.29-0.05-0.56-0.08-0.81-0.09c-0.24-0.01-0.48-0.01-0.72-0.01
			c-0.22,0-0.53,0.01-0.92,0.03c-0.4,0.02-0.83,0.1-1.31,0.21c-0.48,0.12-1,0.31-1.53,0.56c-0.53,0.25-1.05,0.62-1.54,1.08
			c-0.44,0.41-0.78,0.84-1.04,1.28c-0.25,0.44-0.45,0.86-0.57,1.27c-0.13,0.41-0.22,0.79-0.25,1.14c-0.04,0.34-0.05,0.63-0.05,0.84
			c0,0.63,0.08,1.25,0.25,1.83c0.17,0.58,0.42,1.13,0.74,1.61c0.33,0.49,0.73,0.93,1.2,1.32c0.47,0.38,1.01,0.69,1.61,0.92
			c0.3,0.12,0.61,0.22,0.91,0.29c0.29,0.05,0.57,0.1,0.82,0.13c0.25,0.03,0.48,0.05,0.67,0.06c0.2,0.01,0.35,0.01,0.46,0.01
			c0.47,0,1-0.04,1.59-0.11c0.58-0.07,1.11-0.17,1.57-0.29c0.19-0.05,0.38-0.11,0.56-0.17c0.19-0.06,0.38-0.12,0.57-0.19l0.07-0.02
			l-0.07-2.05h-0.37l-0.03,0.07c-0.03,0.09-0.08,0.2-0.13,0.33c-0.05,0.12-0.16,0.26-0.29,0.42c-0.06,0.07-0.16,0.15-0.27,0.25
			c-0.11,0.09-0.25,0.18-0.43,0.27c-0.22,0.11-0.46,0.19-0.71,0.25c-0.26,0.07-0.5,0.11-0.72,0.14c-0.23,0.04-0.43,0.05-0.59,0.06
			c-0.17,0.01-0.29,0.01-0.35,0.01c-0.2,0-0.45-0.01-0.74-0.03c-0.3-0.02-0.63-0.09-0.99-0.19c-0.35-0.11-0.73-0.27-1.11-0.49
			c-0.37-0.22-0.74-0.53-1.1-0.91c-0.14-0.15-0.29-0.34-0.45-0.57c-0.15-0.22-0.3-0.49-0.44-0.81c-0.13-0.3-0.25-0.67-0.34-1.05
			c-0.1-0.4-0.14-0.84-0.14-1.34c0-0.53,0.06-1.01,0.17-1.43C80.22,251.66,80.36,251.29,80.52,250.98z"/>
		<path d="M110.35,248.2h0.11c0.02,0,0.04,0.01,0.09,0.03l0.21,0.06c0.08,0.02,0.15,0.05,0.22,0.09c0.07,0.04,0.13,0.08,0.18,0.13
			c0.13,0.16,0.19,0.36,0.2,0.61c0,0.27,0.01,0.5,0.01,0.69v5.29c0,0.28-0.01,0.53-0.02,0.74c-0.02,0.21-0.04,0.4-0.07,0.57
			c-0.03,0.17-0.06,0.31-0.1,0.45c-0.04,0.13-0.09,0.27-0.14,0.41c-0.08,0.17-0.16,0.32-0.23,0.43c-0.08,0.13-0.14,0.21-0.18,0.27
			c-0.1,0.1-0.22,0.21-0.37,0.33c-0.15,0.11-0.33,0.22-0.55,0.32c-0.21,0.09-0.47,0.18-0.75,0.25c-0.28,0.06-0.59,0.1-0.95,0.1
			c-0.53,0-1.05-0.09-1.55-0.29c-0.49-0.18-0.91-0.49-1.25-0.93c-0.16-0.21-0.29-0.43-0.37-0.64c-0.09-0.22-0.16-0.44-0.2-0.68
			c-0.04-0.23-0.07-0.47-0.08-0.7c-0.02-0.24-0.02-0.5-0.02-0.76v-5.22c0.01-0.24,0.02-0.44,0.02-0.62
			c0.01-0.16,0.03-0.31,0.08-0.42c0.05-0.12,0.13-0.22,0.25-0.3c0.12-0.09,0.31-0.16,0.56-0.23l0.08-0.01l0.03-0.37h-3.68v0.37
			l0.08,0.02c0.3,0.09,0.51,0.18,0.61,0.27c0.14,0.1,0.23,0.24,0.25,0.42c0.02,0.21,0.03,0.49,0.03,0.85v5.32
			c-0.01,0.55,0.01,1,0.05,1.33c0.05,0.32,0.11,0.62,0.2,0.9c0.12,0.31,0.28,0.64,0.51,0.95c0.22,0.32,0.53,0.62,0.89,0.89
			c0.37,0.26,0.83,0.47,1.36,0.64c0.53,0.16,1.18,0.24,1.91,0.24c0.76,0,1.4-0.09,1.93-0.27c0.53-0.18,0.98-0.41,1.32-0.69
			c0.35-0.28,0.62-0.61,0.82-0.95c0.2-0.34,0.34-0.68,0.42-1.01c0.05-0.21,0.1-0.42,0.13-0.65c0.03-0.22,0.05-0.42,0.05-0.62
			c0-0.19,0.01-0.35,0.01-0.49v-5.63c0-0.3,0.01-0.53,0.02-0.68c0.01-0.14,0.05-0.27,0.13-0.39c0.09-0.13,0.19-0.23,0.31-0.27
			c0.13-0.05,0.28-0.1,0.46-0.15l0.08-0.02v-0.37h-3.07L110.35,248.2z"/>
		<path d="M124.54,248.18l0.09,0.02c0.38,0.08,0.63,0.2,0.73,0.35c0.11,0.16,0.18,0.34,0.2,0.54c0.02,0.12,0.03,0.23,0.02,0.35
			c0,0.13-0.01,0.21-0.01,0.25v6.82l-7.69-8.67l-0.04-0.04h-2.55v0.38l0.1,0.01c0.17,0.03,0.32,0.06,0.46,0.11
			c0.12,0.04,0.21,0.13,0.3,0.28c0.06,0.11,0.1,0.23,0.11,0.37c0,0.15,0,0.37,0,0.64v8.3c0,0.16,0,0.34-0.02,0.57
			c-0.01,0.2-0.07,0.37-0.17,0.48c-0.11,0.14-0.23,0.23-0.38,0.26c-0.16,0.04-0.27,0.07-0.32,0.08l-0.08,0.01l-0.04,0.39h3.12v-0.38
			l-0.09-0.02c-0.24-0.06-0.44-0.13-0.58-0.24c-0.13-0.11-0.23-0.28-0.28-0.52c-0.02-0.09-0.02-0.17-0.03-0.26
			c-0.01-0.08-0.01-0.21-0.01-0.38v-8.09l8.94,10.07h0.31v-10.22l0.03-0.7c0.01-0.2,0.1-0.37,0.29-0.51
			c0.06-0.05,0.13-0.09,0.22-0.13c0.09-0.04,0.22-0.08,0.37-0.11l0.08-0.02l0.03-0.38h-3.12V248.18z"/>
		<path d="M132.88,259.15c-0.12-0.05-0.23-0.13-0.33-0.25c-0.09-0.1-0.14-0.22-0.16-0.32c-0.02-0.15-0.02-0.23-0.02-0.28
			c-0.02-0.12-0.03-0.25-0.03-0.38v-8c0-0.27,0-0.51,0.01-0.7c0-0.18,0.02-0.33,0.05-0.43c0.04-0.13,0.09-0.22,0.16-0.3
			c0.07-0.08,0.15-0.13,0.23-0.17c0.1-0.04,0.17-0.06,0.23-0.08l0.04-0.01c0.06-0.01,0.11-0.03,0.16-0.04l0.08-0.02v-0.37h-3.69
			v0.37l0.08,0.02c0.05,0.02,0.12,0.03,0.21,0.05c0.07,0.01,0.16,0.04,0.26,0.08c0.09,0.04,0.18,0.1,0.27,0.18
			c0.08,0.08,0.14,0.18,0.19,0.32c0.04,0.13,0.06,0.26,0.07,0.42c0,0.17,0.01,0.39,0.01,0.67v7.57c-0.01,0.37-0.02,0.67-0.02,0.88
			c-0.01,0.19-0.06,0.36-0.16,0.5c-0.1,0.13-0.21,0.23-0.34,0.28c-0.14,0.05-0.29,0.1-0.44,0.14l-0.08,0.02v0.38h3.74v-0.38
			l-0.08-0.02C133.16,259.26,133.01,259.2,132.88,259.15z"/>
		<path d="M143.14,248.18l0.07,0.02c0.13,0.04,0.25,0.07,0.37,0.11c0.1,0.03,0.18,0.09,0.24,0.2c0.04,0.05,0.05,0.1,0.06,0.14
			c0.01,0.06,0.01,0.1,0.01,0.13c0,0.1-0.01,0.21-0.04,0.32c-0.03,0.11-0.06,0.22-0.09,0.32c-0.04,0.1-0.07,0.18-0.1,0.26
			c-0.04,0.08-0.06,0.11-0.06,0.14l-3.07,7l-2.91-7.01l-0.13-0.33c-0.04-0.11-0.08-0.21-0.1-0.32c-0.04-0.15-0.06-0.28-0.06-0.39
			c0-0.14,0.04-0.25,0.14-0.34c0.09-0.09,0.29-0.16,0.59-0.22l0.09-0.02v-0.38h-3.75v0.37l0.08,0.02c0.13,0.03,0.25,0.06,0.33,0.1
			c0.08,0.03,0.17,0.1,0.27,0.2c0.14,0.12,0.24,0.25,0.31,0.4c0.07,0.16,0.12,0.26,0.14,0.33c0.08,0.16,0.15,0.33,0.22,0.49
			c0.07,0.16,0.14,0.33,0.21,0.51l4.06,9.56l0.03,0.06h0.3l4.32-9.77c0.09-0.19,0.19-0.41,0.3-0.68c0.11-0.26,0.23-0.48,0.35-0.66
			c0.11-0.17,0.22-0.29,0.33-0.36c0.12-0.07,0.29-0.13,0.49-0.17l0.09-0.02v-0.37h-3.07V248.18z"/>
		<path d="M155.23,257.71c-0.05,0.14-0.09,0.28-0.14,0.4c-0.04,0.11-0.11,0.22-0.2,0.32c-0.11,0.11-0.23,0.17-0.36,0.18
			c-0.19,0.03-0.26,0.04-0.32,0.04c-0.12,0.02-0.23,0.03-0.33,0.03h-1.89c-0.41-0.01-0.77-0.03-1.08-0.04
			c-0.29-0.02-0.49-0.07-0.6-0.15c-0.05-0.04-0.08-0.08-0.1-0.11c-0.02-0.04-0.05-0.08-0.06-0.1c-0.08-0.17-0.13-0.37-0.13-0.57
			c0-0.22-0.02-0.42-0.03-0.61v-3.23h2.45c0.25,0,0.49,0.02,0.74,0.06c0.22,0.03,0.39,0.16,0.51,0.37c0.02,0.06,0.05,0.12,0.07,0.19
			c0.03,0.06,0.05,0.16,0.09,0.28l0.02,0.08h0.39v-3.01h-0.39l-0.02,0.08c-0.01,0.03-0.02,0.09-0.04,0.18
			c-0.02,0.08-0.05,0.16-0.09,0.24c-0.04,0.09-0.1,0.17-0.17,0.26c-0.08,0.08-0.17,0.13-0.29,0.17c-0.13,0.05-0.27,0.08-0.42,0.08
			h-2.86v-4.02h3.05c0.21,0,0.41,0.02,0.59,0.06c0.16,0.04,0.29,0.15,0.39,0.35c0.04,0.07,0.07,0.14,0.1,0.22
			c0.02,0.08,0.05,0.17,0.07,0.26l0.02,0.07l0.39,0.03l0.03-2.01h-7.34v0.39h0.1c0.03,0,0.08,0.01,0.17,0.02
			c0.07,0.01,0.16,0.04,0.24,0.08c0.09,0.04,0.17,0.1,0.25,0.16c0.07,0.06,0.13,0.16,0.17,0.29c0.05,0.12,0.07,0.25,0.07,0.39
			l0.01,8.29c-0.01,0.16-0.01,0.32-0.01,0.48c0,0.16,0,0.32-0.01,0.48c-0.01,0.16-0.05,0.31-0.12,0.44
			c-0.06,0.12-0.16,0.22-0.32,0.3c-0.06,0.04-0.12,0.07-0.19,0.08c-0.09,0.03-0.17,0.05-0.26,0.07l-0.07,0.02l-0.03,0.38h8.33v-2.06
			h-0.38L155.23,257.71z"/>
		<path d="M167.62,259.21c-0.1-0.03-0.19-0.09-0.27-0.16c-0.1-0.08-0.19-0.17-0.25-0.29c-0.07-0.12-0.12-0.2-0.14-0.24
			c-0.19-0.28-0.36-0.57-0.52-0.88l-2.28-4.15c0.06-0.03,0.13-0.06,0.21-0.11c0.14-0.07,0.3-0.18,0.48-0.3
			c0.17-0.13,0.35-0.27,0.53-0.45c0.18-0.18,0.33-0.39,0.46-0.63c0.2-0.38,0.29-0.8,0.29-1.27c0-0.44-0.07-0.82-0.21-1.12
			c-0.13-0.29-0.25-0.5-0.34-0.64c-0.22-0.29-0.47-0.51-0.76-0.67c-0.28-0.15-0.57-0.27-0.89-0.34c-0.31-0.07-0.63-0.12-0.96-0.13
			c-0.32-0.01-0.63-0.02-0.93-0.02h-4.27l0.01,0.39h0.1c0.02,0,0.06,0.01,0.13,0.03c0.07,0.01,0.15,0.04,0.24,0.07
			c0.09,0.03,0.17,0.08,0.24,0.14c0.08,0.06,0.14,0.14,0.19,0.24c0.05,0.11,0.08,0.25,0.09,0.4c0.01,0.17,0.02,0.39,0.02,0.66v7.95
			c-0.02,0.26-0.02,0.49-0.03,0.68c-0.01,0.17-0.03,0.31-0.07,0.4c-0.04,0.11-0.1,0.2-0.17,0.26c-0.08,0.07-0.15,0.12-0.24,0.16
			c-0.09,0.04-0.16,0.07-0.23,0.09c-0.09,0.02-0.13,0.02-0.15,0.02h-0.1v0.4h3.77v-0.38l-0.08-0.02c-0.24-0.07-0.41-0.12-0.52-0.17
			c-0.1-0.04-0.19-0.1-0.26-0.19c-0.1-0.11-0.16-0.21-0.18-0.3c-0.02-0.11-0.03-0.24-0.05-0.39c-0.01-0.09-0.01-0.19-0.01-0.3
			c0-0.1-0.01-0.21-0.02-0.32v-3.58c0.11,0.01,0.22,0.01,0.33,0.01c0.34,0.01,0.73,0.01,1.13-0.02c0.21-0.01,0.42-0.03,0.61-0.05
			l2.15,3.92c0.12,0.22,0.26,0.46,0.41,0.7c0.16,0.26,0.35,0.48,0.57,0.65c0.14,0.12,0.29,0.2,0.43,0.27
			c0.14,0.05,0.29,0.1,0.42,0.12c0.13,0.03,0.25,0.04,0.37,0.04h1.02v-0.37l-0.06-0.03C167.8,259.3,167.74,259.26,167.62,259.21z
			 M160.49,248.86h1.18c0.32-0.01,0.64,0,0.96,0.03c0.31,0.03,0.6,0.14,0.88,0.32c0.3,0.18,0.52,0.43,0.65,0.74
			c0.14,0.31,0.21,0.65,0.21,0.97c0,0.27-0.03,0.5-0.08,0.67c-0.06,0.18-0.1,0.32-0.16,0.41c-0.12,0.22-0.28,0.41-0.46,0.54
			c-0.18,0.13-0.39,0.24-0.62,0.32c-0.23,0.07-0.47,0.12-0.72,0.15c-0.25,0.02-0.5,0.04-0.73,0.04h-1.14L160.49,248.86z"/>
		<path d="M175.17,253.46l-0.57-0.37l-1.11-0.65c-0.28-0.17-0.58-0.37-0.89-0.58c-0.29-0.2-0.5-0.47-0.63-0.78
			c-0.05-0.14-0.08-0.28-0.09-0.39c-0.01-0.13-0.02-0.22-0.02-0.27c0-0.3,0.06-0.58,0.16-0.81c0.11-0.23,0.26-0.42,0.44-0.58
			c0.19-0.16,0.4-0.28,0.66-0.36c0.25-0.08,0.53-0.12,0.81-0.12c0.39,0,0.73,0.06,0.99,0.17c0.27,0.12,0.48,0.26,0.64,0.42
			c0.17,0.18,0.29,0.35,0.38,0.54c0.09,0.19,0.17,0.35,0.24,0.5l0.03,0.06h0.36v-2.12l-0.07-0.02c-0.12-0.04-0.27-0.09-0.44-0.16
			c-0.17-0.07-0.37-0.13-0.59-0.19c-0.22-0.05-0.47-0.1-0.74-0.15c-0.28-0.05-0.58-0.07-0.92-0.07c-0.11,0-0.27,0.01-0.47,0.02
			c-0.2,0.01-0.44,0.05-0.68,0.1c-0.25,0.07-0.51,0.17-0.78,0.31c-0.27,0.14-0.53,0.34-0.76,0.59c-0.16,0.15-0.33,0.41-0.51,0.74
			c-0.19,0.34-0.29,0.8-0.29,1.35c0,0.18,0.02,0.38,0.06,0.6c0.04,0.22,0.1,0.44,0.21,0.67c0.1,0.22,0.26,0.47,0.46,0.71
			c0.2,0.25,0.48,0.48,0.82,0.72c0.12,0.08,0.22,0.15,0.33,0.21l0.06,0.03c0.09,0.05,0.17,0.1,0.26,0.16l1.06,0.63
			c0.33,0.2,0.63,0.4,0.92,0.62c0.26,0.21,0.47,0.49,0.62,0.85c0.03,0.07,0.07,0.18,0.12,0.33c0.04,0.14,0.06,0.32,0.06,0.54
			c0,0.3-0.04,0.56-0.12,0.74c-0.08,0.2-0.15,0.36-0.2,0.45c-0.24,0.38-0.56,0.66-0.94,0.83c-0.38,0.18-0.81,0.27-1.26,0.27
			c-0.28,0-0.53-0.03-0.75-0.08c-0.21-0.06-0.4-0.14-0.57-0.23c-0.16-0.09-0.3-0.18-0.41-0.29c-0.11-0.11-0.2-0.2-0.25-0.29
			c-0.06-0.09-0.12-0.19-0.17-0.3c-0.06-0.11-0.14-0.27-0.22-0.48l-0.02-0.05l-0.36-0.04v2.1l0.06,0.03
			c0.27,0.12,0.62,0.26,1.04,0.41c0.43,0.15,1,0.23,1.7,0.23c0.12,0,0.3,0,0.52-0.02c0.23-0.01,0.48-0.05,0.76-0.11
			c0.28-0.06,0.57-0.16,0.86-0.31c0.31-0.14,0.61-0.35,0.89-0.63c0.25-0.23,0.45-0.48,0.59-0.72c0.14-0.24,0.25-0.48,0.32-0.71
			c0.08-0.24,0.13-0.45,0.14-0.64c0.01-0.19,0.03-0.35,0.03-0.47c0-0.95-0.35-1.75-1.05-2.4
			C175.66,253.8,175.43,253.62,175.17,253.46z"/>
		<path d="M182.79,259.15c-0.12-0.05-0.23-0.13-0.33-0.25c-0.08-0.1-0.14-0.22-0.15-0.32c-0.02-0.15-0.02-0.23-0.02-0.28
			c-0.02-0.12-0.03-0.25-0.03-0.38v-8c0-0.27,0-0.51,0.01-0.7c0-0.18,0.02-0.33,0.05-0.43c0.04-0.13,0.09-0.22,0.16-0.3
			c0.07-0.08,0.14-0.13,0.22-0.17c0.1-0.04,0.17-0.06,0.23-0.08l0.04-0.01c0.06-0.01,0.11-0.03,0.16-0.04l0.08-0.02v-0.37h-3.69
			v0.37l0.08,0.02c0.04,0.02,0.11,0.03,0.21,0.05c0.07,0.01,0.16,0.04,0.26,0.08c0.08,0.04,0.17,0.1,0.26,0.18
			c0.08,0.08,0.14,0.18,0.19,0.32c0.04,0.13,0.06,0.26,0.07,0.42c0,0.17,0.01,0.39,0.01,0.67v7.57c-0.01,0.37-0.02,0.67-0.02,0.88
			c0,0.19-0.06,0.36-0.15,0.5c-0.1,0.13-0.22,0.23-0.34,0.28c-0.14,0.05-0.29,0.1-0.44,0.14l-0.08,0.02v0.38h3.73v-0.38l-0.08-0.02
			C183.06,259.26,182.93,259.2,182.79,259.15z"/>
		<path d="M184.38,249.81h0.39l0.08-0.39c0.02-0.12,0.09-0.23,0.21-0.34c0.11-0.09,0.25-0.16,0.4-0.18
			c0.17-0.04,0.41-0.07,0.72-0.07h2.28v9.19c0,0.31-0.03,0.55-0.1,0.71c-0.07,0.16-0.16,0.28-0.29,0.36
			c-0.1,0.08-0.2,0.13-0.31,0.15c-0.13,0.03-0.2,0.06-0.24,0.07l-0.06,0.02l-0.03,0.38h3.81v-0.38l-0.08-0.02
			c-0.21-0.06-0.36-0.11-0.46-0.16c-0.09-0.06-0.18-0.13-0.27-0.2c-0.08-0.09-0.13-0.18-0.16-0.28c-0.04-0.09-0.06-0.2-0.07-0.32
			c-0.01-0.12-0.02-0.27-0.02-0.43v-9.05h2.49c0.36,0,0.64,0.04,0.86,0.15c0.18,0.08,0.31,0.32,0.37,0.69l0.02,0.09h0.38v-1.97
			h-9.91V249.81z"/>
		<path d="M202.86,247.81v0.38l0.09,0.01c0.14,0.03,0.26,0.05,0.37,0.08c0.08,0.02,0.15,0.09,0.22,0.21
			c0.05,0.08,0.07,0.12,0.07,0.15c0.01,0.06,0.01,0.1,0.01,0.13c0,0.14-0.04,0.3-0.13,0.45c-0.1,0.16-0.18,0.31-0.25,0.45
			l-2.28,3.69l-2.37-3.7c-0.09-0.13-0.18-0.27-0.26-0.44c-0.09-0.17-0.13-0.33-0.13-0.48c0-0.12,0.02-0.21,0.08-0.27
			c0.05-0.08,0.12-0.13,0.18-0.16c0.09-0.04,0.16-0.07,0.21-0.08c0.07-0.01,0.11-0.03,0.13-0.03h0.11v-0.39h-3.76v0.37l0.08,0.01
			c0.11,0.04,0.22,0.07,0.31,0.11c0.08,0.05,0.15,0.09,0.21,0.14c0.06,0.05,0.12,0.11,0.18,0.19c0.06,0.09,0.13,0.18,0.21,0.27
			c0.05,0.08,0.1,0.15,0.14,0.22c0.04,0.08,0.1,0.15,0.15,0.21l3.32,5.14v3.43c0,0.32-0.01,0.55-0.03,0.69
			c-0.02,0.14-0.09,0.28-0.19,0.4c-0.1,0.11-0.2,0.17-0.31,0.21c-0.12,0.04-0.27,0.07-0.42,0.1l-0.09,0.01l-0.03,0.39h3.73v-0.38
			l-0.08-0.02c-0.06-0.01-0.15-0.03-0.29-0.06c-0.12-0.02-0.23-0.07-0.34-0.17c-0.15-0.14-0.25-0.31-0.27-0.52
			c-0.03-0.24-0.04-0.45-0.04-0.66v-3.34l3.32-5.33l0.32-0.49c0.1-0.16,0.23-0.28,0.37-0.37c0.09-0.05,0.17-0.09,0.26-0.11
			c0.11-0.02,0.18-0.05,0.22-0.06l0.07-0.03v-0.36H202.86z"/>
		<path d="M0.01,191.75h0.1c0.14,0,0.37,0.02,0.71,0.07c0.33,0.04,0.68,0.15,1.07,0.33c0.38,0.18,0.76,0.43,1.11,0.74
			c0.36,0.31,0.62,0.75,0.8,1.33c0.18,0.39,0.26,0.89,0.26,1.49v37.83c0,0.84-0.11,1.52-0.33,2.03c-0.27,0.88-0.74,1.49-1.39,1.81
			c-0.67,0.34-1.43,0.62-2.25,0.85l-0.08,0.02v1h14.98v-1l-0.08-0.02c-0.82-0.23-1.61-0.51-2.32-0.82c-0.71-0.31-1.23-0.89-1.6-1.79
			c-0.17-0.35-0.3-0.69-0.37-1.04c-0.06-0.32-0.1-0.71-0.1-1.14v-18.38h10.4c1.04,0.05,2.12,0.11,3.2,0.2
			c1.04,0.1,1.86,0.56,2.44,1.4c0.22,0.22,0.38,0.52,0.49,0.89c0.12,0.42,0.25,0.93,0.37,1.53l0.02,0.08h1.02v-11.82h-1.04v0.1
			c0,0.03-0.01,0.17-0.1,0.59c-0.08,0.34-0.18,0.69-0.3,1.05c-0.15,0.4-0.37,0.78-0.64,1.13c-0.29,0.37-0.64,0.64-1.1,0.83
			c-0.5,0.22-1.08,0.35-1.75,0.37c-0.68,0.02-1.56,0.03-2.61,0.03h-10.4v-17.36h12.39c0.95,0.04,1.91,0.15,2.87,0.31
			c0.93,0.15,1.69,0.67,2.27,1.55c0.22,0.35,0.4,0.71,0.54,1.08c0.14,0.38,0.25,0.73,0.34,1.08l0.02,0.09h1l0.07-7.29v-0.1H0.01
			V191.75z"/>
		<path d="M71.05,191.65v0.1h0.1c0.03,0,0.15,0.02,0.42,0.1c0.25,0.06,0.54,0.15,0.86,0.24c0.32,0.09,0.64,0.22,0.97,0.4
			c0.33,0.17,0.6,0.4,0.83,0.65c0.58,0.72,0.88,1.63,0.9,2.71c0.02,1.05,0.03,2.01,0.03,2.83v21.88c0,1.18-0.04,2.23-0.1,3.09
			c-0.06,0.85-0.16,1.66-0.28,2.38c-0.1,0.68-0.26,1.32-0.43,1.9c-0.19,0.57-0.4,1.15-0.62,1.73c-0.33,0.77-0.66,1.38-0.98,1.86
			c-0.31,0.47-0.59,0.87-0.78,1.12c-0.41,0.46-0.95,0.94-1.57,1.42c-0.65,0.5-1.42,0.95-2.32,1.36c-0.91,0.41-1.96,0.77-3.14,1.05
			c-1.18,0.29-2.54,0.44-4.03,0.44c-2.22,0-4.41-0.4-6.49-1.18c-2.09-0.8-3.87-2.13-5.31-3.96c-0.68-0.9-1.22-1.83-1.6-2.76
			c-0.38-0.9-0.67-1.86-0.86-2.84c-0.18-0.98-0.3-1.98-0.34-2.96c-0.05-1.01-0.07-2.07-0.07-3.14v-21.6
			c0.05-0.91,0.08-1.76,0.11-2.53c0.02-0.7,0.14-1.33,0.37-1.88c0.23-0.53,0.6-0.98,1.13-1.36c0.55-0.38,1.36-0.71,2.44-0.97
			l0.07-0.02l0.08-0.94H35.94v0.93l0.08,0.02c1.31,0.36,2.19,0.74,2.65,1.15c0.65,0.48,1.03,1.14,1.12,1.97
			c0.09,0.87,0.13,2.03,0.13,3.55v22c-0.04,2.31,0.02,4.08,0.21,5.42c0.19,1.33,0.46,2.55,0.83,3.64c0.46,1.28,1.15,2.59,2.05,3.89
			c0.88,1.3,2.09,2.49,3.6,3.54c1.47,1.05,3.33,1.91,5.52,2.58c2.19,0.66,4.82,0.99,7.83,0.99c3.06,0,5.71-0.37,7.86-1.09
			c2.16-0.72,3.96-1.67,5.36-2.82c1.41-1.15,2.51-2.44,3.29-3.82c0.79-1.4,1.37-2.78,1.74-4.09c0.24-0.94,0.4-1.8,0.51-2.64
			c0.12-0.94,0.18-1.76,0.21-2.5c0.02-0.73,0.04-1.43,0.04-2.02V198.2c0-1.22,0.02-2.16,0.06-2.83c0.04-0.64,0.24-1.23,0.6-1.76
			c0.4-0.62,0.89-1.04,1.46-1.26c0.62-0.24,1.27-0.44,1.91-0.61l0.08-0.02v-0.94H71.05V191.65z"/>
		<path d="M144.98,231.46c-0.17,0.56-0.36,1.12-0.55,1.67c-0.18,0.51-0.49,0.98-0.94,1.43c-0.48,0.48-1.04,0.78-1.66,0.86
			c-0.78,0.12-1.13,0.14-1.31,0.14c-0.5,0.08-0.98,0.13-1.43,0.13h-7.83c-1.74-0.05-3.2-0.09-4.46-0.16
			c-1.25-0.07-2.15-0.3-2.69-0.7c-0.23-0.19-0.39-0.35-0.49-0.52c-0.09-0.16-0.19-0.31-0.3-0.47c-0.36-0.75-0.55-1.59-0.57-2.49
			c-0.03-1.02-0.07-1.83-0.11-2.52v-13.7h10.48c1.07,0,2.12,0.08,3.11,0.24c0.99,0.14,1.78,0.74,2.35,1.74
			c0.09,0.23,0.2,0.48,0.31,0.75c0.12,0.28,0.24,0.69,0.38,1.21l0.02,0.08h1.01v-11.76h-1l-0.02,0.07
			c-0.04,0.12-0.09,0.34-0.17,0.73c-0.08,0.34-0.2,0.71-0.38,1.08c-0.17,0.36-0.43,0.75-0.77,1.13c-0.33,0.37-0.77,0.64-1.3,0.82
			c-0.59,0.23-1.19,0.34-1.85,0.34h-12.16v-17.28h12.95c0.88,0,1.73,0.08,2.52,0.26c0.76,0.18,1.37,0.71,1.85,1.6
			c0.18,0.32,0.33,0.66,0.44,1c0.14,0.44,0.23,0.78,0.31,1.09l0.02,0.07l1.01,0.09l0.14-7.49v-0.1H112.2v0.96h0.1
			c0.14,0,0.38,0.02,0.75,0.07c0.34,0.04,0.72,0.15,1.1,0.33c0.38,0.18,0.76,0.43,1.11,0.74c0.35,0.31,0.62,0.75,0.8,1.33
			c0.22,0.53,0.33,1.11,0.33,1.73v34.31c-0.05,0.64-0.06,1.3-0.04,1.96c0.02,0.66,0.02,1.33-0.03,2c-0.04,0.7-0.21,1.36-0.5,1.94
			c-0.29,0.58-0.76,1.04-1.44,1.39c-0.26,0.18-0.56,0.31-0.9,0.4c-0.34,0.09-0.69,0.18-1.06,0.27l-0.07,0.02l-0.09,1h33.75v-7.86
			H145L144.98,231.46z"/>
		<path d="M193.82,190.79v0.94l0.08,0.02c1.67,0.36,2.76,0.9,3.23,1.6c0.49,0.71,0.78,1.5,0.88,2.35c0.09,0.49,0.13,0.99,0.1,1.51
			c-0.03,0.47-0.04,0.83-0.04,1v29.11l-32.38-36.49l-0.03-0.04h-10.04v0.95l0.09,0.01c0.68,0.09,1.33,0.23,1.94,0.44
			c0.59,0.19,1.06,0.61,1.42,1.29c0.32,0.49,0.48,1.06,0.5,1.69c0.03,0.61,0.03,1.41,0.03,2.69v34.32c0,0.62-0.03,1.39-0.1,2.34
			c-0.07,0.93-0.33,1.63-0.78,2.18c-0.48,0.66-1.06,1.07-1.72,1.22c-0.57,0.14-1.09,0.25-1.37,0.31l-0.07,0.01l-0.09,1.01h12.18v-1
			l-0.08-0.02c-1.05-0.22-1.91-0.57-2.54-1.05c-0.63-0.45-1.07-1.25-1.29-2.35c-0.05-0.35-0.08-0.72-0.1-1.09
			c-0.02-0.36-0.03-0.89-0.03-1.56v-34.31l37.39,42.1l0.03,0.03h0.78l-0.01-41.93c0.04-0.87,0.08-1.7,0.12-2.53l0.01-0.38
			c0.05-0.89,0.49-1.68,1.35-2.35c0.25-0.22,0.58-0.42,0.97-0.6c0.4-0.18,0.94-0.34,1.59-0.46l0.08-0.02l0.08-0.94H193.82z"/>
		<path d="M90.37,191.73l0.09,0.02c0.76,0.13,1.5,0.35,2.21,0.67c0.68,0.31,1.17,0.87,1.49,1.71c0.28,0.91,0.41,2.44,0.41,4.69
			v40.39c0,1.92-0.11,3.81-0.35,5.62c-0.23,1.82-0.98,3.52-2.24,5.04c-0.46,0.6-1.02,1.18-1.7,1.77c-0.59,0.5-1.02,0.85-1.15,0.94
			l-0.08,0.05l0.58,1l0.09-0.04c1.18-0.54,2.11-1,2.78-1.37c0.64-0.34,1.21-0.71,1.76-1.1c1.52-0.96,2.72-2.02,3.57-3.13
			c0.86-1.16,1.5-2.23,1.93-3.27c0.44-1.06,0.72-2.09,0.84-3.07c0.11-0.95,0.19-1.8,0.24-2.51v-40.32c0-1.9,0.08-3.28,0.24-4.23
			c0.15-0.91,0.72-1.65,1.69-2.17c0.29-0.17,0.59-0.31,0.85-0.41c0.23-0.08,0.66-0.17,1.32-0.26l0.09-0.01v-0.95H90.37V191.73z"/>
	</g>
	<g>
		<g>
			<path d="M112.12,9.59V5.28c-1.98-0.2-4.14-0.34-6.6-0.41l-0.16,0V0h-4.83v4.87l-0.16,0c-2.47,0.07-4.64,0.21-6.64,0.41v4.31
				c1.97-0.21,4.15-0.35,6.62-0.42l0.17-0.01v13.88h4.83V9.16l0.17,0.01C108,9.24,110.16,9.38,112.12,9.59z"/>
			<g>
				<path style="fill-rule:evenodd;clip-rule:evenodd;" d="M58.4,19.61c0.16,0.04,0.31,0.04,0.46,0.03c4.4-0.69,11.24-5.21,14-8.73
					c0.05-0.07,0.1-0.14,0.11-0.23c0.08-0.32-0.11-0.63-0.43-0.7c-6.01,0-13.14,3.72-15.17,7.54c-0.04,0.09-0.09,0.18-0.11,0.28
					C57.07,18.6,57.58,19.41,58.4,19.61z"/>
				<path style="fill-rule:evenodd;clip-rule:evenodd;" d="M31.25,45.66c0.19,0,0.36-0.03,0.53-0.09c0.02,0,0.04-0.01,0.05-0.02
					c0.18-0.07,0.33-0.18,0.48-0.31c4.09-5.36,5.39-11.73,5.8-18.11c-0.02-0.31-0.27-0.57-0.6-0.57c-0.03,0-0.06,0-0.09,0.01
					c-0.13,0.02-0.24,0.08-0.33,0.17c-0.79,0.82-1.67,1.75-2.31,2.54c-3.15,3.83-5.26,8.09-5.26,13.16c0,0.71,0.07,1.42,0.26,2.12
					C29.96,45.19,30.55,45.66,31.25,45.66z"/>
				<path style="fill-rule:evenodd;clip-rule:evenodd;" d="M19.84,86.38c0.25,0.16,0.54,0.27,0.87,0.27c0.19,0,0.37-0.03,0.54-0.09
					c0.02,0,0.03-0.01,0.05-0.02c0.28-0.11,0.52-0.29,0.69-0.52c0.16-0.21,0.26-0.46,0.31-0.74c0.69-5.76-2.29-17.29-5.54-20.51
					c-0.1-0.1-0.25-0.16-0.42-0.16c-0.03,0-0.07,0-0.1,0.01c-0.13,0.02-0.25,0.09-0.34,0.18c-0.05,0.06-0.09,0.12-0.12,0.2
					c-1.44,6.04-1.45,11.98,1.21,17.75C17.66,84.17,18.62,85.4,19.84,86.38z"/>
				<path style="fill-rule:evenodd;clip-rule:evenodd;" d="M49.44,37.83c0.02-0.06,0.05-0.12,0.06-0.19c0-0.01,0-0.03,0-0.03
					c0-0.32-0.22-0.55-0.51-0.61c-6.35-0.11-13.31,4.93-14.99,9.53c-0.05,0.14-0.08,0.29-0.08,0.45c0,0.14,0.02,0.28,0.06,0.4
					c0.18,0.68,0.81,1.19,1.55,1.19c0.12,0,0.23-0.02,0.35-0.05C40.42,47.31,47.2,42.11,49.44,37.83z"/>
				<path style="fill-rule:evenodd;clip-rule:evenodd;" d="M42.73,28.58c0.17,0.05,0.34,0.08,0.5,0.07c0.02,0,0.03,0,0.05,0
					c0.18-0.01,0.35-0.07,0.52-0.14c5.25-3.65,8.28-9.02,10.51-14.66c0.08-0.29-0.08-0.59-0.37-0.68c-0.03-0.01-0.06-0.02-0.1-0.02
					c-0.12-0.02-0.24,0-0.35,0.06c-0.95,0.51-2.01,1.08-2.83,1.62c-3.95,2.55-7.1,5.78-8.58,10.35c-0.2,0.64-0.35,1.3-0.38,1.98
					C41.7,27.79,42.09,28.38,42.73,28.58z"/>
				<path style="fill-rule:evenodd;clip-rule:evenodd;" d="M61.12,23.74c0.03-0.05,0.06-0.11,0.07-0.18c0-0.01,0-0.03,0-0.03
					c0.03-0.3-0.16-0.54-0.42-0.62c-5.97-0.64-12.97,3.51-14.97,7.7c-0.05,0.13-0.09,0.27-0.11,0.41c-0.02,0.13,0,0.27,0.02,0.4
					c0.11,0.65,0.66,1.18,1.36,1.25c0.11,0.01,0.22-0.01,0.33-0.02C51.79,31.9,58.63,27.58,61.12,23.74z"/>
				<path style="fill-rule:evenodd;clip-rule:evenodd;" d="M28.23,67.74c0.18-0.01,0.34-0.05,0.5-0.11c4.58-2.11,9.54-9.09,11.37-14
					c0.01-0.04,0.03-0.1,0.03-0.15c0-0.01,0-0.03,0-0.05c0-0.05-0.01-0.1-0.02-0.15c-0.07-0.24-0.29-0.4-0.54-0.42
					c-5.16,0.12-12.11,7.47-12.98,13.18c0,0.05-0.01,0.11-0.01,0.16c0.01,0.14,0.03,0.27,0.07,0.4c0.03,0.12,0.09,0.24,0.15,0.35
					C27.08,67.44,27.63,67.76,28.23,67.74z"/>
				<path style="fill-rule:evenodd;clip-rule:evenodd;" d="M21.83,64.57c0.32,0.42,0.82,0.69,1.38,0.66c0.19,0,0.37-0.05,0.54-0.11
					c0.02-0.01,0.04-0.01,0.05-0.02c0.29-0.12,0.51-0.32,0.68-0.56c0.03-0.04,0.06-0.09,0.08-0.13c2.28-4.8,2.9-14.4,1.06-19.81
					c-0.08-0.27-0.33-0.46-0.63-0.45c-0.03,0-0.07,0.01-0.1,0.02c-0.13,0.03-0.26,0.09-0.34,0.2c-0.02,0.03-0.04,0.06-0.06,0.08
					c-0.6,1.03-1.14,1.94-1.61,2.89c-2.19,4.55-3.31,9.28-2.2,14.33C20.92,62.71,21.3,63.68,21.83,64.57z"/>
				<path style="fill-rule:evenodd;clip-rule:evenodd;" d="M24.77,86.04c0.09,0.29,0.26,0.56,0.5,0.75
					c0.28,0.23,0.63,0.37,1.02,0.37c0.19,0,0.37-0.04,0.54-0.09c0.02-0.01,0.04-0.01,0.05-0.02c0.16-0.06,0.29-0.15,0.42-0.25
					c4.11-3.35,7.35-12.09,7.75-16.72c0-0.16-0.06-0.31-0.18-0.42c-0.12-0.11-0.27-0.18-0.44-0.18c0,0,0,0,0,0
					C28.71,71.19,23.69,80.1,24.77,86.04z"/>
				<path style="fill-rule:evenodd;clip-rule:evenodd;" d="M20.96,106.4c0.52,0.54,1.12,0.97,1.78,1.31
					c0.23,0.1,0.49,0.17,0.76,0.17c0.21,0,0.42-0.04,0.61-0.11c0.29-0.1,0.54-0.27,0.74-0.49c0.1-0.1,0.17-0.22,0.25-0.35
					c0.07-0.13,0.12-0.26,0.16-0.4c0.04-0.15,0.06-0.3,0.06-0.47c-0.61-6.18-5.91-15.29-9.8-18.99c-0.11-0.09-0.24-0.16-0.38-0.18
					c-0.05,0-0.1,0-0.15,0c-0.04,0-0.08,0.01-0.12,0.02c-0.21,0.06-0.38,0.19-0.47,0.37c-0.03,0.05-0.05,0.11-0.07,0.17
					c-0.19,5.14,0.79,9.91,3.1,14.37C18.29,103.51,19.62,105.02,20.96,106.4z"/>
				<path style="fill-rule:evenodd;clip-rule:evenodd;" d="M61.77,155.97c0.25-0.12,0.47-0.27,0.66-0.47
					c0.1-0.11,0.19-0.24,0.27-0.38c0.16-0.29,0.26-0.64,0.26-1c0-0.54-0.23-1.04-0.57-1.4c-0.07-0.08-0.17-0.15-0.25-0.22
					c-5.5-3.79-15.85-5.99-21.62-5.43c-0.21,0.06-0.4,0.19-0.51,0.36c-0.05,0.08-0.09,0.17-0.12,0.27
					c-0.02,0.09-0.03,0.18-0.02,0.27c0,0.08,0.02,0.17,0.05,0.24c0.02,0.05,0.04,0.09,0.07,0.14c0.03,0.04,0.06,0.08,0.09,0.12
					c3.24,3.13,7.01,5.43,11.26,6.96c2.73,0.99,5.55,1.53,8.47,1.04C60.47,156.36,61.13,156.19,61.77,155.97z"/>
				<path style="fill-rule:evenodd;clip-rule:evenodd;" d="M31.98,127.02c0.18-0.01,0.36-0.04,0.53-0.09
					c0.28-0.1,0.53-0.28,0.74-0.49c0.09-0.1,0.17-0.22,0.24-0.34c0.07-0.13,0.13-0.26,0.17-0.4c0.04-0.16,0.06-0.32,0.06-0.49
					c0-0.06,0-0.12-0.01-0.18c-0.02-0.15-0.07-0.28-0.12-0.41c-3.4-6.8-8.95-11.23-15.28-15.06c-0.07-0.04-0.14-0.07-0.22-0.08
					c-0.05-0.01-0.1-0.01-0.15-0.01c-0.04,0.01-0.08,0.02-0.12,0.03c-0.21,0.05-0.38,0.18-0.48,0.36c-0.02,0.05-0.05,0.11-0.06,0.17
					c0,0.03-0.02,0.06-0.02,0.09c0,0.02,0,0.05,0,0.08c0,0.02,0,0.04,0,0.05c1.71,6.13,4.82,11.36,10.18,15.1
					C28.79,126.28,30.29,126.83,31.98,127.02z"/>
				<path style="fill-rule:evenodd;clip-rule:evenodd;" d="M28.38,106.78c0.1,0.13,0.23,0.23,0.36,0.34
					c0.06,0.04,0.12,0.08,0.19,0.11c0.26,0.14,0.56,0.22,0.87,0.21c0.22,0,0.42-0.05,0.61-0.11c0.29-0.1,0.54-0.27,0.74-0.49
					c0.01-0.01,0.02-0.02,0.02-0.03c3.12-4.19,4.13-13.29,3.38-18.68c-0.01-0.11-0.04-0.22-0.1-0.31c-0.04-0.06-0.08-0.11-0.14-0.15
					c-0.11-0.11-0.25-0.18-0.41-0.2c-0.05,0-0.1,0-0.14,0c-0.05,0-0.09,0.01-0.13,0.02c-0.08,0.02-0.14,0.07-0.21,0.1
					c-5.89,4.95-7.36,14.09-5.26,18.88C28.24,106.58,28.3,106.69,28.38,106.78z"/>
				<path style="fill-rule:evenodd;clip-rule:evenodd;" d="M44.14,142.43c0.1-0.02,0.2-0.04,0.29-0.07c0.29-0.1,0.53-0.28,0.74-0.5
					c0.1-0.1,0.18-0.22,0.24-0.34c0.07-0.13,0.13-0.26,0.16-0.4c0.04-0.15,0.06-0.32,0.06-0.49c0-0.06-0.01-0.12-0.01-0.18
					c-0.02-0.21-0.08-0.42-0.17-0.59c-0.06-0.12-0.12-0.21-0.2-0.31c-4.27-4.7-14-9.84-19.37-10.15c-0.03,0-0.05,0-0.08,0
					c-0.04,0.01-0.07,0.01-0.11,0.02c-0.21,0.05-0.38,0.19-0.47,0.37c-0.03,0.06-0.05,0.11-0.07,0.17
					c-0.01,0.03-0.01,0.06-0.02,0.09c0,0.02,0,0.05,0,0.08c0,0.02,0,0.05,0,0.07c0.01,0.05,0.02,0.11,0.03,0.16
					c0.02,0.04,0.04,0.08,0.06,0.12c2.87,5.29,10.78,11.94,17,12.06C42.86,142.55,43.49,142.5,44.14,142.43z"/>
				<path style="fill-rule:evenodd;clip-rule:evenodd;" d="M36.37,125.21c0.06,0.09,0.11,0.18,0.18,0.26
					c0.1,0.13,0.22,0.24,0.35,0.33c0.06,0.04,0.12,0.08,0.19,0.11c0.18,0.1,0.38,0.16,0.6,0.2c0.09,0.01,0.18,0.02,0.27,0.02
					c0.22,0,0.42-0.05,0.61-0.11c0.29-0.1,0.54-0.28,0.74-0.49c0.1-0.1,0.18-0.22,0.25-0.34c0.02-0.04,0.03-0.07,0.05-0.1
					c0.39-0.99,0.73-1.99,0.92-3.02c0.76-4.08,0.25-8.15-0.58-12.17c-0.2-0.94-0.44-1.87-0.71-2.92l0,0
					c-0.02-0.07-0.05-0.14-0.09-0.2c-0.03-0.06-0.08-0.12-0.13-0.16c-0.03-0.04-0.07-0.06-0.12-0.09c-0.08-0.05-0.18-0.09-0.29-0.1
					c-0.05,0-0.1,0-0.14,0c-0.04,0-0.09,0.01-0.13,0.02c-0.15,0.04-0.29,0.13-0.39,0.25c-0.04,0.05-0.09,0.1-0.13,0.16
					c-3.05,4.26-4.27,8.99-3.18,14.1C34.95,122.42,35.63,123.84,36.37,125.21z"/>
				<path style="fill-rule:evenodd;clip-rule:evenodd;" d="M49.33,140.67c0.04,0.03,0.08,0.05,0.12,0.07
					c0.18,0.09,0.38,0.16,0.59,0.19c0.09,0.01,0.18,0.02,0.28,0.02c0.06,0,0.13,0,0.19-0.01c0.15-0.02,0.28-0.05,0.42-0.09
					c0.28-0.1,0.54-0.28,0.73-0.5c0.09-0.1,0.17-0.22,0.24-0.34c0.05-0.1,0.09-0.2,0.13-0.31c1.04-4.99-1.65-13.34-4.79-18.23
					c-0.03-0.04-0.06-0.08-0.1-0.12c-0.04-0.03-0.07-0.06-0.12-0.09c-0.09-0.05-0.19-0.09-0.29-0.1c-0.01,0-0.02,0-0.04,0
					c-0.04,0-0.07,0-0.11,0c-0.04,0-0.09,0.01-0.13,0.02c-0.18,0.05-0.33,0.17-0.43,0.32C42.99,126.99,44.08,136.09,49.33,140.67z"
					/>
				<path style="fill-rule:evenodd;clip-rule:evenodd;" d="M64.76,151.82c0.28,0.13,0.58,0.22,0.91,0.22c0.05,0,0.1,0,0.15-0.01
					c0.19-0.01,0.37-0.05,0.54-0.12c0.32-0.11,0.61-0.3,0.83-0.55c0.1-0.12,0.2-0.25,0.27-0.38c0.17-0.29,0.25-0.64,0.25-0.99
					c-0.61-6.63-4.54-11.7-8.71-16.8c-0.07-0.09-0.16-0.16-0.26-0.22c-0.09-0.04-0.19-0.08-0.3-0.09c-0.03,0-0.06-0.01-0.09-0.01
					c-0.02,0-0.05,0-0.08,0.01c-0.05,0-0.1,0.01-0.14,0.02c-0.22,0.05-0.39,0.18-0.52,0.35c-0.04,0.07-0.07,0.15-0.1,0.22
					C55.7,139.47,59.61,148.76,64.76,151.82z"/>
				<path style="fill-rule:evenodd;clip-rule:evenodd;" d="M81.54,160.85c-0.15-0.11-0.31-0.18-0.48-0.25
					c-6.28-2.14-16.73-1.52-22.16,0.54c-0.16,0.06-0.29,0.16-0.38,0.29c-0.06,0.08-0.1,0.17-0.12,0.27
					c-0.01,0.03-0.01,0.06-0.02,0.1c0,0.06-0.01,0.12,0,0.17c0.01,0.09,0.02,0.16,0.05,0.24c0.02,0.05,0.04,0.1,0.06,0.14
					c0.03,0.06,0.08,0.11,0.13,0.16c0.04,0.04,0.09,0.08,0.14,0.11c3.97,2.16,8.21,3.36,12.71,3.69c2.91,0.23,5.77,0,8.45-1.26
					c0.61-0.29,1.19-0.63,1.74-1c0.07-0.06,0.15-0.12,0.21-0.19c0.11-0.12,0.2-0.24,0.28-0.38c0.16-0.29,0.25-0.64,0.25-1
					c0-0.55-0.22-1.04-0.57-1.4C81.74,161.01,81.64,160.92,81.54,160.85z"/>
				<path style="fill-rule:evenodd;clip-rule:evenodd;" d="M122.03,159.84c6.25-0.54,13.12-10.58,12.12-17.54
					c-0.01-0.01-0.01-0.03-0.01-0.04c-0.03-0.1-0.07-0.19-0.12-0.27c-0.12-0.18-0.3-0.31-0.51-0.36c-0.04-0.01-0.09-0.02-0.14-0.02
					c-0.03,0-0.06,0-0.09,0c-0.03,0-0.06,0-0.08,0c-0.11,0.02-0.21,0.05-0.3,0.09c-0.06,0.03-0.11,0.07-0.16,0.11
					c-5.25,4.69-10.22,9.37-11.54,16.57c-3.97,1.02-11.11,2.98-18.19,5.53c-7.08-2.54-14.22-4.51-18.19-5.53
					c-1.31-7.2-6.29-11.88-11.54-16.57c-0.05-0.04-0.1-0.08-0.16-0.11c-0.1-0.05-0.19-0.08-0.3-0.09c-0.03,0-0.06,0-0.09,0
					c-0.03,0-0.06,0-0.09,0c-0.05,0-0.09,0.01-0.14,0.02c-0.22,0.05-0.4,0.18-0.51,0.36c-0.05,0.08-0.09,0.17-0.12,0.27
					c0,0.01,0,0.03-0.01,0.04c-0.99,6.97,5.88,17,12.12,17.54c4.32,0.89,10.09,2.86,15.79,5.27c-6.18,2.41-11.91,5.23-14.92,8.22
					l2.24,2.61c2.77-2.74,9.05-6.29,15.91-9.41c6.87,3.11,13.14,6.66,15.92,9.41l2.23-2.61c-3-2.99-8.73-5.81-14.91-8.22
					C111.93,162.7,117.71,160.74,122.03,159.84z"/>
				<path style="fill-rule:evenodd;clip-rule:evenodd;" d="M133.14,10.91c2.76,3.52,9.6,8.04,14,8.73c0.15,0.01,0.31,0.01,0.46-0.03
					c0.82-0.2,1.33-1,1.14-1.82c-0.02-0.1-0.07-0.19-0.11-0.28c-2.03-3.82-9.16-7.53-15.17-7.54c-0.32,0.07-0.51,0.38-0.44,0.7
					C133.04,10.76,133.09,10.84,133.14,10.91z"/>
				<path style="fill-rule:evenodd;clip-rule:evenodd;" d="M174.17,45.55c0.02,0.01,0.04,0.01,0.05,0.02
					c0.16,0.06,0.34,0.09,0.52,0.09c0.71,0,1.29-0.46,1.49-1.1c0.19-0.7,0.26-1.41,0.26-2.12c0-5.07-2.11-9.33-5.25-13.16
					c-0.64-0.8-1.53-1.72-2.32-2.54c-0.08-0.09-0.2-0.15-0.33-0.17c-0.03,0-0.06-0.01-0.1-0.01c-0.32,0-0.57,0.25-0.59,0.57
					c0.41,6.38,1.71,12.76,5.8,18.11C173.84,45.37,174,45.48,174.17,45.55z"/>
				<path style="fill-rule:evenodd;clip-rule:evenodd;" d="M183.71,85.28c0.03,0.28,0.14,0.53,0.3,0.74
					c0.17,0.23,0.41,0.42,0.69,0.52c0.02,0.01,0.03,0.02,0.05,0.02c0.17,0.06,0.35,0.09,0.54,0.09c0.32,0,0.61-0.11,0.86-0.27
					c1.22-0.98,2.19-2.21,2.86-3.65c2.65-5.77,2.65-11.7,1.2-17.75c-0.03-0.08-0.07-0.14-0.12-0.2c-0.09-0.09-0.21-0.15-0.34-0.18
					c-0.03,0-0.07-0.01-0.1-0.01c-0.16,0-0.31,0.06-0.42,0.16C185.99,67.99,183.01,79.52,183.71,85.28z"/>
				<path style="fill-rule:evenodd;clip-rule:evenodd;" d="M170.47,48.57c0.74,0,1.37-0.5,1.55-1.19c0.04-0.13,0.06-0.27,0.06-0.4
					c0-0.16-0.03-0.31-0.07-0.45c-1.7-4.6-8.66-9.64-15-9.53c-0.29,0.06-0.51,0.29-0.51,0.61c0,0,0,0.02,0,0.03
					c0.01,0.07,0.03,0.13,0.06,0.19c2.25,4.28,9.03,9.48,13.57,10.69C170.24,48.55,170.35,48.57,170.47,48.57z"/>
				<path style="fill-rule:evenodd;clip-rule:evenodd;" d="M162.2,28.51c0.16,0.07,0.34,0.13,0.52,0.14c0.02,0,0.04,0,0.05,0
					c0.17,0.01,0.33-0.01,0.5-0.07c0.64-0.2,1.03-0.79,1.02-1.42c-0.03-0.69-0.18-1.34-0.38-1.98c-1.47-4.57-4.62-7.8-8.57-10.35
					c-0.81-0.54-1.88-1.11-2.83-1.62c-0.11-0.06-0.23-0.08-0.35-0.06c-0.03,0-0.06,0.01-0.09,0.02c-0.29,0.09-0.44,0.39-0.37,0.68
					C153.92,19.48,156.95,24.86,162.2,28.51z"/>
				<path style="fill-rule:evenodd;clip-rule:evenodd;" d="M158.94,32.68c0.7-0.07,1.25-0.6,1.36-1.25c0.03-0.13,0.03-0.26,0.02-0.4
					c-0.02-0.15-0.06-0.28-0.11-0.41c-1.99-4.19-8.99-8.34-14.97-7.7c-0.27,0.08-0.45,0.32-0.42,0.62c0,0,0,0.02,0,0.03
					c0.01,0.06,0.04,0.12,0.07,0.18c2.48,3.84,9.33,8.16,13.71,8.92C158.71,32.67,158.83,32.69,158.94,32.68z"/>
				<path style="fill-rule:evenodd;clip-rule:evenodd;" d="M165.9,53.28c-0.01,0.05-0.02,0.1-0.02,0.15c0,0.01,0,0.03,0,0.05
					c0,0.05,0.02,0.1,0.03,0.15c1.83,4.92,6.79,11.89,11.37,14c0.15,0.06,0.31,0.1,0.49,0.11c0.61,0.02,1.15-0.29,1.44-0.78
					c0.07-0.11,0.12-0.23,0.16-0.35c0.04-0.13,0.06-0.26,0.07-0.4c0-0.06,0-0.11-0.01-0.16c-0.87-5.72-7.82-13.06-12.98-13.18
					C166.19,52.88,165.97,53.04,165.9,53.28z"/>
				<path style="fill-rule:evenodd;clip-rule:evenodd;" d="M181.51,64.53c0.17,0.24,0.41,0.44,0.68,0.56
					c0.02,0.01,0.04,0.02,0.05,0.02c0.17,0.07,0.35,0.11,0.55,0.11c0.56,0.03,1.06-0.24,1.38-0.66c0.54-0.89,0.92-1.86,1.15-2.91
					c1.11-5.05,0-9.79-2.19-14.33c-0.47-0.95-1.01-1.87-1.62-2.89c-0.01-0.02-0.03-0.05-0.05-0.08c-0.09-0.1-0.21-0.17-0.35-0.2
					c-0.03-0.01-0.07-0.02-0.1-0.02c-0.29-0.01-0.54,0.18-0.63,0.45c-1.84,5.41-1.23,15.01,1.05,19.81
					C181.46,64.45,181.48,64.5,181.51,64.53z"/>
				<path style="fill-rule:evenodd;clip-rule:evenodd;" d="M179.18,87.06c0.17,0.06,0.34,0.09,0.54,0.09c0.38,0,0.74-0.14,1.02-0.37
					c0.24-0.19,0.41-0.45,0.5-0.75c1.09-5.93-3.94-14.85-9.65-16.56c0,0,0,0-0.01,0c-0.17,0-0.33,0.07-0.44,0.18
					c-0.11,0.11-0.17,0.25-0.18,0.42c0.4,4.63,3.64,13.37,7.75,16.72c0.13,0.1,0.26,0.19,0.42,0.25
					C179.14,87.05,179.16,87.05,179.18,87.06z"/>
				<path style="fill-rule:evenodd;clip-rule:evenodd;" d="M191.02,86.89c-0.05,0-0.09,0-0.14,0c-0.15,0.02-0.28,0.09-0.39,0.18
					c-3.89,3.7-9.2,12.81-9.8,18.99c0,0.16,0.02,0.32,0.06,0.47c0.04,0.15,0.1,0.28,0.16,0.4c0.07,0.13,0.15,0.24,0.24,0.35
					c0.21,0.22,0.45,0.39,0.74,0.49c0.19,0.07,0.4,0.11,0.61,0.11c0.27,0,0.53-0.07,0.76-0.17c0.66-0.34,1.27-0.78,1.78-1.31
					c1.34-1.39,2.67-2.89,3.54-4.58c2.3-4.46,3.29-9.23,3.1-14.37c-0.02-0.06-0.04-0.12-0.07-0.17c-0.1-0.18-0.26-0.31-0.47-0.37
					C191.1,86.91,191.06,86.9,191.02,86.89z"/>
				<path style="fill-rule:evenodd;clip-rule:evenodd;" d="M166,147.44c-0.12-0.17-0.29-0.3-0.51-0.36
					c-5.77-0.56-16.12,1.64-21.62,5.43c-0.09,0.07-0.18,0.14-0.25,0.22c-0.35,0.36-0.57,0.85-0.57,1.4c0,0.36,0.09,0.71,0.25,1
					c0.07,0.14,0.16,0.27,0.27,0.38c0.18,0.21,0.41,0.35,0.66,0.47c0.63,0.22,1.29,0.39,1.97,0.51c2.92,0.49,5.74-0.05,8.47-1.04
					c4.25-1.53,8.01-3.83,11.25-6.96c0.03-0.04,0.07-0.07,0.09-0.12c0.03-0.04,0.05-0.09,0.07-0.14c0.03-0.07,0.04-0.16,0.05-0.24
					c0.01-0.09,0-0.18-0.02-0.27C166.09,147.62,166.05,147.53,166,147.44z"/>
				<path style="fill-rule:evenodd;clip-rule:evenodd;" d="M188.73,110.02c-0.02-0.06-0.04-0.12-0.07-0.17
					c-0.1-0.18-0.27-0.31-0.48-0.36c-0.04-0.01-0.08-0.02-0.13-0.03c-0.05,0-0.09,0-0.14,0.01c-0.08,0.01-0.15,0.04-0.22,0.08
					c-6.33,3.84-11.88,8.26-15.28,15.06c-0.05,0.14-0.1,0.26-0.12,0.41c0,0.06-0.01,0.12-0.01,0.18c-0.01,0.17,0.02,0.33,0.06,0.49
					c0.04,0.14,0.1,0.27,0.17,0.4c0.07,0.12,0.15,0.24,0.24,0.34c0.2,0.22,0.45,0.39,0.74,0.49c0.17,0.06,0.35,0.08,0.53,0.09
					c1.69-0.19,3.19-0.74,4.55-1.68c5.35-3.73,8.47-8.97,10.17-15.1c0-0.02,0-0.03,0-0.05c0-0.03,0-0.05,0-0.08
					C188.75,110.08,188.74,110.05,188.73,110.02z"/>
				<path style="fill-rule:evenodd;clip-rule:evenodd;" d="M174.84,106.84c0.2,0.22,0.45,0.39,0.74,0.49
					c0.19,0.06,0.4,0.11,0.61,0.11c0.31,0,0.61-0.07,0.88-0.21c0.06-0.03,0.13-0.08,0.19-0.11c0.13-0.1,0.25-0.21,0.36-0.34
					c0.08-0.09,0.14-0.21,0.2-0.32c2.11-4.8,0.63-13.94-5.26-18.88c-0.06-0.04-0.13-0.08-0.2-0.1c-0.04-0.01-0.09-0.02-0.13-0.02
					c-0.05,0-0.1,0-0.15,0c-0.16,0.02-0.3,0.09-0.42,0.2c-0.05,0.04-0.09,0.1-0.13,0.15c-0.06,0.1-0.09,0.2-0.1,0.31
					c-0.74,5.4,0.26,14.5,3.39,18.68C174.83,106.82,174.84,106.83,174.84,106.84z"/>
				<path style="fill-rule:evenodd;clip-rule:evenodd;" d="M180.85,129.97c-0.02-0.06-0.04-0.12-0.07-0.17
					c-0.1-0.18-0.27-0.32-0.48-0.37c-0.04-0.01-0.08-0.01-0.11-0.02c-0.02,0-0.05,0-0.08,0c-5.37,0.3-15.1,5.45-19.37,10.15
					c-0.07,0.1-0.14,0.19-0.19,0.31c-0.09,0.18-0.15,0.38-0.17,0.59c0,0.05-0.01,0.11-0.01,0.18c0,0.17,0.02,0.33,0.06,0.49
					c0.04,0.14,0.09,0.27,0.17,0.4c0.07,0.13,0.15,0.24,0.24,0.34c0.2,0.22,0.45,0.39,0.74,0.5c0.1,0.03,0.2,0.05,0.29,0.07
					c0.64,0.07,1.28,0.12,1.91,0.11c6.23-0.12,14.13-6.76,17-12.06c0.02-0.04,0.05-0.08,0.06-0.12c0.01-0.05,0.02-0.1,0.03-0.16
					c0-0.02,0-0.05,0-0.07c0-0.02,0-0.05,0-0.08C180.85,130.03,180.85,130,180.85,129.97z"/>
				<path style="fill-rule:evenodd;clip-rule:evenodd;" d="M166.39,125.09c0.02,0.03,0.03,0.07,0.05,0.1
					c0.07,0.12,0.16,0.23,0.25,0.34c0.2,0.22,0.45,0.39,0.74,0.49c0.19,0.07,0.4,0.11,0.61,0.11c0.09,0,0.19-0.01,0.28-0.02
					c0.21-0.03,0.41-0.1,0.6-0.2c0.06-0.03,0.13-0.07,0.19-0.11c0.13-0.09,0.25-0.2,0.36-0.33c0.06-0.08,0.13-0.16,0.17-0.26
					c0.74-1.37,1.42-2.8,1.74-4.26c1.09-5.11-0.13-9.84-3.19-14.1c-0.04-0.06-0.08-0.11-0.13-0.16c-0.1-0.12-0.23-0.21-0.39-0.25
					c-0.04-0.01-0.09-0.02-0.13-0.02c-0.05,0-0.1,0-0.15,0c-0.12,0.01-0.21,0.05-0.3,0.1c-0.04,0.03-0.08,0.05-0.12,0.09
					c-0.05,0.05-0.09,0.1-0.13,0.16c-0.04,0.06-0.07,0.13-0.09,0.2c-0.27,1.05-0.51,1.98-0.71,2.92c-0.83,4.02-1.34,8.09-0.58,12.17
					C165.66,123.09,166,124.1,166.39,125.09z"/>
				<path style="fill-rule:evenodd;clip-rule:evenodd;" d="M159.53,121.18c-0.04-0.01-0.08-0.02-0.13-0.02c-0.04,0-0.08,0-0.11,0
					c-0.01,0-0.02,0-0.03,0c-0.1,0.02-0.21,0.05-0.3,0.1c-0.04,0.02-0.08,0.06-0.12,0.09c-0.04,0.03-0.06,0.07-0.1,0.12
					c-3.14,4.9-5.83,13.25-4.79,18.23c0.04,0.11,0.07,0.21,0.13,0.31c0.07,0.12,0.15,0.24,0.25,0.34c0.2,0.22,0.45,0.4,0.73,0.5
					c0.14,0.05,0.27,0.08,0.42,0.09c0.06,0.01,0.13,0.01,0.19,0.01c0.1,0,0.19-0.01,0.28-0.02c0.22-0.03,0.42-0.1,0.6-0.19
					c0.04-0.02,0.08-0.05,0.12-0.07c5.26-4.58,6.34-13.68,3.29-19.18C159.86,121.34,159.71,121.22,159.53,121.18z"/>
				<path style="fill-rule:evenodd;clip-rule:evenodd;" d="M147.87,132.91c-0.04-0.01-0.09-0.02-0.15-0.02
					c-0.03-0.01-0.06-0.01-0.08-0.01c-0.03,0-0.05,0.01-0.09,0.01c-0.1,0.01-0.21,0.05-0.3,0.09c-0.1,0.05-0.19,0.13-0.26,0.22
					c-4.17,5.1-8.09,10.17-8.71,16.8c0,0.35,0.09,0.69,0.25,0.99c0.08,0.13,0.17,0.26,0.27,0.38c0.23,0.25,0.51,0.44,0.83,0.55
					c0.17,0.06,0.35,0.11,0.53,0.12c0.06,0.01,0.1,0.01,0.15,0.01c0.33,0,0.63-0.08,0.9-0.22c5.15-3.05,9.06-12.35,7.25-18.33
					c-0.02-0.08-0.05-0.15-0.1-0.22C148.26,133.09,148.08,132.96,147.87,132.91z"/>
				<path style="fill-rule:evenodd;clip-rule:evenodd;" d="M147.6,161.71c-0.02-0.1-0.06-0.19-0.12-0.27
					c-0.09-0.13-0.23-0.23-0.38-0.29c-5.43-2.06-15.88-2.68-22.16-0.54c-0.17,0.06-0.34,0.14-0.48,0.25
					c-0.11,0.07-0.2,0.16-0.28,0.25c-0.36,0.36-0.57,0.85-0.58,1.4c0,0.36,0.09,0.7,0.25,1c0.08,0.14,0.17,0.26,0.27,0.38
					c0.06,0.07,0.14,0.13,0.22,0.19c0.55,0.37,1.12,0.71,1.73,1c2.68,1.26,5.53,1.48,8.45,1.26c4.49-0.33,8.74-1.53,12.7-3.69
					c0.05-0.03,0.1-0.07,0.14-0.11c0.05-0.05,0.09-0.1,0.13-0.16c0.03-0.04,0.05-0.09,0.07-0.14c0.03-0.07,0.04-0.15,0.05-0.24
					c0.01-0.06,0.01-0.12,0-0.17C147.62,161.77,147.61,161.74,147.6,161.71z"/>
			</g>
		</g>
		<g>
			<g>
				<path d="M112.16,68.66h-1.92v4.11c0,1.47-0.64,2.48-1.94,3.06c-1.09,0.48-2.21,0.5-2.23,0.5v0.95l-0.01,0.96
					c0.01,0,0.01,0,0.01,0v1.38c1.1,0,2.07-0.15,2.89-0.47v17.88h1.92V77.87c0-0.01,0-0.02,0.01-0.02c1.34-1.49,1.29-3.36,1.26-3.72
					V68.66z"/>
				<rect x="114.11" y="70.24" width="11.48" height="3.3"/>
				<rect x="114.11" y="92.84" width="11.48" height="3.3"/>
			</g>
			<g>
				<rect x="82.63" y="84.16" width="2.01" height="3.26"/>
				<rect x="82.63" y="77.87" width="2.01" height="3.26"/>
				<rect x="95.86" y="84.16" width="1.98" height="3.26"/>
				<rect x="92.42" y="77.87" width="1.97" height="3.26"/>
				<rect x="86.11" y="84.16" width="1.97" height="3.26"/>
				<path d="M136.46,36.67c-0.74,0-1.48,0.05-2.2,0.16c-1.62,0.22-3.27,0.33-4.95,0.33c-6.36,0-12.35-1.58-17.61-4.36
					c-0.8-0.42-1.58-0.88-2.33-1.35c-0.37-0.23-0.74-0.48-1.11-0.72c-0.32-0.22-0.96-0.68-0.96-0.68c-1.23-0.87-2.73-1.39-4.35-1.39
					c-1.62,0-3.13,0.52-4.35,1.39c0,0-0.64,0.45-0.96,0.68c-0.38,0.24-0.74,0.49-1.11,0.72c-0.76,0.47-1.54,0.93-2.33,1.35
					c-5.25,2.78-11.25,4.36-17.61,4.36c-1.69,0-3.35-0.11-4.98-0.33c-0.72-0.1-1.44-0.15-2.18-0.15c-8.48,0-15.35,6.84-15.35,15.28
					v31.4c-0.02,0.59-0.03,1.2-0.03,1.8c0,28.24,20.17,51.77,46.95,57.17c0.63,0.09,1.28,0.14,1.95,0.14c0.63,0,1.25-0.04,1.86-0.12
					c26.7-5.35,46.84-28.73,47.03-56.83l0-0.19V51.95C151.82,43.5,144.95,36.67,136.46,36.67z M99.3,68.64l0,4.49h-3.44v1.72h3.44
					l0,22.29h-1.46v-6.7h-1.98v6.8h-1.48v-6.8h-1.97v6.7h-1.47l0.01-22.29h3.43v-1.72h-3.43v-3.03h3.43v-1.46h1.48v1.46h1.98v-1.46
					H99.3z M92.58,50.57l0.03,0l1.37-2.76l1.36,2.73l0.01,0.03l3.06,0.44l-2.19,2.12l-0.02,0.02l0.52,3.03l-2.73-1.43l-2.73,1.43
					l0.51-3v-0.03l-2.2-2.14L92.58,50.57z M78.46,59.37l0.03-0.01l1.37-2.75l1.34,2.72l0.01,0.03l3.05,0.44l-2.19,2.12l-0.02,0.02
					l0.53,3.03l-2.73-1.44l-2.74,1.44l0.51-3.01l0.01-0.03l-2.21-2.15L78.46,59.37z M70.05,73.9l0.03-0.01l1.37-2.75l1.35,2.72
					l0.02,0.02l3.06,0.45l-2.19,2.12l-0.02,0.02l0.51,3.02l-2.7-1.41l-0.03-0.01l-2.74,1.43l0.52-2.99l0.01-0.03l-2.21-2.14
					L70.05,73.9z M71.89,94.91l-0.03-0.02l-2.73,1.43l0.51-2.99l0.01-0.03l-2.2-2.15l3.02-0.43l0.03-0.01l1.37-2.76l1.36,2.73
					l0.02,0.03l3.05,0.44l-2.19,2.12l-0.02,0.02l0.53,3.02L71.89,94.91z M83.41,110.43l-2.71-1.41l-0.03-0.01l-2.74,1.43l0.53-3
					l0-0.03l-2.21-2.14l3.02-0.44l0.03,0l1.37-2.75l1.35,2.72l0.02,0.03l3.06,0.44l-2.19,2.13l-0.02,0.02L83.41,110.43z
					 M89.56,73.13h-3.45v1.72h3.45v15.59h-3.45v1.74h3.45v3.02h-3.45v2.04h-1.47V95.2h-3.49v-3.02h3.49v-1.74h-3.49V74.85h3.49
					v-1.72h-3.49v-3.03h3.49v-1.46h1.47v1.46h3.45V73.13z M97.73,118.79L95,117.36l-2.73,1.43l0.51-3l0.01-0.02l-2.21-2.15
					l3.03-0.43l0.03-0.01l1.36-2.76l1.36,2.73l0.01,0.03l3.05,0.44l-2.19,2.12l-0.02,0.02L97.73,118.79z M148.38,85.17
					c0,26.27-18.77,48.16-43.69,53.17c-0.57,0.08-1.16,0.12-1.75,0.12l-0.01-105.82c1.51,0,2.95,0.64,4.09,1.45l0.01-0.01
					c0.29,0.22,0.59,0.42,0.9,0.62c0.33,0.22,0.68,0.45,1.03,0.67c0.7,0.44,1.43,0.86,2.16,1.26c4.88,2.58,11.09,3.92,17.01,3.92
					c1.58,0,3.23-0.21,4.76-0.41c0.65-0.09,1.92-0.12,2.61-0.12c7.69,0,12.82,5.88,13.11,13.47h0.01
					C148.62,53.5,148.38,84.92,148.38,85.17z"/>
				<rect x="92.42" y="84.16" width="1.97" height="3.26"/>
				<rect x="95.86" y="77.87" width="1.98" height="3.26"/>
				<rect x="86.11" y="77.87" width="1.97" height="3.26"/>
			</g>
			<g>
				<polygon points="115.1,51.06 112.14,50.63 112.11,50.57 110.82,47.96 109.49,50.63 106.54,51.06 108.68,53.13 108.17,56.06 
					110.82,54.67 113.46,56.06 112.96,53.13 				"/>
				<polygon points="127.75,61.33 129.85,59.3 126.89,58.87 125.57,56.21 124.24,58.87 121.29,59.3 123.42,61.38 123.42,61.44 
					122.92,64.3 125.57,62.92 128.21,64.3 127.7,61.38 				"/>
				<polygon points="136.18,75.12 138.27,73.09 135.31,72.66 135.28,72.61 133.99,70.01 132.67,72.66 129.71,73.09 131.86,75.17 
					131.34,78.1 133.99,76.71 136.62,78.1 136.13,75.17 				"/>
				<polygon points="138.68,89.82 135.72,89.39 135.69,89.34 134.4,86.73 133.07,89.39 130.12,89.82 132.26,91.9 131.75,94.82 
					134.4,93.44 137.04,94.82 136.53,91.9 				"/>
				<polygon points="130.71,104.5 127.76,104.07 127.72,104.01 126.44,101.4 125.11,104.07 122.16,104.5 124.3,106.57 123.79,109.5 
					126.44,108.11 129.08,109.5 128.57,106.57 				"/>
				<polygon points="114.43,115.29 116.51,113.26 113.56,112.84 112.24,110.17 110.91,112.84 110.85,112.85 107.96,113.26 
					110.1,115.34 110.08,115.41 109.6,118.27 112.24,116.88 114.88,118.27 114.38,115.34 				"/>
			</g>
		</g>
	</g>
</g>
</svg>
