<?xml version="1.0" encoding="utf-8"?>
<!-- Generator: Adobe Illustrator 25.0.1, SVG Export Plug-In . SVG Version: 6.00 Build 0)  -->
<svg version="1.1" id="圖層_1" xmlns="http://www.w3.org/2000/svg" xmlns:xlink="http://www.w3.org/1999/xlink" x="0px" y="0px"
	 viewBox="0 0 214 64" style="enable-background:new 0 0 214 64;" xml:space="preserve">
<g>
	<g>
		<g>
			<g>
				<path d="M64.65,29.85l-0.94-1.81c-0.45-0.86-0.62-1.83-0.48-2.79l0.28-1.98c0.21-1.51-0.33-3.02-1.47-4.07l-1.5-1.41
					c-0.72-0.66-1.21-1.52-1.41-2.46l-0.42-1.96c-0.32-1.49-1.36-2.75-2.8-3.38L54,9.16c-0.9-0.39-1.65-1.04-2.17-1.84l-1.09-1.7
					c-0.84-1.31-2.27-2.15-3.86-2.26L44.8,3.2c-0.97-0.07-1.9-0.41-2.67-0.98L40.48,1c-1.27-0.94-2.93-1.24-4.47-0.8l-1.99,0.58
					c-0.93,0.27-1.93,0.27-2.86,0L29.17,0.2C27.63-0.24,25.97,0.05,24.7,1l-1.65,1.22c-0.77,0.57-1.7,0.91-2.67,0.98L18.3,3.35
					c-1.59,0.11-3.03,0.96-3.86,2.26l-1.09,1.7c-0.52,0.81-1.27,1.45-2.17,1.84L9.27,10c-1.44,0.63-2.48,1.89-2.8,3.38l-0.42,1.96
					c-0.2,0.94-0.7,1.8-1.4,2.46l-1.51,1.4c-1.13,1.06-1.68,2.57-1.46,4.08l0.28,1.98c0.14,0.96-0.03,1.93-0.48,2.79l-0.94,1.81
					c-0.7,1.35-0.7,2.94,0,4.29l0.94,1.8c0.45,0.86,0.62,1.83,0.48,2.79l-0.28,1.99c-0.21,1.5,0.33,3.01,1.46,4.07l1.5,1.4
					c0.71,0.67,1.2,1.53,1.41,2.46l0.42,1.96c0.32,1.49,1.36,2.75,2.8,3.38l1.91,0.83c0.9,0.4,1.65,1.04,2.17,1.85l1.09,1.7
					c0.83,1.31,2.27,2.15,3.86,2.26l2.09,0.15c0.97,0.07,1.9,0.41,2.67,0.98L24.7,63c1.27,0.94,2.93,1.24,4.47,0.8l1.99-0.58
					c0.93-0.27,1.92-0.27,2.86,0l1.99,0.58c1.53,0.44,3.2,0.15,4.47-0.8l1.65-1.22c0.77-0.57,1.7-0.91,2.67-0.98l2.09-0.15
					c1.59-0.11,3.03-0.95,3.86-2.26l1.09-1.7c0.52-0.81,1.27-1.45,2.17-1.85L55.91,54c1.44-0.63,2.48-1.89,2.8-3.38l0.42-1.96
					c0.2-0.94,0.69-1.79,1.41-2.46l1.5-1.4c1.13-1.06,1.67-2.57,1.47-4.07l-0.28-1.99c-0.14-0.96,0.03-1.93,0.48-2.79l0.94-1.8
					C65.36,32.79,65.36,31.2,64.65,29.85z M32.59,60.08c-15.61,0-28.26-12.57-28.26-28.09C4.33,16.48,16.98,3.9,32.59,3.9
					c15.61,0,28.26,12.57,28.26,28.09C60.85,47.5,48.2,60.08,32.59,60.08z"/>
				<g>
					<path d="M7.48,38.38c-0.06,0.01-0.16,0.04-0.22,0.09c-0.09,0.09-0.09,0.19-0.08,0.28l-0.07,0.02L6.6,36.51l0.66-0.15l0.02,0.07
						c-0.24,0.11-0.26,0.21-0.2,0.48l0.19,0.82l1.07-0.24l-0.14-0.63c-0.08-0.35-0.16-0.43-0.4-0.41l-0.02-0.07l0.95-0.21l0.02,0.07
						c-0.06,0.02-0.13,0.05-0.16,0.11c-0.09,0.1-0.07,0.19-0.04,0.33l0.17,0.74l1-0.23c0.36-0.08,0.43-0.11,0.45-0.42l0.07-0.02
						l0.29,1.27l-0.07,0.01c-0.13-0.25-0.22-0.26-0.56-0.18L7.48,38.38z"/>
					<path d="M6.89,35c-0.3,0.02-0.41,0.06-0.44,0.33l-0.07,0L6.3,34.05l0.07-0.01c0.08,0.25,0.16,0.29,0.48,0.27l1.54-0.1
						c0.22-0.01,0.34-0.02,0.46-0.06c0.38-0.11,0.64-0.44,0.61-0.93c-0.03-0.39-0.21-0.61-0.35-0.71c-0.24-0.16-0.57-0.15-0.76-0.13
						l-1.61,0.1c-0.29,0.02-0.4,0.04-0.44,0.32L6.22,32.8l-0.06-0.97l0.07,0c0.08,0.28,0.21,0.28,0.45,0.27l1.6-0.1
						c0.35-0.02,0.8-0.04,1.15,0.31c0.32,0.32,0.38,0.77,0.4,1.03c0.02,0.42-0.06,0.79-0.24,1.05c-0.32,0.44-0.78,0.48-1.1,0.51
						L6.89,35z"/>
					<path d="M6.32,29.58l0.07,0.01c0,0.08,0.01,0.19,0.12,0.26c0.07,0.05,0.17,0.06,0.33,0.07l2.59,0.17
						c0.18,0.01,0.4,0.03,0.56,0.09c0.45,0.18,0.6,0.61,0.75,0.99l-0.07,0.03c-0.26-0.34-0.42-0.37-1.28-0.43L6.8,30.59
						c-0.31-0.02-0.42-0.02-0.49,0.28l-0.07-0.01L6.32,29.58z"/>
					<path d="M9.22,27.87c0.4,0.07,0.46,0.02,0.53-0.37l0.11-0.59c0.05-0.28,0.06-0.36-0.21-0.5l0.02-0.07l0.67,0.12l-0.48,2.51
						l-0.07-0.01c0.01-0.29-0.16-0.33-0.45-0.38l-2.38-0.44c-0.23-0.04-0.38-0.04-0.45,0.22l-0.07-0.02l0.42-2.22l0.66,0.12
						L7.5,26.32c-0.29,0.01-0.32,0.11-0.36,0.32l-0.16,0.82l1.07,0.2l0.12-0.63c0.05-0.3,0-0.41-0.22-0.49l0.02-0.07l0.96,0.18
						l-0.01,0.07c-0.3,0.01-0.33,0.13-0.38,0.43l-0.11,0.58L9.22,27.87z"/>
					<path d="M7.78,24.42c-0.09-0.03-0.16-0.06-0.24-0.05c-0.15,0.01-0.21,0.12-0.25,0.19l-0.07-0.02l0.34-0.91l2.97-1.08
						l-1.76-0.65c-0.26-0.09-0.39-0.11-0.53,0.13l-0.07-0.03l0.34-0.91l0.07,0.03c-0.04,0.25,0.04,0.33,0.3,0.42l2.82,1.04
						l-0.1,0.28L8.1,24.13l2.16,0.8c0.32,0.12,0.4,0.04,0.51-0.13l0.07,0.02l-0.35,0.91l-0.06-0.03c0.02-0.07,0.03-0.14-0.01-0.23
						c-0.05-0.1-0.13-0.15-0.29-0.2L7.78,24.42z"/>
					<path d="M14.99,17.12c-0.07,0.22-0.2,0.63-0.57,1.13c-0.16,0.21-0.33,0.4-0.53,0.55c-0.62,0.47-1.43,0.49-2.1,0
						c-0.26-0.19-0.47-0.44-0.6-0.73c-0.11-0.25-0.16-0.52-0.15-0.79c0.02-0.58,0.3-1.02,0.51-1.3c0.29-0.39,0.55-0.6,0.79-0.8
						l0.57,0.42l-0.04,0.06c-0.23-0.05-0.55-0.12-0.99,0.48c-0.61,0.82-0.35,1.59,0.26,2.03c0.68,0.5,1.54,0.45,2.08-0.29
						c0.15-0.19,0.29-0.48,0.29-0.73c0-0.2-0.08-0.31-0.13-0.38l0.05-0.06L14.99,17.12z"/>
					<path d="M14.26,13.06l0.24-0.23l2.89,1.25c0.36,0.15,0.46,0.19,0.68,0.08l0.05,0.05l-0.94,0.89l-0.05-0.05
						c0.07-0.1,0.12-0.22,0.02-0.32c-0.04-0.04-0.12-0.08-0.25-0.14l-0.55-0.25l-0.92,0.87l0.21,0.57c0.04,0.11,0.08,0.2,0.13,0.25
						c0.1,0.11,0.24,0.04,0.32-0.01l0.04,0.05l-0.72,0.68l-0.04-0.05c0.13-0.16,0.08-0.32-0.01-0.58L14.26,13.06z M15.31,14.86
						l0.7-0.66l-1.13-0.5L15.31,14.86z"/>
					<path d="M16.5,11.61c-0.08,0.06-0.18,0.13-0.2,0.26c-0.01,0.08,0.02,0.14,0.05,0.21l-0.06,0.05l-0.39-0.54l2.42-1.74l0.39,0.53
						l-0.06,0.04c-0.19-0.2-0.31-0.14-0.51,0.01l-0.53,0.38l1.45,1.98c0.25,0.35,0.3,0.38,0.59,0.28l0.04,0.05l-1.06,0.77
						l-0.04-0.05c0.21-0.24,0.12-0.36-0.08-0.65l-1.45-1.98L16.5,11.61z"/>
					<path d="M19.78,9.6c-0.11-0.23-0.19-0.38-0.48-0.29l-0.03-0.06l1.16-0.57l0.03,0.06c-0.25,0.17-0.18,0.32-0.06,0.57l0.4,0.8
						l1.5-0.73L21.9,8.56c-0.13-0.25-0.18-0.38-0.48-0.28l-0.03-0.06l1.16-0.56l0.03,0.06c-0.21,0.15-0.19,0.28-0.03,0.6l1,2.01
						c0.17,0.35,0.22,0.44,0.51,0.37l0.03,0.06l-1.15,0.56l-0.03-0.06c0.25-0.18,0.18-0.3,0.05-0.58l-0.48-0.95l-1.5,0.73l0.48,0.96
						c0.12,0.25,0.19,0.39,0.5,0.31l0.03,0.06l-1.17,0.57l-0.03-0.06c0.25-0.18,0.18-0.32,0.05-0.58L19.78,9.6z"/>
					<path d="M27.95,7.87c0.06,0.22,0.08,0.44,0.07,0.66c-0.03,0.24-0.1,0.48-0.22,0.68c-0.33,0.57-0.86,0.79-1.26,0.89
						c-1.19,0.31-2.04-0.31-2.28-1.25c-0.31-1.14,0.43-2.02,1.44-2.29C26.78,6.28,27.68,6.87,27.95,7.87z M27.26,9.1
						c0.14-0.32,0.11-0.68,0.02-1.02c-0.2-0.77-0.78-1.34-1.57-1.13c-0.67,0.18-1.02,0.83-0.8,1.65c0.18,0.68,0.78,1.34,1.59,1.13
						C26.89,9.64,27.13,9.38,27.26,9.1z"/>
					<path d="M29.08,6.52c-0.03-0.27-0.05-0.43-0.36-0.46L28.71,6l1.31-0.13l0.01,0.07c-0.26,0.07-0.28,0.21-0.26,0.52l0.2,2.08
						c0.01,0.14,0.03,0.24,0.07,0.3c0.08,0.12,0.2,0.11,0.4,0.09l0.7-0.07c0.29-0.03,0.4-0.09,0.43-0.35l0.07-0.01l0.07,0.67
						l-2.67,0.26l0-0.07c0.1-0.04,0.17-0.07,0.22-0.15c0.06-0.09,0.06-0.18,0.03-0.47L29.08,6.52z"/>
					<path d="M33.68,5.76v0.07c-0.27,0.04-0.31,0.16-0.31,0.47l-0.04,2.33c0,0.36,0.01,0.42,0.3,0.52v0.07L32.32,9.2V9.13
						c0.31-0.08,0.31-0.19,0.32-0.51l0.04-2.33c0-0.24,0-0.43-0.3-0.48l0-0.07L33.68,5.76z"/>
					<path d="M37.55,9.57c-0.23,0.04-0.66,0.11-1.27,0.02c-0.26-0.04-0.5-0.1-0.73-0.21c-0.71-0.33-1.11-1.04-0.98-1.85
						c0.05-0.31,0.17-0.62,0.37-0.86c0.16-0.21,0.38-0.38,0.63-0.5c0.52-0.24,1.05-0.21,1.38-0.16c0.49,0.07,0.79,0.2,1.08,0.33
						l-0.12,0.69l-0.07-0.01c-0.06-0.22-0.15-0.54-0.88-0.65c-1.01-0.15-1.57,0.43-1.68,1.17c-0.13,0.83,0.32,1.56,1.22,1.7
						c0.25,0.04,0.57,0.03,0.79-0.08c0.18-0.1,0.24-0.22,0.28-0.29l0.07,0.01L37.55,9.57z"/>
					<path d="M41.95,7.99c0.13-0.27,0.14-0.39-0.08-0.54l0.03-0.06l1.17,0.53l-0.03,0.06c-0.25-0.05-0.33,0-0.47,0.29l-0.64,1.39
						c-0.09,0.2-0.14,0.31-0.17,0.43c-0.08,0.38,0.09,0.77,0.54,0.98c0.36,0.16,0.64,0.11,0.8,0.02c0.26-0.13,0.4-0.42,0.48-0.6
						l0.67-1.46c0.12-0.27,0.15-0.37-0.07-0.54l0.03-0.06l0.89,0.4L45.07,8.9c-0.29-0.06-0.35,0.05-0.45,0.27l-0.67,1.45
						c-0.15,0.32-0.34,0.72-0.82,0.86c-0.43,0.13-0.86-0.03-1.1-0.14c-0.39-0.17-0.68-0.42-0.82-0.71c-0.25-0.49-0.06-0.91,0.07-1.2
						L41.95,7.99z"/>
					<path d="M46.29,10.09c0.05-0.08,0.1-0.14,0.11-0.21c0.03-0.15-0.07-0.24-0.12-0.29l0.04-0.06l0.8,0.56l0.29,3.14l1.1-1.53
						c0.16-0.23,0.2-0.34,0.01-0.54l0.05-0.06l0.8,0.56l-0.04,0.06c-0.23-0.1-0.33-0.04-0.49,0.18l-1.74,2.44l-0.24-0.17l-0.35-3.7
						l-1.33,1.87c-0.2,0.27-0.15,0.37-0.01,0.52l-0.04,0.06l-0.8-0.56l0.04-0.06c0.06,0.03,0.13,0.07,0.22,0.05
						c0.1-0.02,0.17-0.09,0.27-0.23L46.29,10.09z"/>
					<path d="M51.22,13.44l-0.05,0.05c-0.23-0.15-0.33-0.09-0.55,0.13l-1.62,1.68c-0.25,0.26-0.28,0.32-0.13,0.58l-0.05,0.05
						l-0.94-0.89l0.05-0.05c0.28,0.15,0.36,0.07,0.58-0.16l1.62-1.69c0.17-0.17,0.29-0.32,0.1-0.55l0.05-0.05L51.22,13.44z"/>
					<path d="M51.74,14.91c0.24-0.44,0.28-0.52,0.19-0.73l0.05-0.05l0.8,1l-0.06,0.04c-0.03-0.03-0.06-0.06-0.1-0.07
						c-0.05-0.02-0.15-0.03-0.22,0.04c-0.07,0.06-0.13,0.15-0.19,0.26l-1.02,1.88l2.08-0.57c0.14-0.04,0.23-0.07,0.29-0.12
						c0.11-0.09,0.11-0.21,0.05-0.32l0.05-0.04l0.61,0.76l-0.05,0.04c-0.17-0.15-0.27-0.12-0.75,0.01l-2.99,0.8l-0.19-0.24
						L51.74,14.91z"/>
					<path d="M53.05,20.07c-0.36,0.2-0.37,0.28-0.17,0.63l0.3,0.52c0.14,0.25,0.19,0.31,0.49,0.24l0.04,0.07l-0.59,0.33l-1.26-2.22
						l0.06-0.04c0.18,0.22,0.33,0.15,0.59,0l2.11-1.18c0.2-0.12,0.32-0.21,0.2-0.45l0.06-0.03l1.12,1.96l-0.58,0.33l-0.04-0.07
						c0.21-0.19,0.18-0.29,0.07-0.47l-0.41-0.72l-0.94,0.53l0.32,0.56c0.15,0.26,0.27,0.31,0.49,0.23l0.04,0.07l-0.85,0.48
						l-0.04-0.06c0.22-0.2,0.16-0.31,0.01-0.58l-0.29-0.52L53.05,20.07z"/>
					<path d="M56.31,21.79c0.25-0.09,0.39-0.15,0.33-0.44l0.07-0.02l0.51,1.38c0.12,0.31,0.19,0.52,0.15,0.78
						c-0.04,0.27-0.23,0.54-0.56,0.66c-0.21,0.08-0.45,0.08-0.67-0.01c-0.15-0.06-0.24-0.15-0.3-0.21l-0.91,1.03
						c-0.27,0.3-0.31,0.38-0.31,0.58l-0.07,0.02l-0.14-0.38c-0.14-0.38-0.02-0.61,0.22-0.89l0.8-0.92c-0.03-0.07-0.06-0.14-0.1-0.23
						c-0.02-0.05-0.05-0.13-0.07-0.22l-0.97,0.36c-0.34,0.13-0.37,0.21-0.35,0.47l-0.07,0.02l-0.46-1.23l0.07-0.02
						c0.16,0.25,0.3,0.21,0.5,0.13L56.31,21.79z M55.62,22.78l0.1,0.27c0.03,0.08,0.07,0.16,0.12,0.24c0.2,0.31,0.5,0.29,0.67,0.22
						c0.26-0.09,0.33-0.27,0.36-0.36c0.05-0.18-0.01-0.33-0.06-0.47l-0.11-0.31L55.62,22.78z"/>
					<path d="M56.51,26.66c0.12-0.4,0.29-0.75,0.77-0.85c0.14-0.03,0.33-0.03,0.5,0.02c0.39,0.13,0.61,0.5,0.7,0.94
						c0.08,0.39,0.04,0.66,0.01,0.85l-0.69,0.14l-0.01-0.07c0.16-0.1,0.45-0.29,0.34-0.77c-0.07-0.33-0.32-0.55-0.63-0.48
						c-0.3,0.06-0.37,0.3-0.48,0.69l-0.06,0.18c-0.08,0.29-0.23,0.79-0.81,0.91c-0.32,0.06-0.62-0.02-0.86-0.2
						c-0.32-0.26-0.42-0.65-0.46-0.84c-0.02-0.13-0.04-0.25-0.04-0.38c-0.02-0.28,0.01-0.43,0.04-0.56l0.69-0.14l0.01,0.07
						c-0.09,0.06-0.22,0.14-0.29,0.29c-0.07,0.14-0.1,0.34-0.05,0.55c0.09,0.43,0.42,0.62,0.74,0.56c0.33-0.07,0.42-0.34,0.52-0.69
						L56.51,26.66z"/>
					<path d="M58.87,30.36l-0.07,0.01c-0.07-0.26-0.19-0.29-0.5-0.26l-2.34,0.2c-0.36,0.03-0.43,0.05-0.49,0.35l-0.07,0.01
						l-0.11-1.29l0.07-0.01c0.11,0.3,0.22,0.29,0.54,0.26l2.34-0.2c0.24-0.02,0.43-0.05,0.45-0.35l0.07-0.01L58.87,30.36z"/>
					<path d="M58.56,31.77c0-0.1,0-0.22-0.08-0.31c-0.06-0.06-0.12-0.07-0.2-0.09v-0.08l0.67,0.02l-0.09,2.97l-0.67-0.02v-0.07
						c0.27-0.03,0.3-0.16,0.31-0.41l0.02-0.65l-2.46-0.08c-0.43-0.01-0.48,0-0.59,0.29l-0.07,0l0.04-1.31l0.07,0
						c0.07,0.31,0.22,0.32,0.56,0.33l2.46,0.08L58.56,31.77z"/>
					<path d="M58.31,35.53c0.26-0.1,0.31-0.13,0.38-0.28l0.07,0.01l-0.25,1.29l-0.07-0.01c0-0.04,0.02-0.22-0.16-0.25
						c-0.09-0.02-0.19,0.02-0.26,0.05l-1.19,0.45l0.94,0.84c0.09,0.07,0.14,0.12,0.21,0.13c0.15,0.03,0.22-0.13,0.25-0.19l0.07,0.01
						l-0.19,0.99l-0.06-0.01c0-0.18-0.04-0.22-0.21-0.38l-1.42-1.3l-0.97-0.19c-0.24-0.05-0.37-0.05-0.48,0.22l-0.07-0.01l0.25-1.26
						l0.07,0.01c-0.02,0.29,0.13,0.34,0.37,0.38l0.97,0.19L58.31,35.53z"/>
				</g>
				<g>
					<path d="M17,50.39c-0.29,0.53-0.28,1.28,0.3,2.22l-0.04,0.03c-0.25-0.15-0.49-0.13-0.73,0.08c-0.32-0.87-0.03-1.66,0.33-2.23
						c-0.69,0.51-1.44,0.66-2.77,0.01l0.02-0.06c1.16,0.32,1.82,0.05,2.42-0.48l-0.98-0.88l0.06-0.1l1,0.91
						c0.24-0.22,0.48-0.48,0.73-0.76l-0.82-0.75l0.05-0.1l0.85,0.77l0,0l0.48,0.44l0,0l0.37,0.34l0.5-0.08c0,0,0.08,0.43,0.12,0.71
						c-0.04,0.03-0.09,0.01-0.13-0.03l-0.94-0.85c-0.27,0.28-0.5,0.53-0.75,0.75l0.59,0.53l0.51-0.08c0,0,0.08,0.44,0.12,0.72
						c-0.04,0.02-0.09,0.01-0.13-0.03L17,50.39z"/>
					<path d="M22.12,55.4c0,0,0.19,0.42,0.3,0.69c-0.03,0.03-0.08,0.03-0.14,0l-3.2-1.74l0.02-0.11l1.37,0.75l0.59-1.07l-0.96-0.52
						l0.03-0.11l0.98,0.53l0.49-0.89l-1.11-0.6l0.03-0.11l2.17,1.18l0.48-0.2c0,0,0.19,0.4,0.29,0.67c-0.03,0.04-0.08,0.03-0.13,0
						l-1.15-0.63l-0.49,0.89l0.37,0.2l0.45-0.2c0,0,0.18,0.39,0.28,0.65c-0.03,0.03-0.08,0.03-0.13,0l-1.03-0.56l-0.59,1.07
						l0.59,0.32L22.12,55.4z M21.81,51.79c1.35,0.73,0.45,1.59,0.07,1c0.06-0.31,0-0.71-0.11-0.99L21.81,51.79z"/>
					<path d="M28.86,55.46c-0.22,0.57-0.5,1.07-0.91,1.44c0.16,0.29,0.38,0.55,0.66,0.78l-0.02,0.03c-0.28-0.01-0.47,0.11-0.6,0.34
						c-0.21-0.25-0.34-0.55-0.41-0.88c-0.41,0.24-0.92,0.38-1.57,0.4l-0.02-0.04c0.67-0.16,1.15-0.46,1.51-0.86
						c-0.01-0.29,0-0.61,0.04-0.94c-0.18,0.16-0.39,0.3-0.6,0.4l-0.04-0.04c0.06-0.07,0.11-0.14,0.17-0.22c-0.03,0-0.07,0-0.12,0
						c-0.15,0.04-0.32,0.08-0.49,0.11l0.14,0.05c-0.02,0.06-0.07,0.07-0.15,0.06l-0.03,0.13c0.24,0.03,0.49,0.06,0.74,0.09
						l-0.01,0.05c-0.21,0.04-0.47,0.08-0.8,0.11l-0.14,0.54c-0.09,0.35-0.22,0.52-0.79,0.42c0.03-0.17,0.03-0.29,0-0.38
						c-0.05-0.09-0.11-0.16-0.29-0.25l0.01-0.05c0,0,0.4,0.13,0.48,0.15c0.05,0.01,0.07,0,0.09-0.04l0.08-0.32
						c-0.16,0.01-0.33,0.03-0.51,0.05c-0.04,0.04-0.09,0.07-0.14,0.07l-0.08-0.61c0.17,0.03,0.46,0.07,0.82,0.12l0.09-0.34
						l0.25,0.09c0.07-0.07,0.15-0.16,0.21-0.23l-0.34-0.08c-0.32,0.15-0.67,0.27-1.05,0.34l-0.02-0.05c0.25-0.1,0.5-0.23,0.72-0.38
						l-0.34-0.09l-0.01-0.12l0.47,0.12c0.15-0.1,0.28-0.21,0.42-0.32l-0.94-0.24l-0.01-0.12l0.58,0.15l0.13-0.51l-0.41-0.1
						l-0.01-0.11l0.44,0.11l0.14-0.53l0.65,0.22c-0.02,0.06-0.06,0.08-0.17,0.08l-0.09,0.34l0.24-0.2c0,0,0.07,0.1,0.15,0.21
						c0.1-0.12,0.19-0.24,0.27-0.35l0.51,0.43c-0.04,0.04-0.08,0.05-0.17,0.01c-0.2,0.21-0.45,0.44-0.73,0.64l0.12,0.03l0.26-0.21
						c0,0,0.12,0.16,0.21,0.3c0.18-0.33,0.34-0.7,0.46-1.07l0.69,0.36c-0.03,0.05-0.08,0.07-0.18,0.05
						c-0.11,0.2-0.23,0.39-0.34,0.55l0.32,0.08l0.36-0.29c0,0,0.25,0.32,0.38,0.53c-0.02,0.04-0.07,0.05-0.12,0.03L28.86,55.46z
						 M27.09,55.84c0.09-0.14,0.19-0.29,0.29-0.46l-0.64-0.16c-0.15,0.1-0.32,0.21-0.5,0.3l0.23,0.06l0.31-0.19L27.09,55.84z
						 M26.56,54.52l-0.11,0.43c0.13-0.12,0.25-0.24,0.36-0.36L26.56,54.52z M28,55.25c-0.11,0.14-0.23,0.28-0.35,0.39
						c0,0.26,0.03,0.51,0.09,0.74c0.22-0.31,0.38-0.68,0.5-1.07L28,55.25z"/>
					<path d="M33.93,55.62l0,0.33l0.15,0l0.22-0.24l0.46,0.35c-0.02,0.03-0.07,0.06-0.14,0.07l-0.01,1.84
						c0,0.35-0.06,0.52-0.53,0.56c0-0.16,0-0.28-0.02-0.36c-0.02-0.07-0.06-0.12-0.15-0.15v0.3c0,0.06-0.21,0.17-0.4,0.17h-0.09
						l0.01-1.09h-0.18l0,0.96c0,0.05-0.19,0.16-0.4,0.16h-0.08l0.01-0.83l-0.67,0l0,0.71c0,0.03-0.16,0.13-0.42,0.13h-0.09l0-0.84
						l-0.64-0.01l-0.03-0.11l0.67,0v-0.48h-0.1v0.08c0,0.04-0.2,0.14-0.4,0.14h-0.07l0.01-1.71l0.48,0.19l0.07,0l0.01-0.37l-0.64,0
						l-0.03-0.11l0.67,0.01v-0.57l0.64,0.06c-0.01,0.05-0.04,0.09-0.13,0.1l-0.01,0.41h0.01l0.26-0.33c0,0,0.29,0.23,0.46,0.39
						c-0.01,0.04-0.06,0.06-0.11,0.06l-0.62-0.01v0.37h0.06l0.21-0.21l0.4,0.3v-0.15l0.49,0.21l0.15,0l0-0.34l-0.69,0l-0.03-0.11
						l0.72,0l0-0.71l0.65,0.07c-0.02,0.06-0.04,0.11-0.16,0.12l0,0.53l0.15,0l0.21-0.27c-0.02-0.13-0.09-0.27-0.16-0.36l0.03-0.02
						c0.71,0.03,0.65,0.42,0.41,0.51c0.08,0.07,0.16,0.13,0.22,0.19c-0.01,0.04-0.05,0.06-0.11,0.06L33.93,55.62z M31.51,56.98h0.12
						l0-0.47l-0.13,0L31.51,56.98z M31.51,55.91l0,0.49h0.13l0-0.49H31.51z M32.22,56.51l-0.14,0v0.47h0.13L32.22,56.51z
						 M32.09,55.91l0,0.49l0.13,0l0-0.49H32.09z M32.45,57.25c0,0,0.17,0.14,0.32,0.27l0.01-1.61c-0.03,0.02-0.06,0.04-0.12,0.06
						l-0.01,1.12c-0.01,0.04-0.22,0.14-0.37,0.13h-0.07v-0.13l-0.1,0l-0.01,0.49l0.09,0L32.45,57.25z M33.43,57.29l0-0.58l-0.18,0
						l0,0.58H33.43z M33.26,56.06l0,0.54h0.18v-0.54L33.26,56.06z M33.92,57.97c0.02,0,0.11,0,0.14,0.01c0.05,0,0.05-0.02,0.05-0.06
						l0-0.51l-0.19,0L33.92,57.97z M33.92,57.3l0.19,0l0.01-0.58l-0.2,0V57.3z M33.93,56.06l0,0.54l0.19,0v-0.54L33.93,56.06z"/>
					<path d="M37.82,55.56c0,0.03-0.03,0.07-0.1,0.1l0.53,2.26c0,0.05-0.2,0.22-0.42,0.27l-0.11,0.02l-0.47-1.98
						c-0.11,0.18-0.24,0.34-0.39,0.49l-0.05-0.02c0.22-0.57,0.36-1.43,0.33-2.23l0.84,0.06c0,0.05-0.05,0.1-0.14,0.12
						c-0.05,0.33-0.12,0.62-0.23,0.9L37.82,55.56z M37.9,55.15l1.39-0.33l0.21-0.47c0,0,0.4,0.2,0.65,0.33
						c0,0.05-0.05,0.08-0.11,0.09l-2.08,0.49L37.9,55.15z M40.21,56.65c0,0,0.41,0.2,0.66,0.34c0,0.05-0.04,0.08-0.11,0.09
						l-2.45,0.57l-0.06-0.11L40,57.14L40.21,56.65z"/>
					<path d="M44.13,53.38c0.47,0.58,1.23,0.96,2.37,0.8l0.02,0.05c-0.23,0.19-0.3,0.44-0.18,0.76c-1-0.08-1.71-0.8-2.18-1.45
						c0.34,0.91,0.37,1.81-0.7,2.99l-0.05-0.03c0.63-1.13,0.51-1.96,0.14-2.8l-1.22,0.65l-0.08-0.08l1.26-0.68
						c-0.16-0.35-0.35-0.69-0.55-1.07l0.74-0.31c0.02,0.06,0,0.11-0.07,0.17c0.16,0.31,0.32,0.61,0.45,0.91l0.68-0.36l0.09-0.52
						c0,0,0.46,0.07,0.75,0.13c0.01,0.04-0.02,0.09-0.08,0.11L44.13,53.38z"/>
					<path d="M47.88,51.26c0.2,0.15,0.28,0.34,0.18,0.53c-0.17,0.34-0.65,0.14-0.49-0.26c0.05-0.12,0.03-0.29-0.12-0.44l0.03-0.03
						c0.11,0.04,0.22,0.08,0.31,0.14l0.01-0.01l-0.94-0.97L47.2,50c0.02-0.15,0.03-0.31,0.03-0.39l0.43-0.04
						c0.07-0.07,0.15-0.13,0.21-0.17c-0.02-0.1-0.04-0.2-0.07-0.28L48.26,49c0.01,0.04-0.02,0.07-0.07,0.11c0,0.06,0,0.12,0,0.19
						c0.24-0.01,0.31,0.22,0.12,0.32c-0.05-0.01-0.11-0.02-0.18-0.02c-0.04,0.14-0.09,0.28-0.15,0.4c0.01,0.03,0,0.07-0.04,0.1
						l-0.26,0.24l0.21,0.23l0.01-0.01l-0.02-0.26c0,0,0.23-0.01,0.39,0c0.02,0.04,0.01,0.08-0.03,0.11l-0.26,0.24l0.2,0.21
						l1.16-1.05l-0.19-0.22l-0.19,0.17l-0.11-0.06l0.23-0.21l-0.2-0.24l-0.19,0.18l-0.1-0.06l0.23-0.2l-0.21-0.24l-0.24,0.22
						l-0.1-0.06l0.24-0.22l-0.02-0.31l0.6-0.07c0,0.05-0.01,0.08-0.06,0.14l0.62,0.73l0.01-0.23l0.66,0.02
						c0,0.04-0.02,0.08-0.08,0.14c-0.07,0.18-0.2,0.47-0.3,0.65l-0.04,0c-0.04-0.09-0.12-0.23-0.18-0.34L47.88,51.26z M47.58,50
						c0,0,0.17-0.01,0.31-0.01c0.01-0.12,0.02-0.25,0.01-0.38c-0.07,0.01-0.13,0.01-0.2,0.03c-0.01,0.01-0.03,0.02-0.05,0.03
						c-0.06,0.09-0.17,0.24-0.28,0.38l0.21,0.22l0.02-0.01L47.58,50z M48.77,49.48c0.01,0.04-0.02,0.08-0.08,0.11
						c0.01,0.07,0.01,0.14,0,0.21c0.26,0,0.33,0.27,0.11,0.36c-0.05-0.02-0.11-0.03-0.18-0.04c-0.05,0.17-0.13,0.34-0.23,0.49
						l-0.07-0.02c0.04-0.15,0.07-0.31,0.07-0.48c-0.11,0-0.21,0.01-0.29,0.02l0-0.05c0.1-0.09,0.19-0.15,0.28-0.2
						c-0.01-0.1-0.04-0.19-0.06-0.28L48.77,49.48z M50.22,50.02c0,0,0.41-0.02,0.67-0.02c0.02,0.04,0,0.08-0.04,0.12l-1.02,0.92
						l0.24,0.26c0.26,0.28,0.33,0.49-0.09,0.95c-0.14-0.13-0.23-0.2-0.35-0.23c-0.11-0.01-0.21,0-0.4,0.12l-0.03-0.04
						c0,0,0.36-0.29,0.43-0.35c0.04-0.03,0.04-0.06,0.01-0.09l-0.22-0.24l-1.1,1l-0.1-0.06l1.13-1.02L49.1,51.1l0.32-0.24
						c0-0.12,0-0.24-0.01-0.35l-0.99,0.9l-0.1-0.06l1.05-0.95l0.03-0.41l0.66-0.01c0,0.05-0.02,0.08-0.08,0.15
						c-0.09,0.16-0.2,0.36-0.32,0.56c0.03,0.05,0.02,0.1-0.03,0.16l0.12,0.13l0.53-0.48L50.22,50.02z"/>
				</g>
				<polygon points="12.62,45.51 12.24,44.68 12.25,44.66 12.7,43.9 11.79,44.01 11.17,43.32 11,44.22 10.15,44.59 10.97,45.03 
					11.05,45.94 11.72,45.32 				"/>
				<polygon points="53.32,44.4 53.64,43.55 53.63,43.53 53.11,42.8 54.04,42.84 54.59,42.11 54.83,42.99 55.7,43.29 54.94,43.79 
					54.92,44.71 54.2,44.14 				"/>
				<g>
					<path d="M32.58,53.49c-11.95,0-21.68-9.66-21.68-21.54c0-11.88,9.73-21.54,21.68-21.54c11.95,0,21.68,9.66,21.68,21.54
						C54.25,43.82,44.53,53.49,32.58,53.49z M32.58,10.87c-11.69,0-21.2,9.45-21.2,21.07c0,11.62,9.51,21.07,21.2,21.07
						c11.69,0,21.2-9.45,21.2-21.07C53.78,20.32,44.27,10.87,32.58,10.87z"/>
				</g>
			</g>
		</g>
		<g>
			<g>
				<path d="M29.01,28.18h-0.28v0.31H28v0.6h0.74v0.4H28v3.25h0.74v0.4H28v0.6h0.74v0.43h0.28v-0.43h0.73v-0.6h-0.73v-0.4h0.73
					v-3.25h-0.73v-0.4h0.73v-0.6h-0.73V28.18z M28.73,31.41v0.72h-0.46v-0.72H28.73z M28.73,30.08v0.72h-0.46v-0.72H28.73z
					 M29.46,31.41v0.72h-0.45v-0.72H29.46z M29.01,30.81v-0.72h0.45v0.72H29.01z"/>
				<path d="M31.06,29.48v-0.4h0.73v-0.91h-0.27v0.31h-0.45v-0.31h-0.28v0.31h-0.72v0.6h0.72v0.4h-0.72v0.29h0v4.37h0.28v-1.41h0.45
					v1.43h0.28v-1.43h0.45v1.41h0.27v-4.66H31.06z M30.79,31.41v0.72h-0.45v-0.72H30.79z M30.79,30.08v0.72h-0.45v-0.72H30.79z
					 M31.52,31.41v0.72h-0.45v-0.72H31.52z M31.52,30.08v0.72h-0.45v-0.72H31.52z"/>
			</g>
			<g>
				<polygon points="31.59,24.45 30.96,24.36 30.68,23.8 30.41,24.36 29.78,24.45 30.23,24.89 30.23,24.9 30.13,25.5 30.68,25.21 
					31.24,25.5 31.14,24.89 				"/>
				<polygon points="28.61,26.3 27.99,26.21 27.98,26.2 27.71,25.65 27.43,26.21 26.81,26.3 27.26,26.74 27.25,26.75 27.15,27.36 
					27.71,27.07 28.27,27.36 28.16,26.74 				"/>
				<polygon points="26.4,29.79 26.84,29.37 26.21,29.27 25.93,28.71 25.66,29.27 25.03,29.37 25.48,29.8 25.38,30.42 25.93,30.13 
					25.95,30.14 26.49,30.42 26.39,29.8 				"/>
				<polygon points="26.92,32.91 26.3,32.82 26.02,32.26 25.74,32.82 25.12,32.91 25.57,33.35 25.57,33.36 25.46,33.96 26.02,33.67 
					26.03,33.68 26.58,33.96 26.47,33.35 				"/>
				<polygon points="28.34,36.31 28.78,35.88 28.16,35.79 28.15,35.78 27.88,35.23 27.6,35.79 27.59,35.79 26.98,35.88 27.43,36.32 
					27.32,36.94 27.88,36.64 28.44,36.94 28.33,36.32 				"/>
				<polygon points="31.8,37.64 31.18,37.55 30.9,36.99 30.62,37.55 30.61,37.56 30,37.64 30.45,38.08 30.45,38.1 30.34,38.7 
					30.9,38.41 31.46,38.7 31.35,38.08 				"/>
			</g>
			<path d="M39.65,21.42c-0.16,0-0.31,0.01-0.46,0.03c-0.34,0.04-0.69,0.07-1.05,0.07c-1.34,0-2.61-0.33-3.71-0.92
				c-0.17-0.09-0.33-0.18-0.49-0.28c-0.08-0.05-0.16-0.1-0.23-0.15c-0.07-0.05-0.2-0.14-0.2-0.14c-0.26-0.18-0.58-0.29-0.92-0.29
				c-0.34,0-0.66,0.11-0.92,0.29c0,0-0.14,0.09-0.2,0.14c-0.08,0.05-0.16,0.1-0.23,0.15c-0.16,0.1-0.33,0.19-0.49,0.28
				c-1.11,0.59-2.37,0.92-3.72,0.92c-0.35,0-0.71-0.02-1.05-0.07c-0.15-0.02-0.3-0.03-0.46-0.03c-1.79,0-3.24,1.44-3.24,3.22v6.62
				c0,0.12-0.01,0.25-0.01,0.38c0,5.95,4.25,10.91,9.9,12.05c0.13,0.02,0.27,0.03,0.41,0.03c0.13,0,0.26-0.01,0.39-0.03
				c5.63-1.13,9.88-6.05,9.92-11.97l0-0.04v-7.04C42.89,22.86,41.44,21.42,39.65,21.42z M32.57,43.03c-0.13,0-0.25-0.01-0.37-0.03
				c-5.33-1.07-9.35-5.75-9.35-11.37c0-0.05-0.05-6.77-0.05-6.77h0c0.06-1.62,1.16-2.88,2.81-2.88c0.15,0,0.42,0.01,0.56,0.03
				c0.33,0.04,0.68,0.09,1.02,0.09c1.27,0,2.59-0.28,3.64-0.84c0.16-0.08,0.31-0.17,0.46-0.27c0.07-0.05,0.15-0.1,0.22-0.14
				c0.06-0.04,0.13-0.09,0.19-0.13l0,0c0.25-0.17,0.55-0.31,0.88-0.31L32.57,43.03z M39.13,28.3l0.32,0.64l0.72,0.1l-0.52,0.5
				l0.12,0.71l-0.64-0.33l-0.64,0.33l0.12-0.71l-0.52-0.5l0.72-0.1L39.13,28.3z M37.03,26.04l0.32-0.65l0.32,0.65l0.71,0.1
				l-0.52,0.5l0.12,0.71l-0.64-0.34l-0.64,0.34l0.12-0.71l-0.52-0.5L37.03,26.04z M34.88,29.24v-0.8h2.53v0.8H34.88z M37.41,33.2V34
				h-2.53v-0.8H37.41z M33.92,24.3l0.32-0.64l0.32,0.64l0.72,0.1l-0.52,0.5l0.12,0.71l-0.64-0.34l-0.64,0.34l0.12-0.71l-0.52-0.5
				L33.92,24.3z M33.18,30.52v-0.8h0.05c0,0,0.23,0,0.45-0.1c0.25-0.11,0.38-0.31,0.38-0.6v-0.92h0.51v1.21
				c0.01,0.11,0.01,0.49-0.27,0.81v4.07h-0.51v-3.74c-0.16,0.05-0.35,0.08-0.56,0.08H33.18z M35.18,38.73l-0.64-0.34l-0.64,0.34
				l0.12-0.71l-0.52-0.5l0.71-0.1l0.32-0.65l0.32,0.65l0.72,0.1l-0.52,0.5L35.18,38.73z M38.17,36.88l-0.64-0.33l-0.64,0.33
				l0.12-0.71l-0.52-0.5l0.71-0.11l0.32-0.65l0.32,0.65l0.72,0.11l-0.52,0.5L38.17,36.88z M39.85,33.79l-0.64-0.33l-0.64,0.33
				l0.12-0.71l-0.52-0.5l0.71-0.1l0.32-0.65l0.32,0.65l0.71,0.1l-0.52,0.5L39.85,33.79z"/>
			<g>
				<path style="fill-rule:evenodd;clip-rule:evenodd;" d="M23.18,17.81c0.03,0.01,0.07,0.01,0.1,0.01c0.93-0.15,2.37-1.1,2.95-1.84
					c0.01-0.01,0.02-0.03,0.02-0.05c0.02-0.07-0.02-0.13-0.09-0.15c-1.27,0-2.77,0.78-3.2,1.59c-0.01,0.02-0.02,0.04-0.02,0.06
					C22.9,17.6,23.01,17.77,23.18,17.81z"/>
				<path style="fill-rule:evenodd;clip-rule:evenodd;" d="M17.46,23.3c0.04,0,0.08-0.01,0.11-0.02c0,0,0.01,0,0.01,0
					c0.04-0.02,0.07-0.04,0.1-0.07c0.86-1.13,1.14-2.47,1.22-3.82c-0.01-0.07-0.06-0.12-0.12-0.12c-0.01,0-0.02,0-0.02,0
					c-0.03,0-0.05,0.02-0.07,0.04c-0.16,0.17-0.35,0.37-0.49,0.54c-0.66,0.81-1.11,1.71-1.11,2.77c0,0.15,0.02,0.3,0.05,0.45
					C17.18,23.2,17.31,23.3,17.46,23.3z"/>
				<path style="fill-rule:evenodd;clip-rule:evenodd;" d="M15.05,31.88c0.06,0.04,0.12,0.06,0.18,0.06c0.04,0,0.08-0.01,0.12-0.02
					c0,0,0.01,0,0.01,0c0.06-0.02,0.11-0.06,0.15-0.11c0.03-0.04,0.06-0.1,0.06-0.16c0.15-1.21-0.48-3.64-1.16-4.32
					c-0.02-0.02-0.06-0.04-0.09-0.04c-0.01,0-0.01,0-0.02,0c-0.03,0-0.05,0.02-0.07,0.04c-0.01,0.01-0.02,0.03-0.02,0.04
					c-0.31,1.27-0.31,2.52,0.25,3.74C14.59,31.42,14.79,31.67,15.05,31.88z"/>
				<path style="fill-rule:evenodd;clip-rule:evenodd;" d="M21.29,21.65c0.01-0.01,0.01-0.03,0.01-0.04c0,0,0-0.01,0-0.01
					c0-0.07-0.05-0.12-0.11-0.13c-1.34-0.02-2.81,1.04-3.16,2.01c-0.01,0.03-0.01,0.06-0.01,0.1c0,0.03,0,0.06,0.01,0.09
					c0.04,0.14,0.17,0.25,0.33,0.25c0.02,0,0.05,0,0.07-0.01C19.39,23.65,20.82,22.55,21.29,21.65z"/>
				<path style="fill-rule:evenodd;clip-rule:evenodd;" d="M19.88,19.7c0.03,0.01,0.07,0.02,0.11,0.01c0,0,0.01,0,0.01,0
					c0.04,0,0.07-0.01,0.11-0.03c1.11-0.77,1.75-1.9,2.22-3.09c0.01-0.06-0.02-0.12-0.08-0.14c-0.01,0-0.01,0-0.02,0
					c-0.03,0-0.05,0-0.07,0.01c-0.2,0.11-0.42,0.23-0.6,0.34c-0.84,0.54-1.5,1.22-1.81,2.18c-0.04,0.13-0.07,0.27-0.08,0.42
					C19.66,19.53,19.74,19.66,19.88,19.7z"/>
				<path style="fill-rule:evenodd;clip-rule:evenodd;" d="M23.75,18.68c0.01-0.01,0.01-0.02,0.01-0.04c0,0,0-0.01,0-0.01
					c0.01-0.06-0.03-0.11-0.09-0.13c-1.26-0.14-2.74,0.74-3.16,1.62c-0.01,0.03-0.02,0.06-0.02,0.09c0,0.03,0,0.05,0,0.08
					c0.02,0.14,0.14,0.25,0.29,0.26c0.02,0,0.05,0,0.07,0C21.79,20.4,23.23,19.49,23.75,18.68z"/>
				<path style="fill-rule:evenodd;clip-rule:evenodd;" d="M16.82,27.95c0.04,0,0.07-0.01,0.1-0.02c0.97-0.45,2.01-1.92,2.4-2.95
					c0-0.01,0.01-0.02,0.01-0.03c0,0,0-0.01,0-0.01c0-0.01,0-0.02,0-0.03c-0.02-0.05-0.06-0.08-0.11-0.09
					c-1.09,0.03-2.55,1.57-2.74,2.78c0,0.01,0,0.02,0,0.04c0,0.03,0.01,0.06,0.02,0.08c0.01,0.03,0.02,0.05,0.03,0.07
					C16.58,27.89,16.69,27.95,16.82,27.95z"/>
				<path style="fill-rule:evenodd;clip-rule:evenodd;" d="M15.47,27.28c0.07,0.09,0.17,0.15,0.29,0.14c0.04,0,0.08-0.01,0.11-0.02
					c0,0,0.01,0,0.01,0c0.06-0.03,0.11-0.07,0.14-0.12c0.01-0.01,0.01-0.02,0.02-0.03c0.48-1.01,0.61-3.03,0.22-4.17
					c-0.02-0.06-0.07-0.1-0.13-0.09c-0.01,0-0.02,0-0.02,0c-0.03,0.01-0.05,0.02-0.07,0.04c0,0-0.01,0.01-0.01,0.02
					c-0.13,0.22-0.24,0.41-0.34,0.61c-0.46,0.96-0.7,1.96-0.46,3.02C15.28,26.89,15.36,27.1,15.47,27.28z"/>
				<path style="fill-rule:evenodd;clip-rule:evenodd;" d="M16.09,31.81c0.02,0.06,0.05,0.12,0.1,0.16
					c0.06,0.05,0.13,0.08,0.22,0.08c0.04,0,0.08-0.01,0.11-0.02c0,0,0.01,0,0.01-0.01c0.03-0.01,0.06-0.03,0.09-0.05
					c0.87-0.7,1.55-2.55,1.64-3.52c0-0.03-0.01-0.07-0.04-0.09c-0.02-0.02-0.06-0.04-0.09-0.04h0
					C16.92,28.68,15.86,30.56,16.09,31.81z"/>
				<path style="fill-rule:evenodd;clip-rule:evenodd;" d="M15.28,36.1c0.11,0.11,0.24,0.2,0.38,0.28c0.05,0.02,0.1,0.04,0.16,0.04
					c0.05,0,0.09-0.01,0.13-0.02c0.06-0.02,0.11-0.06,0.15-0.11c0.02-0.02,0.04-0.05,0.05-0.07c0.02-0.03,0.03-0.05,0.03-0.08
					c0.01-0.03,0.01-0.06,0.01-0.1c-0.13-1.3-1.25-3.22-2.07-4c-0.02-0.02-0.05-0.03-0.08-0.04c-0.01,0-0.02,0-0.03,0
					c-0.01,0-0.02,0-0.03,0c-0.04,0.01-0.08,0.04-0.1,0.08c-0.01,0.01-0.01,0.02-0.01,0.04c-0.04,1.08,0.17,2.09,0.65,3.03
					C14.72,35.49,15,35.81,15.28,36.1z"/>
				<path style="fill-rule:evenodd;clip-rule:evenodd;" d="M23.89,46.54c0.05-0.02,0.1-0.06,0.14-0.1c0.02-0.03,0.04-0.05,0.06-0.08
					c0.03-0.06,0.05-0.13,0.05-0.21c0-0.11-0.05-0.22-0.12-0.29c-0.02-0.02-0.04-0.03-0.06-0.05c-1.16-0.8-3.34-1.26-4.56-1.14
					c-0.04,0.01-0.08,0.04-0.11,0.08c-0.01,0.02-0.02,0.04-0.02,0.06c-0.01,0.02-0.01,0.04-0.01,0.06c0,0.02,0.01,0.04,0.01,0.05
					c0,0.01,0.01,0.02,0.01,0.03c0.01,0.01,0.01,0.02,0.02,0.02c0.68,0.66,1.48,1.14,2.37,1.47c0.58,0.21,1.17,0.32,1.79,0.22
					C23.62,46.63,23.76,46.59,23.89,46.54z"/>
				<path style="fill-rule:evenodd;clip-rule:evenodd;" d="M17.61,40.44c0.04,0,0.08-0.01,0.11-0.02c0.06-0.02,0.11-0.06,0.16-0.1
					c0.02-0.02,0.04-0.04,0.05-0.07c0.01-0.03,0.03-0.05,0.04-0.09c0.01-0.03,0.01-0.07,0.01-0.1c0-0.01,0-0.02,0-0.04
					c0-0.03-0.02-0.06-0.03-0.09c-0.72-1.43-1.89-2.37-3.22-3.17c-0.02-0.01-0.03-0.01-0.05-0.02c-0.01,0-0.02,0-0.03,0
					c-0.01,0-0.02,0-0.03,0.01c-0.04,0.01-0.08,0.04-0.1,0.08c-0.01,0.01-0.01,0.02-0.02,0.04c0,0.01,0,0.01,0,0.02
					c0,0,0,0.01,0,0.02c0,0,0,0.01,0,0.01c0.36,1.29,1.02,2.39,2.15,3.18C16.94,40.29,17.25,40.4,17.61,40.44z"/>
				<path style="fill-rule:evenodd;clip-rule:evenodd;" d="M16.85,36.18c0.02,0.03,0.05,0.05,0.07,0.07
					c0.02,0.01,0.03,0.02,0.04,0.02c0.05,0.03,0.12,0.05,0.19,0.05c0.04,0,0.09-0.01,0.13-0.02c0.06-0.02,0.11-0.06,0.16-0.11
					c0,0,0,0,0.01,0c0.66-0.88,0.87-2.8,0.71-3.94c0-0.02-0.01-0.05-0.02-0.07c-0.01-0.01-0.02-0.02-0.03-0.03
					c-0.02-0.02-0.05-0.04-0.09-0.04c-0.01,0-0.02,0-0.03,0c-0.01,0-0.02,0-0.03,0c-0.02,0-0.03,0.01-0.04,0.02
					c-1.24,1.04-1.55,2.97-1.11,3.98C16.82,36.14,16.83,36.16,16.85,36.18z"/>
				<path style="fill-rule:evenodd;clip-rule:evenodd;" d="M20.17,43.69c0.02,0,0.04-0.01,0.06-0.01c0.06-0.02,0.11-0.06,0.16-0.11
					c0.02-0.02,0.04-0.05,0.05-0.07c0.01-0.03,0.03-0.05,0.03-0.09c0.01-0.03,0.01-0.07,0.01-0.1c0-0.01,0-0.03,0-0.04
					c-0.01-0.05-0.02-0.09-0.04-0.13c-0.01-0.02-0.03-0.04-0.04-0.06c-0.9-0.99-2.95-2.07-4.08-2.14c-0.01,0-0.01,0-0.02,0
					c-0.01,0-0.02,0-0.02,0.01c-0.04,0.01-0.08,0.04-0.1,0.08c0,0.01-0.01,0.02-0.01,0.04c0,0.01,0,0.01,0,0.02c0,0,0,0.01,0,0.02
					c0,0,0,0.01,0,0.01c0,0.01,0,0.02,0.01,0.03c0,0.01,0.01,0.02,0.01,0.03c0.61,1.11,2.27,2.51,3.59,2.54
					C19.91,43.72,20.04,43.71,20.17,43.69z"/>
				<path style="fill-rule:evenodd;clip-rule:evenodd;" d="M18.54,40.06c0.01,0.02,0.02,0.04,0.04,0.06
					c0.02,0.03,0.05,0.05,0.08,0.07c0.01,0.01,0.03,0.02,0.04,0.02c0.04,0.02,0.08,0.03,0.13,0.04c0.02,0,0.04,0,0.06,0
					c0.04,0,0.09-0.01,0.13-0.02c0.06-0.02,0.11-0.06,0.15-0.1c0.02-0.02,0.04-0.05,0.05-0.07c0-0.01,0.01-0.02,0.01-0.02
					c0.08-0.21,0.15-0.42,0.19-0.64c0.16-0.86,0.05-1.72-0.12-2.56c-0.04-0.2-0.09-0.39-0.15-0.62c0-0.02-0.01-0.03-0.02-0.04
					c-0.01-0.01-0.02-0.02-0.03-0.03c-0.01-0.01-0.02-0.01-0.02-0.02c-0.02-0.01-0.04-0.02-0.06-0.02c-0.01,0-0.02,0-0.03,0
					c-0.01,0-0.02,0-0.02,0c-0.03,0.01-0.06,0.03-0.08,0.05c-0.01,0.01-0.02,0.02-0.02,0.03c-0.65,0.9-0.9,1.89-0.67,2.97
					C18.24,39.47,18.38,39.77,18.54,40.06z"/>
				<path style="fill-rule:evenodd;clip-rule:evenodd;" d="M21.27,43.32c0.01,0.01,0.02,0.01,0.02,0.02
					c0.04,0.02,0.08,0.03,0.13,0.04c0.02,0,0.04,0,0.06,0c0.01,0,0.03,0,0.04,0c0.03,0,0.06-0.01,0.09-0.02
					c0.06-0.02,0.11-0.06,0.15-0.11c0.02-0.02,0.04-0.05,0.05-0.07c0.01-0.02,0.02-0.04,0.03-0.07c0.22-1.05-0.35-2.81-1.01-3.84
					c-0.01-0.01-0.01-0.02-0.02-0.02c-0.01-0.01-0.02-0.01-0.02-0.02c-0.02-0.01-0.04-0.02-0.06-0.02c0,0,0,0-0.01,0
					c-0.01,0-0.02,0-0.02,0c-0.01,0-0.02,0-0.03,0c-0.04,0.01-0.07,0.04-0.09,0.07C19.93,40.44,20.16,42.36,21.27,43.32z"/>
				<path style="fill-rule:evenodd;clip-rule:evenodd;" d="M24.53,45.67c0.06,0.03,0.12,0.05,0.19,0.05c0.01,0,0.02,0,0.03,0
					c0.04,0,0.08-0.01,0.12-0.02c0.07-0.02,0.13-0.06,0.17-0.12c0.02-0.02,0.04-0.05,0.06-0.08c0.03-0.06,0.05-0.13,0.05-0.21
					c-0.13-1.4-0.96-2.47-1.83-3.54c-0.02-0.02-0.03-0.03-0.06-0.05c-0.02-0.01-0.04-0.02-0.07-0.02c-0.01,0-0.01,0-0.02,0
					c-0.01,0-0.01,0-0.02,0c-0.01,0-0.02,0-0.03,0.01c-0.05,0.01-0.08,0.04-0.11,0.08C23.01,41.77,23,41.79,23,41.81
					C22.61,43.07,23.44,45.03,24.53,45.67z"/>
				<path style="fill-rule:evenodd;clip-rule:evenodd;" d="M28.06,47.57c-0.03-0.02-0.07-0.04-0.1-0.05
					c-1.32-0.45-3.53-0.32-4.67,0.11c-0.03,0.01-0.06,0.03-0.08,0.06c-0.01,0.02-0.02,0.04-0.02,0.06c0,0.01,0,0.01,0,0.02
					c0,0.01,0,0.02,0,0.04c0,0.02,0.01,0.04,0.01,0.05c0,0.01,0.01,0.02,0.01,0.03c0.01,0.01,0.02,0.02,0.03,0.03
					c0.01,0.01,0.02,0.02,0.03,0.02c0.84,0.45,1.73,0.71,2.68,0.78c0.62,0.05,1.22,0,1.78-0.27c0.13-0.06,0.25-0.13,0.37-0.21
					c0.02-0.01,0.03-0.02,0.04-0.04c0.02-0.03,0.04-0.05,0.06-0.08c0.03-0.06,0.05-0.13,0.05-0.21c0-0.12-0.05-0.22-0.12-0.29
					C28.1,47.6,28.08,47.59,28.06,47.57z"/>
				<path style="fill-rule:evenodd;clip-rule:evenodd;" d="M36.6,47.36c1.32-0.11,2.77-2.23,2.55-3.7c0,0,0-0.01,0-0.01
					c-0.01-0.02-0.01-0.04-0.02-0.06c-0.03-0.04-0.06-0.06-0.11-0.08c-0.01,0-0.02,0-0.03,0c-0.01,0-0.01,0-0.02,0s-0.01,0-0.02,0
					c-0.02,0-0.04,0.01-0.06,0.02c-0.01,0.01-0.02,0.01-0.03,0.02c-1.11,0.99-2.16,1.97-2.44,3.49c-0.84,0.22-2.34,0.63-3.84,1.16
					c-1.49-0.54-3-0.95-3.84-1.16c-0.28-1.52-1.33-2.5-2.44-3.49c-0.01-0.01-0.02-0.02-0.03-0.02c-0.02-0.01-0.04-0.02-0.06-0.02
					c-0.01,0-0.01,0-0.02,0c-0.01,0-0.01,0-0.02,0c-0.01,0-0.02,0-0.03,0c-0.05,0.01-0.08,0.04-0.11,0.08
					c-0.01,0.02-0.02,0.04-0.02,0.06c0,0,0,0.01,0,0.01c-0.21,1.47,1.24,3.58,2.56,3.7c0.91,0.19,2.13,0.6,3.33,1.11
					c-1.3,0.51-2.51,1.1-3.15,1.73l0.47,0.55c0.59-0.58,1.91-1.33,3.36-1.98c1.45,0.66,2.77,1.4,3.36,1.98l0.47-0.55
					c-0.63-0.63-1.84-1.22-3.15-1.73C34.47,47.96,35.69,47.55,36.6,47.36z"/>
				<path style="fill-rule:evenodd;clip-rule:evenodd;" d="M38.95,15.98c0.58,0.74,2.03,1.69,2.95,1.84c0.03,0,0.07,0,0.1-0.01
					c0.17-0.04,0.28-0.21,0.24-0.38c-0.01-0.02-0.02-0.04-0.02-0.06c-0.43-0.81-1.93-1.59-3.2-1.59c-0.07,0.02-0.11,0.08-0.09,0.15
					C38.93,15.95,38.94,15.96,38.95,15.98z"/>
				<path style="fill-rule:evenodd;clip-rule:evenodd;" d="M47.6,23.28c0,0,0.01,0,0.01,0c0.03,0.01,0.07,0.02,0.11,0.02
					c0.15,0,0.27-0.1,0.32-0.23c0.04-0.15,0.05-0.3,0.05-0.45c0-1.07-0.44-1.97-1.11-2.77c-0.14-0.17-0.32-0.36-0.49-0.54
					c-0.02-0.02-0.04-0.03-0.07-0.04c-0.01,0-0.01,0-0.02,0c-0.07,0-0.12,0.05-0.13,0.12c0.09,1.34,0.36,2.69,1.22,3.82
					C47.53,23.24,47.56,23.26,47.6,23.28z"/>
				<path style="fill-rule:evenodd;clip-rule:evenodd;" d="M49.61,31.65c0.01,0.06,0.03,0.11,0.06,0.16
					c0.04,0.05,0.09,0.09,0.15,0.11c0,0,0.01,0,0.01,0c0.04,0.01,0.07,0.02,0.12,0.02c0.07,0,0.13-0.02,0.18-0.06
					c0.26-0.2,0.46-0.46,0.6-0.77c0.56-1.22,0.56-2.47,0.25-3.74c-0.01-0.01-0.01-0.03-0.02-0.04c-0.02-0.02-0.05-0.03-0.07-0.04
					c-0.01,0-0.01,0-0.02,0c-0.03,0-0.07,0.01-0.09,0.04C50.09,28,49.46,30.43,49.61,31.65z"/>
				<path style="fill-rule:evenodd;clip-rule:evenodd;" d="M46.82,23.91c0.16,0,0.29-0.11,0.33-0.25c0.01-0.03,0.01-0.06,0.01-0.09
					c0-0.03-0.01-0.06-0.02-0.1c-0.36-0.97-1.82-2.03-3.16-2.01c-0.06,0.01-0.11,0.06-0.11,0.13c0,0,0,0,0,0.01
					c0,0.01,0.01,0.03,0.01,0.04c0.47,0.9,1.9,2,2.86,2.25C46.77,23.91,46.8,23.91,46.82,23.91z"/>
				<path style="fill-rule:evenodd;clip-rule:evenodd;" d="M45.08,19.69c0.03,0.02,0.07,0.03,0.11,0.03c0.01,0,0.01,0,0.01,0
					c0.03,0,0.07-0.01,0.11-0.01c0.13-0.04,0.22-0.17,0.21-0.3c-0.01-0.15-0.04-0.28-0.08-0.42c-0.31-0.96-0.98-1.64-1.81-2.18
					c-0.17-0.11-0.4-0.23-0.6-0.34c-0.02-0.01-0.05-0.02-0.07-0.01c-0.01,0-0.01,0-0.02,0c-0.06,0.02-0.09,0.08-0.08,0.14
					C43.33,17.78,43.97,18.92,45.08,19.69z"/>
				<path style="fill-rule:evenodd;clip-rule:evenodd;" d="M44.39,20.56c0.15-0.01,0.26-0.12,0.29-0.26c0-0.03,0.01-0.05,0-0.08
					c0-0.03-0.01-0.06-0.02-0.09c-0.42-0.88-1.9-1.76-3.16-1.62c-0.06,0.02-0.1,0.07-0.09,0.13c0,0,0,0,0,0.01
					c0,0.01,0.01,0.02,0.01,0.04c0.53,0.81,1.97,1.72,2.89,1.88C44.34,20.56,44.36,20.56,44.39,20.56z"/>
				<path style="fill-rule:evenodd;clip-rule:evenodd;" d="M45.86,24.9c0,0.01,0,0.02,0,0.03c0,0,0,0.01,0,0.01
					c0,0.01,0,0.02,0.01,0.03c0.39,1.04,1.43,2.51,2.4,2.95c0.03,0.01,0.07,0.02,0.11,0.02c0.13,0,0.24-0.06,0.3-0.16
					c0.01-0.02,0.02-0.05,0.03-0.07c0.01-0.03,0.01-0.05,0.02-0.08c0-0.01,0-0.02,0-0.04c-0.18-1.2-1.65-2.75-2.74-2.78
					C45.92,24.82,45.87,24.85,45.86,24.9z"/>
				<path style="fill-rule:evenodd;clip-rule:evenodd;" d="M49.15,27.28c0.04,0.05,0.08,0.09,0.14,0.12c0,0,0.01,0,0.01,0
					c0.04,0.02,0.07,0.02,0.11,0.02c0.12,0.01,0.22-0.05,0.29-0.14c0.11-0.19,0.19-0.39,0.24-0.61c0.24-1.06,0-2.06-0.46-3.02
					c-0.1-0.2-0.21-0.39-0.34-0.61c-0.01-0.01-0.01-0.01-0.01-0.02c-0.02-0.02-0.05-0.04-0.07-0.04c-0.01,0-0.02,0-0.02,0
					c-0.06,0-0.11,0.04-0.13,0.09c-0.39,1.14-0.26,3.16,0.22,4.17C49.14,27.26,49.14,27.27,49.15,27.28z"/>
				<path style="fill-rule:evenodd;clip-rule:evenodd;" d="M48.66,32.02c0.03,0.01,0.07,0.02,0.11,0.02c0.08,0,0.16-0.03,0.22-0.08
					c0.05-0.04,0.09-0.09,0.1-0.16c0.23-1.25-0.83-3.13-2.03-3.49c0,0,0,0,0,0c-0.04,0-0.07,0.01-0.09,0.04
					c-0.02,0.02-0.03,0.05-0.04,0.09c0.08,0.98,0.77,2.82,1.63,3.52c0.03,0.02,0.06,0.04,0.09,0.05
					C48.65,32.02,48.65,32.02,48.66,32.02z"/>
				<path style="fill-rule:evenodd;clip-rule:evenodd;" d="M51.16,31.99c-0.01,0-0.02,0-0.03,0c-0.03,0-0.06,0.02-0.08,0.04
					c-0.82,0.78-1.94,2.7-2.07,4c0,0.03,0,0.07,0.01,0.1c0.01,0.03,0.02,0.06,0.03,0.08c0.01,0.03,0.03,0.05,0.05,0.07
					c0.04,0.05,0.1,0.08,0.16,0.11c0.04,0.01,0.08,0.02,0.13,0.02c0.06,0,0.11-0.01,0.16-0.04c0.14-0.07,0.27-0.16,0.37-0.28
					c0.28-0.29,0.56-0.61,0.75-0.97c0.49-0.94,0.69-1.94,0.65-3.03c0-0.01-0.01-0.03-0.02-0.04c-0.02-0.04-0.06-0.07-0.1-0.08
					C51.17,31.99,51.16,31.99,51.16,31.99z"/>
				<path style="fill-rule:evenodd;clip-rule:evenodd;" d="M45.88,44.75c-0.02-0.04-0.06-0.06-0.11-0.08
					c-1.22-0.12-3.4,0.35-4.56,1.14c-0.02,0.01-0.04,0.03-0.05,0.05c-0.07,0.08-0.12,0.18-0.12,0.29c0,0.08,0.02,0.15,0.05,0.21
					c0.02,0.03,0.04,0.06,0.06,0.08c0.04,0.04,0.09,0.07,0.14,0.1c0.13,0.05,0.27,0.08,0.42,0.11c0.61,0.1,1.21-0.01,1.79-0.22
					c0.9-0.32,1.69-0.81,2.37-1.47c0.01-0.01,0.01-0.02,0.02-0.02c0.01-0.01,0.01-0.02,0.01-0.03c0.01-0.02,0.01-0.03,0.01-0.05
					c0-0.02,0-0.04,0-0.06C45.9,44.78,45.89,44.76,45.88,44.75z"/>
				<path style="fill-rule:evenodd;clip-rule:evenodd;" d="M50.67,36.86c0-0.01-0.01-0.02-0.01-0.04c-0.02-0.04-0.06-0.07-0.1-0.08
					c-0.01,0-0.02-0.01-0.03-0.01c-0.01,0-0.02,0-0.03,0c-0.02,0-0.03,0.01-0.05,0.02c-1.33,0.81-2.51,1.74-3.22,3.17
					c-0.01,0.03-0.02,0.06-0.02,0.09c0,0.01,0,0.02,0,0.04c0,0.04,0,0.07,0.01,0.1c0.01,0.03,0.02,0.06,0.03,0.09
					s0.03,0.05,0.05,0.07c0.04,0.05,0.1,0.08,0.16,0.1c0.04,0.01,0.07,0.02,0.11,0.02c0.36-0.04,0.67-0.15,0.96-0.35
					c1.13-0.79,1.79-1.89,2.15-3.18c0-0.01,0-0.01,0-0.01c0-0.01,0-0.01,0-0.02C50.68,36.87,50.67,36.87,50.67,36.86z"/>
				<path style="fill-rule:evenodd;clip-rule:evenodd;" d="M47.74,36.19c0.04,0.05,0.1,0.08,0.16,0.11
					c0.04,0.01,0.08,0.02,0.13,0.02c0.07,0,0.13-0.02,0.19-0.05c0.01-0.01,0.03-0.02,0.04-0.02c0.03-0.02,0.05-0.04,0.08-0.07
					c0.02-0.02,0.03-0.04,0.04-0.06c0.44-1.01,0.13-2.94-1.11-3.98c-0.01-0.01-0.03-0.02-0.04-0.02c-0.01,0-0.02,0-0.03,0
					c-0.01,0-0.02,0-0.03,0c-0.03,0-0.07,0.02-0.09,0.04c-0.01,0.01-0.02,0.02-0.03,0.03c-0.01,0.02-0.02,0.04-0.02,0.07
					C46.87,33.38,47.08,35.3,47.74,36.19C47.74,36.19,47.74,36.19,47.74,36.19z"/>
				<path style="fill-rule:evenodd;clip-rule:evenodd;" d="M49.01,41.06c0-0.01-0.01-0.03-0.02-0.04c-0.02-0.04-0.06-0.07-0.1-0.08
					c-0.01,0-0.02,0-0.02-0.01c-0.01,0-0.01,0-0.02,0c-1.13,0.07-3.19,1.15-4.09,2.14c-0.01,0.02-0.03,0.04-0.04,0.06
					c-0.02,0.04-0.03,0.08-0.04,0.13c0,0.01,0,0.02,0,0.04c0,0.04,0.01,0.07,0.01,0.1c0.01,0.03,0.02,0.06,0.04,0.09
					c0.01,0.03,0.03,0.05,0.05,0.07c0.04,0.05,0.1,0.08,0.16,0.11c0.02,0.01,0.04,0.01,0.06,0.01c0.14,0.02,0.27,0.03,0.4,0.02
					c1.31-0.03,2.98-1.43,3.59-2.54c0-0.01,0.01-0.02,0.01-0.03c0-0.01,0-0.02,0.01-0.03c0,0,0-0.01,0-0.01c0-0.01,0-0.01,0-0.02
					C49.01,41.08,49.01,41.07,49.01,41.06z"/>
				<path style="fill-rule:evenodd;clip-rule:evenodd;" d="M45.96,40.03c0,0.01,0.01,0.02,0.01,0.02c0.01,0.03,0.03,0.05,0.05,0.07
					c0.04,0.05,0.09,0.08,0.15,0.1c0.04,0.02,0.08,0.02,0.13,0.02c0.02,0,0.04,0,0.06,0c0.05-0.01,0.09-0.02,0.13-0.04
					c0.01-0.01,0.03-0.02,0.04-0.02c0.03-0.02,0.05-0.04,0.08-0.07c0.01-0.02,0.03-0.04,0.04-0.06c0.16-0.29,0.3-0.59,0.37-0.9
					c0.23-1.08-0.03-2.07-0.67-2.97c-0.01-0.01-0.02-0.02-0.03-0.03c-0.02-0.02-0.05-0.04-0.08-0.05c-0.01,0-0.02,0-0.03,0
					c-0.01,0-0.02,0-0.03,0c-0.02,0-0.04,0.01-0.06,0.02c-0.01,0-0.02,0.01-0.02,0.02c-0.01,0.01-0.02,0.02-0.03,0.03
					c-0.01,0.01-0.01,0.03-0.02,0.04l0,0c-0.06,0.22-0.11,0.42-0.15,0.62c-0.18,0.85-0.28,1.7-0.12,2.56
					C45.81,39.62,45.88,39.83,45.96,40.03z"/>
				<path style="fill-rule:evenodd;clip-rule:evenodd;" d="M44.51,39.21c-0.01,0-0.02,0-0.03,0c-0.01,0-0.02,0-0.02,0
					c0,0-0.01,0-0.01,0c-0.02,0-0.04,0.01-0.06,0.02c-0.01,0.01-0.02,0.01-0.03,0.02c-0.01,0.01-0.01,0.02-0.02,0.02
					c-0.66,1.03-1.23,2.79-1.01,3.84c0.01,0.02,0.01,0.04,0.03,0.07c0.02,0.03,0.03,0.05,0.05,0.07c0.04,0.05,0.1,0.08,0.15,0.11
					c0.03,0.01,0.06,0.02,0.09,0.02c0.01,0,0.03,0,0.04,0c0.02,0,0.04,0,0.06,0c0.05-0.01,0.09-0.02,0.13-0.04
					c0.01-0.01,0.02-0.01,0.02-0.02c1.11-0.96,1.34-2.88,0.69-4.04C44.58,39.25,44.55,39.22,44.51,39.21z"/>
				<path style="fill-rule:evenodd;clip-rule:evenodd;" d="M42.05,41.69c-0.01,0-0.02,0-0.03-0.01c-0.01,0-0.01,0-0.02,0
					c-0.01,0-0.01,0-0.02,0c-0.02,0-0.05,0.01-0.07,0.02c-0.02,0.01-0.04,0.03-0.05,0.05c-0.88,1.07-1.71,2.14-1.84,3.54
					c0,0.07,0.02,0.15,0.05,0.21c0.02,0.03,0.03,0.05,0.06,0.08c0.05,0.05,0.11,0.09,0.17,0.12c0.04,0.01,0.07,0.02,0.11,0.02
					c0.01,0,0.02,0,0.03,0c0.07,0,0.13-0.02,0.19-0.05c1.09-0.64,1.91-2.6,1.53-3.86c-0.01-0.02-0.01-0.03-0.02-0.05
					C42.14,41.72,42.1,41.7,42.05,41.69z"/>
				<path style="fill-rule:evenodd;clip-rule:evenodd;" d="M42,47.75c0-0.02-0.01-0.04-0.02-0.06c-0.02-0.03-0.05-0.05-0.08-0.06
					c-1.15-0.43-3.35-0.57-4.67-0.11c-0.04,0.01-0.07,0.03-0.1,0.05c-0.02,0.02-0.04,0.03-0.06,0.05c-0.08,0.08-0.12,0.18-0.12,0.29
					c0,0.08,0.02,0.15,0.05,0.21c0.02,0.03,0.04,0.06,0.06,0.08c0.01,0.01,0.03,0.03,0.04,0.04c0.11,0.08,0.24,0.15,0.37,0.21
					c0.57,0.26,1.17,0.31,1.78,0.27c0.95-0.07,1.84-0.32,2.68-0.78c0.01-0.01,0.02-0.01,0.03-0.02c0.01-0.01,0.02-0.02,0.03-0.03
					c0.01-0.01,0.01-0.02,0.01-0.03C42,47.84,42,47.83,42,47.81c0-0.01,0-0.02,0-0.04C42,47.77,42,47.76,42,47.75z"/>
			</g>
			<path d="M34.44,15.61v-0.88c-0.4-0.04-0.84-0.07-1.35-0.08h-0.03v-0.99h-0.98v0.99h-0.03c-0.5,0.02-0.95,0.04-1.35,0.08v0.88
				c0.4-0.04,0.84-0.07,1.35-0.08l0.04,0v2.83h0.98v-2.83l0.04,0C33.61,15.54,34.05,15.57,34.44,15.61z"/>
		</g>
	</g>
	<g>
		<g>
			<path d="M97.5,2.35v0.07h0.07c0.03,0,0.1,0,0.2,0.02c0.09,0.01,0.19,0.04,0.29,0.09c0.11,0.05,0.21,0.12,0.31,0.21
				c0.09,0.08,0.17,0.2,0.22,0.36l0,0l0,0.01c0.05,0.11,0.07,0.24,0.07,0.41c0,0.18,0,0.41,0,0.69v9.23c0,0.35,0,0.65,0,0.9
				c0,0.24-0.03,0.43-0.09,0.56l0,0l0,0c-0.08,0.25-0.2,0.41-0.38,0.5c-0.19,0.09-0.4,0.17-0.63,0.24l-0.05,0.01v0.28V16h4.37v-0.3
				v-0.05l-0.05-0.01c-0.23-0.06-0.45-0.14-0.66-0.23c-0.19-0.09-0.33-0.24-0.44-0.49l0,0v0c-0.05-0.1-0.09-0.19-0.1-0.28v0
				c-0.02-0.09-0.03-0.2-0.03-0.32c0-0.12,0-0.26,0-0.42c0-0.15,0-0.34,0-0.54V9.08h2.94v0c0.3,0.02,0.61,0.03,0.91,0.06
				c0.29,0.03,0.51,0.15,0.67,0.38l0,0.01l0.01,0c0.06,0.05,0.1,0.13,0.13,0.24c0.03,0.11,0.07,0.25,0.11,0.43l0.01,0.05h0.29h0.07
				v-0.07V6.79h-0.3h-0.07v0.07c0,0.02-0.01,0.07-0.03,0.16c-0.02,0.09-0.05,0.19-0.09,0.29c-0.04,0.11-0.1,0.21-0.18,0.32
				c-0.08,0.1-0.18,0.17-0.3,0.22c-0.14,0.06-0.3,0.09-0.49,0.1c-0.19,0.01-0.44,0.01-0.74,0.01h-2.94V3.08h3.51l0,0
				c0.27,0.02,0.54,0.04,0.82,0.09c0.26,0.04,0.46,0.18,0.62,0.43l0,0c0.06,0.1,0.11,0.2,0.15,0.3c0.04,0.11,0.07,0.21,0.1,0.31
				l0.01,0.05h0.29h0.07l0.02-2.19H97.5V2.35z"/>
			<path d="M117.84,2.35V2.4l0.18,0.04c0.07,0.02,0.15,0.04,0.24,0.07h0h0c0.08,0.02,0.17,0.06,0.27,0.11
				c0.09,0.05,0.16,0.11,0.23,0.18c0.16,0.19,0.24,0.44,0.25,0.75c0.01,0.32,0.01,0.59,0.01,0.81v6.26c0,0.34-0.01,0.63-0.03,0.88
				c-0.02,0.25-0.05,0.48-0.08,0.68l0,0c-0.03,0.2-0.07,0.38-0.12,0.54c-0.05,0.16-0.11,0.33-0.18,0.49l0,0
				c-0.09,0.21-0.18,0.38-0.28,0.53c-0.1,0.15-0.17,0.25-0.22,0.32c-0.12,0.13-0.26,0.26-0.44,0.4c-0.18,0.14-0.4,0.26-0.66,0.38
				c-0.26,0.12-0.55,0.22-0.89,0.3c-0.33,0.08-0.72,0.12-1.15,0.12c-0.64,0-1.25-0.11-1.84-0.34c-0.59-0.22-1.09-0.59-1.5-1.12l0,0
				c-0.19-0.26-0.35-0.52-0.46-0.78c-0.11-0.26-0.19-0.53-0.24-0.81c-0.05-0.28-0.08-0.56-0.1-0.84c-0.01-0.29-0.02-0.59-0.02-0.9
				V4.3c0.01-0.27,0.02-0.51,0.03-0.72l0,0c0-0.2,0.04-0.37,0.1-0.52c0.06-0.14,0.16-0.27,0.31-0.37c0.15-0.1,0.38-0.2,0.69-0.27
				l0.05-0.01l0.02-0.26l0.01-0.07h-4.24v0.28V2.4l0.05,0.01c0.38,0.1,0.62,0.21,0.74,0.32l0,0l0,0c0.18,0.13,0.28,0.31,0.31,0.54
				c0.03,0.25,0.04,0.58,0.04,1.01v6.3c0,0.13,0,0.26,0,0.38c0,0.48,0.02,0.87,0.06,1.18c0.05,0.38,0.13,0.73,0.24,1.05l0,0
				c0.13,0.37,0.33,0.74,0.59,1.12c0.26,0.38,0.61,0.72,1.04,1.02c0.43,0.31,0.96,0.55,1.59,0.74c0.63,0.19,1.38,0.29,2.25,0.29
				c0.88,0,1.64-0.11,2.26-0.32c0.62-0.21,1.14-0.48,1.55-0.81c0.4-0.33,0.72-0.7,0.95-1.11c0.22-0.4,0.39-0.79,0.5-1.18l0,0
				c0.07-0.25,0.11-0.5,0.15-0.76c0.03-0.26,0.05-0.49,0.06-0.72c0.01-0.22,0.01-0.41,0.01-0.58c0-0.16,0-0.28,0-0.36v-6.3
				c0-0.35,0.01-0.62,0.02-0.81c0.01-0.18,0.07-0.34,0.16-0.48l0,0c0.11-0.18,0.24-0.29,0.4-0.35c0.17-0.06,0.35-0.12,0.54-0.17
				l0.05-0.01V2.35V2.13V2.06h-3.52V2.35z"/>
			<path d="M139.03,13.68l-0.02,0.05c-0.05,0.17-0.1,0.33-0.15,0.47c-0.05,0.14-0.13,0.27-0.26,0.39c-0.14,0.14-0.28,0.21-0.45,0.24
				c-0.18,0.03-0.31,0.04-0.36,0.04h-0.01l-0.01,0c-0.14,0.02-0.28,0.04-0.4,0.04c-0.13,0-0.26,0-0.4,0h-1.85
				c-0.48-0.01-0.91-0.03-1.28-0.05c-0.36-0.02-0.61-0.09-0.75-0.19l-0.14-0.14l-0.08-0.13c-0.1-0.21-0.15-0.44-0.16-0.69
				c-0.01-0.26-0.02-0.5-0.03-0.72h0V9.1h2.96c0.3,0,0.59,0.02,0.89,0.07c0.27,0.04,0.48,0.2,0.65,0.48l0.09,0.21v0
				c0.03,0.07,0.07,0.19,0.11,0.34l0.01,0.05h0.29h0.07v-0.07V6.81h-0.3h-0.05l-0.01,0.05c-0.01,0.04-0.03,0.11-0.05,0.21
				c-0.02,0.09-0.05,0.19-0.1,0.3c-0.05,0.1-0.12,0.21-0.21,0.32L137,7.69l0.01-0.01c-0.09,0.1-0.21,0.18-0.35,0.22l0,0l0,0
				C136.49,7.97,136.32,8,136.14,8c-0.19,0-0.46,0-0.82,0h-2.63V3.13h3.67c0.25,0,0.5,0.03,0.71,0.08c0.2,0.05,0.37,0.19,0.51,0.43
				c0.05,0.09,0.09,0.18,0.12,0.28c0.03,0.11,0.06,0.21,0.09,0.31l0.01,0.05l0.29,0.02l0.07,0.01l0.04-2.25h-8.57v0.28v0.07h0.07
				c0.03,0,0.1,0,0.21,0.02c0.1,0.01,0.2,0.04,0.3,0.09c0.11,0.05,0.21,0.12,0.31,0.21c0.09,0.08,0.17,0.2,0.22,0.36l0,0l0,0.01
				c0.06,0.15,0.09,0.31,0.09,0.48c0,0.19,0,0.44,0,0.78v9.03c-0.01,0.12-0.01,0.24-0.01,0.36l0,0.2l0,0l0,0.19
				c0,0.13,0,0.25-0.01,0.38l0,0c-0.01,0.2-0.06,0.38-0.14,0.54c-0.08,0.16-0.21,0.28-0.4,0.38l0,0l0,0
				c-0.07,0.05-0.15,0.08-0.24,0.11h0h0c-0.1,0.03-0.2,0.05-0.3,0.08l-0.05,0.01l-0.02,0.28L129.64,16h9.74v-2.32h-0.3H139.03z"/>
			<path d="M153,2.06v0.28V2.4l0.05,0.01c0.48,0.1,0.78,0.26,0.9,0.44c0.14,0.2,0.22,0.41,0.25,0.65l0,0.01
				c0.02,0.11,0.03,0.21,0.03,0.32l0,0.1v0c-0.01,0.15-0.01,0.24-0.01,0.29v8.23l-9.23-10.39h-2.93v0.28v0.06l0.06,0.01
				c0.19,0.02,0.38,0.07,0.55,0.12c0.16,0.05,0.28,0.17,0.38,0.35l0,0.01c0.09,0.13,0.13,0.29,0.14,0.46l0,0
				c0.01,0.19,0.01,0.44,0.01,0.77v9.81c0,0.18-0.01,0.4-0.03,0.67c-0.02,0.26-0.09,0.45-0.21,0.6l0,0
				c-0.14,0.18-0.29,0.29-0.47,0.34c-0.2,0.05-0.33,0.08-0.39,0.08l-0.06,0.01l-0.02,0.29L142.01,16h3.57v-0.3v-0.05l-0.05-0.01
				c-0.3-0.06-0.53-0.16-0.71-0.29c-0.17-0.12-0.29-0.34-0.36-0.65c-0.01-0.1-0.02-0.2-0.03-0.31l0,0c0-0.1-0.01-0.25-0.01-0.44
				V4.22l10.66,11.99h0.21h0.07V4.18c0.01-0.28,0.02-0.56,0.04-0.83c0.01-0.24,0.13-0.45,0.37-0.64h0l0,0
				c0.07-0.06,0.16-0.12,0.27-0.17c0.11-0.05,0.26-0.09,0.45-0.13l0.05-0.01l0.01-0.05l0.02-0.22l0.01-0.07H153z"/>
			<path d="M123.37,2.35V2.4l0.06,0.01c0.22,0.04,0.42,0.1,0.62,0.19c0.18,0.08,0.32,0.23,0.4,0.47c0.07,0.25,0.12,0.69,0.12,1.33
				v11.55c0,0.55-0.03,1.08-0.1,1.61c-0.07,0.51-0.28,0.99-0.64,1.42l0,0c-0.14,0.18-0.3,0.34-0.48,0.5
				c-0.18,0.15-0.3,0.25-0.33,0.27l-0.05,0.04l0.17,0.29l0.03,0.05l0.06-0.03c0.34-0.15,0.6-0.29,0.8-0.39
				c0.19-0.11,0.36-0.21,0.51-0.32l0,0c0.44-0.28,0.78-0.58,1.03-0.91c0.24-0.32,0.43-0.64,0.56-0.95c0.13-0.3,0.21-0.6,0.24-0.88
				c0.03-0.28,0.06-0.52,0.07-0.72l0,0V4.4c0-0.53,0.02-0.94,0.07-1.2l0,0c0.04-0.25,0.19-0.45,0.46-0.59l0,0l0,0
				c0.09-0.05,0.17-0.09,0.24-0.11c0.06-0.02,0.19-0.05,0.37-0.07l0.06-0.01V2.35V2.13V2.06h-4.27V2.35z"/>
		</g>
		<g>
			<path d="M105.31,49.69h0.12c0.02,0,0.05,0.01,0.1,0.02l0.24,0.07c0.08,0.02,0.16,0.06,0.25,0.1c0.08,0.04,0.15,0.1,0.2,0.16
				c0.15,0.18,0.22,0.41,0.23,0.69c0.01,0.31,0.01,0.57,0.01,0.78v6.01c0,0.32-0.01,0.61-0.03,0.85c-0.02,0.24-0.04,0.46-0.07,0.65
				c-0.03,0.19-0.07,0.36-0.12,0.51c-0.05,0.16-0.11,0.31-0.17,0.47c-0.09,0.19-0.17,0.36-0.27,0.5c-0.09,0.14-0.16,0.24-0.2,0.29
				c-0.11,0.12-0.25,0.25-0.42,0.38c-0.17,0.13-0.38,0.25-0.62,0.36c-0.25,0.11-0.53,0.21-0.85,0.28c-0.32,0.08-0.68,0.12-1.09,0.12
				c-0.6,0-1.19-0.11-1.75-0.32c-0.56-0.21-1.04-0.57-1.42-1.06c-0.18-0.24-0.33-0.49-0.43-0.74c-0.1-0.25-0.18-0.51-0.23-0.77
				c-0.05-0.26-0.08-0.53-0.09-0.8c-0.01-0.27-0.02-0.56-0.02-0.86v-5.93c0.01-0.26,0.02-0.5,0.03-0.7
				c0.01-0.19,0.04-0.35,0.09-0.48c0.06-0.13,0.15-0.24,0.28-0.33c0.14-0.1,0.36-0.18,0.64-0.25l0.08-0.02l0.04-0.42h-4.18v0.41
				l0.09,0.02c0.43,0.12,0.61,0.23,0.7,0.3c0.16,0.12,0.25,0.28,0.27,0.48c0.02,0.23,0.04,0.56,0.04,0.96v6.05
				c-0.01,0.63,0.01,1.13,0.06,1.5c0.05,0.37,0.13,0.71,0.23,1.02c0.13,0.36,0.32,0.72,0.57,1.09c0.25,0.37,0.59,0.7,1.01,1
				c0.42,0.29,0.94,0.54,1.55,0.72c0.61,0.18,1.34,0.28,2.18,0.28c0.85,0,1.59-0.1,2.19-0.31c0.6-0.2,1.11-0.47,1.5-0.79
				c0.39-0.32,0.71-0.68,0.93-1.08c0.22-0.39,0.38-0.77,0.48-1.15c0.06-0.24,0.11-0.48,0.15-0.74c0.03-0.24,0.05-0.48,0.06-0.7
				c0.01-0.21,0.01-0.4,0.01-0.56v-6.4c0-0.34,0.01-0.59,0.02-0.77c0.01-0.16,0.06-0.31,0.15-0.44c0.1-0.15,0.22-0.26,0.36-0.31
				c0.16-0.06,0.33-0.11,0.52-0.17l0.09-0.02v-0.41h-3.49L105.31,49.69z"/>
			<path d="M121.45,49.67l0.09,0.02c0.43,0.09,0.71,0.23,0.84,0.4c0.13,0.18,0.2,0.39,0.23,0.61c0.02,0.13,0.03,0.26,0.03,0.4
				c-0.01,0.15-0.01,0.24-0.01,0.28v7.77l-8.79-9.9h-2.89v0.42l0.1,0.01c0.18,0.02,0.35,0.06,0.52,0.12
				c0.14,0.05,0.25,0.15,0.34,0.32c0.08,0.12,0.12,0.26,0.12,0.42c0.01,0.18,0.01,0.43,0.01,0.74v9.43c0,0.18-0.01,0.39-0.03,0.64
				c-0.02,0.23-0.08,0.41-0.19,0.55c-0.12,0.17-0.26,0.27-0.42,0.3c-0.19,0.04-0.31,0.07-0.37,0.08l-0.09,0.02l-0.04,0.44h3.54
				v-0.44l-0.09-0.02c-0.27-0.06-0.5-0.15-0.66-0.27c-0.16-0.11-0.27-0.32-0.32-0.59c-0.01-0.1-0.02-0.2-0.03-0.29
				c-0.01-0.1-0.01-0.24-0.01-0.42v-9.2l10.17,11.44h0.34l0-11.61c0.01-0.28,0.02-0.54,0.04-0.8c0.01-0.22,0.12-0.41,0.34-0.58
				c0.07-0.06,0.15-0.11,0.25-0.15c0.1-0.05,0.24-0.09,0.42-0.12l0.09-0.02l0.04-0.42h-3.54V49.67z"/>
			<path d="M130.92,62.13c-0.14-0.05-0.27-0.15-0.38-0.29c-0.1-0.12-0.16-0.24-0.17-0.36c-0.02-0.17-0.03-0.25-0.03-0.31
				c-0.02-0.15-0.04-0.29-0.04-0.43v-9.09c0-0.31,0-0.58,0.01-0.8c0.01-0.21,0.03-0.37,0.06-0.48c0.04-0.15,0.11-0.26,0.18-0.34
				c0.08-0.08,0.16-0.15,0.26-0.19c0.1-0.05,0.19-0.08,0.27-0.09c0.09-0.02,0.16-0.04,0.21-0.05l0.09-0.02v-0.41h-4.19v0.41
				l0.09,0.02c0.05,0.01,0.13,0.03,0.23,0.05c0.09,0.02,0.19,0.05,0.3,0.1c0.1,0.04,0.2,0.11,0.3,0.2c0.09,0.09,0.17,0.21,0.22,0.37
				c0.05,0.14,0.07,0.3,0.08,0.47c0.01,0.19,0.01,0.44,0.01,0.77v8.6c-0.01,0.43-0.02,0.76-0.03,1.01
				c-0.01,0.22-0.07,0.41-0.18,0.56c-0.11,0.16-0.24,0.27-0.38,0.33c-0.16,0.07-0.33,0.12-0.51,0.15l-0.09,0.02v0.44h4.24v-0.43
				l-0.08-0.03C131.23,62.24,131.07,62.19,130.92,62.13z"/>
			<path d="M142.58,49.66l0.09,0.02c0.14,0.04,0.27,0.08,0.41,0.12c0.11,0.04,0.2,0.11,0.28,0.22c0.04,0.06,0.06,0.11,0.07,0.16
				c0.01,0.07,0.01,0.11,0.01,0.15c0,0.12-0.01,0.24-0.04,0.36c-0.03,0.13-0.07,0.25-0.11,0.36c-0.04,0.12-0.08,0.21-0.12,0.29
				c-0.04,0.09-0.06,0.13-0.06,0.16l-3.49,7.96l-3.32-7.98l-0.15-0.38c-0.05-0.12-0.08-0.24-0.11-0.36
				c-0.05-0.17-0.07-0.32-0.07-0.44c0-0.17,0.05-0.3,0.16-0.39c0.11-0.1,0.34-0.18,0.67-0.24l0.1-0.02v-0.42h-4.26v0.42l0.09,0.02
				c0.15,0.04,0.28,0.07,0.37,0.12c0.09,0.04,0.19,0.11,0.31,0.22c0.16,0.14,0.28,0.29,0.36,0.46c0.08,0.18,0.13,0.3,0.16,0.37
				c0.09,0.19,0.17,0.37,0.25,0.56c0.08,0.19,0.16,0.38,0.24,0.58l4.61,10.86l0.03,0.07h0.34l4.91-11.1
				c0.1-0.21,0.22-0.47,0.34-0.78c0.12-0.29,0.25-0.54,0.39-0.75c0.13-0.2,0.26-0.34,0.39-0.41c0.13-0.08,0.32-0.15,0.56-0.19
				l0.09-0.02v-0.42h-3.49V49.66z"/>
			<path d="M156.33,60.49c-0.05,0.16-0.1,0.31-0.15,0.46c-0.04,0.13-0.12,0.25-0.24,0.36c-0.12,0.12-0.25,0.19-0.41,0.21
				c-0.21,0.03-0.3,0.04-0.37,0.04c-0.13,0.02-0.25,0.04-0.38,0.04h-2.15c-0.47-0.01-0.87-0.03-1.23-0.05
				c-0.33-0.02-0.56-0.08-0.69-0.17c-0.05-0.04-0.09-0.08-0.12-0.12c-0.03-0.05-0.06-0.1-0.08-0.12c-0.09-0.2-0.14-0.41-0.15-0.65
				c-0.01-0.25-0.02-0.48-0.03-0.69v-3.68h2.79c0.28,0,0.57,0.02,0.84,0.07c0.25,0.04,0.44,0.18,0.58,0.42l0.08,0.21
				c0.03,0.07,0.06,0.18,0.1,0.32l0.02,0.09h0.44v-3.41h-0.43l-0.03,0.08c-0.01,0.04-0.03,0.11-0.05,0.21
				c-0.02,0.08-0.05,0.17-0.1,0.27c-0.05,0.1-0.11,0.19-0.2,0.29c-0.08,0.09-0.19,0.16-0.32,0.2c-0.15,0.06-0.31,0.09-0.48,0.09
				h-3.26v-4.58h3.47c0.24,0,0.47,0.02,0.67,0.07c0.18,0.04,0.33,0.17,0.45,0.39c0.05,0.08,0.08,0.17,0.11,0.26
				c0.03,0.1,0.06,0.2,0.08,0.29l0.02,0.08l0.44,0.04l0.04-2.27h-8.35v0.44h0.12c0.03,0,0.1,0.01,0.19,0.02
				c0.09,0.01,0.18,0.04,0.28,0.08c0.1,0.05,0.19,0.11,0.28,0.19c0.08,0.07,0.15,0.18,0.2,0.33c0.06,0.14,0.09,0.28,0.09,0.44
				l0,9.42c-0.01,0.18-0.02,0.36-0.01,0.55c0.01,0.18,0,0.36-0.01,0.54c-0.01,0.18-0.06,0.35-0.13,0.5
				c-0.07,0.14-0.19,0.25-0.37,0.35c-0.07,0.04-0.14,0.08-0.22,0.1c-0.09,0.03-0.19,0.05-0.29,0.08l-0.08,0.02l-0.04,0.44h9.47
				v-2.34h-0.43L156.33,60.49z"/>
			<path d="M170.42,62.2c-0.11-0.04-0.22-0.11-0.31-0.19c-0.11-0.09-0.21-0.2-0.28-0.32c-0.08-0.14-0.14-0.23-0.17-0.27
				c-0.21-0.31-0.41-0.65-0.6-1l-2.59-4.72c0.07-0.03,0.15-0.08,0.24-0.12c0.16-0.08,0.35-0.2,0.54-0.34c0.2-0.14,0.4-0.31,0.6-0.51
				c0.2-0.2,0.38-0.44,0.52-0.71c0.22-0.43,0.33-0.91,0.33-1.44c0-0.5-0.08-0.93-0.24-1.27c-0.15-0.33-0.28-0.58-0.39-0.74
				c-0.25-0.32-0.54-0.58-0.86-0.75c-0.31-0.17-0.65-0.3-1.01-0.39c-0.35-0.08-0.72-0.13-1.09-0.14c-0.37-0.01-0.72-0.02-1.06-0.02
				h-4.84l0,0.44l0.12,0c0,0,0.03,0,0.14,0.02c0.08,0.02,0.18,0.05,0.28,0.08c0.1,0.03,0.19,0.09,0.28,0.16
				c0.09,0.07,0.16,0.16,0.21,0.27c0.06,0.12,0.09,0.28,0.1,0.46c0.01,0.2,0.02,0.45,0.02,0.75l0,9.03
				c-0.01,0.3-0.02,0.56-0.03,0.77c-0.01,0.2-0.03,0.35-0.08,0.45c-0.05,0.12-0.11,0.22-0.19,0.29c-0.08,0.08-0.18,0.14-0.27,0.19
				c-0.1,0.05-0.19,0.08-0.27,0.09c-0.1,0.02-0.15,0.02-0.16,0.02h-0.12v0.46h4.28v-0.43l-0.09-0.02c-0.27-0.07-0.47-0.14-0.59-0.19
				c-0.11-0.05-0.21-0.12-0.3-0.23c-0.11-0.12-0.18-0.24-0.2-0.34c-0.02-0.12-0.04-0.26-0.05-0.44c-0.01-0.11-0.02-0.22-0.02-0.34
				c0-0.12-0.01-0.25-0.02-0.37v-4.07c0.13,0,0.26,0,0.38,0.01c0.38,0.02,0.82,0.01,1.29-0.02c0.24-0.02,0.47-0.04,0.7-0.06
				l2.44,4.46c0.14,0.25,0.29,0.52,0.47,0.8c0.18,0.29,0.39,0.54,0.64,0.73c0.16,0.13,0.33,0.23,0.5,0.3
				c0.16,0.07,0.32,0.12,0.47,0.15c0.15,0.03,0.29,0.05,0.41,0.05h1.16v-0.42l-0.07-0.03C170.63,62.29,170.55,62.25,170.42,62.2z
				 M162.31,50.42h1.34c0.36-0.01,0.73,0,1.09,0.04c0.35,0.04,0.69,0.16,1,0.36c0.34,0.21,0.59,0.5,0.75,0.84
				c0.16,0.35,0.24,0.73,0.24,1.11c0,0.3-0.03,0.56-0.09,0.77c-0.06,0.21-0.12,0.36-0.18,0.46c-0.14,0.26-0.32,0.47-0.53,0.62
				c-0.21,0.15-0.45,0.28-0.7,0.36c-0.27,0.08-0.54,0.14-0.82,0.17c-0.28,0.03-0.56,0.05-0.84,0.05h-1.3L162.31,50.42z"/>
			<path d="M179.01,55.66l-0.82-0.53l-1.09-0.62c-0.33-0.2-0.67-0.43-1.01-0.66c-0.33-0.23-0.57-0.53-0.72-0.89
				c-0.06-0.16-0.1-0.32-0.11-0.45c-0.01-0.14-0.02-0.24-0.02-0.3c0-0.35,0.06-0.65,0.19-0.92c0.12-0.27,0.29-0.49,0.5-0.66
				c0.21-0.18,0.46-0.32,0.75-0.41c0.29-0.1,0.6-0.15,0.93-0.15c0.45,0,0.83,0.07,1.13,0.2c0.3,0.13,0.55,0.29,0.73,0.48
				c0.19,0.19,0.33,0.39,0.43,0.6c0.11,0.22,0.2,0.41,0.27,0.57l0.03,0.07h0.4v-2.4l-0.08-0.03c-0.14-0.05-0.3-0.11-0.5-0.19
				c-0.2-0.08-0.43-0.15-0.67-0.21c-0.24-0.06-0.53-0.12-0.84-0.17c-0.31-0.05-0.67-0.08-1.05-0.08c-0.13,0-0.31,0.01-0.54,0.02
				c-0.24,0.01-0.5,0.05-0.78,0.13c-0.28,0.07-0.58,0.19-0.89,0.35c-0.31,0.16-0.6,0.39-0.87,0.67c-0.18,0.18-0.38,0.47-0.59,0.85
				c-0.21,0.38-0.32,0.9-0.32,1.53c0,0.21,0.02,0.43,0.06,0.68c0.04,0.25,0.12,0.5,0.24,0.76c0.12,0.26,0.3,0.53,0.53,0.81
				c0.23,0.27,0.54,0.55,0.93,0.82c0.13,0.09,0.25,0.17,0.38,0.24c0.12,0.07,0.24,0.14,0.37,0.21l1.21,0.72
				c0.37,0.22,0.72,0.46,1.04,0.71c0.3,0.24,0.54,0.56,0.71,0.97c0.04,0.08,0.08,0.21,0.13,0.38c0.05,0.17,0.07,0.37,0.07,0.61
				c0,0.35-0.04,0.63-0.13,0.85c-0.09,0.22-0.17,0.4-0.23,0.52c-0.28,0.43-0.64,0.75-1.07,0.94c-0.44,0.2-0.93,0.3-1.44,0.3
				c-0.32,0-0.6-0.03-0.85-0.1c-0.25-0.07-0.47-0.15-0.66-0.25c-0.18-0.1-0.34-0.21-0.47-0.33c-0.12-0.12-0.22-0.23-0.29-0.33
				c-0.06-0.1-0.13-0.21-0.19-0.34c-0.07-0.13-0.15-0.32-0.25-0.55l-0.03-0.06l-0.41-0.04v2.38l0.07,0.03
				c0.31,0.14,0.7,0.3,1.18,0.46c0.49,0.17,1.14,0.26,1.93,0.26c0.14,0,0.34-0.01,0.59-0.02c0.25-0.01,0.54-0.05,0.86-0.12
				c0.32-0.07,0.65-0.19,0.99-0.35c0.34-0.16,0.68-0.4,1.01-0.71c0.28-0.27,0.51-0.55,0.67-0.82c0.16-0.28,0.29-0.55,0.37-0.81
				c0.08-0.26,0.14-0.51,0.16-0.73c0.02-0.22,0.03-0.4,0.03-0.54c0-1.07-0.4-1.98-1.19-2.71C179.56,56.05,179.3,55.85,179.01,55.66z
				"/>
			<path d="M187.67,62.13c-0.14-0.05-0.27-0.15-0.38-0.29c-0.1-0.12-0.16-0.24-0.17-0.36c-0.02-0.17-0.03-0.25-0.03-0.31
				c-0.02-0.15-0.04-0.29-0.04-0.43v-9.09c0-0.31,0-0.58,0.01-0.8c0.01-0.21,0.03-0.37,0.06-0.48c0.04-0.15,0.11-0.26,0.18-0.34
				c0.07-0.08,0.16-0.15,0.26-0.19c0.1-0.05,0.19-0.08,0.27-0.09c0.09-0.02,0.16-0.04,0.21-0.05l0.09-0.02v-0.41h-4.19v0.41
				l0.09,0.02c0.05,0.01,0.13,0.03,0.23,0.05c0.09,0.02,0.19,0.05,0.3,0.1c0.1,0.04,0.2,0.11,0.3,0.2c0.09,0.09,0.17,0.21,0.22,0.37
				c0.05,0.14,0.07,0.3,0.08,0.47c0.01,0.19,0.01,0.44,0.01,0.77v8.6c-0.01,0.43-0.02,0.76-0.03,1.01
				c-0.01,0.22-0.06,0.41-0.18,0.56c-0.11,0.16-0.24,0.27-0.38,0.33c-0.16,0.07-0.33,0.12-0.51,0.15l-0.1,0.02v0.44h4.24v-0.43
				l-0.08-0.03C187.99,62.24,187.83,62.19,187.67,62.13z"/>
			<path d="M189.49,51.51h0.44l0.02-0.1c0.01-0.06,0.03-0.18,0.07-0.35c0.03-0.14,0.11-0.27,0.25-0.39c0.12-0.1,0.28-0.17,0.45-0.21
				c0.19-0.04,0.46-0.07,0.82-0.08h2.61v10.44c0,0.36-0.04,0.63-0.12,0.81c-0.08,0.18-0.19,0.32-0.33,0.42
				c-0.11,0.09-0.23,0.15-0.35,0.18c-0.14,0.03-0.24,0.06-0.28,0.07l-0.07,0.02l-0.04,0.43h4.33v-0.43l-0.09-0.02
				c-0.24-0.06-0.42-0.12-0.53-0.18c-0.11-0.06-0.21-0.14-0.3-0.23c-0.09-0.1-0.16-0.21-0.19-0.31c-0.04-0.11-0.07-0.23-0.08-0.36
				c-0.01-0.14-0.02-0.3-0.02-0.49V50.42h2.83c0.41,0,0.73,0.06,0.97,0.17c0.21,0.1,0.36,0.37,0.43,0.79l0.02,0.1h0.43v-2.23h-11.26
				V51.51z"/>
			<path d="M210.49,49.25v0.42l0.1,0.02c0.16,0.02,0.3,0.05,0.42,0.08c0.09,0.02,0.18,0.1,0.25,0.25c0.06,0.09,0.08,0.15,0.08,0.18
				c0.01,0.07,0.01,0.11,0.01,0.15c0,0.17-0.05,0.34-0.15,0.51c-0.11,0.19-0.2,0.36-0.29,0.5l-2.59,4.2l-2.7-4.21
				c-0.1-0.13-0.2-0.3-0.3-0.5c-0.1-0.19-0.15-0.37-0.15-0.54c0-0.14,0.03-0.24,0.09-0.31c0.07-0.08,0.14-0.14,0.22-0.18
				c0.08-0.05,0.17-0.08,0.24-0.09c0.07-0.02,0.12-0.02,0.15-0.02H206v-0.44h-4.26v0.41l0.09,0.02c0.14,0.03,0.26,0.08,0.35,0.12
				c0.09,0.05,0.17,0.1,0.24,0.15c0.07,0.06,0.13,0.13,0.2,0.22c0.07,0.09,0.15,0.2,0.24,0.31c0.06,0.08,0.12,0.17,0.17,0.25
				c0.05,0.08,0.11,0.17,0.17,0.24l3.78,5.83v3.91c0,0.35-0.01,0.62-0.04,0.79c-0.02,0.15-0.1,0.3-0.22,0.45
				c-0.11,0.12-0.23,0.2-0.35,0.24c-0.14,0.04-0.3,0.08-0.48,0.1l-0.09,0.01l-0.04,0.45h4.23v-0.44l-0.09-0.02
				c-0.07-0.01-0.18-0.03-0.34-0.06c-0.13-0.02-0.26-0.09-0.39-0.2c-0.18-0.16-0.28-0.35-0.31-0.59c-0.03-0.27-0.05-0.52-0.05-0.75
				v-3.8l3.78-6.06l0.36-0.55c0.12-0.18,0.25-0.31,0.42-0.41c0.1-0.07,0.2-0.11,0.3-0.13c0.12-0.03,0.2-0.05,0.24-0.06l0.08-0.03
				v-0.41H210.49z"/>
			<path d="M99.02,29.07c0.19-0.35,0.39-0.66,0.6-0.91c0.22-0.25,0.42-0.46,0.6-0.62c0.41-0.34,0.83-0.61,1.26-0.81
				c0.43-0.2,0.85-0.34,1.23-0.43c0.39-0.09,0.75-0.14,1.06-0.16c0.33-0.02,0.57-0.03,0.74-0.03c0.49,0,1.03,0.05,1.59,0.16
				c0.55,0.1,1.03,0.31,1.43,0.62c0.25,0.2,0.44,0.41,0.56,0.62l0.32,0.57h0.41l0.08-2.42l-0.09-0.02c-0.51-0.15-0.98-0.27-1.4-0.36
				c-0.41-0.09-0.79-0.16-1.11-0.21c-0.34-0.05-0.64-0.08-0.92-0.09c-0.28-0.01-0.55-0.02-0.82-0.02c-0.25,0-0.59,0.01-1.05,0.04
				c-0.45,0.03-0.95,0.11-1.49,0.24c-0.55,0.13-1.13,0.35-1.74,0.64c-0.61,0.29-1.19,0.7-1.74,1.22c-0.5,0.47-0.9,0.96-1.18,1.45
				c-0.29,0.5-0.51,0.98-0.65,1.44c-0.15,0.46-0.24,0.9-0.28,1.29c-0.04,0.39-0.06,0.71-0.06,0.95c0,0.72,0.1,1.42,0.29,2.08
				c0.19,0.66,0.48,1.28,0.85,1.84c0.37,0.56,0.83,1.06,1.37,1.49c0.54,0.43,1.15,0.78,1.83,1.05c0.34,0.14,0.69,0.25,1.03,0.32
				c0.35,0.07,0.66,0.12,0.93,0.16c0.28,0.04,0.54,0.06,0.77,0.07c0.22,0.01,0.4,0.01,0.52,0.01c0.53,0,1.13-0.04,1.8-0.12
				c0.66-0.08,1.26-0.19,1.79-0.33c0.22-0.06,0.43-0.12,0.64-0.19c0.21-0.06,0.42-0.13,0.64-0.21l0.08-0.03l-0.08-2.32h-0.42
				l-0.03,0.08c-0.04,0.1-0.09,0.22-0.15,0.37c-0.06,0.14-0.17,0.31-0.33,0.49c-0.07,0.07-0.18,0.17-0.31,0.28
				c-0.12,0.11-0.29,0.21-0.49,0.3c-0.26,0.12-0.53,0.22-0.81,0.28c-0.28,0.07-0.56,0.12-0.81,0.16c-0.25,0.04-0.48,0.06-0.67,0.07
				c-0.19,0.01-0.33,0.01-0.4,0.01c-0.22,0-0.5-0.01-0.84-0.04c-0.34-0.02-0.72-0.1-1.13-0.22c-0.4-0.12-0.83-0.31-1.26-0.56
				c-0.43-0.25-0.85-0.6-1.26-1.04c-0.16-0.17-0.33-0.39-0.51-0.64c-0.18-0.25-0.34-0.56-0.5-0.91c-0.15-0.35-0.28-0.75-0.39-1.2
				c-0.11-0.45-0.16-0.96-0.16-1.52c0-0.6,0.06-1.15,0.19-1.62C98.68,29.84,98.84,29.42,99.02,29.07z"/>
			<path d="M113.46,38.42l-0.1-0.02c-0.14-0.02-0.27-0.06-0.39-0.12c-0.11-0.05-0.19-0.13-0.26-0.25c-0.04-0.08-0.07-0.14-0.08-0.2
				c-0.01-0.06-0.02-0.11-0.02-0.14c0-0.12,0.04-0.28,0.11-0.46c0.08-0.19,0.17-0.43,0.28-0.7l1.1-2.56h4.67l1.03,2.46
				c0.06,0.17,0.13,0.32,0.2,0.48c0.07,0.15,0.13,0.3,0.19,0.45c0.04,0.14,0.05,0.25,0.05,0.31c0,0.02,0,0.07-0.01,0.13
				c-0.01,0.05-0.03,0.1-0.07,0.18c-0.08,0.15-0.18,0.25-0.31,0.3c-0.15,0.06-0.31,0.1-0.47,0.12l-0.09,0.01l-0.04,0.45h4.31v-0.38
				l-0.07-0.03c-0.14-0.06-0.31-0.15-0.51-0.25c-0.19-0.1-0.38-0.3-0.57-0.6c-0.04-0.06-0.08-0.14-0.13-0.24
				c-0.05-0.11-0.1-0.22-0.15-0.33l-0.14-0.32c-0.05-0.1-0.09-0.19-0.12-0.26l-4.78-11.18l-0.03-0.07h-0.32l-5.23,11.63
				c-0.12,0.28-0.24,0.53-0.34,0.72c-0.1,0.19-0.21,0.35-0.32,0.46c-0.11,0.12-0.23,0.21-0.35,0.27c-0.12,0.06-0.27,0.11-0.44,0.13
				l-0.1,0.01v0.45h3.53V38.42z M114.64,32.84l1.88-4.16l1.77,4.16H114.64z"/>
			<path d="M132.73,27.59h0.43v-2.22H121.9v2.26h0.44l0.02-0.1c0.01-0.06,0.03-0.18,0.07-0.35c0.03-0.14,0.11-0.27,0.25-0.39
				c0.12-0.1,0.28-0.17,0.45-0.21c0.19-0.04,0.46-0.07,0.82-0.08h2.61v10.44c0,0.36-0.04,0.63-0.12,0.81
				c-0.08,0.18-0.19,0.32-0.33,0.42c-0.11,0.09-0.23,0.15-0.35,0.18c-0.14,0.03-0.23,0.05-0.27,0.07l-0.07,0.02l-0.04,0.43h4.33
				v-0.43l-0.09-0.02c-0.24-0.06-0.42-0.12-0.53-0.18c-0.11-0.06-0.21-0.14-0.3-0.23c-0.09-0.1-0.16-0.21-0.2-0.31
				c-0.04-0.11-0.07-0.23-0.08-0.36c-0.01-0.14-0.02-0.31-0.02-0.49V26.54h2.83c0.41,0,0.73,0.06,0.97,0.17
				c0.21,0.1,0.36,0.37,0.43,0.79L132.73,27.59z"/>
			<path d="M138.6,38.4h-0.12c-0.01,0-0.06,0-0.15-0.02c-0.07-0.02-0.15-0.05-0.25-0.09c-0.09-0.04-0.19-0.11-0.28-0.18
				c-0.09-0.07-0.16-0.17-0.21-0.28c-0.06-0.14-0.09-0.31-0.09-0.51c-0.01-0.22-0.01-0.51-0.01-0.87v-4.15h7.18v4.11
				c0,0.31,0,0.59-0.01,0.82c-0.01,0.22-0.02,0.4-0.04,0.49c-0.02,0.07-0.05,0.13-0.08,0.19c-0.04,0.07-0.06,0.09-0.07,0.12
				c-0.09,0.12-0.2,0.21-0.33,0.26c-0.14,0.06-0.29,0.1-0.45,0.12l-0.09,0.01l-0.04,0.44h4.16v-0.44l-0.09-0.02
				c-0.17-0.04-0.32-0.08-0.44-0.13c-0.12-0.05-0.23-0.14-0.34-0.26c-0.1-0.12-0.17-0.25-0.19-0.36c-0.03-0.13-0.05-0.28-0.06-0.45
				c-0.01-0.13-0.02-0.27-0.02-0.39v-9.05c0-0.16,0-0.38,0.01-0.66c0.01-0.27,0.03-0.48,0.08-0.61c0.04-0.13,0.11-0.24,0.19-0.32
				c0.09-0.09,0.19-0.16,0.28-0.21c0.09-0.05,0.18-0.08,0.26-0.1c0.1-0.02,0.17-0.04,0.21-0.05l0.08-0.03v-0.41h-4.11l0,0.44l0.12,0
				c0.02,0,0.07,0.01,0.16,0.03c0.09,0.02,0.18,0.05,0.28,0.09c0.1,0.04,0.19,0.1,0.28,0.18c0.09,0.08,0.15,0.17,0.19,0.29
				c0.05,0.13,0.07,0.29,0.07,0.5v4.25h-7.18v-3.47c0-0.33,0.01-0.6,0.03-0.83c0.02-0.22,0.06-0.38,0.12-0.5
				c0.04-0.1,0.11-0.19,0.19-0.25c0.09-0.07,0.18-0.12,0.27-0.15c0.09-0.03,0.17-0.06,0.25-0.08c0.09-0.02,0.15-0.04,0.19-0.05
				l0.08-0.03v-0.41h-4.13v0.41l0.08,0.03c0.04,0.01,0.11,0.03,0.21,0.05c0.09,0.02,0.18,0.05,0.27,0.08
				c0.09,0.04,0.18,0.1,0.26,0.18c0.08,0.08,0.15,0.18,0.21,0.31c0.06,0.16,0.09,0.33,0.1,0.49c0.01,0.18,0,0.44-0.01,0.79v8.74
				c0,0.3,0,0.57-0.01,0.8c-0.01,0.22-0.03,0.39-0.06,0.49c-0.04,0.13-0.11,0.24-0.2,0.33c-0.09,0.09-0.18,0.16-0.28,0.2
				c-0.1,0.05-0.19,0.08-0.28,0.11c-0.12,0.03-0.16,0.03-0.17,0.03h-0.12v0.46h4.13V38.4z"/>
			<path d="M162.85,36.96c0.41-0.45,0.73-0.92,0.97-1.39c0.24-0.47,0.41-0.91,0.53-1.33c0.11-0.42,0.19-0.8,0.21-1.15
				c0.03-0.35,0.04-0.63,0.04-0.85c0-0.66-0.07-1.27-0.2-1.81c-0.13-0.54-0.3-1.03-0.49-1.45c-0.19-0.42-0.4-0.78-0.62-1.09
				c-0.22-0.31-0.42-0.55-0.6-0.74c-0.18-0.19-0.42-0.41-0.72-0.67c-0.3-0.25-0.67-0.5-1.1-0.72c-0.43-0.22-0.93-0.41-1.48-0.56
				c-0.56-0.15-1.19-0.23-1.88-0.23c-0.8,0-1.53,0.1-2.16,0.3c-0.63,0.2-1.19,0.43-1.66,0.71c-0.47,0.27-0.88,0.57-1.2,0.88
				c-0.32,0.31-0.59,0.58-0.78,0.81c-0.14,0.18-0.3,0.4-0.48,0.68c-0.18,0.27-0.35,0.6-0.51,0.98c-0.16,0.37-0.3,0.81-0.4,1.29
				c-0.11,0.48-0.16,1.03-0.16,1.62c0,0.74,0.09,1.4,0.25,1.99c0.17,0.58,0.38,1.1,0.62,1.56c0.25,0.45,0.52,0.84,0.8,1.14
				c0.28,0.3,0.53,0.55,0.75,0.74c0.69,0.57,1.44,0.99,2.24,1.23c0.8,0.25,1.64,0.37,2.52,0.37c1.11,0,2.12-0.17,3.02-0.52
				C161.27,38.4,162.11,37.8,162.85,36.96z M157.52,38.12c-0.65,0-1.23-0.09-1.73-0.28c-0.5-0.19-0.93-0.42-1.29-0.68
				c-0.36-0.26-0.65-0.54-0.88-0.82c-0.23-0.29-0.41-0.53-0.53-0.73c-0.23-0.37-0.42-0.73-0.56-1.09c-0.14-0.36-0.24-0.69-0.3-1.01
				c-0.06-0.31-0.1-0.6-0.12-0.85c-0.02-0.26-0.03-0.47-0.03-0.64c0-0.65,0.07-1.24,0.2-1.75c0.13-0.51,0.29-0.96,0.49-1.35
				c0.19-0.38,0.41-0.71,0.65-0.98c0.24-0.27,0.47-0.49,0.68-0.66c0.3-0.24,0.62-0.44,0.95-0.59c0.32-0.15,0.63-0.26,0.93-0.33
				c0.29-0.07,0.55-0.12,0.78-0.14c0.25-0.02,0.43-0.03,0.56-0.03c0.53,0,1,0.06,1.41,0.18c0.41,0.12,0.78,0.27,1.09,0.44
				c0.31,0.17,0.58,0.35,0.79,0.55c0.22,0.2,0.39,0.38,0.53,0.53c0.16,0.21,0.34,0.47,0.53,0.78c0.19,0.3,0.36,0.67,0.52,1.1
				c0.15,0.42,0.27,0.91,0.34,1.44c0.07,0.53,0.09,1.13,0.04,1.77c-0.01,0.14-0.04,0.36-0.08,0.69c-0.04,0.31-0.13,0.66-0.27,1.05
				c-0.18,0.51-0.43,0.98-0.73,1.4c-0.3,0.41-0.66,0.78-1.06,1.07c-0.4,0.3-0.86,0.53-1.35,0.69
				C158.61,38.04,158.08,38.12,157.52,38.12z"/>
			<path d="M167.28,25.85c0.09,0.02,0.19,0.05,0.29,0.1c0.1,0.05,0.2,0.12,0.3,0.22c0.09,0.09,0.17,0.21,0.23,0.35
				c0.05,0.13,0.07,0.31,0.09,0.56c0.01,0.25,0.02,0.55,0.02,0.89v7.86c0,0.34,0,0.66-0.01,0.97c-0.01,0.38-0.02,0.54-0.03,0.6
				c-0.03,0.21-0.09,0.37-0.18,0.49c-0.09,0.12-0.18,0.22-0.28,0.29c-0.11,0.08-0.21,0.13-0.32,0.16c-0.11,0.04-0.21,0.06-0.28,0.07
				l-0.1,0.02v0.44h9.78v-2.32h-0.43l-0.02,0.08c-0.06,0.21-0.12,0.37-0.17,0.49c-0.05,0.11-0.11,0.2-0.18,0.27
				c-0.09,0.09-0.19,0.15-0.31,0.2c-0.13,0.05-0.27,0.08-0.4,0.1c-0.14,0.02-0.28,0.03-0.43,0.04c-0.14,0.01-0.28,0.01-0.4,0.01
				h-2.61l-0.75-0.03c-0.15-0.01-0.3-0.05-0.45-0.13c-0.22-0.12-0.35-0.29-0.39-0.52c-0.05-0.25-0.08-0.62-0.09-1.09l0-8.02
				c0.01-0.33,0.03-0.62,0.04-0.88c0.01-0.26,0.03-0.45,0.05-0.55c0.04-0.14,0.11-0.26,0.2-0.35c0.09-0.09,0.19-0.16,0.28-0.22
				c0.1-0.05,0.19-0.08,0.27-0.1c0.1-0.02,0.17-0.04,0.22-0.05l0.09-0.02v-0.41h-4.34v0.41l0.08,0.03
				C167.09,25.81,167.17,25.83,167.28,25.85z"/>
			<path d="M182.31,38.24c-0.14-0.05-0.27-0.15-0.38-0.28c-0.1-0.12-0.16-0.24-0.17-0.36c-0.02-0.17-0.03-0.25-0.03-0.31
				c-0.02-0.15-0.04-0.29-0.04-0.43v-9.09c0-0.31,0-0.58,0.01-0.8c0.01-0.21,0.02-0.37,0.06-0.48c0.04-0.15,0.11-0.26,0.18-0.34
				c0.08-0.08,0.16-0.15,0.26-0.19c0.1-0.05,0.19-0.08,0.27-0.09c0.09-0.02,0.16-0.04,0.21-0.05l0.09-0.02v-0.41h-4.19v0.41
				l0.09,0.02c0.05,0.01,0.13,0.03,0.23,0.05c0.09,0.02,0.19,0.05,0.29,0.1c0.1,0.04,0.2,0.11,0.3,0.2
				c0.09,0.09,0.17,0.21,0.22,0.37c0.05,0.14,0.07,0.3,0.08,0.47c0.01,0.19,0.01,0.44,0.01,0.77v8.6c-0.01,0.43-0.02,0.76-0.03,1.01
				c-0.01,0.22-0.07,0.41-0.18,0.56c-0.11,0.16-0.24,0.27-0.38,0.33c-0.16,0.07-0.33,0.12-0.51,0.15l-0.1,0.02v0.44h4.24v-0.43
				l-0.08-0.02C182.62,38.36,182.46,38.3,182.31,38.24z"/>
			<path d="M186.43,36.16c0.37,0.56,0.83,1.06,1.37,1.49c0.54,0.43,1.15,0.78,1.83,1.05c0.34,0.14,0.69,0.25,1.03,0.32
				c0.35,0.07,0.66,0.12,0.93,0.16c0.28,0.04,0.54,0.06,0.77,0.07c0.22,0.01,0.4,0.01,0.52,0.01c0.53,0,1.13-0.04,1.8-0.12
				c0.66-0.08,1.26-0.19,1.79-0.33c0.22-0.06,0.43-0.12,0.64-0.19c0.21-0.06,0.42-0.13,0.64-0.21l0.08-0.03l-0.08-2.32h-0.42
				l-0.03,0.08c-0.04,0.1-0.09,0.22-0.15,0.37c-0.06,0.14-0.17,0.31-0.33,0.49c-0.07,0.07-0.18,0.17-0.31,0.28
				c-0.12,0.11-0.29,0.21-0.49,0.3c-0.26,0.12-0.53,0.22-0.81,0.28c-0.28,0.07-0.56,0.12-0.81,0.16c-0.25,0.04-0.48,0.06-0.67,0.07
				c-0.19,0.01-0.33,0.01-0.4,0.01c-0.21,0-0.5-0.01-0.84-0.04c-0.34-0.02-0.72-0.1-1.13-0.22c-0.4-0.12-0.83-0.31-1.26-0.56
				c-0.43-0.25-0.85-0.6-1.26-1.04c-0.16-0.17-0.33-0.39-0.51-0.64c-0.18-0.25-0.34-0.56-0.5-0.91c-0.15-0.35-0.28-0.75-0.39-1.2
				c-0.11-0.45-0.16-0.96-0.16-1.52c0-0.6,0.06-1.15,0.19-1.62c0.13-0.48,0.29-0.9,0.47-1.25c0.19-0.35,0.39-0.66,0.6-0.91
				c0.22-0.25,0.42-0.46,0.6-0.62c0.41-0.34,0.83-0.61,1.26-0.81c0.43-0.2,0.85-0.34,1.23-0.43c0.39-0.09,0.75-0.14,1.06-0.16
				c0.33-0.02,0.57-0.03,0.74-0.03c0.49,0,1.03,0.05,1.59,0.16c0.55,0.1,1.03,0.31,1.43,0.62c0.25,0.2,0.44,0.41,0.56,0.62
				l0.32,0.57h0.41l0.08-2.42l-0.09-0.02c-0.51-0.15-0.98-0.27-1.4-0.36c-0.41-0.09-0.79-0.16-1.11-0.21
				c-0.34-0.05-0.64-0.08-0.92-0.09c-0.28-0.01-0.55-0.02-0.82-0.02c-0.25,0-0.59,0.01-1.05,0.04c-0.45,0.03-0.95,0.11-1.49,0.24
				c-0.55,0.13-1.13,0.35-1.74,0.64c-0.61,0.29-1.19,0.7-1.74,1.22c-0.5,0.47-0.9,0.96-1.18,1.45c-0.29,0.5-0.51,0.98-0.65,1.44
				c-0.15,0.46-0.24,0.9-0.28,1.29c-0.04,0.39-0.06,0.71-0.06,0.95c0,0.72,0.1,1.42,0.29,2.08
				C185.77,34.99,186.06,35.6,186.43,36.16z"/>
		</g>
	</g>
	<g>
		<polyline points="82.06,1.59 82.06,63.41 82.74,63.41 82.74,1.59 		"/>
	</g>
</g>
</svg>
