<?xml version="1.0" encoding="utf-8"?>
<!-- Generator: Adobe Illustrator 25.0.1, SVG Export Plug-In . SVG Version: 6.00 Build 0)  -->
<svg version="1.1" id="圖層_1" xmlns="http://www.w3.org/2000/svg" xmlns:xlink="http://www.w3.org/1999/xlink" x="0px" y="0px"
	 viewBox="0 0 72 72" style="enable-background:new 0 0 72 72;" xml:space="preserve">
<path id="_001-search" d="M70.64,64.76l-18.9-19.02c-0.98-0.91-2.27-1.39-3.6-1.36c3.78-4.93,5.84-10.98,5.85-17.21
	C54,12.16,41.91,0,27,0C12.09,0,0,12.16,0,27.17s12.09,27.17,27,27.17c6.27,0.04,12.35-2.21,17.1-6.34
	c-0.25,1.37,0.27,2.76,1.35,3.62l18.9,19.02c1.66,1.75,4.41,1.82,6.15,0.15c0.05-0.05,0.1-0.1,0.15-0.15
	c1.62-1.37,1.82-3.81,0.45-5.43C70.96,65.05,70.81,64.89,70.64,64.76z M27,47.55c-11.18,0-20.25-9.12-20.25-20.38
	C6.75,15.92,15.82,6.8,27,6.8c11.18,0,20.25,9.12,20.25,20.38c0.05,11.21-8.94,20.33-20.08,20.38C27.11,47.55,27.05,47.55,27,47.55z
	"/>
</svg>
