<?xml version="1.0" encoding="utf-8"?>
<!-- Generator: Adobe Illustrator 25.0.1, SVG Export Plug-In . SVG Version: 6.00 Build 0)  -->
<svg version="1.1" id="圖層_1" xmlns="http://www.w3.org/2000/svg" xmlns:xlink="http://www.w3.org/1999/xlink" x="0px" y="0px"
	 viewBox="0 0 72 72" style="enable-background:new 0 0 72 72;" xml:space="preserve">
<path d="M36,0C16.12,0,0,16.12,0,36s16.12,36,36,36c19.88,0,36-16.12,36-36S55.88,0,36,0z M55.27,41.05c0,4.77-3.87,8.64-8.64,8.64
	H24.52c0,0,0,0,0,0c-4.77,0-8.64-3.87-8.64-8.64V30.77l0,0.01c0,0,0,0,0,0c0-4.77,3.87-8.64,8.64-8.64h22.1c0,0,0,0,0,0
	c4.77,0,8.64,3.87,8.64,8.64V41.05z"/>
<path d="M41.86,35.66l-9.49-5.16c-0.39-0.21-1.72,0.06-1.72,0.51v10.07c0,0.34,0.78,0.58,1.32,0.58c0.14,0.01,0.27-0.02,0.39-0.07
	l9.91-4.9C42.68,36.46,42.26,35.89,41.86,35.66z"/>
</svg>
