<svg xmlns="http://www.w3.org/2000/svg" viewBox="0 0 116 106" style="enable-background:new 0 0 116 106" xml:space="preserve"><path style="fill:#346c93" d="M28.42 18.22c-.44-.14-.88-.31-1.27-.53-.06-.03-.11-.06-.16-.09l-10.7 10.7c.04.61.13 1.21.26 1.79l11.87-11.87zm5.26.89L18.5 34.29c.29.39.6.76.94 1.1L34.53 20.3c-.18-.46-.47-.87-.85-1.19zm-1.41-.64c-.15-.02-.3-.04-.46-.04-.14 0-.27.01-.4.03-.31.04-.63.06-.95.06-.1 0-.19 0-.29-.01L17.02 31.66c.19.48.41.95.66 1.39l14.59-14.58zm-16.02 7.81 9.36-9.36c-.04-.01-.09-.01-.13-.01-.31 0-.59.1-.82.26-.06.05-.12.09-.18.13-.07.04-.14.09-.21.14-.14.09-.29.18-.44.25-.52.28-1.08.49-1.67.63l-5.91 5.9v2.06zm18.47-2.06v-2.05L20.53 36.36c.39.3.79.58 1.22.83l12.97-12.97zm-.04 4.14c.01-.24.03-.48.03-.72 0-.21 0-.42-.02-.62h.02v-.73l-11.6 11.59c.5.2 1.02.37 1.55.5l10.02-10.02zm-14.74-9.87c-.12-.01-.25-.02-.37-.04a2.9 2.9 0 0 0-3.3 2.76h-.01v.96l3.68-3.68zm14.29 12.38-7.35 7.36c3.51-1.08 6.27-3.85 7.35-7.36zm26.7-12.65a7.09 7.09 0 0 1-1.27-.53c-.05-.03-.11-.06-.16-.09L48.8 28.3c.04.61.12 1.21.26 1.79l11.87-11.87zm5.26.89L51.01 34.29c.29.39.6.76.95 1.1L67.05 20.3a2.99 2.99 0 0 0-.86-1.19zm-1.4-.64c-.15-.02-.3-.04-.46-.04-.14 0-.27.01-.4.03-.31.04-.63.06-.95.06-.1 0-.19 0-.29-.01L49.53 31.66c.19.48.41.95.66 1.39l14.6-14.58zm-16.02 7.81 9.36-9.36c-.04-.01-.08-.01-.13-.01-.31 0-.59.1-.82.26-.06.05-.12.09-.18.13-.07.04-.14.09-.21.14-.15.09-.29.18-.44.25-.52.28-1.08.49-1.67.63l-5.9 5.9v2.06zm18.46-2.06v-2.05L53.04 36.36c.39.3.79.58 1.22.83l12.97-12.97zm-.03 4.14c.01-.24.03-.48.03-.72 0-.21 0-.42-.02-.62h.02v-.73L55.64 37.87c.5.2 1.01.37 1.55.5L67.2 28.36zm-14.75-9.87c-.12-.01-.25-.02-.38-.04s-.27-.03-.4-.03c-1.56 0-2.84 1.24-2.9 2.79h-.01v.96l3.69-3.68zm14.29 12.38-7.35 7.36c3.51-1.08 6.28-3.85 7.35-7.36zM77.19 1.31c-.44-.14-.88-.31-1.28-.53-.06-.03-.11-.06-.16-.09l-10.7 10.7c.04.61.12 1.21.26 1.79L77.19 1.31zm5.26.89L67.26 17.39c.29.39.61.76.94 1.11L83.3 3.4c-.18-.47-.47-.88-.85-1.2zm-1.41-.64c-.15-.02-.3-.04-.45-.04-.14 0-.27.01-.4.03-.31.04-.63.06-.95.06-.1 0-.19 0-.29-.01L65.79 14.76c.19.48.41.95.66 1.39L81.04 1.56zM65.03 9.37 74.39.01C74.34 0 74.3 0 74.26 0c-.3 0-.59.1-.82.26-.06.05-.12.09-.18.13-.07.04-.14.09-.21.14-.15.09-.3.17-.45.25-.52.28-1.08.49-1.67.63l-5.9 5.9v2.06zm18.46-2.05V5.27L69.3 19.45c.38.31.79.58 1.22.83L83.49 7.32zm-.03 4.13c.02-.24.03-.48.03-.72 0-.21 0-.42-.01-.62h.01v-.74L71.9 20.97c.5.2 1.02.37 1.55.5l10.01-10.02zM68.71 1.59c-.13-.01-.25-.02-.38-.04s-.27-.03-.4-.03c-1.56 0-2.84 1.24-2.9 2.79v.96l3.68-3.68zM83 13.96l-7.35 7.36c3.51-1.08 6.27-3.85 7.35-7.36zm10.44 4.26c-.44-.14-.87-.31-1.28-.53-.06-.03-.11-.06-.16-.09L81.3 28.3c.04.61.13 1.21.26 1.79l11.88-11.87zm5.27.89L83.52 34.29c.29.39.6.76.94 1.1L99.55 20.3c-.17-.46-.47-.87-.84-1.19zm-1.41-.64c-.15-.02-.3-.04-.46-.04-.14 0-.27.01-.4.03-.31.04-.63.06-.95.06-.09 0-.19 0-.29-.01L82.05 31.66c.19.48.41.95.66 1.39L97.3 18.47zm-16.02 7.81 9.36-9.36c-.04-.01-.09-.01-.13-.01-.31 0-.59.1-.82.26-.06.05-.12.09-.18.13-.07.04-.14.09-.21.14-.14.09-.29.18-.44.25-.52.28-1.08.49-1.68.63l-5.9 5.9v2.06zm18.46-2.06v-2.05L85.56 36.36c.39.3.79.58 1.22.83l12.96-12.97zm-.03 4.14c.01-.24.03-.48.03-.72 0-.21 0-.42-.02-.62h.02v-.73L88.15 37.87c.5.2 1.02.37 1.55.5l10.01-10.01zm-14.75-9.87c-.13-.01-.25-.02-.38-.04s-.26-.03-.4-.03c-1.56 0-2.84 1.24-2.9 2.79v.96l3.68-3.68zm14.29 12.38-7.35 7.36c3.51-1.08 6.28-3.85 7.35-7.36zm-87.09 4.25c-.44-.14-.88-.31-1.27-.53-.06-.03-.11-.06-.16-.09L.03 45.2c.04.61.13 1.21.26 1.79l11.87-11.87zm5.26.89L2.24 51.2c.29.39.61.76.94 1.1l15.09-15.09a2.97 2.97 0 0 0-.85-1.2zm-1.41-.64c-.15-.02-.3-.04-.45-.04-.14 0-.27.01-.4.03-.31.04-.63.06-.95.06-.09 0-.19-.01-.29-.01L.77 48.57c.19.48.41.95.66 1.39l14.58-14.59zM0 43.18l9.36-9.36c-.04-.01-.08-.01-.12-.01-.31 0-.59.1-.82.26-.06.05-.12.09-.18.13-.07.05-.14.09-.21.14-.15.09-.29.18-.44.25-.52.28-1.08.49-1.67.63L0 41.13v2.05zm18.46-2.05v-2.05L4.28 53.27c.38.31.79.58 1.22.83l12.96-12.97zm-.03 4.14c.02-.24.03-.48.03-.73 0-.21 0-.42-.01-.62h.01v-.73L6.87 54.78c.5.2 1.02.37 1.55.5l10.01-10.01zM3.68 35.4c-.12-.01-.25-.02-.37-.04a2.891 2.891 0 0 0-3.3 2.76v.96l3.67-3.68zm14.29 12.37-7.35 7.36c3.51-1.07 6.28-3.84 7.35-7.36zm10.45 4.26c-.44-.13-.88-.31-1.27-.53-.06-.03-.11-.06-.16-.09l-10.7 10.7c.04.61.13 1.21.26 1.79l11.87-11.87zm5.26.89L18.5 68.11c.29.39.6.76.94 1.1l15.09-15.09c-.18-.47-.47-.88-.85-1.2zm-1.41-.64c-.15-.02-.3-.04-.46-.04-.14 0-.27.01-.4.03-.31.04-.63.06-.95.06-.1 0-.19 0-.29-.01L17.02 65.48c.19.48.41.95.66 1.39l14.59-14.59zm-16.02 7.81 9.36-9.36c-.04 0-.09-.01-.13-.01-.31 0-.59.1-.82.26-.06.05-.12.09-.18.13-.07.04-.14.09-.21.14-.14.09-.29.17-.44.25-.52.28-1.08.49-1.67.63l-5.91 5.9v2.06zm18.47-2.05v-2.05L20.53 70.17c.39.3.79.58 1.22.83l12.97-12.96zm-.04 4.13c.01-.24.03-.48.03-.73 0-.21 0-.41-.02-.62h.02v-.73l-11.6 11.59c.5.2 1.02.37 1.55.5l10.02-10.01zm-14.74-9.86c-.12-.01-.25-.02-.37-.04a2.9 2.9 0 0 0-3.3 2.76h-.01v.96l3.68-3.68zm14.29 12.37-7.35 7.36c3.51-1.07 6.27-3.84 7.35-7.36zm10.45-29.56c-.44-.14-.88-.31-1.28-.53-.06-.03-.1-.06-.16-.09l-10.7 10.7c.04.61.12 1.21.26 1.79l11.88-11.87zm5.26.89L34.75 51.2c.29.39.6.76.94 1.1l15.09-15.09c-.17-.46-.47-.87-.84-1.2zm-1.41-.64c-.15-.02-.3-.04-.46-.04-.14 0-.27.01-.4.03-.31.04-.62.06-.95.06-.09 0-.19-.01-.29-.01L33.28 48.57c.19.48.41.95.66 1.39l14.59-14.59zm-16.01 7.81 9.36-9.36c-.04-.01-.09-.01-.13-.01-.31 0-.59.1-.82.26-.06.05-.12.09-.18.13-.07.05-.14.09-.21.14-.14.09-.29.18-.44.25-.52.28-1.08.49-1.67.63l-5.9 5.9v2.06zm18.45-2.05v-2.05L36.79 53.27c.39.31.8.58 1.22.83l12.96-12.97zm-.03 4.14c.01-.24.03-.48.03-.73 0-.21-.01-.42-.02-.62h.02v-.73l-11.59 11.6c.5.2 1.02.37 1.55.5l10.01-10.02zM36.19 35.4c-.12-.01-.25-.02-.37-.04-.13-.02-.27-.03-.4-.03-1.56 0-2.84 1.24-2.9 2.79v.96l3.67-3.68zm14.3 12.37-7.36 7.36c3.52-1.07 6.28-3.84 7.36-7.36zm26.7-12.65a7.09 7.09 0 0 1-1.27-.53c-.06-.03-.11-.06-.16-.09l-10.7 10.7c.04.61.12 1.21.26 1.79l11.87-11.87zm5.26.89L67.26 51.2c.29.39.61.76.94 1.1l15.1-15.08c-.18-.47-.47-.88-.85-1.21zm-1.41-.64c-.15-.02-.3-.04-.45-.04-.14 0-.27.01-.4.03-.31.04-.63.06-.95.06-.1 0-.19-.01-.29-.01L65.79 48.57c.19.48.41.95.66 1.39l14.59-14.59zm-16.01 7.81 9.36-9.36c-.05-.01-.08-.01-.13-.01-.3 0-.59.1-.82.26-.06.05-.12.09-.18.13-.07.05-.14.09-.21.14-.14.09-.29.18-.44.25-.52.28-1.08.49-1.67.63l-5.9 5.9v2.06zm18.46-2.05v-2.05L69.3 53.27c.38.31.79.58 1.22.83l12.97-12.97zm-.03 4.14c.02-.24.03-.48.03-.73 0-.21 0-.42-.01-.62h.01v-.73L71.9 54.79c.5.2 1.02.37 1.55.5l10.01-10.02zM68.71 35.4c-.13-.01-.25-.02-.38-.04s-.27-.03-.4-.03c-1.56 0-2.84 1.24-2.9 2.79v.96l3.68-3.68zM83 47.77l-7.35 7.36c3.51-1.07 6.27-3.84 7.35-7.36zm10.44 4.26c-.44-.13-.87-.31-1.28-.53-.06-.03-.11-.06-.16-.09l-10.7 10.7c.04.61.13 1.21.26 1.79l11.88-11.87zm5.27.89L83.52 68.11c.29.39.6.76.94 1.1l15.09-15.09a2.91 2.91 0 0 0-.84-1.2zm-1.41-.64c-.15-.02-.3-.04-.46-.04-.14 0-.27.01-.4.03-.31.04-.63.06-.95.06-.09 0-.19 0-.29-.01L82.05 65.48c.19.48.41.95.66 1.39L97.3 52.28zm-16.02 7.81 9.36-9.36c-.04 0-.09-.01-.13-.01-.31 0-.59.1-.82.26-.06.05-.12.09-.18.13-.07.04-.14.09-.21.14-.14.09-.29.17-.44.25-.52.28-1.08.49-1.68.63l-5.9 5.9v2.06zm18.46-2.05v-2.05L85.56 70.17c.39.3.79.58 1.22.83l12.96-12.96zm-.03 4.13c.01-.24.03-.48.03-.73 0-.21 0-.41-.02-.62h.02v-.73l-11.59 11.6c.5.2 1.02.37 1.55.5l10.01-10.02zm-14.75-9.86c-.13-.01-.25-.02-.38-.04s-.26-.03-.4-.03c-1.56 0-2.84 1.24-2.9 2.79v.96l3.68-3.68zm14.29 12.37-7.35 7.36c3.51-1.07 6.28-3.84 7.35-7.36zm-22.06 4.25a6.43 6.43 0 0 1-1.27-.53c-.06-.03-.11-.06-.16-.09l-10.7 10.7c.04.61.12 1.21.26 1.79l11.87-11.87zm5.26.9L67.26 85.01c.29.39.61.76.94 1.11l15.1-15.09c-.18-.47-.47-.88-.85-1.2zm-1.41-.65c-.15-.02-.3-.04-.45-.04-.14 0-.27.01-.4.03-.31.04-.63.06-.95.06-.1 0-.19 0-.29-.01L65.79 82.38c.19.48.41.95.66 1.39l14.59-14.59zM65.03 77l9.36-9.36c-.05 0-.08-.01-.13-.01-.3 0-.59.09-.82.26-.06.05-.12.09-.18.13-.07.05-.14.09-.21.14-.14.09-.29.18-.44.26-.52.28-1.08.49-1.67.63l-5.9 5.9V77zm18.46-2.06v-2.05L69.3 87.08c.38.3.79.58 1.22.83l12.97-12.97zm-.03 4.13c.02-.24.03-.48.03-.72 0-.21 0-.41-.01-.62h.01V77l-11.6 11.59c.5.2 1.02.37 1.55.5l10.02-10.02zm-14.75-9.86c-.13-.01-.25-.02-.38-.04s-.27-.03-.4-.03c-1.56 0-2.84 1.24-2.9 2.79v.96l3.68-3.68zM83 81.59l-7.35 7.35c3.51-1.07 6.27-3.84 7.35-7.35zm10.44 4.25c-.44-.13-.87-.31-1.28-.53-.06-.03-.11-.06-.16-.09l-10.7 10.7c.04.61.13 1.21.26 1.79l11.88-11.87zm5.27.89-15.19 15.19c.29.39.6.76.94 1.11l15.09-15.09c-.17-.48-.47-.89-.84-1.21zm-1.41-.64c-.15-.03-.3-.04-.46-.04-.14 0-.27.01-.4.03-.31.04-.63.06-.95.06-.09 0-.19 0-.29-.01L82.05 99.29c.19.48.41.95.66 1.39L97.3 86.09zM81.28 93.9l9.36-9.36c-.04 0-.09-.01-.13-.01-.31 0-.59.09-.82.26-.06.05-.12.09-.18.13-.07.05-.14.09-.21.14-.14.09-.29.18-.44.25-.52.28-1.08.49-1.68.63l-5.9 5.9v2.06zm18.46-2.05V89.8l-14.18 14.18c.39.31.79.58 1.22.83l12.96-12.96zm-.03 4.13c.01-.24.03-.48.03-.72 0-.21 0-.42-.02-.62h.02v-.74l-11.59 11.6c.5.2 1.02.37 1.55.5l10.01-10.02zm-14.75-9.86c-.13-.01-.25-.02-.38-.04s-.26-.03-.4-.03c-1.56 0-2.84 1.24-2.9 2.79v.96l3.68-3.68zm14.29 12.37-7.35 7.35c3.51-1.06 6.28-3.83 7.35-7.35zm10.45-29.56c-.44-.13-.87-.31-1.28-.53-.06-.03-.11-.06-.16-.09l-10.7 10.7c.03.61.12 1.21.26 1.79l11.88-11.87zm5.26.9L99.78 85.01c.29.39.6.76.94 1.11l15.09-15.09c-.18-.47-.47-.88-.85-1.2zm-1.4-.65c-.15-.02-.3-.04-.46-.04-.14 0-.27.01-.4.03-.31.04-.63.06-.95.06-.09 0-.19 0-.29-.01L98.3 82.38c.19.48.41.95.66 1.39l14.6-14.59zM97.54 77l9.36-9.36c-.04 0-.08-.01-.12-.01-.31 0-.59.09-.82.26-.06.05-.12.09-.19.13-.06.05-.14.09-.2.14-.15.09-.29.18-.44.26-.52.28-1.08.49-1.67.63l-5.9 5.9V77zM116 74.94v-2.05l-14.18 14.18c.39.3.79.58 1.22.83L116 74.94zm-.03 4.13c.02-.24.03-.48.03-.72 0-.21-.01-.41-.02-.62h.02V77l-11.59 11.59c.5.2 1.02.37 1.55.5l10.01-10.02zm-14.75-9.86c-.13-.01-.25-.02-.38-.04s-.27-.03-.41-.03c-1.56 0-2.84 1.24-2.9 2.79v.96l3.69-3.68zm14.29 12.38-7.36 7.35c3.52-1.07 6.29-3.84 7.36-7.35z"/></svg>