<svg version="1.1" id="圖層_1" xmlns="http://www.w3.org/2000/svg" x="0" y="0" width="72" height="72" viewBox="0 0 72 72" style="enable-background:new 0 0 72 72" xml:space="preserve"><style>.st0,.st1{fill:#00517e}.st1{fill-rule:evenodd;clip-rule:evenodd}</style><path class="st0" d="M39.68 4.02V2.25c-.8-.09-1.69-.13-2.68-.16h-.06V.1h-1.96v1.99h-.06c-1.01.03-1.88.09-2.7.16v1.76c.8-.09 1.69-.15 2.7-.16H35v5.66h1.96V3.85h.07c.98.03 1.85.09 2.65.17z"/><path class="st1" d="M17.87 8.1c.06.01.13.01.19.01 1.78-.28 4.56-2.12 5.69-3.57.01-.03.04-.06.04-.09a.224.224 0 0 0-.18-.28c-2.44 0-5.33 1.53-6.16 3.08-.01.04-.03.07-.04.12-.07.33.14.66.46.73zM6.85 18.74c.07 0 .15-.01.21-.03 0 0 .01 0 .01-.01a.76.76 0 0 0 .19-.12c1.66-2.19 2.19-4.79 2.36-7.39 0-.13-.1-.24-.24-.24h-.04c-.06.01-.1.03-.13.07-.31.34-.68.71-.93 1.04-1.27 1.57-2.13 3.3-2.13 5.38 0 .3.03.58.1.86.08.25.32.44.6.44zM2.23 35.35c.1.06.22.12.36.12.07 0 .15-.01.22-.04h.01c.12-.04.21-.12.28-.21.06-.09.1-.19.12-.3.28-2.36-.93-7.05-2.25-8.37a.227.227 0 0 0-.16-.06H.77c-.06.01-.1.03-.13.07-.01.03-.03.04-.04.07-.59 2.47-.59 4.89.49 7.24.25.59.65 1.08 1.14 1.48zm12.02-19.81c.01-.03.01-.06.01-.07v-.01c0-.13-.09-.22-.21-.25-2.58-.04-5.39 2.01-6.09 3.88-.01.06-.03.12-.03.18s0 .12.01.16c.07.28.33.49.64.49.04 0 .09-.01.13-.03 1.88-.48 4.63-2.6 5.54-4.35zm-2.73-3.78c.07.03.13.03.21.03h.01c.07 0 .15-.03.21-.06 2.13-1.5 3.36-3.67 4.27-5.98a.23.23 0 0 0-.15-.28c-.01 0-.03-.01-.04-.01-.04 0-.1 0-.13.03-.39.21-.81.44-1.16.65-1.6 1.04-2.89 2.36-3.48 4.22-.07.27-.13.53-.15.81-.01.28.16.52.41.59zm7.47-1.97c.01-.01.01-.04.03-.07V9.7a.23.23 0 0 0-.18-.25c-2.43-.27-5.26 1.44-6.07 3.14-.01.06-.04.1-.04.16s0 .1.01.16c.04.27.27.49.55.5.04 0 .09 0 .13-.01 1.77-.27 4.56-2.04 5.57-3.61zM5.64 27.75c.07 0 .13-.01.19-.04 1.87-.86 3.87-3.7 4.62-5.72 0-.01.01-.04.01-.06v-.07c-.03-.1-.12-.16-.22-.18-2.09.06-4.92 3.05-5.27 5.38v.06c0 .06.01.1.03.16.01.04.04.09.06.15.1.2.33.32.58.32zm-2.61-1.29c.13.18.33.28.56.27.07 0 .15-.01.22-.04.01 0 .01 0 .01-.01.12-.04.21-.13.28-.22.01-.01.01-.03.03-.06.93-1.96 1.17-5.87.43-8.09-.03-.1-.13-.19-.25-.18h-.04c-.06.01-.1.04-.15.09-.01.01-.01.03-.03.03-.24.41-.46.79-.65 1.19-.89 1.85-1.35 3.79-.89 5.85.11.4.27.8.48 1.17zm1.2 8.75a.665.665 0 0 0 .62.46c.07 0 .15-.01.22-.04h.01c.06-.03.12-.06.18-.1 1.66-1.36 2.98-4.93 3.14-6.81a.34.34 0 0 0-.07-.18.248.248 0 0 0-.18-.07c-2.32.69-4.36 4.32-3.92 6.74zm-1.55 8.32c.21.22.46.4.73.53a.745.745 0 0 0 .56.03c.12-.04.22-.1.3-.21.04-.04.07-.09.1-.13.03-.06.04-.1.07-.16.01-.06.03-.12.03-.19-.25-2.52-2.4-6.24-3.97-7.75a.236.236 0 0 0-.16-.07H.28c-.01 0-.03 0-.04.01-.09.01-.15.07-.19.15-.01.01-.01.04-.03.06-.07 2.1.33 4.04 1.26 5.87.31.67.86 1.29 1.4 1.86zm16.57 20.22c.1-.04.19-.1.27-.19.04-.04.07-.1.1-.15.07-.12.1-.27.1-.4 0-.22-.09-.43-.24-.56-.03-.03-.06-.06-.1-.09-2.24-1.54-6.43-2.44-8.77-2.21a.36.36 0 0 0-.21.15c-.01.03-.04.07-.04.1-.01.03-.01.07-.01.12 0 .03.01.06.01.1 0 .01.01.04.03.06l.04.04c1.32 1.27 2.84 2.22 4.56 2.84 1.11.4 2.25.62 3.44.43.29-.08.56-.15.82-.24zM7.15 51.94c.07 0 .15-.01.22-.04.12-.04.22-.1.3-.21.04-.04.07-.09.1-.13.03-.06.04-.1.07-.16.01-.06.03-.13.03-.19v-.07c0-.06-.03-.12-.04-.16-1.38-2.77-3.63-4.58-6.21-6.15-.03-.01-.06-.03-.09-.03h-.06c-.01 0-.03 0-.04.01a.23.23 0 0 0-.19.15c-.01.01-.01.04-.03.07v.07c.7 2.5 1.96 4.64 4.13 6.16.52.37 1.13.59 1.81.68zM5.7 43.67c.04.04.09.09.15.13.03.01.04.03.07.04.1.06.22.09.36.09.09 0 .18-.01.25-.04.12-.04.22-.1.3-.21l.01-.01c1.27-1.7 1.67-5.42 1.38-7.63a.22.22 0 0 0-.04-.13c-.01-.03-.03-.04-.06-.06a.248.248 0 0 0-.18-.07h-.06c-.01 0-.03 0-.04.01-.03.01-.06.03-.07.04-2.4 2.01-2.99 5.75-2.13 7.7 0 .07.03.11.06.14zm6.4 14.55c.04-.01.07-.01.12-.03.12-.04.22-.12.3-.21.04-.04.07-.09.1-.13.03-.06.04-.1.06-.16.01-.06.03-.13.03-.19v-.07c0-.09-.03-.16-.06-.24-.01-.04-.06-.09-.07-.12-1.73-1.91-5.69-4.01-7.87-4.13h-.07c-.09.03-.15.07-.19.15-.01.03-.01.04-.03.07v.1c0 .03.01.04.01.07 0 .01.01.03.01.04 1.17 2.16 4.37 4.87 6.9 4.92.24-.02.49-.04.76-.07zM8.94 51.2c.01.04.04.07.07.1.04.06.09.1.15.13.03.01.04.03.07.04.07.04.15.06.24.07.04 0 .07.01.12.01.09 0 .18-.01.25-.04.12-.04.22-.12.3-.21.04-.04.07-.09.1-.13 0-.01.01-.03.01-.04.16-.4.3-.81.37-1.23.31-1.66.1-3.32-.24-4.96-.07-.39-.18-.77-.3-1.19 0-.03-.01-.06-.03-.07-.01-.03-.03-.04-.06-.07-.01-.01-.03-.03-.04-.03a.175.175 0 0 0-.12-.04h-.06c-.02 0-.03 0-.04.01-.06.01-.12.06-.16.1-.01.03-.03.04-.04.06-1.24 1.73-1.73 3.67-1.29 5.75.12.6.39 1.18.7 1.74zm5.26 6.31c.01.01.03.01.04.03.07.04.15.07.24.07.03 0 .07.01.12.01h.07c.06-.01.12-.01.18-.04.12-.04.22-.12.3-.21.04-.04.07-.09.1-.13.01-.04.04-.09.04-.13.43-2.03-.67-5.44-1.94-7.44l-.04-.04c-.01-.01-.03-.03-.04-.03-.04-.03-.07-.03-.12-.04h-.05c-.01 0-.03 0-.04.01-.07.01-.13.07-.18.13-1.26 2.23-.81 5.93 1.32 7.81zm6.27 4.53c.12.06.24.09.37.09h.06c.07 0 .15-.03.22-.04.13-.04.25-.12.34-.22.04-.04.07-.1.12-.16.06-.12.1-.27.1-.4-.25-2.71-1.84-4.77-3.54-6.86-.03-.03-.06-.06-.1-.09-.04-.01-.07-.03-.12-.04h-.06c-.01 0-.04 0-.06.01-.09.01-.16.07-.21.15-.01.03-.03.06-.04.09-.77 2.44.83 6.23 2.92 7.47zm6.8 3.69c-.06-.04-.13-.07-.19-.1-2.55-.87-6.78-.62-8.99.22-.06.03-.12.06-.16.12-.01.03-.04.07-.04.1 0 .01 0 .03-.01.04v.07c0 .03.01.07.01.09.01.01.01.04.03.06.01.03.03.04.04.06.01.01.04.03.06.04 1.61.87 3.33 1.38 5.16 1.51 1.19.09 2.34 0 3.42-.52.25-.12.49-.25.71-.41.03-.03.06-.04.09-.07.04-.04.07-.1.1-.15a.825.825 0 0 0-.23-1.06z"/><path class="st1" d="M43.71 65.33c2.53-.22 5.32-4.31 4.92-7.16v-.01c-.01-.04-.03-.07-.04-.12a.371.371 0 0 0-.21-.15c-.01 0-.04 0-.06-.01h-.07c-.04 0-.09.01-.12.04-.03.01-.04.03-.06.04-2.13 1.91-4.15 3.82-4.68 6.76-1.61.41-4.52 1.21-7.39 2.25-2.87-1.04-5.78-1.84-7.39-2.25-.53-2.93-2.55-4.84-4.68-6.76a.311.311 0 0 0-.06-.04c-.04-.01-.07-.03-.12-.04h-.06c-.01 0-.04 0-.06.01-.09.01-.16.07-.21.15-.01.03-.04.07-.04.12v.01c-.4 2.84 2.39 6.93 4.92 7.16 1.75.37 4.09 1.17 6.41 2.15-2.52.98-4.83 2.13-6.06 3.35l.92 1.07c1.13-1.11 3.67-2.56 6.46-3.84 2.79 1.27 5.33 2.73 6.46 3.84l.9-1.07c-1.23-1.21-3.54-2.37-6.06-3.35 2.28-.99 4.62-1.79 6.38-2.15zm4.5-60.77c1.13 1.44 3.9 3.27 5.67 3.57.06 0 .13 0 .19-.01.33-.07.53-.41.46-.74-.01-.04-.03-.07-.04-.12-.81-1.56-3.72-3.08-6.15-3.08-.13.03-.21.16-.18.28.01.04.04.07.05.1zM64.87 18.7s.01 0 .01.01c.06.03.13.03.21.03.28 0 .52-.19.61-.44.07-.28.1-.58.1-.86 0-2.07-.86-3.81-2.13-5.38-.27-.33-.62-.7-.93-1.04a.233.233 0 0 0-.13-.07h-.04c-.13 0-.24.1-.24.24.16 2.61.7 5.2 2.36 7.39.04.04.1.09.18.12zm3.86 16.2c.01.12.06.21.12.3.07.09.16.16.28.21h.01c.07.03.13.04.22.04a.6.6 0 0 0 .36-.12c.5-.4.89-.9 1.16-1.48 1.08-2.36 1.08-4.77.49-7.24a.215.215 0 0 0-.04-.07.415.415 0 0 0-.13-.07h-.04c-.07 0-.12.03-.16.06-1.33 1.32-2.55 6.02-2.27 8.37zm-5.36-14.97c.31 0 .56-.21.64-.49.01-.06.01-.1.01-.16s-.01-.12-.03-.18c-.7-1.88-3.51-3.94-6.09-3.88-.12.03-.21.12-.21.25v.01c0 .03.01.06.01.07.92 1.75 3.66 3.87 5.51 4.36.06.02.11.02.16.02zm-3.36-8.2c.06.03.13.06.21.06h.01c.06 0 .13 0 .21-.03.25-.09.41-.33.41-.58-.01-.28-.07-.55-.16-.81-.59-1.87-1.88-3.19-3.48-4.22a11.3 11.3 0 0 0-1.14-.65c-.04-.03-.09-.03-.15-.03-.01 0-.03 0-.04.01-.12.03-.18.16-.15.28.91 2.3 2.14 4.49 4.28 5.97zm-1.32 1.71c.28-.03.5-.25.55-.5.01-.06.01-.1.01-.16s-.01-.12-.04-.16c-.81-1.7-3.64-3.41-6.07-3.14-.1.03-.18.13-.18.25v.01c0 .03.01.04.03.07 1.01 1.57 3.79 3.33 5.57 3.64.04-.01.08 0 .13-.01zm2.83 8.41c0 .01-.01.04-.01.06v.01c0 .03 0 .04.01.06.74 2 2.76 4.84 4.61 5.72.06.03.13.04.19.04.25.01.46-.12.58-.31.03-.04.04-.09.06-.15.01-.06.03-.1.03-.16v-.06c-.36-2.33-3.17-5.33-5.27-5.38-.1.01-.17.07-.2.17zm6.32 4.59c.07.1.16.18.28.22.01 0 .01 0 .01.01.07.03.15.04.22.04.24.01.43-.1.56-.27.22-.36.37-.76.46-1.19.44-2.06 0-4-.89-5.85-.19-.39-.41-.76-.65-1.19 0-.01-.01-.03-.01-.03a.377.377 0 0 0-.15-.09h-.04a.25.25 0 0 0-.25.18c-.74 2.21-.5 6.12.43 8.09.02.04.03.07.03.08zm-.94 9.19a.643.643 0 0 0 .63-.11c.1-.07.16-.18.21-.31.44-2.41-1.6-6.06-3.93-6.76-.07 0-.13.03-.18.07-.04.04-.07.1-.07.18.16 1.9 1.48 5.45 3.14 6.81.04.04.1.07.16.1.02.02.04.02.04.02zm4.81-.07h-.06c-.06 0-.12.03-.16.07-1.59 1.51-3.73 5.23-3.97 7.75 0 .07 0 .13.03.19.01.06.04.12.06.16.03.06.06.1.1.13.07.09.18.16.3.21.07.03.16.04.25.04.12 0 .21-.03.31-.07.27-.13.52-.31.73-.53.55-.56 1.08-1.19 1.44-1.87.93-1.82 1.33-3.76 1.26-5.87-.01-.03-.01-.04-.03-.06a.291.291 0 0 0-.19-.15c-.04.01-.06.01-.07 0zM61.55 60.27a.371.371 0 0 0-.21-.15c-2.34-.22-6.55.67-8.77 2.21-.04.03-.07.06-.1.09-.13.15-.22.34-.24.56a.877.877 0 0 0 .2.55c.07.09.16.15.27.19.25.09.52.16.8.21 1.19.21 2.33-.01 3.44-.43 1.73-.62 3.24-1.56 4.56-2.84l.04-.04c.01-.01.01-.03.03-.06.01-.03.01-.06.01-.1s0-.07-.01-.12c.02 0 .01-.04-.02-.07zm9.23-15.28c-.01-.03-.01-.04-.03-.07a.291.291 0 0 0-.19-.15c-.01 0-.03-.01-.04-.01h-.06c-.03 0-.06.01-.09.03-2.56 1.57-4.81 3.36-6.21 6.15-.01.06-.04.1-.04.16v.07c0 .06 0 .13.03.19.01.06.04.12.07.16.03.04.06.1.1.13.07.09.18.16.3.21.07.03.13.03.21.04.68-.07 1.3-.3 1.85-.68 2.18-1.53 3.44-3.66 4.13-6.16v-.04c-.03 0-.03-.01-.03-.03zm-5.63-1.29c.09.09.18.16.3.21.07.03.16.04.25.04.13 0 .25-.03.36-.09.03-.01.04-.03.07-.04.06-.04.1-.09.15-.13.03-.04.06-.09.09-.13.86-1.96.25-5.69-2.13-7.7-.03-.01-.04-.03-.07-.04-.01 0-.03-.01-.04-.01h-.06c-.06.01-.12.03-.16.07l-.06.06c-.01.04-.03.07-.04.13-.35 2.2.05 5.91 1.34 7.63-.02-.01 0 0 0 0zm2.43 9.44c-.01-.03-.01-.04-.03-.07a.291.291 0 0 0-.19-.15h-.07c-2.18.12-6.13 2.22-7.87 4.13-.03.04-.06.07-.07.12-.03.07-.06.16-.07.24v.07c0 .07.01.13.03.19.01.06.04.1.06.16.03.06.06.1.1.13.07.09.18.16.3.21.04.01.07.01.12.03.27.03.52.04.77.04 2.52-.04 5.73-2.76 6.9-4.92 0-.01.01-.03.01-.04 0-.01.01-.04.01-.07v-.07zm-5.87-2c0 .01.01.03.01.04.03.04.06.09.1.13.07.09.18.16.3.21.07.03.16.04.25.04.04 0 .07 0 .12-.01.09-.01.16-.04.24-.07.03-.01.06-.03.07-.04.06-.03.1-.09.15-.13.03-.03.06-.07.07-.1.3-.56.58-1.14.71-1.73.44-2.09-.06-4.01-1.29-5.75a.311.311 0 0 1-.04-.06c-.04-.04-.09-.09-.16-.1-.01 0-.03-.01-.04-.01h-.06c-.04 0-.09.01-.12.04-.01.01-.03.01-.04.03-.01.01-.04.04-.06.07-.01.03-.03.06-.03.07-.12.43-.21.81-.3 1.19-.34 1.64-.55 3.3-.24 4.96.06.41.2.82.36 1.22zm-2.78-1.58c-.01 0-.03-.01-.06-.01h-.05c-.04.01-.09.01-.12.04-.01.01-.03.03-.04.03l-.04.04c-1.27 2-2.37 5.41-1.94 7.44.01.04.03.09.04.13.03.04.06.1.1.13.07.09.18.16.3.21.06.01.1.03.16.04h.07c.04 0 .07 0 .12-.01.09-.01.16-.04.24-.07.01-.01.03-.01.04-.03 2.13-1.87 2.58-5.58 1.33-7.82-.02-.07-.08-.11-.15-.12zm-4.73 4.78c-.01 0-.04-.01-.06-.01h-.06c-.04 0-.09.01-.12.04-.04.03-.07.06-.1.09-1.69 2.07-3.29 4.15-3.54 6.86 0 .15.04.28.1.4.03.06.07.1.12.16.09.1.21.18.33.22.07.03.15.04.22.04h.06c.13 0 .25-.03.37-.09 2.09-1.24 3.67-5.04 2.95-7.48-.01-.03-.01-.06-.04-.09-.08-.07-.14-.13-.23-.14z"/><path class="st1" d="M54.08 66.09c-.01-.04-.03-.07-.04-.1a.35.35 0 0 0-.15-.12c-2.21-.84-6.44-1.1-8.99-.22-.07.03-.13.06-.19.1-.04.03-.07.06-.12.1a.825.825 0 0 0-.14.98c.03.06.07.1.12.15.03.03.06.06.09.07.22.15.46.3.7.41 1.08.52 2.25.61 3.44.52 1.82-.13 3.54-.62 5.16-1.51.01-.01.04-.03.06-.04.01-.01.04-.04.04-.06.01-.01.01-.04.03-.06.01-.03.01-.06.01-.09v-.07c0-.03 0-.05-.02-.06z"/><path class="st0" d="M39.7 28.12h-.79v1.67c0 .61-.27 1.01-.79 1.24-.44.19-.9.21-.9.21v1.35c.44 0 .84-.06 1.17-.19v7.3h.79v-7.82s0-.01.01-.01c.55-.61.52-1.36.5-1.53v-2.22zm.8.65h4.65v1.35H40.5zm0 9.22h4.65v1.35H40.5zm-12.79-3.55h.81v1.33h-.81zm0-2.56h.81v1.33h-.81zm5.38 2.56h.8v1.33h-.8zm-1.41-2.56h.8v1.33h-.8zm-2.55 2.56h.8v1.33h-.8z"/><path class="st0" d="M49.56 15.07c-.3 0-.61.01-.89.06-.65.09-1.32.13-2.01.13-2.58 0-5.01-.65-7.14-1.78-.33-.18-.64-.36-.95-.55-.15-.09-.3-.19-.44-.3l-.4-.28c-.5-.36-1.11-.56-1.76-.56s-1.28.21-1.77.57c0 0-.27.19-.39.28-.15.09-.3.19-.44.3-.31.19-.62.39-.95.55a15.08 15.08 0 0 1-7.14 1.78c-.68 0-1.36-.04-2.01-.13-.3-.04-.58-.06-.89-.06-3.44 0-6.24 2.79-6.24 6.24v12.81c-.01.24-.01.49-.01.74 0 11.53 8.18 21.13 19.05 23.33.25.03.52.06.79.06.25 0 .5-.01.76-.04 10.84-2.18 19.01-11.72 19.1-23.18V21.33c-.03-3.48-2.83-6.26-6.27-6.26zM34.48 28.12v1.84h-1.39v.7h1.39v9.1h-.59v-2.74h-.8v2.77h-.61v-2.77h-.8v2.74h-.59v-9.1h1.39v-.7h-1.39v-1.23h1.39v-.59h.61v.59h.8v-.59h.59v-.02zm-2.72-7.38.56-1.13.55 1.11v.01l1.24.18-.89.86v.01l.21 1.23-1.11-.58-1.11.58.21-1.21v-.01l-.89-.87 1.23-.18zm-5.74 3.59.56-1.13.55 1.11v.01l1.24.18-.89.86-.01.01.21 1.23-1.11-.59-1.11.59.21-1.23v-.01l-.9-.87 1.25-.16zm-3.4 5.92.56-1.13.55 1.11v.01l1.24.18-.89.86-.01.01.21 1.23-1.1-.58h-.01l-1.11.58.21-1.21v-.01l-.9-.87 1.25-.18zm.74 8.58-1.13.58.21-1.21v-.01l-.89-.87 1.23-.18h.01l.57-1.14.55 1.11v.01l1.24.18-.89.86-.01.01.21 1.23-1.1-.57zm4.66 6.34-1.1-.58h-.01l-1.11.58.21-1.21v-.01l-.9-.87 1.23-.18h.01l.56-1.13.55 1.11v.01l1.24.18-.89.87h-.01l.22 1.23zm2.51-15.23h-1.41v.7h1.41V37h-1.41v.71h1.41v1.23h-1.41v.83h-.59v-.83H27.1V37.7h1.42v-.71H27.1v-6.36h1.42v-.7H27.1V28.7h1.42v-.59h.59v.59h1.41v1.24zm3.31 18.64-1.11-.59-1.11.59.21-1.23v-.01l-.9-.87 1.23-.18h.01l.55-1.13.55 1.11v.01l1.24.18-.89.86-.01.01.23 1.25zm20.57-13.72c0 10.73-7.61 19.64-17.73 21.69-.24.03-.47.04-.71.04V13.42c.61 0 1.2.27 1.66.59.12.09.24.18.37.25.13.09.28.18.41.27.28.18.58.36.87.52 1.99 1.05 4.5 1.6 6.9 1.6.64 0 1.3-.09 1.93-.16.27-.04.79-.06 1.05-.06 3.13 0 5.2 2.4 5.32 5.5.02.01-.07 12.83-.07 12.93z"/><path class="st0" d="M31.68 34.44h.8v1.33h-.8zm1.41-2.56h.8v1.33h-.8zm-3.96 0h.8v1.33h-.8zM40.9 20.93l-1.2-.16-.02-.03-.52-1.07-.55 1.1-1.2.16.88.86-.21 1.19 1.08-.56 1.07.56-.21-1.19zm5.12 4.21.86-.84-1.2-.17-.53-1.09-.55 1.09-1.2.17.87.86v.03l-.2 1.15 1.08-.56 1.06.56-.2-1.18zm3.42 5.62.85-.83-1.19-.17-.01-.03-.53-1.06-.54 1.09-1.2.17.88.86-.21 1.18 1.07-.56 1.08.56-.21-1.18zm1.03 6-1.2-.18-.02-.02-.53-1.06-.54 1.08-1.2.18.88.84-.21 1.2 1.07-.56 1.08.56-.21-1.2zm-3.23 5.98-1.2-.16-.02-.03-.53-1.07-.53 1.1-1.2.16.87.84-.21 1.2 1.07-.56 1.08.56-.21-1.2zm-6.63 4.42.85-.83-1.2-.18-.53-1.1-.54 1.1h-.03l-1.17.18.88.84-.02.03-.19 1.17 1.07-.58 1.08.58-.21-1.2z"/></svg>