<svg xmlns="http://www.w3.org/2000/svg" viewBox="0 0 60 70" style="enable-background:new 0 0 60 70" xml:space="preserve"><path style="fill:#004c75" d="M50.58 4.93c-.46 0-.91.03-1.35.1-.99.13-2 .2-3.04.2-3.9 0-7.58-.97-10.8-2.69a25.6 25.6 0 0 1-1.44-.83c-.23-.14-.46-.29-.68-.44-.2-.14-.59-.42-.59-.42C31.93.31 31 0 30.01 0s-1.92.31-2.67.85c0 0-.39.28-.59.42-.23.15-.45.3-.68.44-.47.29-.95.57-1.43.83-3.22 1.71-6.9 2.69-10.8 2.69-1.04 0-2.06-.07-3.05-.2-.45-.07-.89-.1-1.35-.1-5.21 0-9.42 4.2-9.42 9.4v19.32c-.01.36-.02.73-.02 1.1 0 17.37 12.37 31.84 28.81 35.17a8.498 8.498 0 0 0 2.33 0C47.52 66.63 59.88 52.25 60 34.97V14.32c0-5.19-4.22-9.39-9.42-9.39zm5.39 29.95v.1c-.1 14.96-10.8 27.41-24.98 30.26-.32.04-.65.07-.99.07-.35 0-.7-.03-1.03-.07C14.74 62.35 4.03 49.82 4.03 34.78c0-.32.01-.64.02-.96V17.1c0-4.49 1.97-8.61 8.16-8.13.39.03.78.03 1.16.08a19.888 19.888 0 0 0 11.99-2.14c.42-.23.84-.47 1.24-.72.2-.12.39-.26.59-.38l.51-.36c.65-.47 1.45-.74 2.31-.74.86 0 1.66.27 2.31.74l.51.36a25.073 25.073 0 0 0 1.83 1.1c2.79 1.48 5.97 2.32 9.35 2.32.9 0 1.77-.06 2.63-.17.38-.06.77-.07 1.17-.09 6.07-.3 8.16 3.64 8.16 8.13v17.78z"/></svg>