<svg xmlns="http://www.w3.org/2000/svg" width="210" height="210" viewBox="0 0 210 210">
  <g id="Group_273" data-name="Group 273" transform="translate(-480 -1015)">
    <path id="LOGO" d="M81.814,125.514c-.2-.074-.368-.138-.5-.2l-.032-.012v-1.017l.174.018.014.026a1.8,1.8,0,0,0,.106.233c.026.052.055.1.08.144a.948.948,0,0,0,.121.142.854.854,0,0,0,.2.139,1.22,1.22,0,0,0,.274.109,1.419,1.419,0,0,0,.358.042,1.393,1.393,0,0,0,.6-.13,1.041,1.041,0,0,0,.453-.4q.036-.073.1-.223a.9.9,0,0,0,.056-.356,1.075,1.075,0,0,0-.029-.261,1.264,1.264,0,0,0-.056-.159.961.961,0,0,0-.3-.412,4.573,4.573,0,0,0-.435-.3l-.511-.3c-.041-.026-.083-.049-.126-.076l-.027-.018a1.236,1.236,0,0,1-.159-.1,1.825,1.825,0,0,1-.391-.347,1.51,1.51,0,0,1-.223-.344,1.165,1.165,0,0,1-.1-.323,1.56,1.56,0,0,1-.029-.288,1.37,1.37,0,0,1,.136-.655,1.537,1.537,0,0,1,.245-.354,1.375,1.375,0,0,1,.365-.285,1.65,1.65,0,0,1,.374-.153,1.9,1.9,0,0,1,.327-.051c.1,0,.171-.006.226-.006a2.78,2.78,0,0,1,.441.03c.13.021.25.047.355.073a2.384,2.384,0,0,1,.283.089c.082.032.153.059.209.077l.035.012V120.9h-.17l-.015-.03c-.032-.068-.07-.147-.114-.239a1.081,1.081,0,0,0-.182-.259,1,1,0,0,0-.308-.2,1.183,1.183,0,0,0-.471-.08,1.242,1.242,0,0,0-.388.058.85.85,0,0,0-.314.176.872.872,0,0,0-.211.28.957.957,0,0,0-.079.391c0,.024,0,.067.007.127a.766.766,0,0,0,.349.57c.146.1.288.2.424.28l.533.314.27.177a1.972,1.972,0,0,1,.327.261,1.527,1.527,0,0,1,.5,1.158c0,.056,0,.135-.012.227a1.487,1.487,0,0,1-.065.309,1.717,1.717,0,0,1-.155.344,1.637,1.637,0,0,1-.283.352,1.673,1.673,0,0,1-.426.3,2.228,2.228,0,0,1-.415.149,2.14,2.14,0,0,1-.362.051c-.108.006-.191.008-.247.008A2.462,2.462,0,0,1,81.814,125.514Zm-31.2,0a2.43,2.43,0,0,1-.652-.308,1.725,1.725,0,0,1-.426-.427,1.984,1.984,0,0,1-.241-.461,2.963,2.963,0,0,1-.1-.435,4.752,4.752,0,0,1-.024-.64v-2.573c0-.171,0-.309-.014-.409a.271.271,0,0,0-.117-.2.743.743,0,0,0-.291-.133l-.038-.006v-.18h1.761l-.018.18-.033.006a.856.856,0,0,0-.27.111.362.362,0,0,0-.12.144.5.5,0,0,0-.039.2c0,.083-.008.18-.009.3V123.2c0,.126,0,.248.006.367a2.128,2.128,0,0,0,.039.338,1.621,1.621,0,0,0,.1.327,1.581,1.581,0,0,0,.179.309,1.33,1.33,0,0,0,.6.451,2.056,2.056,0,0,0,.738.136,2,2,0,0,0,.459-.047,2.964,2.964,0,0,0,.358-.123,1.574,1.574,0,0,0,.259-.156c.07-.058.129-.109.177-.156.018-.027.045-.067.085-.13a1.336,1.336,0,0,0,.111-.211c.027-.067.05-.133.07-.2a1.749,1.749,0,0,0,.05-.215c.014-.082.024-.176.033-.277s.009-.224.009-.358V120.7c0-.092,0-.2,0-.33a.468.468,0,0,0-.094-.294.247.247,0,0,0-.085-.065.414.414,0,0,0-.108-.045l-.1-.029c-.021,0-.033-.011-.041-.011h-.053l0-.189h1.47v.18l-.038.006c-.085.027-.155.048-.215.074a.3.3,0,0,0-.152.13.375.375,0,0,0-.062.189c-.008.074-.011.183-.011.327v2.721c0,.065,0,.145,0,.235a2.271,2.271,0,0,1-.023.3,2.926,2.926,0,0,1-.061.314,2.145,2.145,0,0,1-.2.486,1.642,1.642,0,0,1-.392.461,1.908,1.908,0,0,1-.63.335,2.9,2.9,0,0,1-.923.13A3.207,3.207,0,0,1,50.615,125.509Zm-10.251.088a3.153,3.153,0,0,1-.324-.03c-.118-.012-.253-.038-.391-.065a2.874,2.874,0,0,1-.435-.135,3.1,3.1,0,0,1-.77-.446,2.9,2.9,0,0,1-.574-.639,2.8,2.8,0,0,1-.355-.779,3.09,3.09,0,0,1-.124-.885,3.9,3.9,0,0,1,.027-.4,2.557,2.557,0,0,1,.117-.552,3.114,3.114,0,0,1,.274-.614,2.834,2.834,0,0,1,.5-.616,2.892,2.892,0,0,1,.732-.518,3.7,3.7,0,0,1,.73-.276,3.973,3.973,0,0,1,.629-.1c.185-.012.332-.017.439-.017s.227,0,.344.007.248.023.389.043.294.05.465.089.368.086.589.153l.038.011-.036,1.033h-.173l-.133-.247a1.066,1.066,0,0,0-.235-.261,1.364,1.364,0,0,0-.6-.265,3.62,3.62,0,0,0-.671-.067c-.074,0-.179,0-.312.009a2.878,2.878,0,0,0-.446.07,2.626,2.626,0,0,0-.518.177,2.121,2.121,0,0,0-.78.609,1.9,1.9,0,0,0-.253.386,2.621,2.621,0,0,0-.2.532,2.705,2.705,0,0,0-.082.686,2.805,2.805,0,0,0,.068.649,2.764,2.764,0,0,0,.161.509,2.3,2.3,0,0,0,.212.389,2.6,2.6,0,0,0,.214.277,2.371,2.371,0,0,0,.527.439,2.514,2.514,0,0,0,.53.238,2.179,2.179,0,0,0,.473.094c.139.012.259.015.358.015l.165,0a2.311,2.311,0,0,0,.283-.029,2.39,2.39,0,0,0,.342-.07,1.849,1.849,0,0,0,.338-.115,1.208,1.208,0,0,0,.206-.132,1.162,1.162,0,0,0,.129-.12.769.769,0,0,0,.141-.2c.027-.062.048-.114.064-.158l.012-.033h.179l.036.991-.036.012c-.088.034-.18.062-.268.087s-.174.056-.267.083a6.415,6.415,0,0,1-.75.14,6.311,6.311,0,0,1-.759.054C40.53,125.6,40.458,125.6,40.364,125.6Zm-15.78-.157a2.758,2.758,0,0,1-.944-.518c-.092-.085-.2-.191-.314-.32a2.421,2.421,0,0,1-.339-.485,3.337,3.337,0,0,1-.262-.66,3.164,3.164,0,0,1-.1-.844,3.233,3.233,0,0,1,.07-.694,3.081,3.081,0,0,1,.17-.545,2.83,2.83,0,0,1,.214-.418c.077-.12.142-.209.2-.288a4.426,4.426,0,0,1,.324-.341,2.651,2.651,0,0,1,.508-.374,3.107,3.107,0,0,1,1.608-.43,2.948,2.948,0,0,1,.79.1,3.26,3.26,0,0,1,.621.239,2.648,2.648,0,0,1,.462.307,2.816,2.816,0,0,1,.555.6,3.068,3.068,0,0,1,.259.466,3.48,3.48,0,0,1,.2.618,3.257,3.257,0,0,1,.088.768c0,.1-.008.218-.018.362a2.567,2.567,0,0,1-.091.488,2.864,2.864,0,0,1-.221.567,2.588,2.588,0,0,1-.408.588,2.78,2.78,0,0,1-1.043.764,3.59,3.59,0,0,1-1.27.217A3.414,3.414,0,0,1,24.584,125.44Zm.818-5.376a2.231,2.231,0,0,0-.33.054,2.389,2.389,0,0,0-.389.142,2.124,2.124,0,0,0-.4.249,2.54,2.54,0,0,0-.282.28,2.129,2.129,0,0,0-.277.418,2.851,2.851,0,0,0-.206.571,3.052,3.052,0,0,0-.079.744c0,.071,0,.165.011.271a2.477,2.477,0,0,0,.05.362,2.863,2.863,0,0,0,.123.427,2.819,2.819,0,0,0,.233.462c.055.083.129.188.226.309a1.854,1.854,0,0,0,.367.351,2.291,2.291,0,0,0,.544.288,1.988,1.988,0,0,0,.723.121,2.062,2.062,0,0,0,.662-.1,1.905,1.905,0,0,0,.564-.294,2.009,2.009,0,0,0,.444-.455,2.166,2.166,0,0,0,.308-.594,2.214,2.214,0,0,0,.115-.444c.02-.133.032-.23.035-.294a3.441,3.441,0,0,0-.015-.755,2.992,2.992,0,0,0-.146-.609,2.389,2.389,0,0,0-.218-.467c-.083-.133-.158-.241-.223-.33a2.5,2.5,0,0,0-.221-.227,1.762,1.762,0,0,0-.33-.23,2.328,2.328,0,0,0-.459-.186,2.045,2.045,0,0,0-.6-.08A1.675,1.675,0,0,0,25.4,120.064ZM2.973,125.6a3.1,3.1,0,0,1-.326-.03c-.12-.012-.252-.038-.392-.065a2.929,2.929,0,0,1-.435-.135,3.079,3.079,0,0,1-.767-.446,2.919,2.919,0,0,1-.577-.639,2.89,2.89,0,0,1-.355-.779A3.2,3.2,0,0,1,0,122.619c0-.1.009-.239.023-.4a2.769,2.769,0,0,1,.12-.552,3.109,3.109,0,0,1,.273-.614,3.05,3.05,0,0,1,1.232-1.135,3.8,3.8,0,0,1,.729-.276,4,4,0,0,1,.629-.1c.186-.012.335-.017.442-.017s.226,0,.342.007a3.882,3.882,0,0,1,.386.043c.139.023.3.05.468.089s.37.086.589.153l.038.011-.035,1.033H5.063l-.133-.247a1.018,1.018,0,0,0-.236-.261,1.349,1.349,0,0,0-.6-.265,3.582,3.582,0,0,0-.67-.067c-.071,0-.176,0-.312.009a2.831,2.831,0,0,0-.444.07,2.527,2.527,0,0,0-.518.177,2.342,2.342,0,0,0-.53.344,2.576,2.576,0,0,0-.25.265,1.829,1.829,0,0,0-.253.386,2.536,2.536,0,0,0-.2.532,2.637,2.637,0,0,0-.082.686,2.8,2.8,0,0,0,.067.649,3,3,0,0,0,.162.509,2.306,2.306,0,0,0,.211.389,3.045,3.045,0,0,0,.217.277,2.331,2.331,0,0,0,.526.439,2.55,2.55,0,0,0,.53.238,2.157,2.157,0,0,0,.474.094c.138.012.256.015.355.015l.17,0a2.3,2.3,0,0,0,.28-.029,2.433,2.433,0,0,0,.342-.07,1.893,1.893,0,0,0,.338-.115,1.153,1.153,0,0,0,.206-.132,1.643,1.643,0,0,0,.132-.12.877.877,0,0,0,.139-.2c.026-.062.046-.114.064-.158l.011-.033h.18l.035.991-.035.012c-.092.034-.18.062-.27.087s-.174.056-.268.083a6.323,6.323,0,0,1-.749.14,6.289,6.289,0,0,1-.759.054C3.14,125.6,3.065,125.6,2.973,125.6Zm57.441-.027-4.275-4.86v3.9c0,.077,0,.143,0,.18a1.21,1.21,0,0,0,.012.127.4.4,0,0,0,.133.25.86.86,0,0,0,.28.115l.039.008v.186H55.116l.018-.188.036-.006c.027,0,.079-.018.155-.038a.319.319,0,0,0,.18-.129.385.385,0,0,0,.08-.232c.009-.109.012-.2.012-.274V120.6c0-.132,0-.235,0-.309a.386.386,0,0,0-.052-.179.253.253,0,0,0-.144-.133,1,1,0,0,0-.218-.053l-.047,0v-.185h1.22l.017.017,3.681,4.188v-3.3c0-.017,0-.056,0-.12a.884.884,0,0,0-.011-.168.511.511,0,0,0-.1-.257.554.554,0,0,0-.347-.173l-.042-.009v-.18h1.491l-.017.182-.036.007a1.053,1.053,0,0,0-.177.055.361.361,0,0,0-.1.063.319.319,0,0,0-.141.247l-.017.341v4.936Zm6.547-.015-.014-.033-1.941-4.615c-.03-.088-.064-.168-.1-.248s-.071-.16-.106-.238c-.012-.033-.033-.082-.068-.158a.537.537,0,0,0-.148-.193.5.5,0,0,0-.13-.1,1.272,1.272,0,0,0-.159-.047l-.036-.009v-.18h1.793v.182l-.041.007a.608.608,0,0,0-.282.1.213.213,0,0,0-.065.165.823.823,0,0,0,.027.186,1.158,1.158,0,0,0,.049.156l.062.156,1.394,3.389,1.468-3.383a.192.192,0,0,1,.027-.065c.015-.036.032-.076.049-.124s.032-.1.045-.155a.671.671,0,0,0,.02-.153c0-.015,0-.034,0-.062a.208.208,0,0,0-.032-.068.178.178,0,0,0-.115-.094l-.173-.056-.036-.006v-.18h1.47v.18l-.042.009a.742.742,0,0,0-.235.083.54.54,0,0,0-.161.176,1.928,1.928,0,0,0-.164.318c-.051.129-.1.241-.144.329l-2.065,4.721Zm28.052-.074.017-.193h.041a1.382,1.382,0,0,0,.2-.047.366.366,0,0,0,.15-.1.37.37,0,0,0,.091-.192,2.524,2.524,0,0,0,.015-.335v-1.659l-1.59-2.485a.434.434,0,0,1-.071-.1c-.021-.034-.045-.07-.07-.106a1.062,1.062,0,0,1-.1-.13.484.484,0,0,0-.085-.089.451.451,0,0,0-.1-.065,1.015,1.015,0,0,0-.147-.056l-.038-.006v-.18h1.8v.189H95.07c-.009,0-.03.008-.062.011a.417.417,0,0,0-.1.042.226.226,0,0,0-.089.079.2.2,0,0,0-.036.129.508.508,0,0,0,.062.232,1.815,1.815,0,0,0,.127.214L96.1,122.42l1.086-1.783c.038-.067.077-.139.123-.215a.445.445,0,0,0,.059-.217c0-.015,0-.034,0-.062a.2.2,0,0,0-.036-.074c-.032-.061-.067-.1-.1-.1a1.659,1.659,0,0,0-.18-.038l-.042,0v-.185h1.479v.176l-.033.011a.508.508,0,0,1-.1.029.43.43,0,0,0-.126.056.506.506,0,0,0-.176.174l-.152.237-1.588,2.573v1.614a2.649,2.649,0,0,0,.02.318.373.373,0,0,0,.13.252.292.292,0,0,0,.161.082c.067.012.114.026.141.029l.039.008v.186Zm-5.382,0,.014-.183.033-.011c.017,0,.054-.017.115-.03a.352.352,0,0,0,.148-.074.421.421,0,0,0,.135-.176.872.872,0,0,0,.051-.344v-4.435H89.034a1.813,1.813,0,0,0-.342.033.424.424,0,0,0-.191.089.277.277,0,0,0-.1.164l-.036.189h-.189v-.965H92.91v.951h-.183l-.006-.044c-.029-.179-.088-.291-.177-.333a.929.929,0,0,0-.408-.068H90.947v4.369c0,.077,0,.15.006.208a.529.529,0,0,0,.036.155.383.383,0,0,0,.079.133.772.772,0,0,0,.126.1,1.859,1.859,0,0,0,.223.077l.039.008v.186Zm-3.771,0v-.186l.041-.008a1.488,1.488,0,0,0,.212-.068.415.415,0,0,0,.162-.135.437.437,0,0,0,.073-.244c0-.1.006-.245.012-.424v-3.659c0-.139,0-.244,0-.326a.7.7,0,0,0-.033-.2.387.387,0,0,0-.092-.153.516.516,0,0,0-.124-.089.749.749,0,0,0-.124-.038.669.669,0,0,1-.1-.024l-.039-.006v-.18h1.767v.18l-.036.006c-.023.008-.047.012-.076.02l-.02,0a.619.619,0,0,0-.111.038.445.445,0,0,0-.109.083.366.366,0,0,0-.073.144.761.761,0,0,0-.026.206c0,.092,0,.2,0,.336v3.865a1.024,1.024,0,0,0,.014.183c0,.027,0,.065.011.136a.357.357,0,0,0,.073.155.4.4,0,0,0,.158.12c.065.024.133.052.2.071l.036.011v.183Zm-6.064,0a1.151,1.151,0,0,1-.174-.02,1.958,1.958,0,0,1-.2-.061.908.908,0,0,1-.208-.13,1.055,1.055,0,0,1-.27-.314c-.074-.12-.138-.233-.2-.341l-1.027-1.9c-.094.011-.192.02-.292.027a5.056,5.056,0,0,1-.541.008c-.053,0-.1,0-.158,0v1.732c0,.05.008.1.008.151a1.049,1.049,0,0,0,.006.144,1.755,1.755,0,0,0,.024.191.326.326,0,0,0,.082.142.309.309,0,0,0,.126.092,2.058,2.058,0,0,0,.248.085l.036.011v.183h-1.8v-.194h.05a.333.333,0,0,0,.071-.012.5.5,0,0,0,.112-.045.409.409,0,0,0,.114-.074.3.3,0,0,0,.077-.127.517.517,0,0,0,.033-.191c0-.091.008-.2.012-.327v-3.842c0-.127,0-.236-.009-.317a.581.581,0,0,0-.041-.2.386.386,0,0,0-.089-.112.463.463,0,0,0-.117-.068.951.951,0,0,0-.115-.035c-.032,0-.053-.011-.062-.011h-.05l0-.189h2.038c.144,0,.292,0,.449.009a2.317,2.317,0,0,1,.458.062,1.565,1.565,0,0,1,.424.164,1.084,1.084,0,0,1,.365.324,2.137,2.137,0,0,1,.165.311,1.293,1.293,0,0,1,.1.541,1.313,1.313,0,0,1-.139.611,1.163,1.163,0,0,1-.22.308,2.2,2.2,0,0,1-.25.215,2.169,2.169,0,0,1-.232.145c-.041.023-.074.038-.1.051l1.091,2.007a3.653,3.653,0,0,0,.25.426c.012.018.033.058.068.115a.471.471,0,0,0,.121.14.379.379,0,0,0,.129.079c.056.023.088.041.1.042l.029.015v.177Zm-3.064-3.217h.544c.114,0,.232-.009.35-.02a1.649,1.649,0,0,0,.345-.074,1.023,1.023,0,0,0,.3-.153.844.844,0,0,0,.294-.456,1.216,1.216,0,0,0,.038-.326,1.162,1.162,0,0,0-.1-.47.775.775,0,0,0-.314-.356.974.974,0,0,0-.418-.155,3.336,3.336,0,0,0-.459-.011h-.564Zm-6.293,3.217.015-.186.036-.008a.925.925,0,0,0,.12-.036.251.251,0,0,0,.1-.039.341.341,0,0,0,.153-.145.585.585,0,0,0,.053-.215c0-.076.006-.155,0-.229a1.973,1.973,0,0,1,0-.232l0-4.006a.449.449,0,0,0-.035-.189.333.333,0,0,0-.08-.144.63.63,0,0,0-.12-.077.666.666,0,0,0-.117-.036c-.041,0-.065-.009-.08-.009h-.052v-.189h3.511l-.014.971-.188-.017-.008-.035c-.011-.042-.023-.086-.033-.124a.588.588,0,0,0-.05-.109.323.323,0,0,0-.188-.17,1.216,1.216,0,0,0-.285-.027H71.721v1.942h1.368a.528.528,0,0,0,.2-.039.311.311,0,0,0,.135-.085.542.542,0,0,0,.083-.127.424.424,0,0,0,.038-.115.833.833,0,0,1,.023-.086l.009-.038h.186v1.452h-.189l-.006-.036c-.017-.061-.032-.108-.042-.136s-.024-.062-.035-.091a.333.333,0,0,0-.244-.176,1.981,1.981,0,0,0-.355-.029H71.721v1.562c.006.089.012.188.012.294a.674.674,0,0,0,.064.274.519.519,0,0,1,.032.052.3.3,0,0,0,.049.052.578.578,0,0,0,.289.074l.515.02h.906a.846.846,0,0,0,.156-.018.946.946,0,0,0,.153-.015.269.269,0,0,0,.17-.089.384.384,0,0,0,.1-.152c.02-.062.042-.127.064-.2l.009-.036h.183v1Zm-8.446,0v-.186l.039-.008a1.372,1.372,0,0,0,.212-.068.386.386,0,0,0,.162-.135.477.477,0,0,0,.074-.244c0-.1,0-.245.012-.424v-3.659c0-.139,0-.244-.006-.326a.758.758,0,0,0-.032-.2.389.389,0,0,0-.094-.153.489.489,0,0,0-.124-.089.687.687,0,0,0-.126-.038.752.752,0,0,1-.1-.024l-.038-.006v-.18H63.74v.18l-.038.006a.677.677,0,0,1-.073.02l-.018,0a.682.682,0,0,0-.114.038.445.445,0,0,0-.109.083.388.388,0,0,0-.073.144.756.756,0,0,0-.026.206c0,.092,0,.2,0,.336v3.865a1.732,1.732,0,0,0,.014.183c0,.027,0,.065.014.136a.316.316,0,0,0,.074.155.366.366,0,0,0,.158.12c.064.024.132.052.2.071l.035.011v.183Zm-27.407-.045v-.191l.041-.012a.983.983,0,0,0,.214-.058.457.457,0,0,0,.161-.139.421.421,0,0,0,.073-.242c0-.1.008-.247.014-.427v-3.654c0-.141,0-.247,0-.327a.857.857,0,0,0-.035-.2.371.371,0,0,0-.1-.156.451.451,0,0,0-.123-.089.845.845,0,0,0-.123-.038c-.047-.008-.079-.017-.1-.021l-.038-.012v-.174h1.764v.174l-.036.012a.414.414,0,0,0-.074.018l-.017,0a.842.842,0,0,0-.114.038.393.393,0,0,0-.106.082.405.405,0,0,0-.077.144.817.817,0,0,0-.024.208c0,.1-.006.2-.006.339v3.864a1.111,1.111,0,0,0,.017.186c0,.024,0,.059.012.13a.3.3,0,0,0,.073.155.4.4,0,0,0,.156.121c.068.027.135.051.2.071l.036.011v.186Zm-4.881,0v-.191l.041-.012a.866.866,0,0,0,.117-.023.67.67,0,0,0,.133-.073.475.475,0,0,0,.12-.126.488.488,0,0,0,.076-.206c0-.038.008-.124.009-.254s0-.27,0-.414V120.8c0-.141,0-.268-.009-.376a.957.957,0,0,0-.035-.237.462.462,0,0,0-.1-.148.485.485,0,0,0-.126-.091.561.561,0,0,0-.121-.044.881.881,0,0,1-.1-.023l-.033-.014v-.171h1.829v.174l-.039.012c-.018,0-.049.012-.086.02a.462.462,0,0,0-.12.046.492.492,0,0,0-.12.088.335.335,0,0,0-.082.149c-.009.047-.015.127-.023.235s-.009.238-.015.374v3.41a3.161,3.161,0,0,0,.038.461.314.314,0,0,0,.167.223.468.468,0,0,0,.188.052l.314.014h1.094c.051,0,.108,0,.17-.006s.118-.007.179-.012a1.08,1.08,0,0,0,.167-.042.374.374,0,0,0,.132-.085.388.388,0,0,0,.074-.114,1.5,1.5,0,0,0,.074-.208l.009-.036h.185v.989Zm-9.864,0,.017-.194.038-.009a.57.57,0,0,0,.188-.049.3.3,0,0,0,.136-.111.1.1,0,0,0,.033-.05c.009-.024.023-.052.033-.08s.011-.111.017-.209,0-.218,0-.352v-1.744H17.294V124.4c0,.153,0,.279,0,.371a.558.558,0,0,0,.039.22.318.318,0,0,0,.088.117.471.471,0,0,0,.12.077.367.367,0,0,0,.1.039.426.426,0,0,0,.064.009h.052v.2H16.021v-.2h.051s.018,0,.07-.011a.645.645,0,0,0,.12-.045.354.354,0,0,0,.117-.086.329.329,0,0,0,.08-.141.706.706,0,0,0,.026-.208c0-.1,0-.214,0-.342v-3.715c.006-.148.006-.259,0-.329a.753.753,0,0,0-.041-.212.459.459,0,0,0-.083-.13.393.393,0,0,0-.112-.076.5.5,0,0,0-.112-.036c-.044-.009-.073-.02-.092-.023l-.032-.014v-.171h1.741v.171l-.035.014c-.017,0-.045.014-.08.023a.463.463,0,0,0-.1.035.334.334,0,0,0-.112.065.249.249,0,0,0-.08.1.558.558,0,0,0-.047.214c-.008.1-.011.215-.011.348v1.479h3.014v-1.809a.6.6,0,0,0-.03-.208A.308.308,0,0,0,20.2,120a.588.588,0,0,0-.115-.076.962.962,0,0,0-.117-.035.345.345,0,0,0-.068-.014h-.047l0-.186h1.733v.171l-.032.014c-.021,0-.05.014-.092.023a.439.439,0,0,0-.109.044.487.487,0,0,0-.117.088.3.3,0,0,0-.082.132.9.9,0,0,0-.033.265c0,.117,0,.214,0,.282v3.845a1.447,1.447,0,0,0,.008.164,1.548,1.548,0,0,0,.024.194.351.351,0,0,0,.083.156.443.443,0,0,0,.144.112,1.429,1.429,0,0,0,.185.056l.041.006v.191Zm-7.649,0,.015-.186.032-.009a.482.482,0,0,1,.115-.029.335.335,0,0,0,.148-.077.4.4,0,0,0,.136-.174.941.941,0,0,0,.05-.345v-4.435H11.6a1.763,1.763,0,0,0-.344.035.423.423,0,0,0-.189.088.292.292,0,0,0-.1.165l-.036.191h-.189v-.965h4.738v.95h-.18l-.009-.047a.428.428,0,0,0-.176-.333,1.008,1.008,0,0,0-.409-.068H13.509v4.373c0,.082,0,.15,0,.208a.766.766,0,0,0,.033.156.518.518,0,0,0,.082.132,1.088,1.088,0,0,0,.127.1,1.207,1.207,0,0,0,.221.079l.039.008v.189Zm-2.573,0,.014-.2.041-.007a.583.583,0,0,0,.2-.05.244.244,0,0,0,.129-.127.188.188,0,0,0,.032-.073.511.511,0,0,0,0-.053.6.6,0,0,0-.021-.135c-.024-.061-.053-.124-.082-.188s-.059-.135-.083-.208l-.433-1.042H7.457l-.467,1.089c-.047.112-.085.215-.117.292a.57.57,0,0,0-.044.2.338.338,0,0,0,.006.059.271.271,0,0,0,.033.085.252.252,0,0,0,.109.1.43.43,0,0,0,.167.049l.042.012v.191H5.7v-.194l.042-.009a.432.432,0,0,0,.186-.05.56.56,0,0,0,.147-.114,1.147,1.147,0,0,0,.138-.2c.042-.085.091-.186.142-.309l2.2-4.945H8.7l.012.03,2.012,4.753c.014.033.032.07.051.111l.061.138c.021.047.042.1.062.138a1.159,1.159,0,0,0,.054.1.692.692,0,0,0,.236.262l.217.1.029.012v.167ZM7.684,122.87H9.213l-.742-1.76Zm34.888-.8.039-.027c.065-.044.27-.212.552-.456a5.8,5.8,0,0,0,.815-.85,4.733,4.733,0,0,0,1.074-2.436,21.807,21.807,0,0,0,.164-2.716V96.076a8.763,8.763,0,0,0-.2-2.265,1.354,1.354,0,0,0-.709-.826,4.392,4.392,0,0,0-1.058-.324l-.041-.008V92.2h7v.458l-.042.006a3.729,3.729,0,0,0-.63.126,2.525,2.525,0,0,0-.4.2,1.441,1.441,0,0,0-.811,1.048,12.98,12.98,0,0,0-.117,2.042v19.478c-.023.339-.062.752-.114,1.209a5.793,5.793,0,0,1-.4,1.485,7.53,7.53,0,0,1-.924,1.579,6.506,6.506,0,0,1-1.708,1.512,7.712,7.712,0,0,1-.841.53c-.318.177-.768.4-1.33.662l-.041.021Zm-17.644-6.357a9.057,9.057,0,0,1-2.643-1.244,6.837,6.837,0,0,1-1.72-1.711,8.391,8.391,0,0,1-.977-1.879,10.089,10.089,0,0,1-.4-1.756,18.211,18.211,0,0,1-.1-2.619V95.88c0-.735-.02-1.3-.062-1.717a1.332,1.332,0,0,0-.539-.951,3.379,3.379,0,0,0-1.27-.555l-.036-.009V92.2h6.941l-.039.453-.036.007a3.615,3.615,0,0,0-1.165.471,1.549,1.549,0,0,0-.542.655,2.629,2.629,0,0,0-.176.908c-.014.371-.029.783-.051,1.22v10.433c0,.517.011,1.03.035,1.517a10.443,10.443,0,0,0,.162,1.429,6.962,6.962,0,0,0,.409,1.373,6.143,6.143,0,0,0,.767,1.329,5.878,5.878,0,0,0,2.541,1.917,8.72,8.72,0,0,0,3.1.571,8.1,8.1,0,0,0,1.926-.214,8.222,8.222,0,0,0,1.5-.509,5.232,5.232,0,0,0,1.109-.655,5.866,5.866,0,0,0,.75-.686c.091-.12.224-.311.373-.539a5.835,5.835,0,0,0,.471-.9c.106-.28.208-.564.294-.838a6.526,6.526,0,0,0,.209-.917c.059-.351.1-.739.133-1.153s.047-.921.047-1.493V96.009c0-.4,0-.859-.014-1.368a2.112,2.112,0,0,0-.432-1.309,1.369,1.369,0,0,0-.4-.315,2.313,2.313,0,0,0-.465-.193c-.153-.045-.292-.086-.412-.115a.992.992,0,0,0-.2-.048h-.049l0-.049V92.2h5.752v.453l-.038.007a8.472,8.472,0,0,0-.914.3,1.452,1.452,0,0,0-.7.611,1.712,1.712,0,0,0-.288.847c-.02.323-.03.777-.03,1.367v11.242c0,.283-.008.621-.018.974s-.042.756-.1,1.209a9.767,9.767,0,0,1-.247,1.276,9.029,9.029,0,0,1-.827,1.979A6.521,6.521,0,0,1,35,114.3a8.085,8.085,0,0,1-2.565,1.362,11.747,11.747,0,0,1-3.758.529A12.946,12.946,0,0,1,24.928,115.714Zm71.2.247-.012-.015L78.236,95.614v16.573c0,.327,0,.577.012.754s.029.359.052.527a1.765,1.765,0,0,0,.617,1.132,3.165,3.165,0,0,0,1.217.506l.038.011v.485h-5.82l.038-.486.038-.009c.138-.027.382-.08.655-.148a1.414,1.414,0,0,0,.826-.589,1.806,1.806,0,0,0,.37-1.05c.032-.462.047-.832.047-1.132V95.612c0-.62,0-1.01-.015-1.3a1.587,1.587,0,0,0-.239-.817,1.184,1.184,0,0,0-.68-.621,4.755,4.755,0,0,0-.924-.212l-.047,0V92.2h4.8l.015.018,15.488,17.622V95.777c0-.08.008-.256.02-.482a3.314,3.314,0,0,0-.05-.729,2.009,2.009,0,0,0-1.968-1.909l-.039-.007V92.2h5.825l-.041.456-.038.008a3.641,3.641,0,0,0-.761.224,2.075,2.075,0,0,0-.464.291,1.539,1.539,0,0,0-.644,1.135l-.008.182c-.018.4-.035.8-.058,1.22l0,20.249ZM53.686,115.6l.039-.485.033-.011c.18-.044.345-.085.509-.132a1.349,1.349,0,0,0,.43-.194,1.5,1.5,0,0,0,.688-.673,2.373,2.373,0,0,0,.241-.936,9.375,9.375,0,0,0,.015-.967,8.923,8.923,0,0,1,.017-.947V94.689a2.168,2.168,0,0,0-.159-.839,1.35,1.35,0,0,0-.382-.641,2.285,2.285,0,0,0-.53-.356,1.762,1.762,0,0,0-.526-.159,3.236,3.236,0,0,0-.356-.033h-.051V92.2h14.2v.05l-.064,3.62-.485-.044-.008-.032c-.041-.155-.086-.317-.15-.529a2.551,2.551,0,0,0-.209-.482,1.4,1.4,0,0,0-.886-.77,5.335,5.335,0,0,0-1.2-.127H58.652v8.348h5.816a2.4,2.4,0,0,0,.886-.162,1.433,1.433,0,0,0,.62-.4,2.305,2.305,0,0,0,.549-1.067c.039-.188.062-.294.082-.353l.011-.033h.48V105.9h-.482l-.009-.038a4.344,4.344,0,0,0-.179-.585c-.058-.132-.106-.253-.15-.365a1.527,1.527,0,0,0-1.124-.841,8.982,8.982,0,0,0-1.489-.118H58.652v6.621c.02.333.038.723.053,1.217a2.911,2.911,0,0,0,.273,1.2c.051.076.1.149.144.226a1.081,1.081,0,0,0,.233.251,2.429,2.429,0,0,0,1.288.335c.6.035,1.3.058,2.132.08h3.744a4.4,4.4,0,0,0,.683-.061,6.1,6.1,0,0,0,.626-.07,1.345,1.345,0,0,0,.791-.415,1.833,1.833,0,0,0,.45-.691c.091-.267.182-.536.261-.8l.012-.036h.48v3.8ZM0,115.6v-.485l.038-.011a5.8,5.8,0,0,0,1.074-.408,1.36,1.36,0,0,0,.667-.876,2.453,2.453,0,0,0,.161-.98V94.571a1.747,1.747,0,0,0-.127-.721,1.3,1.3,0,0,0-.383-.641A2.155,2.155,0,0,0,.9,92.853a1.778,1.778,0,0,0-.509-.159,2.863,2.863,0,0,0-.339-.033H0V92.2h14.36v.049l-.032,3.521h-.48l-.011-.042c-.045-.167-.1-.339-.164-.523a3.118,3.118,0,0,0-.259-.518,1.565,1.565,0,0,0-1.086-.752,11.269,11.269,0,0,0-1.37-.15H5.034v8.384h4.975c.5,0,.921-.008,1.246-.015a2.255,2.255,0,0,0,.838-.179,1.255,1.255,0,0,0,.523-.4,2.151,2.151,0,0,0,.308-.548c.058-.171.106-.342.144-.5a1.584,1.584,0,0,0,.047-.286v-.048h.5v5.71h-.485l-.009-.039c-.062-.288-.123-.536-.18-.738a1.051,1.051,0,0,0-.235-.429,1.523,1.523,0,0,0-1.165-.677c-.518-.043-1.033-.073-1.53-.1H5.034v8.877a2.966,2.966,0,0,0,.047.55,1.977,1.977,0,0,0,.177.5,1.478,1.478,0,0,0,.765.868,8.069,8.069,0,0,0,1.109.394l.036.011v.485Zm49.19-35.064c-3.285,1.506-6.287,3.221-7.616,4.55l-1.07-1.265c1.436-1.444,4.179-2.807,7.138-3.971A43.568,43.568,0,0,0,40.088,77.3c-2.988-.262-6.278-5.112-5.8-8.481,0,0,0-.012,0-.017a.441.441,0,0,1,.056-.13.414.414,0,0,1,.245-.174.491.491,0,0,1,.109-.012l.041,0a.511.511,0,0,1,.145.045.523.523,0,0,1,.076.053c2.514,2.264,4.894,4.527,5.525,8,1.9.5,5.319,1.444,8.705,2.676C52.581,78.037,56,77.09,57.9,76.593c.63-3.477,3.012-5.741,5.525-8a.467.467,0,0,1,.077-.053.5.5,0,0,1,.146-.045l.039,0a.392.392,0,0,1,.042,0,.325.325,0,0,1,.067.01.419.419,0,0,1,.245.174.441.441,0,0,1,.056.13.062.062,0,0,0,0,.017c.477,3.37-2.812,8.218-5.8,8.481a43.565,43.565,0,0,0-7.558,2.548c2.959,1.164,5.7,2.527,7.14,3.971l-1.07,1.265C55.483,83.76,52.48,82.045,49.193,80.539Zm11.046-.712a5.845,5.845,0,0,1-.83-.483c-.033-.03-.071-.056-.1-.091a1.169,1.169,0,0,1-.132-.186.982.982,0,0,1-.12-.48.97.97,0,0,1,.274-.674.942.942,0,0,1,.136-.121,1.058,1.058,0,0,1,.232-.121,18.786,18.786,0,0,1,10.6.262.419.419,0,0,1,.183.142.372.372,0,0,1,.056.13.251.251,0,0,1,.011.045.419.419,0,0,1,0,.086.461.461,0,0,1-.026.115.34.34,0,0,1-.03.067.537.537,0,0,1-.062.08.543.543,0,0,1-.071.051,14.742,14.742,0,0,1-6.079,1.786c-.3.023-.6.036-.9.036A7.21,7.21,0,0,1,60.24,79.827ZM34.1,80.436a14.749,14.749,0,0,1-6.081-1.786.437.437,0,0,1-.068-.051.393.393,0,0,1-.062-.08.668.668,0,0,1-.033-.067.541.541,0,0,1-.024-.115.336.336,0,0,1,0-.086c0-.015,0-.03.009-.045a.4.4,0,0,1,.056-.13.419.419,0,0,1,.18-.142,18.8,18.8,0,0,1,10.607-.262,1.058,1.058,0,0,1,.232.121.871.871,0,0,1,.136.121.981.981,0,0,1,.155,1.154,1.084,1.084,0,0,1-.132.186.977.977,0,0,1-.1.091,5.839,5.839,0,0,1-.83.483,7.207,7.207,0,0,1-3.142.645C34.708,80.472,34.407,80.459,34.1,80.436Zm35.768-4.759a5.666,5.666,0,0,1-.944-.245.961.961,0,0,1-.315-.227,1.032,1.032,0,0,1-.132-.185,1,1,0,0,1-.121-.482.984.984,0,0,1,.274-.676,1.138,1.138,0,0,1,.12-.1A18.729,18.729,0,0,1,79.1,71.136a.411.411,0,0,1,.244.174.47.47,0,0,1,.058.129.431.431,0,0,1,.011.132.444.444,0,0,1-.024.115.7.7,0,0,1-.033.068c-.014.02-.029.036-.042.056a14.927,14.927,0,0,1-5.39,3.363,8.731,8.731,0,0,1-2.99.592A6.314,6.314,0,0,1,69.872,75.677Zm-45.41-.5a14.927,14.927,0,0,1-5.387-3.363.458.458,0,0,1-.042-.056A.466.466,0,0,1,19,71.686a.388.388,0,0,1-.026-.115.431.431,0,0,1,.011-.132.47.47,0,0,1,.058-.129.415.415,0,0,1,.244-.174,18.724,18.724,0,0,1,10.346,2.621,1.149,1.149,0,0,1,.12.1.985.985,0,0,1,.276.676,1,1,0,0,1-.121.482,1.1,1.1,0,0,1-.13.185.956.956,0,0,1-.318.227,5.574,5.574,0,0,1-.943.245,6.314,6.314,0,0,1-1.062.089A8.744,8.744,0,0,1,24.463,75.174Zm42.6-1.644c-.023,0-.045,0-.068,0a.966.966,0,0,1-.259-.058,1.009,1.009,0,0,1-.4-.265,1.189,1.189,0,0,1-.13-.186.979.979,0,0,1-.123-.476c.3-3.206,2.171-5.657,4.168-8.121a.417.417,0,0,1,.123-.1.505.505,0,0,1,.146-.046l.039,0a.2.2,0,0,1,.042,0,.252.252,0,0,1,.068.011.4.4,0,0,1,.244.173.446.446,0,0,1,.047.109c.871,2.888-1,7.382-3.468,8.857a.964.964,0,0,1-.425.106Zm-36.165-.106c-2.467-1.476-4.338-5.969-3.468-8.857a.353.353,0,0,1,.047-.109.408.408,0,0,1,.244-.173.271.271,0,0,1,.068-.011.2.2,0,0,1,.041,0c.015,0,.027,0,.041,0a.492.492,0,0,1,.146.046.4.4,0,0,1,.123.1c2,2.463,3.873,4.915,4.168,8.121a1,1,0,0,1-.123.476,1.189,1.189,0,0,1-.13.186,1,1,0,0,1-.394.265.992.992,0,0,1-.259.058c-.023,0-.047,0-.07,0H31.32A.953.953,0,0,1,30.895,73.424Zm46.472-4.539a.7.7,0,0,1-.139-.032.879.879,0,0,1-.47-.4.877.877,0,0,1-.079-.2,1,1,0,0,1-.03-.235c0-.029,0-.059,0-.085a.886.886,0,0,1,.082-.29.875.875,0,0,1,.1-.148c2.041-2.268,6.7-4.757,9.269-4.9a.332.332,0,0,1,.038,0c.018,0,.035.006.053.009a.356.356,0,0,1,.227.18.328.328,0,0,1,.039.126.3.3,0,0,1,0,.036v.033a.514.514,0,0,1-.012.076c-.008.02-.018.041-.027.059-1.376,2.557-5.16,5.766-8.137,5.828h-.074A7.454,7.454,0,0,1,77.367,68.885Zm-57.259.054c-2.979-.062-6.763-3.271-8.14-5.828-.008-.018-.018-.039-.024-.059a.508.508,0,0,1-.014-.076v-.033a.32.32,0,0,1,0-.036.341.341,0,0,1,.008-.044.4.4,0,0,1,.032-.082.356.356,0,0,1,.227-.18c.017,0,.036-.007.055-.009a.3.3,0,0,1,.036,0c2.571.147,7.226,2.636,9.27,4.9a.874.874,0,0,1,.094.148.886.886,0,0,1,.082.29c0,.026,0,.056,0,.085a.994.994,0,0,1-.029.235.967.967,0,0,1-.08.2.775.775,0,0,1-.117.165.893.893,0,0,1-.352.239.764.764,0,0,1-.141.032,7.453,7.453,0,0,1-.84.055Zm28.117-.074a28.181,28.181,0,0,1-22.47-27.637c0-.291.008-.582.014-.868V25.178a7.364,7.364,0,0,1,8.395-7.31,17.876,17.876,0,0,0,2.382.159,17.809,17.809,0,0,0,8.426-2.109c.382-.2.753-.424,1.118-.652.179-.112.353-.23.532-.348.153-.106.459-.324.459-.324a3.56,3.56,0,0,1,4.166,0s.306.218.464.324c.173.118.352.236.53.348.361.227.735.447,1.117.652a17.8,17.8,0,0,0,8.426,2.109,18.212,18.212,0,0,0,2.371-.156,7.1,7.1,0,0,1,1.052-.076,7.367,7.367,0,0,1,7.352,7.383v16.23A28.2,28.2,0,0,1,50.048,68.873a6.411,6.411,0,0,1-.891.059A6.743,6.743,0,0,1,48.225,68.865ZM27.088,41.237A26.583,26.583,0,0,0,48.3,67.315a5.833,5.833,0,0,0,.846.059l.008-51.9a3.493,3.493,0,0,0-1.987.711h0c-.141.106-.285.206-.432.307-.167.108-.335.22-.5.327-.339.218-.694.42-1.052.617a18.054,18.054,0,0,1-8.26,1.921,17.635,17.635,0,0,1-2.311-.2,11.36,11.36,0,0,0-1.27-.061c-3.735,0-6.226,2.883-6.367,6.606h-.008S27.088,41.113,27.088,41.237ZM55.068,57.5l-.276-1.626,1.173-1.158-1.627-.232L53.616,53l-.73,1.483-1.62.232,1.171,1.158L52.163,57.5l1.453-.771Zm4.614-7.254-1.621.239,1.173,1.15-.277,1.626,1.453-.77,1.453.768-.274-1.624,1.174-1.151-1.627-.238-.726-1.483Zm-7.758-3.15h1.161V37.756A2.663,2.663,0,0,0,53.7,35.9V33.139H52.534v2.108a1.376,1.376,0,0,1-.856,1.371,2.851,2.851,0,0,1-1.018.23h-.121v1.83h.121a4.1,4.1,0,0,0,1.264-.179Zm2.465-.433h5.737V44.825H54.389Zm11.283-.5-.279-1.624,1.176-1.151-1.621-.238-.73-1.48-.727,1.48-1.621.238,1.176,1.151-.28,1.624,1.453-.77Zm-.2-8.086L65.2,36.454,66.376,35.3l-1.627-.239-.721-1.476-.73,1.476-1.623.239,1.176,1.151-.282,1.626,1.458-.768ZM54.389,35.736h5.737V33.9H54.389Zm7.057-4.325-.277-1.623,1.177-1.153L60.721,28.4,60,26.917l-.729,1.48-1.626.238,1.176,1.153-.276,1.621L60,30.643Zm-7.057-3.983-.28-1.627,1.179-1.151-1.624-.236-.727-1.48-.727,1.48-1.624.236L51.759,25.8l-.277,1.627,1.455-.773ZM74.313,68.171a1.114,1.114,0,0,1-.2-.047.89.89,0,0,1-.47-.406.96.96,0,0,1-.061-.152c-.5-2.406.789-6.444,2.293-8.812a.29.29,0,0,1,.047-.058.293.293,0,0,1,.056-.042.341.341,0,0,1,.142-.052.049.049,0,0,0,.015,0h.055c.021,0,.039.007.059.01a.359.359,0,0,1,.2.153,8.123,8.123,0,0,1-1.573,9.271.448.448,0,0,1-.056.035.878.878,0,0,1-.286.1.957.957,0,0,1-.224,0Zm-50.463,0a.871.871,0,0,1-.285-.1.454.454,0,0,1-.056-.035,8.126,8.126,0,0,1-1.574-9.271.349.349,0,0,1,.2-.153.556.556,0,0,1,.059-.01h.07a.334.334,0,0,1,.142.052.255.255,0,0,1,.056.042.471.471,0,0,1,.049.058c1.5,2.368,2.79,6.406,2.291,8.812a.833.833,0,0,1-.061.152.842.842,0,0,1-.118.165.894.894,0,0,1-.35.241,1.177,1.177,0,0,1-.2.047.971.971,0,0,1-.226,0ZM82.932,61.39a.87.87,0,0,1-.352-.239.98.98,0,0,1-.117-.165.893.893,0,0,1-.079-.194.872.872,0,0,1-.029-.238c0-.027,0-.056,0-.085a.828.828,0,0,1,.058-.2c1.626-3.291,4.284-5.428,7.313-7.283a.317.317,0,0,1,.106-.038.551.551,0,0,1,.071,0c.02,0,.039.008.058.012a.346.346,0,0,1,.229.177.341.341,0,0,1,.032.083.2.2,0,0,1,.007.044.278.278,0,0,1,0,.038v.024a12.661,12.661,0,0,1-4.87,7.3,4.589,4.589,0,0,1-2.179.814A.87.87,0,0,1,82.932,61.39Zm-69.909-.768a12.664,12.664,0,0,1-4.872-7.3V53.3a.145.145,0,0,1,0-.038.348.348,0,0,1,.008-.044.417.417,0,0,1,.032-.083.346.346,0,0,1,.227-.177l.059-.012a.516.516,0,0,1,.07,0,.325.325,0,0,1,.108.038c3.029,1.855,5.688,3.992,7.313,7.283a.762.762,0,0,1,.058.2c0,.029,0,.058,0,.085a.872.872,0,0,1-.03.238.827.827,0,0,1-.079.194.973.973,0,0,1-.115.165.824.824,0,0,1-.608.285A4.6,4.6,0,0,1,13.024,60.622Zm67,.333a.864.864,0,0,1-.352-.238.915.915,0,0,1-.118-.167c-.009-.017-.015-.033-.023-.05a7.838,7.838,0,0,1-.44-1.459,15.335,15.335,0,0,1,.277-5.883c.094-.453.212-.9.341-1.411a.273.273,0,0,1,.041-.1.344.344,0,0,1,.062-.079.513.513,0,0,1,.059-.041.324.324,0,0,1,.141-.052h.07a.259.259,0,0,1,.061.012.352.352,0,0,1,.185.118.972.972,0,0,1,.062.079A8.4,8.4,0,0,1,81.916,58.5a7.992,7.992,0,0,1-.83,2.062A.991.991,0,0,1,81,60.69a.939.939,0,0,1-.171.159.688.688,0,0,1-.091.055.888.888,0,0,1-.286.1.918.918,0,0,1-.132.009A.953.953,0,0,1,80.026,60.955ZM17.936,61a.916.916,0,0,1-.286-.1.813.813,0,0,1-.091-.055,1.057,1.057,0,0,1-.171-.159.858.858,0,0,1-.083-.126,7.991,7.991,0,0,1-.83-2.062A8.4,8.4,0,0,1,18,51.687c.02-.027.042-.053.062-.079a.356.356,0,0,1,.186-.118.247.247,0,0,1,.059-.012h.07a.337.337,0,0,1,.142.052.387.387,0,0,1,.058.041.344.344,0,0,1,.062.079.275.275,0,0,1,.041.1c.129.506.247.958.341,1.411a15.275,15.275,0,0,1,.277,5.883,7.722,7.722,0,0,1-.439,1.459c-.009.017-.014.033-.023.05a.882.882,0,0,1-.47.4.945.945,0,0,1-.294.053A.933.933,0,0,1,17.936,61Zm27.425-4.238-1.262.671.235-1.385,0-.03-1.021-1,1.382-.2.032,0,.63-1.288L46,54.808l1.414.206-1.024,1,.241,1.415Zm-6.854-4.038-1.27.67.247-1.418-1.026-1,1.382-.2.03,0,.637-1.288.615,1.259.017.029,1.415.206-1,.979-.023.023.241,1.418Zm48.445-.588a.876.876,0,0,1-.471-.4.891.891,0,0,1-.108-.421c.291-2.988,2.831-7.392,4.691-9.181a.365.365,0,0,1,.185-.085h.07a.4.4,0,0,1,.059.01.353.353,0,0,1,.227.177.418.418,0,0,1,.032.082,13.8,13.8,0,0,1-1.483,6.944,9.794,9.794,0,0,1-1.694,2.216,3.32,3.32,0,0,1-.852.635.84.84,0,0,1-.656.029Zm-76.171-.029a3.252,3.252,0,0,1-.853-.635,9.75,9.75,0,0,1-1.694-2.216A13.8,13.8,0,0,1,6.75,42.312a.344.344,0,0,1,.033-.082.35.35,0,0,1,.226-.177.362.362,0,0,1,.059-.01h.07a.36.36,0,0,1,.185.085c1.861,1.789,4.4,6.194,4.69,9.181a.923.923,0,0,1-.027.227,1,1,0,0,1-.079.194.81.81,0,0,1-.117.165.866.866,0,0,1-.355.239.836.836,0,0,1-.655-.029Zm73.444-.132a.876.876,0,0,1-.644-.292l-.015-.014c-1.491-2.026-1.974-6.424-1.615-9.033a.33.33,0,0,1,.049-.15.341.341,0,0,1,.062-.077.353.353,0,0,1,.2-.092.589.589,0,0,1,.07,0,.573.573,0,0,1,.059.012.4.4,0,0,1,.1.05c2.82,2.391,3.524,6.81,2.517,9.128a.946.946,0,0,1-.1.153.9.9,0,0,1-.171.159c-.029.02-.059.038-.091.056a.866.866,0,0,1-.411.1Zm-70.481-.1c-.032-.018-.062-.036-.091-.056a.894.894,0,0,1-.171-.159,1.073,1.073,0,0,1-.1-.153c-1.006-2.318-.3-6.738,2.52-9.128a.323.323,0,0,1,.1-.05.5.5,0,0,1,.059-.012.516.516,0,0,1,.068,0,.352.352,0,0,1,.2.092.3.3,0,0,1,.062.077.353.353,0,0,1,.05.15c.355,2.609-.124,7.007-1.62,9.033a.112.112,0,0,1-.011.014.875.875,0,0,1-.645.292h-.009A.87.87,0,0,1,13.743,51.872Zm31.368-4.839V43.746H44.09v3.241h-.624V36.962h0v-.67h1.641v-.914H43.47V34h1.641v-.706h.626V34h1.024v-.706h.623l0,2.086H45.737v.914h1.644l0,10.7h-.623V43.746H45.737v3.286Zm.626-4.668h1.024V40.71H45.737Zm-1.647,0h1.021V40.71H44.09Zm1.647-3.039h1.024V37.669H45.737Zm-1.647,0h1.021V37.669H44.09Zm-3.644,7.707v-.986H38.774V44.668h1.671v-.921H38.774V36.292h1.671v-.914H38.774V34h1.671v-.706h.626V34h1.647v1.38H41.071v.914h1.647v7.454H41.071v.921h1.647v1.379H41.071v.986Zm.626-4.668H42.1V40.71H41.071Zm-1.671,0h1.045V40.71H39.4Zm1.671-3.039H42.1V37.669H41.071Zm-1.671,0h1.045V37.669H39.4Zm-5.084,6.592-.029-.014-1.265.667.233-1.382.006-.032-1.018-1,1.412-.206.632-1.289.635,1.289,1.415.206-1.026,1,.242,1.414Zm51.336-3.8a.109.109,0,0,1-.024-.01.7.7,0,0,1-.2-.118c-1.965-1.62-3.515-5.842-3.709-8.082a.3.3,0,0,1,.085-.2.292.292,0,0,1,.211-.089h0c2.735.829,5.138,5.138,4.618,8.006a.756.756,0,0,1-.726.539A.791.791,0,0,1,85.652,42.121ZM11.99,41.987a.77.77,0,0,1-.239-.362c-.52-2.868,1.884-7.177,4.62-8.006h0a.287.287,0,0,1,.211.089.3.3,0,0,1,.085.2c-.192,2.239-1.744,6.462-3.709,8.082a.711.711,0,0,1-.2.118l-.026.01a.8.8,0,0,1-.256.044A.757.757,0,0,1,11.99,41.987Zm76.329-.106c-.009,0-.017-.008-.024-.009a.763.763,0,0,1-.33-.255.748.748,0,0,1-.144-.357c-.335-2.782,1.1-8.36,2.647-9.913a.288.288,0,0,1,.2-.08.258.258,0,0,1,.049,0,.281.281,0,0,1,.162.085.351.351,0,0,1,.058.094,12.915,12.915,0,0,1-.576,8.578,4.845,4.845,0,0,1-1.367,1.762.746.746,0,0,1-.674.091ZM9.4,41.79a4.813,4.813,0,0,1-1.367-1.762,12.9,12.9,0,0,1-.577-8.578.351.351,0,0,1,.058-.094.281.281,0,0,1,.162-.085.27.27,0,0,1,.048,0,.291.291,0,0,1,.2.08c1.553,1.553,2.98,7.132,2.647,9.913a.732.732,0,0,1-.144.357.773.773,0,0,1-.33.255c-.008,0-.015.006-.024.009A.743.743,0,0,1,9.4,41.79Zm24.725-4-.027-.015-1.268.667.247-1.412-1.021-1,1.409-.209.633-1.286.63,1.286,1.418.209-1,.979-.021.023.238,1.412Zm50.857-5.01a.813.813,0,0,1-.238-.048c-2.191-1.024-4.562-4.4-5.44-6.773a.282.282,0,0,1-.015-.071v-.02a.574.574,0,0,1,.012-.076.289.289,0,0,1,.261-.2c2.468.059,5.794,3.609,6.21,6.371a.34.34,0,0,1,.006.079.756.756,0,0,1-.033.2.653.653,0,0,1-.076.168.756.756,0,0,1-.654.376ZM12.722,32.4a.6.6,0,0,1-.073-.168.693.693,0,0,1-.035-.2.66.66,0,0,1,0-.079c.417-2.762,3.744-6.312,6.211-6.371a.29.29,0,0,1,.261.2.393.393,0,0,1,.009.076s0,.012,0,.02a.282.282,0,0,1-.015.071c-.876,2.376-3.246,5.748-5.44,6.773a.8.8,0,0,1-.236.048h-.032A.76.76,0,0,1,12.722,32.4Zm74.659-.83a.737.737,0,0,1-.259-.058.136.136,0,0,1-.027-.009.782.782,0,0,1-.326-.273c-.014-.02-.024-.042-.036-.063a15.831,15.831,0,0,1-.5-9.577.3.3,0,0,1,.3-.214.171.171,0,0,1,.049.006.312.312,0,0,1,.164.094.233.233,0,0,1,.029.041c.286.494.549.938.77,1.4a10.507,10.507,0,0,1,1.053,6.929,4.7,4.7,0,0,1-.552,1.4.781.781,0,0,1-.625.322Zm-77.033-.321a4.7,4.7,0,0,1-.552-1.4,10.514,10.514,0,0,1,1.05-6.929c.224-.461.485-.9.773-1.4.008-.014.017-.027.026-.041a.328.328,0,0,1,.165-.094.181.181,0,0,1,.05-.006.3.3,0,0,1,.3.214,15.831,15.831,0,0,1-.5,9.577c-.014.021-.023.044-.036.063a.781.781,0,0,1-.329.273.108.108,0,0,1-.024.009.738.738,0,0,1-.261.058h-.034A.776.776,0,0,1,10.348,31.252Zm27.772-.5-1.267.673.233-1.386,0-.033-1.021-1,1.415-.2.635-1.286.612,1.257.015.029,1.414.2-1.021,1,.241,1.42Zm6.752-4.254-1.262.673.235-1.386,0-.03-1.023-1,1.415-.206.632-1.288.633,1.288,1.412.206-1.021,1,.242,1.417Zm36.448-3a12.807,12.807,0,0,1-6.494-5.167.348.348,0,0,1-.026-.092V18.22a.3.3,0,0,1,.243-.3c3.037-.053,6.369,2.382,7.176,4.606a.739.739,0,0,1,.036.217.785.785,0,0,1-.026.2.771.771,0,0,1-.744.571A.672.672,0,0,1,81.32,23.493Zm-65.16-.547a.726.726,0,0,1-.027-.2.738.738,0,0,1,.035-.217c.809-2.224,4.141-4.659,7.176-4.606a.3.3,0,0,1,.244.3v.014a.3.3,0,0,1-.027.092,12.806,12.806,0,0,1-6.491,5.167.72.72,0,0,1-.168.024A.768.768,0,0,1,16.16,22.946Zm67.124-.879a.105.105,0,0,1-.026-.011.729.729,0,0,1-.227-.15,15.719,15.719,0,0,1-2.778-8.757.289.289,0,0,1,.286-.273.232.232,0,0,1,.047,0,.3.3,0,0,1,.161.083c.376.4.8.842,1.108,1.227a9.921,9.921,0,0,1,2.514,6.363,3.838,3.838,0,0,1-.126,1.021.737.737,0,0,1-.959.491Zm-69.142-.491a3.965,3.965,0,0,1-.123-1.021,9.921,9.921,0,0,1,2.514-6.363c.309-.385.732-.832,1.109-1.227a.285.285,0,0,1,.158-.083.263.263,0,0,1,.05,0,.287.287,0,0,1,.283.273,15.729,15.729,0,0,1-2.776,8.757.754.754,0,0,1-.229.15.124.124,0,0,1-.024.011.74.74,0,0,1-.962-.491ZM75.8,15.825a12.111,12.111,0,0,1-6.564-4.31.229.229,0,0,1-.032-.085.03.03,0,0,1,0-.012.282.282,0,0,1,.2-.3c2.859-.314,6.21,1.7,7.163,3.723a.656.656,0,0,1,.051.2.671.671,0,0,1-.007.191.73.73,0,0,1-.65.6l-.04,0A1.047,1.047,0,0,1,75.8,15.825Zm-53.38.008a.735.735,0,0,1-.661-.792.756.756,0,0,1,.051-.2c.955-2.027,4.3-4.036,7.164-3.723a.282.282,0,0,1,.2.3l0,.012a.3.3,0,0,1-.032.085,12.109,12.109,0,0,1-6.566,4.31,1.031,1.031,0,0,1-.119.009ZM77.8,13.889h-.026a.71.71,0,0,1-.249-.07A14.853,14.853,0,0,1,72.5,6.733a.276.276,0,0,1,.179-.33.215.215,0,0,1,.044-.009.27.27,0,0,1,.168.029c.453.248.964.526,1.353.782a9.363,9.363,0,0,1,4.1,5,3.783,3.783,0,0,1,.183.959.709.709,0,0,1-.488.688.729.729,0,0,1-.213.034Zm-57.456-.033a.71.71,0,0,1-.486-.688,3.781,3.781,0,0,1,.182-.959,9.372,9.372,0,0,1,4.1-5c.389-.256.9-.533,1.353-.782a.293.293,0,0,1,.212-.02.28.28,0,0,1,.18.33,14.865,14.865,0,0,1-5.034,7.086.71.71,0,0,1-.249.07h-.049A.739.739,0,0,1,20.347,13.855Zm27.7-3.094V4.277l-.082,0c-1.144.033-2.147.1-3.062.194v-2c.921-.1,1.926-.159,3.067-.193h.077V0h2.23V2.276h.077c1.136.033,2.137.1,3.053.193v2c-.906-.094-1.9-.158-3.047-.194l-.083,0v6.485Zm22.276-1.23a13.577,13.577,0,0,1-6.7-4.221.3.3,0,0,1-.055-.112.279.279,0,0,1,.206-.339c2.876,0,6.29,1.8,7.26,3.645a.68.68,0,0,1,.055.133.733.733,0,0,1-.544.879.644.644,0,0,1-.156.017ZM27.846,9.516a.734.734,0,0,1-.544-.879.79.79,0,0,1,.055-.133c.97-1.845,4.382-3.644,7.26-3.645a.279.279,0,0,1,.15.451,13.553,13.553,0,0,1-6.7,4.221l-.064,0A.669.669,0,0,1,27.846,9.516Z" transform="translate(535.745 1057.188)" fill="#818181"/>
    <g id="Rectangle_44" data-name="Rectangle 44" transform="translate(480 1015)" fill="none" stroke="#707070" stroke-width="1">
      <rect width="210" height="210" stroke="none"/>
      <rect x="0.5" y="0.5" width="209" height="209" fill="none"/>
    </g>
  </g>
</svg>
